<?xml version="1.0" encoding="UTF-8"?>
<svg width="517px" height="43px" viewBox="0 0 517 43" version="1.1" xmlns="http://www.w3.org/2000/svg" xmlns:xlink="http://www.w3.org/1999/xlink">
    <!-- Generator: Sketch 54.1 (76490) - https://sketchapp.com -->
    <title>Blue Cross NC / Products / Healthy Blue / Full / CK</title>
    <desc>Created with Sketch.</desc>
    <defs>
        <polygon id="path-1" points="0.635 0.266 1.395 0.266 1.395 34.341 0.635 34.341"></polygon>
        <polygon id="path-3" points="0.992 0.108 39.034 0.108 39.034 38.94 0.992 38.94"></polygon>
    </defs>
    <g id="Blue-Cross-NC-/-Products-/-Healthy-Blue-/-Full-/-CK" stroke="none" stroke-width="1" fill="none" fill-rule="evenodd">
        <g id="HealthyBlueLockup-CMYK-CK-EPS">
            <path d="M83.262,10.16 L83.262,14.684 L83.298,16.031 L84.587,16.031 C85.182,15.996 85.817,15.943 86.356,15.422 C87.061,14.702 87.061,13.48 87.061,13.053 C87.061,11.742 86.764,11.048 86.239,10.636 C85.846,10.327 85.167,10.146 84.132,10.16 L83.262,10.16 Z M83.298,5.02 L83.278,6.194 L83.262,9.665 L84.387,9.665 C85.133,9.665 85.731,9.431 85.966,9.123 C86.257,8.782 86.407,8.218 86.407,7.334 C86.407,5.411 85.817,5.056 84.505,5.02 L83.298,5.02 Z M78.94,4.509 L85.678,4.509 C86.356,4.527 87.108,4.564 87.803,4.871 C89.102,5.499 89.135,6.771 89.135,7.047 C89.135,7.728 88.895,8.354 88.401,8.849 C87.598,9.685 86.546,9.801 85.782,9.889 C86.614,9.923 87.954,9.993 88.995,11.048 C89.403,11.437 89.901,12.134 89.901,13.236 C89.901,14.025 89.643,14.843 88.995,15.486 C88.03,16.455 86.8,16.489 85.745,16.521 L78.94,16.521 L78.94,16.084 L80.591,16.084 L80.624,14.397 L80.624,6.364 L80.591,4.952 L78.94,4.952 L78.94,4.509 L78.94,4.509 Z" id="Fill-1" fill="#1A1919"></path>
            <path d="M92.62,4.509 C93.423,4.499 93.661,4.499 94.409,4.442 L94.376,6.331 L94.376,14.72 L94.409,16.084 L95.583,16.084 L95.583,16.521 L90.614,16.521 L90.614,16.084 L91.889,16.084 L91.923,14.72 L91.923,6.331 L91.889,4.952 L90.614,4.952 L90.614,4.509 L92.62,4.509" id="Fill-2" fill="#1A1919"></path>
            <path d="M97.559,8.29 C98.44,8.275 98.712,8.275 99.544,8.218 L99.512,9.801 L99.512,13.611 C99.512,14.261 99.544,14.756 99.682,15.095 C99.899,15.621 100.362,15.859 100.925,15.859 C101.419,15.859 101.846,15.675 102.169,15.367 C102.831,14.702 102.811,13.821 102.811,13.068 L102.811,10.043 L102.78,8.731 L101.52,8.731 L101.52,8.29 L102.983,8.29 C103.968,8.275 104.26,8.275 105.245,8.218 L105.212,9.801 L105.212,14.519 L105.245,16.064 L106.475,16.064 L106.475,16.521 L105.177,16.521 C104.089,16.521 103.698,16.543 102.878,16.592 L102.831,15.282 C102.471,15.725 101.639,16.709 99.717,16.709 C98.46,16.709 97.657,16.234 97.333,15.586 C97.079,15.109 97.095,14.494 97.095,13.988 L97.095,9.974 L97.061,8.731 L95.819,8.731 L95.819,8.29 L97.559,8.29" id="Fill-3" fill="#1A1919"></path>
            <path d="M112.88,11.417 C112.893,10.092 112.909,8.527 111.378,8.527 C109.932,8.527 109.862,9.974 109.811,11.417 L112.88,11.417 Z M115.36,14.14 C114.917,14.973 114.001,16.709 111.427,16.709 C108.788,16.709 107.175,14.684 107.175,12.322 C107.175,10.06 108.702,8.054 111.448,8.054 C113.143,8.054 114.081,8.782 114.491,9.206 C115.427,10.176 115.46,11.198 115.481,11.929 L109.796,11.929 C109.811,13.377 109.844,14.684 110.561,15.436 C110.95,15.843 111.518,16.012 112.075,16.012 C113.909,16.012 114.608,14.47 114.848,13.917 L115.36,14.14 L115.36,14.14 Z" id="Fill-4" fill="#1A1919"></path>
            <path d="M127.444,15.675 C126.182,16.131 124.62,16.694 122.661,16.694 C119.157,16.694 116.552,14.175 116.552,10.499 C116.552,6.535 119.552,4.239 122.934,4.239 C123.973,4.239 125.573,4.476 127.374,5.257 L127.374,8.643 L126.848,8.643 C126.764,7.999 126.626,6.941 125.589,5.907 C124.786,5.11 123.872,4.819 123.071,4.819 C122.171,4.819 121.266,5.192 120.673,5.786 C119.821,6.637 119.446,7.999 119.446,10.484 C119.446,12.881 119.739,14.367 120.622,15.267 C121.114,15.775 121.895,16.185 122.833,16.185 C123.731,16.185 124.803,15.827 125.675,14.906 C126.696,13.851 126.811,12.952 126.88,12.304 L127.444,12.304 L127.444,15.675" id="Fill-5" fill="#1A1919"></path>
            <path d="M132.507,16.084 L133.766,16.084 L133.766,16.521 L128.774,16.521 L128.774,16.084 L130.02,16.084 L130.053,14.702 L130.053,10.23 L130.02,8.731 L128.774,8.731 L128.774,8.29 L130.682,8.29 C131.468,8.275 131.723,8.275 132.434,8.218 L132.469,9.514 L132.469,9.889 C132.589,9.514 132.71,9.189 133.081,8.818 C133.475,8.407 134.032,8.138 134.645,8.138 C135.737,8.138 136.198,9.003 136.198,9.767 C136.198,10.806 135.516,10.978 135.141,10.978 C134.969,10.978 134.083,10.89 134.083,9.853 C134.083,9.767 134.139,9.341 134.139,9.256 C134.139,8.902 133.88,8.902 133.833,8.902 C133.608,8.902 133.305,9.173 133.081,9.514 C132.518,10.414 132.485,11.742 132.469,12.676 L132.469,14.702 L132.507,16.084" id="Fill-6" fill="#1A1919"></path>
            <path d="M139.19,12.031 C139.19,14.702 139.358,16.234 140.993,16.234 C142.645,16.234 142.762,14.684 142.762,12.441 C142.762,10.381 142.663,8.492 140.977,8.509 C139.397,8.509 139.19,10.127 139.19,12.031 Z M145.368,12.441 C145.368,15.128 143.223,16.709 140.927,16.709 C138.421,16.709 136.604,14.906 136.604,12.369 C136.604,9.698 138.542,8.101 140.891,8.065 C143.649,8.017 145.368,9.974 145.368,12.441 L145.368,12.441 Z" id="Fill-7" fill="#1A1919"></path>
            <path d="M147.085,13.392 C147.155,13.886 147.208,14.294 147.477,14.804 C147.749,15.35 148.444,16.202 149.651,16.202 C150.661,16.202 151.323,15.639 151.323,14.96 C151.323,14.188 150.575,13.886 149.485,13.496 C147.973,12.935 146.694,12.477 146.694,10.667 C146.694,8.527 148.569,8.036 149.743,8.036 C150.678,8.036 151.444,8.304 152.243,8.577 L152.274,10.79 L151.76,10.79 C151.698,10.451 151.628,10.146 151.51,9.873 C151.292,9.41 150.639,8.593 149.555,8.593 C148.635,8.593 148.225,9.206 148.225,9.634 C148.225,10.16 148.671,10.381 148.858,10.467 C149.126,10.586 150.471,11.08 150.776,11.198 C151.815,11.623 152.887,12.201 152.887,13.769 C152.887,15.552 151.493,16.728 149.45,16.728 C148.329,16.728 147.477,16.423 146.591,16.097 L146.557,13.392 L147.085,13.392" id="Fill-8" fill="#1A1919"></path>
            <path d="M154.878,13.392 C154.944,13.886 154.999,14.294 155.27,14.804 C155.542,15.35 156.239,16.202 157.45,16.202 C158.452,16.202 159.118,15.639 159.118,14.96 C159.118,14.188 158.362,13.886 157.274,13.496 C155.77,12.935 154.489,12.477 154.489,10.667 C154.489,8.527 156.358,8.036 157.536,8.036 C158.468,8.036 159.233,8.304 160.032,8.577 L160.067,10.79 L159.559,10.79 C159.493,10.451 159.421,10.146 159.302,9.873 C159.079,9.41 158.436,8.593 157.344,8.593 C156.428,8.593 156.022,9.206 156.022,9.634 C156.022,10.16 156.46,10.381 156.645,10.467 C156.923,10.586 158.262,11.08 158.569,11.198 C159.606,11.623 160.678,12.201 160.678,13.769 C160.678,15.552 159.286,16.728 157.243,16.728 C156.12,16.728 155.27,16.423 154.385,16.097 L154.354,13.392 L154.878,13.392" id="Fill-9" fill="#1A1919"></path>
            <path d="M170.891,10.16 L170.891,14.684 L170.925,16.031 L172.219,16.031 C172.817,15.996 173.446,15.943 173.989,15.422 C174.686,14.702 174.686,13.48 174.686,13.053 C174.686,11.742 174.395,11.048 173.868,10.636 C173.479,10.327 172.8,10.146 171.762,10.16 L170.891,10.16 Z M170.925,5.02 L170.907,6.194 L170.891,9.665 L172.016,9.665 C172.762,9.665 173.358,9.431 173.598,9.123 C173.887,8.782 174.04,8.218 174.04,7.334 C174.04,5.411 173.446,5.056 172.135,5.02 L170.925,5.02 Z M166.569,4.509 L173.307,4.509 C173.989,4.527 174.737,4.564 175.436,4.871 C176.729,5.499 176.76,6.771 176.76,7.047 C176.76,7.728 176.526,8.354 176.03,8.849 C175.231,9.685 174.177,9.801 173.409,9.889 C174.239,9.923 175.589,9.993 176.626,11.048 C177.034,11.437 177.53,12.134 177.53,13.236 C177.53,14.025 177.27,14.843 176.626,15.486 C175.657,16.455 174.43,16.489 173.374,16.521 L166.569,16.521 L166.569,16.084 L168.219,16.084 L168.255,14.397 L168.255,6.364 L168.219,4.952 L166.569,4.952 L166.569,4.509 L166.569,4.509 Z" id="Fill-10" fill="#1A1919"></path>
            <path d="M180.675,4.509 C181.479,4.499 181.716,4.499 182.464,4.442 L182.43,6.331 L182.43,14.72 L182.464,16.084 L183.637,16.084 L183.637,16.521 L178.671,16.521 L178.671,16.084 L179.946,16.084 L179.981,14.72 L179.981,6.331 L179.946,4.952 L178.671,4.952 L178.671,4.509 L180.675,4.509" id="Fill-11" fill="#1A1919"></path>
            <path d="M185.616,8.29 C186.495,8.275 186.77,8.275 187.6,8.218 L187.569,9.801 L187.569,13.611 C187.569,14.261 187.6,14.756 187.735,15.095 C187.958,15.621 188.419,15.859 188.981,15.859 C189.475,15.859 189.895,15.675 190.221,15.367 C190.887,14.702 190.87,13.821 190.87,13.068 L190.87,10.043 L190.833,8.731 L189.573,8.731 L189.573,8.29 L191.04,8.29 C192.026,8.275 192.315,8.275 193.303,8.218 L193.266,9.801 L193.266,14.519 L193.303,16.064 L194.526,16.064 L194.526,16.521 L193.229,16.521 C192.143,16.521 191.751,16.543 190.94,16.592 L190.887,15.282 C190.528,15.725 189.696,16.709 187.774,16.709 C186.51,16.709 185.716,16.234 185.393,15.586 C185.134,15.109 185.149,14.494 185.149,13.988 L185.149,9.974 L185.118,8.731 L183.874,8.731 L183.874,8.29 L185.616,8.29" id="Fill-12" fill="#1A1919"></path>
            <path d="M201.352,11.417 C201.37,10.092 201.391,8.527 199.858,8.527 C198.409,8.527 198.343,9.974 198.292,11.417 L201.352,11.417 Z M203.841,14.14 C203.399,14.973 202.481,16.709 199.909,16.709 C197.27,16.709 195.655,14.684 195.655,12.322 C195.655,10.06 197.186,8.054 199.923,8.054 C201.63,8.054 202.565,8.782 202.973,9.206 C203.907,10.176 203.94,11.198 203.96,11.929 L198.28,11.929 C198.292,13.377 198.327,14.684 199.04,15.436 C199.432,15.843 199.993,16.012 200.555,16.012 C202.393,16.012 203.087,14.47 203.331,13.917 L203.841,14.14 L203.841,14.14 Z" id="Fill-13" fill="#1A1919"></path>
            <path d="M205.528,12.423 C205.616,12.918 205.702,13.359 205.991,13.952 C207.009,16.064 208.866,16.115 209.241,16.115 C210.583,16.115 211.721,15.316 211.721,14.073 C211.721,12.836 210.786,12.423 208.218,11.369 C207.809,11.198 207.419,11.048 207.046,10.84 C206.594,10.605 205.134,9.753 205.134,7.794 C205.134,5.686 206.825,4.273 209.186,4.273 C210.669,4.273 211.827,4.767 212.432,5.02 L212.606,7.88 L212.061,7.88 C211.827,6.994 211.688,6.506 211.093,5.907 C210.499,5.299 209.716,4.871 208.866,4.871 C207.569,4.871 206.891,5.734 206.891,6.624 C206.891,7.711 207.878,8.167 208.317,8.373 C208.897,8.643 209.473,8.849 210.053,9.089 C211.534,9.685 213.387,10.571 213.387,12.9 C213.387,15.095 211.671,16.709 208.796,16.709 C207.331,16.709 206.206,16.303 205.102,15.909 L204.999,12.423 L205.528,12.423" id="Fill-14" fill="#1A1919"></path>
            <path d="M216.233,4.509 C217.1,4.509 217.305,4.499 218.069,4.442 L218.038,6.298 L218.038,9.531 C218.358,9.02 218.682,8.545 219.649,8.256 C220.059,8.121 220.468,8.065 220.891,8.065 C222.153,8.065 222.768,8.557 223.04,8.818 C223.671,9.443 223.721,10.193 223.753,10.84 L223.753,14.89 L223.786,16.084 L224.96,16.084 L224.96,16.521 L219.975,16.521 L219.975,16.084 L221.282,16.084 L221.321,14.89 L221.321,10.806 C221.321,10.146 221.321,8.818 219.991,8.818 C219.516,8.818 219.057,9.02 218.714,9.36 C218.139,9.939 218.083,10.706 218.038,11.691 L218.038,14.89 L218.069,16.084 L219.346,16.084 L219.346,16.521 L214.376,16.521 L214.376,16.084 L215.622,16.084 L215.651,14.876 L215.651,6.298 L215.622,4.952 L214.376,4.952 L214.376,4.509 L216.233,4.509" id="Fill-15" fill="#1A1919"></path>
            <path d="M226.891,5.77 C226.891,5.036 227.501,4.423 228.251,4.423 C228.979,4.423 229.577,5.02 229.577,5.77 C229.577,6.523 228.979,7.115 228.251,7.115 C227.895,7.115 227.538,6.978 227.302,6.723 C227.046,6.468 226.891,6.128 226.891,5.77 Z M227.401,8.29 C228.387,8.275 228.725,8.275 229.561,8.218 L229.528,10.092 L229.528,14.756 L229.561,16.084 L230.737,16.084 L230.737,16.521 L225.762,16.521 L225.762,16.084 L227.046,16.084 L227.071,14.756 L227.071,10.092 L227.046,8.731 L225.762,8.731 L225.762,8.29 L227.401,8.29 L227.401,8.29 Z" id="Fill-16" fill="#1A1919"></path>
            <path d="M237.094,11.417 C237.11,10.092 237.13,8.527 235.598,8.527 C234.153,8.527 234.085,9.974 234.038,11.417 L237.094,11.417 Z M239.581,14.14 C239.137,14.973 238.219,16.709 235.653,16.709 C233.012,16.709 231.395,14.684 231.395,12.322 C231.395,10.06 232.928,8.054 235.669,8.054 C237.37,8.054 238.303,8.782 238.712,9.206 C239.649,10.176 239.682,11.198 239.698,11.929 L234.02,11.929 C234.038,13.377 234.065,14.684 234.782,15.436 C235.177,15.843 235.737,16.012 236.296,16.012 C238.135,16.012 238.831,14.47 239.071,13.917 L239.581,14.14 L239.581,14.14 Z" id="Fill-17" fill="#1A1919"></path>
            <path d="M242.239,4.509 C243.038,4.499 243.278,4.499 244.026,4.442 L243.993,6.331 L243.993,14.72 L244.026,16.084 L245.2,16.084 L245.2,16.521 L240.231,16.521 L240.231,16.084 L241.509,16.084 L241.536,14.72 L241.536,6.331 L241.509,4.952 L240.231,4.952 L240.231,4.509 L242.239,4.509" id="Fill-18" fill="#1A1919"></path>
            <path d="M249.534,9.256 C249.044,9.767 248.962,10.771 248.962,12.369 C248.962,14.33 249.009,15.961 250.575,15.961 C251.003,15.961 251.495,15.827 251.887,15.422 C252.344,14.941 252.483,14.345 252.483,12.201 C252.483,10.667 252.483,8.8 250.678,8.818 C250.149,8.818 249.76,9.02 249.534,9.256 Z M252.843,4.509 C253.829,4.509 254.13,4.499 254.897,4.442 L254.862,5.819 L254.862,14.876 L254.897,16.064 L256.108,16.064 L256.108,16.521 L254.507,16.521 C253.552,16.543 253.249,16.543 252.444,16.592 L252.444,15.47 C252.055,15.961 251.444,16.709 249.862,16.709 C247.311,16.709 246.292,14.397 246.292,12.525 C246.292,9.853 247.891,8.138 250.081,8.138 C251.137,8.138 251.7,8.474 252.091,8.864 C252.329,9.105 252.384,9.225 252.444,9.431 L252.444,6.061 L252.411,4.952 L251.153,4.952 L251.153,4.509 L252.843,4.509 L252.843,4.509 Z" id="Fill-19" fill="#1A1919"></path>
            <path d="M81.544,30.757 C81.544,33.43 81.712,34.958 83.342,34.958 C84.997,34.958 85.118,33.411 85.118,31.167 C85.118,29.11 85.014,27.221 83.329,27.235 C81.749,27.235 81.544,28.848 81.544,30.757 Z M87.717,31.167 C87.717,33.852 85.577,35.434 83.278,35.434 C80.776,35.434 78.954,33.635 78.954,31.096 C78.954,28.424 80.895,26.827 83.245,26.794 C86.003,26.745 87.717,28.702 87.717,31.167 L87.717,31.167 Z" id="Fill-20" fill="#1A1919"></path>
            <path d="M93.524,24.413 C93.524,23.95 93.339,23.525 92.774,23.525 C91.991,23.525 91.991,24.307 91.991,25.007 L91.991,27.01 L93.383,27.01 L93.383,27.458 L91.991,27.458 L91.991,33.225 L92.024,34.803 L93.383,34.803 L93.383,35.249 L88.335,35.249 L88.335,34.803 L89.573,34.803 L89.61,33.225 L89.61,27.458 L88.335,27.458 L88.335,27.01 L89.61,27.01 L89.61,26.249 C89.628,25.294 89.628,24.073 90.884,23.441 C91.497,23.133 92.176,23.049 92.858,23.049 C95.194,23.049 95.653,24.245 95.653,24.936 C95.653,25.214 95.598,26.007 94.544,26.007 C93.505,26.007 93.505,25.214 93.505,25.04 L93.524,24.413" id="Fill-21" fill="#1A1919"></path>
            <polyline id="Fill-22" fill="#1A1919" points="99.38 23.238 104.21 23.238 110.382 31.116 110.382 25.214 110.35 23.68 108.532 23.68 108.532 23.238 112.567 23.238 112.567 23.68 110.999 23.68 110.964 25.214 110.964 35.417 110.542 35.555 101.608 24.19 101.593 25.686 101.593 33.225 101.622 34.803 103.477 34.803 103.477 35.249 99.38 35.249 99.38 34.803 101.028 34.803 101.061 33.225 101.061 25.214 101.028 23.68 99.38 23.68 99.38 23.238"></polyline>
            <path d="M114.932,30.757 C114.932,33.43 115.104,34.958 116.731,34.958 C118.384,34.958 118.505,33.411 118.505,31.167 C118.505,29.11 118.399,27.221 116.719,27.235 C115.139,27.235 114.932,28.848 114.932,30.757 Z M121.108,31.167 C121.108,33.852 118.966,35.434 116.667,35.434 C114.163,35.434 112.346,33.635 112.346,31.096 C112.346,28.424 114.284,26.827 116.635,26.794 C119.391,26.745 121.108,28.702 121.108,31.167 L121.108,31.167 Z" id="Fill-23" fill="#1A1919"></path>
            <path d="M125.11,34.803 L126.366,34.803 L126.366,35.249 L121.38,35.249 L121.38,34.803 L122.626,34.803 L122.659,33.43 L122.659,28.952 L122.626,27.458 L121.38,27.458 L121.38,27.01 L123.286,27.01 C124.073,26.999 124.321,26.999 125.04,26.944 L125.073,28.243 L125.073,28.612 C125.188,28.243 125.313,27.915 125.684,27.542 C126.075,27.133 126.635,26.858 127.253,26.858 C128.341,26.858 128.796,27.729 128.796,28.499 C128.796,29.53 128.116,29.704 127.743,29.704 C127.575,29.704 126.686,29.618 126.686,28.581 C126.686,28.499 126.741,28.067 126.741,27.983 C126.741,27.624 126.487,27.624 126.436,27.624 C126.21,27.624 125.907,27.897 125.684,28.243 C125.128,29.137 125.091,30.469 125.073,31.405 L125.073,33.43 L125.11,34.803" id="Fill-24" fill="#1A1919"></path>
            <path d="M130.45,24.7 L132.901,24.7 L132.868,26.465 L132.868,27.01 L134.563,27.01 L134.563,27.458 L132.868,27.458 L132.868,32.645 C132.885,33.749 132.901,34.688 133.751,34.688 C134.259,34.688 134.563,34.415 134.893,34.108 L135.198,34.45 C134.704,34.891 134.124,35.401 132.716,35.401 C130.466,35.401 130.466,33.887 130.466,33.022 L130.483,30.587 L130.483,27.458 L129.194,27.458 L129.194,27.01 L130.483,27.01 L130.483,26.465 L130.45,24.7" id="Fill-25" fill="#1A1919"></path>
            <path d="M137.083,23.238 C137.952,23.238 138.159,23.218 138.921,23.168 L138.887,25.024 L138.887,28.254 C139.214,27.747 139.532,27.27 140.503,26.983 C140.911,26.844 141.321,26.794 141.745,26.794 C143.007,26.794 143.622,27.288 143.893,27.542 C144.52,28.17 144.573,28.923 144.606,29.565 L144.606,33.614 L144.639,34.803 L145.815,34.803 L145.815,35.249 L140.827,35.249 L140.827,34.803 L142.137,34.803 L142.171,33.614 L142.171,29.53 C142.171,28.864 142.171,27.542 140.844,27.542 C140.368,27.542 139.907,27.747 139.571,28.085 C138.991,28.669 138.94,29.43 138.887,30.417 L138.887,33.614 L138.921,34.803 L140.198,34.803 L140.198,35.249 L135.233,35.249 L135.233,34.803 L136.469,34.803 L136.505,33.598 L136.505,25.024 L136.469,23.68 L135.233,23.68 L135.233,23.238 L137.083,23.238" id="Fill-26" fill="#1A1919"></path>
            <path d="M160.891,34.399 C159.637,34.858 158.073,35.417 156.114,35.417 C152.61,35.417 150.007,32.899 150.007,29.229 C150.007,25.262 152.999,22.965 156.385,22.965 C157.425,22.965 159.024,23.205 160.827,23.985 L160.827,27.368 L160.298,27.368 C160.216,26.727 160.079,25.673 159.036,24.633 C158.241,23.835 157.327,23.541 156.524,23.541 C155.62,23.541 154.721,23.917 154.126,24.512 C153.274,25.364 152.897,26.727 152.897,29.21 C152.897,31.61 153.19,33.089 154.071,33.991 C154.563,34.501 155.348,34.909 156.282,34.909 C157.186,34.909 158.262,34.553 159.128,33.635 C160.147,32.581 160.264,31.678 160.331,31.032 L160.891,31.032 L160.891,34.399" id="Fill-27" fill="#1A1919"></path>
            <path d="M167.436,30.145 C167.167,30.245 166.911,30.35 166.632,30.434 C165.411,30.86 164.546,31.149 164.546,32.915 C164.546,33.29 164.546,34.618 165.803,34.618 C167.366,34.618 167.401,32.78 167.436,31.385 L167.436,30.145 Z M169.764,33.479 C169.764,33.909 169.802,34.792 170.667,34.792 C170.805,34.792 170.921,34.774 171.046,34.753 L171.046,35.249 C170.157,35.319 169.649,35.354 169.034,35.354 C167.741,35.354 167.553,34.585 167.436,34.059 C167.214,34.45 166.632,35.417 164.835,35.417 C163.233,35.417 162.11,34.553 162.11,32.852 C162.11,31.235 163.163,30.84 163.655,30.657 C164.218,30.469 164.8,30.382 165.358,30.264 C166.057,30.11 166.741,29.891 167.421,29.667 L167.421,28.782 C167.401,28.188 167.366,27.27 166.057,27.27 C165.497,27.27 165.089,27.44 164.868,27.659 C164.608,27.915 164.608,28.155 164.608,28.612 C164.608,29.024 164.489,29.53 163.608,29.53 C163.335,29.53 162.702,29.501 162.702,28.733 C162.702,28.303 162.944,27.897 163.218,27.624 C163.608,27.235 164.358,26.794 166.313,26.794 C169.698,26.794 169.733,28.358 169.764,29.581 L169.764,33.479 L169.764,33.479 Z" id="Fill-28" fill="#1A1919"></path>
            <path d="M175.45,34.803 L176.71,34.803 L176.71,35.249 L171.721,35.249 L171.721,34.803 L172.966,34.803 L173.003,33.43 L173.003,28.952 L172.966,27.458 L171.721,27.458 L171.721,27.01 L173.628,27.01 C174.415,26.999 174.667,26.999 175.382,26.944 L175.419,28.243 L175.419,28.612 C175.536,28.243 175.653,27.915 176.026,27.542 C176.425,27.133 176.985,26.858 177.594,26.858 C178.684,26.858 179.143,27.729 179.143,28.499 C179.143,29.53 178.462,29.704 178.087,29.704 C177.921,29.704 177.034,29.618 177.034,28.581 C177.034,28.499 177.089,28.067 177.089,27.983 C177.089,27.624 176.829,27.624 176.78,27.624 C176.553,27.624 176.253,27.897 176.026,28.243 C175.468,29.137 175.436,30.469 175.419,31.405 L175.419,33.43 L175.45,34.803" id="Fill-29" fill="#1A1919"></path>
            <path d="M182.137,30.757 C182.137,33.43 182.307,34.958 183.942,34.958 C185.594,34.958 185.712,33.411 185.712,31.167 C185.712,29.11 185.608,27.221 183.925,27.235 C182.344,27.235 182.137,28.848 182.137,30.757 Z M188.315,31.167 C188.315,33.852 186.167,35.434 183.874,35.434 C181.372,35.434 179.55,33.635 179.55,31.096 C179.55,28.424 181.489,26.827 183.839,26.794 C186.594,26.745 188.315,28.702 188.315,31.167 L188.315,31.167 Z" id="Fill-30" fill="#1A1919"></path>
            <path d="M190.596,23.238 C191.395,23.218 191.632,23.218 192.382,23.168 L192.346,25.059 L192.346,33.446 L192.382,34.803 L193.555,34.803 L193.555,35.249 L188.585,35.249 L188.585,34.803 L189.862,34.803 L189.895,33.446 L189.895,25.059 L189.862,23.68 L188.585,23.68 L188.585,23.238 L190.596,23.238" id="Fill-31" fill="#1A1919"></path>
            <path d="M195.376,24.493 C195.376,23.766 195.991,23.152 196.733,23.152 C197.469,23.152 198.063,23.747 198.063,24.493 C198.063,25.245 197.469,25.842 196.733,25.842 C196.378,25.842 196.022,25.704 195.78,25.45 C195.528,25.194 195.376,24.85 195.376,24.493 Z M195.885,27.01 C196.874,26.999 197.214,26.999 198.048,26.944 L198.009,28.817 L198.009,33.479 L198.048,34.803 L199.219,34.803 L199.219,35.249 L194.253,35.249 L194.253,34.803 L195.528,34.803 L195.563,33.479 L195.563,28.817 L195.528,27.458 L194.253,27.458 L194.253,27.01 L195.885,27.01 L195.885,27.01 Z" id="Fill-32" fill="#1A1919"></path>
            <path d="M209.272,34.803 L210.452,34.803 L210.452,35.249 L205.567,35.249 L205.567,34.803 L206.776,34.803 L206.807,33.479 L206.807,29.11 C206.792,28.581 206.776,27.592 205.653,27.592 C205.227,27.592 204.745,27.764 204.387,28.104 C203.675,28.801 203.661,29.905 203.63,30.995 L203.63,33.479 L203.661,34.803 L204.852,34.803 L204.852,35.249 L199.932,35.249 L199.932,34.803 L201.178,34.803 L201.208,33.479 L201.208,28.702 L201.178,27.475 L199.932,27.475 L199.932,27.03 L201.686,27.03 C202.606,27.01 202.844,27.01 203.661,26.963 L203.63,28.46 C203.846,28.016 204.018,27.676 204.512,27.335 C205.003,27.01 205.702,26.774 206.606,26.774 C207.216,26.774 207.606,26.895 207.844,26.983 C209.159,27.475 209.206,28.581 209.241,29.294 L209.241,33.479 L209.272,34.803" id="Fill-33" fill="#1A1919"></path>
            <g id="Group-37" transform="translate(0.000000, 1.000000)">
                <path d="M216.903,29.145 C216.634,29.245 216.376,29.35 216.104,29.434 C214.876,29.86 214.01,30.149 214.01,31.915 C214.01,32.29 214.01,33.618 215.27,33.618 C216.835,33.618 216.87,31.78 216.903,30.385 L216.903,29.145 Z M219.233,32.479 C219.233,32.909 219.268,33.792 220.134,33.792 C220.27,33.792 220.393,33.774 220.505,33.753 L220.505,34.249 C219.624,34.319 219.116,34.354 218.503,34.354 C217.208,34.354 217.02,33.585 216.903,33.059 C216.68,33.45 216.104,34.417 214.298,34.417 C212.702,34.417 211.575,33.553 211.575,31.852 C211.575,30.235 212.632,29.84 213.126,29.657 C213.686,29.469 214.264,29.382 214.823,29.264 C215.526,29.11 216.202,28.891 216.885,28.667 L216.885,27.782 C216.87,27.188 216.835,26.27 215.526,26.27 C214.966,26.27 214.555,26.44 214.337,26.659 C214.079,26.915 214.079,27.155 214.079,27.612 C214.079,28.024 213.962,28.53 213.075,28.53 C212.802,28.53 212.175,28.501 212.175,27.733 C212.175,27.303 212.413,26.897 212.682,26.624 C213.075,26.235 213.825,25.794 215.78,25.794 C219.161,25.794 219.2,27.358 219.233,28.581 L219.233,32.479 L219.233,32.479 Z" id="Fill-34" fill="#1A1919"></path>
                <polyline id="Fill-36" fill="#00A3DA" points="26.51 37.008 26.51 26.784 36.733 26.784 36.733 10.437 26.51 10.437 26.51 0.216 10.221 0.216 10.221 10.437 0 10.437 0 26.784 10.221 26.784 10.221 37.008 26.51 37.008"></polyline>
            </g>
            <path d="M8.939,16.084 L15.717,16.736 C16.989,16.915 17.137,18.146 16.8,18.885 L12.157,27.6 L12.167,27.588 C9.808,25.735 8.293,22.867 8.293,19.64 C8.293,18.388 8.523,17.187 8.939,16.077 L8.939,16.084" id="Fill-38" fill="#FFFFFE"></path>
            <path d="M9.947,17.569 L15.077,18.044 C15.448,18.072 15.475,18.228 15.385,18.443 L11.798,25.303 C10.487,23.782 9.699,21.799 9.699,19.64 C9.699,18.927 9.783,18.234 9.947,17.569" id="Fill-39" fill="#00A3DA"></path>
            <path d="M27.85,16.084 L21.071,16.736 C19.801,16.915 19.651,18.146 19.987,18.885 L24.632,27.6 L24.624,27.588 C26.977,25.735 28.493,22.867 28.493,19.64 C28.493,18.388 28.262,17.187 27.844,16.077 L27.85,16.084" id="Fill-40" fill="#FFFFFE"></path>
            <path d="M18.395,9.54 C14.341,9.54 10.852,11.927 9.242,15.367 L16.43,15.367 C17.456,15.344 17.907,14.748 17.928,14.256 C17.952,13.677 17.86,13.494 17.385,12.877 C16.86,12.188 17.221,10.85 18.395,10.83 C19.569,10.85 19.928,12.188 19.405,12.877 C18.929,13.494 18.833,13.677 18.864,14.256 C18.882,14.748 19.335,15.344 20.358,15.367 L27.546,15.367 C25.934,11.927 22.446,9.54 18.395,9.54" id="Fill-41" fill="#FFFFFE"></path>
            <path d="M26.844,17.569 L21.708,18.044 C21.342,18.072 21.313,18.228 21.397,18.443 L24.995,25.303 C26.3,23.782 27.089,21.799 27.089,19.64 C27.089,18.927 27.003,18.234 26.844,17.569" id="Fill-42" fill="#00A3DA"></path>
            <path d="M20.809,11.282 C21.319,12.136 20.907,13.248 20.423,13.775 C20.333,13.867 20.378,13.962 20.46,13.988 L25.005,13.988 C23.917,12.716 22.466,11.759 20.809,11.282" id="Fill-43" fill="#00A3DA"></path>
            <path d="M18.395,29.733 C20.446,29.733 22.352,29.126 23.946,28.077 L23.946,28.083 L19.022,20.726 C18.678,20.252 18.128,20.207 17.764,20.726 L12.841,28.083 L12.841,28.077 C14.434,29.126 16.342,29.733 18.395,29.733" id="Fill-44" fill="#FFFFFE"></path>
            <path d="M56.909,38.403 C63.971,34.497 68.251,28.288 70.458,21.469 C72.743,14.397 72.366,6.031 69.716,0.814 C65.682,2.847 61.626,3.868 56.909,3.881 C52.194,3.892 48.139,2.847 44.108,0.814 C41.458,6.031 41.077,14.397 43.366,21.469 C45.571,28.288 49.85,34.497 56.909,38.403" id="Fill-45" fill="#00A3DA"></path>
            <path d="M56.905,35.243 C62.719,31.643 65.809,26.487 67.8,20.666 C69.551,15.498 69.985,9.443 68.048,4.721 C65.143,5.72 63.442,6.027 61.864,6.273 C60.391,6.506 59.075,6.645 56.921,6.673 L56.905,6.673 C54.747,6.645 53.432,6.506 51.958,6.273 C50.376,6.027 48.673,5.72 45.774,4.721 C43.837,9.443 44.27,15.498 46.028,20.666 C48.012,26.487 51.104,31.643 56.917,35.243 L56.905,35.243" id="Fill-46" fill="#FFFFFE"></path>
            <path d="M56.909,33.813 C60.841,31.338 65.294,25.731 67.079,18.347 C68.018,14.429 68.284,10.032 67.055,6.542 C65.294,7.014 63.649,7.402 61.952,7.627 C60.251,7.859 58.569,8.021 56.917,8.036 L56.907,8.036 C55.249,8.021 53.571,7.859 51.872,7.627 C50.173,7.402 48.53,7.014 46.772,6.542 C45.542,10.032 45.805,14.429 46.749,18.347 C48.528,25.731 52.983,31.338 56.917,33.813 L56.909,33.813" id="Fill-47" fill="#00A3DA"></path>
            <path d="M52.897,10.655 C51.569,11.345 51.106,12.97 51.704,14.281 C52.223,15.415 53.245,16.172 54.428,16.521 C55.026,16.697 55.624,16.744 56.243,16.776 C56.995,16.812 57.678,16.831 58.399,17.019 C58.552,17.059 58.725,17.15 58.805,17.298 C59.001,17.661 58.827,18.062 58.442,18.165 C58.434,18.804 58.376,20.072 58.376,20.072 C58.376,20.072 61.46,19.781 60.936,17.009 C60.813,16.345 60.292,15.664 59.692,15.356 C58.149,14.566 56.448,14.906 54.868,14.391 C54.333,14.222 53.591,13.959 53.444,13.359 C53.385,13.119 53.438,12.64 53.682,12.559 C54.085,12.433 54.528,12.77 55.11,12.9 C55.475,12.984 55.839,12.984 56.128,12.896 C56.255,12.861 56.442,12.81 56.456,12.736 C56.442,12.674 56.294,12.614 56.223,12.573 C56.044,12.485 55.86,12.441 55.669,12.368 C55.348,12.244 55.03,12.096 54.704,11.911 C55.007,11.851 55.518,11.836 55.825,11.871 C56.063,11.901 56.811,11.891 57.034,11.831 C57.083,11.818 57.194,11.777 57.143,11.691 C57.059,11.547 56.911,11.494 56.811,11.353 C56.596,11.056 56.405,10.756 56.051,10.617 C55.036,10.23 53.909,10.127 52.897,10.655" id="Fill-48" fill="#FFFFFE"></path>
            <path d="M58.042,20.55 L58.065,17.316 C58.065,17.316 57.643,17.226 57.063,17.189 C56.309,17.14 55.96,17.153 55.96,17.153 L55.96,17.423 C55.96,17.423 55.598,17.573 55.54,17.677 C55.516,17.726 55.417,17.845 55.466,17.962 C55.758,18.763 56.173,19.543 56.294,20.396 C56.858,20.474 57.352,20.455 58.042,20.55" id="Fill-49" fill="#FFFFFE"></path>
            <path d="M54.173,20.062 C54.04,21.332 54.868,22.013 55.778,22.229 C56.508,22.402 57.208,22.439 57.966,22.524 C58.065,22.539 58.264,22.545 58.415,22.612 C58.55,22.666 58.616,22.748 58.637,22.832 C58.676,22.949 58.659,23.041 58.585,23.133 C58.505,23.236 58.286,23.292 58.286,23.292 L58.245,24.817 C58.245,24.817 58.854,24.796 59.356,24.491 C59.829,24.21 60.12,23.848 60.225,23.395 C60.344,22.869 60.264,22.357 59.889,21.844 C59.643,21.506 59.214,21.259 58.774,21.107 C57.876,20.794 56.905,20.843 55.969,20.708 C55.831,20.691 55.694,20.58 55.68,20.447 C55.659,20.212 55.883,20.103 55.883,20.103 C55.883,20.103 55.768,19.743 55.651,19.384 C55.546,19.119 55.393,18.744 55.288,18.548 C54.655,18.823 54.245,19.406 54.173,20.062" id="Fill-50" fill="#FFFFFE"></path>
            <path d="M57.966,22.882 L57.938,25.622 L57.253,25.305 L56.575,25.024 L56.563,22.738 C57.171,22.815 57.448,22.819 57.966,22.882" id="Fill-51" fill="#FFFFFE"></path>
            <path d="M54.901,24.389 C54.52,25.278 54.993,26.149 55.737,26.51 C56.13,26.704 56.641,26.878 57.063,27.04 C57.477,27.204 58.202,27.649 58.255,27.864 C58.288,27.999 58.133,28.126 58.133,28.126 L58.114,29.196 C58.114,29.196 58.565,29.098 58.891,28.833 C59.202,28.573 59.429,28.243 59.425,27.708 C59.425,27.126 59.151,26.667 58.321,26.18 C57.673,25.799 56.889,25.499 56.276,25.227 C56.19,25.19 56.114,25.014 56.145,24.911 C56.178,24.798 56.253,24.755 56.253,24.755 L56.241,23.517 C56.241,23.517 55.768,23.61 55.548,23.743 C55.341,23.862 55.032,24.069 54.901,24.389" id="Fill-52" fill="#FFFFFE"></path>
            <path d="M57.852,28.032 C57.86,27.944 57.827,27.93 57.784,27.874 C57.6,27.678 57.337,27.55 57.276,27.51 C57.085,27.399 56.663,27.243 56.663,27.243 C56.663,27.243 56.694,30.048 56.741,31.493 C56.759,31.821 56.942,31.909 57.255,31.923 C57.641,31.948 57.757,31.704 57.758,31.563 C57.772,31.098 57.837,29.088 57.852,28.032" id="Fill-53" fill="#FFFFFE"></path>
            <path d="M58.149,10.006 C58.286,10.105 58.286,10.117 58.333,10.319 C58.425,10.769 58.325,11.47 58.415,11.777 C58.46,11.877 58.561,11.877 58.637,11.831 C59.258,11.496 59.678,10.918 60.307,10.652 C60.6,10.528 61.417,10.94 61.225,11.554 C61.137,11.843 61.008,11.886 60.833,12.073 C60.464,12.452 59.95,12.812 59.497,13.306 C59.192,13.636 58.821,13.881 58.585,14.256 C58.512,14.381 58.387,14.543 58.387,14.543 C57.514,14.367 56.636,14.391 55.96,14.256 L55.96,13.247 C55.96,13.247 56.651,13.131 56.78,12.79 C56.792,12.758 56.774,12.642 56.671,12.571 C56.551,12.485 56.348,12.39 56.282,12.368 C56.981,12.477 57.413,12.591 58.089,12.888 C58.13,12.812 58.102,12.646 58.053,12.591 C57.96,12.486 57.911,12.452 57.676,12.398 C57.264,12.285 56.147,12.153 56.147,12.153 C56.147,12.153 56.663,12.152 57.096,12.081 C57.303,12.044 57.479,12.006 57.526,11.931 C57.579,11.819 57.483,11.668 57.337,11.506 C57.233,11.4 57.13,11.293 57.048,11.179 C56.944,11.044 56.778,10.789 56.596,10.624 C56.438,10.485 56.044,10.281 56.044,10.281 C56.044,10.281 55.977,9.744 56.087,9.521 C56.163,9.364 56.378,9.269 56.487,9.327 C56.987,9.606 57.483,9.889 58.149,10.006" id="Fill-54" fill="#FFFFFE"></path>
            <path d="M55.952,11.049 C55.825,11.141 55.731,11.233 55.589,11.256 C55.301,11.304 55.341,11.054 55.149,10.911 C55.026,10.83 54.913,10.94 54.805,10.74 C55.221,10.755 55.766,10.716 56.075,11.03 C56.038,11.011 55.969,11.038 55.952,11.049" id="Fill-55" fill="#00A3DA"></path>
            <path d="M18.253,22.388 C18.335,22.283 18.44,22.275 18.54,22.388 L21.934,27.585 C20.852,28.065 19.655,28.335 18.395,28.335 C17.132,28.335 15.934,28.065 14.856,27.585 L18.253,22.388 C18.346,22.275 18.46,22.283 18.54,22.388" id="Fill-56" fill="#00A3DA"></path>
            <path d="M55.985,29.069 C55.815,29.243 55.534,29.6 55.487,30.171 C55.446,30.682 55.563,30.827 55.692,31.102 C55.796,31.329 56.042,31.319 56.13,31.104 C56.204,30.932 56.098,30.776 56.163,30.395 C56.214,30.12 56.429,29.977 56.429,29.977 L56.405,28.729 C56.405,28.729 56.214,28.833 55.985,29.069" id="Fill-57" fill="#FFFFFE"></path>
            <path d="M15.977,11.282 C15.466,12.136 15.88,13.248 16.366,13.775 C16.458,13.867 16.411,13.962 16.333,13.988 L11.784,13.988 C12.876,12.716 14.325,11.759 15.977,11.282" id="Fill-58" fill="#00A3DA"></path>
            <path d="M64.692,35.577 L64.692,36.235 L65.016,36.235 C65.356,36.235 65.516,36.153 65.516,35.921 C65.516,35.676 65.356,35.577 65.007,35.577 L64.692,35.577 Z M65.907,35.882 C65.907,36.163 65.745,36.364 65.444,36.417 L65.895,37.331 L65.473,37.331 L65.071,36.483 L64.692,36.483 L64.692,37.331 L64.317,37.331 L64.317,35.335 L65.077,35.335 C65.63,35.335 65.907,35.518 65.907,35.882 Z M66.12,35.288 C65.829,34.987 65.444,34.837 65.032,34.837 C64.616,34.837 64.239,34.985 63.96,35.266 C63.663,35.575 63.495,35.964 63.495,36.366 C63.495,36.768 63.653,37.149 63.948,37.44 C64.237,37.733 64.624,37.893 65.016,37.893 C65.432,37.893 65.807,37.737 66.11,37.446 C66.397,37.165 66.561,36.79 66.561,36.38 C66.561,35.956 66.401,35.575 66.12,35.288 Z M66.282,35.124 C66.608,35.456 66.792,35.897 66.792,36.366 C66.792,36.848 66.612,37.282 66.28,37.602 C65.93,37.942 65.483,38.132 65.03,38.132 C64.552,38.132 64.118,37.942 63.78,37.602 C63.444,37.266 63.266,36.831 63.266,36.366 C63.266,35.901 63.456,35.448 63.798,35.104 C64.124,34.774 64.548,34.602 65.03,34.602 C65.505,34.602 65.944,34.784 66.282,35.124 L66.282,35.124 Z" id="Fill-59" fill="#00A3DA"></path>
            <path d="M29.286,35.577 L29.286,36.235 L29.602,36.235 C29.952,36.235 30.11,36.153 30.11,35.921 C30.11,35.676 29.952,35.577 29.598,35.577 L29.286,35.577 Z M30.497,35.882 C30.497,36.163 30.327,36.364 30.04,36.417 L30.485,37.331 L30.063,37.331 L29.657,36.483 L29.286,36.483 L29.286,37.331 L28.907,37.331 L28.907,35.335 L29.663,35.335 C30.219,35.335 30.497,35.518 30.497,35.882 Z M30.714,35.288 C30.417,34.987 30.04,34.837 29.62,34.837 C29.21,34.837 28.829,34.985 28.551,35.266 C28.251,35.575 28.087,35.964 28.087,36.366 C28.087,36.768 28.249,37.149 28.536,37.44 C28.823,37.733 29.214,37.893 29.602,37.893 C30.022,37.893 30.399,37.737 30.698,37.446 C30.987,37.165 31.147,36.79 31.147,36.38 C31.147,35.956 30.997,35.575 30.714,35.288 Z M30.876,35.124 C31.196,35.456 31.382,35.897 31.382,36.366 C31.382,36.848 31.204,37.282 30.87,37.602 C30.52,37.942 30.075,38.132 29.612,38.132 C29.145,38.132 28.71,37.942 28.37,37.602 C28.036,37.266 27.852,36.831 27.852,36.366 C27.852,35.901 28.044,35.448 28.387,35.104 C28.712,34.774 29.139,34.602 29.612,34.602 C30.094,34.602 30.538,34.784 30.876,35.124 L30.876,35.124 Z" id="Fill-60" fill="#00A3DA"></path>
            <g id="Group-63" transform="translate(274.000000, 2.000000)">
                <mask id="mask-2" fill="white">
                    <use xlink:href="#path-1"></use>
                </mask>
                <g id="Clip-62"></g>
                <path d="M1.014,0.265 L1.014,34.341" id="Stroke-61" stroke="#6F8F9D" stroke-width="0.783" mask="url(#mask-2)"></path>
            </g>
            <polyline id="Fill-64" fill="#1A1919" points="293.398 34.83 293.398 4.108 296.164 4.108 296.164 17.597 312.929 17.597 312.929 4.108 315.695 4.108 315.695 34.83 312.929 34.83 312.929 20.15 296.164 20.15 296.164 34.83 293.398 34.83"></polyline>
            <path d="M335.78,22.405 C335.482,18.278 333.269,15.172 328.844,15.172 C324.674,15.172 322.462,18.661 322.121,22.405 L335.78,22.405 Z M322.036,24.746 C322.121,29.299 324.206,33.129 329.44,33.129 C332.461,33.129 334.971,30.958 335.61,28.022 L338.29,28.022 C336.971,33.129 333.78,35.468 328.632,35.468 C322.249,35.468 319.27,29.979 319.27,24.15 C319.27,18.363 322.462,12.831 328.802,12.831 C335.95,12.831 338.546,18.065 338.546,24.746 L322.036,24.746 L322.036,24.746 Z" id="Fill-65" fill="#1A1919"></path>
            <path d="M348.844,33.129 C354.419,33.129 355.482,28.533 355.226,24.065 C351.61,24.192 344.036,23.511 344.036,28.873 C344.036,31.766 346.249,33.129 348.844,33.129 Z M355.226,19.767 C354.971,16.278 353.184,15.172 350.164,15.172 C347.482,15.172 345.27,15.98 344.929,18.874 L342.206,18.874 C342.844,14.491 346.121,12.831 350.206,12.831 C354.928,12.831 357.865,15.002 357.78,19.894 L357.78,30.021 C357.737,31.681 357.907,33.383 357.993,34.83 L355.354,34.83 L355.269,31.681 L355.184,31.681 L355.056,31.979 C354.121,33.766 351.269,35.468 348.376,35.468 C344.419,35.468 341.27,33.043 341.27,28.873 C341.27,25.979 343.014,23.767 345.568,22.703 C348.419,21.469 352.121,21.894 355.226,21.724 L355.226,19.767 L355.226,19.767 Z" id="Fill-66" fill="#1A1919"></path>
            <polygon id="Fill-67" fill="#1A1919" points="363.397 34.83 365.95 34.83 365.95 4.108 363.397 4.108"></polygon>
            <path d="M372.717,15.81 L368.461,15.81 L368.461,13.469 L372.717,13.469 L372.717,8.917 L375.269,7.81 L375.269,13.469 L380.12,13.469 L380.12,15.81 L375.269,15.81 L375.269,30.107 C375.226,32.064 376.248,33.129 378.205,33.129 C378.971,33.129 379.737,33.086 380.418,32.873 L380.418,35.086 C379.609,35.298 378.673,35.468 377.822,35.468 C372.418,35.468 372.717,32.021 372.717,29.129 L372.717,15.81" id="Fill-68" fill="#1A1919"></path>
            <g id="Group-72" transform="translate(383.000000, 4.000000)">
                <mask id="mask-4" fill="white">
                    <use xlink:href="#path-3"></use>
                </mask>
                <g id="Clip-70"></g>
                <path d="M3.546,12.703 L3.631,12.703 C5.12,10.065 7.546,8.831 10.31,8.831 C17.29,8.831 17.843,15.001 17.843,17.469 L17.843,30.83 L15.29,30.83 L15.29,17.044 C15.29,13.341 13.162,11.172 9.673,11.172 C5.46,11.172 3.546,14.703 3.546,18.533 L3.546,30.83 L0.992,30.83 L0.992,0.108 L3.546,0.108 L3.546,12.703" id="Fill-69" fill="#1A1919" mask="url(#mask-4)"></path>
                <polyline id="Fill-71" fill="#1A1919" mask="url(#mask-4)" points="21.928 9.469 29.119 27.341 36.268 9.469 39.034 9.469 27.247 39 24.439 39 27.673 30.83 18.822 9.469 21.928 9.469"></polyline>
            </g>
            <path d="M435.991,18.546 L435.991,30.158 L436.078,33.607 L439.396,33.607 C440.924,33.607 442.539,33.432 443.935,32.035 C445.769,30.202 445.725,27.058 445.725,25.966 C445.725,22.606 444.984,20.816 443.631,19.768 C442.626,18.983 440.88,18.546 438.217,18.546 L435.991,18.546 Z M436.078,5.362 L436.034,8.375 L435.991,17.28 L438.872,17.28 C440.793,17.28 442.321,16.669 442.931,15.883 C443.674,15.01 444.066,13.569 444.066,11.3 C444.066,6.367 442.539,5.362 439.177,5.362 L436.078,5.362 Z M424.902,4.052 L442.19,4.052 C443.935,4.052 445.856,4.14 447.645,4.97 C450.964,6.54 451.051,9.859 451.051,10.558 C451.051,12.303 450.439,13.919 449.175,15.185 C447.123,17.324 444.416,17.63 442.451,17.848 C444.591,17.935 447.995,18.11 450.703,20.816 C451.75,21.865 453.016,23.609 453.016,26.447 C453.016,28.456 452.361,30.551 450.703,32.21 C448.214,34.698 445.07,34.873 442.364,34.873 L424.902,34.873 L424.902,33.738 L429.136,33.738 L429.223,29.416 L429.223,8.811 L429.136,5.188 L424.902,5.188 L424.902,4.052 L424.902,4.052 Z" id="Fill-73" fill="#00A3DA"></path>
            <path d="M458.464,4.052 C460.515,4.052 461.127,4.009 463.048,3.879 L462.96,8.723 L462.96,30.246 L463.048,33.738 L466.059,33.738 L466.059,34.873 L453.311,34.873 L453.311,33.738 L456.586,33.738 L456.675,30.246 L456.675,8.723 L456.586,5.188 L453.311,5.188 L453.311,4.052 L458.464,4.052" id="Fill-74" fill="#00A3DA"></path>
            <path d="M469.587,13.744 C471.856,13.744 472.555,13.7 474.694,13.569 L474.606,17.63 L474.606,27.408 C474.606,29.066 474.694,30.333 475.044,31.207 C475.611,32.559 476.789,33.171 478.23,33.171 C479.496,33.171 480.588,32.69 481.418,31.904 C483.12,30.202 483.076,27.932 483.076,26.011 L483.076,18.24 L482.988,14.88 L479.758,14.88 L479.758,13.744 L483.512,13.744 C486.045,13.744 486.787,13.7 489.319,13.569 L489.231,17.63 L489.231,29.721 L489.319,33.695 L492.461,33.695 L492.461,34.873 L489.144,34.873 C486.35,34.873 485.345,34.918 483.251,35.048 L483.12,31.685 C482.202,32.821 480.063,35.353 475.131,35.353 C471.9,35.353 469.848,34.132 469.018,32.471 C468.364,31.25 468.407,29.677 468.407,28.369 L468.407,18.066 L468.32,14.88 L465.133,14.88 L465.133,13.744 L469.587,13.744" id="Fill-75" fill="#00A3DA"></path>
            <path d="M506.913,21.776 C506.957,18.371 506.999,14.355 503.071,14.355 C499.361,14.355 499.186,18.066 499.055,21.776 L506.913,21.776 Z M513.286,28.76 C512.151,30.901 509.793,35.353 503.202,35.353 C496.434,35.353 492.288,30.158 492.288,24.09 C492.288,18.285 496.218,13.133 503.246,13.133 C507.612,13.133 510.012,15.01 511.059,16.102 C513.461,18.59 513.548,21.21 513.592,23.087 L499.011,23.087 C499.055,26.797 499.141,30.158 500.975,32.079 C501.98,33.127 503.42,33.563 504.86,33.563 C509.576,33.563 511.365,29.591 511.976,28.194 L513.286,28.76 L513.286,28.76 Z" id="Fill-76" fill="#00A3DA"></path>
            <path d="M515.374,16.515 C516.092,16.515 516.668,15.948 516.668,15.2 C516.668,14.463 516.092,13.9 515.374,13.9 C514.653,13.9 514.079,14.463 514.079,15.214 C514.079,15.948 514.653,16.515 515.374,16.515 Z M515.374,13.678 C516.213,13.678 516.916,14.335 516.916,15.2 C516.916,16.079 516.213,16.736 515.374,16.736 C514.535,16.736 513.83,16.079 513.83,15.214 C513.83,14.335 514.535,13.678 515.374,13.678 Z M515.052,15.12 L515.347,15.12 C515.595,15.12 515.83,15.109 515.83,14.829 C515.83,14.582 515.622,14.554 515.431,14.554 L515.052,14.554 L515.052,15.12 Z M514.801,14.332 L515.449,14.332 C515.873,14.332 516.077,14.487 516.077,14.842 C516.077,15.156 515.87,15.294 515.606,15.323 L516.116,16.104 L515.85,16.104 L515.364,15.344 L515.052,15.344 L515.052,16.104 L514.801,16.104 L514.801,14.332 L514.801,14.332 Z" id="Fill-77" fill="#00A3DA"></path>
        </g>
    </g>
</svg>