<?xml version="1.0" encoding="UTF-8"?>
<svg width="256px" height="44px" viewBox="0 0 256 44" version="1.1" xmlns="http://www.w3.org/2000/svg" xmlns:xlink="http://www.w3.org/1999/xlink">
    <!-- Generator: Sketch 54.1 (76490) - https://sketchapp.com -->
    <title>Blue Cross NC / Products / Blue Value / CW</title>
    <desc>Created with Sketch.</desc>
    <defs>
        <polygon id="path-1" points="0.06 0.772 38.827 0.772 38.827 43.336 0.06 43.336"></polygon>
    </defs>
    <g id="Blue-Cross-NC-/-Products-/-Blue-Value-/-CW" stroke="none" stroke-width="1" fill="none" fill-rule="evenodd">
        <g id="BlueValue-RGB-CW-EPS">
            <g id="Group-3">
                <mask id="mask-2" fill="white">
                    <use xlink:href="#path-1"></use>
                </mask>
                <g id="Clip-2"></g>
                <path d="M15.313,20.789 L15.313,36.825 L15.434,41.588 L20.016,41.588 C22.126,41.588 24.356,41.348 26.286,39.418 C28.818,36.885 28.759,32.545 28.759,31.037 C28.759,26.395 27.733,23.923 25.864,22.477 C24.478,21.391 22.066,20.789 18.388,20.789 L15.313,20.789 Z M15.434,2.582 L15.373,6.742 L15.313,19.039 L19.292,19.039 C21.945,19.039 24.055,18.195 24.899,17.11 C25.924,15.905 26.467,13.914 26.467,10.781 C26.467,3.969 24.356,2.582 19.715,2.582 L15.434,2.582 Z M0,0.772 L23.874,0.772 C26.286,0.772 28.939,0.893 31.411,2.039 C35.993,4.209 36.113,8.791 36.113,9.757 C36.113,12.166 35.269,14.398 33.521,16.147 C30.688,19.102 26.949,19.523 24.237,19.824 C27.191,19.944 31.893,20.186 35.631,23.923 C37.078,25.371 38.827,27.781 38.827,31.699 C38.827,34.475 37.922,37.369 35.631,39.658 C32.195,43.096 27.853,43.336 24.115,43.336 L0,43.336 L0,41.768 L5.848,41.768 L5.968,35.801 L5.968,7.344 L5.848,2.339 L0,2.339 L0,0.772 L0,0.772 Z" id="Fill-1" fill="#00A3DA" mask="url(#mask-2)"></path>
            </g>
            <path d="M46.35,0.772 C49.184,0.772 50.028,0.713 52.68,0.533 L52.561,7.223 L52.561,36.946 L52.68,41.768 L56.841,41.768 L56.841,43.336 L39.236,43.336 L39.236,41.768 L43.758,41.768 L43.878,36.946 L43.878,7.223 L43.758,2.339 L39.236,2.339 L39.236,0.772 L46.35,0.772" id="Fill-4" fill="#00A3DA"></path>
            <path d="M61.71,14.158 C64.846,14.158 65.811,14.096 68.765,13.914 L68.644,19.523 L68.644,33.027 C68.644,35.316 68.765,37.066 69.247,38.274 C70.031,40.141 71.659,40.986 73.649,40.986 C75.396,40.986 76.904,40.321 78.05,39.236 C80.401,36.885 80.34,33.75 80.34,31.098 L80.34,20.367 L80.22,15.725 L75.758,15.725 L75.758,14.158 L80.943,14.158 C84.44,14.158 85.465,14.096 88.962,13.914 L88.841,19.523 L88.841,36.223 L88.962,41.709 L93.303,41.709 L93.303,43.336 L88.72,43.336 C84.862,43.336 83.475,43.398 80.581,43.578 L80.401,38.936 C79.135,40.504 76.18,44 69.368,44 C64.907,44 62.073,42.312 60.927,40.02 C60.023,38.332 60.083,36.161 60.083,34.356 L60.083,20.124 L59.962,15.725 L55.561,15.725 L55.561,14.158 L61.71,14.158" id="Fill-5" fill="#00A3DA"></path>
            <path d="M113.26,25.248 C113.32,20.548 113.381,15.001 107.954,15.001 C102.831,15.001 102.589,20.124 102.408,25.248 L113.26,25.248 Z M122.063,34.895 C120.495,37.852 117.239,44 108.136,44 C98.79,44 93.063,36.825 93.063,28.444 C93.063,20.426 98.49,13.313 108.196,13.313 C114.225,13.313 117.541,15.905 118.988,17.412 C122.304,20.85 122.424,24.465 122.484,27.059 L102.349,27.059 C102.408,32.182 102.528,36.825 105.061,39.479 C106.448,40.924 108.437,41.527 110.426,41.527 C116.938,41.527 119.409,36.042 120.253,34.112 L122.063,34.895 L122.063,34.895 Z" id="Fill-6" fill="#00A3DA"></path>
            <polyline id="Fill-7" fill="#FFFFFE" points="137.703 38.947 137.819 38.946 150.679 0.809 154.438 0.771 139.766 42.686 135.486 42.73 119.791 1.123 123.897 1.081 137.703 38.947"></polyline>
            <path d="M162.364,40.143 C169.942,40.066 171.324,33.804 170.916,27.733 C166,27.958 155.694,27.136 155.769,34.425 C155.809,38.358 158.836,40.178 162.364,40.143 Z M170.856,21.891 C170.46,17.152 168.016,15.672 163.909,15.714 C160.265,15.752 157.268,16.881 156.845,20.819 L153.143,20.857 C153.95,14.89 158.381,12.589 163.934,12.532 C170.355,12.467 174.376,15.377 174.328,22.029 L174.468,35.797 C174.433,38.053 174.688,40.364 174.824,42.33 L171.238,42.366 L171.079,38.087 L170.963,38.088 L170.793,38.495 C169.545,40.938 165.693,43.29 161.76,43.33 C156.381,43.385 152.067,40.131 152.009,34.463 C151.969,30.529 154.31,27.498 157.766,26.016 C161.625,24.299 166.663,24.827 170.883,24.552 L170.856,21.891 L170.856,21.891 Z" id="Fill-8" fill="#FFFFFE"></path>
            <polyline id="Fill-9" fill="#FFFFFE" points="184.636 42.582 181.165 42.618 181.168 0.499 184.639 0.463 184.636 42.582"></polyline>
            <path d="M211.491,12.917 L214.962,12.881 L215.19,35.383 C215.214,37.639 215.411,39.95 215.546,41.916 L211.96,41.952 L211.743,37.674 L211.626,37.559 C209.639,41.166 206.358,42.877 202.598,42.915 C193.112,43.012 192.274,34.632 192.24,31.277 L192.056,13.114 L195.526,13.079 L195.717,31.82 C195.769,36.853 198.69,39.773 203.434,39.725 C209.16,39.666 211.714,34.839 211.661,29.633 L211.491,12.917" id="Fill-10" fill="#FFFFFE"></path>
            <path d="M243.024,24.744 C242.563,19.138 239.513,14.945 233.497,15.006 C227.828,15.064 224.868,19.838 224.457,24.933 L243.024,24.744 Z M224.374,28.116 C224.553,34.304 227.44,39.481 234.555,39.408 C238.662,39.366 242.044,36.382 242.871,32.382 L246.516,32.345 C244.793,39.304 240.486,42.529 233.488,42.601 C224.812,42.69 220.686,35.269 220.605,27.344 C220.525,19.478 224.788,11.914 233.406,11.826 C243.124,11.727 246.726,18.806 246.817,27.887 L224.374,28.116 L224.374,28.116 Z" id="Fill-11" fill="#FFFFFE"></path>
            <path d="M249.702,15.568 C249.138,15.568 248.661,15.156 248.646,14.571 L248.989,14.571 C248.999,15.117 249.403,15.273 249.88,15.273 C250.276,15.273 250.733,15.043 250.733,14.59 C250.733,14.237 250.478,14.07 250.179,13.972 C249.604,13.78 248.729,13.598 248.729,12.832 C248.729,12.212 249.3,11.874 249.86,11.874 C250.325,11.874 250.935,12.036 251.015,12.718 L250.671,12.718 C250.661,12.281 250.263,12.169 249.899,12.169 C249.53,12.169 249.073,12.355 249.073,12.788 C249.073,13.795 251.077,13.337 251.077,14.561 C251.077,15.333 250.415,15.568 249.702,15.568" id="Fill-12" fill="#FFFFFE"></path>
            <polyline id="Fill-13" fill="#FFFFFE" points="251.839 15.495 251.839 11.947 252.351 11.947 253.683 15.038 255.042 11.947 255.528 11.947 255.528 15.495 255.21 15.495 255.21 12.217 255.2 12.217 253.845 15.495 253.524 15.495 252.169 12.232 252.159 12.232 252.159 15.495 251.839 15.495"></polyline>
        </g>
    </g>
</svg>