<?xml version="1.0" encoding="UTF-8"?>
<svg width="397px" height="112px" viewBox="0 0 397 112" version="1.1" xmlns="http://www.w3.org/2000/svg" xmlns:xlink="http://www.w3.org/1999/xlink">
    <!-- Generator: Sketch 54.1 (76490) - https://sketchapp.com -->
    <title>Blue Cross NC / Products / Saegis / C</title>
    <desc>Created with Sketch.</desc>
    <g id="Blue-Cross-NC-/-Products-/-Saegis-/-C" stroke="none" stroke-width="1" fill="none" fill-rule="evenodd">
        <g id="SAEGIS-RGB-G-EPS" fill="#74B944">
            <path d="M26.652,24.942 C26.051,23.773 25.245,22.809 24.233,22.047 C23.221,21.286 22.062,20.725 20.755,20.375 C19.441,20.019 18.049,19.844 16.576,19.844 C15.429,19.844 14.265,19.966 13.092,20.212 C11.917,20.456 10.84,20.862 9.857,21.434 C8.875,22.006 8.081,22.752 7.48,23.678 C6.88,24.603 6.58,25.744 6.58,27.103 C6.58,28.247 6.868,29.21 7.438,29.999 C8.009,30.789 8.733,31.456 9.606,31.998 C10.479,32.541 11.428,32.989 12.464,33.343 C13.501,33.699 14.454,33.983 15.33,34.2 L22.198,35.751 C23.666,35.969 25.125,36.363 26.568,36.933 C28.011,37.504 29.295,38.251 30.414,39.177 C31.529,40.101 32.442,41.242 33.153,42.601 C33.86,43.964 34.213,45.568 34.213,47.416 C34.213,49.7 33.694,51.645 32.664,53.249 C31.628,54.854 30.306,56.157 28.704,57.164 C27.095,58.17 25.286,58.887 23.272,59.327 C21.257,59.76 19.27,59.978 17.312,59.978 C12.355,59.978 8.343,58.812 5.268,56.485 C2.19,54.16 0.438,50.411 0,45.241 L5.133,45.241 C5.35,48.726 6.617,51.348 8.933,53.117 C11.247,54.885 14.124,55.768 17.559,55.768 C18.809,55.768 20.105,55.631 21.44,55.359 C22.773,55.09 24.015,54.623 25.158,53.97 C26.301,53.316 27.244,52.486 27.979,51.48 C28.716,50.473 29.081,49.236 29.081,47.763 C29.081,46.511 28.823,45.462 28.304,44.62 C27.787,43.775 27.091,43.068 26.219,42.495 C25.347,41.924 24.352,41.449 23.239,41.068 C22.12,40.685 20.988,40.358 19.844,40.084 L13.22,38.616 C11.532,38.179 9.977,37.674 8.561,37.104 C7.144,36.531 5.903,35.825 4.84,34.982 C3.777,34.136 2.947,33.103 2.347,31.877 C1.745,30.651 1.448,29.141 1.448,27.344 C1.448,25.22 1.926,23.397 2.88,21.872 C3.834,20.345 5.073,19.12 6.598,18.197 C8.125,17.27 9.829,16.592 11.711,16.153 C13.588,15.719 15.456,15.501 17.312,15.501 C19.439,15.501 21.413,15.772 23.239,16.322 C25.063,16.867 26.676,17.712 28.066,18.857 C29.456,20.006 30.558,21.42 31.377,23.107 C32.195,24.792 32.655,26.777 32.766,29.062 L27.633,29.062 C27.581,27.484 27.252,26.112 26.652,24.942" id="Fill-1"></path>
            <path d="M66.475,35.859 C66.145,36.461 65.52,36.895 64.593,37.168 C63.669,37.438 62.855,37.63 62.149,37.737 C59.97,38.12 57.724,38.458 55.412,38.757 C53.102,39.057 50.991,39.505 49.088,40.103 C47.183,40.701 45.617,41.562 44.391,42.674 C43.167,43.788 42.558,45.379 42.558,47.446 C42.558,48.753 42.812,49.906 43.331,50.912 C43.851,51.92 44.539,52.789 45.411,53.523 C46.284,54.26 47.289,54.818 48.433,55.197 C49.577,55.578 50.746,55.768 51.946,55.768 C53.904,55.768 55.778,55.471 57.576,54.871 C59.372,54.273 60.935,53.404 62.273,52.26 C63.604,51.117 64.665,49.732 65.455,48.101 C66.244,46.467 66.638,44.62 66.638,42.551 L66.638,35.859 L66.475,35.859 Z M40.814,23.271 C41.682,21.477 42.865,20.006 44.358,18.857 C45.852,17.712 47.602,16.867 49.615,16.322 C51.622,15.772 53.852,15.501 56.294,15.501 C58.138,15.501 59.985,15.677 61.831,16.033 C63.677,16.383 65.335,17.054 66.8,18.033 C68.267,19.009 69.46,20.383 70.383,22.152 C71.306,23.92 71.771,26.218 71.771,29.047 L71.771,51.408 C71.771,53.476 72.775,54.512 74.791,54.512 C75.384,54.512 75.933,54.401 76.422,54.184 L76.422,58.511 C75.822,58.619 75.291,58.702 74.831,58.755 C74.365,58.807 73.782,58.834 73.074,58.834 C71.765,58.834 70.722,58.658 69.933,58.306 C69.143,57.949 68.53,57.45 68.095,56.795 C67.659,56.145 67.371,55.367 67.234,54.471 C67.099,53.573 67.034,52.581 67.034,51.49 L66.869,51.49 C65.943,52.851 65.005,54.062 64.056,55.121 C63.103,56.184 62.042,57.065 60.874,57.775 C59.707,58.48 58.374,59.023 56.877,59.407 C55.38,59.787 53.599,59.978 51.535,59.978 C49.577,59.978 47.742,59.747 46.03,59.285 C44.317,58.822 42.821,58.092 41.541,57.084 C40.263,56.078 39.261,54.799 38.523,53.249 C37.791,51.697 37.425,49.863 37.425,47.742 C37.425,44.806 38.075,42.509 39.383,40.848 C40.686,39.193 42.412,37.926 44.565,37.057 C46.71,36.187 49.131,35.574 51.826,35.22 C54.519,34.867 57.25,34.526 60.026,34.2 C61.116,34.093 62.065,33.956 62.884,33.792 C63.697,33.629 64.381,33.343 64.922,32.936 C65.466,32.53 65.886,31.972 66.186,31.266 C66.486,30.557 66.638,29.635 66.638,28.49 C66.638,26.751 66.351,25.323 65.783,24.207 C65.211,23.093 64.422,22.209 63.419,21.555 C62.414,20.903 61.248,20.456 59.915,20.212 C58.589,19.966 57.159,19.844 55.637,19.844 C52.38,19.844 49.721,20.618 47.657,22.167 C45.591,23.719 44.507,26.208 44.4,29.635 L39.267,29.635 C39.429,27.187 39.946,25.066 40.814,23.271 L40.814,23.271 Z" id="Fill-2"></path>
            <path d="M109.3,29.219 C108.674,27.425 107.79,25.835 106.65,24.449 C105.509,23.061 104.122,21.95 102.49,21.108 C100.857,20.265 99.01,19.844 96.946,19.844 C94.825,19.844 92.95,20.265 91.316,21.108 C89.685,21.95 88.298,23.061 87.16,24.449 C86.015,25.835 85.103,27.437 84.424,29.26 C83.745,31.082 83.297,32.942 83.079,34.845 L110.32,34.845 C110.266,32.889 109.924,31.014 109.3,29.219 Z M83.856,44.946 C84.374,46.933 85.202,48.715 86.345,50.295 C87.488,51.873 88.931,53.18 90.674,54.215 C92.415,55.25 94.512,55.768 96.963,55.768 C100.715,55.768 103.658,54.789 105.779,52.832 C107.901,50.873 109.369,48.262 110.187,44.998 L115.321,44.998 C114.229,49.785 112.229,53.479 109.324,56.078 C106.413,58.68 102.292,59.978 96.963,59.978 C93.645,59.978 90.773,59.393 88.352,58.224 C85.929,57.055 83.96,55.448 82.437,53.408 C80.911,51.368 79.784,49.002 79.05,46.309 C78.313,43.616 77.949,40.774 77.949,37.779 C77.949,35.008 78.313,32.287 79.05,29.62 C79.782,26.955 80.911,24.573 82.434,22.48 C83.955,20.385 85.924,18.698 88.343,17.417 C90.762,16.14 93.627,15.501 96.946,15.501 C100.313,15.501 103.193,16.181 105.584,17.541 C107.978,18.903 109.92,20.688 111.417,22.892 C112.911,25.099 113.983,27.631 114.637,30.49 C115.287,33.347 115.558,36.247 115.451,39.187 L83.079,39.187 C83.079,41.038 83.338,42.959 83.856,44.946 L83.856,44.946 Z" id="Fill-3"></path>
            <path d="M143.188,52.502 C144.871,51.553 146.283,50.307 147.422,48.76 C148.562,47.215 149.418,45.438 149.989,43.432 C150.56,41.426 150.844,39.366 150.844,37.251 C150.844,35.189 150.6,33.129 150.111,31.069 C149.623,29.009 148.835,27.139 147.749,25.456 C146.664,23.773 145.264,22.418 143.555,21.388 C141.843,20.359 139.765,19.844 137.323,19.844 C134.876,19.844 132.786,20.344 131.048,21.349 C129.312,22.351 127.872,23.667 126.732,25.293 C125.591,26.921 124.764,28.777 124.248,30.866 C123.732,32.955 123.473,35.082 123.473,37.251 C123.473,39.366 123.744,41.426 124.288,43.432 C124.831,45.438 125.673,47.215 126.813,48.76 C127.954,50.307 129.392,51.553 131.131,52.502 C132.868,53.453 134.934,53.926 137.323,53.926 C139.548,53.926 141.504,53.453 143.188,52.502 Z M154.958,63.767 C154.282,66.267 153.208,68.387 151.741,70.125 C150.273,71.864 148.357,73.196 145.991,74.119 C143.624,75.045 140.729,75.506 137.304,75.506 C135.182,75.506 133.113,75.26 131.103,74.771 C129.09,74.277 127.281,73.512 125.676,72.475 C124.072,71.436 122.74,70.117 121.679,68.514 C120.618,66.908 120.005,64.988 119.843,62.76 L124.985,62.76 C125.254,64.337 125.783,65.658 126.572,66.717 C127.362,67.78 128.314,68.635 129.428,69.287 C130.544,69.939 131.781,70.414 133.144,70.715 C134.501,71.014 135.889,71.164 137.304,71.164 C142.088,71.164 145.54,69.803 147.663,67.082 C149.783,64.359 150.844,60.443 150.844,55.328 L150.844,49.621 L150.713,49.621 C149.517,52.23 147.766,54.326 145.454,55.9 C143.145,57.48 140.44,58.268 137.34,58.268 C133.967,58.268 131.087,57.713 128.696,56.598 C126.304,55.485 124.335,53.952 122.785,51.996 C121.235,50.042 120.108,47.747 119.4,45.114 C118.693,42.479 118.342,39.668 118.342,36.68 C118.342,33.8 118.761,31.073 119.605,28.493 C120.447,25.914 121.67,23.66 123.274,21.733 C124.879,19.804 126.861,18.286 129.228,17.171 C131.591,16.059 134.294,15.501 137.34,15.501 C138.915,15.501 140.398,15.719 141.783,16.151 C143.169,16.587 144.435,17.198 145.576,17.986 C146.716,18.776 147.736,19.686 148.632,20.719 C149.528,21.751 150.225,22.838 150.713,23.981 L150.844,23.981 L150.844,16.724 L155.977,16.724 L155.977,55.367 C155.977,58.466 155.638,61.266 154.958,63.767 L154.958,63.767 Z" id="Fill-4"></path>
            <path d="M163.992,58.795 L169.126,58.795 L169.126,16.693 L163.992,16.693 L163.992,58.795 Z M163.992,8.739 L169.126,8.739 L169.126,0.499 L163.992,0.499 L163.992,8.739 Z" id="Fill-5"></path>
            <path d="M201.283,24.942 C200.682,23.773 199.876,22.809 198.866,22.047 C197.853,21.286 196.693,20.725 195.38,20.375 C194.069,20.019 192.679,19.844 191.203,19.844 C190.056,19.844 188.896,19.966 187.72,20.212 C186.548,20.456 185.47,20.862 184.487,21.434 C183.504,22.006 182.71,22.752 182.11,23.678 C181.51,24.603 181.209,25.744 181.209,27.103 C181.209,28.247 181.496,29.21 182.065,29.999 C182.636,30.789 183.361,31.456 184.233,31.998 C185.104,32.541 186.058,32.989 187.096,33.343 C188.13,33.699 189.085,33.983 189.958,34.2 L196.826,35.751 C198.296,35.969 199.751,36.363 201.199,36.933 C202.641,37.504 203.921,38.251 205.041,39.177 C206.159,40.101 207.072,41.242 207.78,42.601 C208.488,43.964 208.844,45.568 208.844,47.416 C208.844,49.7 208.328,51.645 207.291,53.249 C206.258,54.854 204.937,56.157 203.33,57.164 C201.722,58.17 199.918,58.887 197.901,59.327 C195.887,59.76 193.899,59.978 191.939,59.978 C186.983,59.978 182.97,58.812 179.894,56.485 C176.817,54.16 175.065,50.411 174.63,45.241 L179.761,45.241 C179.981,48.726 181.247,51.348 183.562,53.117 C185.878,54.885 188.75,55.768 192.185,55.768 C193.439,55.768 194.73,55.631 196.068,55.359 C197.404,55.09 198.642,54.623 199.789,53.97 C200.931,53.316 201.869,52.486 202.605,51.48 C203.341,50.473 203.71,49.236 203.71,47.763 C203.71,46.511 203.454,45.462 202.935,44.62 C202.414,43.775 201.72,43.068 200.849,42.495 C199.978,41.924 198.984,41.449 197.865,41.068 C196.746,40.685 195.616,40.358 194.472,40.084 L187.852,38.616 C186.161,38.179 184.605,37.674 183.188,37.104 C181.773,36.531 180.531,35.825 179.47,34.982 C178.404,34.136 177.575,33.103 176.973,31.877 C176.373,30.651 176.077,29.141 176.077,27.344 C176.077,25.22 176.554,23.397 177.508,21.872 C178.463,20.345 179.701,19.12 181.226,18.197 C182.752,17.27 184.458,16.592 186.339,16.153 C188.216,15.719 190.084,15.501 191.939,15.501 C194.065,15.501 196.044,15.772 197.869,16.322 C199.695,16.867 201.301,17.712 202.691,18.857 C204.08,20.006 205.185,21.42 206.003,23.107 C206.821,24.792 207.289,26.777 207.395,29.062 L202.262,29.062 C202.207,27.484 201.88,26.112 201.283,24.942" id="Fill-6"></path>
            <path d="M237.174,63.969 C236.806,62.434 236.218,61.07 235.425,59.861 C234.628,58.66 233.614,57.676 232.372,56.921 C231.129,56.16 229.632,55.781 227.883,55.781 C225.943,55.781 224.302,56.16 222.964,56.921 C221.621,57.676 220.535,58.66 219.701,59.861 C218.869,61.07 218.265,62.434 217.9,63.969 C217.527,65.506 217.344,67.051 217.344,68.599 C217.344,70.158 217.527,71.699 217.9,73.234 C218.265,74.771 218.869,76.141 219.701,77.342 C220.535,78.551 221.621,79.529 222.964,80.286 C224.302,81.047 225.943,81.421 227.883,81.421 C229.632,81.421 231.129,81.047 232.372,80.286 C233.614,79.529 234.628,78.551 235.425,77.342 C236.218,76.141 236.806,74.771 237.174,73.234 C237.54,71.699 237.726,70.158 237.726,68.599 C237.726,67.051 237.54,65.506 237.174,63.969 Z M217.344,41.973 L217.344,59.261 L217.437,59.261 C217.825,58.176 218.382,57.224 219.099,56.407 C219.816,55.592 220.644,54.905 221.575,54.343 C222.503,53.779 223.515,53.365 224.603,53.089 C225.691,52.816 226.777,52.682 227.869,52.682 C230.162,52.682 232.148,53.109 233.837,53.965 C235.532,54.815 236.939,55.975 238.066,57.432 C239.193,58.886 240.03,60.571 240.576,62.496 C241.115,64.422 241.386,66.449 241.386,68.582 C241.386,70.723 241.115,72.75 240.576,74.67 C240.03,76.593 239.197,78.283 238.066,79.739 C236.939,81.197 235.532,82.342 233.843,83.178 C232.154,84.013 230.162,84.429 227.875,84.429 C225.429,84.429 223.246,83.863 221.32,82.736 C219.396,81.61 218.012,79.994 217.155,77.896 L217.059,77.896 L217.059,83.613 L213.679,83.613 L213.679,41.973 L217.344,41.973 L217.344,41.973 Z" id="Fill-7"></path>
            <path d="M266.591,62.472 C266.144,61.195 265.511,60.059 264.703,59.066 C263.882,58.08 262.896,57.287 261.728,56.687 C260.564,56.086 259.244,55.781 257.769,55.781 C256.257,55.781 254.923,56.086 253.757,56.687 C252.589,57.287 251.599,58.08 250.789,59.066 C249.972,60.059 249.321,61.201 248.836,62.506 C248.352,63.801 248.031,65.133 247.874,66.491 L267.317,66.491 C267.281,65.096 267.037,63.756 266.591,62.472 Z M248.429,73.697 C248.804,75.118 249.39,76.389 250.205,77.514 C251.019,78.641 252.052,79.578 253.296,80.315 C254.539,81.055 256.037,81.421 257.785,81.421 C260.464,81.421 262.564,80.727 264.08,79.329 C265.592,77.93 266.637,76.066 267.226,73.736 L270.886,73.736 C270.107,77.152 268.683,79.789 266.605,81.646 C264.532,83.502 261.587,84.429 257.785,84.429 C255.416,84.429 253.367,84.013 251.636,83.178 C249.91,82.342 248.503,81.197 247.417,79.739 C246.328,78.283 245.525,76.593 245,74.67 C244.472,72.75 244.214,70.723 244.214,68.582 C244.214,66.605 244.472,64.664 245,62.76 C245.523,60.86 246.328,59.163 247.413,57.66 C248.5,56.169 249.91,54.968 251.632,54.055 C253.359,53.137 255.402,52.682 257.769,52.682 C260.177,52.682 262.229,53.17 263.939,54.142 C265.648,55.111 267.032,56.387 268.101,57.961 C269.169,59.533 269.933,61.342 270.4,63.381 C270.863,65.422 271.058,67.488 270.98,69.592 L247.874,69.592 C247.874,70.909 248.063,72.283 248.429,73.697 L248.429,73.697 Z" id="Fill-8"></path>
            <path d="M278.211,53.557 L278.211,58.734 L278.307,58.734 C279,56.912 280.244,55.448 282.023,54.338 C283.808,53.236 285.761,52.682 287.887,52.682 C289.983,52.682 291.738,52.957 293.153,53.496 C294.564,54.039 295.699,54.807 296.55,55.795 C297.404,56.786 298.003,57.998 298.351,59.434 C298.7,60.869 298.878,62.48 298.878,64.264 L298.878,83.584 L295.214,83.584 L295.214,64.855 C295.214,63.579 295.099,62.387 294.864,61.28 C294.63,60.175 294.226,59.216 293.646,58.4 C293.066,57.586 292.282,56.945 291.292,56.48 C290.31,56.017 289.08,55.781 287.608,55.781 C286.14,55.781 284.834,56.045 283.693,56.566 C282.552,57.09 281.582,57.809 280.791,58.723 C280.001,59.635 279.379,60.721 278.935,61.979 C278.488,63.237 278.25,64.607 278.211,66.08 L278.211,83.584 L274.546,83.584 L274.546,53.557 L278.211,53.557" id="Fill-9"></path>
            <path d="M325.301,62.472 C324.855,61.195 324.226,60.059 323.412,59.066 C322.597,58.08 321.605,57.287 320.443,56.687 C319.28,56.086 317.958,55.781 316.486,55.781 C314.969,55.781 313.631,56.086 312.464,56.687 C311.3,57.287 310.314,58.08 309.5,59.066 C308.687,60.059 308.031,61.201 307.546,62.506 C307.06,63.801 306.745,65.133 306.589,66.491 L326.031,66.491 C325.994,65.096 325.751,63.756 325.301,62.472 Z M307.142,73.697 C307.51,75.118 308.101,76.389 308.917,77.514 C309.732,78.641 310.762,79.578 312.008,80.315 C313.254,81.055 314.748,81.421 316.499,81.421 C319.174,81.421 321.278,80.727 322.787,79.329 C324.302,77.93 325.353,76.066 325.935,73.736 L329.602,73.736 C328.824,77.152 327.396,79.789 325.32,81.646 C323.244,83.502 320.302,84.429 316.499,84.429 C314.13,84.429 312.078,84.013 310.351,83.178 C308.625,82.342 307.213,81.197 306.13,79.739 C305.042,78.283 304.236,76.593 303.708,74.67 C303.187,72.75 302.923,70.723 302.923,68.582 C302.923,66.605 303.187,64.664 303.708,62.76 C304.236,60.86 305.042,59.163 306.128,57.66 C307.213,56.169 308.621,54.968 310.341,54.055 C312.07,53.137 314.114,52.682 316.486,52.682 C318.887,52.682 320.943,53.17 322.654,54.142 C324.361,55.111 325.748,56.387 326.814,57.961 C327.878,59.533 328.647,61.342 329.111,63.381 C329.576,65.422 329.769,67.488 329.695,69.592 L306.589,69.592 C306.589,70.909 306.773,72.283 307.142,73.697 L307.142,73.697 Z" id="Fill-10"></path>
            <path d="M338.897,56.623 L338.897,83.584 L335.236,83.584 L335.236,56.623 L330.111,56.623 L330.111,53.523 L335.236,53.523 L335.236,50.785 C335.236,49.502 335.33,48.314 335.523,47.228 C335.722,46.135 336.085,45.2 336.628,44.425 C337.17,43.647 337.919,43.046 338.871,42.617 C339.816,42.189 341.027,41.973 342.505,41.973 C343.048,41.973 343.554,41.998 344.021,42.035 C344.488,42.072 345.009,42.13 345.592,42.206 L345.592,45.357 C345.087,45.283 344.619,45.216 344.191,45.159 C343.766,45.102 343.339,45.074 342.911,45.074 C341.904,45.074 341.125,45.23 340.585,45.537 C340.04,45.851 339.644,46.269 339.392,46.793 C339.142,47.322 338.987,47.932 338.953,48.631 C338.914,49.328 338.897,50.085 338.897,50.905 L338.897,53.523 L344.836,53.523 L344.836,56.623 L338.897,56.623" id="Fill-11"></path>
            <path d="M347.04,83.584 L350.705,83.584 L350.705,53.537 L347.04,53.537 L347.04,83.584 Z M347.04,47.858 L350.705,47.858 L350.705,41.973 L347.04,41.973 L347.04,47.858 Z" id="Fill-12"></path>
            <path d="M368.255,53.523 L368.255,56.623 L362.147,56.623 L362.147,76.896 C362.147,78.104 362.314,79.049 362.646,79.725 C362.976,80.408 363.798,80.779 365.114,80.857 C366.16,80.857 367.207,80.797 368.255,80.672 L368.255,83.77 C367.713,83.77 367.169,83.787 366.628,83.819 C366.084,83.851 365.544,83.863 365.001,83.863 C362.566,83.863 360.863,83.392 359.892,82.441 C358.923,81.492 358.455,79.736 358.496,77.173 L358.486,56.623 L353.247,56.623 L353.247,53.523 L358.486,53.523 L358.486,44.51 L362.147,44.51 L362.147,53.523 L368.255,53.523" id="Fill-13"></path>
            <path d="M389.5,59.421 C389.072,58.586 388.496,57.894 387.773,57.353 C387.048,56.812 386.222,56.411 385.289,56.16 C384.351,55.906 383.357,55.781 382.306,55.781 C381.488,55.781 380.66,55.873 379.822,56.045 C378.98,56.218 378.212,56.51 377.511,56.917 C376.808,57.322 376.242,57.859 375.814,58.521 C375.386,59.182 375.171,59.992 375.171,60.967 C375.171,61.781 375.378,62.469 375.791,63.031 C376.197,63.596 376.71,64.072 377.332,64.459 C377.951,64.846 378.634,65.166 379.371,65.416 C380.111,65.67 380.792,65.876 381.417,66.029 L386.318,67.135 C387.371,67.297 388.41,67.57 389.437,67.979 C390.472,68.391 391.386,68.92 392.183,69.582 C392.98,70.244 393.632,71.059 394.138,72.029 C394.644,72.999 394.898,74.144 394.898,75.459 C394.898,77.092 394.525,78.482 393.789,79.629 C393.054,80.771 392.107,81.699 390.962,82.421 C389.814,83.14 388.525,83.65 387.085,83.962 C385.646,84.275 384.232,84.429 382.832,84.429 C379.294,84.429 376.431,83.598 374.234,81.939 C372.041,80.275 370.789,77.602 370.472,73.913 L374.136,73.913 C374.294,76.396 375.199,78.271 376.851,79.535 C378.505,80.797 380.554,81.421 383.011,81.421 C383.902,81.421 384.824,81.328 385.779,81.134 C386.73,80.94 387.615,80.607 388.433,80.144 C389.248,79.674 389.923,79.086 390.451,78.367 C390.97,77.645 391.236,76.762 391.236,75.709 C391.236,74.817 391.05,74.067 390.675,73.465 C390.308,72.864 389.812,72.357 389.191,71.951 C388.57,71.545 387.855,71.203 387.064,70.934 C386.263,70.66 385.457,70.425 384.642,70.232 L379.914,69.18 C378.705,68.871 377.593,68.514 376.589,68.103 C375.576,67.695 374.689,67.189 373.929,66.59 C373.173,65.984 372.578,65.249 372.148,64.371 C371.722,63.496 371.507,62.419 371.507,61.137 C371.507,59.623 371.843,58.318 372.533,57.229 C373.21,56.139 374.095,55.268 375.185,54.605 C376.275,53.947 377.492,53.463 378.832,53.149 C380.175,52.838 381.507,52.682 382.832,52.682 C384.347,52.682 385.757,52.879 387.064,53.269 C388.367,53.66 389.517,54.26 390.505,55.084 C391.498,55.896 392.289,56.908 392.867,58.112 C393.455,59.313 393.783,60.734 393.867,62.361 L390.201,62.361 C390.162,61.238 389.927,60.26 389.5,59.421" id="Fill-14"></path>
            <path d="M5.855,110.286 L10.062,110.286 C11.513,110.286 12.435,109.4 12.435,108.021 C12.435,106.375 11.106,105.916 9.692,105.916 L5.855,105.916 L5.855,110.286 Z M5.855,104.501 L9.216,104.501 C11.124,104.501 11.903,103.812 11.903,102.488 C11.903,100.732 10.665,100.488 9.216,100.488 L5.855,100.488 L5.855,104.501 Z M4.175,99.07 L8.755,99.07 C9.869,99.07 11.337,99.07 12.098,99.531 C12.928,100.027 13.585,100.93 13.585,102.168 C13.585,103.51 12.875,104.521 11.707,104.996 L11.707,105.031 C13.265,105.352 14.114,106.518 14.114,108.075 C14.114,109.932 12.788,111.701 10.277,111.701 L4.175,111.701 L4.175,99.07 L4.175,99.07 Z" id="Fill-15"></path>
            <polyline id="Fill-16" points="22.48 99.07 31.198 99.07 31.198 100.488 24.16 100.488 24.16 104.501 30.719 104.501 30.719 105.916 24.16 105.916 24.16 110.286 31.252 110.286 31.252 111.701 22.48 111.701 22.48 99.07"></polyline>
            <path d="M48.353,102.875 C48,101.089 46.566,100.186 44.815,100.186 C41.81,100.186 40.536,102.663 40.536,105.297 C40.536,108.181 41.81,110.584 44.833,110.584 C47.044,110.584 48.318,109.028 48.477,106.942 L50.157,106.942 C49.84,110.09 47.876,112 44.693,112 C40.767,112 38.856,109.102 38.856,105.42 C38.856,101.76 40.945,98.771 44.833,98.771 C47.47,98.771 49.645,100.186 50.034,102.875 L48.353,102.875" id="Fill-17"></path>
            <path d="M60.611,106.484 L64.891,106.484 L62.785,100.594 L62.749,100.594 L60.611,106.484 Z M61.866,99.07 L63.722,99.07 L68.657,111.701 L66.801,111.701 L65.421,107.899 L60.079,107.899 L58.665,111.701 L56.932,111.701 L61.866,99.07 L61.866,99.07 Z" id="Fill-18"></path>
            <path d="M86.167,107.137 C86.167,110.32 84.344,112 81.197,112 C77.942,112 76.014,110.498 76.014,107.137 L76.014,99.07 L77.696,99.07 L77.696,107.137 C77.696,109.365 78.968,110.584 81.197,110.584 C83.318,110.584 84.487,109.365 84.487,107.137 L84.487,99.07 L86.167,99.07 L86.167,107.137" id="Fill-19"></path>
            <path d="M102.347,102.769 C102.154,100.963 100.952,100.186 99.218,100.186 C97.804,100.186 96.386,100.699 96.386,102.344 C96.386,103.902 98.404,104.133 100.438,104.59 C102.452,105.049 104.47,105.758 104.47,108.233 C104.47,110.922 101.835,112 99.535,112 C96.707,112 94.318,110.621 94.318,107.543 L95.91,107.543 C95.91,109.666 97.679,110.584 99.589,110.584 C101.109,110.584 102.791,110.107 102.791,108.287 C102.791,106.554 100.774,106.254 98.757,105.812 C96.741,105.369 94.708,104.785 94.708,102.469 C94.708,99.905 96.989,98.771 99.29,98.771 C101.871,98.771 103.833,99.991 103.94,102.769 L102.347,102.769" id="Fill-20"></path>
            <polyline id="Fill-21" points="112.694 99.07 121.414 99.07 121.414 100.488 114.374 100.488 114.374 104.501 120.938 104.501 120.938 105.916 114.374 105.916 114.374 110.286 121.467 110.286 121.467 111.701 112.694 111.701 112.694 99.07"></polyline>
            <path d="M147.238,110.286 L151.447,110.286 C152.896,110.286 153.817,109.4 153.817,108.021 C153.817,106.375 152.489,105.916 151.074,105.916 L147.238,105.916 L147.238,110.286 Z M147.238,104.501 L150.599,104.501 C152.507,104.501 153.286,103.812 153.286,102.488 C153.286,100.732 152.047,100.488 150.599,100.488 L147.238,100.488 L147.238,104.501 Z M145.558,99.07 L150.137,99.07 C151.252,99.07 152.719,99.07 153.482,99.531 C154.312,100.027 154.967,100.93 154.967,102.168 C154.967,103.51 154.259,104.521 153.093,104.996 L153.093,105.031 C154.647,105.352 155.496,106.518 155.496,108.075 C155.496,109.932 154.17,111.701 151.659,111.701 L145.558,111.701 L145.558,99.07 L145.558,99.07 Z" id="Fill-22"></path>
            <polyline id="Fill-23" points="163.863 99.07 172.582 99.07 172.582 100.488 165.542 100.488 165.542 104.501 172.103 104.501 172.103 105.916 165.542 105.916 165.542 110.286 172.634 110.286 172.634 111.701 163.863 111.701 163.863 99.07"></polyline>
            <polyline id="Fill-24" points="180.841 99.07 182.625 99.07 189.277 109.312 189.313 109.312 189.313 99.07 190.903 99.07 190.903 111.701 189.064 111.701 182.468 101.567 182.433 101.567 182.433 111.701 180.841 111.701 180.841 99.07"></polyline>
            <polyline id="Fill-25" points="199.817 99.07 208.538 99.07 208.538 100.488 201.499 100.488 201.499 104.501 208.059 104.501 208.059 105.916 201.499 105.916 201.499 110.286 208.591 110.286 208.591 111.701 199.817 111.701 199.817 99.07"></polyline>
            <polyline id="Fill-26" points="216.814 99.07 225.108 99.07 225.108 100.488 218.495 100.488 218.495 104.501 224.296 104.501 224.296 105.916 218.495 105.916 218.495 111.701 216.814 111.701 216.814 99.07"></polyline>
            <polygon id="Fill-27" points="233.228 111.701 234.904 111.701 234.904 99.07 233.228 99.07"></polygon>
            <polyline id="Fill-28" points="246.791 100.488 242.582 100.488 242.582 99.07 252.678 99.07 252.678 100.488 248.47 100.488 248.47 111.701 246.791 111.701 246.791 100.488"></polyline>
            <path d="M267.572,102.769 C267.376,100.963 266.175,100.186 264.44,100.186 C263.025,100.186 261.611,100.699 261.611,102.344 C261.611,103.902 263.625,104.133 265.662,104.59 C267.677,105.049 269.694,105.758 269.694,108.233 C269.694,110.922 267.058,112 264.757,112 C261.929,112 259.542,110.621 259.542,107.543 L261.134,107.543 C261.134,109.666 262.901,110.584 264.811,110.584 C266.333,110.584 268.011,110.107 268.011,108.287 C268.011,106.554 266,106.254 263.98,105.812 C261.964,105.369 259.932,104.785 259.932,102.469 C259.932,99.905 262.21,98.771 264.513,98.771 C267.091,98.771 269.058,99.991 269.162,102.769 L267.572,102.769" id="Fill-29"></path>
            <polyline id="Fill-30" points="293.819 99.07 296.12 99.07 300.099 109.682 304.097 99.07 306.394 99.07 306.394 111.701 304.804 111.701 304.804 101.194 304.765 101.194 300.824 111.701 299.392 111.701 295.446 101.194 295.412 101.194 295.412 111.701 293.819 111.701 293.819 99.07"></polyline>
            <path d="M317.553,106.484 L321.833,106.484 L319.728,100.594 L319.693,100.594 L317.553,106.484 Z M318.81,99.07 L320.667,99.07 L325.602,111.701 L323.742,111.701 L322.365,107.899 L317.025,107.899 L315.609,111.701 L313.876,111.701 L318.81,99.07 L318.81,99.07 Z" id="Fill-31"></path>
            <polyline id="Fill-32" points="334.269 100.488 330.062 100.488 330.062 99.07 340.16 99.07 340.16 100.488 335.953 100.488 335.953 111.701 334.269 111.701 334.269 100.488"></polyline>
            <polyline id="Fill-33" points="350.613 100.488 346.404 100.488 346.404 99.07 356.502 99.07 356.502 100.488 352.293 100.488 352.293 111.701 350.613 111.701 350.613 100.488"></polyline>
            <polyline id="Fill-34" points="364.089 99.07 372.806 99.07 372.806 100.488 365.769 100.488 365.769 104.501 372.33 104.501 372.33 105.916 365.769 105.916 365.769 110.286 372.863 110.286 372.863 111.701 364.089 111.701 364.089 99.07"></polyline>
            <path d="M386.267,104.891 C387.841,104.891 389.187,104.484 389.187,102.646 C389.187,101.406 388.515,100.488 386.939,100.488 L382.765,100.488 L382.765,104.891 L386.267,104.891 Z M381.085,99.07 L387.029,99.07 C389.4,99.07 390.865,100.363 390.865,102.379 C390.865,103.902 390.193,105.154 388.673,105.581 L388.673,105.615 C390.14,105.898 390.441,106.978 390.564,108.215 C390.671,109.455 390.601,110.834 391.308,111.701 L389.433,111.701 C388.957,111.189 389.222,109.826 388.972,108.586 C388.794,107.35 388.496,106.307 386.871,106.307 L382.765,106.307 L382.765,111.701 L381.085,111.701 L381.085,99.07 L381.085,99.07 Z" id="Fill-35"></path>
            <polygon id="Fill-36" points="394.362 111.435 396.631 111.435 396.631 109.163 394.362 109.163"></polygon>
        </g>
    </g>
</svg>