<?xml version="1.0" encoding="UTF-8"?>
<svg width="390px" height="56px" viewBox="0 0 390 56" version="1.1" xmlns="http://www.w3.org/2000/svg" xmlns:xlink="http://www.w3.org/1999/xlink">
    <!-- Generator: Sketch 54.1 (76490) - https://sketchapp.com -->
    <title>Blue Cross NC / Products / BlueAdvantage / CK</title>
    <desc>Created with Sketch.</desc>
    <defs>
        <polygon id="path-1" points="0.091 0.462 55.29 0.462 55.29 42.941 0.091 42.941"></polygon>
    </defs>
    <g id="Blue-Cross-NC-/-Products-/-BlueAdvantage-/-CK" stroke="none" stroke-width="1" fill="none" fill-rule="evenodd">
        <g id="BlueAdvantage-RGB-CK-EPS">
            <path d="M15.239,20.303 L15.239,36.262 L15.358,41.002 L19.919,41.002 C22.019,41.002 24.239,40.762 26.159,38.842 C28.679,36.323 28.618,32.002 28.618,30.502 C28.618,25.883 27.599,23.422 25.739,21.983 C24.358,20.903 21.959,20.303 18.299,20.303 L15.239,20.303 Z M15.358,2.185 L15.299,6.324 L15.239,18.563 L19.198,18.563 C21.839,18.563 23.939,17.723 24.778,16.643 C25.798,15.444 26.339,13.463 26.339,10.344 C26.339,3.564 24.239,2.185 19.618,2.185 L15.358,2.185 Z M0,0.384 L23.759,0.384 C26.159,0.384 28.798,0.505 31.259,1.645 C35.818,3.804 35.939,8.364 35.939,9.324 C35.939,11.724 35.099,13.944 33.358,15.684 C30.538,18.624 26.818,19.043 24.118,19.344 C27.059,19.463 31.738,19.704 35.458,23.422 C36.898,24.864 38.638,27.262 38.638,31.163 C38.638,33.922 37.738,36.803 35.458,39.082 C32.038,42.502 27.718,42.743 23.999,42.743 L0,42.743 L0,41.182 L5.819,41.182 L5.939,35.243 L5.939,6.925 L5.819,1.944 L0,1.944 L0,0.384 L0,0.384 Z" id="Fill-1" fill="#38A1CE"></path>
            <path d="M46.126,0.384 C48.945,0.384 49.785,0.324 52.425,0.145 L52.306,6.804 L52.306,36.383 L52.425,41.182 L56.565,41.182 L56.565,42.743 L39.046,42.743 L39.046,41.182 L43.546,41.182 L43.665,36.383 L43.665,6.804 L43.546,1.944 L39.046,1.944 L39.046,0.384 L46.126,0.384" id="Fill-2" fill="#38A1CE"></path>
            <path d="M61.411,13.704 C64.531,13.704 65.491,13.643 68.431,13.463 L68.312,19.043 L68.312,32.483 C68.312,34.762 68.431,36.502 68.911,37.704 C69.69,39.563 71.312,40.403 73.291,40.403 C75.03,40.403 76.53,39.743 77.671,38.663 C80.011,36.323 79.95,33.204 79.95,30.563 L79.95,19.883 L79.831,15.264 L75.391,15.264 L75.391,13.704 L80.551,13.704 C84.03,13.704 85.05,13.643 88.53,13.463 L88.41,19.043 L88.41,35.663 L88.53,41.124 L92.851,41.124 L92.851,42.743 L88.29,42.743 C84.45,42.743 83.07,42.803 80.19,42.983 L80.011,38.362 C78.751,39.922 75.811,43.403 69.03,43.403 C64.591,43.403 61.771,41.723 60.632,39.442 C59.731,37.762 59.792,35.602 59.792,33.803 L59.792,19.643 L59.671,15.264 L55.292,15.264 L55.292,13.704 L61.411,13.704" id="Fill-3" fill="#38A1CE"></path>
            <path d="M112.711,24.743 C112.771,20.063 112.83,14.543 107.431,14.543 C102.331,14.543 102.091,19.643 101.911,24.743 L112.711,24.743 Z M121.471,34.342 C119.91,37.284 116.67,43.403 107.611,43.403 C98.311,43.403 92.611,36.262 92.611,27.922 C92.611,19.944 98.012,12.864 107.671,12.864 C113.671,12.864 116.971,15.444 118.41,16.944 C121.711,20.364 121.83,23.963 121.891,26.543 L101.852,26.543 C101.911,31.643 102.031,36.262 104.551,38.903 C105.932,40.342 107.91,40.942 109.891,40.942 C116.371,40.942 118.83,35.483 119.67,33.563 L121.471,34.342 L121.471,34.342 Z" id="Fill-4" fill="#38A1CE"></path>
            <path d="M151.09,28.181 L141.73,3.762 L132.191,28.181 L151.09,28.181 Z M122.351,43.48 L139.51,0.162 L144.07,0.162 L161.349,43.48 L157.089,43.48 L152.47,31.781 L130.93,31.781 L126.371,43.48 L122.351,43.48 L122.351,43.48 Z" id="Fill-5" fill="#1C1B19"></path>
            <path d="M175.451,15.762 C168.611,15.762 166.391,22.121 166.391,27.881 C166.391,33.461 168.011,41.081 174.911,41.081 C182.771,41.081 185.171,34.541 185.171,27.701 C185.171,21.582 182.471,15.762 175.451,15.762 Z M185.29,39.041 L185.171,38.801 C182.711,42.4 179.051,44.38 174.851,44.38 C165.911,44.38 162.491,35.861 162.491,28.301 C162.491,20.501 165.911,12.462 174.851,12.462 C178.871,12.462 183.07,14.382 185.171,17.921 L185.29,17.802 L185.29,0.162 L188.891,0.162 L188.891,36.701 C188.891,39.041 189.07,41.44 189.19,43.48 L185.471,43.48 L185.29,39.041 L185.29,39.041 Z" id="Fill-6" fill="#1C1B19"></path>
            <polyline id="Fill-7" fill="#1C1B19" points="195.791 13.362 206.171 38.5 216.19 13.362 220.15 13.362 208.211 43.48 204.131 43.48 191.831 13.362 195.791 13.362"></polyline>
            <path d="M231.73,41.081 C239.59,41.081 241.09,34.601 240.729,28.301 C235.63,28.481 224.95,27.521 224.95,35.081 C224.95,39.161 228.07,41.081 231.73,41.081 Z M240.729,22.241 C240.37,17.321 237.85,15.762 233.59,15.762 C229.811,15.762 226.69,16.901 226.21,20.981 L222.37,20.981 C223.271,14.802 227.891,12.462 233.65,12.462 C240.31,12.462 244.449,15.521 244.329,22.421 L244.329,36.701 C244.27,39.041 244.51,41.44 244.63,43.48 L240.91,43.48 L240.79,39.041 L240.67,39.041 L240.489,39.46 C239.17,41.98 235.15,44.38 231.07,44.38 C225.49,44.38 221.051,40.96 221.051,35.081 C221.051,31.001 223.511,27.881 227.11,26.381 C231.13,24.641 236.35,25.241 240.729,25.001 L240.729,22.241 L240.729,22.241 Z" id="Fill-8" fill="#1C1B19"></path>
            <path d="M255.19,43.48 L251.591,43.48 L251.591,20.142 C251.591,17.802 251.411,15.401 251.291,13.362 L255.011,13.362 L255.19,17.802 L255.311,17.921 C257.41,14.202 260.83,12.462 264.73,12.462 C274.57,12.462 275.35,21.161 275.35,24.641 L275.35,43.48 L271.75,43.48 L271.75,24.041 C271.75,18.821 268.75,15.762 263.83,15.762 C257.891,15.762 255.19,20.741 255.19,26.141 L255.19,43.48" id="Fill-9" fill="#1C1B19"></path>
            <path d="M285.431,16.662 L279.431,16.662 L279.431,13.362 L285.431,13.362 L285.431,6.942 L289.03,5.382 L289.03,13.362 L295.87,13.362 L295.87,16.662 L289.03,16.662 L289.03,36.821 C288.971,39.581 290.41,41.081 293.17,41.081 C294.25,41.081 295.33,41.02 296.29,40.721 L296.29,43.84 C295.15,44.141 293.83,44.38 292.63,44.38 C285.011,44.38 285.431,39.521 285.431,35.441 L285.431,16.662" id="Fill-10" fill="#1C1B19"></path>
            <g id="Group-14" transform="translate(298.000000, 12.000000)">
                <mask id="mask-2" fill="white">
                    <use xlink:href="#path-1"></use>
                </mask>
                <g id="Clip-12"></g>
                <path d="M10.771,29.081 C18.63,29.081 20.13,22.601 19.77,16.301 C14.67,16.481 3.99,15.521 3.99,23.081 C3.99,27.161 7.11,29.081 10.771,29.081 Z M19.77,10.241 C19.41,5.321 16.89,3.762 12.63,3.762 C8.851,3.762 5.73,4.901 5.25,8.981 L1.41,8.981 C2.311,2.802 6.931,0.462 12.69,0.462 C19.35,0.462 23.489,3.521 23.37,10.421 L23.37,24.701 C23.31,27.041 23.55,29.44 23.67,31.48 L19.95,31.48 L19.83,27.041 L19.71,27.041 L19.53,27.46 C18.21,29.98 14.19,32.38 10.11,32.38 C4.53,32.38 0.091,28.96 0.091,23.081 C0.091,19.001 2.551,15.881 6.15,14.381 C10.17,12.641 15.39,13.241 19.77,13.001 L19.77,10.241 L19.77,10.241 Z" id="Fill-11" fill="#1C1B19" mask="url(#mask-2)"></path>
                <path d="M41.73,3.762 C35.19,3.762 32.431,10.361 32.431,15.881 C32.431,21.401 35.251,28.061 41.851,28.061 C48.75,28.061 51.39,21.641 51.39,15.761 C51.39,10.001 48.21,3.762 41.73,3.762 Z M51.57,1.362 L55.29,1.362 C55.17,3.401 54.99,5.802 54.99,8.142 L54.99,26.201 C54.99,32.2 55.29,38.5 48.63,41.62 C46.23,42.76 44.61,43 41.79,43 C36.331,43 29.851,41.14 29.851,34.9 L33.751,34.9 C34.171,38.5 38.431,39.7 42.271,39.7 C46.95,39.7 51.271,36.4 51.39,31.36 L51.39,25.721 L51.271,25.721 C49.53,29.261 45.391,31.36 41.49,31.36 C32.431,31.36 28.531,24.461 28.531,16.181 C28.531,8.021 32.19,0.462 41.37,0.462 C45.75,0.462 48.87,2.562 51.271,6.042 L51.39,5.802 L51.57,1.362 L51.57,1.362 Z" id="Fill-13" fill="#1C1B19" mask="url(#mask-2)"></path>
            </g>
            <path d="M381.37,25.961 C380.95,20.142 377.83,15.762 371.59,15.762 C365.71,15.762 362.591,20.682 362.11,25.961 L381.37,25.961 Z M361.99,29.261 C362.11,35.681 365.051,41.081 372.43,41.081 C376.69,41.081 380.229,38.021 381.13,33.881 L384.909,33.881 C383.05,41.081 378.55,44.38 371.29,44.38 C362.29,44.38 358.091,36.641 358.091,28.421 C358.091,20.261 362.591,12.462 371.53,12.462 C381.609,12.462 385.27,19.841 385.27,29.261 L361.99,29.261 L361.99,29.261 Z" id="Fill-15" fill="#1C1B19"></path>
            <path d="M386.896,17.67 C388.208,17.67 389.256,16.637 389.256,15.274 C389.256,13.932 388.208,12.906 386.896,12.906 C385.586,12.906 384.538,13.932 384.538,15.303 C384.538,16.637 385.586,17.67 386.896,17.67 Z M386.896,12.502 C388.426,12.502 389.706,13.7 389.706,15.274 C389.706,16.875 388.426,18.075 386.896,18.075 C385.369,18.075 384.089,16.875 384.089,15.303 C384.089,13.7 385.369,12.502 386.896,12.502 Z M386.306,15.131 L386.859,15.131 C387.31,15.131 387.729,15.108 387.729,14.598 C387.729,14.149 387.347,14.098 387.002,14.098 L386.306,14.098 L386.306,15.131 Z M385.856,13.692 L387.039,13.692 C387.811,13.692 388.178,13.977 388.178,14.622 C388.178,15.198 387.803,15.446 387.324,15.499 L388.254,16.92 L387.766,16.92 L386.883,15.536 L386.306,15.536 L386.306,16.92 L385.856,16.92 L385.856,13.692 L385.856,13.692 Z" id="Fill-16" fill="#1C1B19"></path>
        </g>
    </g>
</svg>