<?xml version="1.0" encoding="UTF-8"?>
<svg width="259px" height="73px" viewBox="0 0 259 73" version="1.1" xmlns="http://www.w3.org/2000/svg" xmlns:xlink="http://www.w3.org/1999/xlink">
    <!-- Generator: Sketch 54.1 (76490) - https://sketchapp.com -->
    <title>Blue Cross NC / Products / Blue Local Atrium Health / CK</title>
    <desc>Created with Sketch.</desc>
    <defs>
        <polygon id="path-1" points="0.294 0.379 9.833 0.379 9.833 15.94 0.294 15.94"></polygon>
        <polygon id="path-3" points="0.79 0.379 21.183 0.379 21.183 15.94 0.79 15.94"></polygon>
        <polygon id="path-5" points="0.469 0.379 13.76 0.379 13.76 15.94 0.469 15.94"></polygon>
        <polygon id="path-7" points="0.191 0.379 47.146 0.379 47.146 15.94 0.191 15.94"></polygon>
    </defs>
    <g id="Blue-Cross-NC-/-Products-/-Blue-Local-Atrium-Health-/-CK" stroke="none" stroke-width="1" fill="none" fill-rule="evenodd">
        <g id="BlueLocalAtriumHealth-RGB-CK-EPS">
            <g id="Group-4" fill="#37A1CE">
                <path d="M15.24,20.475 L15.24,36.435 L15.36,41.175 L19.921,41.175 C22.02,41.175 24.24,40.935 26.16,39.015 C28.68,36.495 28.62,32.175 28.62,30.675 C28.62,26.055 27.6,23.595 25.74,22.155 C24.36,21.075 21.96,20.475 18.301,20.475 L15.24,20.475 Z M15.36,2.355 L15.301,6.495 L15.24,18.735 L19.2,18.735 C21.841,18.735 23.94,17.895 24.78,16.815 C25.801,15.615 26.341,13.635 26.341,10.515 C26.341,3.735 24.24,2.355 19.62,2.355 L15.36,2.355 Z M0,0.555 L23.76,0.555 C26.16,0.555 28.801,0.675 31.26,1.815 C35.82,3.975 35.94,8.535 35.94,9.495 C35.94,11.895 35.1,14.115 33.36,15.855 C30.54,18.795 26.82,19.215 24.12,19.515 C27.06,19.635 31.74,19.875 35.461,23.595 C36.9,25.035 38.64,27.435 38.64,31.335 C38.64,34.095 37.74,36.976 35.461,39.255 C32.04,42.675 27.72,42.915 24,42.915 L0,42.915 L0,41.354 L5.82,41.354 L5.94,35.415 L5.94,7.095 L5.82,2.115 L0,2.115 L0,0.555 L0,0.555 Z" id="Fill-1"></path>
                <path d="M46.139,0.555 C48.96,0.555 49.8,0.495 52.439,0.315 L52.32,6.975 L52.32,36.556 L52.439,41.354 L56.58,41.354 L56.58,42.915 L39.059,42.915 L39.059,41.354 L43.559,41.354 L43.679,36.556 L43.679,6.975 L43.559,2.115 L39.059,2.115 L39.059,0.555 L46.139,0.555" id="Fill-3"></path>
            </g>
            <path d="M61.439,13.875 C64.559,13.875 65.519,13.815 68.459,13.635 L68.34,19.215 L68.34,32.655 C68.34,34.935 68.459,36.675 68.939,37.875 C69.719,39.735 71.34,40.575 73.319,40.575 C75.059,40.575 76.559,39.915 77.699,38.835 C80.039,36.495 79.979,33.375 79.979,30.735 L79.979,20.055 L79.859,15.435 L75.42,15.435 L75.42,13.875 L80.579,13.875 C84.059,13.875 85.079,13.815 88.559,13.635 L88.439,19.215 L88.439,35.835 L88.559,41.295 L92.88,41.295 L92.88,42.915 L88.319,42.915 C84.479,42.915 83.099,42.976 80.219,43.155 L80.039,38.535 C78.779,40.095 75.84,43.575 69.059,43.575 C64.619,43.575 61.799,41.896 60.659,39.615 C59.76,37.935 59.819,35.774 59.819,33.976 L59.819,19.815 L59.699,15.435 L55.319,15.435 L55.319,13.875 L61.439,13.875" id="Fill-5" fill="#37A1CE"></path>
            <path d="M113.34,24.915 C113.4,20.235 113.46,14.715 108.059,14.715 C102.96,14.715 102.719,19.815 102.54,24.915 L113.34,24.915 Z M122.099,34.515 C120.54,37.455 117.3,43.575 108.24,43.575 C98.938,43.575 93.239,36.435 93.239,28.095 C93.239,20.115 98.638,13.035 108.3,13.035 C114.3,13.035 117.599,15.615 119.04,17.115 C122.34,20.535 122.46,24.135 122.52,26.715 L102.48,26.715 C102.54,31.815 102.66,36.435 105.179,39.075 C106.559,40.515 108.54,41.115 110.519,41.115 C117,41.115 119.46,35.655 120.3,33.735 L122.099,34.515 L122.099,34.515 Z" id="Fill-6" fill="#37A1CE"></path>
            <path d="M252.307,4.096 C251.743,4.096 251.266,3.683 251.251,3.098 L251.594,3.098 C251.604,3.644 252.008,3.801 252.485,3.801 C252.882,3.801 253.339,3.57 253.339,3.118 C253.339,2.764 253.083,2.597 252.784,2.499 C252.21,2.307 251.335,2.126 251.335,1.359 C251.335,0.74 251.905,0.401 252.466,0.401 C252.93,0.401 253.54,0.563 253.62,1.246 L253.276,1.246 C253.266,0.809 252.868,0.696 252.505,0.696 C252.135,0.696 251.678,0.882 251.678,1.315 C251.678,2.322 253.682,1.865 253.682,3.088 C253.682,3.86 253.02,4.096 252.307,4.096" id="Fill-7" fill="#1B1A19"></path>
            <polyline id="Fill-8" fill="#1B1A19" points="254.444 4.022 254.444 0.475 254.956 0.475 256.288 3.565 257.647 0.475 258.133 0.475 258.133 4.022 257.815 4.022 257.815 0.745 257.805 0.745 256.45 4.022 256.13 4.022 254.774 0.759 254.764 0.759 254.764 4.022 254.444 4.022"></polyline>
            <polyline id="Fill-9" fill="#1B1A19" points="127.813 42.913 127.813 0.539 131.629 0.539 131.629 39.391 152.932 39.391 152.932 42.913 127.813 42.913"></polyline>
            <path d="M167.718,15.798 C160.617,15.798 157.799,22.724 157.799,28.181 C157.799,33.64 160.617,40.564 167.718,40.564 C174.818,40.564 177.636,33.64 177.636,28.181 C177.636,22.724 174.818,15.798 167.718,15.798 Z M181.451,28.181 C181.451,35.929 177.107,43.792 167.718,43.792 C158.328,43.792 153.985,35.929 153.985,28.181 C153.985,20.435 158.328,12.57 167.718,12.57 C177.107,12.57 181.451,20.435 181.451,28.181 L181.451,28.181 Z" id="Fill-10" fill="#1B1A19"></path>
            <path d="M206.335,22.488 C206.041,17.97 203.166,15.798 198.295,15.798 C192.894,15.798 189.55,21.433 189.55,28.123 C189.55,34.872 192.894,40.564 198.295,40.564 C202.872,40.564 206.041,37.748 206.335,33.698 L210.15,33.698 C209.21,40.448 205.338,43.792 198.647,43.792 C189.842,43.792 185.735,36.222 185.735,28.181 C185.735,20.2 190.136,12.57 198.881,12.57 C204.927,12.57 209.856,16.209 210.15,22.488 L206.335,22.488" id="Fill-11" fill="#1B1A19"></path>
            <path d="M224.941,40.564 C232.629,40.564 234.096,34.227 233.744,28.065 C228.757,28.24 218.308,27.301 218.308,34.695 C218.308,38.688 221.361,40.564 224.941,40.564 Z M233.744,22.137 C233.391,17.324 230.927,15.798 226.761,15.798 C223.062,15.798 220.012,16.913 219.541,20.904 L215.786,20.904 C216.666,14.859 221.186,12.57 226.819,12.57 C233.333,12.57 237.383,15.563 237.265,22.313 L237.265,36.28 C237.207,38.569 237.443,40.917 237.559,42.913 L233.921,42.913 L233.802,38.569 L233.685,38.569 L233.51,38.98 C232.217,41.445 228.286,43.792 224.295,43.792 C218.839,43.792 214.495,40.448 214.495,34.695 C214.495,30.705 216.901,27.653 220.423,26.186 C224.355,24.484 229.46,25.071 233.744,24.836 L233.744,22.137 L233.744,22.137 Z" id="Fill-12" fill="#1B1A19"></path>
            <polygon id="Fill-13" fill="#1B1A19" points="243.685 42.913 247.207 42.913 247.207 0.539 243.685 0.539"></polygon>
            <polyline id="Fill-14" fill="#1B1A19" points="10.941 71.007 10.984 71.007 14.205 62.042 15.71 62.042 18.846 70.923 18.889 70.923 21.963 62.042 23.361 62.042 19.398 72.682 18.19 72.682 14.926 63.505 14.884 63.505 11.556 72.682 10.263 72.682 6.363 62.042 7.762 62.042 10.941 71.007"></polyline>
            <g id="Group-18" transform="translate(25.000000, 57.000000)">
                <mask id="mask-2" fill="white">
                    <use xlink:href="#path-1"></use>
                </mask>
                <g id="Clip-16"></g>
                <path d="M0.4,15.682 L1.671,15.682 L1.671,5.042 L0.4,5.042 L0.4,15.682 Z M0.294,1.969 L1.778,1.969 L1.778,0.379 L0.294,0.379 L0.294,1.969 Z" id="Fill-15" fill="#1B1A19" mask="url(#mask-2)"></path>
                <path d="M5.996,6.208 L3.877,6.208 L3.877,5.042 L5.996,5.042 L5.996,2.774 L7.268,2.224 L7.268,5.042 L9.684,5.042 L9.684,6.208 L7.268,6.208 L7.268,13.329 C7.247,14.304 7.756,14.834 8.73,14.834 C9.112,14.834 9.494,14.812 9.833,14.707 L9.833,15.809 C9.429,15.915 8.964,16 8.54,16 C5.848,16 5.996,14.283 5.996,12.842 L5.996,6.208" id="Fill-17" fill="#1B1A19" mask="url(#mask-2)"></path>
            </g>
            <path d="M38.416,63.652 L38.459,63.652 C39.2,62.339 40.409,61.724 41.786,61.724 C45.262,61.724 45.538,64.797 45.538,66.026 L45.538,72.682 L44.265,72.682 L44.265,65.814 C44.265,63.971 43.206,62.89 41.469,62.89 C39.37,62.89 38.416,64.65 38.416,66.557 L38.416,72.682 L37.144,72.682 L37.144,57.379 L38.416,57.379 L38.416,63.652" id="Fill-19" fill="#1B1A19"></path>
            <g id="Group-23" transform="translate(52.000000, 57.000000)">
                <mask id="mask-4" fill="white">
                    <use xlink:href="#path-3"></use>
                </mask>
                <g id="Clip-21"></g>
                <path d="M10.942,10.277 L7.635,1.651 L4.266,10.277 L10.942,10.277 Z M0.79,15.682 L6.851,0.379 L8.463,0.379 L14.566,15.682 L13.061,15.682 L11.429,11.549 L3.821,11.549 L2.21,15.682 L0.79,15.682 L0.79,15.682 Z" id="Fill-20" fill="#1B1A19" mask="url(#mask-4)"></path>
                <path d="M17.346,6.208 L15.227,6.208 L15.227,5.042 L17.346,5.042 L17.346,2.774 L18.619,2.224 L18.619,5.042 L21.035,5.042 L21.035,6.208 L18.619,6.208 L18.619,13.329 C18.597,14.304 19.106,14.834 20.081,14.834 C20.463,14.834 20.844,14.812 21.183,14.707 L21.183,15.809 C20.78,15.915 20.314,16 19.89,16 C17.199,16 17.346,14.283 17.346,12.842 L17.346,6.208" id="Fill-22" fill="#1B1A19" mask="url(#mask-4)"></path>
            </g>
            <path d="M76.766,72.682 L75.495,72.682 L75.495,64.437 C75.516,63.61 75.431,62.763 75.389,62.042 L76.703,62.042 L76.766,63.61 L76.809,63.61 C77.191,62.529 78.144,61.767 79.204,61.724 C79.628,61.703 80.051,61.724 80.475,61.745 L80.475,62.975 C80.221,62.953 79.946,62.89 79.691,62.89 C77.805,62.89 76.809,64.246 76.766,66.281 L76.766,72.682" id="Fill-24" fill="#1B1A19"></path>
            <g id="Group-28" transform="translate(82.000000, 57.000000)">
                <mask id="mask-6" fill="white">
                    <use xlink:href="#path-5"></use>
                </mask>
                <g id="Clip-26"></g>
                <path d="M0.576,15.682 L1.847,15.682 L1.847,5.042 L0.576,5.042 L0.576,15.682 Z M0.469,1.969 L1.953,1.969 L1.953,0.379 L0.469,0.379 L0.469,1.969 Z" id="Fill-25" fill="#1B1A19" mask="url(#mask-6)"></path>
                <path d="M12.383,5.042 L13.654,5.042 L13.654,13.287 C13.654,14.113 13.718,14.961 13.76,15.682 L12.446,15.682 L12.383,14.113 L12.34,14.071 C11.597,15.385 10.389,16 9.012,16 C5.536,16 5.26,12.927 5.26,11.697 L5.26,5.042 L6.532,5.042 L6.532,11.909 C6.532,13.753 7.593,14.834 9.33,14.834 C11.428,14.834 12.383,13.075 12.383,11.167 L12.383,5.042" id="Fill-27" fill="#1B1A19" mask="url(#mask-6)"></path>
            </g>
            <path d="M100.299,63.61 L100.341,63.652 C101.083,62.339 102.291,61.724 103.669,61.724 C105.342,61.724 106.657,62.656 107.123,64.056 C107.907,62.805 109.136,61.724 110.79,61.724 C114.265,61.724 114.541,64.797 114.541,66.026 L114.541,72.682 L113.269,72.682 L113.269,65.814 C113.269,63.971 112.21,62.89 110.471,62.89 C108.374,62.89 107.42,64.65 107.42,66.557 L107.42,72.682 L106.148,72.682 L106.148,65.814 C106.148,63.971 105.089,62.89 103.35,62.89 C101.252,62.89 100.299,64.65 100.299,66.557 L100.299,72.682 L99.027,72.682 L99.027,64.437 C99.027,63.61 98.963,62.763 98.921,62.042 L100.235,62.042 L100.299,63.61" id="Fill-29" fill="#1B1A19"></path>
            <g id="Group-36" transform="translate(124.000000, 57.000000)">
                <mask id="mask-8" fill="white">
                    <use xlink:href="#path-7"></use>
                </mask>
                <g id="Clip-31"></g>
                <polyline id="Fill-30" fill="#1B1A19" mask="url(#mask-8)" points="0.191 15.682 0.191 0.379 1.568 0.379 1.568 7.098 9.919 7.098 9.919 0.379 11.297 0.379 11.297 15.682 9.919 15.682 9.919 8.369 1.568 8.369 1.568 15.682 0.191 15.682"></polyline>
                <path d="M22.681,9.493 C22.533,7.437 21.43,5.89 19.226,5.89 C17.149,5.89 16.048,7.628 15.878,9.493 L22.681,9.493 Z M15.836,10.658 C15.878,12.927 16.917,14.834 19.523,14.834 C21.028,14.834 22.279,13.753 22.596,12.29 L23.931,12.29 C23.275,14.834 21.685,16 19.121,16 C15.941,16 14.458,13.266 14.458,10.362 C14.458,7.479 16.048,4.724 19.206,4.724 C22.766,4.724 24.059,7.331 24.059,10.658 L15.836,10.658 L15.836,10.658 Z" id="Fill-32" fill="#1B1A19" mask="url(#mask-8)"></path>
                <path d="M29.932,14.834 C32.71,14.834 33.239,12.545 33.112,10.319 C31.31,10.383 27.538,10.044 27.538,12.715 C27.538,14.155 28.64,14.834 29.932,14.834 Z M33.112,8.179 C32.985,6.441 32.094,5.89 30.59,5.89 C29.255,5.89 28.152,6.293 27.983,7.733 L26.627,7.733 C26.944,5.551 28.576,4.724 30.611,4.724 C32.964,4.724 34.426,5.805 34.383,8.242 L34.383,13.287 C34.362,14.113 34.447,14.961 34.49,15.682 L33.175,15.682 L33.133,14.113 L33.091,14.113 L33.027,14.262 C32.561,15.151 31.141,16 29.7,16 C27.728,16 26.16,14.791 26.16,12.715 C26.16,11.274 27.029,10.171 28.3,9.642 C29.72,9.026 31.565,9.238 33.112,9.153 L33.112,8.179 L33.112,8.179 Z" id="Fill-33" fill="#1B1A19" mask="url(#mask-8)"></path>
                <polygon id="Fill-34" fill="#1B1A19" mask="url(#mask-8)" points="37.714 15.682 38.985 15.682 38.985 0.379 37.714 0.379"></polygon>
                <path d="M43.309,6.208 L41.19,6.208 L41.19,5.042 L43.309,5.042 L43.309,2.774 L44.582,2.224 L44.582,5.042 L46.998,5.042 L46.998,6.208 L44.582,6.208 L44.582,13.329 C44.56,14.304 45.069,14.834 46.044,14.834 C46.425,14.834 46.806,14.812 47.146,14.707 L47.146,15.809 C46.743,15.915 46.277,16 45.853,16 C43.162,16 43.309,14.283 43.309,12.842 L43.309,6.208" id="Fill-35" fill="#1B1A19" mask="url(#mask-8)"></path>
            </g>
            <path d="M174.729,63.652 L174.772,63.652 C175.513,62.339 176.722,61.724 178.099,61.724 C181.576,61.724 181.851,64.797 181.851,66.026 L181.851,72.682 L180.58,72.682 L180.58,65.814 C180.58,63.971 179.519,62.89 177.782,62.89 C175.683,62.89 174.729,64.65 174.729,66.557 L174.729,72.682 L173.458,72.682 L173.458,57.379 L174.729,57.379 L174.729,63.652" id="Fill-37" fill="#1B1A19"></path>
        </g>
    </g>
</svg>