<?xml version="1.0" encoding="UTF-8"?>
<svg width="259px" height="73px" viewBox="0 0 259 73" version="1.1" xmlns="http://www.w3.org/2000/svg" xmlns:xlink="http://www.w3.org/1999/xlink">
    <!-- Generator: Sketch 54.1 (76490) - https://sketchapp.com -->
    <title>Blue Cross NC / Products / Blue Local Atrium Health / W</title>
    <desc>Created with Sketch.</desc>
    <defs>
        <polygon id="path-1" points="0 0.334 56.58 0.334 56.58 42.934 0 42.934"></polygon>
    </defs>
    <g id="Blue-Cross-NC-/-Products-/-Blue-Local-Atrium-Health-/-W" stroke="none" stroke-width="1" fill="none" fill-rule="evenodd">
        <g id="BlueLocalAtriumHealth-RGB-W-EPS">
            <g id="Group-4">
                <mask id="mask-2" fill="white">
                    <use xlink:href="#path-1"></use>
                </mask>
                <g id="Clip-2"></g>
                <path d="M15.24,20.494 L15.24,36.453 L15.36,41.193 L19.921,41.193 C22.02,41.193 24.24,40.953 26.16,39.033 C28.68,36.514 28.62,32.193 28.62,30.693 C28.62,26.073 27.6,23.613 25.74,22.173 C24.36,21.093 21.96,20.494 18.301,20.494 L15.24,20.494 Z M15.36,2.374 L15.301,6.513 L15.24,18.753 L19.2,18.753 C21.841,18.753 23.94,17.914 24.78,16.834 C25.801,15.633 26.341,13.653 26.341,10.533 C26.341,3.753 24.24,2.374 19.62,2.374 L15.36,2.374 Z M0,0.573 L23.76,0.573 C26.16,0.573 28.801,0.693 31.26,1.833 C35.82,3.993 35.94,8.553 35.94,9.513 C35.94,11.914 35.1,14.133 33.36,15.874 C30.54,18.814 26.82,19.233 24.12,19.533 C27.06,19.653 31.74,19.894 35.461,23.613 C36.9,25.053 38.64,27.453 38.64,31.354 C38.64,34.113 37.74,36.994 35.461,39.273 C32.04,42.693 27.72,42.934 24,42.934 L0,42.934 L0,41.373 L5.82,41.373 L5.94,35.434 L5.94,7.113 L5.82,2.133 L0,2.133 L0,0.573 L0,0.573 Z" id="Fill-1" fill="#FFFFFE" mask="url(#mask-2)"></path>
                <path d="M46.139,0.573 C48.96,0.573 49.8,0.513 52.439,0.333 L52.32,6.993 L52.32,36.574 L52.439,41.373 L56.58,41.373 L56.58,42.934 L39.059,42.934 L39.059,41.373 L43.559,41.373 L43.679,36.574 L43.679,6.993 L43.559,2.133 L39.059,2.133 L39.059,0.573 L46.139,0.573" id="Fill-3" fill="#FFFFFE" mask="url(#mask-2)"></path>
            </g>
            <path d="M61.439,13.894 C64.559,13.894 65.519,13.834 68.459,13.653 L68.34,19.233 L68.34,32.674 C68.34,34.953 68.459,36.693 68.939,37.894 C69.719,39.754 71.34,40.594 73.319,40.594 C75.059,40.594 76.559,39.934 77.699,38.854 C80.039,36.514 79.979,33.394 79.979,30.754 L79.979,20.073 L79.859,15.454 L75.42,15.454 L75.42,13.894 L80.579,13.894 C84.059,13.894 85.079,13.834 88.559,13.653 L88.439,19.233 L88.439,35.854 L88.559,41.314 L92.88,41.314 L92.88,42.934 L88.319,42.934 C84.479,42.934 83.099,42.994 80.219,43.174 L80.039,38.554 C78.779,40.113 75.84,43.594 69.059,43.594 C64.619,43.594 61.799,41.914 60.659,39.634 C59.76,37.953 59.819,35.793 59.819,33.994 L59.819,19.834 L59.699,15.454 L55.319,15.454 L55.319,13.894 L61.439,13.894" id="Fill-5" fill="#FFFFFE"></path>
            <path d="M113.34,24.934 C113.4,20.253 113.46,14.733 108.059,14.733 C102.96,14.733 102.719,19.834 102.54,24.934 L113.34,24.934 Z M122.099,34.533 C120.54,37.474 117.3,43.594 108.24,43.594 C98.938,43.594 93.239,36.453 93.239,28.113 C93.239,20.133 98.638,13.053 108.3,13.053 C114.3,13.053 117.599,15.633 119.04,17.133 C122.34,20.553 122.46,24.153 122.52,26.733 L102.48,26.733 C102.54,31.834 102.66,36.453 105.179,39.094 C106.559,40.533 108.54,41.134 110.519,41.134 C117,41.134 119.46,35.674 120.3,33.754 L122.099,34.533 L122.099,34.533 Z" id="Fill-6" fill="#FFFFFE"></path>
            <path d="M252.307,4.114 C251.743,4.114 251.266,3.702 251.251,3.117 L251.594,3.117 C251.604,3.662 252.008,3.819 252.485,3.819 C252.882,3.819 253.339,3.588 253.339,3.136 C253.339,2.783 253.083,2.616 252.784,2.518 C252.21,2.326 251.335,2.144 251.335,1.377 C251.335,0.758 251.905,0.419 252.466,0.419 C252.93,0.419 253.54,0.582 253.62,1.265 L253.276,1.265 C253.266,0.827 252.868,0.714 252.505,0.714 C252.135,0.714 251.678,0.901 251.678,1.333 C251.678,2.34 253.682,1.884 253.682,3.107 C253.682,3.878 253.02,4.114 252.307,4.114" id="Fill-7" fill="#FFFFFE"></path>
            <polyline id="Fill-8" fill="#FFFFFE" points="254.444 4.041 254.444 0.493 254.956 0.493 256.288 3.583 257.647 0.493 258.133 0.493 258.133 4.041 257.815 4.041 257.815 0.763 257.805 0.763 256.45 4.041 256.13 4.041 254.774 0.778 254.764 0.778 254.764 4.041 254.444 4.041"></polyline>
            <polyline id="Fill-9" fill="#FFFFFE" points="127.813 42.932 127.813 0.557 131.629 0.557 131.629 39.409 152.932 39.409 152.932 42.932 127.813 42.932"></polyline>
            <path d="M167.718,15.817 C160.617,15.817 157.799,22.742 157.799,28.199 C157.799,33.658 160.617,40.583 167.718,40.583 C174.818,40.583 177.636,33.658 177.636,28.199 C177.636,22.742 174.818,15.817 167.718,15.817 Z M181.451,28.199 C181.451,35.947 177.107,43.811 167.718,43.811 C158.328,43.811 153.985,35.947 153.985,28.199 C153.985,20.453 158.328,12.589 167.718,12.589 C177.107,12.589 181.451,20.453 181.451,28.199 L181.451,28.199 Z" id="Fill-10" fill="#FFFFFE"></path>
            <path d="M206.335,22.507 C206.041,17.988 203.166,15.817 198.295,15.817 C192.894,15.817 189.55,21.451 189.55,28.142 C189.55,34.891 192.894,40.583 198.295,40.583 C202.872,40.583 206.041,37.767 206.335,33.717 L210.15,33.717 C209.21,40.467 205.338,43.811 198.647,43.811 C189.842,43.811 185.735,36.24 185.735,28.199 C185.735,20.218 190.136,12.589 198.881,12.589 C204.927,12.589 209.856,16.228 210.15,22.507 L206.335,22.507" id="Fill-11" fill="#FFFFFE"></path>
            <path d="M224.941,40.583 C232.629,40.583 234.096,34.245 233.744,28.083 C228.757,28.259 218.308,27.319 218.308,34.714 C218.308,38.706 221.361,40.583 224.941,40.583 Z M233.744,22.155 C233.391,17.342 230.927,15.817 226.761,15.817 C223.062,15.817 220.012,16.932 219.541,20.922 L215.786,20.922 C216.666,14.877 221.186,12.589 226.819,12.589 C233.333,12.589 237.383,15.582 237.265,22.331 L237.265,36.299 C237.207,38.588 237.443,40.936 237.559,42.932 L233.921,42.932 L233.802,38.588 L233.685,38.588 L233.51,38.999 C232.217,41.464 228.286,43.811 224.295,43.811 C218.839,43.811 214.495,40.467 214.495,34.714 C214.495,30.724 216.901,27.672 220.423,26.204 C224.355,24.503 229.46,25.09 233.744,24.855 L233.744,22.155 L233.744,22.155 Z" id="Fill-12" fill="#FFFFFE"></path>
            <polygon id="Fill-13" fill="#FFFFFE" points="243.685 42.931 247.207 42.931 247.207 0.557 243.685 0.557"></polygon>
            <text id="with-Atrium-Health" font-family="UniversLTStd-Light, Univers LT Std" font-size="21.1999" font-weight="300" fill="#FFFFFE">
                <tspan x="6.0244" y="66.500257">with Atrium</tspan>
                <tspan x="116.20028" y="66.500257" letter-spacing="0.5299975"> </tspan>
                <tspan x="122.62385" y="66.500257">H</tspan>
                <tspan x="137.930178" y="66.500257" letter-spacing="0.211999">e</tspan>
                <tspan x="149.929321" y="66.500257">alth</tspan>
            </text>
        </g>
    </g>
</svg>