<?xml version="1.0" encoding="UTF-8"?>
<svg width="434px" height="44px" viewBox="0 0 434 44" version="1.1" xmlns="http://www.w3.org/2000/svg" xmlns:xlink="http://www.w3.org/1999/xlink">
    <!-- Generator: Sketch 54.1 (76490) - https://sketchapp.com -->
    <title>Blue Cross NC / Products / Dental Blue Select / W</title>
    <desc>Created with Sketch.</desc>
    <defs>
        <polygon id="path-1" points="0.06 0.916 33.147 0.916 33.147 43.123 0.06 43.123"></polygon>
    </defs>
    <g id="Blue-Cross-NC-/-Products-/-Dental-Blue-Select-/-W" stroke="none" stroke-width="1" fill="none" fill-rule="evenodd">
        <g id="DentalBlueSelect-RGB-W-EPS">
            <g id="Group-3">
                <mask id="mask-2" fill="white">
                    <use xlink:href="#path-1"></use>
                </mask>
                <g id="Clip-2"></g>
                <path d="M12.335,39.617 C24.203,39.617 29.055,32.66 29.055,22.02 C29.055,9.568 21.748,4.073 9.763,4.424 L3.8,4.424 L3.8,39.617 L12.335,39.617 Z M11.4,0.916 C25.255,0.916 33.147,8.047 33.147,22.02 C33.147,35.992 25.255,43.123 11.4,43.123 L0,43.123 L0,0.916 L11.4,0.916 L11.4,0.916 Z" id="Fill-1" fill="#FFFFFE" mask="url(#mask-2)"></path>
            </g>
            <path d="M59.45,26.054 C59.04,20.383 56,16.115 49.92,16.115 C44.19,16.115 41.151,20.909 40.683,26.054 L59.45,26.054 Z M40.566,29.269 C40.683,35.524 43.548,40.786 50.738,40.786 C54.889,40.786 58.338,37.804 59.216,33.77 L62.898,33.77 C61.086,40.786 56.702,44 49.628,44 C40.859,44 36.767,36.46 36.767,28.45 C36.767,20.499 41.151,12.901 49.862,12.901 C59.683,12.901 63.249,20.09 63.249,29.269 L40.566,29.269 L40.566,29.269 Z" id="Fill-4" fill="#FFFFFE"></path>
            <path d="M70.485,43.123 L66.977,43.123 L66.977,20.383 C66.977,18.103 66.803,15.764 66.685,13.777 L70.31,13.777 L70.485,18.103 L70.602,18.219 C72.648,14.596 75.98,12.901 79.781,12.901 C89.369,12.901 90.128,21.376 90.128,24.768 L90.128,43.123 L86.621,43.123 L86.621,24.183 C86.621,19.097 83.698,16.115 78.904,16.115 C73.116,16.115 70.485,20.967 70.485,26.229 L70.485,43.123" id="Fill-5" fill="#FFFFFE"></path>
            <path d="M98.951,16.991 L93.105,16.991 L93.105,13.777 L98.951,13.777 L98.951,7.522 L102.458,6.001 L102.458,13.777 L109.124,13.777 L109.124,16.991 L102.458,16.991 L102.458,36.636 C102.4,39.325 103.803,40.786 106.492,40.786 C107.545,40.786 108.597,40.728 109.533,40.436 L109.533,43.475 C108.422,43.767 107.136,44 105.966,44 C98.542,44 98.951,39.266 98.951,35.29 L98.951,16.991" id="Fill-6" fill="#FFFFFE"></path>
            <path d="M121.692,40.786 C129.351,40.786 130.813,34.472 130.461,28.334 C125.492,28.51 115.086,27.573 115.086,34.94 C115.086,38.916 118.126,40.786 121.692,40.786 Z M130.461,22.429 C130.111,17.635 127.655,16.115 123.504,16.115 C119.822,16.115 116.781,17.226 116.313,21.201 L112.572,21.201 C113.449,15.18 117.951,12.901 123.563,12.901 C130.052,12.901 134.085,15.881 133.97,22.603 L133.97,36.518 C133.911,38.798 134.145,41.137 134.262,43.123 L130.637,43.123 L130.52,38.798 L130.403,38.798 L130.228,39.207 C128.941,41.662 125.025,44 121.049,44 C115.612,44 111.286,40.668 111.286,34.94 C111.286,30.965 113.683,27.924 117.19,26.464 C121.107,24.768 126.193,25.352 130.461,25.118 L130.461,22.429 L130.461,22.429 Z" id="Fill-7" fill="#FFFFFE"></path>
            <polygon id="Fill-8" fill="#FFFFFE" points="141.103 43.124 144.611 43.124 144.611 0.916 141.103 0.916"></polygon>
            <path d="M166.261,20.758 L166.261,36.795 L166.38,41.558 L170.962,41.558 C173.073,41.558 175.304,41.317 177.233,39.388 C179.765,36.854 179.706,32.515 179.706,31.007 C179.706,26.364 178.679,23.893 176.812,22.446 C175.425,21.359 173.013,20.758 169.335,20.758 L166.261,20.758 Z M166.38,2.551 L166.319,6.711 L166.261,19.009 L170.239,19.009 C172.892,19.009 175.001,18.165 175.847,17.08 C176.87,15.875 177.413,13.884 177.413,10.75 C177.413,3.938 175.304,2.551 170.661,2.551 L166.38,2.551 Z M150.947,0.74 L174.821,0.74 C177.233,0.74 179.886,0.861 182.356,2.008 C186.938,4.178 187.06,8.76 187.06,9.727 C187.06,12.135 186.216,14.367 184.468,16.115 C181.634,19.07 177.896,19.492 175.183,19.794 C178.138,19.914 182.839,20.155 186.577,23.893 C188.024,25.341 189.774,27.751 189.774,31.669 C189.774,34.444 188.868,37.339 186.577,39.628 C183.142,43.065 178.8,43.306 175.062,43.306 L150.947,43.306 L150.947,41.737 L156.794,41.737 L156.915,35.77 L156.915,7.314 L156.794,2.309 L150.947,2.309 L150.947,0.74 L150.947,0.74 Z" id="Fill-9" fill="#FFFFFE"></path>
            <path d="M197.298,0.74 C200.13,0.74 200.976,0.683 203.628,0.502 L203.507,7.192 L203.507,36.916 L203.628,41.737 L207.788,41.737 L207.788,43.306 L190.183,43.306 L190.183,41.737 L194.706,41.737 L194.825,36.916 L194.825,7.192 L194.706,2.309 L190.183,2.309 L190.183,0.74 L197.298,0.74" id="Fill-10" fill="#FFFFFE"></path>
            <path d="M212.657,14.127 C215.792,14.127 216.757,14.064 219.712,13.884 L219.591,19.492 L219.591,32.997 C219.591,35.286 219.712,37.036 220.194,38.243 C220.978,40.11 222.604,40.956 224.595,40.956 C226.343,40.956 227.851,40.291 228.997,39.206 C231.347,36.854 231.286,33.72 231.286,31.067 L231.286,20.336 L231.167,15.694 L226.704,15.694 L226.704,14.127 L231.89,14.127 C235.386,14.127 236.411,14.064 239.907,13.884 L239.786,19.492 L239.786,36.192 L239.907,41.679 L244.249,41.679 L244.249,43.306 L239.667,43.306 C235.808,43.306 234.421,43.367 231.528,43.548 L231.347,38.905 C230.081,40.474 227.126,43.97 220.313,43.97 C215.854,43.97 213.021,42.282 211.874,39.989 C210.97,38.302 211.03,36.131 211.03,34.325 L211.03,20.094 L210.909,15.694 L206.509,15.694 L206.509,14.127 L212.657,14.127" id="Fill-11" fill="#FFFFFE"></path>
            <path d="M264.206,25.218 C264.267,20.518 264.327,14.971 258.899,14.971 C253.776,14.971 253.534,20.094 253.354,25.218 L264.206,25.218 Z M273.009,34.864 C271.44,37.821 268.185,43.97 259.083,43.97 C249.735,43.97 244.009,36.795 244.009,28.414 C244.009,20.395 249.437,13.281 259.142,13.281 C265.171,13.281 268.487,15.875 269.935,17.382 C273.251,20.818 273.37,24.435 273.431,27.028 L253.294,27.028 C253.354,32.151 253.474,36.795 256.007,39.448 C257.394,40.894 259.382,41.497 261.372,41.497 C267.884,41.497 270.354,36.012 271.198,34.082 L273.009,34.864 L273.009,34.864 Z" id="Fill-12" fill="#FFFFFE"></path>
            <path d="M275.651,17.77 C276.657,17.77 277.466,16.975 277.466,15.926 C277.466,14.891 276.657,14.102 275.651,14.102 C274.64,14.102 273.835,14.891 273.835,15.944 C273.835,16.975 274.64,17.77 275.651,17.77 Z M275.651,13.791 C276.827,13.791 277.813,14.712 277.813,15.926 C277.813,17.158 276.827,18.08 275.651,18.08 C274.474,18.08 273.485,17.158 273.485,15.944 C273.485,14.712 274.474,13.791 275.651,13.791 Z M275.198,15.812 L275.614,15.812 C275.962,15.812 276.29,15.798 276.29,15.404 C276.29,15.059 275.999,15.02 275.731,15.02 L275.198,15.02 L275.198,15.812 Z M274.847,14.708 L275.757,14.708 C276.351,14.708 276.638,14.926 276.638,15.424 C276.638,15.864 276.347,16.057 275.978,16.098 L276.692,17.193 L276.319,17.193 L275.638,16.127 L275.198,16.127 L275.198,17.193 L274.847,17.193 L274.847,14.708 L274.847,14.708 Z" id="Fill-13" fill="#FFFFFE"></path>
            <path d="M292.641,43.564 C286.053,43.564 280.495,38.752 280.323,31.934 L284.333,31.934 C284.447,38.294 289.146,40.127 294.703,40.127 C299.345,40.127 304.673,37.435 304.673,32.163 C304.673,28.038 301.693,26.091 298.198,24.944 C291.495,22.71 281.297,20.59 281.297,11.652 C281.297,4.434 287.942,0.48 294.475,0.48 C299.917,0.48 307.021,2.37 307.938,10.334 L303.928,10.334 C303.813,5.235 299.173,3.917 294.933,3.917 C290.636,3.917 285.308,6.095 285.308,11.137 C285.308,22.882 308.683,17.554 308.683,31.819 C308.683,40.814 300.948,43.564 292.641,43.564" id="Fill-14" fill="#FFFFFE"></path>
            <path d="M335.102,25.976 C334.7,20.418 331.721,16.235 325.763,16.235 C320.147,16.235 317.169,20.934 316.71,25.976 L335.102,25.976 Z M316.596,29.127 C316.71,35.257 319.518,40.414 326.564,40.414 C330.633,40.414 334.013,37.491 334.872,33.537 L338.481,33.537 C336.705,40.414 332.408,43.564 325.476,43.564 C316.882,43.564 312.872,36.174 312.872,28.324 C312.872,20.532 317.169,13.085 325.705,13.085 C335.331,13.085 338.825,20.131 338.825,29.127 L316.596,29.127 L316.596,29.127 Z" id="Fill-15" fill="#FFFFFE"></path>
            <polygon id="Fill-16" fill="#FFFFFE" points="343.502 42.705 346.94 42.705 346.94 1.34 343.502 1.34"></polygon>
            <path d="M373.673,25.976 C373.271,20.418 370.292,16.235 364.334,16.235 C358.719,16.235 355.74,20.934 355.281,25.976 L373.673,25.976 Z M355.167,29.127 C355.281,35.257 358.089,40.414 365.136,40.414 C369.203,40.414 372.584,37.491 373.443,33.537 L377.053,33.537 C375.277,40.414 370.979,43.564 364.047,43.564 C355.453,43.564 351.443,36.174 351.443,28.324 C351.443,20.532 355.74,13.085 364.276,13.085 C373.902,13.085 377.396,20.131 377.396,29.127 L355.167,29.127 L355.167,29.127 Z" id="Fill-17" fill="#FFFFFE"></path>
            <path d="M401.18,22.768 C400.894,18.355 398.086,16.235 393.33,16.235 C388.06,16.235 384.794,21.735 384.794,28.268 C384.794,34.855 388.06,40.414 393.33,40.414 C397.799,40.414 400.894,37.663 401.18,33.71 L404.903,33.71 C403.987,40.299 400.205,43.564 393.674,43.564 C385.08,43.564 381.069,36.174 381.069,28.324 C381.069,20.532 385.366,13.085 393.903,13.085 C399.805,13.085 404.617,16.637 404.903,22.768 L401.18,22.768" id="Fill-18" fill="#FFFFFE"></path>
            <path d="M415.131,17.095 L409.402,17.095 L409.402,13.944 L415.131,13.944 L415.131,7.814 L418.569,6.323 L418.569,13.944 L425.101,13.944 L425.101,17.095 L418.569,17.095 L418.569,36.346 C418.512,38.981 419.887,40.414 422.522,40.414 C423.554,40.414 424.585,40.356 425.502,40.069 L425.502,43.049 C424.413,43.335 423.152,43.564 422.007,43.564 C414.73,43.564 415.131,38.924 415.131,35.027 L415.131,17.095" id="Fill-19" fill="#FFFFFE"></path>
            <path d="M427.349,10.018 C426.784,10.018 426.308,9.605 426.292,9.021 L426.636,9.021 C426.646,9.565 427.05,9.723 427.526,9.723 C427.923,9.723 428.38,9.491 428.38,9.04 C428.38,8.687 428.124,8.519 427.825,8.421 C427.251,8.23 426.376,8.048 426.376,7.28 C426.376,6.661 426.946,6.323 427.507,6.323 C427.972,6.323 428.581,6.485 428.661,7.168 L428.317,7.168 C428.308,6.73 427.909,6.618 427.546,6.618 C427.177,6.618 426.72,6.804 426.72,7.237 C426.72,8.243 428.724,7.787 428.724,9.011 C428.724,9.782 428.062,10.018 427.349,10.018" id="Fill-20" fill="#FFFFFE"></path>
            <polyline id="Fill-21" fill="#FFFFFE" points="429.485 9.944 429.485 6.397 429.997 6.397 431.329 9.487 432.688 6.397 433.175 6.397 433.175 9.944 432.856 9.944 432.856 6.667 432.847 6.667 431.491 9.944 431.171 9.944 429.815 6.681 429.806 6.681 429.806 9.944 429.485 9.944"></polyline>
        </g>
    </g>
</svg>