<?xml version="1.0" encoding="UTF-8"?>
<svg width="595px" height="80px" viewBox="0 0 595 80" version="1.1" xmlns="http://www.w3.org/2000/svg" xmlns:xlink="http://www.w3.org/1999/xlink">
    <!-- Generator: Sketch 54.1 (76490) - https://sketchapp.com -->
    <title>Blue Cross NC / Products / Healthy Blue / Shortened / CK</title>
    <desc>Created with Sketch.</desc>
    <g id="Blue-Cross-NC-/-Products-/-Healthy-Blue-/-Shortened-/-CK" stroke="none" stroke-width="1" fill="none" fill-rule="evenodd">
        <g id="CrossShieldHealthyBlue-CMYK-CK-EPS">
            <polyline id="Fill-1" fill="#1A1919" points="151.683 63.867 151.683 3.202 157.145 3.202 157.145 29.838 190.25 29.838 190.25 3.202 195.712 3.202 195.712 63.867 190.25 63.867 190.25 34.88 157.145 34.88 157.145 63.867 151.683 63.867"></polyline>
            <path d="M235.372,39.332 C234.784,31.182 230.415,25.048 221.675,25.048 C213.441,25.048 209.073,31.939 208.4,39.332 L235.372,39.332 Z M208.232,43.953 C208.4,52.944 212.517,60.507 222.852,60.507 C228.818,60.507 233.775,56.221 235.036,50.423 L240.329,50.423 C237.724,60.507 231.423,65.127 221.256,65.127 C208.652,65.127 202.771,54.289 202.771,42.777 C202.771,31.35 209.073,20.427 221.591,20.427 C235.709,20.427 240.833,30.762 240.833,43.953 L208.232,43.953 L208.232,43.953 Z" id="Fill-2" fill="#1A1919"></path>
            <path d="M261.17,60.507 C272.176,60.507 274.276,51.432 273.772,42.61 C266.63,42.861 251.674,41.517 251.674,52.104 C251.674,57.818 256.044,60.507 261.17,60.507 Z M273.772,34.123 C273.268,27.233 269.739,25.048 263.774,25.048 C258.48,25.048 254.111,26.645 253.439,32.359 L248.061,32.359 C249.322,23.704 255.792,20.427 263.858,20.427 C273.184,20.427 278.982,24.713 278.814,34.375 L278.814,54.372 C278.73,57.65 279.066,61.011 279.234,63.867 L274.024,63.867 L273.857,57.65 L273.688,57.65 L273.436,58.238 C271.589,61.767 265.959,65.127 260.245,65.127 C252.431,65.127 246.214,60.338 246.214,52.104 C246.214,46.391 249.658,42.021 254.7,39.921 C260.329,37.484 267.639,38.324 273.772,37.988 L273.772,34.123 L273.772,34.123 Z" id="Fill-3" fill="#1A1919"></path>
            <polygon id="Fill-4" fill="#1A1919" points="289.907 63.867 294.948 63.867 294.948 3.202 289.907 3.202"></polygon>
            <path d="M308.308,26.309 L299.905,26.309 L299.905,21.688 L308.308,21.688 L308.308,12.697 L313.349,10.512 L313.349,21.688 L322.928,21.688 L322.928,26.309 L313.349,26.309 L313.349,54.541 C313.265,58.405 315.282,60.507 319.146,60.507 C320.659,60.507 322.172,60.422 323.516,60.002 L323.516,64.371 C321.921,64.791 320.071,65.127 318.39,65.127 C307.72,65.127 308.308,58.321 308.308,52.609 L308.308,26.309" id="Fill-5" fill="#1A1919"></path>
            <g id="Group-9" transform="translate(330.000000, 3.000000)" fill="#1A1919">
                <path d="M5.616,25.073 L5.784,25.073 C8.725,19.864 13.514,17.427 18.975,17.427 C32.755,17.427 33.848,29.61 33.848,34.484 L33.848,60.867 L28.807,60.867 L28.807,33.644 C28.807,26.334 24.606,22.048 17.715,22.048 C9.397,22.048 5.616,29.023 5.616,36.585 L5.616,60.867 L0.574,60.867 L0.574,0.202 L5.616,0.202 L5.616,25.073" id="Fill-6"></path>
                <polyline id="Fill-8" points="41.916 18.688 56.116 53.977 70.232 18.688 75.694 18.688 52.419 77 46.874 77 53.259 60.867 35.782 18.688 41.916 18.688"></polyline>
            </g>
            <path d="M433.574,30.194 L433.574,53.458 L433.748,60.369 L440.396,60.369 C443.457,60.369 446.693,60.019 449.492,57.22 C453.165,53.547 453.078,47.249 453.078,45.062 C453.078,38.328 451.591,34.741 448.88,32.643 C446.868,31.069 443.369,30.194 438.033,30.194 L433.574,30.194 Z M433.748,3.78 L433.66,9.816 L433.574,27.657 L439.345,27.657 C443.195,27.657 446.255,26.433 447.48,24.859 C448.966,23.11 449.754,20.223 449.754,15.676 C449.754,5.793 446.693,3.78 439.958,3.78 L433.748,3.78 Z M411.357,1.155 L445.994,1.155 C449.492,1.155 453.339,1.331 456.924,2.994 C463.573,6.14 463.747,12.789 463.747,14.19 C463.747,17.686 462.522,20.923 459.988,23.461 C455.877,27.746 450.453,28.358 446.518,28.796 C450.803,28.97 457.625,29.32 463.049,34.741 C465.147,36.842 467.684,40.338 467.684,46.025 C467.684,50.048 466.372,54.247 463.049,57.57 C458.063,62.556 451.765,62.905 446.342,62.905 L411.357,62.905 L411.357,60.631 L419.841,60.631 L420.015,51.972 L420.015,10.69 L419.841,3.43 L411.357,3.43 L411.357,1.155 L411.357,1.155 Z" id="Fill-10" fill="#00A3DA"></path>
            <path d="M478.598,1.155 C482.71,1.155 483.934,1.069 487.783,0.807 L487.607,10.514 L487.607,53.635 L487.783,60.631 L493.817,60.631 L493.817,62.905 L468.277,62.905 L468.277,60.631 L474.837,60.631 L475.013,53.635 L475.013,10.514 L474.837,3.43 L468.277,3.43 L468.277,1.155 L478.598,1.155" id="Fill-11" fill="#00A3DA"></path>
            <path d="M500.883,20.573 C505.43,20.573 506.832,20.485 511.117,20.223 L510.94,28.358 L510.94,47.949 C510.94,51.272 511.117,53.809 511.817,55.56 C512.954,58.271 515.314,59.495 518.201,59.495 C520.738,59.495 522.924,58.532 524.588,56.958 C527.999,53.547 527.91,49 527.91,45.151 L527.91,29.582 L527.733,22.848 L521.261,22.848 L521.261,20.573 L528.784,20.573 C533.858,20.573 535.344,20.485 540.418,20.223 L540.242,28.358 L540.242,52.584 L540.418,60.545 L546.714,60.545 L546.714,62.905 L540.068,62.905 C534.47,62.905 532.457,62.994 528.26,63.256 L527.999,56.52 C526.159,58.794 521.874,63.868 511.991,63.868 C505.519,63.868 501.408,61.42 499.745,58.094 C498.435,55.646 498.52,52.496 498.52,49.874 L498.52,29.232 L498.346,22.848 L491.961,22.848 L491.961,20.573 L500.883,20.573" id="Fill-12" fill="#00A3DA"></path>
            <path d="M575.668,36.666 C575.755,29.844 575.841,21.798 567.971,21.798 C560.537,21.798 560.186,29.232 559.924,36.666 L575.668,36.666 Z M588.437,50.659 C586.163,54.947 581.439,63.868 568.233,63.868 C554.674,63.868 546.366,53.458 546.366,41.301 C546.366,29.671 554.239,19.349 568.321,19.349 C577.068,19.349 581.878,23.11 583.975,25.297 C588.788,30.282 588.962,35.53 589.049,39.291 L559.837,39.291 C559.924,46.725 560.098,53.458 563.771,57.308 C565.785,59.406 568.669,60.28 571.556,60.28 C581.003,60.28 584.588,52.322 585.812,49.524 L588.437,50.659 L588.437,50.659 Z" id="Fill-13" fill="#00A3DA"></path>
            <path d="M102.624,68.022 C115.356,60.985 123.073,49.787 127.048,37.494 C131.174,24.737 130.49,9.649 125.711,0.245 C118.439,3.91 111.126,5.746 102.624,5.771 C94.122,5.796 86.808,3.91 79.538,0.245 C74.757,9.649 74.072,24.737 78.199,37.494 C82.174,49.787 89.892,60.985 102.624,68.022" id="Fill-14" fill="#00A3DA"></path>
            <path d="M102.61,62.323 C113.09,55.833 118.672,46.537 122.249,36.035 C125.423,26.714 126.2,15.808 122.709,7.293 C117.473,9.091 114.402,9.647 111.552,10.091 C108.897,10.506 106.525,10.757 102.637,10.81 L102.61,10.81 C98.723,10.757 96.35,10.506 93.695,10.091 C90.844,9.647 87.775,9.091 82.539,7.293 C79.049,15.808 79.825,26.714 82.999,36.035 C86.575,46.537 92.156,55.833 102.637,62.323 L102.61,62.323" id="Fill-15" fill="#FFFFFE"></path>
            <path d="M102.617,59.745 C109.704,55.29 117.74,45.173 120.951,31.863 C122.656,24.799 123.131,16.866 120.911,10.572 C117.737,11.419 114.776,12.119 111.712,12.531 C108.648,12.944 105.618,13.243 102.636,13.263 L102.611,13.263 C99.63,13.243 96.598,12.944 93.536,12.531 C90.472,12.119 87.511,11.419 84.338,10.572 C82.116,16.866 82.592,24.799 84.297,31.863 C87.507,45.173 95.545,55.29 102.631,59.745 L102.617,59.745" id="Fill-16" fill="#00A3DA"></path>
            <path d="M95.385,17.99 C92.992,19.235 92.162,22.163 93.238,24.525 C94.171,26.572 96.012,27.932 98.152,28.569 C99.224,28.887 100.31,28.968 101.421,29.024 C102.777,29.09 104.007,29.13 105.315,29.462 C105.59,29.532 105.894,29.696 106.04,29.968 C106.386,30.621 106.071,31.338 105.383,31.536 C105.369,32.679 105.269,34.973 105.269,34.973 C105.269,34.973 110.828,34.445 109.886,29.445 C109.662,28.247 108.719,27.021 107.645,26.468 C104.856,25.034 101.794,25.655 98.937,24.732 C97.975,24.421 96.636,23.943 96.376,22.863 C96.27,22.429 96.366,21.564 96.809,21.422 C97.53,21.194 98.329,21.797 99.376,22.04 C100.036,22.193 100.691,22.188 101.211,22.033 C101.439,21.965 101.779,21.874 101.806,21.742 C101.778,21.623 101.517,21.52 101.385,21.451 C101.064,21.285 100.729,21.21 100.38,21.076 C99.803,20.857 99.229,20.581 98.647,20.255 C99.196,20.143 100.115,20.115 100.66,20.179 C101.096,20.231 102.445,20.215 102.847,20.108 C102.933,20.086 103.133,20.009 103.046,19.86 C102.889,19.596 102.626,19.497 102.447,19.254 C102.053,18.718 101.714,18.168 101.078,17.923 C99.248,17.219 97.209,17.042 95.385,17.99" id="Fill-17" fill="#FFFFFE"></path>
            <path d="M104.666,35.833 L104.696,30 C104.696,30 103.945,29.842 102.897,29.773 C101.535,29.683 100.915,29.703 100.915,29.703 L100.913,30.193 C100.913,30.193 100.253,30.471 100.152,30.65 C100.106,30.73 99.932,30.951 100.013,31.167 C100.553,32.61 101.297,34.01 101.509,35.55 C102.526,35.693 103.424,35.662 104.666,35.833" id="Fill-18" fill="#FFFFFE"></path>
            <path d="M97.688,34.95 C97.44,37.238 98.938,38.464 100.589,38.858 C101.895,39.17 103.164,39.236 104.525,39.397 C104.695,39.417 105.062,39.424 105.335,39.545 C105.577,39.65 105.697,39.79 105.743,39.941 C105.806,40.155 105.782,40.32 105.643,40.49 C105.494,40.672 105.104,40.775 105.104,40.775 L105.025,43.526 C105.025,43.526 106.134,43.483 107.032,42.944 C107.881,42.433 108.409,41.783 108.597,40.963 C108.816,40.015 108.664,39.087 107.996,38.165 C107.551,37.554 106.776,37.114 105.989,36.838 C104.367,36.27 102.607,36.355 100.925,36.117 C100.67,36.08 100.434,35.883 100.411,35.649 C100.368,35.225 100.766,35.027 100.766,35.027 C100.766,35.027 100.566,34.373 100.351,33.733 C100.163,33.249 99.892,32.578 99.697,32.219 C98.555,32.711 97.816,33.769 97.688,34.95" id="Fill-19" fill="#FFFFFE"></path>
            <path d="M104.525,40.037 L104.481,44.975 L103.245,44.406 L102.022,43.901 L101.994,39.78 C103.09,39.91 103.593,39.922 104.525,40.037" id="Fill-20" fill="#FFFFFE"></path>
            <path d="M98.995,42.759 C98.32,44.357 99.166,45.922 100.512,46.584 C101.215,46.93 102.137,47.241 102.896,47.534 C103.638,47.821 104.951,48.63 105.05,49.022 C105.112,49.266 104.831,49.494 104.831,49.494 L104.798,51.425 C104.798,51.425 105.604,51.255 106.198,50.765 C106.756,50.303 107.164,49.702 107.16,48.742 C107.154,47.686 106.664,46.864 105.163,45.985 C103.997,45.302 102.585,44.752 101.486,44.268 C101.327,44.197 101.183,43.884 101.245,43.694 C101.309,43.488 101.437,43.412 101.437,43.412 L101.41,41.184 C101.41,41.184 100.566,41.353 100.168,41.588 C99.799,41.805 99.244,42.169 98.995,42.759" id="Fill-21" fill="#FFFFFE"></path>
            <path d="M104.323,49.324 C104.334,49.165 104.278,49.144 104.205,49.036 C103.876,48.691 103.399,48.453 103.285,48.385 C102.94,48.182 102.177,47.901 102.177,47.901 C102.177,47.901 102.232,52.952 102.324,55.562 C102.344,56.153 102.677,56.31 103.246,56.342 C103.944,56.381 104.144,55.942 104.154,55.691 C104.183,54.856 104.286,51.228 104.323,49.324" id="Fill-22" fill="#FFFFFE"></path>
            <path d="M104.855,16.817 C105.106,17.001 105.107,17.014 105.184,17.385 C105.353,18.193 105.175,19.455 105.335,20.012 C105.419,20.191 105.599,20.184 105.736,20.111 C106.854,19.506 107.613,18.465 108.748,17.985 C109.279,17.759 110.752,18.5 110.409,19.61 C110.25,20.127 110.014,20.207 109.692,20.544 C109.033,21.229 108.099,21.876 107.287,22.765 C106.735,23.367 106.066,23.804 105.643,24.485 C105.508,24.699 105.285,24.997 105.285,24.997 C103.714,24.677 102.133,24.734 100.908,24.483 L100.905,22.661 C100.905,22.661 102.155,22.453 102.387,21.834 C102.407,21.784 102.371,21.574 102.191,21.44 C101.978,21.281 101.609,21.117 101.496,21.077 C102.75,21.275 103.528,21.482 104.739,22.009 C104.82,21.878 104.775,21.582 104.682,21.478 C104.517,21.289 104.427,21.228 104,21.127 C103.258,20.935 101.247,20.688 101.247,20.688 C101.247,20.688 102.178,20.683 102.959,20.555 C103.338,20.493 103.647,20.423 103.732,20.293 C103.821,20.095 103.658,19.806 103.391,19.522 C103.214,19.333 103.014,19.134 102.867,18.939 C102.684,18.688 102.383,18.228 102.055,17.937 C101.772,17.685 101.06,17.321 101.06,17.321 C101.06,17.321 100.937,16.341 101.134,15.948 C101.281,15.657 101.661,15.49 101.865,15.589 C102.762,16.092 103.652,16.608 104.855,16.817" id="Fill-23" fill="#FFFFFE"></path>
            <path d="M100.893,18.697 C100.661,18.861 100.5,19.028 100.24,19.07 C99.726,19.155 99.799,18.707 99.444,18.456 C99.227,18.304 99.022,18.501 98.828,18.141 C99.576,18.163 100.557,18.093 101.117,18.667 C101.047,18.631 100.924,18.676 100.893,18.697" id="Fill-24" fill="#00A3DA"></path>
            <path d="M100.959,51.191 C100.654,51.507 100.148,52.152 100.058,53.183 C99.977,54.105 100.19,54.363 100.422,54.86 C100.613,55.269 101.056,55.243 101.215,54.864 C101.343,54.557 101.157,54.27 101.274,53.592 C101.36,53.096 101.753,52.826 101.753,52.826 L101.714,50.58 C101.714,50.58 101.365,50.764 100.959,51.191" id="Fill-25" fill="#FFFFFE"></path>
            <g id="Group-29" fill="#00A3DA">
                <path d="M116.661,62.929 L116.661,64.122 L117.237,64.122 C117.854,64.122 118.145,63.972 118.145,63.547 C118.145,63.106 117.854,62.929 117.218,62.929 L116.661,62.929 Z M118.843,63.477 C118.843,63.989 118.544,64.343 118.022,64.448 L118.826,66.092 L118.066,66.092 L117.334,64.555 L116.661,64.555 L116.661,66.092 L115.981,66.092 L115.981,62.486 L117.341,62.486 C118.348,62.486 118.843,62.822 118.843,63.477 Z M119.232,62.407 C118.702,61.868 118.022,61.586 117.262,61.586 C116.519,61.586 115.839,61.859 115.336,62.372 C114.797,62.92 114.497,63.627 114.497,64.352 C114.497,65.075 114.789,65.757 115.309,66.286 C115.831,66.817 116.53,67.109 117.237,67.109 C117.987,67.109 118.668,66.825 119.215,66.295 C119.737,65.792 120.019,65.111 120.019,64.378 C120.019,63.61 119.746,62.92 119.232,62.407 Z M119.525,62.116 C120.107,62.708 120.443,63.503 120.443,64.352 C120.443,65.227 120.116,66.004 119.515,66.587 C118.888,67.196 118.084,67.532 117.254,67.532 C116.405,67.532 115.619,67.196 115.009,66.578 C114.408,65.968 114.082,65.191 114.082,64.352 C114.082,63.512 114.425,62.699 115.044,62.071 C115.628,61.48 116.396,61.17 117.254,61.17 C118.119,61.17 118.915,61.497 119.525,62.116 L119.525,62.116 Z" id="Fill-26"></path>
                <polyline id="Fill-28" points="47.806 67.308 47.806 48.874 66.24 48.874 66.24 19.4 47.806 19.4 47.806 0.965 18.435 0.965 18.435 19.4 0 19.4 0 48.874 18.435 48.874 18.435 67.308 47.806 67.308"></polyline>
            </g>
            <path d="M16.124,27.77 L28.345,28.951 C30.637,29.267 30.904,31.493 30.296,32.827 L21.926,48.54 L21.936,48.518 C17.69,45.185 14.962,40.005 14.962,34.188 C14.962,31.928 15.376,29.763 16.128,27.767 L16.124,27.77" id="Fill-30" fill="#FFFFFE"></path>
            <path d="M50.219,27.77 L37.999,28.951 C35.706,29.267 35.438,31.493 36.047,32.827 L44.417,48.54 L44.407,48.518 C48.652,45.185 51.38,40.005 51.38,34.188 C51.38,31.928 50.967,29.763 50.214,27.767 L50.219,27.77" id="Fill-31" fill="#FFFFFE"></path>
            <path d="M33.172,15.98 C25.869,15.98 19.57,20.279 16.669,26.485 L29.628,26.486 C31.477,26.446 32.29,25.364 32.329,24.484 C32.374,23.438 32.209,23.108 31.348,21.993 C30.407,20.745 31.057,18.339 33.172,18.299 C35.286,18.339 35.936,20.745 34.995,21.993 C34.134,23.108 33.969,23.438 34.014,24.484 C34.052,25.364 34.865,26.446 36.715,26.486 L49.674,26.485 C46.773,20.279 40.473,15.98 33.172,15.98" id="Fill-32" fill="#FFFFFE"></path>
            <path d="M33.172,52.397 C36.87,52.397 40.31,51.293 43.183,49.399 L43.184,49.413 L34.307,36.143 C33.685,35.29 32.691,35.218 32.036,36.143 L23.159,49.413 L23.159,49.399 C26.032,51.293 29.473,52.397 33.172,52.397" id="Fill-33" fill="#FFFFFE"></path>
            <path d="M17.938,30.458 L27.189,31.313 C27.857,31.364 27.908,31.647 27.755,32.032 L21.275,44.402 C18.918,41.658 17.493,38.089 17.493,34.188 C17.493,32.902 17.647,31.654 17.938,30.458" id="Fill-34" fill="#00A3DA"></path>
            <path d="M48.404,30.458 L39.153,31.313 C38.486,31.364 38.434,31.647 38.589,32.032 L45.068,44.402 C47.425,41.658 48.85,38.089 48.85,34.188 C48.85,32.902 48.696,31.654 48.404,30.458" id="Fill-35" fill="#00A3DA"></path>
            <path d="M37.527,19.122 C38.452,20.663 37.703,22.667 36.83,23.617 C36.668,23.779 36.749,23.953 36.894,23.995 L45.089,23.998 C43.124,21.703 40.507,19.983 37.527,19.122" id="Fill-36" fill="#00A3DA"></path>
            <path d="M32.915,39.144 C33.058,38.953 33.259,38.941 33.428,39.144 L39.551,48.515 C37.602,49.384 35.443,49.867 33.172,49.867 C30.899,49.867 28.74,49.384 26.792,48.515 L32.915,39.144 C33.084,38.941 33.285,38.953 33.428,39.144" id="Fill-37" fill="#00A3DA"></path>
            <path d="M28.815,19.122 C27.891,20.663 28.639,22.667 29.513,23.617 C29.675,23.779 29.593,23.953 29.449,23.995 L21.255,23.998 C23.219,21.703 25.835,19.983 28.815,19.122" id="Fill-38" fill="#00A3DA"></path>
            <path d="M52.81,62.929 L52.81,64.122 L53.385,64.122 C54.004,64.122 54.295,63.972 54.295,63.547 C54.295,63.106 54.004,62.929 53.368,62.929 L52.81,62.929 Z M54.993,63.477 C54.993,63.989 54.693,64.343 54.172,64.448 L54.975,66.092 L54.215,66.092 L53.482,64.555 L52.81,64.555 L52.81,66.092 L52.131,66.092 L52.131,62.486 L53.491,62.486 C54.498,62.486 54.993,62.822 54.993,63.477 Z M55.382,62.407 C54.851,61.868 54.172,61.586 53.412,61.586 C52.669,61.586 51.989,61.859 51.485,62.372 C50.946,62.92 50.645,63.627 50.645,64.352 C50.645,65.075 50.937,65.757 51.459,66.286 C51.98,66.817 52.678,67.109 53.385,67.109 C54.136,67.109 54.816,66.825 55.364,66.295 C55.885,65.792 56.168,65.111 56.168,64.378 C56.168,63.61 55.894,62.92 55.382,62.407 Z M55.673,62.116 C56.257,62.708 56.592,63.503 56.592,64.352 C56.592,65.227 56.265,66.004 55.665,66.587 C55.038,67.196 54.233,67.532 53.403,67.532 C52.554,67.532 51.768,67.196 51.158,66.578 C50.557,65.968 50.23,65.191 50.23,64.352 C50.23,63.512 50.575,62.699 51.193,62.071 C51.777,61.48 52.546,61.17 53.403,61.17 C54.268,61.17 55.064,61.497 55.673,62.116 L55.673,62.116 Z" id="Fill-39" fill="#00A3DA"></path>
            <path d="M591.12,25.774 C592.583,25.774 593.758,24.618 593.758,23.092 C593.758,21.587 592.583,20.439 591.12,20.439 C589.648,20.439 588.477,21.587 588.477,23.119 C588.477,24.618 589.648,25.774 591.12,25.774 Z M591.12,19.987 C592.83,19.987 594.264,21.326 594.264,23.092 C594.264,24.884 592.83,26.225 591.12,26.225 C589.407,26.225 587.969,24.884 587.969,23.119 C587.969,21.326 589.407,19.987 591.12,19.987 Z M590.461,22.927 L591.065,22.927 C591.571,22.927 592.048,22.906 592.048,22.334 C592.048,21.831 591.625,21.774 591.236,21.774 L590.461,21.774 L590.461,22.927 Z M589.949,21.321 L591.273,21.321 C592.136,21.321 592.554,21.637 592.554,22.362 C592.554,23.003 592.13,23.282 591.593,23.342 L592.633,24.936 L592.091,24.936 L591.099,23.384 L590.461,23.384 L590.461,24.936 L589.949,24.936 L589.949,21.321 L589.949,21.321 Z" id="Fill-40" fill="#00A3DA"></path>
        </g>
    </g>
</svg>