<?xml version="1.0" encoding="UTF-8"?>
<svg width="238px" height="44px" viewBox="0 0 238 44" version="1.1" xmlns="http://www.w3.org/2000/svg" xmlns:xlink="http://www.w3.org/1999/xlink">
    <!-- Generator: Sketch 54.1 (76490) - https://sketchapp.com -->
    <title>Blue Cross NC / Products / Blue Care / CW</title>
    <desc>Created with Sketch.</desc>
    <defs>
        <polygon id="path-1" points="0.06 0.979 38.641 0.979 38.641 43.34 0.06 43.34"></polygon>
    </defs>
    <g id="Blue-Cross-NC-/-Products-/-Blue-Care-/-CW" stroke="none" stroke-width="1" fill="none" fill-rule="evenodd">
        <g id="BlueCare-RGB-CW-EPS">
            <g id="Group-3">
                <mask id="mask-2" fill="white">
                    <use xlink:href="#path-1"></use>
                </mask>
                <g id="Clip-2"></g>
                <path d="M15.24,20.9 L15.24,36.859 L15.36,41.6 L19.921,41.6 C22.021,41.6 24.24,41.359 26.16,39.439 C28.681,36.92 28.62,32.6 28.62,31.1 C28.62,26.479 27.601,24.019 25.74,22.58 C24.36,21.5 21.96,20.9 18.301,20.9 L15.24,20.9 Z M15.36,2.78 L15.301,6.919 L15.24,19.16 L19.2,19.16 C21.841,19.16 23.94,18.32 24.78,17.24 C25.801,16.039 26.341,14.06 26.341,10.939 C26.341,4.16 24.24,2.78 19.62,2.78 L15.36,2.78 Z M0,0.979 L23.761,0.979 C26.16,0.979 28.801,1.1 31.261,2.24 C35.82,4.399 35.94,8.959 35.94,9.919 C35.94,12.32 35.101,14.539 33.36,16.28 C30.54,19.22 26.82,19.64 24.12,19.939 C27.061,20.06 31.74,20.3 35.461,24.019 C36.9,25.459 38.641,27.859 38.641,31.76 C38.641,34.52 37.74,37.4 35.461,39.68 C32.04,43.1 27.721,43.34 24,43.34 L0,43.34 L0,41.779 L5.82,41.779 L5.94,35.84 L5.94,7.52 L5.82,2.54 L0,2.54 L0,0.979 L0,0.979 Z" id="Fill-1" fill="#38A1CE" mask="url(#mask-2)"></path>
            </g>
            <path d="M46.14,0.979 C48.96,0.979 49.8,0.919 52.439,0.74 L52.32,7.399 L52.32,36.981 L52.439,41.779 L56.58,41.779 L56.58,43.34 L39.06,43.34 L39.06,41.779 L43.56,41.779 L43.68,36.981 L43.68,7.399 L43.56,2.54 L39.06,2.54 L39.06,0.979 L46.14,0.979" id="Fill-4" fill="#38A1CE"></path>
            <path d="M61.439,14.3 C64.56,14.3 65.52,14.24 68.459,14.06 L68.34,19.64 L68.34,33.08 C68.34,35.359 68.459,37.1 68.939,38.3 C69.72,40.16 71.34,41 73.319,41 C75.06,41 76.56,40.34 77.699,39.26 C80.039,36.92 79.979,33.8 79.979,31.16 L79.979,20.479 L79.859,15.86 L75.42,15.86 L75.42,14.3 L80.579,14.3 C84.06,14.3 85.079,14.24 88.56,14.06 L88.439,19.64 L88.439,36.26 L88.56,41.72 L92.88,41.72 L92.88,43.34 L88.319,43.34 C84.479,43.34 83.1,43.4 80.22,43.58 L80.039,38.96 C78.779,40.52 75.84,44 69.06,44 C64.619,44 61.8,42.32 60.659,40.04 C59.76,38.359 59.819,36.199 59.819,34.4 L59.819,20.24 L59.699,15.86 L55.319,15.86 L55.319,14.3 L61.439,14.3" id="Fill-5" fill="#38A1CE"></path>
            <path d="M113.339,25.34 C113.399,20.66 113.459,15.14 108.059,15.14 C102.959,15.14 102.719,20.24 102.539,25.34 L113.339,25.34 Z M122.099,34.939 C120.54,37.88 117.299,44 108.239,44 C98.938,44 93.239,36.859 93.239,28.519 C93.239,20.539 98.639,13.459 108.299,13.459 C114.299,13.459 117.599,16.039 119.04,17.539 C122.339,20.959 122.459,24.56 122.52,27.14 L102.479,27.14 C102.539,32.24 102.659,36.859 105.179,39.5 C106.559,40.939 108.539,41.54 110.519,41.54 C117,41.54 119.459,36.08 120.299,34.16 L122.099,34.939 L122.099,34.939 Z" id="Fill-6" fill="#38A1CE"></path>
            <path d="M154.968,10.864 C154.281,5.824 149.927,3.761 145.23,3.761 C134.633,3.761 131.425,13.385 131.425,21.862 C131.425,30.34 134.633,39.963 145.23,39.963 C149.813,39.963 154.395,37.672 155.426,32.517 L159.436,32.517 C158.233,39.448 151.875,43.4 145.23,43.4 C132.685,43.4 127.416,33.318 127.416,21.862 C127.416,10.521 132.743,0.325 145.23,0.325 C151.99,0.325 158.405,3.418 158.978,10.864 L154.968,10.864" id="Fill-7" fill="#FFFFFE"></path>
            <path d="M174.381,39.809 C181.885,39.809 183.318,33.622 182.974,27.607 C178.105,27.779 167.909,26.862 167.909,34.08 C167.909,37.976 170.887,39.809 174.381,39.809 Z M182.974,21.822 C182.63,17.125 180.224,15.636 176.158,15.636 C172.548,15.636 169.57,16.724 169.112,20.619 L165.446,20.619 C166.305,14.719 170.715,12.485 176.214,12.485 C182.573,12.485 186.526,15.406 186.411,21.994 L186.411,35.627 C186.354,37.86 186.583,40.152 186.698,42.1 L183.146,42.1 L183.032,37.86 L182.917,37.86 L182.745,38.262 C181.485,40.668 177.647,42.959 173.751,42.959 C168.424,42.959 164.186,39.693 164.186,34.08 C164.186,30.185 166.535,27.206 169.971,25.774 C173.809,24.113 178.792,24.686 182.974,24.457 L182.974,21.822 L182.974,21.822 Z" id="Fill-8" fill="#FFFFFE"></path>
            <path d="M195.779,42.541 L192.342,42.541 L192.342,20.258 C192.399,18.024 192.17,15.733 192.055,13.786 L195.607,13.786 L195.779,18.024 L195.893,18.024 C196.924,15.103 199.502,13.041 202.366,12.926 C203.511,12.869 204.658,12.926 205.803,12.984 L205.803,16.306 C205.116,16.249 204.371,16.077 203.683,16.077 C198.585,16.077 195.893,19.743 195.779,25.242 L195.779,42.541" id="Fill-9" fill="#FFFFFE"></path>
            <path d="M227.917,25.815 C227.516,20.258 224.538,16.077 218.58,16.077 C212.966,16.077 209.988,20.774 209.53,25.815 L227.917,25.815 Z M209.415,28.965 C209.53,35.095 212.336,40.25 219.382,40.25 C223.449,40.25 226.829,37.328 227.688,33.376 L231.296,33.376 C229.521,40.25 225.225,43.4 218.293,43.4 C209.702,43.4 205.692,36.011 205.692,28.163 C205.692,20.373 209.988,12.926 218.523,12.926 C228.146,12.926 231.64,19.972 231.64,28.965 L209.415,28.965 L209.415,28.965 Z" id="Fill-10" fill="#FFFFFE"></path>
            <path d="M235.182,17.615 C236.494,17.615 237.542,16.582 237.542,15.219 C237.542,13.877 236.494,12.852 235.182,12.852 C233.872,12.852 232.824,13.877 232.824,15.248 C232.824,16.582 233.872,17.615 235.182,17.615 Z M235.182,12.447 C236.711,12.447 237.992,13.644 237.992,15.219 C237.992,16.82 236.711,18.019 235.182,18.019 C233.655,18.019 232.375,16.82 232.375,15.248 C232.375,13.644 233.655,12.447 235.182,12.447 Z M234.591,15.076 L235.145,15.076 C235.595,15.076 236.014,15.053 236.014,14.543 C236.014,14.094 235.632,14.043 235.288,14.043 L234.591,14.043 L234.591,15.076 Z M234.142,13.637 L235.325,13.637 C236.096,13.637 236.463,13.922 236.463,14.566 C236.463,15.143 236.088,15.391 235.61,15.443 L236.54,16.865 L236.051,16.865 L235.168,15.48 L234.591,15.48 L234.591,16.865 L234.142,16.865 L234.142,13.637 L234.142,13.637 Z" id="Fill-11" fill="#FFFFFE"></path>
        </g>
    </g>
</svg>