<?xml version="1.0" encoding="UTF-8"?>
<svg width="50px" height="50px" viewBox="0 0 50 50" version="1.1" xmlns="http://www.w3.org/2000/svg" xmlns:xlink="http://www.w3.org/1999/xlink">
    <!-- Generator: Sketch 61.2 (89653) - https://sketch.com -->
    <title>standard/fc-apple</title>
    <desc>Created with Sketch.</desc>
    <defs>
        <path d="M21.7011117,12.9810814 C22.7846522,13.4010517 25.0876683,14.2209937 25.0876683,14.2209937 C25.0876683,14.2209937 27.3906844,13.4010517 28.4742249,12.9810814 C30.5014306,12.3011295 32.5503072,11.7411691 34.8533233,12.1611394 C37.1563394,12.5811097 39.205216,13.2610616 40.8384071,14.7789542 C41.182537,15.0159047 41.4996911,15.2909028 41.7840424,15.5988961 C43.9511234,17.7987405 45.170599,20.4165552 45.7241897,23.4543403 C45.8620948,24.2742822 45.8620948,24.9742327 46,25.7921748 L45.9980299,26.0641556 L45.9980299,28.2639999 C45.9980299,28.8239603 45.8601248,29.223932 45.8601248,29.7838924 C45.5997059,32.1879678 45.0505744,34.5506805 44.2249636,36.8193945 C43.1349358,39.8291641 41.6227529,42.6635079 39.7351658,45.234799 C39.7351658,45.3747891 39.5972607,45.3747891 39.5972607,45.5147792 C38.7895305,46.6147013 37.9620995,47.7326222 36.8805291,48.5525642 C36.6490661,48.7899681 36.3748612,48.9800611 36.0727989,49.1125246 C34.5755429,50.0924552 33.080257,50.2324453 31.4450959,49.6724849 L31.3032506,49.6724849 C30.5555161,49.5395844 29.8273659,49.3111171 29.1361696,48.9925331 C28.6612934,48.7449515 28.1585167,48.5569175 27.6389136,48.4325727 C26.8060935,48.1571163 25.9359951,48.0154179 25.0600872,48.0126024 L24.9221821,48.0126024 C24.9221821,48.0126024 23.1491158,48.1525925 22.3433557,48.4325727 C21.7917351,48.5725628 21.3977203,48.852543 20.8460997,48.9925331 C20.1414093,49.273596 19.4170371,49.5008779 18.6790187,49.6724849 L18.5411136,49.6724849 C16.9079225,50.2124467 15.2727614,50.0724566 13.9134106,49.1125246 C13.657301,48.9725345 13.3814907,48.6925543 13.1056804,48.5525642 C12.0221399,47.7126236 11.196679,46.6147013 10.3889488,45.5147792 C10.3889488,45.3747891 10.2510437,45.3747891 10.2510437,45.234799 C8.33180791,42.6850517 6.81998375,39.8444748 5.77109621,36.8173946 C4.96723808,34.5422032 4.41936153,32.1820466 4.13790516,29.7818925 C4.13790516,29.2219321 4,28.8219604 4,28.262 L4,25.7841754 C4.13790516,24.9642334 4.13790516,24.1242929 4.27581031,23.4463408 C4.82743093,20.3985565 6.04690652,17.7987405 8.21398752,15.5988961 C8.55154806,15.2771303 8.92905329,15.0014861 9.3369295,14.7789542 C11.1099958,13.2590617 13.1569023,12.5791098 15.3220132,12.1611394 C17.4871242,11.743169 19.6739059,12.1611394 21.7011117,12.9810814 Z M15.4008162,4.35207426e-14 L15.8145316,0.139990094 C18.6691683,0.819941977 20.9721844,2.19984433 22.7649515,4.55767748 C24.2799002,6.4630419 25.0512634,8.86764112 24.9320325,11.3131994 C24.9216067,11.463226 24.8040143,11.5825962 24.6562221,11.5931796 C23.848492,11.5931796 23.0230311,11.5931796 22.2153009,11.3131994 C20.6260712,10.8801626 19.2039302,9.96725089 18.1372485,8.69538467 C16.6399925,7.03750199 15.5387213,5.23762936 15.1250059,2.89579508 C14.9871007,1.93786287 14.8491956,0.959932071 14.9871007,4.35207426e-14 L15.4008162,4.35207426e-14 Z" id="path-1"></path>
        <rect id="path-3" x="0" y="0" width="50" height="50"></rect>
    </defs>
    <g id="standard/fc-apple" stroke="none" stroke-width="1" fill="none" fill-rule="evenodd">
        <mask id="mask-2" fill="white">
            <use xlink:href="#path-1"></use>
        </mask>
        <use id="Mask" fill="#28282B" fill-rule="nonzero" xlink:href="#path-1"></use>
        <g id="Colors/Black" mask="url(#mask-2)">
            <mask id="mask-4" fill="white">
                <use xlink:href="#path-3"></use>
            </mask>
            <use id="Black" fill="#19191B" fill-rule="evenodd" xlink:href="#path-3"></use>
        </g>
    </g>
</svg>