<?xml version="1.0" encoding="UTF-8"?>
<svg width="50px" height="50px" viewBox="0 0 50 50" version="1.1" xmlns="http://www.w3.org/2000/svg" xmlns:xlink="http://www.w3.org/1999/xlink">
    <!-- Generator: Sketch 61.2 (89653) - https://sketch.com -->
    <title>standard/fc-claims</title>
    <desc>Created with Sketch.</desc>
    <defs>
        <path d="M24.8899114,10.5241759 L24.8899114,18.2001417 C24.8932044,19.2094511 25.7105938,20.0268405 26.7199032,20.0301335 L34.3578692,20.0301335 L34.3598692,48.1700082 C34.3565762,49.1793176 33.5391868,49.996707 32.5298774,50 L6.82999185,50 C5.82068243,49.996707 5.00329304,49.1793176 5,48.1700082 L5,12.3541677 C5.00329304,11.3448583 5.82068243,10.5274689 6.82999185,10.5241759 L24.8899114,10.5241759 Z M35.4138645,0.000222751114 L35.4138645,7.67218857 C35.4171575,8.68149799 36.2345469,9.49888738 37.2438564,9.50218042 L44.8818223,9.50218042 L44.8838223,37.646055 C44.8805293,38.6553645 44.0631399,39.4727538 43.0538305,39.4760469 L37.5618549,39.4760469 L37.5618549,16.8241478 C37.6061976,15.7991763 37.2342643,14.8031521 36.5363661,14.0595574 L30.9818842,8.50418487 C30.2476595,7.74625501 29.2371418,7.31895037 28.1818967,7.32019014 L15.5239531,7.32019014 L15.5239531,1.8302146 C15.5272462,0.820905178 16.3446355,0.00351579343 17.353945,0.000222751114 L35.4138645,0.000222751114 Z M28.1658968,10.5241759 C28.3596342,10.5194573 28.5460797,10.5981139 28.6778945,10.7401749 L34.1418702,16.2001506 C34.3740333,16.3975846 34.4402377,16.7286067 34.3018695,17.000147 C34.1992636,17.2784232 33.928134,17.4580972 33.6318724,17.444145 L28.1658968,17.444145 C27.7617641,17.4397536 27.4367779,17.1103034 27.4379,16.7061483 L27.4379,11.2501726 C27.4239479,10.953911 27.6036219,10.6827814 27.8818981,10.5801756 C27.9723715,10.544395 28.0686129,10.5254179 28.1658968,10.5241759 Z M38.6898499,0.000222751114 C38.8836367,-0.00475655847 39.0701851,0.0739435435 39.2018476,0.216221789 L44.6558233,5.67019749 C44.8879865,5.86763152 44.9541909,6.19865362 44.8158226,6.47019393 C44.7114082,6.7483558 44.43849,6.92652197 44.1418256,6.91019197 L38.6898499,6.91019197 C38.2903758,6.90478704 37.9681591,6.58168264 37.9638531,6.18219521 L37.9618532,0.726219517 C37.947901,0.429957915 38.127575,0.158828312 38.4058512,0.0562225016 C38.4963246,0.0204419197 38.592566,0.00146474163 38.6898499,0.000222751114 Z" id="path-1"></path>
        <rect id="path-3" x="0" y="0" width="50" height="50"></rect>
    </defs>
    <g id="standard/fc-claims" stroke="none" stroke-width="1" fill="none" fill-rule="evenodd">
        <mask id="mask-2" fill="white">
            <use xlink:href="#path-1"></use>
        </mask>
        <use id="Mask" fill="#28282B" fill-rule="nonzero" xlink:href="#path-1"></use>
        <g id="Colors/Black" mask="url(#mask-2)">
            <mask id="mask-4" fill="white">
                <use xlink:href="#path-3"></use>
            </mask>
            <use id="Black" fill="#19191B" fill-rule="evenodd" xlink:href="#path-3"></use>
        </g>
    </g>
</svg>