<?xml version="1.0" encoding="UTF-8"?>
<svg width="50px" height="50px" viewBox="0 0 50 50" version="1.1" xmlns="http://www.w3.org/2000/svg" xmlns:xlink="http://www.w3.org/1999/xlink">
    <!-- Generator: Sketch 61.2 (89653) - https://sketch.com -->
    <title>standard/fc-drugs</title>
    <desc>Created with Sketch.</desc>
    <defs>
        <path d="M20.7510745,29.3912608 C23.1283328,34.2503944 21.5301386,40.3471268 16.7912034,43.4077355 C12.0522683,46.4661182 5.83311149,45.3264588 2.43416646,41.0282513 L2.43416646,41.0282513 Z M22.668685,5.3188503 C26.9668925,2.71900236 32.5071506,4.07902555 35.1069985,8.37723305 L35.1069985,8.37723305 L48.6827456,30.7697589 C51.2803676,35.0679664 49.9203444,40.6082245 45.6221369,43.2080725 L45.6221369,43.2080725 L44.8230398,43.7667727 C40.5248323,46.3688465 34.9868001,45.0065974 32.3869522,40.7083899 L32.3869522,40.7083899 L18.8312382,18.3336712 C16.2313903,14.1356291 17.5914135,8.4952056 21.8695879,5.87755049 L21.8695879,5.87755049 Z M5.03401439,25.112196 C9.79298261,22.0515873 16.0121394,23.0732742 19.3910514,27.471647 L19.3910514,27.471647 L1.09417635,39.1086376 C-1.28308187,34.249504 0.29507925,28.1527716 5.03401439,25.112196 Z M27.3052289,6.87697834 L26.9985333,6.88435005 C25.9781158,6.93341679 24.9797733,7.22664655 24.0954851,7.74062645 L24.0954851,7.74062645 L23.3409059,8.26816409 L23.2986139,8.29710075 L23.2540959,8.32381152 C21.8584584,9.15407118 20.8634824,10.4985131 20.4561432,12.1100627 C20.0354486,13.7683561 20.2847491,15.4867487 21.1550749,16.9469373 L21.1550749,16.9469373 L27.4298791,27.2728744 L38.9689302,20.2323616 L32.6852224,9.89306905 C31.5566925,8.00105642 29.5467073,6.87697834 27.3052289,6.87697834 L27.3052289,6.87697834 Z" id="path-1"></path>
        <rect id="path-3" x="0" y="0" width="50" height="50"></rect>
    </defs>
    <g id="standard/fc-drugs" stroke="none" stroke-width="1" fill="none" fill-rule="evenodd">
        <mask id="mask-2" fill="white">
            <use xlink:href="#path-1"></use>
        </mask>
        <use id="Mask" fill="#FEFEFE" xlink:href="#path-1"></use>
        <g id="Colors/Black" mask="url(#mask-2)">
            <mask id="mask-4" fill="white">
                <use xlink:href="#path-3"></use>
            </mask>
            <use id="Black" fill="#19191B" fill-rule="evenodd" xlink:href="#path-3"></use>
        </g>
    </g>
</svg>