<?xml version="1.0" encoding="UTF-8"?>
<svg width="50px" height="50px" viewBox="0 0 50 50" version="1.1" xmlns="http://www.w3.org/2000/svg" xmlns:xlink="http://www.w3.org/1999/xlink">
    <!-- Generator: Sketch 61.2 (89653) - https://sketch.com -->
    <title>standard/fc-health</title>
    <desc>Created with Sketch.</desc>
    <defs>
        <path d="M35.1119987,19.2723408 C36.9119984,20.8188265 37.2839983,22.4333335 37.2899983,24.1338676 C37.2859983,25.5123006 36.7859984,28.1131174 33.433999,30.117747 C32.6492354,30.5900437 31.814876,30.9744796 30.9459994,31.2641071 C33.397999,32.502496 34.8159988,34.4651124 34.8159988,36.6918118 C34.8159988,39.9248272 32.1279992,41.7714071 29.0919997,42.8697521 C30.5939995,43.9460901 31.3879994,45.3505312 31.3879994,46.7989862 C31.3879994,47.6983991 31.2800372,48.6417426 29.9439158,49.7270648 L29.7539996,49.8759525 C29.5613517,50.0375563 29.2801107,50.0360382 29.0892175,49.872364 C28.922186,49.7291491 28.8672267,49.4985663 28.9433129,49.2990197 L28.9839998,49.2157452 C30.1319996,47.2891401 28.8419998,46.0747587 26.7840001,45.2144885 L26.7840001,48.215431 C26.7840001,49.2010166 25.9852763,49.9999915 25.0000004,49.9999915 C24.0147246,49.9999915 23.2160007,49.2010166 23.2160007,48.215431 L23.2160007,45.2044854 C21.1466678,46.0736068 20.0514981,47.0725321 20.9280203,49.020331 L21.0160011,49.2057421 C21.0624704,49.2838537 21.0873208,49.3729291 21.0880011,49.4638231 C21.0880108,49.6630922 20.9733516,49.8445686 20.793417,49.930075 C20.6434716,50.0013304 20.4705173,49.9953327 20.3276711,49.9184984 L20.2460012,49.8639488 C18.6800015,48.7636032 18.5760015,47.6632576 18.5760015,46.7649755 C18.5760015,45.2923024 19.2940069,44.0279164 20.6534935,43.0126432 L20.8860011,42.8457445 C21.738001,42.2575598 22.1980009,42.0915077 25.0000004,40.8451162 C29.8599996,38.6764351 31.2459994,38.3223239 31.2459994,36.6778074 C31.2459994,35.9995944 30.2779995,34.9852758 28.4339999,34.3570785 L26.7860001,33.8109069 L26.7860001,36.087622 L23.2180007,37.6881247 L23.2180007,33.8189095 L21.566001,34.3670816 C19.7160013,35.0012808 18.7480015,36.001595 18.7480015,36.6878105 C18.7480015,37.6141014 19.1840014,38.1542711 20.5960012,38.8684954 C19.4375113,39.4241643 18.3834189,40.1753905 17.4800017,41.0891929 C16.1440019,40.0248586 15.1820021,38.5724024 15.1820021,36.6878105 C15.1820021,34.0429798 17.1700018,31.7882717 20.5100012,30.6519148 C22.9100008,29.8516634 24.7220005,29.2514749 26.1340002,28.8013336 C30.2559995,27.4529101 30.7339995,27.2868579 31.7099993,26.7066757 C32.7359991,26.0924828 33.407999,25.3642541 33.629999,24.6480291 C32.9326155,24.4948484 32.275119,24.1970077 31.6999993,23.7737545 C29.8999996,22.4673442 29.0999997,20.32067 29.9119996,18.9722465 C30.8019995,17.5097872 33.239999,17.6118192 35.1119987,19.2723408 Z M20.0860013,18.9782484 C20.9060011,20.32067 20.1040013,22.4673442 18.2980016,23.7797564 C17.7228818,24.2030096 17.0653854,24.5008503 16.3680019,24.654031 C16.5900019,25.370256 17.2620018,26.0984847 18.2880016,26.7126776 C18.6389305,26.9270214 19.0060447,27.1136463 19.3860014,27.2708529 L19.3660014,27.2708529 C17.9521848,27.7389659 16.625586,28.4379645 15.4400021,29.3395026 C13.0960025,27.4809189 12.7140025,25.3382459 12.7140025,24.1378689 C12.7140025,22.4413361 13.0960025,20.8248284 14.8860022,19.2783426 C16.7580018,17.6158205 19.1940014,17.5177897 20.0860013,18.9782484 Z M25.0000004,5.68434189e-14 C26.616017,5.68434189e-14 28.030501,1.08589464 28.4485044,2.64740513 C28.8665079,4.20891561 28.1837728,5.85657145 26.7840001,6.66438093 L26.7840001,9.66532345 L32.1599992,4.18560241 C33.512472,2.66035216 35.4538366,1.78843021 37.4919983,1.79085029 L49.9999981,1.79085029 C50.0014187,3.47613048 49.2074049,5.06317392 47.8579966,6.07219494 L48.5179964,6.07219494 C48.5185554,8.62328929 46.7201922,10.8206775 44.2199972,11.3238443 C43.3257232,13.8381774 41.1043861,15.6437815 38.4610472,16.0049816 C35.8177083,16.3661817 33.1936427,15.2226795 31.6579993,13.0403835 C31.4153447,12.6915344 31.0300072,12.4688812 30.6066778,12.4329159 C30.1833484,12.3969506 29.7659923,12.5514083 29.4679997,12.854325 L26.7840001,15.5951859 L26.7840001,24.8360882 L23.2160007,25.9984533 L23.2160007,6.66438093 C21.8162281,5.85657145 21.133493,4.20891561 21.5514965,2.64740513 C21.9694999,1.08589464 23.3839838,5.68434189e-14 25.0000004,5.68434189e-14 Z M33.0279991,19.6144482 C32.5353612,19.6144482 32.1359992,20.0202057 32.1359992,20.5207328 C32.1359992,21.02126 32.5353612,21.4270175 33.0279991,21.4270175 C33.520637,21.4270175 33.9199989,21.02126 33.9199989,20.5207328 C33.9199989,20.0202057 33.520637,19.6144482 33.0279991,19.6144482 Z M16.9680018,19.6144482 C16.4753639,19.6144482 16.076002,20.0202057 16.076002,20.5207328 C16.076002,21.02126 16.4753639,21.4270175 16.9680018,21.4270175 C17.4606397,21.4270175 17.8600016,21.02126 17.8600016,20.5207328 C17.8600016,20.0202057 17.4606397,19.6144482 16.9680018,19.6144482 Z M12.5080026,1.79085029 C14.4491839,1.79127739 16.3015963,2.584031 17.6409928,3.97802049 L17.8380017,4.1916043 L21.438001,7.85275417 L21.438001,13.7706128 L20.5400012,12.854325 C20.241673,12.5520868 19.8245014,12.3980967 19.4014186,12.434041 C18.9783358,12.4699854 18.5931013,12.6921465 18.3500016,13.0403835 C16.8146701,15.2227697 14.1908768,16.3665769 11.5475863,16.0058044 C8.9042958,15.6450319 6.68273867,13.8399016 5.7880037,11.325845 L5.7820037,11.325845 C3.28144055,10.8227995 1.48241713,8.62562699 1.48200443,6.07419557 L2.14000432,6.07419557 C0.791533526,5.06370816 -0.00157151753,3.476258 2.33798908e-06,1.79085029 L12.5080026,1.79085029 Z" id="path-1"></path>
        <rect id="path-3" x="0" y="0" width="50" height="50"></rect>
    </defs>
    <g id="standard/fc-health" stroke="none" stroke-width="1" fill="none" fill-rule="evenodd">
        <mask id="mask-2" fill="white">
            <use xlink:href="#path-1"></use>
        </mask>
        <use id="Mask" fill="#28282B" fill-rule="nonzero" xlink:href="#path-1"></use>
        <g id="Colors/Black" mask="url(#mask-2)">
            <mask id="mask-4" fill="white">
                <use xlink:href="#path-3"></use>
            </mask>
            <use id="Black" fill="#19191B" fill-rule="evenodd" xlink:href="#path-3"></use>
        </g>
    </g>
</svg>