<?xml version="1.0" encoding="UTF-8"?>
<svg width="50px" height="50px" viewBox="0 0 50 50" version="1.1" xmlns="http://www.w3.org/2000/svg" xmlns:xlink="http://www.w3.org/1999/xlink">
    <!-- Generator: Sketch 61.2 (89653) - https://sketch.com -->
    <title>standard/fc-password</title>
    <desc>Created with Sketch.</desc>
    <defs>
        <path d="M50,26.427524 L50,20.9984123 C49.9956143,20.0975061 49.2588961,19.3691735 48.3509133,19.368096 L23.3254746,19.368096 C22.3016546,19.3096004 21.3473682,18.8350972 20.6873348,18.0563244 C20.6873348,18.0563244 16.1149578,12.0039729 11.2893354,12.0039729 C7.32786283,11.8980682 3.61555232,13.9159091 1.57288843,17.2853855 C-0.469775467,20.6548619 -0.526597495,24.8543941 1.42416482,28.277066 C3.37492713,31.6997379 7.03130449,33.8157354 10.9942146,33.8153895 L11.2893354,33.8153895 C16.1009994,33.8153895 20.6873348,27.7709521 20.6873348,27.7709521 C21.3479364,26.9934667 22.3022114,26.5204006 23.3254746,26.4631377 L29.1720552,26.4631377 L29.1720552,26.4354381 L35.2898278,26.4354381 L35.2898278,28.9580757 L30.6576291,28.9580757 L30.6576291,38 L34.5021745,38 L34.5021745,33.3741753 L37.1323382,33.3741753 L37.1323382,36.2925206 L40.9768837,36.2925206 L40.9768837,33.3741753 L43.2042474,33.3741753 L43.2042474,37.9920858 L47.0467988,37.9920858 L47.0467988,33.3741753 L47.2462047,33.3741753 L47.2462047,28.9580757 L42.6219822,28.9580757 L42.6219822,26.427524 L50,26.427524 Z M11.2893354,28.4218915 C8.22004486,28.4218915 5.73189331,25.9531051 5.73189331,22.9077027 C5.73189331,19.8623002 8.22004486,17.3935138 11.2893354,17.3935138 C14.3586258,17.3935138 16.8467774,19.8623002 16.8467774,22.9077027 C16.8467774,24.3701565 16.2612629,25.772712 15.2190403,26.806823 C14.1768178,27.840934 12.7632606,28.4218915 11.2893354,28.4218915 L11.2893354,28.4218915 Z" id="path-1"></path>
        <rect id="path-3" x="0" y="0" width="50" height="50"></rect>
    </defs>
    <g id="standard/fc-password" stroke="none" stroke-width="1" fill="none" fill-rule="evenodd">
        <mask id="mask-2" fill="white">
            <use xlink:href="#path-1"></use>
        </mask>
        <use id="Mask" fill="#28282B" fill-rule="nonzero" xlink:href="#path-1"></use>
        <g id="Colors/Black" mask="url(#mask-2)">
            <mask id="mask-4" fill="white">
                <use xlink:href="#path-3"></use>
            </mask>
            <use id="Black" fill="#19191B" fill-rule="evenodd" xlink:href="#path-3"></use>
        </g>
    </g>
</svg>