<?xml version="1.0" encoding="UTF-8"?>
<svg width="50px" height="50px" viewBox="0 0 50 50" version="1.1" xmlns="http://www.w3.org/2000/svg" xmlns:xlink="http://www.w3.org/1999/xlink">
    <!-- Generator: Sketch 61.2 (89653) - https://sketch.com -->
    <title>standard/fc-smartshopper</title>
    <desc>Created with Sketch.</desc>
    <defs>
        <path d="M48.435995,9 C48.8518564,9.00542546 49.2492635,9.17256602 49.5439949,9.46599995 C49.8340582,9.76051292 49.9976745,10.1566365 50,10.5699998 L50,10.5699998 L50,21.3059987 C50.0010575,21.7214899 49.8367487,22.1203278 49.5433265,22.4145003 C49.2499044,22.7086729 48.8514876,22.8739999 48.435995,22.8739986 L48.435995,22.8739986 L37.1799962,22.8739986 L26.2939973,39.7219969 C26.001468,40.1633997 25.5094947,40.4314765 24.9799974,40.4379968 L24.9799974,40.4379968 L4.62399953,40.4379968 C3.78143663,40.4078716 3.11395502,39.7160982 3.11395502,38.8729969 C3.11395502,38.0298957 3.78143663,37.3381223 4.62399953,37.3079971 L4.62399953,37.3079971 L24.1279975,37.3079971 L40.3879959,12.1419997 L37.3999962,12.1419997 L22.9819976,34.0399974 C22.6917642,34.4800587 22.199146,34.7440419 21.6719978,34.7419974 L21.6719978,34.7419974 L1.58399984,34.7419974 C1.00764223,34.7456206 0.47624802,34.4311549 0.202043412,33.9241903 C-0.0721611967,33.4172258 -0.044492235,32.8003766 0.273999972,32.3199976 L0.273999972,32.3199976 L6.49799933,22.8699986 L1.56399984,22.8699986 C0.699903162,22.870895 -1.0658141e-14,22.1700961 -1.0658141e-14,21.3059987 L-1.0658141e-14,21.3059987 L-1.0658141e-14,10.5699998 C0.00147715714,10.1554881 0.165994997,9.75820269 0.457999953,9.46399995 C0.752557455,9.17177747 1.14911572,9.00540945 1.56399984,9 L1.56399984,9 Z M23.7119976,12.1279997 L17.3119982,12.1279997 L10.239999,22.8699986 L4.47799954,31.6219977 L20.8439979,31.6219977 L33.6639966,12.1419997 L23.7939976,12.1419997 L23.7939976,12.1419997 L23.7119976,12.1279997 Z M25.2419974,13.9999995 L24.3699975,15.3359994 C25.7619987,15.3819993 26.5719973,15.5919993 27.1119972,15.8399993 L27.1119972,15.8399993 L25.3759974,17.5319991 C24.5228495,17.1682878 23.6010637,16.9936193 22.6739977,17.0199992 C21.2979978,17.0199992 20.5739979,17.4379991 20.2979979,17.8639991 C19.985998,18.355999 20.5059979,18.673999 21.9859977,19.155999 C24.0839975,19.7779989 24.5459975,20.6199988 23.6639976,21.9559987 C22.7819977,23.2919985 20.7019979,24.4379984 18.0739981,24.7379984 L18.0739981,24.7379984 L17.0599983,26.2619982 L14.9999985,26.2619982 L15.9319984,24.8419984 C15.3685933,24.8265123 14.8070849,24.769693 14.2519985,24.6719984 C13.7351754,24.5873154 13.2333149,24.4283367 12.7619987,24.1999984 L12.7619987,24.1999984 L14.1099986,22.8639986 L14.5519985,22.4299986 C14.8582119,22.5849305 15.1791392,22.7088795 15.5099984,22.7999986 C16.1964368,22.9979275 16.9075999,23.0969246 17.6219982,23.0939986 C18.8279981,23.0939986 19.867998,22.7619986 20.2679979,22.1619987 C20.6439979,21.5939987 20.2039979,21.2339987 18.8879981,20.8599988 C18.3217805,20.7118354 17.7781915,20.4878067 17.2719982,20.1939989 C16.5079983,19.7099989 16.2799983,19.045999 16.8939983,18.1099991 C17.5079982,17.1739992 18.6839981,16.3959992 20.1839979,15.8959993 C20.8480052,15.6763345 21.5319398,15.522265 22.2259977,15.4359993 L22.2259977,15.4359993 L23.1719976,13.9999995 L25.2419974,13.9999995 Z" id="path-1"></path>
        <rect id="path-3" x="0" y="0" width="50" height="50"></rect>
    </defs>
    <g id="standard/fc-smartshopper" stroke="none" stroke-width="1" fill="none" fill-rule="evenodd">
        <mask id="mask-2" fill="white">
            <use xlink:href="#path-1"></use>
        </mask>
        <use id="Mask" fill="#28282B" fill-rule="nonzero" xlink:href="#path-1"></use>
        <g id="Colors/Black" mask="url(#mask-2)">
            <mask id="mask-4" fill="white">
                <use xlink:href="#path-3"></use>
            </mask>
            <use id="Black" fill="#19191B" fill-rule="evenodd" xlink:href="#path-3"></use>
        </g>
    </g>
</svg>