<?xml version="1.0" encoding="UTF-8"?>
<svg width="50px" height="50px" viewBox="0 0 50 50" version="1.1" xmlns="http://www.w3.org/2000/svg" xmlns:xlink="http://www.w3.org/1999/xlink">
    <!-- Generator: Sketch 61.2 (89653) - https://sketch.com -->
    <title>solid/fc-solid-doctors</title>
    <desc>Created with Sketch.</desc>
    <defs>
        <path d="M25.0001437,0 C38.8078667,0 50.0008824,11.1930156 50.0008824,24.9992614 C50.0008824,38.8069844 38.8078667,50 25.0001437,50 C11.1924207,50 0.000882352941,38.8069844 0.000882352941,24.9992614 C0.000882352941,11.1930156 11.1924207,0 25.0001437,0 Z M13.9632353,24.0831429 C11.9720588,24.3074286 9.94117647,24.936 8.88235294,25.5488571 C5.95294118,27.1245714 8.91764706,34.5802857 9.99411765,37.9374286 C10.2838235,38.8417143 10.9926471,39.0845714 11.0558824,39.1117143 C12.7926471,39.8731429 15.5764706,40.2902857 18.8088235,40.2902857 C22.1558824,40.2902857 24.4852941,39.8931429 26.2220588,39.1117143 C26.8911765,38.736 27.0911765,38.5531429 27.2911765,37.9617143 C28.5044118,34.396 31.5014706,27.096 28.625,25.5488571 C27.6308824,24.9731429 25.4602941,24.2617143 23.9117647,24.1202857 C23.8176471,24.1174286 23.7176471,24.1117143 23.6147059,24.1031429 C23.7294118,24.346 23.7911765,24.6117143 23.7911765,24.8874286 C23.7911765,25.3717143 23.6073529,25.826 23.2735294,26.1674286 L23.2735294,26.1674286 L20.0485294,30.7202857 L19.9301792,30.832514 C19.687545,31.0439009 19.4098739,31.1770204 19.1073529,31.2345714 L19.1073529,31.2345714 L19.1073529,34.8488571 L19.1020111,35.0098549 C19.0205474,36.2335719 18.0175858,37.2031429 16.7985294,37.2031429 L16.7985294,37.2031429 L13.65,37.2031429 L13.4921073,37.1977031 C12.2919935,37.114745 11.3411765,36.0933214 11.3411765,34.8488571 L11.3411765,34.8488571 L11.3411765,33.5574286 L11.1852646,33.5290819 C10.10625,33.2949168 9.29558824,32.318987 9.29558824,31.1517143 C9.29558824,29.8088571 10.3661765,28.716 11.6823529,28.716 C13,28.716 14.0705882,29.8088571 14.0705882,31.1517143 C14.0705882,32.3602857 13.1985294,33.3645714 12.0632353,33.5502857 L12.0632353,33.5502857 L12.0632353,34.8488571 L12.0697317,34.9960233 C12.1428241,35.8201093 12.8236111,36.4674286 13.65,36.4674286 L13.65,36.4674286 L16.7985294,36.4674286 L16.9427441,36.4608048 C17.7502587,36.3862778 18.3838235,35.6921111 18.3838235,34.8488571 L18.3838235,34.8488571 L18.3838235,31.2188571 L18.2232843,31.174168 C17.9604167,31.0872302 17.7220588,30.938619 17.5235294,30.7374286 L17.5235294,30.7374286 L14.2735294,26.1517143 L14.1593894,26.0242059 C13.9087316,25.7133661 13.7691176,25.3124286 13.7691176,24.8874286 C13.7691176,24.6017143 13.8397059,24.3302857 13.9632353,24.0831429 Z M32.1597059,25.2275714 C32.1597059,25.2275714 30.9479412,25.0132857 31.3052941,26.6275714 C31.6935294,28.3861429 31.6273529,29.4318571 31.6273529,29.4318571 C31.4597059,31.9961429 30.0964706,35.5104286 29.345,37.6518571 C28.5729412,39.8482857 29.645293,39.9252946 29.7823528,39.926341 L29.7964706,39.9261429 C30.5435294,39.9518571 30.2788235,39.9418571 30.8214706,39.9418571 C33.8847059,39.9418571 36.0170588,39.579 37.6067647,38.8647143 C38.22,38.5204286 38.4008824,38.3518571 38.5847059,37.8118571 C39.695,34.5461429 42.495,27.7647143 39.8067647,26.449 C37.4538235,25.2975714 33.9920588,25.3075714 32.1597059,25.2275714 Z M26.4558824,29.1245714 C27.1573529,29.1245714 27.7264706,29.6774286 27.7264706,30.3588571 C27.7264706,31.7631429 25.2573529,33.0017143 25.2573529,33.0017143 C25.2573529,33.0017143 22.7882353,31.8317143 22.7882353,30.3588571 C22.7882353,29.6774286 23.3573529,29.1245714 24.0588235,29.1245714 C24.6147059,29.1245714 25.0852941,29.4731429 25.2573529,29.956 C25.4294118,29.4731429 25.9,29.1245714 26.4558824,29.1245714 Z M18.7532353,23.8304286 C18.0973529,23.8261429 16.9252941,23.8518571 15.5944118,23.9432857 L15.5944118,23.9432857 L15.2797059,23.969 L14.9591176,24.2961429 L14.8856495,24.3819481 C14.6407557,24.7104385 14.6652451,25.1819762 14.9591176,25.4818571 L14.9591176,25.4818571 L18.2120588,30.069 L18.2873039,30.1345423 C18.4212908,30.2360635 18.5961275,30.2975714 18.7811765,30.2975714 C18.9988235,30.2975714 19.2076471,30.209 19.3620588,30.0504286 L19.3620588,30.0504286 L22.5870588,25.499 L22.6639047,25.4092563 C22.9201164,25.0675615 22.8955147,24.5960238 22.6002941,24.2961429 L22.6002941,24.2961429 L22.2797059,23.9704286 L21.9648607,23.9477385 C20.8201631,23.8688407 19.7893376,23.8366218 19.0963668,23.8309867 Z M32.5866806,9.76769841 C32.281476,9.63732804 31.8596895,9.65595238 31.5877941,9.82357143 L31.5877941,9.82357143 L26.9936765,12.6564286 L26.9089015,12.7181457 C26.6757353,12.9191286 26.6347059,13.2545714 26.8319118,13.5078571 L26.8319118,13.5078571 L28.0397656,15.0774849 C27.2095554,16.0071637 26.7072059,17.2206937 26.7072059,18.5485714 C26.7072059,21.4742857 29.1469118,23.8457143 32.1601471,23.8457143 C35.1719118,23.8457143 37.6130882,21.4742857 37.6130882,18.5485714 C37.6130882,17.1876684 37.0846781,15.9467728 36.2163852,15.0084883 L36.2163852,15.0084883 L37.4377941,13.4992857 L37.4962118,13.4130457 C37.6456912,13.1471857 37.5645588,12.8248571 37.2892647,12.6564286 L37.2892647,12.6564286 L32.6951471,9.82357143 Z M18.5470588,11.5575714 C15.4220588,11.5575714 12.8882353,14.019 12.8882353,17.0561429 C12.8882353,20.0918571 15.4220588,22.5518571 18.5470588,22.5518571 C21.6720588,22.5518571 24.2058824,20.0918571 24.2058824,17.0561429 C24.2058824,14.019 21.6720588,11.5575714 18.5470588,11.5575714 Z" id="path-1"></path>
        <rect id="path-3" x="0" y="0" width="50" height="50"></rect>
    </defs>
    <g id="solid/fc-solid-doctors" stroke="none" stroke-width="1" fill="none" fill-rule="evenodd">
        <mask id="mask-2" fill="white">
            <use xlink:href="#path-1"></use>
        </mask>
        <use id="Mask" fill="#231F20" xlink:href="#path-1"></use>
        <g id="Colors/Black" mask="url(#mask-2)">
            <mask id="mask-4" fill="white">
                <use xlink:href="#path-3"></use>
            </mask>
            <use id="Black" fill="#19191B" fill-rule="evenodd" xlink:href="#path-3"></use>
        </g>
    </g>
</svg>