<?xml version="1.0" encoding="UTF-8"?>
<svg width="50px" height="50px" viewBox="0 0 50 50" version="1.1" xmlns="http://www.w3.org/2000/svg" xmlns:xlink="http://www.w3.org/1999/xlink">
    <!-- Generator: Sketch 61.2 (89653) - https://sketch.com -->
    <title>solid/fc-solid-doctor</title>
    <desc>Created with Sketch.</desc>
    <defs>
        <path d="M25,0 C38.8073639,0 50,11.1926361 50,25 C50,38.8073639 38.8073639,50 25,50 C11.1926361,50 0,38.8073639 0,25 C0,11.1926361 11.1926361,0 25,0 Z M19.7320052,22.9529823 C17.3959445,23.2242381 15.0139334,23.9831614 13.7717894,24.7242974 C10.3358828,26.6260524 13.813293,35.6293727 15.0747065,39.6819044 C15.4156291,40.7743389 16.2471837,41.0678288 16.3212973,41.1004388 C18.3594213,42.0194474 21.6233843,42.5219376 25.4150362,42.5219376 C29.3415748,42.5219376 32.0719198,42.044646 34.1115261,41.1004388 C34.895648,40.6468635 35.1283648,40.4245227 35.364046,39.7115499 C36.7855449,35.4055496 40.3029764,26.5919602 36.927843,24.7242974 C35.7627772,24.0291118 33.2177161,23.169394 31.4004506,22.9989328 C31.2892802,22.9959682 31.1721807,22.9885569 31.0521167,22.978181 C31.1870034,23.2716708 31.2596348,23.5918416 31.2596348,23.9268351 C31.2596348,24.509368 31.0447053,25.0578086 30.6519032,25.4713625 L30.6519032,25.4713625 L26.869145,30.9676272 C26.5534211,31.3011384 26.1784063,31.5086565 25.7648524,31.5886992 L25.7648524,31.5886992 L25.7648524,35.9539903 C25.7648524,37.5207518 24.5493893,38.7955058 23.0567414,38.7955058 L23.0567414,38.7955058 L19.3644018,38.7955058 C17.8702716,38.7955058 16.6562908,37.5207518 16.6562908,35.9539903 L16.6562908,35.9539903 L16.6562908,34.3931578 C15.3000119,34.1886043 14.2550101,32.9657299 14.2550101,31.4879047 C14.2550101,29.8677813 15.5104945,28.5485592 17.0565042,28.5485592 C18.6010317,28.5485592 19.8579983,29.8677813 19.8579983,31.4879047 C19.8579983,32.9494249 18.8352306,34.1604411 17.5026681,34.3842642 L17.5026681,34.3842642 L17.5026681,35.9539903 C17.5026681,37.0301198 18.3371872,37.9061425 19.3644018,37.9061425 L19.3644018,37.9061425 L23.0567414,37.9061425 C24.0839559,37.9061425 24.9169928,37.0301198 24.9169928,35.9539903 L24.9169928,35.9539903 L24.9169928,31.5709119 C24.5345666,31.4804933 24.1862327,31.2818688 23.9075655,30.988379 L23.9075655,30.988379 L20.0951619,25.452093 C19.7171825,25.0592909 19.5022531,24.5108502 19.5022531,23.9268351 C19.5022531,23.5799834 19.5867426,23.2524013 19.7320052,22.9529823 Z M33.4565056,29 C34.3085502,29 35,29.7116564 35,30.5904908 C35,30.653004 34.9964337,30.7152601 34.9895471,30.7772024 L34.9948898,30.8358956 L34.9948898,30.8358956 L35,31 L34.9530589,30.9892703 C34.5720836,32.6311715 32.0007435,34 32.0007435,34 C32.0007435,34 29,32.4907975 29,30.5904908 C29,29.7116564 29.6914498,29 30.5434944,29 C31.2185874,29 31.7910781,29.4478528 32.0007435,30.0720859 C32.2089219,29.4478528 32.7814126,29 33.4565056,29 Z M25.7226092,22.6478293 L25.1758621,22.6472416 C24.383269,22.6480351 23.0949628,22.6821501 21.6456184,22.7840033 L21.6456184,22.7840033 L21.2765327,22.815131 L20.8985533,23.2108977 C20.5235385,23.605182 20.5235385,24.2484881 20.8985533,24.6427724 L20.8985533,24.6427724 L24.7139215,30.1805407 C24.8784537,30.351002 25.1230286,30.4562433 25.3824262,30.4562433 C25.637377,30.4562433 25.8819519,30.351002 26.0642713,30.1597889 L26.0642713,30.1597889 L29.8470295,24.6635242 C30.2398316,24.2484881 30.2398316,23.605182 29.8633345,23.2108977 L29.8633345,23.2108977 L29.4868374,22.8166133 C27.9812443,22.6997115 26.60814,22.6540641 25.7226092,22.6478293 Z M25.1082059,7.83084312 C21.4425471,7.83084312 18.4705917,10.8027985 18.4705917,14.4684573 C18.4705917,18.134116 21.4425471,21.1045891 25.1082059,21.1045891 C28.7738646,21.1045891 31.74582,18.134116 31.74582,14.4684573 C31.74582,10.8027985 28.7738646,7.83084312 25.1082059,7.83084312 Z" id="path-1"></path>
        <rect id="path-3" x="0" y="0" width="50" height="50"></rect>
    </defs>
    <g id="solid/fc-solid-doctor" stroke="none" stroke-width="1" fill="none" fill-rule="evenodd">
        <mask id="mask-2" fill="white">
            <use xlink:href="#path-1"></use>
        </mask>
        <use id="Mask" fill="#000000" xlink:href="#path-1"></use>
        <g id="Colors/Black" mask="url(#mask-2)">
            <mask id="mask-4" fill="white">
                <use xlink:href="#path-3"></use>
            </mask>
            <use id="Black" fill="#19191B" fill-rule="evenodd" xlink:href="#path-3"></use>
        </g>
    </g>
</svg>