<?xml version="1.0" encoding="UTF-8"?>
<svg width="50px" height="50px" viewBox="0 0 50 50" version="1.1" xmlns="http://www.w3.org/2000/svg" xmlns:xlink="http://www.w3.org/1999/xlink">
    <!-- Generator: Sketch 61.2 (89653) - https://sketch.com -->
    <title>solid/fc-solid-doctors-network</title>
    <desc>Created with Sketch.</desc>
    <defs>
        <path d="M24.9991143,-2.84217094e-14 C38.8068373,-2.84217094e-14 49.9998529,11.1930156 49.9998529,24.9992614 C49.9998529,38.8069844 38.8068373,50 24.9991143,50 C11.1928686,50 -0.000147058824,38.8069844 -0.000147058824,24.9992614 C-0.000147058824,11.1930156 11.1928686,-2.84217094e-14 24.9991143,-2.84217094e-14 Z M21.0711443,22.6489792 C19.3280061,22.8498833 17.5508914,23.4171418 16.6231874,23.969628 C14.0572288,25.3892516 16.6542093,32.10772 17.5966857,35.1330989 C17.8492931,35.9485331 18.4712093,36.167164 18.5258671,36.192277 C20.0474199,36.8777144 22.4833818,37.2544095 25.3122883,37.2544095 C28.2431241,37.2544095 30.2831868,36.8969185 31.8032624,36.192277 C32.389725,35.85399 32.5640388,35.6885396 32.7383527,35.1552575 C33.8004852,31.9422696 36.424056,25.3626614 33.9068462,23.969628 C33.0367543,23.4511183 31.1370291,22.8085207 29.7809266,22.6814784 C29.6982014,22.6785239 29.6110445,22.6740922 29.5209331,22.6667061 C29.6199079,22.885337 29.6760429,23.1246492 29.6760429,23.3728248 C29.6760429,23.8086093 29.5150242,24.2178036 29.2210542,24.5265459 L29.2210542,24.5265459 L26.3980566,28.6288297 C26.1631761,28.8784826 25.8825013,29.0335923 25.5752363,29.0926818 L25.5752363,29.0926818 L25.5752363,32.3499867 C25.5752363,33.5199575 24.6667363,34.4712973 23.5529005,34.4712973 L23.5529005,34.4712973 L20.7963785,34.4712973 C19.6825427,34.4712973 18.7755199,33.5199575 18.7755199,32.3499867 L18.7755199,32.3499867 L18.7755199,31.1859249 C17.7636134,31.0337696 16.9836329,30.1208379 16.9836329,29.0173427 C16.9836329,27.8074866 17.9216776,26.8236476 19.0753988,26.8236476 C20.2276427,26.8236476 21.1656874,27.8074866 21.1656874,29.0173427 C21.1656874,30.1075428 20.4019565,31.0130883 19.4077768,31.180016 L19.4077768,31.180016 L19.4077768,32.3499867 C19.4077768,33.1550802 20.0311703,33.8080184 20.7963785,33.8080184 L20.7963785,33.8080184 L23.5529005,33.8080184 C24.3195859,33.8080184 24.9415021,33.1550802 24.9415021,32.3499867 L24.9415021,32.3499867 L24.9415021,29.0793867 C24.6563956,29.012911 24.3964021,28.8637102 24.1881119,28.6450793 L24.1881119,28.6450793 L21.3429557,24.5117736 C21.0593265,24.2192809 20.9012622,23.8100866 20.9012622,23.3728248 C20.9012622,23.1157857 20.9633061,22.8705646 21.0711443,22.6489792 Z M36.4417828,23.7140662 C36.4417828,23.7140662 35.4136267,23.5264573 35.71646,24.9372175 C36.0473608,26.4735427 35.9897486,27.3347712 35.9897486,27.3347712 C35.847934,29.5742606 34.6927356,32.6439566 34.0530925,34.5141371 C33.4255628,36.3568411 34.2386924,36.4908559 34.4075937,36.4992318 L34.4371738,36.4995421 C34.9652856,36.5180075 34.8973738,36.5159558 35.1267899,36.514759 L35.3072657,36.5143144 C37.9057235,36.5143144 39.7153373,36.1967087 41.0640536,35.5733152 C41.5840406,35.2719591 41.7391504,35.1257128 41.8942601,34.6529973 C42.8367366,31.8019322 45.2106545,25.8782167 42.9298024,24.7289272 C40.9355341,23.7244069 37.9973121,23.7849736 36.4417828,23.7140662 Z M14.4634686,24.9386947 C14.7648247,23.5338435 13.7396231,23.7199752 13.7396231,23.7199752 C12.19148,23.7894053 9.26655309,23.7288386 7.27819371,24.7304045 C5.00620506,25.8752622 7.37125957,31.7738647 8.31078153,34.6145892 C8.46589129,35.0843502 8.61952381,35.2305965 9.13655634,35.5304754 C10.4793637,36.1523916 12.2830686,36.4685201 14.8711857,36.4685201 C15.3291288,36.4685201 15.1060662,36.4759063 15.7368459,36.4537477 C15.7368459,36.4537477 16.815228,36.5143144 16.11945,34.475729 C15.4827613,32.6144119 14.3319946,29.5565338 14.1916572,27.3259078 C14.1916572,27.3259078 14.134045,26.469111 14.4634686,24.9386947 Z M31.8647059,27.7248571 C32.4764706,27.7248571 32.9705882,28.2062857 32.9705882,28.7991429 C32.9705882,30.0248571 30.8191176,31.1034286 30.8191176,31.1034286 C30.8191176,31.1034286 28.6676471,30.0834286 28.6676471,28.7991429 C28.6676471,28.2062857 29.1632353,27.7248571 29.775,27.7248571 C30.2588235,27.7248571 30.6705882,28.0277143 30.8191176,28.4491429 C30.9691176,28.0277143 31.3794118,27.7248571 31.8647059,27.7248571 Z M25.4189196,22.4196049 L25.2650168,22.4200077 C24.690372,22.4170532 23.6651704,22.4392117 22.4996314,22.521937 L22.4996314,22.521937 L22.2248655,22.5440955 L21.9427135,22.8395426 C21.6620387,23.1349898 21.6620387,23.6136142 21.9427135,23.9090614 L21.9427135,23.9090614 L24.7908241,28.0423671 C24.9134346,28.1694094 25.0951347,28.2491801 25.2886525,28.2491801 C25.479216,28.2491801 25.6623932,28.1694094 25.7982989,28.0261175 L25.7982989,28.0261175 L28.6212965,23.9238337 C28.9137892,23.6136142 28.9137892,23.1349898 28.6331144,22.8395426 L28.6331144,22.8395426 L28.3524396,22.5455727 C27.0554266,22.4451207 25.8913647,22.415576 25.2650168,22.4200077 Z M13.6303076,13.1739888 C11.0850304,13.1739888 9.02280919,15.2376872 9.02280919,17.7844418 C9.02280919,20.3282418 11.0850304,22.3919402 13.6303076,22.3919402 C16.1755849,22.3919402 18.2392833,20.3282418 18.2392833,17.7844418 C18.2392833,15.2376872 16.1755849,13.1739888 13.6303076,13.1739888 Z M36.5525755,13.1281945 C33.9969576,13.1281945 31.925873,15.2007563 31.925873,17.7563743 C31.925873,20.3119922 33.9969576,22.3830768 36.5525755,22.3830768 C39.1081934,22.3830768 41.179278,20.3119922 41.179278,17.7563743 C41.179278,15.2007563 39.1081934,13.1281945 36.5525755,13.1281945 Z M25.084794,11.3599433 C22.3489533,11.3599433 20.1301451,13.5787514 20.1301451,16.3145921 C20.1301451,19.0504328 22.3489533,21.2677638 25.084794,21.2677638 C27.8206347,21.2677638 30.0379656,19.0504328 30.0379656,16.3145921 C30.0379656,13.5787514 27.8206347,11.3599433 25.084794,11.3599433 Z" id="path-1"></path>
        <rect id="path-3" x="0" y="0" width="50" height="50"></rect>
    </defs>
    <g id="solid/fc-solid-doctors-network" stroke="none" stroke-width="1" fill="none" fill-rule="evenodd">
        <mask id="mask-2" fill="white">
            <use xlink:href="#path-1"></use>
        </mask>
        <use id="Mask" fill="#231F20" xlink:href="#path-1"></use>
        <g id="Colors/Black" mask="url(#mask-2)">
            <g transform="translate(0.000000, -0.000000)">
                <mask id="mask-4" fill="white">
                    <use xlink:href="#path-3"></use>
                </mask>
                <use id="Black" stroke="none" fill="#19191B" fill-rule="evenodd" xlink:href="#path-3"></use>
            </g>
        </g>
    </g>
</svg>