<?xml version="1.0" encoding="UTF-8"?>
<svg width="50px" height="50px" viewBox="0 0 50 50" version="1.1" xmlns="http://www.w3.org/2000/svg" xmlns:xlink="http://www.w3.org/1999/xlink">
    <!-- Generator: Sketch 61.2 (89653) - https://sketch.com -->
    <title>solid/fc-solid-heart-rate</title>
    <desc>Created with Sketch.</desc>
    <defs>
        <path d="M25,0 C11.1928813,0 0,11.1928813 0,25 C0,38.8071187 11.1928813,50 25,50 C38.8071187,50 50,38.8071187 50,25 C50,18.3695878 47.366079,12.0107399 42.6776695,7.32233047 C37.9892601,2.63392101 31.6304122,0 25,0 Z M42.916,24.418 L33.366,24.142 L30.592,30.542 C30.3799579,31.0559283 29.846369,31.360601 29.296,31.282 C28.6732626,31.2515521 28.180841,30.7433871 28.17,30.12 L28.17,19.974 L21.512,36.64 C21.4480776,36.797913 21.3512645,36.9404056 21.228,37.058 L21.212,37.07 C21.1954481,37.0881655 21.1773832,37.1048923 21.158,37.12 C20.9330531,37.3058424 20.6497751,37.406406 20.358,37.4040662 C19.7036587,37.4108055 19.1645053,36.892115 19.146,36.238 L19.146,25.66 L18.4,27.37 C18.1870274,27.8879917 17.6478016,28.1935254 17.094,28.11 L6.532,27.38 C6.25712592,27.3707887 6.03062505,27.161318 6,26.888 L6,26.8 C6.02807501,26.5129819 6.27164712,26.2955068 6.56,26.3 L16.492,25.818 L19.246,19.452 C19.4969156,18.838897 20.1894897,18.5360065 20.81,18.768 C21.192785,18.9049555 21.4783234,19.2290189 21.566,19.626 C21.5851742,19.7127138 21.5952288,19.8011949 21.596,19.89 L21.596,29.972 L28.236,13.344 C28.4619516,12.8103522 29.0316527,12.5087949 29.6,12.622 C30.1668542,12.7085415 30.5890441,13.1906824 30.6,13.764 L30.6,24.464 L31.41,22.596 C31.6139987,22.1090232 32.1076835,21.8081336 32.634,21.85 L42.908,21.834 C43.3454042,21.8372348 43.7534325,22.0547004 44,22.416 L44,23.836 C43.7552782,24.1952557 43.3506529,24.4124992 42.916,24.418 Z" id="path-1"></path>
        <rect id="path-3" x="0" y="0" width="50" height="50"></rect>
    </defs>
    <g id="solid/fc-solid-heart-rate" stroke="none" stroke-width="1" fill="none" fill-rule="evenodd">
        <mask id="mask-2" fill="white">
            <use xlink:href="#path-1"></use>
        </mask>
        <use id=".fc-solid-heart-rate" fill="#28282B" fill-rule="nonzero" xlink:href="#path-1"></use>
        <g id="Colors/Black" mask="url(#mask-2)">
            <mask id="mask-4" fill="white">
                <use xlink:href="#path-3"></use>
            </mask>
            <use id="Black" fill="#19191B" fill-rule="evenodd" xlink:href="#path-3"></use>
        </g>
    </g>
</svg>