<?xml version="1.0" encoding="UTF-8"?>
<svg width="50px" height="50px" viewBox="0 0 50 50" version="1.1" xmlns="http://www.w3.org/2000/svg" xmlns:xlink="http://www.w3.org/1999/xlink">
    <!-- Generator: Sketch 61.2 (89653) - https://sketch.com -->
    <title>solid/fc-solid-medical</title>
    <desc>Created with Sketch.</desc>
    <defs>
        <path d="M25,0 C38.8071187,0 50,11.1928813 50,25 C50,38.8071187 38.8071187,50 25,50 C11.1928813,50 0,38.8071187 0,25 C0,11.1928813 11.1928813,0 25,0 Z M37.3838235,9.83414994 C37.0941176,9.83414994 36.8147059,9.9412928 36.6191176,10.1327214 C36.4161765,10.3312928 36.3029412,10.5970071 36.3029412,10.8770071 C36.3029412,11.1584357 36.4161765,11.4227214 36.6191176,11.6198642 L36.6191176,11.6198642 L39.2735294,14.1984357 L39.3828536,14.3138946 C40.0023016,15.0273751 39.9643189,16.1004657 39.2426471,16.8055785 L39.2426471,16.8055785 L31.9029412,26.6770071 L31.7814976,26.7851062 C31.4465505,27.0580124 31.0254902,27.2070071 30.5823529,27.2070071 C30.0779412,27.2070071 29.6073529,27.0184357 29.2897059,26.7112928 L29.2897059,26.7112928 L21.8867647,16.7684357 L21.7721814,16.6465914 C21.1610703,15.9344145 21.1992647,14.867642 21.8867647,14.1984357 L21.8867647,14.1984357 L24.1352941,12.0141499 L24.2177157,11.9251662 C24.3708283,11.7397185 24.4529412,11.5110887 24.4529412,11.2698642 C24.4529412,10.9898642 24.3411765,10.7241499 24.1352941,10.5270071 C23.9397059,10.3355785 23.6588235,10.2270071 23.3705882,10.2270071 C23.0808824,10.2270071 22.8014706,10.3355785 22.6044118,10.5270071 L22.6044118,10.5270071 L20.3588235,12.7112928 L20.2003387,12.8732732 C19.5369898,13.590994 19.1794118,14.5103744 19.1794118,15.4827214 C19.1794118,16.5312928 19.5941176,17.5155785 20.3264706,18.2212928 L20.3264706,18.2212928 L27.7235294,28.1627214 L27.9086904,28.3321041 C28.4149601,28.7668131 29.0196078,29.0649436 29.6823529,29.2084357 L29.6823529,29.2084357 L29.6823529,37.0798642 L29.6773403,37.2657504 C29.577505,39.1125593 27.9989564,40.5855785 26.0705882,40.5855785 L26.0705882,40.5855785 L18.9073529,40.5855785 L18.7159996,40.5807092 C16.8148727,40.4837292 15.2985294,38.9503711 15.2985294,37.0798642 L15.2985294,37.0798642 L15.2985294,34.2627214 L15.5250438,34.2224893 C17.9987177,33.7301472 19.8661765,31.6069651 19.8661765,29.0598642 C19.8661765,26.1512928 17.4294118,23.7827214 14.4323529,23.7827214 C11.4367647,23.7827214 9,26.1512928 9,29.0598642 C9,31.7127214 11.0279412,33.9084357 13.6558824,34.2770071 L13.6558824,34.2770071 L13.6558824,37.0798642 L13.6605013,37.2951768 C13.7771251,40.0086517 16.0874434,42.1827214 18.9073529,42.1827214 L18.9073529,42.1827214 L26.0705882,42.1827214 L26.2923409,42.1782344 C29.0869126,42.0649417 31.3235294,39.8205968 31.3235294,37.0798642 L31.3235294,37.0798642 L31.3235294,29.2412928 L31.562875,29.1915399 C32.2735441,29.0216071 32.9169118,28.6657214 33.4661765,28.1270071 L33.4661765,28.1270071 L40.8044118,18.2570071 L40.9621029,18.0941932 C41.6226441,17.373217 41.9852941,16.4550683 41.9852941,15.4827214 C41.9852941,14.4355785 41.5647059,13.4498642 40.8044118,12.7112928 L40.8044118,12.7112928 L38.1485294,10.1327214 L38.0602512,10.0559075 C37.8739796,9.91286714 37.6321429,9.83414994 37.3838235,9.83414994 Z M14.4323529,24.7512928 C16.8779412,24.7512928 18.8676471,26.6841499 18.8676471,29.0598642 C18.8676471,31.4355785 16.8779412,33.3684357 14.4323529,33.3684357 C11.9867647,33.3684357 9.99705882,31.4355785 9.99705882,29.0598642 C9.99705882,26.6841499 11.9867647,24.7512928 14.4323529,24.7512928 Z M14.4329412,26.3182928 C12.8755882,26.3182928 11.6094118,27.5454357 11.6094118,29.0597214 C11.6094118,30.5740071 12.8755882,31.8040071 14.4329412,31.8040071 C15.9932353,31.8040071 17.2579412,30.5740071 17.2579412,29.0597214 C17.2579412,27.5454357 15.9932353,26.3182928 14.4329412,26.3182928 Z M26.5251471,8.43957851 C25.6369118,7.5752928 24.5648529,7.21386423 24.1354412,7.63386423 C23.7045588,8.04957851 24.0766176,9.08814994 24.9648529,9.95243565 C25.8560294,10.8152928 26.9236765,11.1781499 27.3545588,10.7595785 C27.7839706,10.3424357 27.4133824,9.30243565 26.5251471,8.43957851 Z M36.5435294,7.17486423 C36.1141176,6.75486423 35.045,7.11772137 34.1552941,7.98200708 C33.2670588,8.84486423 32.895,9.88343565 33.3244118,10.3034357 C33.7567647,10.7191499 34.8258824,10.3577214 35.7126471,9.49486423 C36.6023529,8.63057851 36.9758824,7.59200708 36.5435294,7.17486423 Z" id="path-1"></path>
        <rect id="path-3" x="0" y="0" width="50" height="50"></rect>
    </defs>
    <g id="solid/fc-solid-medical" stroke="none" stroke-width="1" fill="none" fill-rule="evenodd">
        <mask id="mask-2" fill="white">
            <use xlink:href="#path-1"></use>
        </mask>
        <use id="Mask" fill="#000000" xlink:href="#path-1"></use>
        <g id="Colors/Black" mask="url(#mask-2)">
            <mask id="mask-4" fill="white">
                <use xlink:href="#path-3"></use>
            </mask>
            <use id="Black" fill="#19191B" fill-rule="evenodd" xlink:href="#path-3"></use>
        </g>
    </g>
</svg>