<?xml version="1.0" encoding="UTF-8"?>
<svg width="316px" height="44px" viewBox="0 0 316 44" version="1.1" xmlns="http://www.w3.org/2000/svg" xmlns:xlink="http://www.w3.org/1999/xlink">
    <!-- Generator: Sketch 54.1 (76490) - https://sketchapp.com -->
    <title>Blue Cross NC / Products / Student Blue / W</title>
    <desc>Created with Sketch.</desc>
    <defs>
        <polygon id="path-1" points="0.06 0.727 28.216 0.727 28.216 43.591 0.06 43.591"></polygon>
    </defs>
    <g id="Blue-Cross-NC-/-Products-/-Student-Blue-/-W" stroke="none" stroke-width="1" fill="none" fill-rule="evenodd">
        <g id="StudentBlue-RGB-W-EPS">
            <g id="Group-3">
                <mask id="mask-2" fill="white">
                    <use xlink:href="#path-1"></use>
                </mask>
                <g id="Clip-2"></g>
                <path d="M12.255,43.591 C5.701,43.591 0.172,38.804 0,32.02 L3.991,32.02 C4.104,38.347 8.779,40.171 14.308,40.171 C18.925,40.171 24.225,37.492 24.225,32.248 C24.225,28.144 21.262,26.206 17.785,25.066 C11.116,22.843 0.97,20.734 0.97,11.842 C0.97,4.66 7.582,0.727 14.079,0.727 C19.495,0.727 26.562,2.608 27.475,10.531 L23.485,10.531 C23.371,5.458 18.753,4.147 14.536,4.147 C10.26,4.147 4.959,6.313 4.959,11.329 C4.959,23.014 28.216,17.713 28.216,31.906 C28.216,40.854 20.521,43.591 12.255,43.591" id="Fill-1" fill="#FFFFFF" mask="url(#mask-2)"></path>
            </g>
            <path d="M36.107,17.257 L30.407,17.257 L30.407,14.122 L36.107,14.122 L36.107,8.023 L39.527,6.54 L39.527,14.122 L46.025,14.122 L46.025,17.257 L39.527,17.257 L39.527,36.409 C39.471,39.031 40.838,40.456 43.46,40.456 C44.486,40.456 45.512,40.399 46.424,40.114 L46.424,43.078 C45.342,43.363 44.087,43.591 42.947,43.591 C35.709,43.591 36.107,38.975 36.107,35.098 L36.107,17.257" id="Fill-4" fill="#FFFFFF"></path>
            <path d="M70.365,14.122 L73.784,14.122 L73.784,36.295 C73.784,38.518 73.956,40.798 74.069,42.736 L70.535,42.736 L70.365,38.518 L70.251,38.404 C68.256,41.938 65.007,43.591 61.301,43.591 C51.954,43.591 51.212,35.326 51.212,32.02 L51.212,14.122 L54.632,14.122 L54.632,32.59 C54.632,37.549 57.482,40.456 62.157,40.456 C67.799,40.456 70.365,35.726 70.365,30.596 L70.365,14.122" id="Fill-5" fill="#FFFFFF"></path>
            <path d="M90.854,16.402 C84.356,16.402 82.248,22.443 82.248,27.916 C82.248,33.218 83.786,40.456 90.341,40.456 C97.808,40.456 100.088,34.243 100.088,27.745 C100.088,21.931 97.523,16.402 90.854,16.402 Z M100.202,38.518 L100.088,38.29 C97.752,41.71 94.274,43.591 90.284,43.591 C81.791,43.591 78.542,35.497 78.542,28.315 C78.542,20.905 81.791,13.267 90.284,13.267 C94.104,13.267 98.093,15.091 100.088,18.454 L100.202,18.34 L100.202,1.582 L103.623,1.582 L103.623,36.295 C103.623,38.518 103.793,40.798 103.907,42.736 L100.374,42.736 L100.202,38.518 L100.202,38.518 Z" id="Fill-6" fill="#FFFFFF"></path>
            <path d="M130.154,26.092 C129.755,20.563 126.791,16.402 120.863,16.402 C115.276,16.402 112.313,21.076 111.857,26.092 L130.154,26.092 Z M111.743,29.226 C111.857,35.326 114.65,40.456 121.661,40.456 C125.708,40.456 129.071,37.549 129.926,33.616 L133.517,33.616 C131.75,40.456 127.475,43.591 120.578,43.591 C112.027,43.591 108.038,36.238 108.038,28.429 C108.038,20.677 112.313,13.267 120.806,13.267 C130.381,13.267 133.859,20.278 133.859,29.226 L111.743,29.226 L111.743,29.226 Z" id="Fill-7" fill="#FFFFFF"></path>
            <path d="M142.435,42.736 L139.015,42.736 L139.015,20.563 C139.015,18.34 138.844,16.059 138.73,14.122 L142.264,14.122 L142.435,18.34 L142.548,18.454 C144.543,14.92 147.792,13.267 151.498,13.267 C160.846,13.267 161.586,21.532 161.586,24.838 L161.586,42.736 L158.167,42.736 L158.167,24.268 C158.167,19.309 155.316,16.402 150.643,16.402 C145,16.402 142.435,21.133 142.435,26.263 L142.435,42.736" id="Fill-8" fill="#FFFFFF"></path>
            <path d="M170.733,17.257 L165.033,17.257 L165.033,14.122 L170.733,14.122 L170.733,8.023 L174.153,6.54 L174.153,14.122 L180.651,14.122 L180.651,17.257 L174.153,17.257 L174.153,36.409 C174.097,39.031 175.464,40.456 178.086,40.456 C179.112,40.456 180.138,40.399 181.05,40.114 L181.05,43.078 C179.968,43.363 178.713,43.591 177.573,43.591 C170.334,43.591 170.733,38.975 170.733,35.098 L170.733,17.257" id="Fill-9" fill="#FFFFFF"></path>
            <path d="M201.04,20.788 L201.04,36.825 L201.161,41.588 L205.743,41.588 C207.852,41.588 210.083,41.348 212.012,39.418 C214.544,36.885 214.485,32.545 214.485,31.037 C214.485,26.394 213.459,23.923 211.59,22.476 C210.205,21.39 207.792,20.788 204.114,20.788 L201.04,20.788 Z M201.161,2.581 L201.1,6.742 L201.04,19.039 L205.019,19.039 C207.672,19.039 209.782,18.195 210.625,17.109 C211.651,15.904 212.194,13.914 212.194,10.781 C212.194,3.969 210.083,2.581 205.442,2.581 L201.161,2.581 Z M185.727,0.771 L209.6,0.771 C212.012,0.771 214.667,0.892 217.137,2.039 C221.719,4.208 221.84,8.791 221.84,9.756 C221.84,12.165 220.997,14.396 219.249,16.146 C216.415,19.101 212.676,19.521 209.963,19.824 C212.917,19.943 217.62,20.185 221.358,23.923 C222.804,25.371 224.553,27.781 224.553,31.699 C224.553,34.475 223.649,37.369 221.358,39.658 C217.921,43.096 213.58,43.336 209.842,43.336 L185.727,43.336 L185.727,41.768 L191.575,41.768 L191.695,35.801 L191.695,7.344 L191.575,2.338 L185.727,2.338 L185.727,0.771 L185.727,0.771 Z" id="Fill-10" fill="#FFFFFF"></path>
            <path d="M232.077,0.771 C234.911,0.771 235.754,0.713 238.407,0.532 L238.288,7.223 L238.288,36.946 L238.407,41.768 L242.567,41.768 L242.567,43.336 L224.962,43.336 L224.962,41.768 L229.485,41.768 L229.604,36.946 L229.604,7.223 L229.485,2.338 L224.962,2.338 L224.962,0.771 L232.077,0.771" id="Fill-11" fill="#FFFFFF"></path>
            <path d="M247.436,14.157 C250.573,14.157 251.538,14.096 254.491,13.914 L254.37,19.521 L254.37,33.027 C254.37,35.316 254.491,37.066 254.973,38.273 C255.758,40.141 257.385,40.986 259.375,40.986 C261.124,40.986 262.629,40.321 263.776,39.236 C266.127,36.885 266.067,33.75 266.067,31.098 L266.067,20.366 L265.946,15.725 L261.485,15.725 L261.485,14.157 L266.668,14.157 C270.167,14.157 271.192,14.096 274.688,13.914 L274.567,19.521 L274.567,36.223 L274.688,41.709 L279.03,41.709 L279.03,43.336 L274.446,43.336 C270.588,43.336 269.202,43.397 266.307,43.578 L266.127,38.935 C264.862,40.504 261.907,44 255.094,44 C250.633,44 247.799,42.312 246.653,40.019 C245.749,38.332 245.809,36.161 245.809,34.355 L245.809,20.123 L245.688,15.725 L241.288,15.725 L241.288,14.157 L247.436,14.157" id="Fill-12" fill="#FFFFFF"></path>
            <path d="M298.987,25.248 C299.047,20.547 299.108,15 293.68,15 C288.557,15 288.315,20.123 288.135,25.248 L298.987,25.248 Z M307.79,34.895 C306.221,37.852 302.965,44 293.862,44 C284.516,44 278.79,36.825 278.79,28.444 C278.79,20.426 284.215,13.312 293.922,13.312 C299.952,13.312 303.268,15.904 304.713,17.412 C308.03,20.85 308.151,24.465 308.211,27.059 L288.075,27.059 C288.135,32.182 288.254,36.825 290.788,39.478 C292.174,40.924 294.163,41.527 296.153,41.527 C302.665,41.527 305.135,36.042 305.979,34.112 L307.79,34.895 L307.79,34.895 Z" id="Fill-13" fill="#FFFFFF"></path>
            <path d="M309.23,17.092 C308.666,17.092 308.189,16.68 308.173,16.095 L308.517,16.095 C308.527,16.641 308.931,16.797 309.408,16.797 C309.804,16.797 310.261,16.566 310.261,16.114 C310.261,15.761 310.005,15.594 309.707,15.496 C309.132,15.304 308.257,15.122 308.257,14.355 C308.257,13.736 308.828,13.397 309.388,13.397 C309.853,13.397 310.462,13.559 310.542,14.242 L310.199,14.242 C310.189,13.805 309.791,13.692 309.427,13.692 C309.058,13.692 308.601,13.879 308.601,14.311 C308.601,15.318 310.605,14.861 310.605,16.085 C310.605,16.856 309.943,17.092 309.23,17.092" id="Fill-14" fill="#FFFFFF"></path>
            <polyline id="Fill-15" fill="#FFFFFF" points="311.367 17.018 311.367 13.471 311.878 13.471 313.21 16.561 314.57 13.471 315.056 13.471 315.056 17.018 314.738 17.018 314.738 13.741 314.728 13.741 313.373 17.018 313.052 17.018 311.697 13.756 311.687 13.756 311.687 17.018 311.367 17.018"></polyline>
        </g>
    </g>
</svg>