<?xml version="1.0" encoding="UTF-8"?>
<svg width="328px" height="40px" viewBox="0 0 328 40" version="1.1" xmlns="http://www.w3.org/2000/svg" xmlns:xlink="http://www.w3.org/1999/xlink">
    <!-- Generator: Sketch 53.2 (72643) - https://sketchapp.com -->
    <title>BlueMedicare-RGB-CK-EPS</title>
    <desc>Created with Sketch.</desc>
    <defs>
        <polygon id="path-1" points="0.06 0.059 34.796 0.059 34.796 38.205 0.06 38.205"></polygon>
    </defs>
    <g id="Symbols" stroke="none" stroke-width="1" fill="none" fill-rule="evenodd">
        <g id="Blue-Cross-NC-/-Products-/-Blue-Medicare-/-CK">
            <g id="BlueMedicare-RGB-CK-EPS">
                <g id="Group-3" transform="translate(0.000000, 1.000000)">
                    <mask id="mask-2" fill="white">
                        <use xlink:href="#path-1"></use>
                    </mask>
                    <g id="Clip-2"></g>
                    <path d="M13.723,17.997 L13.723,32.37 L13.832,36.638 L17.938,36.638 C19.829,36.638 21.828,36.422 23.557,34.693 C25.827,32.424 25.773,28.533 25.773,27.183 C25.773,23.023 24.854,20.807 23.179,19.51 C21.936,18.538 19.775,17.997 16.479,17.997 L13.723,17.997 Z M13.832,1.68 L13.778,5.408 L13.723,16.431 L17.29,16.431 C19.667,16.431 21.558,15.674 22.315,14.701 C23.233,13.621 23.719,11.838 23.719,9.028 C23.719,2.923 21.828,1.68 17.668,1.68 L13.832,1.68 Z M0,0.059 L21.396,0.059 C23.557,0.059 25.935,0.167 28.15,1.193 C32.257,3.139 32.365,7.245 32.365,8.109 C32.365,10.27 31.608,12.27 30.041,13.837 C27.502,16.484 24.152,16.862 21.721,17.133 C24.368,17.241 28.582,17.457 31.932,20.807 C33.229,22.103 34.796,24.265 34.796,27.777 C34.796,30.263 33.986,32.856 31.932,34.909 C28.852,37.989 24.962,38.205 21.612,38.205 L0,38.205 L0,36.8 L5.241,36.8 L5.349,31.451 L5.349,5.948 L5.241,1.464 L0,1.464 L0,0.059 L0,0.059 Z" id="Fill-1" fill="#38A2CF" mask="url(#mask-2)"></path>
                </g>
                <path d="M41.311,1.059 C43.851,1.059 44.607,1.005 46.985,0.843 L46.877,6.84 L46.877,33.478 L46.985,37.8 L50.713,37.8 L50.713,39.205 L34.936,39.205 L34.936,37.8 L38.988,37.8 L39.096,33.478 L39.096,6.84 L38.988,2.464 L34.936,2.464 L34.936,1.059 L41.311,1.059" id="Fill-4" fill="#38A2CF"></path>
                <path d="M55.012,13.054 C57.822,13.054 58.686,13 61.333,12.838 L61.225,17.862 L61.225,29.966 C61.225,32.019 61.333,33.586 61.765,34.666 C62.468,36.342 63.927,37.098 65.71,37.098 C67.277,37.098 68.628,36.504 69.654,35.531 C71.762,33.424 71.707,30.614 71.707,28.236 L71.707,18.619 L71.599,14.459 L67.601,14.459 L67.601,13.054 L72.248,13.054 C75.382,13.054 76.3,13 79.434,12.838 L79.326,17.862 L79.326,32.829 L79.434,37.746 L83.324,37.746 L83.324,39.205 L79.218,39.205 C75.76,39.205 74.517,39.259 71.924,39.421 L71.762,35.261 C70.627,36.666 67.979,39.8 61.874,39.8 C57.875,39.8 55.336,38.286 54.309,36.233 C53.499,34.721 53.553,32.775 53.553,31.154 L53.553,18.403 L53.445,14.459 L49.5,14.459 L49.5,13.054 L55.012,13.054" id="Fill-5" fill="#38A2CF"></path>
                <path d="M101.568,22.996 C101.621,18.781 101.676,13.811 96.813,13.811 C92.22,13.811 92.004,18.403 91.842,22.996 L101.568,22.996 Z M109.456,31.641 C108.051,34.288 105.134,39.8 96.975,39.8 C88.6,39.8 83.467,33.37 83.467,25.859 C83.467,18.673 88.33,12.298 97.029,12.298 C102.432,12.298 105.404,14.621 106.7,15.972 C109.672,19.052 109.78,22.293 109.834,24.616 L91.788,24.616 C91.842,29.209 91.95,33.37 94.219,35.747 C95.462,37.044 97.245,37.584 99.028,37.584 C104.864,37.584 107.079,32.667 107.835,30.938 L109.456,31.641 L109.456,31.641 Z" id="Fill-6" fill="#38A2CF"></path>
                <polyline id="Fill-7" fill="#181918" points="116.81 39.205 116.81 0.943 122.321 0.943 136.682 34.276 151.361 0.943 156.608 0.943 156.608 39.205 153.163 39.205 153.163 3.858 153.057 3.858 138.431 39.205 134.987 39.205 120.361 4.018 120.255 4.018 120.255 39.205 116.81 39.205"></polyline>
                <path d="M182.183,23.73 C181.812,18.591 179.057,14.722 173.546,14.722 C168.352,14.722 165.596,19.067 165.173,23.73 L182.183,23.73 Z M165.067,26.645 C165.173,32.315 167.769,37.085 174.288,37.085 C178.051,37.085 181.177,34.383 181.971,30.727 L185.31,30.727 C183.668,37.085 179.693,40 173.281,40 C165.332,40 161.622,33.164 161.622,25.903 C161.622,18.696 165.596,11.808 173.493,11.808 C182.395,11.808 185.629,18.325 185.629,26.645 L165.067,26.645 L165.067,26.645 Z" id="Fill-8" fill="#181918"></path>
                <path d="M201.495,14.722 C195.453,14.722 193.492,20.339 193.492,25.427 C193.492,30.355 194.924,37.085 201.017,37.085 C207.96,37.085 210.08,31.309 210.08,25.268 C210.08,19.862 207.695,14.722 201.495,14.722 Z M210.185,35.283 L210.08,35.071 C207.907,38.251 204.675,40 200.965,40 C193.068,40 190.048,32.475 190.048,25.798 C190.048,18.908 193.068,11.808 200.965,11.808 C204.515,11.808 208.224,13.503 210.08,16.63 L210.185,16.523 L210.185,0.943 L213.365,0.943 L213.365,33.217 C213.365,35.283 213.524,37.403 213.63,39.205 L210.345,39.205 L210.185,35.283 L210.185,35.283 Z" id="Fill-9" fill="#181918"></path>
                <path d="M219.55,39.206 L222.728,39.206 L222.728,12.603 L219.55,12.603 L219.55,39.206 Z M219.284,4.918 L222.994,4.918 L222.994,0.943 L219.284,0.943 L219.284,4.918 Z" id="Fill-10" fill="#181918"></path>
                <path d="M247.182,20.764 C246.918,16.683 244.321,14.722 239.923,14.722 C235.048,14.722 232.026,19.81 232.026,25.851 C232.026,31.945 235.048,37.085 239.923,37.085 C244.056,37.085 246.918,34.542 247.182,30.885 L250.628,30.885 C249.779,36.979 246.282,40 240.241,40 C232.292,40 228.582,33.164 228.582,25.903 C228.582,18.696 232.556,11.808 240.453,11.808 C245.911,11.808 250.362,15.093 250.628,20.764 L247.182,20.764" id="Fill-11" fill="#181918"></path>
                <path d="M264.132,37.085 C271.074,37.085 272.398,31.362 272.081,25.798 C267.576,25.957 258.143,25.108 258.143,31.786 C258.143,35.39 260.899,37.085 264.132,37.085 Z M272.081,20.445 C271.762,16.1 269.537,14.722 265.774,14.722 C262.435,14.722 259.68,15.729 259.256,19.332 L255.864,19.332 C256.659,13.874 260.74,11.808 265.827,11.808 C271.71,11.808 275.366,14.51 275.261,20.604 L275.261,33.217 C275.207,35.283 275.419,37.403 275.525,39.205 L272.239,39.205 L272.134,35.283 L272.027,35.283 L271.869,35.654 C270.703,37.88 267.152,40 263.549,40 C258.62,40 254.699,36.979 254.699,31.786 C254.699,28.183 256.871,25.427 260.051,24.102 C263.601,22.565 268.212,23.095 272.081,22.883 L272.081,20.445 L272.081,20.445 Z" id="Fill-12" fill="#181918"></path>
                <path d="M284.811,39.205 L281.632,39.205 L281.632,18.591 C281.685,16.523 281.472,14.404 281.367,12.603 L284.652,12.603 L284.811,16.523 L284.918,16.523 C285.871,13.821 288.256,11.913 290.906,11.808 C291.966,11.754 293.025,11.808 294.086,11.86 L294.086,14.934 C293.449,14.881 292.761,14.722 292.125,14.722 C287.408,14.722 284.918,18.113 284.811,23.201 L284.811,39.205" id="Fill-13" fill="#181918"></path>
                <path d="M316.345,23.73 C315.973,18.591 313.219,14.722 307.707,14.722 C302.513,14.722 299.758,19.067 299.334,23.73 L316.345,23.73 Z M299.228,26.645 C299.334,32.315 301.93,37.085 308.449,37.085 C312.212,37.085 315.338,34.383 316.133,30.727 L319.471,30.727 C317.829,37.085 313.854,40 307.442,40 C299.493,40 295.783,33.164 295.783,25.903 C295.783,18.696 299.758,11.808 307.654,11.808 C316.556,11.808 319.79,18.325 319.79,26.645 L299.228,26.645 L299.228,26.645 Z" id="Fill-14" fill="#181918"></path>
                <path d="M320.959,15.755 C320.355,15.755 319.846,15.313 319.831,14.688 L320.198,14.688 C320.209,15.271 320.638,15.439 321.148,15.439 C321.573,15.439 322.061,15.192 322.061,14.71 C322.061,14.332 321.789,14.153 321.469,14.049 C320.854,13.844 319.92,13.649 319.92,12.831 C319.92,12.169 320.529,11.808 321.127,11.808 C321.626,11.808 322.277,11.98 322.361,12.71 L321.993,12.71 C321.982,12.243 321.557,12.122 321.169,12.122 C320.775,12.122 320.287,12.321 320.287,12.783 C320.287,13.859 322.428,13.371 322.428,14.679 C322.428,15.503 321.72,15.755 320.959,15.755" id="Fill-15" fill="#181918"></path>
                <polyline id="Fill-16" fill="#181918" points="323.241 15.676 323.241 11.886 323.787 11.886 325.21 15.187 326.664 11.886 327.183 11.886 327.183 15.676 326.843 15.676 326.843 12.175 326.832 12.175 325.383 15.676 325.042 15.676 323.594 12.19 323.583 12.19 323.583 15.676 323.241 15.676"></polyline>
            </g>
        </g>
    </g>
</svg>