<?xml version="1.0" encoding="UTF-8"?>
<svg width="276px" height="44px" viewBox="0 0 276 44" version="1.1" xmlns="http://www.w3.org/2000/svg" xmlns:xlink="http://www.w3.org/1999/xlink">
    <!-- Generator: Sketch 53.2 (72643) - https://sketchapp.com -->
    <title>BlueSelect-RGB-CK-EPS</title>
    <desc>Created with Sketch.</desc>
    <g id="Symbols" stroke="none" stroke-width="1" fill="none" fill-rule="evenodd">
        <g id="Blue-Cross-NC-/-Products-/-Blue-Select-/-CK">
            <g id="BlueSelect-RGB-CK-EPS">
                <path d="M15.313,20.788 L15.313,36.825 L15.434,41.588 L20.016,41.588 C22.126,41.588 24.356,41.348 26.286,39.418 C28.818,36.885 28.759,32.545 28.759,31.037 C28.759,26.394 27.733,23.923 25.864,22.476 C24.478,21.39 22.066,20.788 18.388,20.788 L15.313,20.788 Z M15.434,2.581 L15.373,6.742 L15.313,19.04 L19.292,19.04 C21.945,19.04 24.055,18.196 24.899,17.11 C25.924,15.905 26.467,13.915 26.467,10.781 C26.467,3.969 24.356,2.581 19.715,2.581 L15.434,2.581 Z M0,0.771 L23.874,0.771 C26.286,0.771 28.939,0.892 31.411,2.039 C35.993,4.208 36.113,8.791 36.113,9.757 C36.113,12.165 35.269,14.397 33.521,16.146 C30.688,19.101 26.949,19.522 24.237,19.825 C27.191,19.944 31.893,20.186 35.631,23.923 C37.078,25.371 38.827,27.781 38.827,31.699 C38.827,34.475 37.922,37.369 35.631,39.658 C32.195,43.096 27.853,43.336 24.115,43.336 L0,43.336 L0,41.768 L5.848,41.768 L5.968,35.801 L5.968,7.345 L5.848,2.339 L0,2.339 L0,0.771 L0,0.771 Z" id="Fill-1" fill="#38A1CE"></path>
                <path d="M46.35,0.771 C49.184,0.771 50.028,0.714 52.68,0.532 L52.56,7.224 L52.56,36.946 L52.68,41.768 L56.841,41.768 L56.841,43.336 L39.236,43.336 L39.236,41.768 L43.758,41.768 L43.878,36.946 L43.878,7.224 L43.758,2.339 L39.236,2.339 L39.236,0.771 L46.35,0.771" id="Fill-2" fill="#38A1CE"></path>
                <path d="M61.71,14.157 C64.846,14.157 65.811,14.096 68.765,13.915 L68.644,19.522 L68.644,33.027 C68.644,35.316 68.765,37.066 69.247,38.273 C70.031,40.141 71.659,40.986 73.649,40.986 C75.396,40.986 76.904,40.321 78.05,39.236 C80.401,36.885 80.34,33.75 80.34,31.098 L80.34,20.366 L80.22,15.726 L75.758,15.726 L75.758,14.157 L80.943,14.157 C84.44,14.157 85.465,14.096 88.962,13.915 L88.841,19.522 L88.841,36.223 L88.962,41.709 L93.303,41.709 L93.303,43.336 L88.72,43.336 C84.862,43.336 83.475,43.397 80.581,43.578 L80.401,38.935 C79.135,40.504 76.18,44 69.368,44 C64.907,44 62.073,42.312 60.927,40.019 C60.023,38.332 60.083,36.161 60.083,34.355 L60.083,20.124 L59.962,15.726 L55.561,15.726 L55.561,14.157 L61.71,14.157" id="Fill-3" fill="#38A1CE"></path>
                <path d="M113.26,25.248 C113.32,20.548 113.381,15.001 107.954,15.001 C102.831,15.001 102.589,20.124 102.408,25.248 L113.26,25.248 Z M122.063,34.895 C120.495,37.852 117.239,44 108.136,44 C98.79,44 93.063,36.825 93.063,28.444 C93.063,20.427 98.49,13.312 108.196,13.312 C114.225,13.312 117.541,15.905 118.988,17.413 C122.304,20.85 122.424,24.465 122.484,27.059 L102.349,27.059 C102.408,32.182 102.528,36.825 105.061,39.478 C106.448,40.924 108.437,41.527 110.426,41.527 C116.938,41.527 119.409,36.042 120.253,34.112 L122.063,34.895 L122.063,34.895 Z" id="Fill-4" fill="#38A1CE"></path>
                <path d="M138.967,43.392 C132.451,43.458 126.907,38.755 126.668,32.015 L130.634,31.974 C130.812,38.261 135.476,40.026 140.972,39.97 C145.561,39.925 150.803,37.208 150.75,31.995 C150.708,27.916 147.742,26.019 144.275,24.922 C137.624,22.779 127.518,20.786 127.428,11.947 C127.355,4.809 133.888,0.832 140.346,0.767 C145.729,0.712 152.773,2.51 153.76,10.376 L149.793,10.416 C149.629,5.375 145.027,4.119 140.834,4.161 C136.585,4.205 131.338,6.411 131.389,11.397 C131.507,23.012 154.569,17.507 154.712,31.616 C154.803,40.511 147.182,43.308 138.967,43.392" id="Fill-5" fill="#1C1B19"></path>
                <path d="M179.766,25.754 C179.308,20.199 176.285,16.044 170.324,16.105 C164.707,16.162 161.775,20.893 161.367,25.941 L179.766,25.754 Z M161.285,29.095 C161.462,35.227 164.323,40.356 171.373,40.284 C175.442,40.243 178.793,37.286 179.613,33.322 L183.224,33.286 C181.518,40.182 177.25,43.378 170.316,43.448 C161.718,43.535 157.63,36.183 157.55,28.33 C157.471,20.535 161.695,13.04 170.234,12.954 C179.864,12.855 183.432,19.87 183.523,28.869 L161.285,29.095 L161.285,29.095 Z" id="Fill-6" fill="#1C1B19"></path>
                <polyline id="Fill-7" fill="#1C1B19" points="191.759 43.325 188.317 43.325 188.32 0.785 191.759 0.75 191.759 43.325"></polyline>
                <path d="M219.346,25.756 C218.888,20.201 215.865,16.047 209.904,16.107 C204.287,16.164 201.354,20.894 200.947,25.943 L219.346,25.756 Z M200.864,29.098 C201.041,35.228 203.902,40.358 210.952,40.287 C215.022,40.245 218.373,37.288 219.192,33.324 L222.804,33.288 C221.097,40.184 216.831,43.38 209.896,43.45 C201.298,43.538 197.211,36.185 197.13,28.332 C197.051,20.538 201.274,13.043 209.814,12.955 C219.443,12.858 223.011,19.872 223.104,28.871 L200.864,29.098 L200.864,29.098 Z" id="Fill-8" fill="#1C1B19"></path>
                <path d="M246.825,22.267 C246.494,17.857 243.664,15.764 238.907,15.812 C233.634,15.866 230.423,21.401 230.489,27.937 C230.556,34.527 233.88,40.054 239.152,40 C243.623,39.955 246.69,37.173 246.937,33.214 L250.662,33.177 C249.813,39.776 246.063,43.082 239.529,43.149 C230.932,43.236 226.844,35.884 226.765,28.031 C226.686,20.236 230.908,12.741 239.448,12.655 C245.352,12.594 250.201,16.099 250.551,22.228 L246.825,22.267" id="Fill-9" fill="#1C1B19"></path>
                <path d="M257.717,16.481 L251.984,16.539 L251.953,13.387 L257.685,13.329 L257.622,7.196 L261.046,5.67 L261.123,13.294 L267.657,13.227 L267.689,16.38 L261.155,16.446 L261.352,35.705 C261.32,38.342 262.711,39.761 265.348,39.733 C266.38,39.723 267.41,39.655 268.324,39.358 L268.354,42.34 C267.269,42.637 266.01,42.88 264.863,42.892 C257.585,42.965 257.938,38.318 257.899,34.421 L257.717,16.481" id="Fill-10" fill="#1C1B19"></path>
                <path d="M272.354,10.629 C273.641,10.629 274.666,9.616 274.666,8.28 C274.666,6.965 273.641,5.96 272.354,5.96 C271.068,5.96 270.043,6.965 270.043,8.309 C270.043,9.616 271.068,10.629 272.354,10.629 Z M272.354,5.563 C273.852,5.563 275.107,6.737 275.107,8.28 C275.107,9.85 273.852,11.025 272.354,11.025 C270.857,11.025 269.604,9.85 269.604,8.309 C269.604,6.737 270.857,5.563 272.354,5.563 Z M271.775,8.141 L272.316,8.141 C272.76,8.141 273.168,8.117 273.168,7.618 C273.168,7.178 272.795,7.128 272.457,7.128 L271.775,7.128 L271.775,8.141 Z M271.336,6.729 L272.492,6.729 C273.25,6.729 273.609,7.009 273.609,7.641 C273.609,8.206 273.242,8.449 272.773,8.5 L273.684,9.894 L273.205,9.894 L272.34,8.537 L271.775,8.537 L271.775,9.894 L271.336,9.894 L271.336,6.729 L271.336,6.729 Z" id="Fill-11" fill="#1C1B19"></path>
            </g>
        </g>
    </g>
</svg>