<?xml version="1.0" encoding="UTF-8"?>
<svg width="279px" height="83px" viewBox="0 0 279 83" version="1.1" xmlns="http://www.w3.org/2000/svg" xmlns:xlink="http://www.w3.org/1999/xlink">
    <!-- Generator: Sketch 54.1 (76490) - https://sketchapp.com -->
    <title>Blue Cross NC / Products / Dental Blue for Individuals Spanish / CW</title>
    <desc>Created with Sketch.</desc>
    <defs>
        <polygon id="path-1" points="0.06 0.109 278.117 0.109 278.117 68.94 0.06 68.94"></polygon>
    </defs>
    <g id="Blue-Cross-NC-/-Products-/-Dental-Blue-for-Individuals-Spanish-/-CW" stroke="none" stroke-width="1" fill="none" fill-rule="evenodd">
        <g id="DentalBlue-Individuals-Spanish-RGB-CW-EPS">
            <path d="M12.639,39.936 C24.507,39.936 29.359,32.979 29.359,22.338 C29.359,9.886 22.052,4.391 10.067,4.742 L4.104,4.742 L4.104,39.936 L12.639,39.936 Z M11.704,1.233 C25.559,1.233 33.451,8.365 33.451,22.338 C33.451,36.31 25.559,43.442 11.704,43.442 L0.304,43.442 L0.304,1.233 L11.704,1.233 L11.704,1.233 Z" id="Fill-1" fill="#FFFFFE"></path>
            <path d="M59.753,26.372 C59.344,20.701 56.304,16.434 50.224,16.434 C44.494,16.434 41.455,21.228 40.987,26.372 L59.753,26.372 Z M40.87,29.587 C40.987,35.843 43.852,41.104 51.042,41.104 C55.193,41.104 58.642,38.122 59.52,34.089 L63.202,34.089 C61.39,41.104 57.005,44.319 49.932,44.319 C41.163,44.319 37.07,36.778 37.07,28.769 C37.07,20.817 41.455,13.219 50.165,13.219 C59.987,13.219 63.553,20.408 63.553,29.587 L40.87,29.587 L40.87,29.587 Z" id="Fill-2" fill="#FFFFFE"></path>
            <path d="M70.789,43.442 L67.281,43.442 L67.281,20.701 C67.281,18.422 67.106,16.082 66.989,14.096 L70.614,14.096 L70.789,18.422 L70.906,18.537 C72.952,14.914 76.284,13.219 80.085,13.219 C89.672,13.219 90.432,21.694 90.432,25.086 L90.432,43.442 L86.924,43.442 L86.924,24.501 C86.924,19.415 84.001,16.434 79.207,16.434 C73.42,16.434 70.789,21.285 70.789,26.548 L70.789,43.442" id="Fill-3" fill="#FFFFFE"></path>
            <path d="M99.255,17.31 L93.409,17.31 L93.409,14.096 L99.255,14.096 L99.255,7.84 L102.762,6.319 L102.762,14.096 L109.427,14.096 L109.427,17.31 L102.762,17.31 L102.762,36.954 C102.704,39.643 104.107,41.104 106.796,41.104 C107.849,41.104 108.901,41.046 109.836,40.754 L109.836,43.794 C108.726,44.086 107.439,44.319 106.27,44.319 C98.846,44.319 99.255,39.584 99.255,35.608 L99.255,17.31" id="Fill-4" fill="#FFFFFE"></path>
            <path d="M121.996,41.104 C129.654,41.104 131.116,34.79 130.765,28.652 C125.796,28.828 115.39,27.892 115.39,35.259 C115.39,39.234 118.43,41.104 121.996,41.104 Z M130.765,22.747 C130.415,17.953 127.958,16.434 123.808,16.434 C120.125,16.434 117.085,17.544 116.617,21.52 L112.875,21.52 C113.753,15.498 118.255,13.219 123.867,13.219 C130.355,13.219 134.389,16.199 134.273,22.922 L134.273,36.836 C134.214,39.116 134.448,41.455 134.565,43.442 L130.941,43.442 L130.824,39.116 L130.707,39.116 L130.532,39.525 C129.245,41.981 125.329,44.319 121.353,44.319 C115.916,44.319 111.59,40.986 111.59,35.259 C111.59,31.283 113.987,28.242 117.494,26.782 C121.411,25.086 126.497,25.67 130.765,25.436 L130.765,22.747 L130.765,22.747 Z" id="Fill-5" fill="#FFFFFE"></path>
            <polygon id="Fill-6" fill="#FFFFFE" points="141.406 43.442 144.915 43.442 144.915 1.233 141.406 1.233"></polygon>
            <path d="M166.564,21.076 L166.564,37.113 L166.684,41.876 L171.266,41.876 C173.377,41.876 175.607,41.636 177.537,39.706 C180.068,37.173 180.01,32.833 180.01,31.325 C180.01,26.683 178.982,24.211 177.115,22.765 C175.729,21.678 173.316,21.076 169.639,21.076 L166.564,21.076 Z M166.684,2.869 L166.623,7.029 L166.564,19.327 L170.543,19.327 C173.195,19.327 175.305,18.483 176.15,17.398 C177.174,16.193 177.717,14.202 177.717,11.068 C177.717,4.256 175.607,2.869 170.965,2.869 L166.684,2.869 Z M151.25,1.059 L175.125,1.059 C177.537,1.059 180.189,1.18 182.66,2.326 C187.242,4.496 187.363,9.078 187.363,10.045 C187.363,12.453 186.52,14.686 184.771,16.434 C181.938,19.389 178.199,19.81 175.486,20.112 C178.441,20.232 183.143,20.474 186.881,24.211 C188.328,25.659 190.078,28.069 190.078,31.987 C190.078,34.763 189.172,37.657 186.881,39.946 C183.445,43.384 179.104,43.624 175.365,43.624 L151.25,43.624 L151.25,42.056 L157.098,42.056 L157.218,36.089 L157.218,7.632 L157.098,2.627 L151.25,2.627 L151.25,1.059 L151.25,1.059 Z" id="Fill-7" fill="#38A1CE"></path>
            <path d="M197.602,1.059 C200.434,1.059 201.279,1.001 203.932,0.82 L203.811,7.511 L203.811,37.234 L203.932,42.056 L208.092,42.056 L208.092,43.624 L190.486,43.624 L190.486,42.056 L195.01,42.056 L195.129,37.234 L195.129,7.511 L195.01,2.627 L190.486,2.627 L190.486,1.059 L197.602,1.059" id="Fill-8" fill="#38A1CE"></path>
            <path d="M212.961,14.445 C216.096,14.445 217.061,14.383 220.016,14.202 L219.895,19.81 L219.895,33.315 C219.895,35.604 220.016,37.354 220.498,38.561 C221.281,40.429 222.908,41.274 224.898,41.274 C226.646,41.274 228.154,40.609 229.301,39.524 C231.65,37.173 231.59,34.038 231.59,31.386 L231.59,20.654 L231.471,16.013 L227.008,16.013 L227.008,14.445 L232.193,14.445 C235.689,14.445 236.715,14.383 240.211,14.202 L240.09,19.81 L240.09,36.511 L240.211,41.997 L244.553,41.997 L244.553,43.624 L239.971,43.624 C236.111,43.624 234.725,43.686 231.832,43.866 L231.65,39.224 C230.385,40.792 227.43,44.288 220.617,44.288 C216.158,44.288 213.324,42.601 212.178,40.308 C211.273,38.62 211.334,36.449 211.334,34.643 L211.334,20.412 L211.213,16.013 L206.813,16.013 L206.813,14.445 L212.961,14.445" id="Fill-9" fill="#38A1CE"></path>
            <path d="M264.51,25.536 C264.57,20.836 264.631,15.289 259.203,15.289 C254.08,15.289 253.838,20.412 253.658,25.536 L264.51,25.536 Z M273.313,35.183 C271.744,38.14 268.488,44.288 259.387,44.288 C250.039,44.288 244.313,37.113 244.313,28.732 C244.313,20.714 249.74,13.6 259.445,13.6 C265.475,13.6 268.791,16.193 270.238,17.7 C273.555,21.137 273.674,24.753 273.734,27.347 L253.598,27.347 C253.658,32.47 253.777,37.113 256.311,39.767 C257.697,41.212 259.686,41.815 261.676,41.815 C268.188,41.815 270.658,36.33 271.502,34.4 L273.313,35.183 L273.313,35.183 Z" id="Fill-10" fill="#38A1CE"></path>
            <g id="Group-14" transform="translate(0.000000, 14.000000)">
                <mask id="mask-2" fill="white">
                    <use xlink:href="#path-1"></use>
                </mask>
                <g id="Clip-12"></g>
                <path d="M275.955,4.088 C276.961,4.088 277.77,3.293 277.77,2.244 C277.77,1.209 276.961,0.42 275.955,0.42 C274.943,0.42 274.139,1.209 274.139,2.263 C274.139,3.293 274.943,4.088 275.955,4.088 Z M275.955,0.109 C277.131,0.109 278.117,1.03 278.117,2.244 C278.117,3.477 277.131,4.398 275.955,4.398 C274.777,4.398 273.789,3.477 273.789,2.263 C273.789,1.03 274.777,0.109 275.955,0.109 Z M275.502,2.131 L275.918,2.131 C276.266,2.131 276.594,2.116 276.594,1.723 C276.594,1.377 276.303,1.338 276.035,1.338 L275.502,1.338 L275.502,2.131 Z M275.15,1.026 L276.061,1.026 C276.654,1.026 276.941,1.244 276.941,1.742 C276.941,2.183 276.65,2.375 276.281,2.416 L276.996,3.512 L276.623,3.512 L275.941,2.445 L275.502,2.445 L275.502,3.512 L275.15,3.512 L275.15,1.026 L275.15,1.026 Z" id="Fill-11" fill="#38A1CE" mask="url(#mask-2)"></path>
                <path d="M6.608,62.504 C9.828,62.504 10.64,58.948 10.64,56.344 C10.64,53.656 9.548,50.688 6.356,50.688 C3.08,50.688 1.82,53.404 1.82,56.26 C1.82,59.452 2.94,62.504 6.608,62.504 Z M1.82,69 L0.14,69 L0.14,52.732 C0.168,51.64 0.056,50.52 0,49.568 L1.736,49.568 L1.82,51.64 L1.876,51.696 C2.856,50.044 4.816,49.148 6.692,49.148 C10.864,49.148 12.46,52.9 12.46,56.54 C12.46,60.068 10.864,64.044 6.776,64.044 C4.732,64.044 3.024,63.12 1.876,61.44 L1.82,61.44 L1.82,69 L1.82,69 Z" id="Fill-13" fill="#FFFFFE" mask="url(#mask-2)"></path>
            </g>
            <polygon id="Fill-15" fill="#FFFFFE" points="16.016 77.624 17.696 77.624 17.696 57.408 16.016 57.408"></polygon>
            <path d="M25.956,76.504 C29.624,76.504 30.324,73.48 30.156,70.54 C27.776,70.624 22.792,70.176 22.792,73.704 C22.792,75.608 24.248,76.504 25.956,76.504 Z M30.156,67.712 C29.988,65.416 28.812,64.688 26.824,64.688 C25.06,64.688 23.604,65.22 23.38,67.124 L21.588,67.124 C22.008,64.24 24.164,63.148 26.852,63.148 C29.96,63.148 31.892,64.576 31.836,67.796 L31.836,74.46 C31.808,75.552 31.92,76.672 31.976,77.624 L30.24,77.624 L30.184,75.552 L30.128,75.552 L30.044,75.748 C29.428,76.924 27.552,78.044 25.648,78.044 C23.044,78.044 20.972,76.448 20.972,73.704 C20.972,71.8 22.12,70.344 23.8,69.645 C25.676,68.832 28.112,69.112 30.156,69 L30.156,67.712 L30.156,67.712 Z" id="Fill-16" fill="#FFFFFE"></path>
            <path d="M37.884,77.624 L36.204,77.624 L36.204,66.732 C36.204,65.64 36.12,64.52 36.064,63.568 L37.8,63.568 L37.884,65.64 L37.94,65.696 C38.92,63.96 40.516,63.148 42.336,63.148 C46.928,63.148 47.292,67.208 47.292,68.832 L47.292,77.624 L45.612,77.624 L45.612,68.552 C45.612,66.116 44.212,64.688 41.916,64.688 C39.144,64.688 37.884,67.012 37.884,69.532 L37.884,77.624" id="Fill-17" fill="#FFFFFE"></path>
            <path d="M61.796,69.448 C61.6,66.732 60.144,64.688 57.232,64.688 C54.488,64.688 53.032,66.984 52.808,69.448 L61.796,69.448 Z M52.752,70.988 C52.808,73.984 54.18,76.504 57.623,76.504 C59.612,76.504 61.264,75.076 61.684,73.143 L63.448,73.143 C62.58,76.504 60.479,78.044 57.092,78.044 C52.892,78.044 50.932,74.432 50.932,70.596 C50.932,66.788 53.032,63.148 57.204,63.148 C61.908,63.148 63.616,66.592 63.616,70.988 L52.752,70.988 L52.752,70.988 Z" id="Fill-18" fill="#FFFFFE"></path>
            <path d="M72.016,63.148 C74.676,63.148 76.915,64.072 77.14,67.04 L75.319,67.04 C75.151,65.276 73.584,64.688 71.848,64.688 C70.28,64.688 68.684,65.304 68.684,66.956 C68.684,69.028 71.399,68.832 75.207,70.176 C76.664,70.68 77.587,71.94 77.587,73.452 C77.587,76.616 74.647,78.044 71.68,78.044 C69.244,78.044 66.444,76.896 66.388,73.788 L68.207,73.788 C68.348,75.888 70.196,76.504 72.1,76.504 C73.892,76.504 75.768,75.664 75.768,73.704 C75.768,71.689 73.556,71.353 71.315,70.848 C69.103,70.316 66.864,69.672 66.864,67.068 C66.864,64.156 69.552,63.148 72.016,63.148" id="Fill-19" fill="#FFFFFE"></path>
            <path d="M89.152,77.624 L90.832,77.624 L90.832,63.568 L89.152,63.568 L89.152,77.624 Z M89.012,59.508 L90.972,59.508 L90.972,57.408 L89.012,57.408 L89.012,59.508 Z" id="Fill-20" fill="#FFFFFE"></path>
            <path d="M97.019,77.624 L95.339,77.624 L95.339,66.732 C95.339,65.64 95.255,64.52 95.199,63.568 L96.935,63.568 L97.019,65.64 L97.075,65.696 C98.055,63.96 99.651,63.148 101.471,63.148 C106.063,63.148 106.427,67.208 106.427,68.832 L106.427,77.624 L104.747,77.624 L104.747,68.552 C104.747,66.116 103.347,64.688 101.051,64.688 C98.279,64.688 97.019,67.012 97.019,69.532 L97.019,77.624" id="Fill-21" fill="#FFFFFE"></path>
            <path d="M116.003,64.688 C112.812,64.688 111.775,67.656 111.775,70.344 C111.775,72.948 112.531,76.504 115.751,76.504 C119.419,76.504 120.54,73.452 120.54,70.26 C120.54,67.404 119.279,64.688 116.003,64.688 Z M120.595,75.552 L120.54,75.44 C119.392,77.12 117.684,78.044 115.724,78.044 C111.551,78.044 109.956,74.068 109.956,70.54 C109.956,66.9 111.551,63.148 115.724,63.148 C117.6,63.148 119.56,64.044 120.54,65.696 L120.595,65.64 L120.595,57.408 L122.275,57.408 L122.275,74.46 C122.275,75.552 122.359,76.672 122.416,77.624 L120.679,77.624 L120.595,75.552 L120.595,75.552 Z" id="Fill-22" fill="#FFFFFE"></path>
            <path d="M126.503,77.624 L128.183,77.624 L128.183,63.568 L126.503,63.568 L126.503,77.624 Z M126.363,59.508 L128.323,59.508 L128.323,57.408 L126.363,57.408 L126.363,59.508 Z" id="Fill-23" fill="#FFFFFE"></path>
            <polyline id="Fill-24" fill="#FFFFFE" points="132.691 63.568 137.535 75.3 142.21 63.568 144.059 63.568 138.487 77.624 136.583 77.624 130.843 63.568 132.691 63.568"></polyline>
            <path d="M146.719,77.624 L148.398,77.624 L148.398,63.568 L146.719,63.568 L146.719,77.624 Z M146.579,59.508 L148.539,59.508 L148.539,57.408 L146.579,57.408 L146.579,59.508 Z" id="Fill-25" fill="#FFFFFE"></path>
            <path d="M158.002,64.688 C154.811,64.688 153.774,67.656 153.774,70.344 C153.774,72.948 154.53,76.504 157.75,76.504 C161.418,76.504 162.539,73.452 162.539,70.26 C162.539,67.404 161.278,64.688 158.002,64.688 Z M162.594,75.552 L162.539,75.44 C161.391,77.12 159.683,78.044 157.723,78.044 C153.55,78.044 151.955,74.068 151.955,70.54 C151.955,66.9 153.55,63.148 157.723,63.148 C159.599,63.148 161.559,64.044 162.539,65.696 L162.594,65.64 L162.594,57.408 L164.274,57.408 L164.274,74.46 C164.274,75.552 164.358,76.672 164.415,77.624 L162.678,77.624 L162.594,75.552 L162.594,75.552 Z" id="Fill-26" fill="#FFFFFE"></path>
            <path d="M177.882,63.568 L179.563,63.568 L179.563,74.46 C179.563,75.552 179.646,76.672 179.702,77.624 L177.966,77.624 L177.882,75.552 L177.826,75.496 C176.846,77.232 175.25,78.044 173.43,78.044 C168.838,78.044 168.474,73.984 168.474,72.36 L168.474,63.568 L170.154,63.568 L170.154,72.64 C170.154,75.076 171.554,76.504 173.85,76.504 C176.623,76.504 177.882,74.18 177.882,71.66 L177.882,63.568" id="Fill-27" fill="#FFFFFE"></path>
            <path d="M187.794,76.504 C191.462,76.504 192.162,73.48 191.994,70.54 C189.614,70.624 184.63,70.176 184.63,73.704 C184.63,75.608 186.086,76.504 187.794,76.504 Z M191.994,67.712 C191.826,65.416 190.65,64.688 188.662,64.688 C186.898,64.688 185.442,65.22 185.218,67.124 L183.426,67.124 C183.846,64.24 186.002,63.148 188.69,63.148 C191.798,63.148 193.73,64.576 193.674,67.796 L193.674,74.46 C193.646,75.552 193.758,76.672 193.814,77.624 L192.078,77.624 L192.022,75.552 L191.966,75.552 L191.882,75.748 C191.266,76.924 189.39,78.044 187.486,78.044 C184.882,78.044 182.81,76.448 182.81,73.704 C182.81,71.8 183.958,70.344 185.638,69.645 C187.514,68.832 189.95,69.112 191.994,69 L191.994,67.712 L191.994,67.712 Z" id="Fill-28" fill="#FFFFFE"></path>
            <polygon id="Fill-29" fill="#FFFFFE" points="198.07 77.624 199.75 77.624 199.75 57.408 198.07 57.408"></polygon>
            <path d="M214.282,69.448 C214.086,66.732 212.63,64.688 209.718,64.688 C206.974,64.688 205.518,66.984 205.294,69.448 L214.282,69.448 Z M205.238,70.988 C205.294,73.984 206.666,76.504 210.11,76.504 C212.098,76.504 213.75,75.076 214.17,73.143 L215.934,73.143 C215.066,76.504 212.966,78.044 209.578,78.044 C205.378,78.044 203.418,74.432 203.418,70.596 C203.418,66.788 205.518,63.148 209.69,63.148 C214.394,63.148 216.102,66.592 216.102,70.988 L205.238,70.988 L205.238,70.988 Z" id="Fill-30" fill="#FFFFFE"></path>
            <path d="M224.502,63.148 C227.162,63.148 229.402,64.072 229.626,67.04 L227.806,67.04 C227.638,65.276 226.07,64.688 224.334,64.688 C222.766,64.688 221.17,65.304 221.17,66.956 C221.17,69.028 223.886,68.832 227.694,70.176 C229.15,70.68 230.074,71.94 230.074,73.452 C230.074,76.616 227.134,78.044 224.166,78.044 C221.73,78.044 218.93,76.896 218.874,73.788 L220.694,73.788 C220.834,75.888 222.682,76.504 224.586,76.504 C226.378,76.504 228.254,75.664 228.254,73.704 C228.254,71.689 226.042,71.353 223.802,70.848 C221.59,70.316 219.35,69.672 219.35,67.068 C219.35,64.156 222.038,63.148 224.502,63.148" id="Fill-31" fill="#FFFFFE"></path>
        </g>
    </g>
</svg>