<?xml version="1.0" encoding="UTF-8"?>
<svg width="230px" height="27px" viewBox="0 0 230 27" version="1.1" xmlns="http://www.w3.org/2000/svg" xmlns:xlink="http://www.w3.org/1999/xlink">
    <!-- Generator: Sketch 54.1 (76490) - https://sketchapp.com -->
    <title>Blue Cross NC / Digital Products / Blue Connect Inverse (Full)</title>
    <desc>Created with Sketch.</desc>
    <defs>
        <polygon id="path-1" points="0.464982412 25.0456293 21.1306394 25.0456293 21.1306394 0.0886372054 0.464982412 0.0886372054"></polygon>
    </defs>
    <g id="Blue-Cross-NC-/-Digital-Products-/-Blue-Connect-Inverse-(Full)" stroke="none" stroke-width="1" fill="none" fill-rule="evenodd">
        <g id="Blue-Connect-(Full)">
            <g id="Group">
                <polygon id="Fill-1" fill="#00AEEF" points="7.0193844 0.37299823 7.0193844 7.16094872 6.89655679e-05 7.16094872 6.89655679e-05 18.0137725 7.0193844 18.0137725 7.0193844 24.801723 18.2021511 24.801723 18.2021511 18.0137725 25.2207769 18.0137725 25.2207769 7.16094872 18.2021511 7.16094872 18.2021511 0.37299823"></polygon>
                <path d="M6.14034928,10.2431313 L10.7920768,10.6788513 C11.6658705,10.7952281 11.7665602,11.6140216 11.5355256,12.1051591 L8.34724743,17.8914384 L8.35345433,17.8831258 C6.73552212,16.656321 5.69690068,14.7471882 5.69690068,12.6059947 C5.69690068,11.7747323 5.85483183,10.9767204 6.14172859,10.2431313 L6.14034928,10.2431313 Z" id="Fill-2" fill="#FFFFFF"></path>
                <path d="M6.83000495,11.2328185 L10.3527661,11.5473128 C10.6065594,11.5653235 10.6265594,11.6713094 10.5679387,11.8133167 L8.1003507,16.3665567 C7.20241901,15.3579583 6.66034965,14.0438709 6.66034965,12.6057869 C6.66034965,12.1333528 6.71966004,11.6740803 6.83000495,11.2328185" id="Fill-4" fill="#00AEEF"></path>
                <path d="M19.1205656,10.2431313 L14.4681484,10.6788513 C13.5943547,10.7952281 13.4936649,11.6140216 13.7260789,12.1051591 L16.9129778,17.8914384 L16.9081502,17.8831258 C18.5247031,16.656321 19.5633245,14.7471882 19.5633245,12.6059947 C19.5633245,11.7747323 19.406083,10.9767204 19.1191863,10.2431313 L19.1205656,10.2431313 Z" id="Fill-6" fill="#FFFFFF"></path>
                <path d="M12.6307678,5.90214031 C9.84938645,5.90214031 7.45076402,7.48500252 6.34731494,9.76958878 L11.2811116,9.76958878 C11.9852501,9.75573441 12.2955951,9.35811388 12.3086986,9.03253609 C12.3273193,8.64807721 12.2645606,8.52615872 11.9355949,8.11606926 C11.5776636,7.65541132 11.8252499,6.77080955 12.6307678,6.75556974 C13.4349063,6.77080955 13.6831823,7.65541132 13.3238717,8.11606926 C12.9962853,8.52615872 12.9342163,8.64807721 12.9514577,9.03253609 C12.9659404,9.35811388 13.2742165,9.75573441 13.978355,9.76958878 L18.9128413,9.76958878 C17.8087026,7.48500252 15.4114594,5.90214031 12.6307678,5.90214031" id="Fill-8" fill="#FFFFFF"></path>
                <path d="M18.4302202,11.2328185 L14.9081487,11.5473128 C14.6529761,11.5653235 14.6343554,11.6713094 14.6922865,11.8133167 L17.1598745,16.3665567 C18.0578062,15.3579583 18.5998755,14.0438709 18.5998755,12.6057869 C18.5998755,12.1333528 18.5405652,11.6740803 18.4302202,11.2328185" id="Fill-10" fill="#00AEEF"></path>
                <path d="M14.2889069,7.05891126 C14.6420106,7.62624787 14.3571828,8.36399328 14.0226998,8.71381622 C13.9613205,8.77408274 13.992355,8.83712014 14.0468378,8.85305267 L17.1682193,8.85305267 C16.4199429,8.00862859 15.4240801,7.37617642 14.2889069,7.05891126" id="Fill-12" fill="#00AEEF"></path>
                <path d="M12.6307678,19.3120659 C14.038355,19.3120659 15.3487008,18.90544 16.441805,18.2078723 L16.4424947,18.2127213 L13.0631819,13.3255909 C12.8259403,13.0131748 12.4473194,12.9875442 12.197664,13.3255909 L8.81835122,18.2127213 L8.81835122,18.2078723 C9.91214511,18.90544 11.2224909,19.3120659 12.6307678,19.3120659" id="Fill-14" fill="#FFFFFF"></path>
                <g id="Group-18" transform="translate(28.275883, 0.019604)">
                    <mask id="mask-2" fill="white">
                        <use xlink:href="#path-1"></use>
                    </mask>
                    <g id="Clip-17"></g>
                    <path d="M10.7982147,25.0459063 C15.6451148,22.453753 18.5844273,18.3320767 20.0975318,13.8044674 C21.6685674,9.10575645 21.4078776,3.55153796 19.5871866,0.0886372054 C16.8195984,1.43805322 14.0347688,2.11276123 10.7982147,2.12176657 C7.56235031,2.13354279 4.77614139,1.43805322 2.00786352,0.0886372054 C0.188551861,3.55153796 -0.0735172946,9.10575645 1.49820798,13.8044674 C3.01200218,18.3320767 5.950625,22.453753 10.7982147,25.0459063" id="Fill-16" fill="#00AEEF" mask="url(#mask-2)"></path>
                </g>
                <path d="M39.068718,22.9677503 C43.0590657,20.5778708 45.1845845,17.1516841 46.5466544,13.2856211 C47.7549311,9.85319993 48.0494141,5.83820237 46.7211373,2.70365028 C44.7266531,3.36519663 43.559066,3.56954865 42.473548,3.73303026 C41.4632025,3.88681381 40.5576846,3.97755996 39.0790628,3.9976488 L39.068718,3.9976488 C37.5873376,3.97755996 36.685268,3.88681381 35.6735431,3.73303026 C34.5887147,3.56954865 33.420438,3.36519663 31.4266435,2.70365028 C30.0983666,5.83820237 30.3928496,9.85319993 31.601816,13.2856211 C32.9631963,17.1516841 35.0894047,20.5778708 39.0790628,22.9677503 L39.068718,22.9677503 Z" id="Fill-19" fill="#FFFFFF"></path>
                <path d="M39.0714076,22.0179637 C41.7693406,20.3769131 44.8293428,16.6514719 46.052792,11.7497944 C46.7010683,9.14863574 46.8817581,6.22813372 46.0369299,3.9075261 C44.8293428,4.22202039 43.7003765,4.4783263 42.5341687,4.63141713 C41.3672713,4.78381525 40.2141671,4.89257208 39.0789938,4.90019199 L39.068649,4.90019199 C37.9334758,4.89257208 36.7810611,4.78381525 35.6134741,4.63141713 C34.4472663,4.4783263 33.3196793,4.22202039 32.1114026,3.9075261 C31.2665744,6.22813372 31.4465745,9.14863574 32.0955405,11.7497944 C33.3176103,16.6514719 36.3789919,20.3769131 39.0776145,22.0179637 L39.0714076,22.0179637 Z" id="Fill-21" fill="#00AEEF"></path>
                <path d="M36.3181642,6.64147897 C35.4057498,7.10005875 35.0912668,8.17792904 35.499543,9.05006187 C35.8547156,9.80027622 36.5560954,10.30319 37.3712685,10.5394071 C37.778855,10.6537056 38.193338,10.684878 38.6160969,10.7049668 C39.132649,10.7285193 39.6009252,10.7437591 40.0974773,10.8656776 C40.2029946,10.8913082 40.3195464,10.9529601 40.3740292,11.0520189 C40.5078224,11.2910068 40.3871327,11.5570108 40.1250636,11.6318244 C40.1195463,12.0509193 40.0809256,12.8953433 40.0809256,12.8953433 C40.0809256,12.8953433 42.1967892,12.6999967 41.8402372,10.8594431 C41.7533406,10.4174886 41.39403,9.96860686 40.9850642,9.76356213 C39.9243737,9.23432504 38.758166,9.46638581 37.670579,9.12349005 C37.3043719,9.00849875 36.7947163,8.8325482 36.6947162,8.43631311 C36.6547162,8.27629509 36.691268,7.95695177 36.8609233,7.90569059 C37.1354062,7.82325706 37.4388547,8.04423433 37.836786,8.13290232 C38.0885104,8.18831982 38.3381657,8.18831982 38.5354072,8.12943873 C38.6229935,8.10588629 38.7505798,8.07194307 38.7629936,8.02206733 C38.7505798,7.98050421 38.654028,7.94032652 38.6029935,7.91677409 C38.4795451,7.85512212 38.3526485,7.82672066 38.2202346,7.77823035 C38.0002344,7.69579682 37.7809239,7.59535261 37.5602341,7.47551228 C37.7691998,7.43533459 38.1174759,7.42494381 38.3250622,7.44849625 C38.4926486,7.46650694 39.0057524,7.4616579 39.1581663,7.42217294 C39.1919594,7.4131676 39.2678215,7.38615157 39.2347181,7.33004135 C39.1754077,7.23375345 39.0760973,7.19634664 39.0057524,7.10837137 C38.8560971,6.9095611 38.7271315,6.70728725 38.4864417,6.61723382 C37.7885101,6.35884974 37.0126475,6.29234875 36.3181642,6.64147897" id="Fill-23" fill="#FFFFFF"></path>
                <path d="M39.8506496,13.2108074 L39.8630634,11.0633795 C39.8630634,11.0633795 39.5775459,11.0058838 39.1782353,10.9795605 C38.6589246,10.9476955 38.4230623,10.9560081 38.4230623,10.9560081 L38.421683,11.1354222 C38.421683,11.1354222 38.1699587,11.2386373 38.1327173,11.3030602 C38.1154759,11.3328471 38.0499586,11.4145879 38.0809931,11.4935578 C38.2851312,12.0269512 38.56789,12.5409485 38.649959,13.1075924 C39.0361662,13.1623171 39.3789251,13.1484628 39.8506496,13.2108074" id="Fill-25" fill="#FFFFFF"></path>
                <path d="M37.1936821,12.8874464 C37.1005786,13.7297923 37.6702342,14.1814449 38.2985105,14.3262231 C38.7964419,14.4405217 39.2792009,14.4640741 39.7971323,14.5243406 C39.8626496,14.5326533 40.0012704,14.5347314 40.106098,14.57768 C40.1985119,14.6164722 40.2440292,14.6698116 40.2619602,14.7252291 C40.2854085,14.804199 40.2757533,14.8651582 40.2233395,14.9288883 C40.1667877,14.9946966 40.0178221,15.0327962 40.0178221,15.0327962 L39.9881669,16.0455509 C39.9881669,16.0455509 40.4102362,16.0303111 40.7523054,15.8301154 C41.0750642,15.6423886 41.2771334,15.4027079 41.3488575,15.1013753 C41.4323059,14.7515524 41.3743748,14.4107348 41.1185125,14.0692244 C40.9502366,13.846169 40.6550639,13.6840729 40.3550637,13.5822432 C39.7378219,13.3744276 39.0681662,13.4042145 38.4274761,13.3176247 C38.3288554,13.3023849 38.2405794,13.2303421 38.2316139,13.1451377 C38.2150622,12.989276 38.3660968,12.9144624 38.3660968,12.9144624 C38.3660968,12.9144624 38.2902346,12.6747817 38.2088553,12.4399501 C38.1364414,12.2619214 38.035062,12.0125426 37.9598896,11.8823115 C37.5254065,12.0624184 37.2426477,12.452419 37.1936821,12.8874464" id="Fill-27" fill="#FFFFFF"></path>
                <path d="M39.7974081,14.7606962 L39.7808564,16.5797755 L39.3091319,16.3698818 L38.844304,16.1835404 L38.8346488,14.6651011 C39.2525802,14.7142841 39.4422355,14.7184404 39.7974081,14.7606962" id="Fill-29" fill="#FFFFFF"></path>
                <path d="M37.6920963,15.762506 C37.4355444,16.3520096 37.7576136,16.9276589 38.2700277,17.1714958 C38.5376141,17.2989561 38.8886489,17.4132547 39.1783042,17.5213188 C39.4596838,17.626612 39.9596841,17.9244811 39.9976152,18.0706447 C40.0210635,18.1579273 39.9141668,18.2431317 39.9141668,18.2431317 L39.9024427,18.9524756 C39.9024427,18.9524756 40.2086498,18.8908236 40.4355465,18.7114095 C40.6472708,18.5410007 40.803133,18.3193307 40.8017537,17.963966 C40.7989951,17.5781217 40.6114087,17.2754037 40.0410635,16.9512113 C39.5969252,16.6969835 39.0589938,16.4974806 38.6410625,16.3187591 C38.5810624,16.2931285 38.5265796,16.1774445 38.5493383,16.1074799 C38.5727866,16.0319736 38.6231314,16.0042648 38.6231314,16.0042648 L38.6114073,15.1833932 C38.6114073,15.1833932 38.2900277,15.2457379 38.1383035,15.3323277 C37.9983034,15.4112976 37.7872688,15.5449924 37.6920963,15.762506" id="Fill-31" fill="#FFFFFF"></path>
                <path d="M39.7199598,18.1796094 C39.7261667,18.1207283 39.7040977,18.1138011 39.6758218,18.0729307 C39.5509942,17.9468559 39.3682354,17.8595733 39.3261664,17.8346355 C39.1944422,17.7591291 38.9040971,17.655914 38.9040971,17.655914 C38.9040971,17.655914 38.9247868,19.5165564 38.9592696,20.47805 C38.9668558,20.6976418 39.0944421,20.753752 39.308925,20.7641428 C39.5758218,20.7786899 39.6530632,20.6179792 39.6558218,20.5244621 C39.667546,20.216895 39.7061667,18.8806407 39.7199598,18.1796094" id="Fill-33" fill="#FFFFFF"></path>
                <path d="M39.9240289,6.20991522 C40.0198911,6.27918709 40.0198911,6.2833434 40.0495463,6.41911627 C40.1129946,6.71559987 40.0454083,7.18110683 40.106098,7.38684429 C40.1385118,7.45334528 40.2074774,7.45057441 40.2585119,7.42355838 C40.6847191,7.20119568 40.9736849,6.81742952 41.4054093,6.64009353 C41.6074784,6.55627457 42.1688581,6.82989846 42.0385132,7.23721705 C41.9778235,7.42910013 41.8881683,7.45888703 41.7654096,7.58080552 C41.5136852,7.83503328 41.1585126,8.07194307 40.8495468,8.40029174 C40.6392019,8.62265444 40.3860982,8.78405789 40.2240291,9.03343662 C40.172305,9.11309927 40.0867877,9.22254883 40.0867877,9.22254883 C39.4888562,9.10409393 38.8867868,9.12556821 38.4205796,9.03205119 L38.4192002,8.36149949 C38.4192002,8.36149949 38.8950627,8.283915 38.9847179,8.05739598 C38.9909248,8.04007801 38.9778213,7.9618008 38.9081661,7.91261777 C38.8281661,7.85304397 38.6867866,7.79347016 38.6454073,7.77892307 C39.1212697,7.85027309 39.4185113,7.92716487 39.879891,8.12320426 C39.9095462,8.07402123 39.8929944,7.9652644 39.857822,7.92716487 C39.7943737,7.85650756 39.7612702,7.83364784 39.5971321,7.79693375 C39.3157526,7.72558373 38.5502348,7.63483758 38.5502348,7.63483758 C38.5502348,7.63483758 38.9040282,7.63275942 39.2005801,7.58426911 C39.3447182,7.56210212 39.4633389,7.53854968 39.4957527,7.48936665 C39.5302355,7.41801663 39.4674769,7.30995251 39.3660975,7.20535199 C39.2985112,7.13608012 39.2219594,7.06334466 39.1660973,6.99199463 C39.0971318,6.89917032 38.9819593,6.73014696 38.8564419,6.62208285 C38.7495453,6.52856582 38.4785106,6.3941784 38.4785106,6.3941784 C38.4785106,6.3941784 38.431614,6.03465739 38.5067865,5.89057191 C38.5626486,5.78320051 38.7074763,5.72154854 38.7833384,5.7568772 C39.126787,5.94183309 39.4647182,6.13371617 39.9240289,6.20991522" id="Fill-35" fill="#FFFFFF"></path>
                <path d="M38.4147864,6.90332664 C38.3265105,6.96290044 38.2644415,7.02385969 38.1665104,7.03979222 C37.9713379,7.07027184 37.9982344,6.90609751 37.8637516,6.81258049 C37.7809929,6.75854843 37.7030618,6.83128389 37.628579,6.69689647 C37.9127171,6.70590181 38.2858208,6.68096394 38.5003038,6.88947226 C38.4734072,6.87769605 38.4272003,6.89432129 38.4147864,6.90332664" id="Fill-37" fill="#00AEEF"></path>
                <path d="M12.5318022,14.4318627 C12.5869746,14.3605127 12.6642161,14.3570491 12.7276644,14.4318627 L15.0600799,17.8822945 C14.3187,18.2023305 13.4945615,18.3803592 12.6311126,18.3803592 C11.7655947,18.3803592 10.9421459,18.2023305 10.200766,17.8822945 L12.5318022,14.4318627 C12.5973195,14.3570491 12.6731816,14.3605127 12.7276644,14.4318627" id="Fill-39" fill="#00AEEF"></path>
                <path d="M38.439683,18.8676176 C38.3245105,18.9839943 38.1314069,19.2222895 38.0976138,19.6018994 C38.0665793,19.9399461 38.1479587,20.0355413 38.2355449,20.2177263 C38.3086484,20.368739 38.4783037,20.3597336 38.5376141,20.2198045 C38.5865797,20.1055059 38.5162348,20.0002126 38.5610624,19.7536048 C38.5934762,19.5700343 38.7424419,19.4682047 38.7424419,19.4682047 L38.7272694,18.6417913 C38.7272694,18.6417913 38.5955452,18.7110631 38.439683,18.8676176" id="Fill-41" fill="#FFFFFF"></path>
                <path d="M10.9720079,7.05891126 C10.6195939,7.62624787 10.9051113,8.36399328 11.2375254,8.71381622 C11.2989047,8.77408274 11.2671806,8.83712014 11.2133874,8.85305267 L8.09338517,8.85305267 C8.83959261,8.00862859 9.83683471,7.37617642 10.9720079,7.05891126" id="Fill-43" fill="#00AEEF"></path>
                <path d="M44.4182391,23.1916369 L44.4182391,23.6287424 L44.6375496,23.6287424 C44.8727222,23.6287424 44.9837567,23.5733249 44.9837567,23.4160778 C44.9837567,23.2567525 44.8727222,23.1916369 44.632722,23.1916369 L44.4182391,23.1916369 Z M45.2499638,23.3911399 C45.2499638,23.5802521 45.1347913,23.7104832 44.9368601,23.7506609 L45.2430673,24.3547116 L44.9534119,24.3547116 L44.674791,23.787375 L44.4182391,23.787375 L44.4182391,24.3547116 L44.1596182,24.3547116 L44.1596182,23.0274626 L44.6775496,23.0274626 C45.0616878,23.0274626 45.2499638,23.1507665 45.2499638,23.3911399 L45.2499638,23.3911399 Z M45.3975501,22.9976757 C45.1961707,22.7988654 44.9368601,22.6956504 44.6465151,22.6956504 C44.3644459,22.6956504 44.1072044,22.7967873 43.9147904,22.9852068 C43.7085834,23.1881733 43.5947902,23.4458647 43.5947902,23.7139468 C43.5947902,23.9813362 43.7065144,24.230715 43.9044456,24.4267544 C44.1016871,24.6207156 44.3678942,24.728087 44.6375496,24.728087 C44.9223774,24.728087 45.1823776,24.6234865 45.3913432,24.4295252 C45.5899641,24.2452621 45.6968607,23.9944979 45.6968607,23.7236449 C45.6968607,23.4389375 45.592033,23.1881733 45.3975501,22.9976757 L45.3975501,22.9976757 Z M45.507895,22.8903043 C45.7313435,23.1092034 45.8589298,23.4022234 45.8589298,23.7139468 C45.8589298,24.0353683 45.7334124,24.324232 45.5051364,24.5355112 C45.2651362,24.7620302 44.9596188,24.8846414 44.6437565,24.8846414 C44.320308,24.8846414 44.0209974,24.7620302 43.7899628,24.533433 C43.5603074,24.3110703 43.4361694,24.0235921 43.4361694,23.7139468 C43.4361694,23.405687 43.5685833,23.1064325 43.8023766,22.8750645 C44.0251353,22.6561654 44.318239,22.5432522 44.6437565,22.5432522 C44.9734119,22.5432522 45.2768604,22.6623999 45.507895,22.8903043 L45.507895,22.8903043 Z" id="Fill-45" fill="#00AEEF"></path>
                <path d="M20.1085663,23.1916369 L20.1085663,23.6287424 L20.3264975,23.6287424 C20.5623597,23.6287424 20.6713253,23.5733249 20.6713253,23.4160778 C20.6713253,23.2567525 20.5623597,23.1916369 20.3196009,23.1916369 L20.1085663,23.1916369 Z M20.9389117,23.3911399 C20.9389117,23.5802521 20.8237392,23.7104832 20.625808,23.7506609 L20.9320152,24.3547116 L20.6423598,24.3547116 L20.3630492,23.787375 L20.1085663,23.787375 L20.1085663,24.3547116 L19.8485661,24.3547116 L19.8485661,23.0274626 L20.3664975,23.0274626 C20.7506357,23.0274626 20.9389117,23.1507665 20.9389117,23.3911399 L20.9389117,23.3911399 Z M21.0858084,22.9976757 C20.8844289,22.7988654 20.625808,22.6956504 20.3368423,22.6956504 C20.0533938,22.6956504 19.7961523,22.7967873 19.602359,22.9852068 C19.3982209,23.1881733 19.2837381,23.4458647 19.2837381,23.7139468 C19.2837381,23.9813362 19.3947727,24.230715 19.5927038,24.4267544 C19.7920143,24.6207156 20.0575318,24.728087 20.3264975,24.728087 C20.6127046,24.728087 20.8713255,24.6234865 21.0802911,24.4295252 C21.2775327,24.2452621 21.3871879,23.9944979 21.3871879,23.7236449 C21.3871879,23.4389375 21.2816706,23.1881733 21.0858084,22.9976757 L21.0858084,22.9976757 Z M21.1982223,22.8903043 C21.4196017,23.1092034 21.5478777,23.4022234 21.5478777,23.7139468 C21.5478777,24.0353683 21.42305,24.324232 21.1940843,24.5355112 C20.9561531,24.7620302 20.6492563,24.8846414 20.333394,24.8846414 C20.0099455,24.8846414 19.710635,24.7620302 19.4796003,24.533433 C19.2492553,24.3110703 19.1251173,24.0235921 19.1251173,23.7139468 C19.1251173,23.405687 19.2568415,23.1064325 19.4906348,22.8750645 C19.7140832,22.6561654 20.0078766,22.5432522 20.333394,22.5432522 C20.6637391,22.5432522 20.9658083,22.6623999 21.1982223,22.8903043 L21.1982223,22.8903043 Z" id="Fill-47" fill="#00AEEF"></path>
                <polygon id="Fill-49" fill="#58585C" points="67.2024625 20.1840602 59.5190086 9.3243092 59.5190086 20.1840602 56.6107307 20.1840602 56.6107307 4.40947006 59.5665949 4.40947006 66.8955657 14.7434476 66.8955657 4.40947006 69.803154 4.40947006 69.803154 20.1840602"></polygon>
                <path d="M72.0246729,12.3205946 C72.0246729,7.42722979 75.1219165,4.13404511 79.733644,4.13404511 C81.6239902,4.13404511 83.0888188,4.56837973 84.2943369,5.27772368 L83.8460607,8.13518829 C82.7812324,7.35865063 81.4570935,6.74005284 79.8750234,6.74005284 C76.989504,6.74005284 75.2163993,8.86600651 75.2163993,12.2970422 C75.2163993,15.7710265 77.1074352,17.8290937 79.9929545,17.8290937 C81.5053694,17.8290937 82.8757152,17.3053984 84.1301989,16.5039228 L84.5543371,19.1099306 C83.2543362,19.9114061 81.5998522,20.4586539 79.7557129,20.4586539 C75.0039854,20.4586539 72.0246729,17.2132668 72.0246729,12.3205946 Z" id="Fill-51" fill="#58585C"></path>
            </g>
            <g id="Group-2" transform="translate(97.227273, 3.181818)">
                <path d="M6.18881028,8.6423123 L6.18881028,14.8728736 L6.23673529,16.7248016 L7.98703999,16.7248016 C8.79273581,16.7248016 9.6449675,16.631534 10.3819013,15.88186 C11.3501255,14.8983103 11.3258157,13.2096006 11.3258157,12.6238515 C11.3258157,10.8192639 10.9340808,9.8597377 10.2207622,9.29801211 C9.69080882,8.8733617 8.77050972,8.6423123 7.36401486,8.6423123 L6.18881028,8.6423123 Z M6.23673529,1.56315673 L6.21381463,3.18120906 L6.18881028,7.96117587 L7.70990841,7.96117587 C8.72327927,7.96117587 9.52828052,7.63191282 9.85125342,7.21079527 C10.2436828,6.74304389 10.4520525,5.97005296 10.4520525,4.75050784 C10.4520525,2.10297855 9.6449675,1.56315673 7.87174214,1.56315673 L6.23673529,1.56315673 Z M0.338486257,0.861529672 L9.46090768,0.861529672 C10.3819013,0.861529672 11.3966613,0.908870067 12.3398811,1.3540111 C14.0915749,2.19836592 14.1367217,3.9775169 14.1367217,4.35341378 C14.1367217,5.29032967 13.8137488,6.15658825 13.146966,6.83489839 C12.0627495,7.98519935 10.6347231,8.14841773 9.59843162,8.267122 C10.7271003,8.31304925 12.5232464,8.40561033 13.9526619,9.8597377 C14.5048413,10.4221699 15.1730132,11.3583792 15.1730132,12.8831639 C15.1730132,13.9592746 14.8271196,15.0862587 13.9526619,15.9730079 C12.6385442,17.3112573 10.9806167,17.4045249 9.55259031,17.4045249 L0.338486257,17.4045249 L0.338486257,16.7954589 L2.57359758,16.7954589 L2.6194389,14.4757796 L2.6194389,3.41649789 L2.57359758,1.47059566 L0.338486257,1.47059566 L0.338486257,0.861529672 Z" id="Fill-55" fill="#20B4EF"></path>
                <path d="M18.0520561,0.861741643 C19.1348835,0.861741643 19.4564672,0.838424732 20.4698381,0.767767425 L20.4233022,3.36936946 L20.4233022,14.920426 L20.4698381,16.7956709 L22.0596982,16.7956709 L22.0596982,17.4047369 L15.3349164,17.4047369 L15.3349164,16.7956709 L17.0616059,16.7956709 L17.1074472,14.920426 L17.1074472,3.36936946 L17.0616059,1.47010106 L15.3349164,1.47010106 L15.3349164,0.861741643 L18.0520561,0.861741643 Z" id="Fill-57" fill="#20B4EF"></path>
                <path d="M23.9253007,6.06374455 C25.123426,6.06374455 25.4908511,6.04113421 26.6195198,5.96977033 L26.5736785,8.1481351 L26.5736785,13.3972664 C26.5736785,14.2882551 26.6195198,14.9679784 26.8042742,15.4350232 C27.1029373,16.1635 27.7252678,16.4899367 28.4851223,16.4899367 C29.1532942,16.4899367 29.730478,16.2327442 30.1666651,15.81092 C31.0647381,14.8987342 31.042512,13.6784825 31.042512,12.6468858 L31.042512,8.47739815 L30.9966707,6.67139739 L29.2915127,6.67139739 L29.2915127,6.06374455 L31.2731077,6.06374455 C32.6087569,6.06374455 32.9991026,6.04113421 34.3354463,5.96977033 L34.2902996,8.1481351 L34.2902996,14.6394219 L34.3354463,16.7718594 L35.9961521,16.7718594 L35.9961521,17.4049489 L34.2444583,17.4049489 C32.769896,17.4049489 32.2399427,17.4268526 31.1348892,17.4989231 L31.0647381,15.6929223 C30.5827097,16.3034015 29.4526519,17.662848 26.8501155,17.662848 C25.1463466,17.662848 24.0635193,17.0064417 23.6245539,16.1161596 C23.2800495,15.4590466 23.3036647,14.616105 23.3036647,13.9123582 L23.3036647,8.38271736 L23.2564343,6.67139739 L21.574197,6.67139739 L21.574197,6.06374455 L23.9253007,6.06374455 Z" id="Fill-59" fill="#20B4EF"></path>
                <path d="M43.8493248,10.3756774 C43.8715509,8.54706625 43.8944716,6.39272497 41.8204994,6.39272497 C39.8632142,6.39272497 39.7722262,8.3831413 39.7013805,10.3756774 L43.8493248,10.3756774 Z M47.2124103,14.1240475 C46.6123058,15.2715221 45.3690338,17.6625654 41.8913451,17.6625654 C38.3205846,17.6625654 36.1327037,14.8730149 36.1327037,11.6178328 C36.1327037,8.49972586 38.2052867,5.73561201 41.9149603,5.73561201 C44.2167499,5.73561201 45.4843317,6.74247864 46.0358166,7.32893428 C47.3033983,8.66506396 47.3499342,10.0697312 47.3728549,11.0773044 L39.679849,11.0773044 C39.7013805,13.0698405 39.7486109,14.8730149 40.7161405,15.9046116 C41.2453993,16.4663372 42.0073375,16.701626 42.7651083,16.701626 C45.253736,16.701626 46.1969557,14.5698951 46.5213177,13.8202211 L47.2124103,14.1240475 Z" id="Fill-61" fill="#20B4EF"></path>
                <path d="M65.2383956,14.7254825 C64.9619586,15.1473066 64.6195379,15.5451072 64.2125226,15.9202975 C63.8055073,16.2954878 63.3415376,16.6198049 62.819919,16.8925421 C62.2976059,17.1659859 61.7329242,17.3807841 61.1265687,17.5369367 C60.5202131,17.6923828 59.8791293,17.771519 59.2040117,17.771519 C57.9899115,17.771519 56.8654102,17.5524813 55.8291187,17.1158192 C54.7928272,16.6784504 53.8940596,16.0722107 53.1342051,15.2992198 C52.3743506,14.5262289 51.7784135,13.609097 51.3491721,12.5464111 C50.9192361,11.4837252 50.7039209,10.320706 50.7039209,9.0552336 C50.7039209,7.78976124 50.9192361,6.62603539 51.3491721,5.5633495 C51.7784135,4.50137018 52.3743506,3.58282519 53.1342051,2.81054082 C53.8940596,2.03754989 54.7928272,1.43201677 55.8291187,0.993941465 C56.8654102,0.556572735 57.9899115,0.33894823 59.2040117,0.33894823 C60.2173826,0.33894823 61.2300589,0.541734701 62.2434298,0.947307642 C63.2568006,1.35358716 64.1243128,2.02483157 64.8466607,2.96245403 L63.3957137,4.06329487 C63.2269343,3.79832997 62.995644,3.53336507 62.7046212,3.26698703 C62.4129037,3.00202213 62.0788178,2.76743987 61.7023633,2.5646534 C61.3259089,2.36186693 60.923061,2.19794197 60.4931251,2.07217197 C60.0631891,1.94781511 59.6332531,1.88422353 59.2040117,1.88422353 C58.1593854,1.88422353 57.2224168,2.08065084 56.3938003,2.47067918 C55.5637947,2.86141408 54.8615891,3.38427816 54.2850999,4.03997796 C53.7099998,4.69709092 53.2689508,5.45807011 52.9612583,6.32503527 C52.6542604,7.19200042 52.5007615,8.10206653 52.5007615,9.0552336 C52.5007615,10.0076941 52.6542604,10.9177602 52.9612583,11.7847254 C53.2689508,12.650984 53.7099998,13.4133763 54.2850999,14.0690761 C54.8615891,14.7254825 55.5637947,15.2483466 56.3938003,15.6390815 C57.2224168,16.0298164 58.1593854,16.2248305 59.2040117,16.2248305 C59.6332531,16.2248305 60.0590217,16.185969 60.4813174,16.1075394 C60.9043077,16.0298164 61.3182687,15.8969806 61.725284,15.7097388 C62.1322993,15.5217903 62.5163939,15.2681306 62.8775679,14.9473464 C63.2380474,14.6272688 63.5721333,14.2259353 63.8791312,13.7412262 L65.2383956,14.7254825 Z" id="Fill-63" fill="#58585C"></path>
                <path d="M75.787107,11.8667585 C75.787107,11.2576925 75.691257,10.6874881 75.4995569,10.1561451 C75.3071623,9.62480216 75.0348927,9.16411651 74.6813589,8.77338161 C74.3278252,8.3826467 73.9020566,8.07528742 73.4033587,7.84847746 C72.9046607,7.62166751 72.3399791,7.50790924 71.7107029,7.50790924 C71.0807321,7.50790924 70.5160505,7.62166751 70.0173525,7.84847746 C69.5186546,8.07528742 69.0956643,8.3826467 68.7504653,8.77338161 C68.4052663,9.16411651 68.135775,9.62480216 67.9440749,10.1561451 C67.7523749,10.6874881 67.6565249,11.2576925 67.6565249,11.8667585 C67.6565249,12.4758245 67.7523749,13.046029 67.9440749,13.5773719 C68.135775,14.1087148 68.4052663,14.5694005 68.7504653,14.9601354 C69.0956643,15.3508703 69.5186546,15.6582296 70.0173525,15.8850395 C70.5160505,16.1118495 71.0807321,16.2249012 71.7107029,16.2249012 C72.3399791,16.2249012 72.9046607,16.1118495 73.4033587,15.8850395 C73.9020566,15.6582296 74.3278252,15.3508703 74.6813589,14.9601354 C75.0348927,14.5694005 75.3071623,14.1087148 75.4995569,13.5773719 C75.691257,13.046029 75.787107,12.4758245 75.787107,11.8667585 M77.4457291,11.8667585 C77.4457291,12.6948621 77.3040377,13.4600808 77.0192659,14.1624144 C76.7351887,14.8661612 76.339981,15.4745206 75.8329483,15.9910255 C75.3266101,16.5054107 74.7237274,16.9088639 74.0249947,17.1971457 C73.3262619,17.4861341 72.5545998,17.630275 71.7107029,17.630275 C70.8813918,17.630275 70.11737,17.4861341 69.4186372,17.1971457 C68.7192099,16.9088639 68.1170217,16.5054107 67.6106836,15.9910255 C67.1036509,15.4745206 66.7084432,14.8661612 66.4243659,14.1624144 C66.1395941,13.4600808 65.9979028,12.6948621 65.9979028,11.8667585 C65.9979028,11.0386549 66.1395941,10.2734362 66.4243659,9.57039603 C66.7084432,8.86735583 67.1036509,8.25828984 67.6106836,7.7424915 C68.1170217,7.22739973 68.7192099,6.82465308 69.4186372,6.53637127 C70.11737,6.24667631 70.8813918,6.10253541 71.7107029,6.10253541 C72.5545998,6.10253541 73.3262619,6.24667631 74.0249947,6.53637127 C74.7237274,6.82465308 75.3266101,7.22739973 75.8329483,7.7424915 C76.339981,8.25828984 76.7351887,8.86735583 77.0192659,9.57039603 C77.3040377,10.2734362 77.4457291,11.0386549 77.4457291,11.8667585" id="Fill-65" fill="#58585C"></path>
                <path d="M80.7392885,6.38325689 C80.7698494,6.68072415 80.7892972,6.97395197 80.7969375,7.26223379 C80.8045777,7.55122217 80.8087451,7.84444999 80.8087451,8.14121068 L80.8545864,8.14121068 C81.0233658,7.84444999 81.238681,7.57171279 81.4998376,7.32087935 C81.7609942,7.07145906 82.0527116,6.85666084 82.3742954,6.67648471 C82.6972683,6.49701515 83.0389944,6.35711368 83.4001684,6.25466059 C83.7606478,6.15362064 84.1176544,6.10274738 84.4711882,6.10274738 C85.8526787,6.10274738 86.8736898,6.47369824 87.5342214,7.21559996 C88.1940585,7.95820826 88.5246716,9.01665472 88.5246716,10.3909393 L88.5246716,17.3499775 L87.0049626,17.3499775 L87.0049626,11.2812214 C87.0049626,10.0623829 86.7972876,9.12970641 86.3826321,8.48107233 C85.9679766,7.83243825 85.2004818,7.50812121 84.0794533,7.50812121 C84.0023566,7.50812121 83.7877359,7.539917 83.4342021,7.60209543 C83.0806684,7.66427386 82.7090759,7.83667769 82.3166465,8.11789377 C81.9256062,8.39910985 81.5762398,8.8202274 81.2692419,9.38265956 C80.9615495,9.94509173 80.8087451,10.725855 80.8087451,11.7263624 L80.8087451,17.3499775 L79.2883415,17.3499775 L79.2883415,8.79691049 C79.2883415,8.5001498 79.2772285,8.12566608 79.2536132,7.67204617 C79.2306926,7.2198394 79.2036045,6.79024298 79.1730437,6.38325689 L80.7392885,6.38325689 Z" id="Fill-67" fill="#58585C"></path>
                <path d="M92.1636385,6.38325689 C92.1941994,6.68072415 92.2136472,6.97395197 92.2212874,7.26223379 C92.2289276,7.55122217 92.233095,7.84444999 92.233095,8.14121068 L92.2789363,8.14121068 C92.4477157,7.84444999 92.663031,7.57171279 92.9241875,7.32087935 C93.1853441,7.07145906 93.4770616,6.85666084 93.7986453,6.67648471 C94.1216182,6.49701515 94.4633444,6.35711368 94.8245184,6.25466059 C95.1849978,6.15362064 95.5420044,6.10274738 95.8955382,6.10274738 C97.2770286,6.10274738 98.2980397,6.47369824 98.9585714,7.21559996 C99.6184085,7.95820826 99.9490216,9.01665472 99.9490216,10.3909393 L99.9490216,17.3499775 L98.4293126,17.3499775 L98.4293126,11.2812214 C98.4293126,10.0623829 98.2216375,9.12970641 97.806982,8.48107233 C97.3923265,7.83243825 96.6248318,7.50812121 95.5038033,7.50812121 C95.4267065,7.50812121 95.2120858,7.539917 94.8585521,7.60209543 C94.5050183,7.66427386 94.1334258,7.83667769 93.7409964,8.11789377 C93.3499561,8.39910985 93.0005897,8.8202274 92.6935918,9.38265956 C92.3858994,9.94509173 92.233095,10.725855 92.233095,11.7263624 L92.233095,17.3499775 L90.7126914,17.3499775 L90.7126914,8.79691049 C90.7126914,8.5001498 90.7015784,8.12566608 90.6779632,7.67204617 C90.6550425,7.2198394 90.6279545,6.79024298 90.5973936,6.38325689 L92.1636385,6.38325689 Z" id="Fill-69" fill="#58585C"></path>
                <path d="M110.521487,11.0228983 C110.521487,9.97717014 110.214489,9.12928246 109.599799,8.48064839 C108.985803,7.83201431 108.125931,7.50769727 107.020183,7.50769727 C106.528431,7.50769727 106.052654,7.60591093 105.592157,7.80092509 C105.13166,7.99664583 104.728117,8.25807787 104.382918,8.58592777 C104.037719,8.91448425 103.761282,9.28967455 103.553607,9.7107921 C103.346627,10.1326162 103.243137,10.5699849 103.243137,11.0228983 L110.521487,11.0228983 Z M103.196601,12.2883707 C103.243137,12.8345516 103.37302,13.3510565 103.588336,13.8350591 C103.802956,14.3190617 104.087034,14.7366463 104.440567,15.0885197 C104.793407,15.4403931 105.200422,15.7180763 105.661613,15.9208628 C106.12211,16.1236493 106.620808,16.2246892 107.158402,16.2246892 C107.972432,16.2246892 108.674638,16.0339145 109.265713,15.6509519 C109.856788,15.2679893 110.305477,14.8270877 110.613864,14.326834 L111.78768,15.3103837 C111.143818,16.1391939 110.432583,16.7327153 109.657448,17.0923609 C108.882313,17.4513001 108.048834,17.6307696 107.158402,17.6307696 C106.359651,17.6307696 105.61855,17.4859221 104.935792,17.1969338 C104.25234,16.9086519 103.664738,16.5059053 103.17368,15.9908135 C102.681928,15.4750152 102.29436,14.8659492 102.010283,14.1622024 C101.726206,13.4598688 101.584515,12.6946502 101.584515,11.8665465 C101.584515,11.0384429 101.722733,10.2732243 101.998476,9.57018406 C102.275607,8.86714385 102.659007,8.25807787 103.15076,7.74227953 C103.641817,7.22718776 104.217612,6.82514769 104.878144,6.5361593 C105.537981,6.24646434 106.252688,6.10232344 107.020183,6.10232344 C107.834214,6.10232344 108.563507,6.25070378 109.208064,6.54746447 C109.853315,6.84422516 110.394382,7.2391995 110.831958,7.73097436 C111.269534,8.22274922 111.604315,8.80072599 111.834216,9.46490467 C112.064811,10.1283768 112.180109,10.8349498 112.180109,11.586037 L112.180109,12.2883707 L103.196601,12.2883707 Z" id="Fill-71" fill="#58585C"></path>
                <path d="M122.337919,8.96111807 C122.076763,8.55554513 121.712116,8.21144405 121.243979,7.93022796 C120.775147,7.64901188 120.241721,7.50769727 119.643006,7.50769727 C119.013035,7.49285924 118.448353,7.59389918 117.95035,7.81293684 C117.450957,8.03268106 117.025189,8.33650748 116.671655,8.72653581 C116.318121,9.11727072 116.049324,9.5821958 115.865265,10.1213111 C115.681205,10.6597197 115.588828,11.2426425 115.588828,11.8665465 C115.588828,12.4911571 115.681205,13.0733733 115.865265,13.611782 C116.049324,14.1516038 116.318121,14.6165289 116.671655,15.0065572 C117.025189,15.3972922 117.450957,15.7018251 117.95035,15.9208628 C118.448353,16.1391939 119.013035,16.2409404 119.643006,16.2246892 C120.241721,16.2246892 120.775147,16.0847877 121.243979,15.8035717 C121.712116,15.521649 122.076763,15.1782545 122.337919,14.7726816 L123.581191,15.7329144 C123.044292,16.3730696 122.437937,16.8457669 121.762125,17.1502999 C121.085618,17.4548329 120.379939,17.615225 119.643006,17.6307696 C118.767159,17.6463142 117.976743,17.5099456 117.27037,17.2202507 C116.563997,16.9319689 115.961115,16.5292222 115.462417,16.0141304 C114.963024,15.4983321 114.583097,14.8857333 114.32194,14.1749207 C114.060784,13.4641082 113.9309,12.6946502 113.9309,11.8665465 C113.9309,11.0384429 114.060784,10.2696914 114.32194,9.55887889 C114.583097,8.84806638 114.963024,8.23476096 115.462417,7.71896262 C115.961115,7.20387085 116.563997,6.8011242 117.27037,6.51284239 C117.976743,6.22314743 118.767159,6.0874854 119.643006,6.10232344 C120.379939,6.11857462 121.085618,6.27826013 121.762125,6.58279312 C122.437937,6.88661954 123.044292,7.3600235 123.581191,8.00088527 L122.337919,8.96111807 Z" id="Fill-73" fill="#58585C"></path>
                <path d="M132.080796,7.78947861 L128.971227,7.78947861 L128.971227,14.2560353 C128.971227,14.663728 129.009428,14.9944042 129.08583,15.2530099 C129.162927,15.5109091 129.270584,15.7094561 129.408803,15.8500642 C129.547021,15.9906722 129.711633,16.0881793 129.904028,16.1425854 C130.096423,16.1976981 130.306876,16.2245479 130.537472,16.2245479 C130.797934,16.2245479 131.067425,16.186393 131.343167,16.1072568 C131.620299,16.0295337 131.873121,15.9284938 132.103717,15.8034304 L132.173173,17.2321211 C131.604324,17.4977926 130.920872,17.6306283 130.122816,17.6306283 C129.831099,17.6306283 129.527574,17.5917668 129.212935,17.5133372 C128.898297,17.4349076 128.610053,17.2872338 128.349591,17.0689027 C128.08774,16.8491585 127.873119,16.5523978 127.70434,16.1779141 C127.534866,15.8034304 127.450823,15.3109489 127.450823,14.7018829 L127.450823,7.78947861 L125.170565,7.78947861 L125.170565,6.3833982 L127.450823,6.3833982 L127.450823,3.29072788 L128.971227,3.29072788 L128.971227,6.3833982 L132.080796,6.3833982 L132.080796,7.78947861 Z" id="Fill-75" fill="#58585C"></path>
            </g>
        </g>
    </g>
</svg>