<?xml version="1.0" encoding="UTF-8"?>
<svg width="487px" height="41px" viewBox="0 0 487 41" version="1.1" xmlns="http://www.w3.org/2000/svg" xmlns:xlink="http://www.w3.org/1999/xlink">
    <!-- Generator: Sketch 54.1 (76490) - https://sketchapp.com -->
    <title>Blue Cross NC / Products / Blue Medicare HMO / C</title>
    <desc>Created with Sketch.</desc>
    <defs>
        <polygon id="path-1" points="0.813 0.71 214.945 0.71 214.945 39.94 0.813 39.94"></polygon>
        <polygon id="path-3" points="0.367 0.91 83.421 0.91 83.421 40.94 0.367 40.94"></polygon>
    </defs>
    <g id="Blue-Cross-NC-/-Products-/-Blue-Medicare-HMO-/-C" stroke="none" stroke-width="1" fill="none" fill-rule="evenodd">
        <g id="BlueMedicareHMO-RGB-C-EPS">
            <g id="Group-10" transform="translate(119.000000, 1.000000)">
                <mask id="mask-2" fill="white">
                    <use xlink:href="#path-1"></use>
                </mask>
                <g id="Clip-2"></g>
                <polyline id="Fill-1" fill="#38A1CE" mask="url(#mask-2)" points="0.813 39.2 0.813 0.71 6.356 0.71 20.804 34.241 35.57 0.71 40.849 0.71 40.849 39.2 37.384 39.2 37.384 3.643 37.276 3.643 22.563 39.2 19.098 39.2 4.384 3.802 4.278 3.802 4.278 39.2 0.813 39.2"></polyline>
                <path d="M69.312,23.634 C68.939,18.462 66.167,14.57 60.622,14.57 C55.397,14.57 52.626,18.941 52.199,23.634 L69.312,23.634 Z M52.093,26.565 C52.199,32.269 54.812,37.067 61.368,37.067 C65.153,37.067 68.299,34.349 69.099,30.67 L72.458,30.67 C70.805,37.067 66.806,40 60.355,40 C52.358,40 48.627,33.123 48.627,25.818 C48.627,18.568 52.626,11.639 60.568,11.639 C69.526,11.639 72.778,18.196 72.778,26.565 L52.093,26.565 L52.093,26.565 Z" id="Fill-3" fill="#38A1CE" mask="url(#mask-2)"></path>
                <path d="M89.568,14.57 C83.491,14.57 81.518,20.222 81.518,25.34 C81.518,30.297 82.958,37.067 89.088,37.067 C96.072,37.067 98.205,31.257 98.205,25.179 C98.205,19.742 95.805,14.57 89.568,14.57 Z M98.311,35.255 L98.205,35.042 C96.019,38.24 92.767,40 89.036,40 C81.091,40 78.053,32.43 78.053,25.713 C78.053,18.782 81.091,11.639 89.036,11.639 C92.607,11.639 96.339,13.344 98.205,16.49 L98.311,16.383 L98.311,0.71 L101.509,0.71 L101.509,33.176 C101.509,35.255 101.669,37.387 101.777,39.2 L98.471,39.2 L98.311,35.255 L98.311,35.255 Z" id="Fill-4" fill="#38A1CE" mask="url(#mask-2)"></path>
                <path d="M109.558,39.201 L112.756,39.201 L112.756,12.438 L109.558,12.438 L109.558,39.201 Z M109.292,4.708 L113.023,4.708 L113.023,0.71 L109.292,0.71 L109.292,4.708 Z" id="Fill-5" fill="#38A1CE" mask="url(#mask-2)"></path>
                <path d="M138.236,20.648 C137.97,16.543 135.357,14.57 130.931,14.57 C126.027,14.57 122.99,19.688 122.99,25.765 C122.99,31.896 126.027,37.067 130.931,37.067 C135.089,37.067 137.97,34.509 138.236,30.831 L141.701,30.831 C140.847,36.961 137.33,40 131.251,40 C123.256,40 119.525,33.123 119.525,25.818 C119.525,18.568 123.523,11.639 131.466,11.639 C136.957,11.639 141.435,14.944 141.701,20.648 L138.236,20.648" id="Fill-6" fill="#38A1CE" mask="url(#mask-2)"></path>
                <path d="M155.134,37.067 C162.117,37.067 163.449,31.31 163.128,25.713 C158.597,25.872 149.109,25.021 149.109,31.736 C149.109,35.362 151.882,37.067 155.134,37.067 Z M163.128,20.328 C162.81,15.957 160.57,14.57 156.787,14.57 C153.427,14.57 150.656,15.584 150.228,19.209 L146.818,19.209 C147.617,13.718 151.722,11.639 156.839,11.639 C162.757,11.639 166.435,14.358 166.33,20.488 L166.33,33.176 C166.275,35.255 166.488,37.387 166.595,39.2 L163.291,39.2 L163.183,35.255 L163.078,35.255 L162.917,35.628 C161.744,37.867 158.171,40 154.548,40 C149.589,40 145.644,36.961 145.644,31.736 C145.644,28.111 147.83,25.34 151.029,24.007 C154.601,22.461 159.238,22.994 163.128,22.78 L163.128,20.328 L163.128,20.328 Z" id="Fill-7" fill="#38A1CE" mask="url(#mask-2)"></path>
                <path d="M177.841,39.2 L174.642,39.2 L174.642,18.462 C174.697,16.383 174.484,14.251 174.376,12.438 L177.683,12.438 L177.841,16.383 L177.949,16.383 C178.908,13.664 181.306,11.745 183.972,11.639 C185.039,11.585 186.105,11.639 187.171,11.692 L187.171,14.784 C186.531,14.73 185.839,14.57 185.199,14.57 C180.453,14.57 177.949,17.983 177.841,23.1 L177.841,39.2" id="Fill-8" fill="#38A1CE" mask="url(#mask-2)"></path>
                <path d="M211.478,23.634 C211.105,18.462 208.333,14.57 202.791,14.57 C197.566,14.57 194.792,18.941 194.367,23.634 L211.478,23.634 Z M194.259,26.565 C194.367,32.269 196.98,37.067 203.537,37.067 C207.322,37.067 210.466,34.349 211.267,30.67 L214.625,30.67 C212.972,37.067 208.974,40 202.523,40 C194.525,40 190.794,33.123 190.794,25.818 C190.794,18.568 194.792,11.639 202.736,11.639 C211.693,11.639 214.945,18.196 214.945,26.565 L194.259,26.565 L194.259,26.565 Z" id="Fill-9" fill="#38A1CE" mask="url(#mask-2)"></path>
            </g>
            <polyline id="Fill-11" fill="#38A1CE" points="353.988 40.2 353.988 1.71 357.453 1.71 357.453 18.609 378.457 18.609 378.457 1.71 381.923 1.71 381.923 40.2 378.457 40.2 378.457 21.808 357.453 21.808 357.453 40.2 353.988 40.2"></polyline>
            <g id="Group-15" transform="translate(392.000000, 0.000000)">
                <mask id="mask-4" fill="white">
                    <use xlink:href="#path-3"></use>
                </mask>
                <g id="Clip-13"></g>
                <polyline id="Fill-12" fill="#38A1CE" mask="url(#mask-4)" points="0.367 40.2 0.367 1.71 5.912 1.71 20.359 35.241 35.126 1.71 40.404 1.71 40.404 40.2 36.939 40.2 36.939 4.643 36.832 4.643 22.119 40.2 18.654 40.2 3.939 4.802 3.833 4.802 3.833 40.2 0.367 40.2"></polyline>
                <path d="M66.255,37.801 C75.851,37.801 79.689,29.377 79.689,20.955 C79.689,12.532 75.851,4.108 66.255,4.108 C56.66,4.108 52.822,12.532 52.822,20.955 C52.822,29.377 56.66,37.801 66.255,37.801 Z M66.255,41 C55.22,41 49.089,32.949 49.089,20.955 C49.089,8.96 55.22,0.91 66.255,0.91 C77.291,0.91 83.421,8.96 83.421,20.955 C83.421,32.949 77.291,41 66.255,41 L66.255,41 Z" id="Fill-14" fill="#38A1CE" mask="url(#mask-4)"></path>
            </g>
            <path d="M477.818,7.231 C476.986,7.231 476.285,6.623 476.263,5.763 L476.769,5.763 C476.785,6.565 477.376,6.797 478.078,6.797 C478.664,6.797 479.335,6.457 479.335,5.792 C479.335,5.272 478.958,5.025 478.519,4.881 C477.673,4.6 476.386,4.331 476.386,3.204 C476.386,2.293 477.224,1.794 478.048,1.794 C478.736,1.794 479.632,2.033 479.748,3.037 L479.242,3.037 C479.226,2.395 478.642,2.229 478.107,2.229 C477.564,2.229 476.892,2.503 476.892,3.139 C476.892,4.621 479.841,3.949 479.841,5.749 C479.841,6.883 478.865,7.231 477.818,7.231" id="Fill-16" fill="#38A1CE"></path>
            <polyline id="Fill-17" fill="#38A1CE" points="480.96 7.122 480.96 1.902 481.712 1.902 483.671 6.45 485.673 1.902 486.39 1.902 486.39 7.122 485.921 7.122 485.921 2.3 485.906 2.3 483.912 7.122 483.441 7.122 481.445 2.322 481.431 2.322 481.431 7.122 480.96 7.122"></polyline>
            <path d="M13.77,19.807 L13.77,34.227 L13.879,38.508 L17.999,38.508 C19.895,38.508 21.901,38.292 23.638,36.558 C25.914,34.281 25.859,30.377 25.859,29.021 C25.859,24.849 24.938,22.625 23.258,21.324 C22.01,20.35 19.842,19.807 16.535,19.807 L13.77,19.807 Z M13.879,3.436 L13.824,7.176 L13.77,18.234 L17.348,18.234 C19.734,18.234 21.632,17.476 22.391,16.499 C23.311,15.416 23.799,13.627 23.799,10.807 C23.799,4.682 21.901,3.436 17.727,3.436 L13.879,3.436 Z M0,1.809 L21.47,1.809 C23.638,1.809 26.021,1.917 28.245,2.948 C32.364,4.898 32.473,9.02 32.473,9.886 C32.473,12.055 31.714,14.061 30.144,15.633 C27.595,18.288 24.233,18.668 21.793,18.938 C24.449,19.048 28.678,19.265 32.039,22.625 C33.341,23.927 34.913,26.096 34.913,29.619 C34.913,32.111 34.101,34.714 32.039,36.774 C28.949,39.864 25.047,40.08 21.686,40.08 L0,40.08 L0,38.672 L5.259,38.672 L5.368,33.305 L5.368,7.719 L5.259,3.218 L0,3.218 L0,1.809 L0,1.809 Z" id="Fill-18" fill="#38A1CE"></path>
            <path d="M41.688,1.809 C44.235,1.809 44.995,1.755 47.381,1.592 L47.271,7.609 L47.271,34.336 L47.381,38.672 L51.12,38.672 L51.12,40.08 L35.291,40.08 L35.291,38.672 L39.356,38.672 L39.466,34.336 L39.466,7.609 L39.356,3.218 L35.291,3.218 L35.291,1.809 L41.688,1.809" id="Fill-19" fill="#38A1CE"></path>
            <path d="M55.512,13.844 C58.33,13.844 59.198,13.79 61.854,13.627 L61.745,18.667 L61.745,30.812 C61.745,32.871 61.854,34.443 62.288,35.527 C62.993,37.207 64.457,37.967 66.245,37.967 C67.817,37.967 69.173,37.37 70.203,36.395 C72.316,34.282 72.262,31.462 72.262,29.077 L72.262,19.428 L72.154,15.252 L68.142,15.252 L68.142,13.844 L72.804,13.844 C75.949,13.844 76.87,13.79 80.015,13.627 L79.907,18.667 L79.907,33.684 L80.015,38.618 L83.918,38.618 L83.918,40.082 L79.798,40.082 C76.328,40.082 75.082,40.135 72.48,40.299 L72.316,36.124 C71.18,37.533 68.522,40.678 62.396,40.678 C58.384,40.678 55.837,39.158 54.807,37.1 C53.994,35.581 54.048,33.63 54.048,32.006 L54.048,19.21 L53.94,15.252 L49.981,15.252 L49.981,13.844 L55.512,13.844" id="Fill-20" fill="#38A1CE"></path>
            <path d="M102.403,23.818 C102.457,19.591 102.511,14.602 97.632,14.602 C93.024,14.602 92.808,19.211 92.645,23.818 L102.403,23.818 Z M110.317,32.492 C108.908,35.148 105.98,40.678 97.794,40.678 C89.393,40.678 84.242,34.227 84.242,26.691 C84.242,19.483 89.122,13.084 97.85,13.084 C103.27,13.084 106.252,15.415 107.554,16.772 C110.534,19.86 110.643,23.112 110.696,25.444 L92.591,25.444 C92.645,30.053 92.753,34.227 95.03,36.611 C96.277,37.912 98.065,38.454 99.855,38.454 C105.71,38.454 107.932,33.523 108.691,31.787 L110.317,32.492 L110.317,32.492 Z" id="Fill-21" fill="#38A1CE"></path>
        </g>
    </g>
</svg>