<?xml version="1.0" encoding="UTF-8"?>
<svg width="478px" height="86px" viewBox="0 0 478 86" version="1.1" xmlns="http://www.w3.org/2000/svg" xmlns:xlink="http://www.w3.org/1999/xlink">
    <!-- Generator: Sketch 54.1 (76490) - https://sketchapp.com -->
    <title>Blue Cross NC / Products / Healthy Blue / Standalone / CK</title>
    <desc>Created with Sketch.</desc>
    <defs>
        <polygon id="path-1" points="0.06 0.255 47.439 0.255 47.439 65.618 0.06 65.618"></polygon>
    </defs>
    <g id="Blue-Cross-NC-/-Products-/-Healthy-Blue-/-Standalone-/-CK" stroke="none" stroke-width="1" fill="none" fill-rule="evenodd">
        <g id="HealthyBlue-CMYK-CK-EPS">
            <g id="Group-3" transform="translate(0.000000, 3.000000)">
                <mask id="mask-2" fill="white">
                    <use xlink:href="#path-1"></use>
                </mask>
                <g id="Clip-2"></g>
                <polyline id="Fill-1" fill="#1A1919" mask="url(#mask-2)" points="0 65.618 0 0.255 5.885 0.255 5.885 28.953 41.554 28.953 41.554 0.255 47.439 0.255 47.439 65.618 41.554 65.618 41.554 34.385 5.885 34.385 5.885 65.618 0 65.618"></polyline>
            </g>
            <path d="M90.17,42.183 C89.536,33.402 84.828,26.793 75.413,26.793 C66.541,26.793 61.834,34.217 61.109,42.183 L90.17,42.183 Z M60.929,47.162 C61.109,56.849 65.545,64.997 76.681,64.997 C83.108,64.997 88.449,60.38 89.808,54.133 L95.511,54.133 C92.704,64.997 85.915,69.976 74.961,69.976 C61.381,69.976 55.044,58.298 55.044,45.895 C55.044,33.583 61.834,21.814 75.322,21.814 C90.532,21.814 96.054,32.949 96.054,47.162 L60.929,47.162 L60.929,47.162 Z" id="Fill-4" fill="#1A1919"></path>
            <path d="M117.965,64.997 C129.824,64.997 132.087,55.22 131.544,45.714 C123.849,45.985 107.734,44.537 107.734,55.943 C107.734,62.1 112.442,64.997 117.965,64.997 Z M131.544,36.57 C131.001,29.147 127.198,26.793 120.771,26.793 C115.067,26.793 110.36,28.513 109.636,34.669 L103.842,34.669 C105.2,25.345 112.171,21.814 120.861,21.814 C130.91,21.814 137.157,26.431 136.976,36.842 L136.976,58.388 C136.886,61.919 137.247,65.54 137.429,68.618 L131.815,68.618 L131.635,61.919 L131.453,61.919 L131.182,62.553 C129.19,66.355 123.125,69.976 116.969,69.976 C108.55,69.976 101.851,64.815 101.851,55.943 C101.851,49.788 105.562,45.08 110.994,42.817 C117.06,40.191 124.936,41.097 131.544,40.735 L131.544,36.57 L131.544,36.57 Z" id="Fill-5" fill="#1A1919"></path>
            <polygon id="Fill-6" fill="#1A1919" points="148.928 68.618 154.359 68.618 154.359 3.255 148.928 3.255"></polygon>
            <path d="M168.754,28.151 L159.7,28.151 L159.7,23.172 L168.754,23.172 L168.754,13.485 L174.186,11.131 L174.186,23.172 L184.506,23.172 L184.506,28.151 L174.186,28.151 L174.186,58.569 C174.095,62.733 176.268,64.997 180.432,64.997 C182.062,64.997 183.691,64.906 185.14,64.453 L185.14,69.161 C183.42,69.613 181.428,69.976 179.617,69.976 C168.12,69.976 168.754,62.643 168.754,56.487 L168.754,28.151" id="Fill-7" fill="#1A1919"></path>
            <path d="M198.177,30.052 L198.357,30.052 C201.526,24.439 206.687,21.814 212.57,21.814 C227.418,21.814 228.595,34.941 228.595,40.191 L228.595,68.618 L223.163,68.618 L223.163,39.286 C223.163,31.41 218.637,26.793 211.213,26.793 C202.25,26.793 198.177,34.307 198.177,42.455 L198.177,68.618 L192.744,68.618 L192.744,3.255 L198.177,3.255 L198.177,30.052" id="Fill-8" fill="#1A1919"></path>
            <polyline id="Fill-9" fill="#1A1919" points="237.287 23.172 252.587 61.194 267.796 23.172 273.681 23.172 248.604 86 242.629 86 249.509 68.618 230.679 23.172 237.287 23.172"></polyline>
            <g id="Group-13" transform="translate(279.000000, 0.000000)" fill="#00A3DA">
                <path d="M24.72,32.337 L24.72,57.403 L24.907,64.849 L32.07,64.849 C35.368,64.849 38.854,64.472 41.87,61.456 C45.828,57.498 45.734,50.713 45.734,48.356 C45.734,41.101 44.133,37.237 41.211,34.976 C39.044,33.279 35.273,32.337 29.524,32.337 L24.72,32.337 Z M24.907,3.878 L24.813,10.381 L24.72,29.604 L30.938,29.604 C35.086,29.604 38.384,28.285 39.703,26.588 C41.305,24.705 42.152,21.594 42.152,16.695 C42.152,6.047 38.854,3.878 31.598,3.878 L24.907,3.878 Z M0.782,1.049 L38.102,1.049 C41.87,1.049 46.017,1.239 49.879,3.031 C57.042,6.421 57.229,13.584 57.229,15.093 C57.229,18.861 55.91,22.349 53.18,25.082 C48.75,29.699 42.906,30.359 38.666,30.831 C43.283,31.018 50.634,31.396 56.478,37.237 C58.738,39.5 61.472,43.267 61.472,49.394 C61.472,53.729 60.058,58.253 56.478,61.833 C51.105,67.205 44.32,67.582 38.478,67.582 L0.782,67.582 L0.782,65.131 L9.925,65.131 L10.111,55.802 L10.111,11.323 L9.925,3.5 L0.782,3.5 L0.782,1.049 L0.782,1.049 Z" id="Fill-10"></path>
                <path d="M73.23,1.049 C77.66,1.049 78.979,0.957 83.127,0.675 L82.937,11.133 L82.937,57.594 L83.127,65.131 L89.628,65.131 L89.628,67.582 L62.11,67.582 L62.11,65.131 L69.178,65.131 L69.368,57.594 L69.368,11.133 L69.178,3.5 L62.11,3.5 L62.11,1.049 L73.23,1.049" id="Fill-12"></path>
            </g>
            <path d="M376.242,21.971 C381.142,21.971 382.65,21.876 387.268,21.594 L387.077,30.359 L387.077,51.467 C387.077,55.047 387.268,57.78 388.022,59.667 C389.246,62.588 391.789,63.907 394.9,63.907 C397.634,63.907 399.989,62.87 401.781,61.174 C405.456,57.498 405.361,52.599 405.361,48.451 L405.361,31.678 L405.171,24.422 L398.198,24.422 L398.198,21.971 L406.303,21.971 C411.77,21.971 413.371,21.876 418.838,21.594 L418.647,30.359 L418.647,56.461 L418.838,65.039 L425.621,65.039 L425.621,67.582 L418.461,67.582 C412.43,67.582 410.261,67.678 405.738,67.959 L405.456,60.701 C403.475,63.152 398.857,68.619 388.209,68.619 C381.236,68.619 376.807,65.98 375.015,62.397 C373.604,59.759 373.696,56.366 373.696,53.541 L373.696,31.3 L373.509,24.422 L366.628,24.422 L366.628,21.971 L376.242,21.971" id="Fill-14" fill="#00A3DA"></path>
            <path d="M456.816,39.31 C456.912,31.96 457.004,23.29 448.524,23.29 C440.515,23.29 440.138,31.3 439.855,39.31 L456.816,39.31 Z M470.575,54.388 C468.124,59.008 463.035,68.619 448.807,68.619 C434.198,68.619 425.246,57.403 425.246,44.304 C425.246,31.773 433.729,20.652 448.902,20.652 C458.326,20.652 463.508,24.705 465.769,27.061 C470.953,32.433 471.14,38.086 471.235,42.138 L439.76,42.138 C439.855,50.148 440.042,57.403 444,61.551 C446.169,63.811 449.276,64.754 452.387,64.754 C462.565,64.754 466.428,56.179 467.747,53.163 L470.575,54.388 L470.575,54.388 Z" id="Fill-15" fill="#00A3DA"></path>
            <path d="M473.876,27.652 C475.443,27.652 476.703,26.413 476.703,24.779 C476.703,23.166 475.443,21.936 473.876,21.936 C472.299,21.936 471.045,23.166 471.045,24.808 C471.045,26.413 472.299,27.652 473.876,27.652 Z M473.876,21.452 C475.708,21.452 477.245,22.887 477.245,24.779 C477.245,26.7 475.708,28.136 473.876,28.136 C472.04,28.136 470.5,26.7 470.5,24.808 C470.5,22.887 472.04,21.452 473.876,21.452 Z M473.169,24.603 L473.817,24.603 C474.359,24.603 474.871,24.58 474.871,23.966 C474.871,23.428 474.417,23.367 474,23.367 L473.169,23.367 L473.169,24.603 Z M472.622,22.881 L474.04,22.881 C474.965,22.881 475.413,23.221 475.413,23.997 C475.413,24.683 474.959,24.983 474.384,25.047 L475.498,26.754 L474.916,26.754 L473.854,25.092 L473.169,25.092 L473.169,26.754 L472.622,26.754 L472.622,22.881 L472.622,22.881 Z" id="Fill-16" fill="#00A3DA"></path>
        </g>
    </g>
</svg>