<?xml version="1.0" encoding="UTF-8"?>
<svg width="115px" height="17px" viewBox="0 0 115 17" version="1.1" xmlns="http://www.w3.org/2000/svg" xmlns:xlink="http://www.w3.org/1999/xlink">
    <!-- Generator: Sketch 54.1 (76490) - https://sketchapp.com -->
    <title>Blue Cross NC / Products / Geo Blue / w icons / C</title>
    <desc>Created with Sketch.</desc>
    <g id="Blue-Cross-NC-/-Products-/-Geo-Blue-/-w-icons-/-C" stroke="none" stroke-width="1" fill="none" fill-rule="evenodd">
        <g id="GeoBlue-RGB-EPS">
            <path d="M10.471,11.401 C10.471,10.596 10.233,10.211 9.647,9.974 L8.53,9.516 L8.53,9.387 L14.553,9.387 L14.553,9.516 L13.601,9.955 C13.143,10.174 12.924,10.596 12.924,11.401 L12.924,15.208 C11.862,15.446 10.233,15.702 8,15.702 C3.846,15.702 0.789,13.231 0.789,9.003 C0.789,4.573 3.881,2.121 8.239,2.121 C10.599,2.121 11.533,2.561 11.973,2.561 C12.32,2.561 12.686,2.487 12.85,2.121 L12.979,2.121 L12.979,5.617 L12.85,5.617 C12.064,3.805 10.599,3.037 8.696,3.037 C5.712,3.037 3.79,5.013 3.79,9.022 C3.79,12.425 5.511,14.785 8.366,14.785 C9.153,14.785 9.849,14.696 10.471,14.439 L10.471,11.401" id="Fill-1" fill="#24A5C9"></path>
            <path d="M20.593,9.9 C21.27,9.9 21.545,9.625 21.545,8.911 C21.545,7.648 20.941,6.807 19.825,6.807 C18.177,6.807 17.609,8.601 17.609,9.9 L20.593,9.9 Z M17.592,10.705 C17.592,12.096 18.031,14.348 20.501,14.348 C21.783,14.348 22.826,13.835 23.522,12.773 C23.522,12.756 23.54,12.756 23.54,12.736 L23.87,12.922 C23.101,14.805 21.618,15.702 19.825,15.702 C16.932,15.702 15.029,13.962 15.029,10.851 C15.029,7.741 17.335,6.002 19.825,6.002 C22.588,6.002 24.108,7.741 24.108,10.705 L17.592,10.705 L17.592,10.705 Z" id="Fill-2" fill="#24A5C9"></path>
            <path d="M30.111,14.896 C31.465,14.896 32.473,13.597 32.473,10.851 C32.473,8.106 31.465,6.807 30.111,6.807 C28.757,6.807 27.75,8.106 27.75,10.851 C27.75,13.597 28.757,14.896 30.111,14.896 Z M30.111,6.002 C32.856,6.002 35.145,7.887 35.145,10.851 C35.145,13.816 32.856,15.702 30.111,15.702 C27.366,15.702 25.078,13.816 25.078,10.851 C25.078,7.887 27.366,6.002 30.111,6.002 L30.111,6.002 Z" id="Fill-3" fill="#24A5C9"></path>
            <path d="M40.27,14.513 L41.788,14.513 C43.729,14.513 45.304,13.999 45.304,11.859 C45.304,9.735 43.675,9.131 41.825,9.131 L40.27,9.131 L40.27,14.513 Z M40.27,8.216 L41.899,8.216 C43.491,8.216 44.79,7.283 44.79,5.745 C44.79,3.713 43.272,3.311 41.88,3.311 L40.27,3.311 L40.27,8.216 Z M37.708,5.69 C37.708,3.713 37.708,3.384 37.012,3.073 L35.767,2.523 L35.767,2.396 L42.923,2.396 C45.304,2.396 47.573,3.183 47.573,5.415 C47.573,7.392 45.906,8.472 44.004,8.582 L44.004,8.619 C46.053,8.711 48.195,9.662 48.195,11.913 C48.195,14.549 45.541,15.427 43.308,15.427 L35.767,15.427 L35.767,15.3 L37.012,14.751 C37.708,14.439 37.708,14.108 37.708,12.133 L37.708,5.69 L37.708,5.69 Z" id="Fill-4" fill="#73C7D4"></path>
            <path d="M52.898,13.322 C52.898,14.474 53.156,14.77 53.668,14.971 L54.529,15.3 L54.529,15.427 L48.963,15.427 L48.963,15.3 L49.825,14.971 C50.337,14.77 50.592,14.474 50.592,13.322 L50.592,4.903 C50.592,3.201 50.447,2.945 49.549,2.597 L48.963,2.377 L48.963,2.25 L53.009,2.25 C52.973,2.871 52.898,3.494 52.898,4.116 L52.898,13.322" id="Fill-5" fill="#73C7D4"></path>
            <path d="M55.919,8.381 C55.919,7.227 55.663,6.935 55.151,6.733 L54.291,6.404 L54.291,6.276 L58.335,6.276 C58.298,6.789 58.226,7.374 58.226,7.997 L58.226,11.877 C58.226,13.305 58.555,14.2 60.074,14.2 C61.099,14.2 61.996,13.231 61.996,12.113 L61.996,8.381 C61.996,7.227 61.739,6.935 61.227,6.733 L60.366,6.404 L60.366,6.276 L64.41,6.276 C64.375,6.789 64.301,7.374 64.301,7.997 L64.301,13.322 C64.301,14.474 64.559,14.77 65.071,14.971 L65.931,15.3 L65.931,15.427 L61.996,15.427 L61.996,13.707 L61.96,13.707 C61.372,15.024 60.184,15.702 58.683,15.702 C57,15.702 55.919,14.805 55.919,12.773 L55.919,8.381" id="Fill-6" fill="#73C7D4"></path>
            <path d="M71.881,9.9 C72.557,9.9 72.833,9.625 72.833,8.911 C72.833,7.648 72.228,6.807 71.111,6.807 C69.464,6.807 68.896,8.601 68.896,9.9 L71.881,9.9 Z M68.879,10.705 C68.879,12.096 69.317,14.348 71.789,14.348 C73.069,14.348 74.112,13.835 74.81,12.773 C74.81,12.756 74.826,12.756 74.826,12.736 L75.155,12.922 C74.388,14.805 72.905,15.702 71.111,15.702 C68.22,15.702 66.315,13.962 66.315,10.851 C66.315,7.741 68.622,6.002 71.111,6.002 C73.876,6.002 75.394,7.741 75.394,10.705 L68.879,10.705 L68.879,10.705 Z" id="Fill-7" fill="#73C7D4"></path>
            <path d="M96.016,15.4 C95.973,15.376 95.904,15.365 95.813,15.365 L95.669,15.365 L95.669,15.711 L95.82,15.711 C95.893,15.711 95.944,15.704 95.98,15.689 C96.045,15.662 96.079,15.614 96.079,15.54 C96.079,15.472 96.058,15.425 96.016,15.4 Z M95.834,15.251 C95.953,15.251 96.038,15.263 96.094,15.284 C96.191,15.325 96.241,15.406 96.241,15.525 C96.241,15.611 96.21,15.673 96.148,15.714 C96.115,15.735 96.07,15.752 96.011,15.761 C96.085,15.772 96.141,15.802 96.175,15.853 C96.209,15.904 96.225,15.953 96.225,16.001 L96.225,16.069 C96.225,16.093 96.227,16.114 96.229,16.14 C96.23,16.166 96.233,16.183 96.236,16.189 L96.242,16.201 L96.085,16.201 C96.085,16.199 96.083,16.195 96.083,16.193 C96.082,16.189 96.081,16.187 96.081,16.18 L96.079,16.151 L96.079,16.076 C96.079,15.965 96.048,15.894 95.987,15.857 C95.953,15.837 95.891,15.827 95.801,15.827 L95.669,15.827 L95.669,16.201 L95.501,16.201 L95.501,15.251 L95.834,15.251 Z M95.323,15.203 C95.18,15.347 95.106,15.523 95.106,15.731 C95.106,15.937 95.18,16.114 95.323,16.263 C95.468,16.408 95.644,16.481 95.851,16.481 C96.058,16.481 96.233,16.408 96.377,16.263 C96.523,16.114 96.597,15.937 96.597,15.731 C96.597,15.523 96.523,15.347 96.377,15.203 C96.233,15.055 96.056,14.983 95.851,14.983 C95.646,14.983 95.469,15.055 95.323,15.203 Z M96.465,16.346 C96.296,16.515 96.09,16.599 95.851,16.599 C95.61,16.599 95.406,16.515 95.238,16.346 C95.07,16.174 94.987,15.968 94.987,15.73 C94.987,15.49 95.071,15.286 95.24,15.116 C95.409,14.949 95.612,14.864 95.851,14.864 C96.09,14.864 96.296,14.949 96.465,15.116 C96.633,15.284 96.718,15.49 96.718,15.73 C96.718,15.968 96.633,16.173 96.465,16.346 L96.465,16.346 Z" id="Fill-8" fill="#24A5C9"></path>
            <path d="M111.822,15.4 C111.779,15.376 111.712,15.365 111.621,15.365 L111.476,15.365 L111.476,15.711 L111.629,15.711 C111.699,15.711 111.752,15.704 111.787,15.689 C111.853,15.662 111.885,15.614 111.885,15.54 C111.885,15.472 111.864,15.425 111.822,15.4 Z M111.642,15.251 C111.758,15.251 111.846,15.263 111.902,15.284 C111.998,15.325 112.05,15.406 112.05,15.525 C112.05,15.611 112.018,15.673 111.955,15.714 C111.923,15.735 111.877,15.752 111.816,15.761 C111.893,15.772 111.947,15.802 111.981,15.853 C112.015,15.904 112.034,15.953 112.034,16.001 L112.034,16.069 C112.034,16.093 112.034,16.114 112.034,16.14 C112.037,16.166 112.04,16.183 112.044,16.189 L112.05,16.201 L111.893,16.201 C111.892,16.199 111.892,16.195 111.891,16.193 C111.89,16.189 111.89,16.187 111.888,16.18 L111.885,16.151 L111.885,16.076 C111.885,15.965 111.854,15.894 111.795,15.857 C111.758,15.837 111.697,15.827 111.609,15.827 L111.476,15.827 L111.476,16.201 L111.31,16.201 L111.31,15.251 L111.642,15.251 Z M111.131,15.203 C110.988,15.347 110.913,15.523 110.913,15.731 C110.913,15.937 110.987,16.114 111.13,16.263 C111.275,16.408 111.451,16.481 111.657,16.481 C111.864,16.481 112.04,16.408 112.186,16.263 C112.331,16.114 112.402,15.937 112.402,15.731 C112.402,15.523 112.331,15.347 112.186,15.203 C112.04,15.055 111.864,14.983 111.657,14.983 C111.453,14.983 111.277,15.055 111.131,15.203 Z M112.272,16.346 C112.103,16.515 111.897,16.599 111.657,16.599 C111.418,16.599 111.213,16.515 111.045,16.346 C110.879,16.174 110.794,15.968 110.794,15.73 C110.794,15.49 110.879,15.286 111.048,15.116 C111.216,14.949 111.42,14.864 111.657,14.864 C111.897,14.864 112.103,14.949 112.272,15.116 C112.439,15.284 112.525,15.49 112.525,15.73 C112.525,15.968 112.439,16.173 112.272,16.346 L112.272,16.346 Z" id="Fill-9" fill="#24A5C9"></path>
            <polyline id="Fill-10" fill="#24A5C9" points="93.888 16.561 93.888 12.025 98.423 12.025 98.423 4.774 93.888 4.774 93.888 0.239 86.663 0.239 86.663 4.774 82.128 4.774 82.128 12.025 86.663 12.025 86.663 16.561 93.888 16.561"></polyline>
            <path d="M86.095,6.834 L89.101,7.125 C89.664,7.202 89.73,7.75 89.581,8.079 L87.521,11.943 L87.523,11.939 C86.479,11.119 85.809,9.844 85.809,8.414 C85.809,7.857 85.91,7.324 86.096,6.834 L86.095,6.834" id="Fill-11" fill="#FFFFFE"></path>
            <path d="M90.302,4.503 C89.771,4.503 89.606,5.103 89.84,5.413 C90.053,5.687 90.091,5.768 90.081,6.026 C90.071,6.243 89.871,6.508 89.416,6.518 L86.229,6.518 C86.941,4.992 88.493,3.934 90.289,3.934" id="Fill-12" fill="#FFFFFE"></path>
            <path d="M86.54,7.496 L88.817,7.706 C88.98,7.719 88.993,7.787 88.955,7.882 L87.361,10.927 C86.781,10.25 86.432,9.373 86.432,8.414 C86.432,8.098 86.469,7.789 86.54,7.496" id="Fill-13" fill="#24A5C9"></path>
            <path d="M89.218,4.707 C88.99,5.085 89.173,5.579 89.389,5.813 C89.429,5.852 89.407,5.895 89.372,5.906 L87.356,5.906 C87.838,5.341 88.483,4.918 89.218,4.707" id="Fill-14" fill="#24A5C9"></path>
            <path d="M94.482,6.834 L91.476,7.125 C90.912,7.202 90.845,7.75 90.996,8.079 L93.055,11.943 L93.053,11.939 C94.097,11.119 94.768,9.844 94.768,8.414 C94.768,7.857 94.666,7.324 94.48,6.834 L94.482,6.834" id="Fill-15" fill="#FFFFFE"></path>
            <path d="M90.276,4.503 C90.808,4.503 90.971,5.103 90.736,5.413 C90.525,5.687 90.484,5.768 90.496,6.026 C90.505,6.243 90.705,6.508 91.16,6.518 L94.349,6.518 C93.634,4.992 92.085,3.934 90.289,3.934" id="Fill-16" fill="#FFFFFE"></path>
            <path d="M94.036,7.496 L91.761,7.706 C91.596,7.719 91.581,7.787 91.621,7.882 L93.215,10.927 C93.796,10.25 94.146,9.373 94.146,8.414 C94.146,8.098 94.106,7.789 94.036,7.496" id="Fill-17" fill="#24A5C9"></path>
            <path d="M91.359,4.707 C91.589,5.085 91.404,5.579 91.188,5.813 C91.148,5.852 91.168,5.895 91.205,5.906 L93.221,5.906 C92.737,5.341 92.093,4.918 91.359,4.707" id="Fill-18" fill="#24A5C9"></path>
            <path d="M90.289,12.894 C91.198,12.894 92.045,12.623 92.752,12.155 L92.752,12.159 L90.567,8.894 C90.414,8.685 90.171,8.667 90.01,8.894 L87.824,12.159 L87.826,12.155 C88.53,12.623 89.379,12.894 90.289,12.894" id="Fill-19" fill="#FFFFFE"></path>
            <path d="M107.376,16.737 C110.508,15.005 112.406,12.252 113.383,9.227 C114.399,6.088 114.229,2.375 113.055,0.063 C111.265,0.964 109.467,1.416 107.376,1.422 C105.283,1.428 103.484,0.964 101.694,0.063 C100.52,2.375 100.35,6.088 101.366,9.227 C102.343,12.252 104.243,15.005 107.376,16.737" id="Fill-20" fill="#24A5C9"></path>
            <path d="M107.371,15.334 C109.949,13.738 111.322,11.451 112.203,8.868 C112.984,6.574 113.176,3.891 112.316,1.796 C111.028,2.239 110.272,2.375 109.57,2.485 C108.918,2.586 108.335,2.648 107.378,2.662 L107.371,2.662 C106.415,2.648 105.832,2.586 105.179,2.485 C104.478,2.375 103.723,2.239 102.434,1.796 C101.576,3.891 101.765,6.574 102.546,8.868 C103.427,11.451 104.8,13.738 107.378,15.334 L107.371,15.334" id="Fill-21" fill="#FFFFFE"></path>
            <path d="M107.373,14.701 C109.117,13.605 111.093,11.116 111.885,7.841 C112.304,6.103 112.42,4.151 111.875,2.603 C111.093,2.812 110.363,2.983 109.61,3.085 C108.857,3.187 108.111,3.26 107.378,3.265 L107.371,3.265 C106.639,3.26 105.894,3.187 105.139,3.085 C104.386,2.983 103.657,2.812 102.876,2.603 C102.329,4.151 102.446,6.103 102.865,7.841 C103.656,11.116 105.634,13.605 107.376,14.701 L107.373,14.701" id="Fill-22" fill="#24A5C9"></path>
            <path d="M105.594,4.428 C105.005,4.734 104.802,5.455 105.065,6.036 C105.295,6.54 105.748,6.874 106.274,7.031 C106.539,7.109 106.806,7.129 107.079,7.142 C107.412,7.16 107.717,7.168 108.038,7.25 C108.104,7.268 108.18,7.308 108.216,7.375 C108.301,7.535 108.223,7.711 108.055,7.761 C108.051,8.043 108.025,8.606 108.025,8.606 C108.025,8.606 109.394,8.476 109.163,7.246 C109.106,6.952 108.875,6.65 108.611,6.514 C107.924,6.161 107.17,6.313 106.468,6.087 C106.232,6.01 105.903,5.893 105.838,5.626 C105.813,5.521 105.835,5.308 105.943,5.272 C106.123,5.216 106.317,5.365 106.577,5.424 C106.738,5.462 106.899,5.46 107.027,5.422 C107.085,5.406 107.167,5.384 107.175,5.351 C107.167,5.321 107.102,5.296 107.07,5.28 C106.991,5.239 106.909,5.22 106.823,5.187 C106.683,5.133 106.539,5.065 106.396,4.985 C106.533,4.958 106.757,4.951 106.892,4.966 C106.999,4.979 107.33,4.975 107.43,4.949 C107.451,4.943 107.499,4.925 107.479,4.888 C107.44,4.823 107.376,4.799 107.331,4.739 C107.235,4.607 107.15,4.472 106.995,4.412 C106.544,4.238 106.044,4.195 105.594,4.428" id="Fill-23" fill="#FFFFFE"></path>
            <path d="M107.878,8.818 L107.885,7.383 C107.885,7.383 107.7,7.345 107.442,7.327 C107.107,7.305 106.954,7.31 106.954,7.31 L106.954,7.43 C106.954,7.43 106.791,7.499 106.767,7.542 C106.757,7.563 106.713,7.616 106.733,7.67 C106.865,8.025 107.049,8.369 107.1,8.749 C107.35,8.783 107.572,8.776 107.878,8.818" id="Fill-24" fill="#FFFFFE"></path>
            <path d="M106.161,8.601 C106.101,9.163 106.468,9.464 106.874,9.563 C107.196,9.639 107.509,9.655 107.842,9.695 C107.884,9.699 107.975,9.702 108.043,9.731 C108.102,9.756 108.131,9.791 108.142,9.828 C108.158,9.881 108.151,9.922 108.118,9.964 C108.08,10.008 107.985,10.034 107.985,10.034 L107.965,10.711 C107.965,10.711 108.239,10.7 108.459,10.568 C108.67,10.441 108.797,10.281 108.845,10.08 C108.897,9.846 108.862,9.619 108.696,9.39 C108.586,9.241 108.396,9.134 108.203,9.065 C107.804,8.925 107.371,8.947 106.957,8.887 C106.894,8.878 106.837,8.83 106.83,8.773 C106.819,8.668 106.918,8.619 106.918,8.619 C106.918,8.619 106.869,8.459 106.816,8.301 C106.769,8.183 106.703,8.017 106.654,7.929 C106.374,8.05 106.192,8.311 106.161,8.601" id="Fill-25" fill="#FFFFFE"></path>
            <path d="M107.842,9.853 L107.831,11.066 L107.528,10.927 L107.227,10.804 L107.22,9.789 C107.49,9.82 107.613,9.824 107.842,9.853" id="Fill-26" fill="#FFFFFE"></path>
            <path d="M106.48,10.522 C106.315,10.915 106.524,11.3 106.855,11.464 C107.028,11.548 107.255,11.624 107.44,11.697 C107.624,11.768 107.948,11.966 107.972,12.062 C107.988,12.122 107.919,12.179 107.919,12.179 L107.91,12.653 C107.91,12.653 108.108,12.611 108.255,12.492 C108.392,12.377 108.492,12.231 108.49,11.993 C108.49,11.734 108.369,11.531 107.999,11.315 C107.713,11.148 107.366,11.011 107.096,10.893 C107.056,10.875 107.021,10.798 107.035,10.751 C107.052,10.701 107.082,10.682 107.082,10.682 L107.077,10.134 C107.077,10.134 106.869,10.176 106.771,10.232 C106.681,10.287 106.544,10.376 106.48,10.522" id="Fill-27" fill="#FFFFFE"></path>
            <path d="M107.792,12.136 C107.797,12.099 107.781,12.093 107.764,12.065 C107.683,11.982 107.563,11.923 107.537,11.907 C107.452,11.857 107.266,11.787 107.266,11.787 C107.266,11.787 107.278,13.029 107.3,13.673 C107.307,13.816 107.389,13.856 107.528,13.862 C107.7,13.875 107.75,13.766 107.751,13.703 C107.759,13.497 107.783,12.605 107.792,12.136" id="Fill-28" fill="#FFFFFE"></path>
            <path d="M107.924,4.139 C107.985,4.185 107.985,4.187 108.007,4.279 C108.047,4.478 108.002,4.788 108.043,4.925 C108.062,4.969 108.108,4.968 108.141,4.95 C108.416,4.802 108.603,4.544 108.882,4.426 C109.012,4.371 109.373,4.553 109.292,4.827 C109.251,4.954 109.194,4.973 109.113,5.056 C108.952,5.225 108.723,5.384 108.521,5.603 C108.386,5.751 108.223,5.858 108.118,6.026 C108.084,6.079 108.03,6.152 108.03,6.152 C107.644,6.073 107.253,6.087 106.952,6.025 L106.952,5.577 C106.952,5.577 107.26,5.525 107.316,5.374 C107.322,5.361 107.313,5.31 107.269,5.276 C107.217,5.238 107.125,5.198 107.098,5.187 C107.407,5.236 107.598,5.287 107.896,5.416 C107.915,5.385 107.904,5.311 107.881,5.286 C107.841,5.239 107.819,5.225 107.714,5.2 C107.53,5.152 107.036,5.091 107.036,5.091 C107.036,5.091 107.266,5.09 107.457,5.059 C107.551,5.043 107.627,5.027 107.648,4.994 C107.669,4.946 107.629,4.875 107.563,4.805 C107.521,4.758 107.47,4.709 107.434,4.662 C107.391,4.6 107.316,4.486 107.235,4.416 C107.165,4.353 106.99,4.263 106.99,4.263 C106.99,4.263 106.961,4.022 107.009,3.925 C107.044,3.854 107.138,3.813 107.188,3.837 C107.409,3.961 107.627,4.087 107.924,4.139" id="Fill-29" fill="#FFFFFE"></path>
            <path d="M106.95,4.602 C106.892,4.642 106.854,4.683 106.788,4.694 C106.66,4.714 106.681,4.604 106.594,4.543 C106.539,4.505 106.489,4.553 106.44,4.466 C106.625,4.471 106.867,4.454 107.004,4.595 C106.986,4.585 106.957,4.597 106.95,4.602" id="Fill-30" fill="#24A5C9"></path>
            <path d="M90.226,9.632 C90.261,9.585 90.311,9.583 90.352,9.632 L91.857,11.939 C91.379,12.151 90.848,12.272 90.289,12.272 C89.729,12.272 89.198,12.151 88.719,11.939 L90.226,9.632 C90.267,9.583 90.316,9.585 90.352,9.632" id="Fill-31" fill="#24A5C9"></path>
            <path d="M106.966,12.595 C106.89,12.674 106.766,12.833 106.744,13.086 C106.724,13.312 106.775,13.377 106.834,13.499 C106.88,13.6 106.989,13.593 107.028,13.5 C107.06,13.425 107.015,13.354 107.042,13.188 C107.064,13.065 107.16,12.998 107.16,12.998 L107.15,12.445 C107.15,12.445 107.064,12.492 106.966,12.595" id="Fill-32" fill="#FFFFFE"></path>
            <path d="M75.43,15.184 L75.45,15.184 C75.517,15.402 75.676,15.523 75.908,15.523 C76.116,15.523 76.259,15.413 76.259,15.26 C76.259,14.901 75.437,14.999 75.437,14.51 C75.437,14.208 75.741,14.067 76.013,14.067 C76.183,14.067 76.3,14.118 76.39,14.118 C76.429,14.118 76.448,14.096 76.461,14.067 L76.477,14.067 L76.477,14.47 L76.461,14.47 C76.39,14.288 76.257,14.173 76.037,14.173 C75.889,14.173 75.719,14.245 75.719,14.423 C75.719,14.772 76.542,14.648 76.542,15.184 C76.542,15.496 76.259,15.628 75.934,15.628 C75.724,15.628 75.591,15.565 75.526,15.565 C75.481,15.565 75.454,15.593 75.443,15.628 L75.43,15.628 L75.43,15.184" id="Fill-33" fill="#73C7D4"></path>
            <path d="M78.825,14.099 L78.825,14.114 L78.695,14.167 C78.629,14.193 78.602,14.238 78.602,14.33 L78.602,15.365 C78.602,15.459 78.629,15.503 78.695,15.53 L78.825,15.582 L78.825,15.598 L78.085,15.598 L78.085,15.582 L78.213,15.53 C78.281,15.503 78.308,15.459 78.308,15.365 L78.308,14.281 L78.304,14.281 L77.744,15.47 C77.728,15.506 77.71,15.546 77.7,15.582 L77.594,15.582 C77.564,15.486 77.527,15.394 77.485,15.306 L77.023,14.281 L77.021,14.281 L77.021,15.365 C77.021,15.459 77.048,15.503 77.115,15.53 L77.242,15.582 L77.242,15.598 L76.667,15.598 L76.667,15.582 L76.795,15.53 C76.862,15.503 76.89,15.459 76.89,15.365 L76.89,14.33 C76.89,14.238 76.862,14.193 76.795,14.167 L76.667,14.114 L76.667,14.099 L77.283,14.099 C77.418,14.457 77.591,14.799 77.752,15.15 C77.915,14.812 78.104,14.459 78.24,14.099 L78.825,14.099" id="Fill-34" fill="#73C7D4"></path>
        </g>
    </g>
</svg>