<?xml version="1.0" encoding="UTF-8"?>
<svg width="542px" height="56px" viewBox="0 0 542 56" version="1.1" xmlns="http://www.w3.org/2000/svg" xmlns:xlink="http://www.w3.org/1999/xlink">
    <!-- Generator: Sketch 54.1 (76490) - https://sketchapp.com -->
    <title>Blue Cross NC / Products / BlueAdvantage Saver / W</title>
    <desc>Created with Sketch.</desc>
    <defs>
        <polygon id="path-1" points="0.06 0.667 38.743 0.667 38.743 43.482 0.06 43.482"></polygon>
        <polygon id="path-3" points="0.529 0.462 55.827 0.462 55.827 43 0.529 43"></polygon>
    </defs>
    <g id="Blue-Cross-NC-/-Products-/-BlueAdvantage-Saver-/-W" stroke="none" stroke-width="1" fill="none" fill-rule="evenodd">
        <g id="BlueAdvantageSaver-RGB-W-EPS">
            <g id="Group-3" transform="translate(0.000000, 1.000000)">
                <mask id="mask-2" fill="white">
                    <use xlink:href="#path-1"></use>
                </mask>
                <g id="Clip-2"></g>
                <path d="M15.09,41.686 L18.504,41.686 C25.21,41.686 28.683,38.991 28.683,30.847 C28.683,23.96 26.408,21.026 19.522,21.026 L15.09,21.026 L15.09,41.686 Z M15.09,19.23 L18.923,19.23 C24.252,19.23 26.348,16.895 26.348,10.907 C26.348,4.979 24.611,2.463 18.564,2.463 L15.09,2.463 L15.09,19.23 Z M0,41.686 L5.749,41.686 L5.749,2.463 L0,2.463 L0,0.667 L22.635,0.667 C30.12,0.667 36.048,2.224 36.048,9.47 C36.048,16.236 30.659,19.29 24.551,19.709 L24.551,19.829 C31.797,20.008 38.743,23.602 38.743,31.745 C38.743,38.452 34.132,43.482 23.893,43.482 L0,43.482 L0,41.686 L0,41.686 Z" id="Fill-1" fill="#FFFFFE" mask="url(#mask-2)"></path>
            </g>
            <path d="M38.984,42.686 L43.295,42.686 L43.295,3.463 L38.984,3.463 L38.984,1.667 L42.696,1.667 C45.751,1.667 48.864,1.547 51.918,1.308 L51.918,42.686 L56.23,42.686 L56.23,44.482 L38.984,44.482 L38.984,42.686" id="Fill-4" fill="#FFFFFE"></path>
            <path d="M88.087,42.686 L92.398,42.686 L92.398,44.482 C86.529,44.542 83.057,44.602 79.464,44.841 L79.464,40.29 L79.344,40.29 C77.308,43.583 73.535,45.2 69.823,45.2 C63.775,45.2 59.524,43.045 59.524,35.32 L59.524,16.937 L55.212,16.937 L55.212,15.141 L58.925,15.141 C61.979,15.141 65.092,15.021 68.146,14.781 L68.146,37.116 C68.146,41.727 70.361,42.326 72.817,42.326 C76.649,42.326 79.464,39.153 79.464,32.745 L79.464,16.937 L75.152,16.937 L75.152,15.141 L78.865,15.141 C81.919,15.141 85.032,15.021 88.087,14.781 L88.087,42.686" id="Fill-5" fill="#FFFFFE"></path>
            <path d="M113.178,26.518 L113.178,23.763 C113.178,20.35 112.34,16.218 108.268,16.218 C102.699,16.218 102.579,22.686 102.399,26.518 L113.178,26.518 Z M102.399,28.314 L102.399,30.889 C102.399,36.219 103.357,42.686 110.184,42.686 C115.214,42.686 118.388,39.811 120.363,35.5 L121.981,36.219 C119.585,42.206 114.795,45.2 108.627,45.2 C99.346,45.2 93.058,39.212 93.058,29.811 C93.058,20.949 99.466,14.421 108.627,14.421 C116.411,14.421 122.52,19.452 122.52,28.314 L102.399,28.314 L102.399,28.314 Z" id="Fill-6" fill="#FFFFFE"></path>
            <path d="M409.188,45.381 C402.289,45.381 396.469,40.34 396.289,33.201 L400.489,33.201 C400.609,39.86 405.529,41.78 411.348,41.78 C416.209,41.78 421.788,38.961 421.788,33.441 C421.788,29.121 418.668,27.081 415.008,25.881 C407.989,23.541 397.309,21.321 397.309,11.962 C397.309,4.402 404.269,0.263 411.108,0.263 C416.808,0.263 424.248,2.242 425.208,10.582 L421.008,10.582 C420.888,5.242 416.028,3.862 411.588,3.862 C407.088,3.862 401.508,6.142 401.508,11.422 C401.508,23.722 425.988,18.142 425.988,33.081 C425.988,42.501 417.888,45.381 409.188,45.381" id="Fill-7" fill="#FFFFFE"></path>
            <path d="M440.307,42.081 C448.167,42.081 449.667,35.601 449.306,29.301 C444.207,29.481 433.527,28.521 433.527,36.081 C433.527,40.161 436.647,42.081 440.307,42.081 Z M449.306,23.241 C448.947,18.321 446.426,16.762 442.167,16.762 C438.387,16.762 435.267,17.901 434.787,21.981 L430.947,21.981 C431.847,15.802 436.467,13.462 442.227,13.462 C448.886,13.462 453.026,16.521 452.906,23.421 L452.906,37.701 C452.846,40.042 453.086,42.44 453.207,44.481 L449.487,44.481 L449.367,40.042 L449.247,40.042 L449.066,40.461 C447.747,42.981 443.727,45.381 439.647,45.381 C434.067,45.381 429.627,41.961 429.627,36.081 C429.627,32.001 432.087,28.881 435.687,27.381 C439.707,25.642 444.926,26.241 449.306,26.001 L449.306,23.241 L449.306,23.241 Z" id="Fill-8" fill="#FFFFFE"></path>
            <polyline id="Fill-9" fill="#FFFFFE" points="459.065 14.361 469.445 39.5 479.464 14.361 483.424 14.361 471.485 44.481 467.405 44.481 455.105 14.361 459.065 14.361"></polyline>
            <path d="M507.344,26.961 C506.924,21.142 503.804,16.762 497.564,16.762 C491.684,16.762 488.565,21.682 488.085,26.961 L507.344,26.961 Z M487.964,30.261 C488.085,36.681 491.025,42.081 498.404,42.081 C502.665,42.081 506.204,39.02 507.104,34.881 L510.883,34.881 C509.024,42.081 504.524,45.381 497.264,45.381 C488.264,45.381 484.065,37.641 484.065,29.421 C484.065,21.262 488.565,13.462 497.504,13.462 C507.584,13.462 511.244,20.842 511.244,30.261 L487.964,30.261 L487.964,30.261 Z" id="Fill-10" fill="#FFFFFE"></path>
            <path d="M520.823,44.481 L517.223,44.481 L517.223,21.142 C517.283,18.802 517.044,16.401 516.923,14.361 L520.643,14.361 L520.823,18.802 L520.943,18.802 C522.023,15.741 524.723,13.582 527.723,13.462 C528.922,13.401 530.123,13.462 531.323,13.521 L531.323,17.002 C530.603,16.941 529.823,16.762 529.103,16.762 C523.763,16.762 520.943,20.602 520.823,26.361 L520.823,44.481" id="Fill-11" fill="#FFFFFE"></path>
            <path d="M154.138,29.181 L144.778,4.762 L135.239,29.181 L154.138,29.181 Z M125.399,44.481 L142.559,1.162 L147.118,1.162 L164.398,44.481 L160.138,44.481 L155.519,32.781 L133.98,32.781 L129.419,44.481 L125.399,44.481 L125.399,44.481 Z" id="Fill-12" fill="#FFFFFE"></path>
            <path d="M177.397,16.762 C170.557,16.762 168.337,23.121 168.337,28.881 C168.337,34.461 169.957,42.081 176.857,42.081 C184.716,42.081 187.117,35.541 187.117,28.701 C187.117,22.581 184.417,16.762 177.397,16.762 Z M187.236,40.042 L187.117,39.801 C184.657,43.401 180.997,45.381 176.796,45.381 C167.857,45.381 164.437,36.86 164.437,29.301 C164.437,21.501 167.857,13.462 176.796,13.462 C180.817,13.462 185.016,15.382 187.117,18.922 L187.236,18.802 L187.236,1.162 L190.836,1.162 L190.836,37.701 C190.836,40.042 191.016,42.44 191.136,44.481 L187.417,44.481 L187.236,40.042 L187.236,40.042 Z" id="Fill-13" fill="#FFFFFE"></path>
            <polyline id="Fill-14" fill="#FFFFFE" points="198.836 14.361 209.216 39.5 219.236 14.361 223.196 14.361 211.256 44.481 207.176 44.481 194.877 14.361 198.836 14.361"></polyline>
            <path d="M234.677,42.081 C242.536,42.081 244.036,35.601 243.676,29.301 C238.576,29.481 227.897,28.521 227.897,36.081 C227.897,40.161 231.017,42.081 234.677,42.081 Z M243.676,23.241 C243.316,18.321 240.796,16.762 236.536,16.762 C232.757,16.762 229.637,17.901 229.156,21.981 L225.316,21.981 C226.217,15.802 230.837,13.462 236.597,13.462 C243.256,13.462 247.396,16.521 247.275,23.421 L247.275,37.701 C247.216,40.042 247.456,42.44 247.576,44.481 L243.856,44.481 L243.736,40.042 L243.616,40.042 L243.436,40.461 C242.116,42.981 238.097,45.381 234.017,45.381 C228.437,45.381 223.997,41.961 223.997,36.081 C223.997,32.001 226.457,28.881 230.057,27.381 C234.076,25.642 239.296,26.241 243.676,26.001 L243.676,23.241 L243.676,23.241 Z" id="Fill-15" fill="#FFFFFE"></path>
            <path d="M257.234,44.481 L253.634,44.481 L253.634,21.142 C253.634,18.802 253.455,16.401 253.335,14.361 L257.054,14.361 L257.234,18.802 L257.354,18.922 C259.454,15.201 262.874,13.462 266.774,13.462 C276.614,13.462 277.393,22.161 277.393,25.642 L277.393,44.481 L273.793,44.481 L273.793,25.041 C273.793,19.821 270.793,16.762 265.874,16.762 C259.934,16.762 257.234,21.741 257.234,27.142 L257.234,44.481" id="Fill-16" fill="#FFFFFE"></path>
            <path d="M286.572,17.661 L280.572,17.661 L280.572,14.361 L286.572,14.361 L286.572,7.942 L290.172,6.382 L290.172,14.361 L297.012,14.361 L297.012,17.661 L290.172,17.661 L290.172,37.82 C290.112,40.581 291.552,42.081 294.312,42.081 C295.392,42.081 296.472,42.02 297.432,41.721 L297.432,44.84 C296.292,45.141 294.972,45.381 293.772,45.381 C286.152,45.381 286.572,40.52 286.572,36.44 L286.572,17.661" id="Fill-17" fill="#FFFFFE"></path>
            <g id="Group-21" transform="translate(300.000000, 13.000000)">
                <mask id="mask-4" fill="white">
                    <use xlink:href="#path-3"></use>
                </mask>
                <g id="Clip-19"></g>
                <path d="M11.209,29.081 C19.068,29.081 20.569,22.601 20.209,16.301 C15.108,16.481 4.429,15.521 4.429,23.081 C4.429,27.161 7.549,29.081 11.209,29.081 Z M20.209,10.241 C19.849,5.321 17.328,3.762 13.068,3.762 C9.289,3.762 6.169,4.901 5.689,8.981 L1.849,8.981 C2.749,2.802 7.369,0.462 13.129,0.462 C19.789,0.462 23.928,3.521 23.808,10.421 L23.808,24.701 C23.749,27.042 23.989,29.44 24.109,31.481 L20.389,31.481 L20.269,27.042 L20.149,27.042 L19.968,27.461 C18.648,29.981 14.629,32.381 10.549,32.381 C4.969,32.381 0.529,28.961 0.529,23.081 C0.529,19.001 2.989,15.881 6.589,14.381 C10.608,12.642 15.828,13.241 20.209,13.001 L20.209,10.241 L20.209,10.241 Z" id="Fill-18" fill="#FFFFFE" mask="url(#mask-4)"></path>
                <path d="M42.267,3.762 C35.727,3.762 32.967,10.361 32.967,15.881 C32.967,21.4 35.788,28.061 42.387,28.061 C49.287,28.061 51.926,21.641 51.926,15.761 C51.926,10.001 48.747,3.762 42.267,3.762 Z M52.107,1.361 L55.827,1.361 C55.707,3.401 55.527,5.802 55.527,8.142 L55.527,26.202 C55.527,32.2 55.827,38.501 49.167,41.62 C46.767,42.76 45.147,43.001 42.327,43.001 C36.868,43.001 30.387,41.139 30.387,34.901 L34.288,34.901 C34.708,38.501 38.967,39.7 42.807,39.7 C47.487,39.7 51.806,36.401 51.926,31.36 L51.926,25.721 L51.806,25.721 C50.067,29.26 45.927,31.36 42.027,31.36 C32.967,31.36 29.068,24.461 29.068,16.181 C29.068,8.021 32.727,0.462 41.907,0.462 C46.287,0.462 49.407,2.562 51.806,6.041 L51.926,5.802 L52.107,1.361 L52.107,1.361 Z" id="Fill-20" fill="#FFFFFE" mask="url(#mask-4)"></path>
            </g>
            <path d="M384.004,26.961 C383.585,21.142 380.464,16.762 374.224,16.762 C368.344,16.762 365.225,21.682 364.745,26.961 L384.004,26.961 Z M364.625,30.261 C364.745,36.681 367.685,42.081 375.064,42.081 C379.324,42.081 382.864,39.02 383.764,34.881 L387.543,34.881 C385.684,42.081 381.184,45.381 373.924,45.381 C364.925,45.381 360.725,37.641 360.725,29.421 C360.725,21.262 365.225,13.462 374.165,13.462 C384.244,13.462 387.904,20.842 387.904,30.261 L364.625,30.261 L364.625,30.261 Z" id="Fill-22" fill="#FFFFFE"></path>
            <path d="M390.654,18.527 C391.941,18.527 392.966,17.515 392.966,16.179 C392.966,14.864 391.941,13.858 390.654,13.858 C389.37,13.858 388.343,14.864 388.343,16.207 C388.343,17.515 389.37,18.527 390.654,18.527 Z M390.654,13.462 C392.153,13.462 393.408,14.636 393.408,16.179 C393.408,17.748 392.153,18.923 390.654,18.923 C389.158,18.923 387.904,17.748 387.904,16.207 C387.904,14.636 389.158,13.462 390.654,13.462 Z M390.076,16.039 L390.618,16.039 C391.06,16.039 391.469,16.016 391.469,15.516 C391.469,15.076 391.096,15.026 390.757,15.026 L390.076,15.026 L390.076,16.039 Z M389.636,14.628 L390.793,14.628 C391.55,14.628 391.91,14.908 391.91,15.539 C391.91,16.104 391.543,16.347 391.074,16.398 L391.984,17.792 L391.505,17.792 L390.64,16.435 L390.076,16.435 L390.076,17.792 L389.636,17.792 L389.636,14.628 L389.636,14.628 Z" id="Fill-23" fill="#FFFFFE"></path>
            <path d="M534.664,17.565 C534.033,17.565 533.501,17.104 533.483,16.451 L533.867,16.451 C533.878,17.061 534.33,17.236 534.862,17.236 C535.305,17.236 535.816,16.978 535.816,16.473 C535.816,16.078 535.53,15.891 535.196,15.782 C534.554,15.567 533.577,15.364 533.577,14.507 C533.577,13.815 534.213,13.437 534.84,13.437 C535.36,13.437 536.041,13.618 536.13,14.381 L535.746,14.381 C535.735,13.892 535.29,13.767 534.884,13.767 C534.471,13.767 533.961,13.975 533.961,14.458 C533.961,15.583 536.2,15.073 536.2,16.44 C536.2,17.302 535.461,17.565 534.664,17.565" id="Fill-24" fill="#FFFFFE"></path>
            <polyline id="Fill-25" fill="#FFFFFE" points="537.051 17.483 537.051 13.519 537.624 13.519 539.112 16.973 540.63 13.519 541.174 13.519 541.174 17.483 540.819 17.483 540.819 13.821 540.807 13.821 539.293 17.483 538.935 17.483 537.42 13.837 537.41 13.837 537.41 17.483 537.051 17.483"></polyline>
        </g>
    </g>
</svg>