<?xml version="1.0" encoding="UTF-8"?>
<svg width="256px" height="74px" viewBox="0 0 256 74" version="1.1" xmlns="http://www.w3.org/2000/svg" xmlns:xlink="http://www.w3.org/1999/xlink">
    <!-- Generator: Sketch 54.1 (76490) - https://sketchapp.com -->
    <title>Blue Cross NC / Products / Blue Value UNC Alliance / CW</title>
    <desc>Created with Sketch.</desc>
    <defs>
        <polygon id="path-1" points="0.06 0.437 38.827 0.437 38.827 43.001 0.06 43.001"></polygon>
        <polygon id="path-3" points="0.00849525724 0.129 32.639 0.129 32.639 42.9956861 0.00849525724 42.9956861"></polygon>
    </defs>
    <g id="Blue-Cross-NC-/-Products-/-Blue-Value-UNC-Alliance-/-CW" stroke="none" stroke-width="1" fill="none" fill-rule="evenodd">
        <g id="BlueValue-UNC-RGB-CW-EPS">
            <g id="Group-3">
                <mask id="mask-2" fill="white">
                    <use xlink:href="#path-1"></use>
                </mask>
                <g id="Clip-2"></g>
                <path d="M15.313,20.454 L15.313,36.49 L15.434,41.253 L20.016,41.253 C22.126,41.253 24.356,41.013 26.286,39.083 C28.818,36.55 28.759,32.21 28.759,30.702 C28.759,26.06 27.733,23.588 25.864,22.142 C24.478,21.056 22.066,20.454 18.388,20.454 L15.313,20.454 Z M15.434,2.247 L15.373,6.407 L15.313,18.704 L19.292,18.704 C21.945,18.704 24.055,17.86 24.899,16.775 C25.924,15.57 26.467,13.579 26.467,10.446 C26.467,3.634 24.356,2.247 19.715,2.247 L15.434,2.247 Z M0,0.437 L23.874,0.437 C26.286,0.437 28.939,0.558 31.411,1.704 C35.993,3.874 36.113,8.456 36.113,9.422 C36.113,11.831 35.27,14.062 33.521,15.812 C30.688,18.767 26.949,19.187 24.237,19.489 C27.191,19.609 31.893,19.851 35.631,23.588 C37.078,25.036 38.827,27.446 38.827,31.364 C38.827,34.14 37.922,37.034 35.631,39.323 C32.195,42.761 27.853,43.001 24.115,43.001 L0,43.001 L0,41.433 L5.848,41.433 L5.968,35.466 L5.968,7.009 L5.848,2.004 L0,2.004 L0,0.437 L0,0.437 Z" id="Fill-1" fill="#37A1CE" mask="url(#mask-2)"></path>
            </g>
            <path d="M46.35,0.437 C49.184,0.437 50.028,0.378 52.68,0.198 L52.561,6.888 L52.561,36.611 L52.68,41.433 L56.841,41.433 L56.841,43.001 L39.236,43.001 L39.236,41.433 L43.758,41.433 L43.878,36.611 L43.878,6.888 L43.758,2.004 L39.236,2.004 L39.236,0.437 L46.35,0.437" id="Fill-4" fill="#37A1CE"></path>
            <path d="M61.71,13.823 C64.846,13.823 65.811,13.761 68.765,13.579 L68.644,19.187 L68.644,32.692 C68.644,34.982 68.765,36.732 69.247,37.939 C70.031,39.806 71.659,40.651 73.649,40.651 C75.396,40.651 76.904,39.986 78.05,38.901 C80.401,36.55 80.34,33.415 80.34,30.763 L80.34,20.032 L80.22,15.39 L75.758,15.39 L75.758,13.823 L80.943,13.823 C84.44,13.823 85.465,13.761 88.962,13.579 L88.841,19.187 L88.841,35.888 L88.962,41.374 L93.303,41.374 L93.303,43.001 L88.72,43.001 C84.862,43.001 83.475,43.063 80.582,43.243 L80.401,38.601 C79.135,40.169 76.18,43.665 69.368,43.665 C64.907,43.665 62.073,41.978 60.927,39.685 C60.023,37.997 60.083,35.826 60.083,34.021 L60.083,19.789 L59.962,15.39 L55.562,15.39 L55.562,13.823 L61.71,13.823" id="Fill-5" fill="#37A1CE"></path>
            <path d="M113.26,24.913 C113.32,20.213 113.381,14.666 107.954,14.666 C102.831,14.666 102.589,19.789 102.408,24.913 L113.26,24.913 Z M122.064,34.56 C120.495,37.517 117.239,43.665 108.136,43.665 C98.79,43.665 93.063,36.49 93.063,28.109 C93.063,20.091 98.49,12.978 108.196,12.978 C114.225,12.978 117.541,15.57 118.988,17.077 C122.304,20.515 122.424,24.13 122.484,26.724 L102.349,26.724 C102.408,31.847 102.528,36.49 105.061,39.144 C106.448,40.589 108.437,41.192 110.426,41.192 C116.939,41.192 119.409,35.707 120.253,33.777 L122.064,34.56 L122.064,34.56 Z" id="Fill-6" fill="#37A1CE"></path>
            <polyline id="Fill-7" fill="#FFFFFE" points="137.703 38.612 137.819 38.611 150.679 0.474 154.439 0.436 139.766 42.352 135.486 42.395 119.791 0.788 123.897 0.746 137.703 38.612"></polyline>
            <g id="Group-11" transform="translate(152.000000, 0.000000)">
                <mask id="mask-4" fill="white">
                    <use xlink:href="#path-3"></use>
                </mask>
                <g id="Clip-9"></g>
                <path d="M10.364,39.808 C17.942,39.731 19.324,33.469 18.916,27.399 C14.001,27.623 3.694,26.801 3.769,34.09 C3.809,38.024 6.836,39.843 10.364,39.808 Z M18.856,21.556 C18.46,16.817 16.016,15.337 11.909,15.379 C8.265,15.417 5.268,16.546 4.845,20.484 L1.143,20.521 C1.95,14.555 6.381,12.254 11.934,12.197 C18.355,12.132 22.376,15.042 22.328,21.694 L22.468,35.462 C22.433,37.718 22.688,40.029 22.824,41.995 L19.238,42.031 L19.079,37.752 L18.963,37.753 L18.794,38.16 C17.545,40.603 13.693,42.955 9.76,42.995 C4.381,43.05 0.067,39.796 0.009,34.128 C-0.031,30.194 2.31,27.163 5.766,25.681 C9.625,23.964 14.663,24.492 18.883,24.217 L18.856,21.556 L18.856,21.556 Z" id="Fill-8" fill="#FFFFFE" mask="url(#mask-4)"></path>
                <polyline id="Fill-10" fill="#FFFFFE" mask="url(#mask-4)" points="32.636 42.247 29.165 42.283 29.168 0.164 32.639 0.128 32.636 42.247"></polyline>
            </g>
            <path d="M211.491,12.582 L214.962,12.546 L215.19,35.048 C215.214,37.304 215.411,39.615 215.546,41.581 L211.96,41.617 L211.743,37.339 L211.626,37.224 C209.639,40.831 206.358,42.542 202.598,42.58 C193.112,42.677 192.274,34.297 192.24,30.942 L192.056,12.779 L195.526,12.744 L195.717,31.485 C195.769,36.518 198.69,39.438 203.434,39.39 C209.16,39.331 211.714,34.504 211.661,29.298 L211.491,12.582" id="Fill-12" fill="#FFFFFE"></path>
            <path d="M243.024,24.409 C242.564,18.803 239.513,14.61 233.497,14.671 C227.828,14.729 224.868,19.503 224.457,24.598 L243.024,24.409 Z M224.374,27.781 C224.553,33.969 227.44,39.146 234.555,39.073 C238.662,39.031 242.044,36.047 242.871,32.047 L246.516,32.01 C244.793,38.969 240.486,42.194 233.488,42.266 C224.812,42.355 220.686,34.934 220.606,27.009 C220.525,19.143 224.788,11.579 233.406,11.491 C243.124,11.392 246.726,18.471 246.817,27.552 L224.374,27.781 L224.374,27.781 Z" id="Fill-13" fill="#FFFFFE"></path>
            <path d="M249.702,15.233 C249.138,15.233 248.661,14.821 248.646,14.236 L248.989,14.236 C248.999,14.782 249.403,14.938 249.88,14.938 C250.276,14.938 250.733,14.708 250.733,14.255 C250.733,13.902 250.478,13.735 250.179,13.637 C249.605,13.445 248.73,13.263 248.73,12.497 C248.73,11.878 249.3,11.539 249.86,11.539 C250.325,11.539 250.935,11.701 251.015,12.383 L250.671,12.383 C250.661,11.946 250.263,11.834 249.899,11.834 C249.53,11.834 249.073,12.02 249.073,12.453 C249.073,13.46 251.077,13.003 251.077,14.226 C251.077,14.998 250.415,15.233 249.702,15.233" id="Fill-14" fill="#FFFFFE"></path>
            <polyline id="Fill-15" fill="#FFFFFE" points="251.839 15.16 251.839 11.612 252.351 11.612 253.683 14.703 255.042 11.612 255.528 11.612 255.528 15.16 255.21 15.16 255.21 11.882 255.2 11.882 253.845 15.16 253.524 15.16 252.169 11.897 252.159 11.897 252.159 15.16 251.839 15.16"></polyline>
            <path d="M56.559,57.364 L56.559,67.748 C56.669,70.661 58.337,72.417 60.983,72.417 C63.629,72.417 65.296,70.661 65.407,67.748 L65.407,57.364 L66.853,57.364 L66.853,67.771 C66.808,71.216 64.874,73.75 60.983,73.75 C57.092,73.75 55.158,71.216 55.113,67.771 L55.113,57.364 L56.559,57.364" id="Fill-16" fill="#FFFFFE"></path>
            <polyline id="Fill-17" fill="#FFFFFE" points="69.391 57.364 71.036 57.364 79.885 71.483 79.93 71.483 79.93 57.364 81.375 57.364 81.375 73.417 79.552 73.417 70.88 59.543 70.837 59.543 70.837 73.417 69.391 73.417 69.391 57.364"></polyline>
            <path d="M94.341,61.121 C94.075,59.165 92.385,58.365 90.562,58.365 C86.449,58.365 85.203,62.101 85.203,65.391 C85.203,68.681 86.449,72.417 90.562,72.417 C92.34,72.417 94.12,71.526 94.52,69.526 L96.076,69.526 C95.609,72.217 93.141,73.75 90.562,73.75 C85.693,73.75 83.647,69.838 83.647,65.391 C83.647,60.988 85.715,57.031 90.562,57.031 C93.186,57.031 95.675,58.232 95.898,61.121 L94.341,61.121" id="Fill-18" fill="#FFFFFE"></path>
            <polyline id="Fill-19" fill="#FFFFFE" points="11.103 71.822 11.147 71.822 14.51 62.465 16.081 62.465 19.355 71.734 19.399 71.734 22.606 62.465 24.067 62.465 19.93 73.57 18.669 73.57 15.262 63.991 15.218 63.991 11.745 73.57 10.395 73.57 6.325 62.465 7.785 62.465 11.103 71.822"></polyline>
            <path d="M26.205,73.57 L27.533,73.57 L27.533,62.465 L26.205,62.465 L26.205,73.57 Z M26.094,59.257 L27.643,59.257 L27.643,57.598 L26.094,57.598 L26.094,59.257 Z" id="Fill-20" fill="#FFFFFE"></path>
            <path d="M32.065,63.681 L29.853,63.681 L29.853,62.465 L32.065,62.465 L32.065,60.098 L33.392,59.523 L33.392,62.465 L35.914,62.465 L35.914,63.681 L33.392,63.681 L33.392,71.115 C33.37,72.133 33.901,72.685 34.919,72.685 C35.317,72.685 35.715,72.663 36.069,72.553 L36.069,73.702 C35.649,73.812 35.162,73.902 34.72,73.902 C31.91,73.902 32.065,72.109 32.065,70.606 L32.065,63.681" id="Fill-21" fill="#FFFFFE"></path>
            <path d="M39.826,64.146 L39.871,64.146 C40.645,62.774 41.906,62.133 43.344,62.133 C46.972,62.133 47.26,65.341 47.26,66.623 L47.26,73.57 L45.932,73.57 L45.932,66.401 C45.932,64.478 44.826,63.351 43.012,63.351 C40.822,63.351 39.826,65.186 39.826,67.177 L39.826,73.57 L38.499,73.57 L38.499,57.598 L39.826,57.598 L39.826,64.146" id="Fill-22" fill="#FFFFFE"></path>
            <polyline id="Fill-23" fill="#FFFFFE" points="104.178 73.57 104.178 57.598 105.616 57.598 105.616 64.61 114.333 64.61 114.333 57.598 115.77 57.598 115.77 73.57 114.333 73.57 114.333 65.938 105.616 65.938 105.616 73.57 104.178 73.57"></polyline>
            <path d="M127.665,67.11 C127.509,64.965 126.358,63.351 124.058,63.351 C121.891,63.351 120.741,65.164 120.563,67.11 L127.665,67.11 Z M120.52,68.326 C120.563,70.693 121.647,72.685 124.369,72.685 C125.939,72.685 127.244,71.557 127.576,70.029 L128.968,70.029 C128.283,72.685 126.624,73.902 123.948,73.902 C120.63,73.902 119.081,71.047 119.081,68.018 C119.081,65.009 120.741,62.133 124.037,62.133 C127.752,62.133 129.102,64.853 129.102,68.326 L120.52,68.326 L120.52,68.326 Z" id="Fill-24" fill="#FFFFFE"></path>
            <path d="M135.026,72.685 C137.925,72.685 138.477,70.296 138.343,67.973 C136.464,68.039 132.526,67.686 132.526,70.473 C132.526,71.978 133.676,72.685 135.026,72.685 Z M138.343,65.739 C138.211,63.925 137.282,63.351 135.711,63.351 C134.318,63.351 133.169,63.77 132.99,65.274 L131.575,65.274 C131.907,62.995 133.61,62.133 135.733,62.133 C138.189,62.133 139.716,63.261 139.671,65.806 L139.671,71.07 C139.65,71.933 139.739,72.818 139.782,73.57 L138.411,73.57 L138.366,71.933 L138.322,71.933 L138.255,72.088 C137.768,73.017 136.286,73.902 134.783,73.902 C132.726,73.902 131.087,72.642 131.087,70.473 C131.087,68.969 131.994,67.817 133.322,67.266 C134.804,66.623 136.729,66.845 138.343,66.757 L138.343,65.739 L138.343,65.739 Z" id="Fill-25" fill="#FFFFFE"></path>
            <polygon id="Fill-26" fill="#FFFFFE" points="143.162 73.571 144.49 73.571 144.49 57.598 143.162 57.598"></polygon>
            <path d="M149.022,63.681 L146.811,63.681 L146.811,62.465 L149.022,62.465 L149.022,60.098 L150.35,59.523 L150.35,62.465 L152.871,62.465 L152.871,63.681 L150.35,63.681 L150.35,71.115 C150.329,72.133 150.859,72.685 151.877,72.685 C152.274,72.685 152.673,72.663 153.028,72.553 L153.028,73.702 C152.606,73.812 152.12,73.902 151.678,73.902 C148.868,73.902 149.022,72.109 149.022,70.606 L149.022,63.681" id="Fill-27" fill="#FFFFFE"></path>
            <path d="M156.783,64.146 L156.829,64.146 C157.602,62.774 158.864,62.133 160.301,62.133 C163.929,62.133 164.216,65.341 164.216,66.623 L164.216,73.57 L162.889,73.57 L162.889,66.401 C162.889,64.478 161.783,63.351 159.969,63.351 C157.778,63.351 156.783,65.186 156.783,67.177 L156.783,73.57 L155.457,73.57 L155.457,57.598 L156.783,57.598 L156.783,64.146" id="Fill-28" fill="#FFFFFE"></path>
            <text id="-Alliance" font-family="UniversLTStd-Light, Univers LT Std" font-size="22.018" font-weight="300" fill="#FFFFFE">
                <tspan x="166.477" y="67.4771554"> A</tspan>
                <tspan x="186.73356" y="67.4771554" letter-spacing="-0.55045">ll</tspan>
                <tspan x="195.408652" y="67.4771554">iance</tspan>
            </text>
        </g>
    </g>
</svg>