<?xml version="1.0" encoding="UTF-8"?>
<svg width="467px" height="41px" viewBox="0 0 467 41" version="1.1" xmlns="http://www.w3.org/2000/svg" xmlns:xlink="http://www.w3.org/1999/xlink">
    <!-- Generator: Sketch 54.1 (76490) - https://sketchapp.com -->
    <title>Blue Cross NC / Products / Blue Medicare PPO / W</title>
    <desc>Created with Sketch.</desc>
    <defs>
        <polygon id="path-1" points="0.082 0.711 214.216 0.711 214.216 39.94 0.082 39.94"></polygon>
        <polygon id="path-3" points="0.306 0.912 65.449 0.912 65.449 40.94 0.306 40.94"></polygon>
    </defs>
    <g id="Blue-Cross-NC-/-Products-/-Blue-Medicare-PPO-/-W" stroke="none" stroke-width="1" fill="none" fill-rule="evenodd">
        <g id="BlueMedicarePPO-RGB-W-EPS">
            <g id="Group-10" transform="translate(120.000000, 1.000000)">
                <mask id="mask-2" fill="white">
                    <use xlink:href="#path-1"></use>
                </mask>
                <g id="Clip-2"></g>
                <polyline id="Fill-1" fill="#FFFFFE" mask="url(#mask-2)" points="0.082 39.202 0.082 0.711 5.627 0.711 20.074 34.243 34.841 0.711 40.119 0.711 40.119 39.202 36.653 39.202 36.653 3.643 36.547 3.643 21.834 39.202 18.368 39.202 3.654 3.804 3.548 3.804 3.548 39.202 0.082 39.202"></polyline>
                <path d="M68.582,23.636 C68.209,18.463 65.437,14.571 59.893,14.571 C54.668,14.571 51.896,18.943 51.469,23.636 L68.582,23.636 Z M51.363,26.567 C51.469,32.271 54.082,37.068 60.639,37.068 C64.424,37.068 67.569,34.351 68.369,30.672 L71.728,30.672 C70.074,37.068 66.076,40 59.626,40 C51.629,40 47.897,33.124 47.897,25.82 C47.897,18.569 51.896,11.64 59.839,11.64 C68.795,11.64 72.047,18.197 72.047,26.567 L51.363,26.567 L51.363,26.567 Z" id="Fill-3" fill="#FFFFFE" mask="url(#mask-2)"></path>
                <path d="M88.838,14.571 C82.761,14.571 80.788,20.223 80.788,25.341 C80.788,30.298 82.228,37.068 88.358,37.068 C95.342,37.068 97.475,31.258 97.475,25.181 C97.475,19.744 95.075,14.571 88.838,14.571 Z M97.581,35.257 L97.475,35.043 C95.289,38.242 92.037,40 88.305,40 C80.361,40 77.323,32.431 77.323,25.713 C77.323,18.783 80.361,11.64 88.305,11.64 C91.877,11.64 95.608,13.345 97.475,16.492 L97.581,16.385 L97.581,0.711 L100.779,0.711 L100.779,33.177 C100.779,35.257 100.939,37.388 101.046,39.202 L97.74,39.202 L97.581,35.257 L97.581,35.257 Z" id="Fill-4" fill="#FFFFFE" mask="url(#mask-2)"></path>
                <path d="M108.828,39.202 L112.025,39.202 L112.025,12.439 L108.828,12.439 L108.828,39.202 Z M108.561,4.71 L112.293,4.71 L112.293,0.711 L108.561,0.711 L108.561,4.71 Z" id="Fill-5" fill="#FFFFFE" mask="url(#mask-2)"></path>
                <path d="M137.507,20.649 C137.24,16.544 134.629,14.571 130.202,14.571 C125.299,14.571 122.26,19.69 122.26,25.767 C122.26,31.898 125.299,37.068 130.202,37.068 C134.361,37.068 137.24,34.51 137.507,30.831 L140.971,30.831 C140.119,36.963 136.602,40 130.521,40 C122.526,40 118.795,33.124 118.795,25.82 C118.795,18.569 122.793,11.64 130.736,11.64 C136.228,11.64 140.705,14.945 140.971,20.649 L137.507,20.649" id="Fill-6" fill="#FFFFFE" mask="url(#mask-2)"></path>
                <path d="M154.404,37.068 C161.389,37.068 162.721,31.312 162.4,25.713 C157.869,25.874 148.381,25.021 148.381,31.738 C148.381,35.362 151.152,37.068 154.404,37.068 Z M162.4,20.33 C162.081,15.957 159.842,14.571 156.057,14.571 C152.698,14.571 149.926,15.585 149.499,19.209 L146.088,19.209 C146.887,13.719 150.993,11.64 156.11,11.64 C162.028,11.64 165.705,14.358 165.6,20.488 L165.6,33.177 C165.547,35.257 165.759,37.388 165.866,39.202 L162.561,39.202 L162.453,35.257 L162.348,35.257 L162.188,35.63 C161.016,37.869 157.443,40 153.818,40 C148.859,40 144.914,36.963 144.914,31.738 C144.914,28.113 147.101,25.341 150.3,24.008 C153.871,22.461 158.509,22.994 162.4,22.781 L162.4,20.33 L162.4,20.33 Z" id="Fill-7" fill="#FFFFFE" mask="url(#mask-2)"></path>
                <path d="M177.112,39.202 L173.914,39.202 L173.914,18.463 C173.967,16.385 173.754,14.252 173.646,12.439 L176.953,12.439 L177.112,16.385 L177.219,16.385 C178.178,13.665 180.578,11.746 183.244,11.64 C184.31,11.587 185.375,11.64 186.442,11.693 L186.442,14.785 C185.803,14.731 185.109,14.571 184.47,14.571 C179.725,14.571 177.219,17.983 177.112,23.101 L177.112,39.202" id="Fill-8" fill="#FFFFFE" mask="url(#mask-2)"></path>
                <path d="M210.75,23.636 C210.377,18.463 207.604,14.571 202.061,14.571 C196.836,14.571 194.064,18.943 193.637,23.636 L210.75,23.636 Z M193.531,26.567 C193.637,32.271 196.25,37.068 202.807,37.068 C206.592,37.068 209.737,34.351 210.537,30.672 L213.896,30.672 C212.243,37.068 208.244,40 201.794,40 C193.797,40 190.065,33.124 190.065,25.82 C190.065,18.569 194.064,11.64 202.006,11.64 C210.964,11.64 214.216,18.197 214.216,26.567 L193.531,26.567 L193.531,26.567 Z" id="Fill-9" fill="#FFFFFE" mask="url(#mask-2)"></path>
            </g>
            <path d="M362.201,20.263 L370.625,20.263 C375.795,20.263 380.381,18.61 380.381,12.587 C380.381,6.562 375.795,4.909 370.625,4.909 L362.201,4.909 L362.201,20.263 Z M358.736,40.202 L358.736,1.711 L368.386,1.711 C375.795,1.552 384.112,3.417 384.112,12.587 C384.112,21.756 375.795,23.622 368.386,23.461 L362.201,23.461 L362.201,40.202 L358.736,40.202 L358.736,40.202 Z" id="Fill-11" fill="#FFFFFE"></path>
            <g id="Group-15" transform="translate(391.000000, 0.000000)">
                <mask id="mask-4" fill="white">
                    <use xlink:href="#path-3"></use>
                </mask>
                <g id="Clip-13"></g>
                <path d="M3.771,20.263 L12.194,20.263 C17.365,20.263 21.95,18.61 21.95,12.587 C21.95,6.562 17.365,4.909 12.194,4.909 L3.771,4.909 L3.771,20.263 Z M0.306,40.202 L0.306,1.711 L9.955,1.711 C17.365,1.552 25.682,3.417 25.682,12.587 C25.682,21.756 17.365,23.622 9.955,23.461 L3.771,23.461 L3.771,40.202 L0.306,40.202 L0.306,40.202 Z" id="Fill-12" fill="#FFFFFE" mask="url(#mask-4)"></path>
                <path d="M48.283,37.802 C57.879,37.802 61.718,29.379 61.718,20.956 C61.718,12.533 57.879,4.11 48.283,4.11 C38.688,4.11 34.85,12.533 34.85,20.956 C34.85,29.379 38.688,37.802 48.283,37.802 Z M48.283,41 C37.248,41 31.117,32.951 31.117,20.956 C31.117,8.962 37.248,0.912 48.283,0.912 C59.318,0.912 65.449,8.962 65.449,20.956 C65.449,32.951 59.318,41 48.283,41 L48.283,41 Z" id="Fill-14" fill="#FFFFFE" mask="url(#mask-4)"></path>
            </g>
            <path d="M458.201,6.931 C457.37,6.931 456.668,6.323 456.646,5.463 L457.152,5.463 C457.168,6.267 457.76,6.497 458.461,6.497 C459.047,6.497 459.719,6.156 459.719,5.492 C459.719,4.973 459.343,4.726 458.902,4.582 C458.057,4.3 456.77,4.032 456.77,2.904 C456.77,1.994 457.608,1.494 458.432,1.494 C459.119,1.494 460.016,1.732 460.131,2.738 L459.625,2.738 C459.61,2.094 459.025,1.928 458.49,1.928 C457.947,1.928 457.276,2.204 457.276,2.839 C457.276,4.32 460.226,3.649 460.226,5.448 C460.226,6.584 459.249,6.931 458.201,6.931" id="Fill-16" fill="#FFFFFE"></path>
            <polyline id="Fill-17" fill="#FFFFFE" points="461.345 6.823 461.345 1.604 462.097 1.604 464.056 6.15 466.058 1.604 466.774 1.604 466.774 6.823 466.305 6.823 466.305 2.001 466.29 2.001 464.295 6.823 463.825 6.823 461.829 2.023 461.814 2.023 461.814 6.823 461.345 6.823"></polyline>
            <path d="M13.77,19.512 L13.77,33.933 L13.879,38.215 L17.998,38.215 C19.896,38.215 21.901,37.997 23.637,36.262 C25.912,33.986 25.859,30.083 25.859,28.729 C25.859,24.554 24.937,22.329 23.258,21.029 C22.01,20.053 19.842,19.512 16.535,19.512 L13.77,19.512 Z M13.879,3.142 L13.824,6.882 L13.77,17.939 L17.348,17.939 C19.734,17.939 21.631,17.182 22.391,16.205 C23.311,15.121 23.799,13.332 23.799,10.515 C23.799,4.387 21.901,3.142 17.727,3.142 L13.879,3.142 Z M0,1.516 L21.468,1.516 C23.637,1.516 26.021,1.623 28.244,2.653 C32.364,4.604 32.473,8.724 32.473,9.592 C32.473,11.76 31.714,13.767 30.143,15.337 C27.594,17.995 24.234,18.373 21.793,18.645 C24.449,18.754 28.678,18.969 32.039,22.329 C33.34,23.631 34.913,25.801 34.913,29.323 C34.913,31.818 34.1,34.421 32.039,36.48 C28.949,39.569 25.047,39.787 21.686,39.787 L0,39.787 L0,38.377 L5.259,38.377 L5.367,33.011 L5.367,7.422 L5.259,2.924 L0,2.924 L0,1.516 L0,1.516 Z" id="Fill-18" fill="#FFFFFE"></path>
            <path d="M41.687,1.516 C44.236,1.516 44.995,1.459 47.381,1.298 L47.271,7.314 L47.271,34.041 L47.381,38.378 L51.12,38.378 L51.12,39.787 L35.291,39.787 L35.291,38.378 L39.356,38.378 L39.466,34.041 L39.466,7.314 L39.356,2.924 L35.291,2.924 L35.291,1.516 L41.687,1.516" id="Fill-19" fill="#FFFFFE"></path>
            <path d="M55.511,13.549 C58.33,13.549 59.197,13.495 61.854,13.332 L61.746,18.373 L61.746,30.517 C61.746,32.576 61.854,34.148 62.287,35.233 C62.992,36.913 64.456,37.673 66.244,37.673 C67.816,37.673 69.173,37.077 70.202,36.101 C72.315,33.986 72.262,31.167 72.262,28.783 L72.262,19.133 L72.153,14.958 L68.141,14.958 L68.141,13.549 L72.804,13.549 C75.948,13.549 76.869,13.495 80.015,13.332 L79.906,18.373 L79.906,33.391 L80.015,38.322 L83.919,38.322 L83.919,39.787 L79.798,39.787 C76.327,39.787 75.081,39.841 72.48,40.004 L72.315,35.829 C71.179,37.238 68.522,40.384 62.395,40.384 C58.385,40.384 55.836,38.866 54.808,36.805 C53.994,35.287 54.047,33.337 54.047,31.708 L54.047,18.915 L53.939,14.958 L49.982,14.958 L49.982,13.549 L55.511,13.549" id="Fill-20" fill="#FFFFFE"></path>
            <path d="M102.402,23.523 C102.456,19.295 102.511,14.307 97.633,14.307 C93.023,14.307 92.808,18.915 92.645,23.523 L102.402,23.523 Z M110.317,32.196 C108.907,34.853 105.979,40.383 97.795,40.383 C89.393,40.383 84.242,33.933 84.242,26.396 C84.242,19.187 89.121,12.79 97.849,12.79 C103.27,12.79 106.253,15.121 107.553,16.477 C110.533,19.565 110.643,22.819 110.696,25.149 L92.59,25.149 C92.645,29.758 92.752,33.933 95.03,36.317 C96.276,37.616 98.066,38.161 99.854,38.161 C105.709,38.161 107.933,33.227 108.691,31.492 L110.317,32.196 L110.317,32.196 Z" id="Fill-21" fill="#FFFFFE"></path>
        </g>
    </g>
</svg>