<?xml version="1.0" encoding="UTF-8"?>
<svg width="713px" height="55px" viewBox="0 0 713 55" version="1.1" xmlns="http://www.w3.org/2000/svg" xmlns:xlink="http://www.w3.org/1999/xlink">
    <!-- Generator: Sketch 54.1 (76490) - https://sketchapp.com -->
    <title>Blue Cross NC / Products / Blue Medicare Supplement / C</title>
    <desc>Created with Sketch.</desc>
    <defs>
        <polygon id="path-1" points="0.273 0.165 90.252 0.165 90.252 41.94 0.273 41.94"></polygon>
    </defs>
    <g id="Blue-Cross-NC-/-Products-/-Blue-Medicare-Supplement-/-C" stroke="none" stroke-width="1" fill="none" fill-rule="evenodd">
        <g id="BlueMedicareSUPP-RGB-C-EPS">
            <path d="M399.613,44.556 C392.828,44.556 387.104,39.6 386.928,32.577 L391.058,32.577 C391.176,39.127 396.015,41.016 401.738,41.016 C406.518,41.016 412.006,38.242 412.006,32.814 C412.006,28.565 408.938,26.559 405.338,25.379 C398.434,23.078 387.931,20.895 387.931,11.69 C387.931,4.255 394.775,0.184 401.502,0.184 C407.107,0.184 414.424,2.131 415.369,10.333 L411.238,10.333 C411.119,5.081 406.34,3.724 401.975,3.724 C397.549,3.724 392.061,5.966 392.061,11.159 C392.061,23.255 416.135,17.768 416.135,32.46 C416.135,41.724 408.17,44.556 399.613,44.556" id="Fill-1" fill="#38A1CE"></path>
            <g id="Group-6" transform="translate(423.000000, 13.000000)">
                <mask id="mask-2" fill="white">
                    <use xlink:href="#path-1"></use>
                </mask>
                <g id="Clip-3"></g>
                <path d="M20.1,1.05 L23.641,1.05 L23.641,24.003 C23.641,26.305 23.816,28.664 23.936,30.671 L20.277,30.671 L20.1,26.305 L19.98,26.186 C17.916,29.845 14.553,31.556 10.717,31.556 C1.041,31.556 0.273,23 0.273,19.577 L0.273,1.05 L3.814,1.05 L3.814,20.168 C3.814,25.301 6.764,28.311 11.602,28.311 C17.443,28.311 20.1,23.413 20.1,18.103 L20.1,1.05" id="Fill-2" fill="#38A1CE" mask="url(#mask-2)"></path>
                <path d="M45.117,28.311 C51.902,28.311 53.613,20.816 53.613,15.33 C53.613,9.665 51.313,3.41 44.586,3.41 C37.682,3.41 35.027,9.134 35.027,15.152 C35.027,21.879 37.387,28.311 45.117,28.311 Z M35.027,42 L31.486,42 L31.486,7.718 C31.545,5.417 31.309,3.056 31.191,1.05 L34.85,1.05 L35.027,5.417 L35.145,5.535 C37.209,2.053 41.34,0.165 45.293,0.165 C54.086,0.165 57.449,8.072 57.449,15.743 C57.449,23.177 54.086,31.556 45.471,31.556 C41.162,31.556 37.564,29.608 35.145,26.068 L35.027,26.068 L35.027,42 L35.027,42 Z" id="Fill-4" fill="#38A1CE" mask="url(#mask-2)"></path>
                <path d="M77.92,28.311 C84.707,28.311 86.418,20.816 86.418,15.33 C86.418,9.665 84.117,3.41 77.389,3.41 C70.486,3.41 67.83,9.134 67.83,15.152 C67.83,21.879 70.191,28.311 77.92,28.311 Z M67.83,42 L64.291,42 L64.291,7.718 C64.35,5.417 64.113,3.056 63.996,1.05 L67.654,1.05 L67.83,5.417 L67.949,5.535 C70.014,2.053 74.145,0.165 78.098,0.165 C86.889,0.165 90.252,8.072 90.252,15.743 C90.252,23.177 86.889,31.556 78.275,31.556 C73.967,31.556 70.367,29.608 67.949,26.068 L67.83,26.068 L67.83,42 L67.83,42 Z" id="Fill-5" fill="#38A1CE" mask="url(#mask-2)"></path>
            </g>
            <polygon id="Fill-7" fill="#38A1CE" points="520.742 43.671 524.283 43.671 524.283 1.069 520.742 1.069"></polygon>
            <path d="M554.906,26.441 C554.492,20.718 551.424,16.41 545.287,16.41 C539.504,16.41 536.436,21.249 535.965,26.441 L554.906,26.441 Z M535.846,29.686 C535.965,36 538.855,41.311 546.113,41.311 C550.303,41.311 553.785,38.301 554.67,34.229 L558.387,34.229 C556.557,41.311 552.133,44.556 544.992,44.556 C536.141,44.556 532.012,36.944 532.012,28.86 C532.012,20.835 536.436,13.165 545.229,13.165 C555.141,13.165 558.74,20.423 558.74,29.686 L535.846,29.686 L535.846,29.686 Z" id="Fill-8" fill="#38A1CE"></path>
            <path d="M570.066,18.417 L570.186,18.535 C572.25,14.876 575.613,13.165 579.449,13.165 C584.109,13.165 587.768,15.761 589.066,19.656 C591.25,16.174 594.672,13.165 599.275,13.165 C608.951,13.165 609.719,21.721 609.719,25.143 L609.719,43.671 L606.178,43.671 L606.178,24.553 C606.178,19.419 603.229,16.41 598.389,16.41 C592.549,16.41 589.893,21.308 589.893,26.618 L589.893,43.671 L586.352,43.671 L586.352,24.553 C586.352,19.419 583.402,16.41 578.564,16.41 C572.723,16.41 570.066,21.308 570.066,26.618 L570.066,43.671 L566.527,43.671 L566.527,20.718 C566.527,18.417 566.35,16.056 566.23,14.05 L569.891,14.05 L570.066,18.417" id="Fill-9" fill="#38A1CE"></path>
            <path d="M640.16,26.441 C639.748,20.718 636.68,16.41 630.543,16.41 C624.76,16.41 621.691,21.249 621.219,26.441 L640.16,26.441 Z M621.102,29.686 C621.219,36 624.111,41.311 631.369,41.311 C635.559,41.311 639.039,38.301 639.924,34.229 L643.643,34.229 C641.813,41.311 637.387,44.556 630.248,44.556 C621.396,44.556 617.266,36.944 617.266,28.86 C617.266,20.835 621.691,13.165 630.484,13.165 C640.396,13.165 643.996,20.423 643.996,29.686 L621.102,29.686 L621.102,29.686 Z" id="Fill-10" fill="#38A1CE"></path>
            <path d="M655.381,43.671 L651.84,43.671 L651.84,20.718 C651.84,18.417 651.662,16.056 651.545,14.05 L655.203,14.05 L655.381,18.417 L655.498,18.535 C657.564,14.876 660.928,13.165 664.762,13.165 C674.439,13.165 675.207,21.721 675.207,25.143 L675.207,43.671 L671.666,43.671 L671.666,24.553 C671.666,19.419 668.715,16.41 663.877,16.41 C658.035,16.41 655.381,21.308 655.381,26.618 L655.381,43.671" id="Fill-11" fill="#38A1CE"></path>
            <path d="M687.182,17.295 L681.281,17.295 L681.281,14.05 L687.182,14.05 L687.182,7.736 L690.721,6.202 L690.721,14.05 L697.447,14.05 L697.447,17.295 L690.721,17.295 L690.721,37.121 C690.662,39.835 692.078,41.311 694.793,41.311 C695.855,41.311 696.918,41.251 697.861,40.956 L697.861,44.024 C696.74,44.319 695.441,44.556 694.262,44.556 C686.768,44.556 687.182,39.776 687.182,35.764 L687.182,17.295" id="Fill-12" fill="#38A1CE"></path>
            <path d="M15.24,21.1 L15.24,37.06 L15.36,41.799 L19.92,41.799 C22.02,41.799 24.24,41.559 26.16,39.639 C28.68,37.119 28.62,32.799 28.62,31.299 C28.62,26.679 27.6,24.219 25.74,22.779 C24.36,21.699 21.96,21.1 18.3,21.1 L15.24,21.1 Z M15.36,2.979 L15.3,7.119 L15.24,19.359 L19.2,19.359 C21.84,19.359 23.94,18.52 24.78,17.439 C25.8,16.239 26.34,14.259 26.34,11.139 C26.34,4.359 24.24,2.979 19.62,2.979 L15.36,2.979 Z M0,1.179 L23.76,1.179 C26.16,1.179 28.8,1.299 31.26,2.439 C35.82,4.599 35.94,9.159 35.94,10.119 C35.94,12.52 35.1,14.739 33.36,16.479 C30.54,19.419 26.82,19.839 24.12,20.139 C27.06,20.259 31.74,20.499 35.46,24.219 C36.9,25.659 38.64,28.06 38.64,31.959 C38.64,34.719 37.74,37.6 35.46,39.879 C32.04,43.299 27.72,43.539 24,43.539 L0,43.539 L0,41.979 L5.82,41.979 L5.94,36.039 L5.94,7.719 L5.82,2.739 L0,2.739 L0,1.179 L0,1.179 Z" id="Fill-13" fill="#38A2CF"></path>
            <path d="M46.14,1.179 C48.96,1.179 49.799,1.119 52.44,0.939 L52.319,7.599 L52.319,37.18 L52.44,41.979 L56.58,41.979 L56.58,43.539 L39.06,43.539 L39.06,41.979 L43.56,41.979 L43.68,37.18 L43.68,7.599 L43.56,2.739 L39.06,2.739 L39.06,1.179 L46.14,1.179" id="Fill-14" fill="#38A2CF"></path>
            <path d="M61.439,14.499 C64.559,14.499 65.519,14.439 68.459,14.259 L68.339,19.839 L68.339,33.279 C68.339,35.56 68.459,37.299 68.939,38.499 C69.719,40.359 71.339,41.199 73.319,41.199 C75.059,41.199 76.559,40.539 77.699,39.459 C80.039,37.119 79.979,33.999 79.979,31.359 L79.979,20.679 L79.859,16.06 L75.419,16.06 L75.419,14.499 L80.579,14.499 C84.059,14.499 85.079,14.439 88.559,14.259 L88.44,19.839 L88.44,36.459 L88.559,41.919 L92.879,41.919 L92.879,43.539 L88.319,43.539 C84.479,43.539 83.099,43.599 80.219,43.779 L80.039,39.159 C78.779,40.719 75.839,44.199 69.059,44.199 C64.619,44.199 61.799,42.519 60.659,40.239 C59.759,38.559 59.819,36.399 59.819,34.6 L59.819,20.439 L59.699,16.06 L55.319,16.06 L55.319,14.499 L61.439,14.499" id="Fill-15" fill="#38A2CF"></path>
            <path d="M113.339,25.539 C113.399,20.859 113.458,15.339 108.059,15.339 C102.958,15.339 102.719,20.439 102.539,25.539 L113.339,25.539 Z M122.099,35.14 C120.539,38.079 117.299,44.199 108.239,44.199 C98.939,44.199 93.239,37.06 93.239,28.719 C93.239,20.739 98.639,13.659 108.299,13.659 C114.299,13.659 117.599,16.239 119.039,17.739 C122.339,21.159 122.459,24.759 122.519,27.339 L102.479,27.339 C102.539,32.44 102.659,37.06 105.179,39.699 C106.559,41.139 108.539,41.739 110.519,41.739 C116.999,41.739 119.459,36.279 120.299,34.359 L122.099,35.14 L122.099,35.14 Z" id="Fill-16" fill="#38A2CF"></path>
            <polyline id="Fill-17" fill="#38A1CE" points="132.607 43.67 132.607 1.068 138.744 1.068 154.734 38.183 171.079 1.068 176.92 1.068 176.92 43.67 173.085 43.67 173.085 4.313 172.967 4.313 156.681 43.67 152.846 43.67 136.56 4.49 136.442 4.49 136.442 43.67 132.607 43.67"></polyline>
            <path d="M207.422,26.44 C207.009,20.717 203.941,16.409 197.804,16.409 C192.021,16.409 188.953,21.248 188.481,26.44 L207.422,26.44 Z M188.363,29.686 C188.481,35.999 191.373,41.31 198.63,41.31 C202.82,41.31 206.301,38.3 207.186,34.229 L210.903,34.229 C209.074,41.31 204.649,44.556 197.509,44.556 C188.658,44.556 184.528,36.943 184.528,28.859 C184.528,20.834 188.953,13.164 197.745,13.164 C207.658,13.164 211.257,20.422 211.257,29.686 L188.363,29.686 L188.363,29.686 Z" id="Fill-18" fill="#38A1CE"></path>
            <path d="M229.841,16.409 C223.114,16.409 220.931,22.664 220.931,28.329 C220.931,33.815 222.524,41.31 229.31,41.31 C237.04,41.31 239.4,34.878 239.4,28.151 C239.4,22.133 236.745,16.409 229.841,16.409 Z M239.518,39.304 L239.4,39.067 C236.98,42.608 233.381,44.556 229.251,44.556 C220.459,44.556 217.096,36.177 217.096,28.742 C217.096,21.071 220.459,13.164 229.251,13.164 C233.204,13.164 237.334,15.052 239.4,18.534 L239.518,18.416 L239.518,1.068 L243.058,1.068 L243.058,37.003 C243.058,39.304 243.235,41.663 243.353,43.67 L239.695,43.67 L239.518,39.304 L239.518,39.304 Z" id="Fill-19" fill="#38A1CE"></path>
            <path d="M250.964,43.67 L254.504,43.67 L254.504,14.049 L250.964,14.049 L250.964,43.67 Z M250.669,5.493 L254.799,5.493 L254.799,1.068 L250.669,1.068 L250.669,5.493 Z" id="Fill-20" fill="#38A1CE"></path>
            <path d="M282.707,23.136 C282.412,18.592 279.521,16.409 274.623,16.409 C269.195,16.409 265.832,22.074 265.832,28.8 C265.832,35.586 269.195,41.31 274.623,41.31 C279.226,41.31 282.412,38.478 282.707,34.406 L286.542,34.406 C285.598,41.192 281.705,44.556 274.977,44.556 C266.126,44.556 261.996,36.943 261.996,28.859 C261.996,20.834 266.421,13.164 275.213,13.164 C281.291,13.164 286.248,16.822 286.542,23.136 L282.707,23.136" id="Fill-21" fill="#38A1CE"></path>
            <path d="M301.41,41.31 C309.138,41.31 310.614,34.937 310.259,28.742 C305.244,28.919 294.742,27.975 294.742,35.409 C294.742,39.421 297.81,41.31 301.41,41.31 Z M310.259,22.782 C309.906,17.943 307.427,16.409 303.238,16.409 C299.521,16.409 296.453,17.53 295.98,21.543 L292.205,21.543 C293.089,15.465 297.632,13.164 303.297,13.164 C309.847,13.164 313.917,16.173 313.8,22.959 L313.8,37.003 C313.742,39.304 313.977,41.663 314.095,43.67 L310.437,43.67 L310.319,39.304 L310.201,39.304 L310.024,39.716 C308.726,42.194 304.773,44.556 300.759,44.556 C295.273,44.556 290.906,41.192 290.906,35.409 C290.906,31.396 293.326,28.329 296.866,26.854 C300.819,25.142 305.953,25.732 310.259,25.496 L310.259,22.782 L310.259,22.782 Z" id="Fill-22" fill="#38A1CE"></path>
            <path d="M325.542,43.67 L322.001,43.67 L322.001,20.717 C322.06,18.416 321.825,16.055 321.706,14.049 L325.365,14.049 L325.542,18.416 L325.66,18.416 C326.721,15.406 329.377,13.282 332.327,13.164 C333.507,13.105 334.688,13.164 335.868,13.223 L335.868,16.646 C335.16,16.586 334.393,16.409 333.684,16.409 C328.432,16.409 325.66,20.186 325.542,25.85 L325.542,43.67" id="Fill-23" fill="#38A1CE"></path>
            <path d="M361.771,26.44 C361.357,20.717 358.289,16.409 352.153,16.409 C346.371,16.409 343.302,21.248 342.83,26.44 L361.771,26.44 Z M342.712,29.686 C342.83,35.999 345.721,41.31 352.979,41.31 C357.168,41.31 360.649,38.3 361.534,34.229 L365.252,34.229 C363.423,41.31 358.997,44.556 351.858,44.556 C343.007,44.556 338.876,36.943 338.876,28.859 C338.876,20.834 343.302,13.164 352.094,13.164 C362.006,13.164 365.605,20.422 365.605,29.686 L342.712,29.686 L342.712,29.686 Z" id="Fill-24" fill="#38A1CE"></path>
            <path d="M702.932,19.678 C702.012,19.678 701.236,19.006 701.213,18.055 L701.771,18.055 C701.787,18.942 702.443,19.198 703.219,19.198 C703.867,19.198 704.611,18.822 704.611,18.086 C704.611,17.511 704.195,17.239 703.707,17.079 C702.771,16.767 701.348,16.471 701.348,15.224 C701.348,14.217 702.275,13.665 703.188,13.665 C703.947,13.665 704.938,13.929 705.066,15.04 L704.506,15.04 C704.49,14.329 703.844,14.145 703.252,14.145 C702.652,14.145 701.908,14.448 701.908,15.152 C701.908,16.791 705.17,16.047 705.17,18.039 C705.17,19.294 704.09,19.678 702.932,19.678" id="Fill-25" fill="#38A1CE"></path>
            <polyline id="Fill-26" fill="#38A1CE" points="706.412 19.558 706.412 13.785 707.244 13.785 709.41 18.814 711.625 13.785 712.416 13.785 712.416 19.558 711.896 19.558 711.896 14.225 711.881 14.225 709.674 19.558 709.154 19.558 706.947 14.249 706.932 14.249 706.932 19.558 706.412 19.558"></polyline>
        </g>
    </g>
</svg>