<?xml version="1.0" encoding="UTF-8"?>
<svg width="482px" height="56px" viewBox="0 0 482 56" version="1.1" xmlns="http://www.w3.org/2000/svg" xmlns:xlink="http://www.w3.org/1999/xlink">
    <!-- Generator: Sketch 54.1 (76490) - https://sketchapp.com -->
    <title>Blue Cross NC / Products / BlueAdvantageHSA / CW</title>
    <desc>Created with Sketch.</desc>
    <defs>
        <polygon id="path-1" points="0.06 0.305 481.819 0.305 481.819 42.664 0.06 42.664"></polygon>
    </defs>
    <g id="Blue-Cross-NC-/-Products-/-BlueAdvantageHSA-/-CW" stroke="none" stroke-width="1" fill="none" fill-rule="evenodd">
        <g id="BlueAdvantageHSA-RGB-CW-EPS">
            <polyline id="Fill-1" fill="#38A1CE" points="380.862 3.057 384.884 3.057 384.884 20.202 406.44 20.202 406.44 3.057 410.462 3.057 410.462 42.597 406.44 42.597 406.44 23.888 384.884 23.888 384.884 42.597 380.862 42.597 380.862 3.057"></polyline>
            <path d="M437.042,9.591 C435.311,7.022 432.741,5.737 429.391,5.737 C425.258,5.737 420.958,7.916 420.958,12.886 C420.958,23.553 441.23,17.912 441.23,32.153 C441.23,39.357 434.473,43.602 428.218,43.602 C423.415,43.602 418.78,41.871 415.765,37.738 L419.394,35.113 C421.069,38.018 424.253,39.916 428.386,39.916 C432.351,39.916 436.874,37.347 436.874,32.712 C436.874,21.542 416.602,27.741 416.602,13.277 C416.602,5.626 422.968,2.052 429.391,2.052 C433.858,2.052 437.433,3.28 440.56,6.854 L437.042,9.591" id="Fill-2" fill="#38A1CE"></path>
            <path d="M453.57,28.523 L470.716,28.523 L462.171,7.748 L453.57,28.523 Z M447.706,42.597 L443.015,42.597 L460.216,3.057 L464.126,3.057 L481.326,42.597 L476.636,42.597 L472.279,32.209 L452.063,32.209 L447.706,42.597 L447.706,42.597 Z" id="Fill-3" fill="#38A1CE"></path>
            <path d="M477.226,12.283 C477.069,12.054 476.841,11.938 476.54,11.938 C476.171,11.938 475.784,12.133 475.784,12.578 C475.784,13.533 477.601,13.028 477.601,14.304 C477.601,14.948 476.995,15.328 476.435,15.328 C476.005,15.328 475.591,15.173 475.319,14.804 L475.646,14.568 C475.796,14.828 476.079,14.998 476.45,14.998 C476.806,14.998 477.21,14.768 477.21,14.353 C477.21,13.353 475.396,13.908 475.396,12.613 C475.396,11.929 475.966,11.608 476.54,11.608 C476.94,11.608 477.261,11.719 477.54,12.038 L477.226,12.283" id="Fill-4" fill="#38A1CE"></path>
            <g id="Group-8">
                <mask id="mask-2" fill="white">
                    <use xlink:href="#path-1"></use>
                </mask>
                <g id="Clip-6"></g>
                <polyline id="Fill-5" fill="#38A1CE" mask="url(#mask-2)" points="480.075 14.578 481.271 11.698 481.819 11.698 481.819 15.238 481.46 15.238 481.46 12.179 481.45 12.179 480.169 15.238 479.979 15.238 478.7 12.179 478.69 12.179 478.69 15.238 478.329 15.238 478.329 11.698 478.88 11.698 480.075 14.578"></polyline>
                <path d="M15.239,20.225 L15.239,36.184 L15.358,40.924 L19.919,40.924 C22.019,40.924 24.239,40.684 26.159,38.764 C28.679,36.244 28.618,31.924 28.618,30.424 C28.618,25.805 27.599,23.344 25.739,21.904 C24.358,20.824 21.959,20.225 18.299,20.225 L15.239,20.225 Z M15.358,2.105 L15.299,6.246 L15.239,18.484 L19.198,18.484 C21.839,18.484 23.939,17.644 24.778,16.564 C25.798,15.365 26.339,13.385 26.339,10.266 C26.339,3.486 24.239,2.105 19.618,2.105 L15.358,2.105 Z M0,0.305 L23.759,0.305 C26.159,0.305 28.798,0.426 31.259,1.566 C35.818,3.725 35.939,8.285 35.939,9.246 C35.939,11.644 35.099,13.865 33.358,15.605 C30.538,18.545 26.818,18.965 24.118,19.266 C27.059,19.385 31.738,19.625 35.458,23.344 C36.897,24.785 38.638,27.184 38.638,31.084 C38.638,33.844 37.738,36.725 35.458,39.004 C32.038,42.424 27.718,42.664 23.999,42.664 L0,42.664 L0,41.103 L5.819,41.103 L5.939,35.164 L5.939,6.846 L5.819,1.865 L0,1.865 L0,0.305 L0,0.305 Z" id="Fill-7" fill="#38A1CE" mask="url(#mask-2)"></path>
            </g>
            <path d="M46.126,0.305 C48.945,0.305 49.785,0.246 52.425,0.066 L52.306,6.725 L52.306,36.305 L52.425,41.103 L56.565,41.103 L56.565,42.664 L39.046,42.664 L39.046,41.103 L43.546,41.103 L43.665,36.305 L43.665,6.725 L43.546,1.865 L39.046,1.865 L39.046,0.305 L46.126,0.305" id="Fill-9" fill="#38A1CE"></path>
            <path d="M61.411,13.625 C64.531,13.625 65.491,13.564 68.431,13.385 L68.311,18.965 L68.311,32.404 C68.311,34.684 68.431,36.424 68.911,37.625 C69.69,39.484 71.311,40.324 73.291,40.324 C75.03,40.324 76.53,39.664 77.671,38.584 C80.011,36.244 79.95,33.125 79.95,30.484 L79.95,19.805 L79.831,15.185 L75.391,15.185 L75.391,13.625 L80.551,13.625 C84.03,13.625 85.05,13.564 88.53,13.385 L88.41,18.965 L88.41,35.584 L88.53,41.045 L92.851,41.045 L92.851,42.664 L88.29,42.664 C84.45,42.664 83.07,42.725 80.19,42.904 L80.011,38.283 C78.751,39.844 75.811,43.324 69.03,43.324 C64.591,43.324 61.771,41.644 60.632,39.363 C59.731,37.684 59.792,35.523 59.792,33.725 L59.792,19.564 L59.671,15.185 L55.292,15.185 L55.292,13.625 L61.411,13.625" id="Fill-10" fill="#38A1CE"></path>
            <path d="M112.711,24.664 C112.771,19.984 112.83,14.465 107.431,14.465 C102.331,14.465 102.091,19.564 101.911,24.664 L112.711,24.664 Z M121.471,34.264 C119.91,37.205 116.67,43.324 107.611,43.324 C98.311,43.324 92.611,36.184 92.611,27.844 C92.611,19.865 98.012,12.785 107.671,12.785 C113.671,12.785 116.971,15.365 118.41,16.865 C121.711,20.285 121.83,23.885 121.891,26.465 L101.852,26.465 C101.911,31.564 102.031,36.184 104.551,38.824 C105.932,40.264 107.91,40.863 109.891,40.863 C116.371,40.863 118.83,35.404 119.67,33.484 L121.471,34.264 L121.471,34.264 Z" id="Fill-11" fill="#38A1CE"></path>
            <path d="M132.731,28.523 L149.877,28.523 L141.333,7.748 L132.731,28.523 Z M126.868,42.597 L122.177,42.597 L139.378,3.057 L143.287,3.057 L160.487,42.597 L155.797,42.597 L151.44,32.209 L131.224,32.209 L126.868,42.597 L126.868,42.597 Z" id="Fill-12" fill="#FFFFFE"></path>
            <path d="M174.335,39.916 C180.366,39.916 184.778,35.393 184.778,29.528 C184.778,23.664 180.366,19.141 174.335,19.141 C168.247,19.141 164.45,23.664 164.45,29.528 C164.45,35.393 168.247,39.916 174.335,39.916 Z M188.297,42.597 L184.61,42.597 L184.61,38.24 L184.499,38.24 C182.099,41.759 177.798,43.267 174.335,43.267 C166.182,43.267 160.429,37.403 160.429,29.528 C160.429,21.654 166.182,15.79 174.335,15.79 C177.798,15.79 182.099,17.298 184.499,20.816 L184.61,20.816 L184.61,0.376 L188.297,0.376 L188.297,42.597 L188.297,42.597 Z" id="Fill-13" fill="#FFFFFE"></path>
            <polyline id="Fill-14" fill="#FFFFFE" points="207.003 42.597 202.87 42.597 192.259 16.46 196.671 16.46 204.993 38.464 205.104 38.464 213.425 16.46 217.614 16.46 207.003 42.597"></polyline>
            <path d="M234.59,29.584 C230.849,29.584 222.415,29.863 222.415,35.113 C222.415,38.575 225.599,39.916 228.558,39.916 C233.919,39.916 236.489,36.118 236.489,31.483 L236.489,29.584 L234.59,29.584 Z M236.489,26.568 L236.489,25.898 C236.489,21.375 234.311,19.141 229.786,19.141 C226.716,19.141 224.034,20.202 221.801,22.213 L219.567,19.588 C221.968,17.13 225.71,15.79 230.624,15.79 C235.763,15.79 240.175,18.694 240.175,25.06 L240.175,36.732 C240.175,38.743 240.397,41.2 240.621,42.597 L237.047,42.597 C236.823,41.312 236.712,39.748 236.712,38.352 L236.601,38.352 C234.478,41.814 231.573,43.267 227.386,43.267 C222.75,43.267 218.394,40.698 218.394,35.616 C218.394,27.127 228.391,26.568 234.646,26.568 L236.489,26.568 L236.489,26.568 Z" id="Fill-15" fill="#FFFFFE"></path>
            <path d="M249.834,16.46 C250.001,17.856 250.001,19.253 250.001,20.648 L250.112,20.648 C251.732,17.801 255.419,15.79 258.881,15.79 C265.526,15.79 268.71,19.532 268.71,26.01 L268.71,42.597 L265.024,42.597 L265.024,28.132 C265.024,22.324 263.405,19.141 257.932,19.141 C257.149,19.141 250.001,19.643 250.001,29.193 L250.001,42.597 L246.315,42.597 L246.315,22.213 C246.315,20.816 246.147,18.359 246.036,16.46 L249.834,16.46" id="Fill-16" fill="#FFFFFE"></path>
            <path d="M288.534,19.811 L280.995,19.811 L280.995,35.225 C280.995,39.134 282.503,39.916 284.792,39.916 C286.077,39.916 287.474,39.525 288.59,38.911 L288.757,42.317 C287.417,42.932 285.63,43.267 283.787,43.267 C280.995,43.267 277.309,42.038 277.309,36.286 L277.309,19.811 L271.78,19.811 L271.78,16.46 L277.309,16.46 L277.309,9.089 L280.995,9.089 L280.995,16.46 L288.534,16.46 L288.534,19.811" id="Fill-17" fill="#FFFFFE"></path>
            <path d="M308.749,29.584 C305.007,29.584 296.573,29.863 296.573,35.113 C296.573,38.575 299.757,39.916 302.718,39.916 C308.079,39.916 310.647,36.118 310.647,31.483 L310.647,29.584 L308.749,29.584 Z M310.647,26.568 L310.647,25.898 C310.647,21.375 308.47,19.141 303.946,19.141 C300.874,19.141 298.192,20.202 295.96,22.213 L293.726,19.588 C296.126,17.13 299.868,15.79 304.784,15.79 C309.921,15.79 314.333,18.694 314.333,25.06 L314.333,36.732 C314.333,38.743 314.556,41.2 314.78,42.597 L311.206,42.597 C310.981,41.312 310.87,39.748 310.87,38.352 L310.759,38.352 C308.636,41.814 305.733,43.267 301.544,43.267 C296.909,43.267 292.552,40.698 292.552,35.616 C292.552,27.127 302.55,26.568 308.804,26.568 L310.647,26.568 L310.647,26.568 Z" id="Fill-18" fill="#FFFFFE"></path>
            <path d="M331.979,39.246 C337.341,39.246 342.087,35.225 341.864,29.193 C341.864,23.721 338.122,19.141 331.979,19.141 C326.507,19.141 322.261,23.721 322.261,29.193 C322.261,34.666 326.507,39.246 331.979,39.246 Z M321.591,47.847 C323.771,50.75 327.399,52.649 331.589,52.649 C339.071,52.649 341.753,48.014 341.753,42.373 L341.753,37.683 L341.642,37.683 C339.296,41.2 335.665,42.597 331.868,42.597 C324.327,42.597 318.241,36.956 318.241,29.305 C318.241,21.71 323.825,15.79 331.532,15.79 C334.659,15.79 338.624,16.739 341.642,20.816 L341.753,20.816 L341.753,16.46 L345.438,16.46 L345.438,42.373 C345.438,48.069 343.149,56 331.421,56 C326.228,56 322.206,54.324 318.854,50.75 L321.591,47.847 L321.591,47.847 Z" id="Fill-19" fill="#FFFFFE"></path>
            <path d="M371.181,27.518 C371.181,22.548 367.997,19.141 362.692,19.141 C357.89,19.141 353.532,23.218 353.532,27.518 L371.181,27.518 Z M353.421,30.534 C353.868,35.783 357.833,39.916 363.026,39.916 C366.937,39.916 369.952,37.738 371.403,35.393 L374.253,37.738 C371.181,41.647 367.327,43.267 363.026,43.267 C355.265,43.267 349.513,37.403 349.513,29.528 C349.513,21.654 355.265,15.79 362.692,15.79 C370.622,15.846 375.202,21.71 375.202,28.858 L375.202,30.534 L353.421,30.534 L353.421,30.534 Z" id="Fill-20" fill="#FFFFFE"></path>
        </g>
    </g>
</svg>