<?xml version="1.0" encoding="UTF-8"?>
<svg width="278px" height="78px" viewBox="0 0 278 78" version="1.1" xmlns="http://www.w3.org/2000/svg" xmlns:xlink="http://www.w3.org/1999/xlink">
    <!-- Generator: Sketch 54.1 (76490) - https://sketchapp.com -->
    <title>Blue Cross NC / Products / Dental Blue for Individuals PPO / CW</title>
    <desc>Created with Sketch.</desc>
    <defs>
        <polygon id="path-1" points="0.06 0.189 33.147 0.189 33.147 42.399 0.06 42.399"></polygon>
        <polygon id="path-3" points="0.082 0.028 22.566 0.028 22.566 20.94 0.082 20.94"></polygon>
        <polygon id="path-5" points="0.79 0.364 28.006 0.364 28.006 20.94 0.79 20.94"></polygon>
        <polygon id="path-7" points="0.169 0.364 68.096 0.364 68.096 20.94 0.169 20.94"></polygon>
        <polygon id="path-9" points="0.805 0.026 34.892 0.026 34.892 20.94 0.805 20.94"></polygon>
    </defs>
    <g id="Blue-Cross-NC-/-Products-/-Dental-Blue-for-Individuals-PPO-/-CW" stroke="none" stroke-width="1" fill="none" fill-rule="evenodd">
        <g id="DentalBlue-Individuals-PPO-RGB-CW">
            <g id="Group-3" transform="translate(0.000000, 1.000000)">
                <mask id="mask-2" fill="white">
                    <use xlink:href="#path-1"></use>
                </mask>
                <g id="Clip-2"></g>
                <path d="M12.335,38.892 C24.203,38.892 29.055,31.935 29.055,21.294 C29.055,8.842 21.748,3.347 9.763,3.698 L3.8,3.698 L3.8,38.892 L12.335,38.892 Z M11.4,0.189 C25.255,0.189 33.147,7.321 33.147,21.294 C33.147,35.267 25.255,42.399 11.4,42.399 L0,42.399 L0,0.189 L11.4,0.189 L11.4,0.189 Z" id="Fill-1" fill="#FFFFFE" mask="url(#mask-2)"></path>
            </g>
            <path d="M59.45,26.328 C59.04,20.657 56,16.39 49.92,16.39 C44.19,16.39 41.151,21.184 40.683,26.328 L59.45,26.328 Z M40.566,29.543 C40.683,35.799 43.548,41.061 50.738,41.061 C54.889,41.061 58.338,38.078 59.216,34.045 L62.898,34.045 C61.086,41.061 56.702,44.275 49.628,44.275 C40.859,44.275 36.767,36.734 36.767,28.725 C36.767,20.773 41.151,13.175 49.862,13.175 C59.683,13.175 63.25,20.364 63.25,29.543 L40.566,29.543 L40.566,29.543 Z" id="Fill-4" fill="#FFFFFE"></path>
            <path d="M70.485,43.399 L66.978,43.399 L66.978,20.657 C66.978,18.378 66.803,16.038 66.685,14.052 L70.31,14.052 L70.485,18.378 L70.602,18.493 C72.648,14.87 75.98,13.175 79.781,13.175 C89.369,13.175 90.128,21.65 90.128,25.042 L90.128,43.399 L86.621,43.399 L86.621,24.457 C86.621,19.371 83.698,16.39 78.904,16.39 C73.116,16.39 70.485,21.241 70.485,26.504 L70.485,43.399" id="Fill-5" fill="#FFFFFE"></path>
            <path d="M98.951,17.266 L93.105,17.266 L93.105,14.052 L98.951,14.052 L98.951,7.796 L102.458,6.275 L102.458,14.052 L109.124,14.052 L109.124,17.266 L102.458,17.266 L102.458,36.91 C102.4,39.6 103.803,41.061 106.492,41.061 C107.545,41.061 108.597,41.002 109.533,40.71 L109.533,43.75 C108.422,44.042 107.136,44.275 105.966,44.275 C98.542,44.275 98.951,39.54 98.951,35.564 L98.951,17.266" id="Fill-6" fill="#FFFFFE"></path>
            <path d="M121.692,41.061 C129.351,41.061 130.812,34.746 130.461,28.608 C125.492,28.784 115.086,27.848 115.086,35.215 C115.086,39.19 118.126,41.061 121.692,41.061 Z M130.461,22.703 C130.111,17.909 127.655,16.39 123.504,16.39 C119.822,16.39 116.781,17.5 116.313,21.476 L112.572,21.476 C113.449,15.454 117.951,13.175 123.563,13.175 C130.052,13.175 134.085,16.155 133.97,22.878 L133.97,36.792 C133.911,39.072 134.145,41.411 134.262,43.399 L130.637,43.399 L130.52,39.072 L130.403,39.072 L130.228,39.482 C128.941,41.937 125.025,44.275 121.049,44.275 C115.612,44.275 111.286,40.942 111.286,35.215 C111.286,31.239 113.683,28.198 117.19,26.738 C121.107,25.042 126.193,25.626 130.461,25.393 L130.461,22.703 L130.461,22.703 Z" id="Fill-7" fill="#FFFFFE"></path>
            <polygon id="Fill-8" fill="#FFFFFE" points="141.103 43.398 144.611 43.398 144.611 1.189 141.103 1.189"></polygon>
            <g id="Group-12" transform="translate(150.000000, 0.000000)" fill="#39A1CE">
                <path d="M16.261,21.032 L16.261,37.069 L16.38,41.832 L20.962,41.832 C23.073,41.832 25.304,41.592 27.233,39.662 C29.765,37.129 29.706,32.789 29.706,31.281 C29.706,26.639 28.679,24.167 26.812,22.721 C25.425,21.634 23.013,21.032 19.335,21.032 L16.261,21.032 Z M16.38,2.825 L16.319,6.985 L16.261,19.283 L20.239,19.283 C22.892,19.283 25.001,18.439 25.847,17.354 C26.87,16.149 27.413,14.158 27.413,11.024 C27.413,4.212 25.304,2.825 20.661,2.825 L16.38,2.825 Z M0.947,1.015 L24.821,1.015 C27.233,1.015 29.886,1.136 32.356,2.282 C36.938,4.452 37.06,9.034 37.06,10.001 C37.06,12.409 36.216,14.642 34.468,16.39 C31.634,19.345 27.895,19.767 25.183,20.068 C28.138,20.188 32.839,20.43 36.577,24.167 C38.024,25.615 39.774,28.025 39.774,31.943 C39.774,34.719 38.868,37.613 36.577,39.902 C33.142,43.34 28.8,43.58 25.062,43.58 L0.947,43.58 L0.947,42.012 L6.794,42.012 L6.915,36.045 L6.915,7.588 L6.794,2.583 L0.947,2.583 L0.947,1.015 L0.947,1.015 Z" id="Fill-9"></path>
                <path d="M47.298,1.015 C50.13,1.015 50.976,0.957 53.628,0.776 L53.507,7.467 L53.507,37.19 L53.628,42.012 L57.788,42.012 L57.788,43.58 L40.183,43.58 L40.183,42.012 L44.706,42.012 L44.825,37.19 L44.825,7.467 L44.706,2.583 L40.183,2.583 L40.183,1.015 L47.298,1.015" id="Fill-11"></path>
            </g>
            <path d="M212.657,14.401 C215.792,14.401 216.757,14.339 219.712,14.158 L219.591,19.767 L219.591,33.271 C219.591,35.561 219.712,37.311 220.194,38.518 C220.978,40.385 222.604,41.231 224.595,41.231 C226.343,41.231 227.851,40.565 228.997,39.481 C231.347,37.129 231.286,33.994 231.286,31.342 L231.286,20.61 L231.167,15.969 L226.704,15.969 L226.704,14.401 L231.89,14.401 C235.386,14.401 236.411,14.339 239.907,14.158 L239.786,19.767 L239.786,36.467 L239.907,41.953 L244.249,41.953 L244.249,43.58 L239.667,43.58 C235.808,43.58 234.421,43.642 231.528,43.822 L231.347,39.18 C230.081,40.748 227.126,44.244 220.313,44.244 C215.854,44.244 213.02,42.557 211.874,40.264 C210.97,38.576 211.03,36.405 211.03,34.6 L211.03,20.368 L210.909,15.969 L206.509,15.969 L206.509,14.401 L212.657,14.401" id="Fill-13" fill="#39A1CE"></path>
            <path d="M264.206,25.492 C264.267,20.792 264.327,15.245 258.899,15.245 C253.776,15.245 253.534,20.368 253.354,25.492 L264.206,25.492 Z M273.009,35.139 C271.44,38.096 268.185,44.244 259.083,44.244 C249.735,44.244 244.009,37.069 244.009,28.688 C244.009,20.67 249.437,13.556 259.142,13.556 C265.171,13.556 268.487,16.149 269.935,17.656 C273.251,21.093 273.37,24.709 273.431,27.303 L253.294,27.303 C253.354,32.426 253.474,37.069 256.007,39.723 C257.394,41.168 259.382,41.771 261.372,41.771 C267.884,41.771 270.354,36.286 271.198,34.357 L273.009,35.139 L273.009,35.139 Z" id="Fill-14" fill="#39A1CE"></path>
            <path d="M275.651,18.044 C276.657,18.044 277.466,17.249 277.466,16.2 C277.466,15.165 276.657,14.376 275.651,14.376 C274.64,14.376 273.835,15.165 273.835,16.219 C273.835,17.249 274.64,18.044 275.651,18.044 Z M275.651,14.065 C276.827,14.065 277.813,14.986 277.813,16.2 C277.813,17.433 276.827,18.354 275.651,18.354 C274.474,18.354 273.485,17.433 273.485,16.219 C273.485,14.986 274.474,14.065 275.651,14.065 Z M275.198,16.087 L275.614,16.087 C275.962,16.087 276.29,16.072 276.29,15.679 C276.29,15.333 275.999,15.294 275.731,15.294 L275.198,15.294 L275.198,16.087 Z M274.847,14.982 L275.757,14.982 C276.351,14.982 276.638,15.2 276.638,15.698 C276.638,16.139 276.347,16.331 275.978,16.372 L276.692,17.468 L276.319,17.468 L275.638,16.401 L275.198,16.401 L275.198,17.468 L274.847,17.468 L274.847,14.982 L274.847,14.982 Z" id="Fill-15" fill="#39A1CE"></path>
            <g id="Group-19" transform="translate(0.000000, 57.000000)">
                <mask id="mask-4" fill="white">
                    <use xlink:href="#path-3"></use>
                </mask>
                <g id="Clip-17"></g>
                <path d="M2.91,20.58 L2.91,8.064 L0.082,8.064 L0.082,6.524 L2.91,6.524 L2.91,3.528 C2.91,1.12 3.89,0.028 6.298,0.028 C6.83,0.028 7.39,0.225 7.894,0.336 L7.894,1.68 C7.558,1.624 7.194,1.568 6.858,1.568 C4.562,1.568 4.506,2.716 4.59,4.732 L4.59,6.524 L7.782,6.524 L7.782,8.064 L4.59,8.064 L4.59,20.58 L2.91,20.58" id="Fill-16" fill="#FFFFFE" mask="url(#mask-4)"></path>
                <path d="M16.014,7.644 C12.626,7.644 11.282,10.948 11.282,13.552 C11.282,16.156 12.626,19.46 16.014,19.46 C19.402,19.46 20.746,16.156 20.746,13.552 C20.746,10.948 19.402,7.644 16.014,7.644 Z M22.566,13.552 C22.566,17.248 20.494,21 16.014,21 C11.534,21 9.462,17.248 9.462,13.552 C9.462,9.857 11.534,6.105 16.014,6.105 C20.494,6.105 22.566,9.857 22.566,13.552 L22.566,13.552 Z" id="Fill-18" fill="#FFFFFE" mask="url(#mask-4)"></path>
            </g>
            <path d="M27.718,77.58 L26.038,77.58 L26.038,66.689 C26.066,65.596 25.954,64.477 25.898,63.524 L27.634,63.524 L27.718,65.596 L27.774,65.596 C28.278,64.168 29.538,63.16 30.938,63.105 C31.498,63.076 32.058,63.105 32.618,63.132 L32.618,64.756 C32.282,64.729 31.918,64.644 31.582,64.644 C29.09,64.644 27.774,66.437 27.718,69.124 L27.718,77.58" id="Fill-20" fill="#FFFFFE"></path>
            <polygon id="Fill-21" fill="#FFFFFE" points="43.902 77.58 45.722 77.58 45.722 57.28 43.902 57.28"></polygon>
            <g id="Group-25" transform="translate(50.000000, 57.000000)">
                <mask id="mask-6" fill="white">
                    <use xlink:href="#path-5"></use>
                </mask>
                <g id="Clip-23"></g>
                <path d="M2.609,20.58 L0.93,20.58 L0.93,9.689 C0.93,8.596 0.845,7.477 0.79,6.524 L2.525,6.524 L2.609,8.596 L2.665,8.652 C3.645,6.916 5.241,6.105 7.061,6.105 C11.653,6.105 12.018,10.164 12.018,11.788 L12.018,20.58 L10.337,20.58 L10.337,11.508 C10.337,9.072 8.937,7.644 6.642,7.644 C3.87,7.644 2.609,9.968 2.609,12.488 L2.609,20.58" id="Fill-22" fill="#FFFFFE" mask="url(#mask-6)"></path>
                <path d="M21.594,7.644 C18.402,7.644 17.366,10.612 17.366,13.3 C17.366,15.904 18.122,19.46 21.342,19.46 C25.01,19.46 26.13,16.408 26.13,13.216 C26.13,10.36 24.87,7.644 21.594,7.644 Z M26.186,18.508 L26.13,18.397 C24.982,20.076 23.274,21 21.314,21 C17.142,21 15.546,17.024 15.546,13.496 C15.546,9.857 17.142,6.105 21.314,6.105 C23.19,6.105 25.15,7 26.13,8.652 L26.186,8.596 L26.186,0.364 L27.866,0.364 L27.866,17.416 C27.866,18.508 27.95,19.628 28.006,20.58 L26.27,20.58 L26.186,18.508 L26.186,18.508 Z" id="Fill-24" fill="#FFFFFE" mask="url(#mask-6)"></path>
            </g>
            <path d="M82.094,77.58 L83.774,77.58 L83.774,63.524 L82.094,63.524 L82.094,77.58 Z M81.954,59.464 L83.914,59.464 L83.914,57.364 L81.954,57.364 L81.954,59.464 Z" id="Fill-26" fill="#FFFFFE"></path>
            <polyline id="Fill-27" fill="#FFFFFE" points="88.281 63.524 93.125 75.256 97.801 63.524 99.649 63.524 94.077 77.58 92.173 77.58 86.433 63.524 88.281 63.524"></polyline>
            <g id="Group-35" transform="translate(102.000000, 57.000000)">
                <mask id="mask-8" fill="white">
                    <use xlink:href="#path-7"></use>
                </mask>
                <g id="Clip-29"></g>
                <path d="M0.309,20.58 L1.989,20.58 L1.989,6.524 L0.309,6.524 L0.309,20.58 Z M0.169,2.464 L2.129,2.464 L2.129,0.364 L0.169,0.364 L0.169,2.464 Z" id="Fill-28" fill="#FFFFFE" mask="url(#mask-8)"></path>
                <path d="M11.593,7.644 C8.401,7.644 7.365,10.612 7.365,13.3 C7.365,15.904 8.121,19.46 11.341,19.46 C15.009,19.46 16.129,16.408 16.129,13.216 C16.129,10.36 14.869,7.644 11.593,7.644 Z M16.185,18.508 L16.129,18.397 C14.981,20.076 13.273,21 11.313,21 C7.141,21 5.545,17.024 5.545,13.496 C5.545,9.857 7.141,6.105 11.313,6.105 C13.189,6.105 15.149,7 16.129,8.652 L16.185,8.596 L16.185,0.364 L17.865,0.364 L17.865,17.416 C17.865,18.508 17.949,19.628 18.005,20.58 L16.269,20.58 L16.185,18.508 L16.185,18.508 Z" id="Fill-30" fill="#FFFFFE" mask="url(#mask-8)"></path>
                <path d="M31.473,6.524 L33.153,6.524 L33.153,17.416 C33.153,18.508 33.237,19.628 33.292,20.58 L31.557,20.58 L31.473,18.508 L31.416,18.452 C30.437,20.189 28.841,21 27.02,21 C22.429,21 22.064,16.94 22.064,15.316 L22.064,6.524 L23.745,6.524 L23.745,15.596 C23.745,18.032 25.145,19.46 27.44,19.46 C30.213,19.46 31.473,17.136 31.473,14.616 L31.473,6.524" id="Fill-31" fill="#FFFFFE" mask="url(#mask-8)"></path>
                <path d="M41.385,19.46 C45.053,19.46 45.752,16.437 45.584,13.496 C43.205,13.58 38.221,13.132 38.221,16.66 C38.221,18.564 39.677,19.46 41.385,19.46 Z M45.584,10.668 C45.416,8.372 44.241,7.644 42.252,7.644 C40.489,7.644 39.033,8.176 38.809,10.08 L37.017,10.08 C37.437,7.196 39.593,6.105 42.281,6.105 C45.389,6.105 47.32,7.532 47.265,10.752 L47.265,17.416 C47.236,18.508 47.349,19.628 47.404,20.58 L45.668,20.58 L45.612,18.508 L45.557,18.508 L45.473,18.704 C44.856,19.88 42.98,21 41.077,21 C38.473,21 36.4,19.404 36.4,16.66 C36.4,14.756 37.548,13.3 39.229,12.601 C41.104,11.788 43.541,12.068 45.584,11.956 L45.584,10.668 L45.584,10.668 Z" id="Fill-32" fill="#FFFFFE" mask="url(#mask-8)"></path>
                <polygon id="Fill-33" fill="#FFFFFE" mask="url(#mask-8)" points="51.661 20.58 53.34 20.58 53.34 0.364 51.661 0.364"></polygon>
                <path d="M62.524,6.105 C65.185,6.105 67.424,7.028 67.648,9.996 L65.828,9.996 C65.66,8.232 64.092,7.644 62.356,7.644 C60.789,7.644 59.192,8.26 59.192,9.912 C59.192,11.984 61.908,11.788 65.716,13.132 C67.172,13.636 68.096,14.896 68.096,16.408 C68.096,19.572 65.156,21 62.188,21 C59.752,21 56.952,19.853 56.896,16.744 L58.716,16.744 C58.856,18.844 60.705,19.46 62.608,19.46 C64.4,19.46 66.276,18.62 66.276,16.66 C66.276,14.645 64.064,14.308 61.824,13.804 C59.612,13.273 57.373,12.628 57.373,10.024 C57.373,7.112 60.061,6.105 62.524,6.105" id="Fill-34" fill="#FFFFFE" mask="url(#mask-8)"></path>
            </g>
            <path d="M171.623,60.893 C171.059,60.893 170.582,60.479 170.566,59.896 L170.91,59.896 C170.92,60.44 171.324,60.598 171.801,60.598 C172.197,60.598 172.654,60.366 172.654,59.915 C172.654,59.561 172.398,59.394 172.1,59.296 C171.525,59.104 170.65,58.923 170.65,58.155 C170.65,57.536 171.221,57.198 171.781,57.198 C172.246,57.198 172.855,57.36 172.936,58.043 L172.592,58.043 C172.582,57.606 172.184,57.493 171.82,57.493 C171.451,57.493 170.994,57.679 170.994,58.112 C170.994,59.118 172.998,58.662 172.998,59.886 C172.998,60.657 172.336,60.893 171.623,60.893" id="Fill-36" fill="#FFFFFE"></path>
            <polyline id="Fill-37" fill="#FFFFFE" points="173.76 60.819 173.76 57.272 174.271 57.272 175.604 60.362 176.963 57.272 177.449 57.272 177.449 60.819 177.131 60.819 177.131 57.542 177.121 57.542 175.766 60.819 175.445 60.819 174.09 57.556 174.08 57.556 174.08 60.819 173.76 60.819"></polyline>
            <path d="M189.573,67.15 L193.979,67.15 C196.685,67.15 199.083,66.286 199.083,63.135 C199.083,59.982 196.685,59.118 193.979,59.118 L189.573,59.118 L189.573,67.15 Z M187.76,77.582 L187.76,57.444 L192.808,57.444 C196.685,57.361 201.036,58.337 201.036,63.135 C201.036,67.932 196.685,68.907 192.808,68.824 L189.573,68.824 L189.573,77.582 L187.76,77.582 L187.76,77.582 Z" id="Fill-38" fill="#FFFFFE"></path>
            <g id="Group-42" transform="translate(204.000000, 57.000000)">
                <mask id="mask-10" fill="white">
                    <use xlink:href="#path-9"></use>
                </mask>
                <g id="Clip-40"></g>
                <path d="M2.618,10.15 L7.025,10.15 C9.73,10.15 12.129,9.286 12.129,6.135 C12.129,2.982 9.73,2.118 7.025,2.118 L2.618,2.118 L2.618,10.15 Z M0.805,20.582 L0.805,0.444 L5.854,0.444 C9.73,0.361 14.081,1.337 14.081,6.135 C14.081,10.932 9.73,11.907 5.854,11.824 L2.618,11.824 L2.618,20.582 L0.805,20.582 L0.805,20.582 Z" id="Fill-39" fill="#FFFFFE" mask="url(#mask-10)"></path>
                <path d="M25.911,19.326 C30.931,19.326 32.939,14.92 32.939,10.513 C32.939,6.107 30.931,1.7 25.911,1.7 C20.891,1.7 18.883,6.107 18.883,10.513 C18.883,14.92 20.891,19.326 25.911,19.326 Z M25.911,21 C20.138,21 16.93,16.788 16.93,10.513 C16.93,4.238 20.138,0.026 25.911,0.026 C31.685,0.026 34.892,4.238 34.892,10.513 C34.892,16.788 31.685,21 25.911,21 L25.911,21 Z" id="Fill-41" fill="#FFFFFE" mask="url(#mask-10)"></path>
            </g>
        </g>
    </g>
</svg>