<?xml version="1.0" encoding="UTF-8"?>
<svg width="579px" height="161px" viewBox="0 0 579 161" version="1.1" xmlns="http://www.w3.org/2000/svg" xmlns:xlink="http://www.w3.org/1999/xlink">
    <!-- Generator: Sketch 54.1 (76490) - https://sketchapp.com -->
    <title>Blue Cross NC / Products / Dental Blue for Individuals PPO / W</title>
    <desc>Created with Sketch.</desc>
    <defs>
        <polygon id="path-1" points="0.06 0.917 69.084 0.917 69.084 88.886 0.06 88.886"></polygon>
        <polygon id="path-3" points="0.171 0.292 47.03 0.292 47.03 43.94 0.171 43.94"></polygon>
        <polygon id="path-5" points="0.852 0.992 57.574 0.992 57.574 43.94 0.852 43.94"></polygon>
        <polygon id="path-7" points="0.934 0.992 142.503 0.992 142.503 43.94 0.934 43.94"></polygon>
        <polygon id="path-9" points="0.841 0.288 71.882 0.288 71.882 43.94 0.841 43.94"></polygon>
    </defs>
    <g id="Blue-Cross-NC-/-Products-/-Dental-Blue-for-Individuals-PPO-/-W" stroke="none" stroke-width="1" fill="none" fill-rule="evenodd">
        <g id="DentalBlue-Individuals-PPO-RGB-W">
            <g id="Group-3">
                <mask id="mask-2" fill="white">
                    <use xlink:href="#path-1"></use>
                </mask>
                <g id="Clip-2"></g>
                <path d="M25.708,81.577 C50.442,81.577 60.555,67.078 60.555,44.902 C60.555,18.949 45.326,7.497 20.348,8.23 L7.919,8.23 L7.919,81.577 L25.708,81.577 Z M23.759,0.917 C52.636,0.917 69.084,15.781 69.084,44.902 C69.084,74.022 52.636,88.886 23.759,88.886 L0,88.886 L0,0.917 L23.759,0.917 L23.759,0.917 Z" id="Fill-1" fill="#FFFFFE" mask="url(#mask-2)"></path>
            </g>
            <path d="M123.901,53.309 C123.048,41.49 116.712,32.596 104.04,32.596 C92.099,32.596 85.765,42.587 84.789,53.309 L123.901,53.309 Z M84.545,60.009 C84.789,73.048 90.76,84.014 105.745,84.014 C114.396,84.014 121.585,77.798 123.414,69.392 L131.088,69.392 C127.312,84.014 118.174,90.714 103.431,90.714 C85.156,90.714 76.626,74.997 76.626,58.304 C76.626,41.733 85.765,25.896 103.918,25.896 C124.388,25.896 131.82,40.88 131.82,60.009 L84.545,60.009 L84.545,60.009 Z" id="Fill-4" fill="#FFFFFE"></path>
            <path d="M146.901,88.886 L139.59,88.886 L139.59,41.49 C139.59,36.74 139.226,31.863 138.981,27.724 L146.535,27.724 L146.901,36.74 L147.144,36.98 C151.408,29.429 158.354,25.896 166.274,25.896 C186.256,25.896 187.839,43.56 187.839,50.629 L187.839,88.886 L180.529,88.886 L180.529,49.41 C180.529,38.81 174.437,32.596 164.446,32.596 C152.384,32.596 146.901,42.707 146.901,53.675 L146.901,88.886" id="Fill-5" fill="#FFFFFE"></path>
            <path d="M206.228,34.422 L194.043,34.422 L194.043,27.724 L206.228,27.724 L206.228,14.686 L213.537,11.517 L213.537,27.724 L227.428,27.724 L227.428,34.422 L213.537,34.422 L213.537,75.364 C213.416,80.969 216.339,84.014 221.944,84.014 C224.138,84.014 226.331,83.892 228.281,83.283 L228.281,89.618 C225.965,90.227 223.285,90.714 220.847,90.714 C205.374,90.714 206.228,80.845 206.228,72.559 L206.228,34.422" id="Fill-6" fill="#FFFFFE"></path>
            <path d="M253.623,84.014 C269.583,84.014 272.63,70.853 271.898,58.062 C261.542,58.428 239.854,56.476 239.854,71.83 C239.854,80.117 246.19,84.014 253.623,84.014 Z M271.898,45.754 C271.168,35.763 266.049,32.596 257.399,32.596 C249.725,32.596 243.387,34.91 242.413,43.196 L234.615,43.196 C236.443,30.646 245.826,25.896 257.522,25.896 C271.045,25.896 279.452,32.108 279.21,46.118 L279.21,75.117 C279.087,79.869 279.575,84.744 279.819,88.886 L272.265,88.886 L272.021,79.869 L271.778,79.869 L271.413,80.723 C268.731,85.841 260.568,90.714 252.283,90.714 C240.95,90.714 231.935,83.767 231.935,71.83 C231.935,63.545 236.931,57.207 244.24,54.164 C252.404,50.629 263.003,51.846 271.898,51.36 L271.898,45.754 L271.898,45.754 Z" id="Fill-7" fill="#FFFFFE"></path>
            <polygon id="Fill-8" fill="#FFFFFE" points="294.076 88.886 301.388 88.886 301.388 0.917 294.076 0.917"></polygon>
            <g id="Group-12" transform="translate(314.000000, 0.000000)" fill="#FFFFFE">
                <path d="M32.509,42.272 L32.509,75.696 L32.758,85.621 L42.307,85.621 C46.707,85.621 51.356,85.12 55.378,81.099 C60.653,75.82 60.531,66.775 60.531,63.632 C60.531,53.956 58.39,48.805 54.499,45.791 C51.608,43.526 46.582,42.272 38.916,42.272 L32.509,42.272 Z M32.758,4.326 L32.631,12.996 L32.509,38.627 L40.801,38.627 C46.329,38.627 50.725,36.868 52.488,34.607 C54.621,32.096 55.752,27.946 55.752,21.414 C55.752,7.216 51.356,4.326 41.68,4.326 L32.758,4.326 Z M0.593,0.552 L50.351,0.552 C55.378,0.552 60.906,0.805 66.055,3.194 C75.605,7.717 75.857,17.266 75.857,19.281 C75.857,24.3 74.098,28.953 70.455,32.596 C64.549,38.755 56.758,39.634 51.103,40.263 C57.263,40.513 67.061,41.016 74.851,48.805 C77.868,51.824 81.515,56.846 81.515,65.012 C81.515,70.797 79.626,76.829 74.851,81.6 C67.691,88.764 58.643,89.265 50.851,89.265 L0.593,89.265 L0.593,85.995 L12.78,85.995 L13.031,73.56 L13.031,14.252 L12.78,3.821 L0.593,3.821 L0.593,0.552 L0.593,0.552 Z" id="Fill-9"></path>
                <path d="M97.195,0.552 C103.097,0.552 104.86,0.432 110.387,0.056 L110.135,14 L110.135,75.948 L110.387,85.995 L119.058,85.995 L119.058,89.265 L82.366,89.265 L82.366,85.995 L91.793,85.995 L92.041,75.948 L92.041,14 L91.793,3.821 L82.366,3.821 L82.366,0.552 L97.195,0.552" id="Fill-11"></path>
            </g>
            <path d="M443.206,28.452 C449.739,28.452 451.749,28.322 457.909,27.946 L457.656,39.634 L457.656,67.78 C457.656,72.551 457.909,76.198 458.914,78.714 C460.546,82.605 463.937,84.367 468.085,84.367 C471.728,84.367 474.871,82.982 477.26,80.72 C482.157,75.82 482.031,69.286 482.031,63.758 L482.031,41.393 L481.783,31.719 L472.481,31.719 L472.481,28.452 L483.289,28.452 C490.575,28.452 492.712,28.322 499.999,27.946 L499.746,39.634 L499.746,74.44 L499.999,85.873 L509.047,85.873 L509.047,89.265 L499.498,89.265 C491.455,89.265 488.564,89.393 482.536,89.77 L482.157,80.094 C479.519,83.363 473.361,90.649 459.163,90.649 C449.87,90.649 443.962,87.132 441.574,82.353 C439.689,78.836 439.815,74.311 439.815,70.548 L439.815,40.888 L439.563,31.719 L430.392,31.719 L430.392,28.452 L443.206,28.452" id="Fill-13" fill="#FFFFFE"></path>
            <path d="M550.64,51.567 C550.766,41.771 550.893,30.211 539.581,30.211 C528.904,30.211 528.399,40.888 528.024,51.567 L550.64,51.567 Z M568.987,71.672 C565.717,77.834 558.932,90.649 539.963,90.649 C520.481,90.649 508.546,75.696 508.546,58.228 C508.546,41.517 519.859,26.69 540.085,26.69 C552.651,26.69 559.563,32.096 562.58,35.236 C569.491,42.398 569.74,49.935 569.866,55.341 L527.898,55.341 C528.024,66.017 528.272,75.696 533.552,81.225 C536.442,84.238 540.585,85.495 544.734,85.495 C558.305,85.495 563.455,74.063 565.212,70.041 L568.987,71.672 L568.987,71.672 Z" id="Fill-14" fill="#FFFFFE"></path>
            <path d="M574.494,36.044 C576.59,36.044 578.275,34.387 578.275,32.201 C578.275,30.044 576.59,28.399 574.494,28.399 C572.385,28.399 570.708,30.044 570.708,32.24 C570.708,34.387 572.385,36.044 574.494,36.044 Z M574.494,27.752 C576.944,27.752 579,29.672 579,32.201 C579,34.77 576.944,36.691 574.494,36.691 C572.04,36.691 569.979,34.77 569.979,32.24 C569.979,29.672 572.04,27.752 574.494,27.752 Z M573.549,31.965 L574.417,31.965 C575.141,31.965 575.825,31.935 575.825,31.115 C575.825,30.394 575.218,30.313 574.661,30.313 L573.549,30.313 L573.549,31.965 Z M572.817,29.663 L574.713,29.663 C575.951,29.663 576.549,30.117 576.549,31.155 C576.549,32.073 575.943,32.474 575.173,32.559 L576.664,34.843 L575.886,34.843 L574.465,32.62 L573.549,32.62 L573.549,34.843 L572.817,34.843 L572.817,29.663 L572.817,29.663 Z" id="Fill-15" fill="#FFFFFE"></path>
            <g id="Group-19" transform="translate(0.000000, 117.000000)">
                <mask id="mask-4" fill="white">
                    <use xlink:href="#path-3"></use>
                </mask>
                <g id="Clip-17"></g>
                <path d="M6.064,43.125 L6.064,17.041 L0.171,17.041 L0.171,13.831 L6.064,13.831 L6.064,7.587 C6.064,2.568 8.106,0.292 13.125,0.292 C14.234,0.292 15.401,0.701 16.451,0.934 L16.451,3.734 C15.751,3.618 14.993,3.502 14.293,3.502 C9.508,3.502 9.391,5.894 9.566,10.096 L9.566,13.831 L16.218,13.831 L16.218,17.041 L9.566,17.041 L9.566,43.125 L6.064,43.125" id="Fill-16" fill="#FFFFFE" mask="url(#mask-4)"></path>
                <path d="M33.375,16.165 C26.314,16.165 23.513,23.051 23.513,28.477 C23.513,33.906 26.314,40.79 33.375,40.79 C40.436,40.79 43.238,33.906 43.238,28.477 C43.238,23.051 40.436,16.165 33.375,16.165 Z M47.03,28.477 C47.03,36.181 42.712,44 33.375,44 C24.039,44 19.72,36.181 19.72,28.477 C19.72,20.776 24.039,12.956 33.375,12.956 C42.712,12.956 47.03,20.776 47.03,28.477 L47.03,28.477 Z" id="Fill-18" fill="#FFFFFE" mask="url(#mask-4)"></path>
            </g>
            <path d="M57.768,160.125 L54.267,160.125 L54.267,137.425 C54.325,135.148 54.091,132.816 53.975,130.831 L57.592,130.831 L57.768,135.148 L57.884,135.148 C58.935,132.172 61.56,130.073 64.479,129.956 C65.646,129.897 66.812,129.956 67.979,130.013 L67.979,133.398 C67.279,133.341 66.521,133.165 65.821,133.165 C60.627,133.165 57.884,136.901 57.768,142.501 L57.768,160.125" id="Fill-20" fill="#FFFFFE"></path>
            <polygon id="Fill-21" fill="#FFFFFE" points="91.497 160.125 95.29 160.125 95.29 117.818 91.497 117.818"></polygon>
            <g id="Group-25" transform="translate(105.000000, 117.000000)">
                <mask id="mask-6" fill="white">
                    <use xlink:href="#path-5"></use>
                </mask>
                <g id="Clip-23"></g>
                <path d="M4.645,43.125 L1.144,43.125 L1.144,20.425 C1.144,18.148 0.968,15.816 0.852,13.831 L4.47,13.831 L4.645,18.148 L4.762,18.266 C6.804,14.648 10.13,12.956 13.924,12.956 C23.494,12.956 24.253,21.416 24.253,24.801 L24.253,43.125 L20.751,43.125 L20.751,24.217 C20.751,19.141 17.833,16.165 13.049,16.165 C7.271,16.165 4.645,21.008 4.645,26.261 L4.645,43.125" id="Fill-22" fill="#FFFFFE" mask="url(#mask-6)"></path>
                <path d="M44.211,16.165 C37.559,16.165 35.399,22.351 35.399,27.952 C35.399,33.38 36.975,40.79 43.686,40.79 C51.331,40.79 53.665,34.43 53.665,27.777 C53.665,21.825 51.038,16.165 44.211,16.165 Z M53.781,38.806 L53.665,38.574 C51.272,42.074 47.712,44 43.628,44 C34.932,44 31.606,35.714 31.606,28.361 C31.606,20.776 34.932,12.956 43.628,12.956 C47.538,12.956 51.623,14.823 53.665,18.266 L53.781,18.148 L53.781,0.992 L57.282,0.992 L57.282,36.531 C57.282,38.806 57.458,41.141 57.574,43.125 L53.956,43.125 L53.781,38.806 L53.781,38.806 Z" id="Fill-24" fill="#FFFFFE" mask="url(#mask-6)"></path>
            </g>
            <path d="M171.094,160.125 L174.595,160.125 L174.595,130.831 L171.094,130.831 L171.094,160.125 Z M170.802,122.368 L174.887,122.368 L174.887,117.992 L170.802,117.992 L170.802,122.368 Z" id="Fill-26" fill="#FFFFFE"></path>
            <polyline id="Fill-27" fill="#FFFFFE" points="183.99 130.831 194.085 155.281 203.83 130.831 207.682 130.831 196.069 160.125 192.1 160.125 180.138 130.831 183.99 130.831"></polyline>
            <g id="Group-35" transform="translate(212.000000, 117.000000)">
                <mask id="mask-8" fill="white">
                    <use xlink:href="#path-7"></use>
                </mask>
                <g id="Clip-29"></g>
                <path d="M1.226,43.125 L4.727,43.125 L4.727,13.831 L1.226,13.831 L1.226,43.125 Z M0.934,5.368 L5.019,5.368 L5.019,0.992 L0.934,0.992 L0.934,5.368 Z" id="Fill-28" fill="#FFFFFE" mask="url(#mask-8)"></path>
                <path d="M24.742,16.165 C18.09,16.165 15.931,22.351 15.931,27.952 C15.931,33.38 17.506,40.79 24.217,40.79 C31.862,40.79 34.196,34.43 34.196,27.777 C34.196,21.825 31.57,16.165 24.742,16.165 Z M34.312,38.806 L34.196,38.574 C31.804,42.074 28.244,44 24.159,44 C15.463,44 12.138,35.714 12.138,28.361 C12.138,20.776 15.463,12.956 24.159,12.956 C28.069,12.956 32.154,14.823 34.196,18.266 L34.312,18.148 L34.312,0.992 L37.814,0.992 L37.814,36.531 C37.814,38.806 37.989,41.141 38.106,43.125 L34.487,43.125 L34.312,38.806 L34.312,38.806 Z" id="Fill-30" fill="#FFFFFE" mask="url(#mask-8)"></path>
                <path d="M66.174,13.831 L69.676,13.831 L69.676,36.531 C69.676,38.806 69.852,41.141 69.967,43.125 L66.35,43.125 L66.174,38.806 L66.058,38.691 C64.015,42.309 60.689,44 56.896,44 C47.326,44 46.566,35.539 46.566,32.155 L46.566,13.831 L50.068,13.831 L50.068,32.737 C50.068,37.815 52.986,40.79 57.771,40.79 C63.549,40.79 66.174,35.947 66.174,30.696 L66.174,13.831" id="Fill-31" fill="#FFFFFE" mask="url(#mask-8)"></path>
                <path d="M86.833,40.79 C94.477,40.79 95.936,34.49 95.585,28.361 C90.625,28.536 80.238,27.602 80.238,34.955 C80.238,38.924 83.273,40.79 86.833,40.79 Z M95.585,22.467 C95.235,17.682 92.785,16.165 88.641,16.165 C84.965,16.165 81.931,17.273 81.464,21.241 L77.729,21.241 C78.604,15.232 83.098,12.956 88.7,12.956 C95.178,12.956 99.203,15.932 99.087,22.642 L99.087,36.531 C99.028,38.806 99.262,41.141 99.378,43.125 L95.76,43.125 L95.644,38.806 L95.527,38.806 L95.353,39.215 C94.068,41.665 90.159,44 86.19,44 C80.764,44 76.445,40.674 76.445,34.955 C76.445,30.987 78.837,27.952 82.339,26.494 C86.249,24.801 91.326,25.386 95.585,25.152 L95.585,22.467 L95.585,22.467 Z" id="Fill-32" fill="#FFFFFE" mask="url(#mask-8)"></path>
                <polygon id="Fill-33" fill="#FFFFFE" mask="url(#mask-8)" points="108.249 43.125 111.749 43.125 111.749 0.992 108.249 0.992"></polygon>
                <path d="M130.891,12.956 C136.435,12.956 141.103,14.881 141.57,21.067 L137.776,21.067 C137.426,17.391 134.158,16.165 130.54,16.165 C127.273,16.165 123.946,17.448 123.946,20.892 C123.946,25.21 129.606,24.801 137.543,27.602 C140.578,28.653 142.503,31.28 142.503,34.43 C142.503,41.025 136.375,44 130.19,44 C125.113,44 119.277,41.609 119.161,35.13 L122.954,35.13 C123.246,39.506 127.098,40.79 131.065,40.79 C134.8,40.79 138.71,39.04 138.71,34.955 C138.71,30.755 134.1,30.052 129.431,29.002 C124.821,27.895 120.153,26.552 120.153,21.125 C120.153,15.056 125.755,12.956 130.891,12.956" id="Fill-34" fill="#FFFFFE" mask="url(#mask-8)"></path>
            </g>
            <path d="M357.685,125.346 C356.509,125.346 355.516,124.486 355.483,123.268 L356.199,123.268 C356.22,124.404 357.062,124.732 358.056,124.732 C358.882,124.732 359.834,124.249 359.834,123.309 C359.834,122.572 359.301,122.222 358.678,122.019 C357.481,121.619 355.658,121.241 355.658,119.641 C355.658,118.351 356.847,117.647 358.015,117.647 C358.983,117.647 360.254,117.985 360.42,119.407 L359.704,119.407 C359.684,118.495 358.853,118.261 358.096,118.261 C357.327,118.261 356.374,118.648 356.374,119.552 C356.374,121.648 360.551,120.698 360.551,123.247 C360.551,124.856 359.171,125.346 357.685,125.346" id="Fill-36" fill="#FFFFFE"></path>
            <polyline id="Fill-37" fill="#FFFFFE" points="362.138 125.194 362.138 117.799 363.205 117.799 365.981 124.24 368.814 117.799 369.828 117.799 369.828 125.194 369.164 125.194 369.164 118.363 369.144 118.363 366.319 125.194 365.651 125.194 362.826 118.392 362.806 118.392 362.806 125.194 362.138 125.194"></polyline>
            <path d="M395.095,138.389 L404.279,138.389 C409.917,138.389 414.916,136.587 414.916,130.018 C414.916,123.449 409.917,121.648 404.279,121.648 L395.095,121.648 L395.095,138.389 Z M391.317,160.128 L391.317,118.16 L401.837,118.16 C409.917,117.986 418.985,120.021 418.985,130.018 C418.985,140.016 409.917,142.051 401.837,141.876 L395.095,141.876 L395.095,160.128 L391.317,160.128 L391.317,160.128 Z" id="Fill-38" fill="#FFFFFE"></path>
            <g id="Group-42" transform="translate(426.000000, 117.000000)">
                <mask id="mask-10" fill="white">
                    <use xlink:href="#path-9"></use>
                </mask>
                <g id="Clip-40"></g>
                <path d="M4.62,21.389 L13.804,21.389 C19.442,21.389 24.441,19.587 24.441,13.018 C24.441,6.449 19.442,4.648 13.804,4.648 L4.62,4.648 L4.62,21.389 Z M0.841,43.128 L0.841,1.16 L11.363,1.16 C19.442,0.986 28.51,3.021 28.51,13.018 C28.51,23.016 19.442,25.051 11.363,24.876 L4.62,24.876 L4.62,43.128 L0.841,43.128 L0.841,43.128 Z" id="Fill-39" fill="#FFFFFE" mask="url(#mask-10)"></path>
                <path d="M53.165,40.513 C63.628,40.513 67.813,31.328 67.813,22.144 C67.813,12.96 63.628,3.776 53.165,3.776 C42.702,3.776 38.517,12.96 38.517,22.144 C38.517,31.328 42.702,40.513 53.165,40.513 Z M53.165,44 C41.132,44 34.448,35.223 34.448,22.144 C34.448,9.066 41.132,0.288 53.165,0.288 C65.198,0.288 71.882,9.066 71.882,22.144 C71.882,35.223 65.198,44 53.165,44 L53.165,44 Z" id="Fill-41" fill="#FFFFFE" mask="url(#mask-10)"></path>
            </g>
        </g>
    </g>
</svg>