<svg xmlns="http://www.w3.org/2000/svg" xmlns:xlink="http://www.w3.org/1999/xlink" width="230" height="26" viewBox="0 0 230 26">
    <defs>
        <path id="a" d="M.465 25.046h20.666V.089H.465z"/>
    </defs>
    <g fill="none" fill-rule="evenodd">
        <path fill="#00AEEF" d="M7.02.373v6.788H0v10.853h7.02v6.788h11.182v-6.788h7.019V7.16h-7.019V.373z"/>
        <path fill="#FFF" d="M6.14 10.243l4.652.436c.874.116.975.935.744 1.426l-3.189 5.786.006-.008c-1.617-1.227-2.656-3.136-2.656-5.277 0-.831.158-1.63.445-2.363H6.14z"/>
        <path fill="#00AEEF" d="M6.83 11.233l3.523.314c.254.018.274.124.215.266L8.1 16.367a5.633 5.633 0 0 1-1.27-5.134"/>
        <path fill="#FFF" d="M19.12 10.243l-4.652.436c-.874.116-.974.935-.742 1.426l3.187 5.786-.005-.008c1.617-1.227 2.655-3.136 2.655-5.277 0-.831-.157-1.63-.444-2.363h.002zM12.63 5.902c-2.78 0-5.18 1.583-6.283 3.868h4.934c.704-.014 1.015-.412 1.028-.737.018-.385-.044-.507-.373-.917-.358-.46-.11-1.345.695-1.36.804.015 1.052.9.693 1.36-.328.41-.39.532-.373.917.015.325.323.723 1.027.737h4.935c-1.104-2.285-3.502-3.868-6.282-3.868"/>
        <path fill="#00AEEF" d="M18.43 11.233l-3.522.314c-.255.018-.274.124-.216.266l2.468 4.554a5.633 5.633 0 0 0 1.27-5.134M14.289 7.059c.353.567.068 1.305-.266 1.655-.062.06-.03.123.024.14h3.121a6.006 6.006 0 0 0-2.88-1.795"/>
        <path fill="#FFF" d="M12.63 19.312a7.067 7.067 0 0 0 3.812-1.104v.005l-3.379-4.887c-.237-.313-.616-.338-.865 0l-3.38 4.887v-.005a7.071 7.071 0 0 0 3.813 1.104"/>
        <g transform="translate(28.276 .02)">
            <mask id="b" fill="#fff">
                <use xlink:href="#a"/>
            </mask>
            <path fill="#00AEEF" d="M10.798 25.046c4.847-2.592 7.786-6.714 9.3-11.242 1.57-4.698 1.31-10.252-.51-13.715-2.768 1.35-5.553 2.024-8.79 2.033-3.236.012-6.022-.684-8.79-2.033-1.82 3.463-2.082 9.017-.51 13.715 1.514 4.528 4.453 8.65 9.3 11.242" mask="url(#b)"/>
        </g>
        <path fill="#FFF" d="M39.069 22.968c3.99-2.39 6.116-5.816 7.478-9.682 1.208-3.433 1.502-7.448.174-10.582-1.994.661-3.162.866-4.247 1.029-1.01.154-1.916.245-3.395.265h-.01c-1.482-.02-2.384-.111-3.395-.265-1.085-.163-2.254-.368-4.247-1.03-1.329 3.135-1.034 7.15.175 10.583 1.361 3.866 3.487 7.292 7.477 9.682h-.01z"/>
        <path fill="#00AEEF" d="M39.071 22.018c2.698-1.641 5.758-5.367 6.982-10.268.648-2.601.829-5.522-.016-7.842-1.208.314-2.337.57-3.503.723-1.167.153-2.32.262-3.455.27h-.01c-1.136-.008-2.288-.117-3.456-.27-1.166-.153-2.293-.409-3.502-.723-.844 2.32-.664 5.24-.015 7.842 1.222 4.901 4.283 8.627 6.982 10.268h-.007z"/>
        <path fill="#FFF" d="M36.318 6.641c-.912.46-1.227 1.537-.818 2.41.355.75 1.056 1.252 1.871 1.488.408.115.822.146 1.245.166.517.024.985.039 1.481.16.106.026.223.088.277.187.134.239.013.505-.249.58-.005.419-.044 1.263-.044 1.263s2.116-.195 1.76-2.036c-.088-.442-.447-.89-.856-1.095-1.06-.53-2.227-.298-3.314-.64-.367-.116-.876-.291-.976-.688-.04-.16-.004-.479.166-.53.274-.083.578.138.976.227.252.055.501.055.698-.004.088-.023.216-.057.228-.107-.012-.041-.109-.082-.16-.105-.123-.062-.25-.09-.383-.139a5.218 5.218 0 0 1-.66-.302c.21-.04.557-.051.765-.028.168.019.68.014.833-.026.034-.009.11-.036.077-.092-.06-.096-.159-.134-.23-.222-.149-.198-.278-.4-.519-.49-.697-.26-1.473-.326-2.168.023"/>
        <path fill="#FFF" d="M39.85 13.21l.013-2.147s-.285-.057-.685-.083c-.52-.032-.755-.024-.755-.024l-.001.18s-.252.103-.29.167c-.017.03-.082.112-.051.19.204.534.487 1.048.569 1.615.386.054.729.04 1.2.103"/>
        <path fill="#FFF" d="M37.194 12.887c-.093.843.476 1.294 1.105 1.44.497.114.98.137 1.498.197.066.009.204.01.31.054.092.038.137.092.155.147a.2.2 0 0 1-.039.204c-.056.066-.205.104-.205.104l-.03 1.013s.422-.016.764-.216c.323-.188.525-.427.597-.729.083-.35.025-.69-.23-1.032-.169-.223-.464-.385-.764-.487-.617-.208-1.287-.178-1.928-.264-.098-.016-.186-.088-.195-.173-.017-.156.134-.23.134-.23s-.076-.24-.157-.475c-.073-.178-.174-.427-.25-.558a1.24 1.24 0 0 0-.765 1.005"/>
        <path fill="#FFF" d="M39.797 14.76l-.016 1.82-.472-.21-.465-.186-.01-1.519c.419.05.608.053.963.096"/>
        <path fill="#FFF" d="M37.692 15.763c-.256.589.066 1.165.578 1.408.268.128.619.242.908.35.282.106.782.403.82.55.023.087-.084.172-.084.172l-.012.71s.307-.062.534-.242c.211-.17.367-.392.366-.747-.003-.386-.19-.689-.76-1.013-.445-.254-.983-.454-1.4-.632-.06-.026-.115-.142-.093-.212.024-.075.074-.103.074-.103l-.012-.82s-.321.062-.473.148c-.14.08-.35.213-.446.43"/>
        <path fill="#FFF" d="M39.72 18.18c.006-.06-.016-.066-.044-.107-.125-.126-.308-.213-.35-.238-.132-.076-.422-.18-.422-.18s.02 1.862.055 2.823c.008.22.135.276.35.286.267.015.344-.146.347-.24.012-.307.05-1.643.064-2.344M39.924 6.21c.096.07.096.073.126.21.063.296-.005.761.056.967.033.066.101.064.153.037.426-.223.715-.607 1.146-.784.202-.084.764.19.634.597-.061.192-.15.222-.274.344-.251.254-.606.49-.915.82-.21.222-.464.383-.626.632-.052.08-.137.19-.137.19-.598-.119-1.2-.097-1.666-.19l-.002-.672s.476-.077.566-.304c.006-.017-.007-.095-.077-.144a1.26 1.26 0 0 0-.263-.134c.476.071.774.148 1.235.344.03-.049.013-.158-.022-.196-.064-.07-.097-.093-.26-.13-.282-.071-1.048-.162-1.048-.162s.354-.002.65-.05c.145-.023.263-.046.296-.096.034-.071-.029-.179-.13-.284-.067-.069-.144-.142-.2-.213-.069-.093-.184-.262-.31-.37a2.467 2.467 0 0 0-.377-.228s-.047-.36.028-.503c.056-.108.2-.17.276-.134.344.185.682.377 1.141.453"/>
        <path fill="#00AEEF" d="M38.415 6.903c-.088.06-.15.12-.248.137-.196.03-.169-.134-.303-.227-.083-.054-.16.018-.235-.116.284.009.657-.016.871.192-.027-.011-.073.005-.085.014M12.532 14.432c.055-.071.132-.075.196 0l2.332 3.45a6.124 6.124 0 0 1-2.429.498 6.123 6.123 0 0 1-2.43-.498l2.33-3.45c.066-.075.142-.071.197 0"/>
        <path fill="#FFF" d="M38.44 18.868a1.178 1.178 0 0 0-.342.734c-.031.338.05.434.138.616.073.15.242.142.302.002.049-.114-.022-.22.023-.466.032-.184.181-.286.181-.286l-.015-.826s-.131.07-.287.226"/>
        <path fill="#00AEEF" d="M10.972 7.059c-.352.567-.067 1.305.266 1.655.06.06.03.123-.025.14h-3.12a5.994 5.994 0 0 1 2.879-1.795M44.418 23.192v.437h.22c.235 0 .346-.056.346-.213 0-.16-.111-.224-.351-.224h-.215zm.832.2c0 .188-.115.318-.313.359l.306.604h-.29l-.278-.568h-.257v.568h-.258v-1.328h.518c.384 0 .572.124.572.364zm.148-.394a1.044 1.044 0 0 0-.751-.302c-.283 0-.54.1-.732.29-.206.202-.32.46-.32.728 0 .267.112.517.31.713.197.194.463.301.733.301.284 0 .544-.105.753-.298a.95.95 0 0 0 .306-.706.993.993 0 0 0-.3-.726zm.11-.108c.223.22.35.512.35.824a1.1 1.1 0 0 1-.353.822c-.24.226-.545.349-.861.349-.324 0-.623-.123-.854-.352a1.128 1.128 0 0 1-.354-.82c0-.307.133-.607.366-.838.223-.219.516-.332.842-.332.33 0 .633.12.864.347zM20.109 23.192v.437h.217c.236 0 .345-.056.345-.213 0-.16-.109-.224-.351-.224h-.211zm.83.2c0 .188-.115.318-.313.359l.306.604h-.29l-.279-.568h-.254v.568h-.26v-1.328h.517c.385 0 .573.124.573.364zm.147-.394a1.042 1.042 0 0 0-.75-.302 1.037 1.037 0 0 0-1.052 1.018c0 .267.11.517.309.713.199.194.465.301.733.301.287 0 .545-.105.754-.298a.957.957 0 0 0 .307-.706.99.99 0 0 0-.301-.726zm.112-.108c.222.22.35.512.35.824 0 .321-.125.61-.354.822-.238.226-.545.349-.86.349-.324 0-.623-.123-.854-.352a1.126 1.126 0 0 1-.355-.82c0-.307.132-.607.366-.838a1.18 1.18 0 0 1 .842-.332c.33 0 .633.12.865.347z"/>
        <path fill="#FFF" d="M67.202 20.184L59.52 9.324v10.86h-2.908V4.41h2.956l7.329 10.334V4.41h2.907v15.775zM72.025 12.32c0-4.893 3.097-8.186 7.709-8.186 1.89 0 3.355.434 4.56 1.144l-.448 2.857c-1.065-.776-2.389-1.395-3.971-1.395-2.885 0-4.659 2.126-4.659 5.557 0 3.474 1.891 5.532 4.777 5.532 1.512 0 2.883-.524 4.137-1.325l.424 2.606a9.168 9.168 0 0 1-4.798 1.349c-4.752 0-7.731-3.246-7.731-8.138z"/>
        <g fill="#FFF">
            <path d="M103.416 11.824v6.23l.048 1.853h1.75c.806 0 1.658-.094 2.395-.843.968-.984.944-2.673.944-3.258 0-1.805-.392-2.764-1.105-3.326-.53-.425-1.45-.656-2.857-.656h-1.175zm.048-7.079l-.023 1.618-.025 4.78h1.521c1.014 0 1.819-.33 2.142-.75.392-.468.6-1.241.6-2.46 0-2.648-.807-3.188-2.58-3.188h-1.635zm-5.898-.702h9.122c.921 0 1.936.048 2.88.493 1.75.844 1.796 2.623 1.796 3 0 .936-.323 1.802-.99 2.48-1.084 1.151-2.512 1.314-3.548 1.433 1.128.046 2.925.138 4.354 1.593.552.562 1.22 1.498 1.22 3.023 0 1.076-.346 2.203-1.22 3.09-1.314 1.338-2.972 1.431-4.4 1.431h-9.214v-.609H99.8l.046-2.32V6.599L99.8 4.652h-2.235v-.609zM115.28 4.044c1.082 0 1.404-.024 2.417-.094l-.046 2.601v11.551l.046 1.875h1.59v.61h-6.725v-.61h1.727l.046-1.875V6.552l-.046-1.9h-1.727v-.608h2.717zM121.153 9.246c1.198 0 1.565-.023 2.694-.094l-.046 2.178v5.25c0 .89.046 1.57.23 2.037.3.728.922 1.055 1.681 1.055.669 0 1.246-.257 1.682-.68.898-.911.876-2.132.876-3.163v-4.17l-.046-1.806h-1.705v-.607h1.981c1.336 0 1.726-.023 3.063-.094l-.045 2.178v6.491l.045 2.133h1.66v.633h-1.751c-1.475 0-2.005.022-3.11.094l-.07-1.806c-.482.61-1.612 1.97-4.215 1.97-1.703 0-2.786-.657-3.225-1.547-.345-.657-.321-1.5-.321-2.204v-5.53l-.047-1.71H118.8v-.608h2.352zM141.077 13.557c.022-1.828.045-3.982-2.03-3.982-1.957 0-2.048 1.99-2.118 3.982h4.148zm3.363 3.749c-.6 1.147-1.844 3.538-5.321 3.538-3.571 0-5.759-2.79-5.759-6.044 0-3.118 2.073-5.883 5.782-5.883 2.302 0 3.57 1.007 4.121 1.594 1.268 1.336 1.314 2.74 1.337 3.748h-7.693c.022 1.993.069 3.796 1.036 4.827.53.562 1.292.797 2.05.797 2.488 0 3.431-2.131 3.756-2.881l.69.304zM162.466 17.907c-.277.422-.62.82-1.026 1.195-.407.375-.871.7-1.393.972a7.716 7.716 0 0 1-3.616.879c-1.214 0-2.338-.219-3.375-.655a8.215 8.215 0 0 1-2.695-1.817 8.328 8.328 0 0 1-1.785-2.753c-.43-1.062-.645-2.225-.645-3.49 0-1.266.216-2.43.645-3.493a8.328 8.328 0 0 1 1.785-2.753 8.226 8.226 0 0 1 2.695-1.816c1.037-.438 2.161-.655 3.375-.655 1.014 0 2.026.203 3.04.608 1.013.406 1.88 1.078 2.603 2.015l-1.451 1.101c-.169-.265-.4-.53-.691-.796a5.032 5.032 0 0 0-1.002-.703 6.227 6.227 0 0 0-1.21-.492 4.623 4.623 0 0 0-1.289-.188c-1.044 0-1.981.196-2.81.586-.83.391-1.532.914-2.109 1.57a6.969 6.969 0 0 0-1.323 2.285 8.118 8.118 0 0 0-.461 2.73c0 .953.154 1.863.46 2.73a6.958 6.958 0 0 0 1.324 2.284 6.388 6.388 0 0 0 2.11 1.57c.828.39 1.765.586 2.81.586.429 0 .854-.04 1.277-.118.423-.077.837-.21 1.244-.397a4.7 4.7 0 0 0 1.152-.763c.36-.32.694-.721 1.001-1.206l1.36.984zM173.014 15.049c0-.61-.095-1.18-.287-1.711a4.13 4.13 0 0 0-.818-1.383 3.848 3.848 0 0 0-1.278-.925c-.5-.227-1.064-.34-1.693-.34-.63 0-1.195.113-1.693.34a3.72 3.72 0 0 0-1.267.925c-.345.39-.615.852-.807 1.383a5.003 5.003 0 0 0-.287 1.71c0 .61.096 1.18.287 1.711.192.532.462.992.807 1.383.345.39.768.698 1.267.925.498.227 1.063.34 1.693.34.63 0 1.194-.113 1.693-.34a3.848 3.848 0 0 0 1.278-.925 4.13 4.13 0 0 0 .818-1.383 5.003 5.003 0 0 0 .287-1.71m1.659 0c0 .828-.142 1.593-.426 2.295a5.534 5.534 0 0 1-1.187 1.829 5.394 5.394 0 0 1-1.808 1.206c-.698.289-1.47.433-2.314.433a5.94 5.94 0 0 1-2.292-.433 5.387 5.387 0 0 1-1.808-1.206 5.534 5.534 0 0 1-1.186-1.829 6.052 6.052 0 0 1-.427-2.295c0-.829.142-1.594.427-2.297a5.377 5.377 0 0 1 2.994-3.034 5.926 5.926 0 0 1 2.292-.434c.844 0 1.616.144 2.314.434a5.384 5.384 0 0 1 1.808 1.206 5.531 5.531 0 0 1 1.187 1.828c.284.703.426 1.468.426 2.297M177.967 9.565c.03.298.05.59.057.88.008.288.012.581.012.878h.046c.169-.297.384-.57.645-.82s.553-.465.875-.645c.323-.18.664-.32 1.025-.422.36-.1.718-.151 1.071-.151 1.382 0 2.403.37 3.063 1.112.66.743.99 1.801.99 3.176v6.959h-1.519v-6.069c0-1.219-.207-2.151-.622-2.8-.415-.649-1.182-.973-2.303-.973a5.85 5.85 0 0 0-.646.094c-.353.062-.725.234-1.117.516-.391.28-.74.702-1.047 1.264-.308.563-.461 1.344-.461 2.344v5.624h-1.52v-8.553c0-.297-.011-.672-.035-1.125-.023-.452-.05-.882-.08-1.289h1.566zM189.39 9.565c.031.298.05.59.059.88.007.288.011.581.011.878h.046c.169-.297.384-.57.645-.82.262-.25.553-.465.875-.645.323-.18.665-.32 1.026-.422.36-.1.717-.151 1.07-.151 1.382 0 2.403.37 3.064 1.112.66.743.99 1.801.99 3.176v6.959h-1.52v-6.069c0-1.219-.207-2.151-.622-2.8-.414-.649-1.182-.973-2.303-.973a5.85 5.85 0 0 0-.645.094c-.354.062-.725.234-1.118.516-.39.28-.74.702-1.047 1.264-.308.563-.46 1.344-.46 2.344v5.624h-1.521v-8.553c0-.297-.011-.672-.035-1.125-.023-.452-.05-.882-.08-1.289h1.566zM207.749 14.205c0-1.046-.307-1.894-.922-2.543-.614-.648-1.474-.972-2.58-.972-.491 0-.967.098-1.428.293a3.962 3.962 0 0 0-2.039 1.91c-.206.421-.31.859-.31 1.312h7.279zm-7.325 1.265c.046.546.176 1.063.392 1.547.214.484.498.901.852 1.253.353.352.76.63 1.22.833.461.202.96.304 1.498.304.814 0 1.516-.191 2.107-.574.591-.383 1.04-.824 1.348-1.324l1.174.983c-.644.829-1.355 1.423-2.13 1.782a5.876 5.876 0 0 1-2.5.539c-.798 0-1.54-.145-2.222-.434a5.193 5.193 0 0 1-1.762-1.206 5.721 5.721 0 0 1-1.163-1.829 6.065 6.065 0 0 1-.426-2.296c0-.828.138-1.593.414-2.296a5.582 5.582 0 0 1 1.152-1.828 5.271 5.271 0 0 1 3.87-1.64c.813 0 1.543.149 2.187.445a4.859 4.859 0 0 1 1.624 1.184c.438.492.773 1.07 1.002 1.734.231.663.346 1.37.346 2.12v.703h-8.983zM219.565 12.143a3.28 3.28 0 0 0-1.094-1.031 3.051 3.051 0 0 0-1.6-.422c-.63-.015-1.195.086-1.693.305-.5.22-.926.523-1.28.913-.353.391-.621.856-.805 1.395a5.366 5.366 0 0 0-.277 1.745c0 .625.092 1.207.277 1.746.184.54.452 1.004.806 1.394.353.391.78.696 1.279.915.498.218 1.062.32 1.692.304.599 0 1.132-.14 1.601-.422a3.287 3.287 0 0 0 1.094-1.03l1.243.96c-.536.64-1.143 1.113-1.819 1.417a5.387 5.387 0 0 1-2.119.48c-.876.016-1.666-.12-2.372-.41a5.236 5.236 0 0 1-1.808-1.206 5.17 5.17 0 0 1-1.14-1.84 6.643 6.643 0 0 1-.392-2.308c0-.828.13-1.596.391-2.307a5.174 5.174 0 0 1 1.14-1.84 5.236 5.236 0 0 1 1.809-1.206c.706-.29 1.496-.426 2.372-.41a5.4 5.4 0 0 1 2.12.48c.675.303 1.282.777 1.818 1.418l-1.243.96zM229.308 10.971h-3.11v6.467c0 .408.039.738.115.997.077.258.185.456.323.597.138.14.303.238.495.292.193.056.403.082.634.082.26 0 .53-.038.805-.117.278-.078.53-.179.761-.304l.07 1.429c-.57.266-1.253.398-2.05.398a3.76 3.76 0 0 1-.91-.117 2.134 2.134 0 0 1-.864-.444 2.454 2.454 0 0 1-.645-.891c-.17-.375-.254-.867-.254-1.476V10.97h-2.28V9.565h2.28V6.473h1.52v3.092h3.11v1.406z"/>
        </g>
    </g>
</svg>
