<svg xmlns="http://www.w3.org/2000/svg" xmlns:xlink="http://www.w3.org/1999/xlink" width="88" height="26" viewBox="0 0 88 26">
    <defs>
        <path id="a" d="M.483 25.873H21.96V.092H.483z"/>
    </defs>
    <g fill="none" fill-rule="evenodd">
        <path fill="#00AEEF" d="M7.294.385v7.013H0v11.211h7.294v7.012h11.621V18.61h7.294V7.398h-7.294V.385z"/>
        <path fill="#FFF" d="M6.381 10.582l4.834.45c.908.12 1.013.966.773 1.473l-3.314 5.978.007-.009c-1.682-1.267-2.76-3.24-2.76-5.451 0-.86.163-1.684.461-2.441h-.001z"/>
        <path fill="#00AEEF" d="M7.098 11.604l3.66.325c.264.018.285.128.224.275l-2.564 4.703a5.8 5.8 0 0 1-1.32-5.303"/>
        <path fill="#FFF" d="M19.87 10.582l-4.835.45c-.908.12-1.013.966-.771 1.473l3.312 5.978-.005-.009c1.68-1.267 2.759-3.24 2.759-5.451 0-.86-.164-1.684-.462-2.441h.002zM13.126 6.097c-2.89 0-5.383 1.635-6.53 3.995h5.127c.732-.014 1.054-.425 1.068-.761.02-.397-.046-.523-.388-.947-.372-.476-.114-1.39.723-1.405.835.016 1.093.93.72 1.405-.34.424-.405.55-.387.947.015.336.335.747 1.067.761h5.128c-1.147-2.36-3.639-3.995-6.528-3.995"/>
        <path fill="#00AEEF" d="M19.152 11.604l-3.66.325c-.265.018-.284.128-.224.275l2.564 4.703a5.8 5.8 0 0 0 1.32-5.303M14.849 7.292c.367.586.07 1.348-.277 1.71-.064.062-.031.127.025.144h3.244a6.246 6.246 0 0 0-2.992-1.854"/>
        <path fill="#FFF" d="M13.126 19.95c1.462 0 2.824-.42 3.96-1.14v.005l-3.51-5.05c-.247-.322-.64-.348-.9 0l-3.512 5.05v-.005a7.38 7.38 0 0 0 3.962 1.14"/>
        <g transform="translate(29.384 .02)">
            <mask id="b" fill="#fff">
                <use xlink:href="#a"/>
            </mask>
            <path fill="#00AEEF" d="M11.221 25.874c5.037-2.678 8.092-6.936 9.664-11.613 1.633-4.854 1.362-10.592-.53-14.17-2.876 1.395-5.77 2.092-9.134 2.1-3.362.013-6.258-.705-9.134-2.1-1.891 3.578-2.163 9.316-.53 14.17 1.573 4.677 4.627 8.935 9.664 11.613" mask="url(#b)"/>
        </g>
        <path fill="#FFF" d="M40.6 23.727c4.146-2.47 6.355-6.009 7.77-10.002 1.256-3.546 1.562-7.694.182-10.932-2.073.683-3.286.894-4.414 1.063-1.05.16-1.991.253-3.528.274h-.01c-1.54-.021-2.477-.115-3.529-.274-1.127-.169-2.341-.38-4.413-1.063-1.38 3.238-1.074 7.386.182 10.932 1.415 3.993 3.624 7.533 7.77 10.002h-.01z"/>
        <path fill="#00AEEF" d="M40.602 22.746c2.804-1.696 5.984-5.544 7.255-10.608.674-2.687.862-5.704-.016-8.101-1.255.325-2.428.59-3.64.747-1.213.158-2.411.27-3.59.278H40.6c-1.18-.008-2.378-.12-3.591-.278-1.212-.158-2.384-.422-3.64-.747-.877 2.397-.69 5.414-.016 8.101 1.27 5.064 4.451 8.912 7.256 10.608h-.007z"/>
        <path fill="#FFF" d="M37.741 6.86c-.948.475-1.275 1.588-.85 2.49.369.774 1.098 1.294 1.945 1.538.423.118.854.15 1.293.17.537.025 1.024.04 1.54.167.11.026.23.09.287.192.14.247.014.522-.259.6-.005.432-.046 1.304-.046 1.304s2.2-.201 1.829-2.103c-.09-.456-.464-.92-.889-1.132-1.102-.547-2.314-.307-3.444-.661-.38-.119-.91-.3-1.014-.71-.042-.165-.004-.495.172-.548.286-.085.6.143 1.014.235.262.057.521.057.726-.004.091-.024.224-.06.237-.11-.013-.044-.113-.085-.166-.11-.129-.063-.26-.093-.398-.143a5.438 5.438 0 0 1-.686-.312c.217-.042.58-.053.795-.028.174.018.707.013.866-.028.035-.009.113-.037.08-.095-.063-.1-.166-.138-.239-.229-.155-.205-.29-.414-.54-.507-.725-.267-1.531-.336-2.253.025"/>
        <path fill="#FFF" d="M41.412 13.647l.013-2.218s-.297-.06-.712-.087c-.54-.033-.784-.024-.784-.024l-.002.185s-.261.107-.3.174c-.018.03-.086.115-.054.196.212.551.506 1.082.591 1.668.402.056.758.042 1.248.106"/>
        <path fill="#FFF" d="M38.651 13.313c-.097.87.495 1.337 1.148 1.487.518.118 1.02.142 1.558.204.068.009.212.011.32.055.097.04.144.096.163.153a.205.205 0 0 1-.04.21c-.06.068-.214.108-.214.108l-.03 1.046s.438-.016.793-.223c.336-.194.546-.441.62-.753.087-.361.027-.713-.24-1.066-.174-.23-.48-.398-.793-.503-.641-.215-1.337-.184-2.003-.273-.102-.016-.194-.09-.203-.179-.018-.16.14-.238.14-.238s-.08-.247-.164-.49c-.075-.184-.18-.442-.259-.576a1.283 1.283 0 0 0-.796 1.038"/>
        <path fill="#FFF" d="M41.357 15.248l-.017 1.88-.49-.217-.484-.193-.01-1.568c.435.05.632.055 1 .098"/>
        <path fill="#FFF" d="M39.169 16.283c-.267.61.068 1.204.6 1.456.279.132.643.25.944.361.293.11.812.417.852.568.024.09-.087.178-.087.178l-.012.733s.318-.064.554-.25c.22-.175.382-.404.38-.771-.002-.399-.197-.712-.79-1.047-.462-.262-1.02-.468-1.455-.653-.062-.026-.119-.146-.095-.218.024-.078.077-.107.077-.107l-.013-.848s-.334.065-.491.154c-.146.082-.365.22-.464.444"/>
        <path fill="#FFF" d="M41.276 18.78c.007-.06-.016-.068-.046-.11-.13-.13-.32-.22-.363-.246a3.778 3.778 0 0 0-.438-.185s.021 1.922.057 2.916c.008.227.14.285.363.295.278.015.358-.15.36-.247.013-.318.053-1.698.067-2.423M41.488 6.415c.1.072.1.076.13.216.067.307-.003.787.06 1 .033.069.105.066.158.038.443-.23.743-.626 1.192-.81.21-.086.793.197.658.617-.063.199-.156.23-.284.355-.262.263-.63.508-.952.847-.218.23-.481.396-.65.654-.054.082-.142.195-.142.195-.622-.122-1.247-.1-1.732-.196l-.001-.693s.494-.08.587-.314c.007-.018-.007-.1-.08-.15a1.313 1.313 0 0 0-.272-.138c.494.074.803.153 1.283.356.03-.051.013-.164-.023-.203-.066-.073-.1-.097-.271-.134-.293-.074-1.088-.168-1.088-.168s.367-.002.676-.052c.15-.023.273-.047.306-.098.036-.074-.029-.186-.134-.294-.07-.071-.15-.146-.208-.22-.072-.096-.192-.27-.322-.382a2.567 2.567 0 0 0-.393-.236s-.048-.37.03-.52c.058-.11.208-.174.287-.138.357.191.708.39 1.185.468"/>
        <path fill="#00AEEF" d="M39.92 7.131c-.092.062-.156.125-.258.141-.203.032-.175-.138-.315-.234-.086-.056-.167.019-.244-.12.295.01.683-.016.906.2-.028-.013-.076.004-.089.013M13.023 14.909c.057-.074.137-.078.203 0l2.424 3.564c-.77.33-1.627.515-2.524.515-.9 0-1.755-.184-2.526-.515l2.423-3.564c.068-.078.147-.074.203 0"/>
        <path fill="#FFF" d="M39.946 19.491c-.12.12-.32.366-.356.759-.032.349.053.448.144.636.076.156.252.146.314.002.05-.118-.023-.227.024-.482.034-.19.189-.294.189-.294l-.016-.854s-.137.071-.3.233"/>
        <path fill="#00AEEF" d="M11.402 7.292c-.366.586-.07 1.348.276 1.71.064.062.03.127-.025.144H8.41a6.234 6.234 0 0 1 2.99-1.854M46.159 23.958v.452h.228c.244 0 .36-.058.36-.22 0-.165-.116-.232-.365-.232h-.223zm.864.206c0 .195-.12.33-.325.371l.318.624h-.301l-.29-.586h-.266v.586h-.269v-1.37h.538c.4 0 .595.127.595.375zm.153-.406a1.089 1.089 0 0 0-.78-.312c-.293 0-.56.104-.76.299-.215.21-.333.476-.333.753 0 .276.116.533.322.736.205.2.481.311.762.311.296 0 .566-.108.783-.308a.98.98 0 0 0 .317-.73c0-.294-.108-.553-.31-.75zm.115-.111c.232.226.365.529.365.85 0 .333-.13.631-.368.85-.25.233-.567.36-.895.36a1.25 1.25 0 0 1-.887-.363 1.162 1.162 0 0 1-.368-.846c0-.319.138-.628.38-.867.232-.226.537-.343.875-.343.343 0 .658.123.898.359zM20.897 23.958v.452h.226c.245 0 .358-.058.358-.22 0-.165-.113-.232-.365-.232h-.22zm.862.206c0 .195-.12.33-.325.371l.318.624h-.3l-.291-.586h-.264v.586h-.27v-1.37h.538c.399 0 .594.127.594.375zm.153-.406a1.086 1.086 0 0 0-.778-.312c-.295 0-.562.104-.764.299a1.06 1.06 0 0 0-.33.753c0 .276.115.533.32.736.208.2.483.311.763.311.297 0 .566-.108.783-.308a.986.986 0 0 0 .32-.73c0-.294-.11-.553-.314-.75zm.117-.111c.23.226.363.529.363.85 0 .333-.13.631-.367.85a1.3 1.3 0 0 1-.895.36 1.25 1.25 0 0 1-.887-.363 1.16 1.16 0 0 1-.368-.846c0-.319.136-.628.38-.867a1.23 1.23 0 0 1 .875-.343c.343 0 .657.123.899.359z"/>
        <path fill="#FFF" d="M69.836 20.851L61.85 9.632v11.219H58.83V4.555h3.072l7.616 10.676V4.555h3.021v16.296zM74.847 12.728c0-5.055 3.219-8.457 8.01-8.457 1.965 0 3.488.448 4.74 1.181l-.466 2.952c-1.106-.802-2.482-1.441-4.126-1.441-2.999 0-4.841 2.196-4.841 5.74 0 3.59 1.965 5.715 4.963 5.715 1.572 0 2.996-.54 4.3-1.369l.44 2.692a9.569 9.569 0 0 1-4.986 1.394c-4.938 0-8.034-3.353-8.034-8.407z"/>
    </g>
</svg>
