<?xml version="1.0" encoding="UTF-8"?>
<svg width="233px" height="25px" viewBox="0 0 233 25" version="1.1" xmlns="http://www.w3.org/2000/svg" xmlns:xlink="http://www.w3.org/1999/xlink">
    <!-- Generator: Sketch 61.2 (89653) - https://sketch.com -->
    <title>Logo</title>
    <desc>Created with Sketch.</desc>
    <defs>
        <polygon id="path-1" points="0.740691182 0.043 21.4062095 0.043 21.4062095 24.9999 0.740691182 24.9999"></polygon>
        <polygon id="path-3" points="0 25 232.906 25 232.906 0.043 0 0.043"></polygon>
    </defs>
    <g id="Symbols" stroke="none" stroke-width="1" fill="none" fill-rule="evenodd">
        <g id="Brand/Full/Regular" transform="translate(0.000000, -1.000000)">
            <g id="Logo">
                <polygon id="Fill-1" fill="#00AEEF" points="7.0191 1.2649 7.0191 8.0529 0.0001 8.0529 0.0001 18.9059 7.0191 18.9059 7.0191 25.6939 18.2021 25.6939 18.2021 18.9059 25.2211 18.9059 25.2211 8.0529 18.2021 8.0529 18.2021 1.2649"></polygon>
                <g id="Group-68" transform="translate(0.000000, 0.957300)">
                    <path d="M6.1401,10.1776 L10.7921,10.6136 C11.6661,10.7296 11.7661,11.5486 11.5361,12.0396 L8.3471,17.8256 L8.3531,17.8176 C6.7351,16.5906 5.6971,14.6816 5.6971,12.5406 C5.6971,11.7096 5.8551,10.9106 6.1411,10.1776 L6.1401,10.1776 Z" id="Fill-2" fill="#FFFFFF"></path>
                    <path d="M6.8301,11.1674 L10.3521,11.4814 C10.6061,11.5004 10.6261,11.6054 10.5681,11.7484 L8.1001,16.3004 C7.2021,15.2924 6.6601,13.9784 6.6601,12.5404 C6.6601,12.0674 6.7201,11.6084 6.8301,11.1674" id="Fill-4" fill="#00AEEF"></path>
                    <path d="M19.1206,10.1776 L14.4686,10.6136 C13.5946,10.7296 13.4936,11.5486 13.7256,12.0396 L16.9126,17.8256 L16.9086,17.8176 C18.5246,16.5906 19.5636,14.6816 19.5636,12.5406 C19.5636,11.7096 19.4066,10.9106 19.1196,10.1776 L19.1206,10.1776 Z" id="Fill-6" fill="#FFFFFF"></path>
                    <path d="M12.6309,5.8368 C9.8489,5.8368 7.4509,7.4198 6.3469,9.7038 L11.2809,9.7038 C11.9849,9.6908 12.2959,9.2928 12.3089,8.9668 C12.3269,8.5828 12.2649,8.4608 11.9359,8.0508 C11.5779,7.5898 11.8249,6.7058 12.6309,6.6898 C13.4349,6.7058 13.6829,7.5898 13.3239,8.0508 C12.9959,8.4608 12.9339,8.5828 12.9509,8.9668 C12.9659,9.2928 13.2739,9.6908 13.9789,9.7038 L18.9129,9.7038 C17.8089,7.4198 15.4119,5.8368 12.6309,5.8368" id="Fill-8" fill="#FFFFFF"></path>
                    <path d="M18.4302,11.1674 L14.9082,11.4814 C14.6532,11.5004 14.6342,11.6054 14.6922,11.7484 L17.1592,16.3004 C18.0572,15.2924 18.5992,13.9784 18.5992,12.5404 C18.5992,12.0674 18.5402,11.6084 18.4302,11.1674" id="Fill-10" fill="#00AEEF"></path>
                    <path d="M14.2891,6.9935 C14.6421,7.5605 14.3571,8.2985 14.0221,8.6485 C13.9611,8.7085 13.9921,8.7715 14.0471,8.7875 L17.1681,8.7875 C16.4201,7.9435 15.4241,7.3105 14.2891,6.9935" id="Fill-12" fill="#00AEEF"></path>
                    <path d="M12.6309,19.2469 C14.0379,19.2469 15.3489,18.8399 16.4419,18.1429 L16.4429,18.1469 L13.0629,13.2599 C12.8259,12.9479 12.4469,12.9219 12.1979,13.2599 L8.8179,18.1469 L8.8179,18.1429 C9.9119,18.8399 11.2229,19.2469 12.6309,19.2469" id="Fill-14" fill="#FFFFFF"></path>
                    <g id="Group-18" transform="translate(28.000000, 0.000000)">
                        <mask id="mask-2" fill="white">
                            <use xlink:href="#path-1"></use>
                        </mask>
                        <g id="Clip-17"></g>
                        <path d="M11.0742,24.9999 C15.9212,22.4079 18.8602,18.2859 20.3732,13.7589 C21.9442,9.0599 21.6832,3.5059 19.8632,0.0429 C17.0952,1.3919 14.3102,2.0669 11.0742,2.0759 C7.8382,2.0879 5.0522,1.3919 2.2832,0.0429 C0.4642,3.5059 0.2022,9.0599 1.7742,13.7589 C3.2872,18.2859 6.2262,22.4079 11.0742,24.9999" id="Fill-16" fill="#00AEEF" mask="url(#mask-2)"></path>
                    </g>
                    <path d="M39.0688,22.9022 C43.0588,20.5122 45.1848,17.0862 46.5468,13.2202 C47.7548,9.7872 48.0488,5.7732 46.7208,2.6382 C44.7268,3.2992 43.5588,3.5042 42.4738,3.6672 C41.4628,3.8212 40.5578,3.9122 39.0788,3.9322 L39.0688,3.9322 C37.5878,3.9122 36.6848,3.8212 35.6728,3.6672 C34.5888,3.5042 33.4208,3.2992 31.4268,2.6382 C30.0978,5.7732 30.3928,9.7872 31.6018,13.2202 C32.9628,17.0862 35.0898,20.5122 39.0788,22.9022 L39.0688,22.9022 Z" id="Fill-19" fill="#FFFFFF"></path>
                    <path d="M39.0713,21.952 C41.7693,20.311 44.8293,16.586 46.0523,11.684 C46.7013,9.083 46.8823,6.162 46.0363,3.842 C44.8293,4.157 43.7003,4.413 42.5343,4.566 C41.3673,4.718 40.2143,4.827 39.0793,4.835 L39.0683,4.835 C37.9333,4.827 36.7803,4.718 35.6133,4.566 C34.4473,4.413 33.3203,4.157 32.1113,3.842 C31.2663,6.162 31.4463,9.083 32.0953,11.684 C33.3173,16.586 36.3793,20.311 39.0773,21.952 L39.0713,21.952 Z" id="Fill-21" fill="#00AEEF"></path>
                    <path d="M36.3179,6.576 C35.4059,7.034 35.0909,8.112 35.4999,8.985 C35.8549,9.735 36.5559,10.238 37.3709,10.474 C37.7789,10.588 38.1929,10.619 38.6159,10.639 C39.1329,10.663 39.6009,10.678 40.0969,10.8 C40.2029,10.826 40.3189,10.888 40.3739,10.987 C40.5079,11.225 40.3869,11.492 40.1249,11.566 C40.1199,11.985 40.0809,12.83 40.0809,12.83 C40.0809,12.83 42.1969,12.635 41.8399,10.794 C41.7539,10.352 41.3939,9.903 40.9849,9.698 C39.9239,9.169 38.7579,9.401 37.6709,9.058 C37.3039,8.943 36.7949,8.767 36.6949,8.371 C36.6549,8.211 36.6919,7.891 36.8609,7.84 C37.1349,7.758 37.4389,7.979 37.8369,8.067 C38.0889,8.123 38.3379,8.123 38.5349,8.064 C38.6229,8.04 38.7509,8.006 38.7629,7.956 C38.7509,7.915 38.6539,7.875 38.6029,7.851 C38.4799,7.789 38.3529,7.761 38.2199,7.713 C37.9999,7.63 37.7809,7.53 37.5599,7.41 C37.7689,7.37 38.1169,7.359 38.3249,7.383 C38.4929,7.401 39.0059,7.396 39.1579,7.357 C39.1919,7.347 39.2679,7.321 39.2349,7.264 C39.1749,7.168 39.0759,7.131 39.0059,7.043 C38.8559,6.844 38.7269,6.642 38.4859,6.552 C37.7889,6.293 37.0129,6.227 36.3179,6.576" id="Fill-23" fill="#FFFFFF"></path>
                    <path d="M39.8506,13.1454 L39.8626,10.9984 C39.8626,10.9984 39.5776,10.9404 39.1786,10.9144 C38.6586,10.8824 38.4226,10.8904 38.4226,10.8904 L38.4216,11.0694 C38.4216,11.0694 38.1696,11.1734 38.1326,11.2374 C38.1156,11.2674 38.0496,11.3494 38.0806,11.4284 C38.2856,11.9614 38.5676,12.4754 38.6496,13.0414 C39.0366,13.0964 39.3786,13.0834 39.8506,13.1454" id="Fill-25" fill="#FFFFFF"></path>
                    <path d="M37.1938,12.8221 C37.1008,13.6641 37.6698,14.1161 38.2978,14.2601 C38.7968,14.3751 39.2788,14.3981 39.7968,14.4591 C39.8628,14.4671 40.0008,14.4691 40.1058,14.5121 C40.1978,14.5511 40.2438,14.6041 40.2618,14.6601 C40.2848,14.7391 40.2758,14.8001 40.2228,14.8631 C40.1668,14.9291 40.0178,14.9681 40.0178,14.9681 L39.9878,15.9801 C39.9878,15.9801 40.4098,15.9651 40.7528,15.7641 C41.0748,15.5771 41.2768,15.3371 41.3488,15.0361 C41.4318,14.6861 41.3748,14.3451 41.1188,14.0041 C40.9498,13.7811 40.6548,13.6191 40.3548,13.5161 C39.7378,13.3081 39.0678,13.3391 38.4268,13.2521 C38.3288,13.2371 38.2408,13.1651 38.2318,13.0801 C38.2148,12.9241 38.3658,12.8491 38.3658,12.8491 C38.3658,12.8491 38.2898,12.6091 38.2088,12.3741 C38.1358,12.1961 38.0348,11.9471 37.9598,11.8171 C37.5258,11.9971 37.2428,12.3871 37.1938,12.8221" id="Fill-27" fill="#FFFFFF"></path>
                    <path d="M39.7974,14.6952 L39.7804,16.5142 L39.3094,16.3042 L38.8444,16.1182 L38.8344,14.5992 C39.2524,14.6482 39.4424,14.6532 39.7974,14.6952" id="Fill-29" fill="#FFFFFF"></path>
                    <path d="M37.6919,15.6971 C37.4359,16.2861 37.7569,16.8621 38.2699,17.1061 C38.5379,17.2331 38.8889,17.3471 39.1779,17.4561 C39.4599,17.5611 39.9599,17.8591 39.9979,18.0051 C40.0209,18.0931 39.9139,18.1771 39.9139,18.1771 L39.9019,18.8861 C39.9019,18.8861 40.2089,18.8251 40.4359,18.6461 C40.6469,18.4751 40.8029,18.2541 40.8019048,17.8981 C40.7989,17.5121 40.6109,17.2101 40.0409,16.8851 C39.5969,16.6321 39.0589,16.4311 38.6409,16.2531 C38.5809,16.2271 38.5259,16.1121 38.5489,16.0421 C38.5729,15.9671 38.6229,15.9381 38.6229,15.9381 L38.6109,15.1181 C38.6109,15.1181 38.2899,15.1801 38.1379,15.2661 C37.9979,15.3451 37.7869,15.4791 37.6919,15.6971" id="Fill-31" fill="#FFFFFF"></path>
                    <path d="M39.7197,18.1141 C39.7257,18.0551 39.7037,18.0491 39.6757,18.0081 C39.5507,17.8821 39.3677,17.7941 39.3257,17.7691 C39.1947,17.6931 38.9037,17.5911 38.9037,17.5911 C38.9037,17.5911 38.9247,19.4511 38.9587,20.4131 C38.9667,20.6321 39.0947,20.6881 39.3087,20.6991 C39.5757,20.7131 39.6527,20.5521 39.6557,20.4591 C39.6677,20.1511 39.7057,18.8151 39.7197,18.1141" id="Fill-33" fill="#FFFFFF"></path>
                    <path d="M39.9238,6.1444 C40.0198,6.2134 40.0198,6.2174 40.0488,6.3534 C40.1128,6.6504 40.0458,7.1154 40.1058,7.3214 C40.1388,7.3884 40.2078,7.3854 40.2578,7.3584 C40.6848,7.1354 40.9738,6.7514 41.4048,6.5744 C41.6078,6.4904 42.1688,6.7644 42.0388,7.1714 C41.9778,7.3634 41.8878,7.3934 41.7648,7.5154 C41.5138,7.7694 41.1578,8.0064 40.8498,8.3344 C40.6388,8.5574 40.3858,8.7184 40.2238,8.9684 C40.1728,9.0474 40.0868,9.1574 40.0868,9.1574 C39.4888,9.0384 38.8868,9.0604 38.4208,8.9664 L38.4188,8.2954 C38.4188,8.2954 38.8948,8.2184 38.9848,7.9924 C38.9908,7.9744 38.9778,7.8964 38.9078,7.8474 C38.8278,7.7874 38.6868,7.7274 38.6458,7.7134 C39.1208,7.7844 39.4188,7.8614 39.8798,8.0574 C39.9098,8.0084 39.8928,7.8994 39.8578,7.8614 C39.7948,7.7904 39.7608,7.7684 39.5968,7.7314 C39.3158,7.6604 38.5498,7.5694 38.5498,7.5694 C38.5498,7.5694 38.9038,7.5674 39.2008,7.5194 C39.3448,7.4964 39.4638,7.4734 39.4958,7.4234 C39.5298,7.3524 39.4668,7.2444 39.3658,7.1404 C39.2988,7.0704 39.2218,6.9984 39.1658,6.9264 C39.0968,6.8334 38.9818,6.6644 38.8568,6.5564 C38.7498,6.4634 38.4788,6.3284 38.4788,6.3284 C38.4788,6.3284 38.4318,5.9694 38.5068,5.8254 C38.5628,5.7174 38.7078,5.6564 38.7828,5.6914 C39.1268,5.8764 39.4648,6.0684 39.9238,6.1444" id="Fill-35" fill="#FFFFFF"></path>
                    <path d="M38.4146,6.8378 C38.3266,6.8978 38.2646,6.9588 38.1666,6.9748 C37.9716,7.0048 37.9976,6.8408 37.8636,6.7468 C37.7806,6.6928 37.7036,6.7658 37.6286,6.6308 C37.9126,6.6408 38.2856,6.6158 38.4996,6.8238 C38.4736,6.8128 38.4276,6.8288 38.4146,6.8378" id="Fill-37" fill="#00AEEF"></path>
                    <path d="M12.5317,14.3661 C12.5867,14.2951 12.6637,14.2921 12.7277,14.3661 L15.0597,17.8171 C14.3187,18.1371 13.4947,18.3151 12.6307,18.3151 C11.7657,18.3151 10.9417,18.1371 10.2007,17.8171 L12.5317,14.3661 C12.5967,14.2921 12.6737,14.2951 12.7277,14.3661" id="Fill-39" fill="#00AEEF"></path>
                    <path d="M38.4395,18.8016 C38.3245,18.9186 38.1315,19.1566 38.0975,19.5356 C38.0665,19.8746 38.1475,19.9696 38.2355,20.1526 C38.3085,20.3036 38.4785,20.2936 38.5375,20.1546 C38.5865,20.0396 38.5165,19.9346 38.5615,19.6886 C38.5935,19.5046 38.7425,19.4026 38.7425,19.4026 L38.7275,18.5756 C38.7275,18.5756 38.5955,18.6456 38.4395,18.8016" id="Fill-41" fill="#FFFFFF"></path>
                    <path d="M10.9722,6.9935 C10.6192,7.5605 10.9052,8.2985 11.2372,8.6485 C11.2992,8.7085 11.2672,8.7715 11.2132,8.7875 L8.0932,8.7875 C8.8392,7.9435 9.8372,7.3105 10.9722,6.9935" id="Fill-43" fill="#00AEEF"></path>
                    <path d="M45.5078,22.8251 C45.7318,23.0441 45.8588,23.3371 45.8588,23.6481 C45.8588,23.9701 45.7338,24.2591 45.5048,24.4701 C45.2648,24.6961 44.9598,24.8191 44.6438,24.8191 C44.3208,24.8191 44.0208,24.6961 43.7898,24.4681 C43.5598,24.2461 43.4358,23.9581 43.4358,23.6481 C43.4358,23.3401 43.5688,23.0411 43.8018,22.8091 C44.0248,22.5911 44.3188,22.4771 44.6438,22.4771 C44.9728,22.4771 45.2768,22.5961 45.5078,22.8251 L45.5078,22.8251 Z M45.3978,22.9321 C45.1958,22.7331 44.9368,22.6301 44.6468,22.6301 C44.3638,22.6301 44.1068,22.7311 43.9148,22.9201 C43.7088,23.1231 43.5948,23.3811 43.5948,23.6481 C43.5948,23.9161 43.7068,24.1651 43.9038,24.3611 C44.1018,24.5551 44.3678,24.6631 44.6378,24.6631 C44.9228,24.6631 45.1818,24.5571 45.3908,24.3641 C45.5898,24.1791 45.6968,23.9291 45.6968,23.6581 C45.6968,23.3741 45.5918,23.1231 45.3978,22.9321 L45.3978,22.9321 Z M45.2498,23.3261 C45.2498,23.5141 45.1348,23.6451 44.9368,23.6851 L45.2428,24.2891 L44.9528,24.2891 L44.6748,23.7211 L44.4178,23.7211 L44.4178,24.2891 L44.1598,24.2891 L44.1598,22.9621 L44.6768,22.9621 C45.0618,22.9621 45.2498,23.0851 45.2498,23.3261 L45.2498,23.3261 Z M44.4178,23.1261 L44.4178,23.5631 L44.6378,23.5631 C44.8728,23.5631 44.9838,23.5081 44.9838,23.3501 C44.9838,23.1911 44.8728,23.1261 44.6328,23.1261 L44.4178,23.1261 Z" id="Fill-45" fill="#00AEEF"></path>
                    <path d="M21.1982,22.8251 C21.4192,23.0441 21.5482,23.3371 21.5482,23.6481 C21.5482,23.9701 21.4232,24.2591 21.1942,24.4701 C20.9562,24.6961 20.6492,24.8191 20.3332,24.8191 C20.0102,24.8191 19.7102,24.6961 19.4792,24.4681 C19.2492,24.2461 19.1252,23.9581 19.1252,23.6481 C19.1252,23.3401 19.2572,23.0411 19.4902,22.8091 C19.7142,22.5911 20.0082,22.4771 20.3332,22.4771 C20.6632,22.4771 20.9662,22.5961 21.1982,22.8251 L21.1982,22.8251 Z M21.0862,22.9321 C20.8842,22.7331 20.6262,22.6301 20.3372,22.6301 C20.0532,22.6301 19.7962,22.7311 19.6022,22.9201 C19.3982,23.1231 19.2832,23.3811 19.2832,23.6481 C19.2832,23.9161 19.3942,24.1651 19.5932,24.3611 C19.7922,24.5551 20.0572,24.6631 20.3262,24.6631 C20.6132,24.6631 20.8712,24.5571 21.0802,24.3641 C21.2772,24.1791 21.3872,23.9291 21.3872,23.6581 C21.3872,23.3741 21.2812,23.1231 21.0862,22.9321 L21.0862,22.9321 Z M20.9392,23.3261 C20.9392,23.5141 20.8232,23.6451 20.6262,23.6851 L20.9322,24.2891 L20.6422,24.2891 L20.3632,23.7211 L20.1082,23.7211 L20.1082,24.2891 L19.8482,24.2891 L19.8482,22.9621 L20.3662,22.9621 C20.7502,22.9621 20.9392,23.0851 20.9392,23.3261 L20.9392,23.3261 Z M20.1082,23.1261 L20.1082,23.5631 L20.3262,23.5631 C20.5622,23.5631 20.6712,23.5081 20.6712,23.3501 C20.6712,23.1911 20.5622,23.1261 20.3192,23.1261 L20.1082,23.1261 Z" id="Fill-47" fill="#00AEEF"></path>
                    <polygon id="Fill-49" fill="#231F20" points="67.2021 20.119 59.5191 9.259 59.5191 20.119 56.6111 20.119 56.6111 4.344 59.5661 4.344 66.8951 14.678 66.8951 4.344 69.8031 4.344 69.8031 20.119"></polygon>
                    <path d="M72.0244,12.2552 C72.0244,7.3612 75.1224,4.0682 79.7334,4.0682 C81.6244,4.0682 83.0884,4.5032 84.2944,5.2122 L83.8464,8.0692 C82.7814,7.2932 81.4574,6.6742 79.8754,6.6742 C76.9894,6.6742 75.2164,8.8002 75.2164,12.2312 C75.2164,15.7062 77.1074,17.7632 79.9924,17.7632 C81.5054,17.7632 82.8754,17.2402 84.1294,16.4382 L84.5544,19.0452 C83.2544,19.8452 81.5994,20.3932 79.7554,20.3932 C75.0034,20.3932 72.0244,17.1472 72.0244,12.2552" id="Fill-51" fill="#231F20"></path>
                    <mask id="mask-4" fill="white">
                        <use xlink:href="#path-3"></use>
                    </mask>
                    <g id="Clip-54"></g>
                    <polygon id="Fill-53" fill="#231F20" mask="url(#mask-4)" points="91 22.934 92 22.934 92 1.934 91 1.934"></polygon>
                    <path d="M103.7065,11.58 L103.7065,18.011 L103.7545,19.921 L105.5925,19.921 C106.4385,19.921 107.3325,19.824 108.1065,19.051 C109.1225,18.035 109.0975,16.294 109.0975,15.689 C109.0975,13.828 108.6865,12.837 107.9375,12.257 C107.3815,11.822 106.4145,11.58 104.9395,11.58 L103.7065,11.58 Z M103.7545,4.279 L103.7305,5.947 L103.7065,10.879 L105.3025,10.879 C106.3665,10.879 107.2125,10.54 107.5505,10.105 C107.9615,9.622 108.1795,8.824 108.1795,7.566 C108.1795,4.835 107.3325,4.279 105.4715,4.279 L103.7545,4.279 Z M97.5655,3.553 L107.1395,3.553 C108.1065,3.553 109.1705,3.601 110.1615,4.061 C111.9985,4.931 112.0475,6.768 112.0475,7.156 C112.0475,8.123 111.7085,9.017 111.0075,9.718 C109.8715,10.903 108.3725,11.072 107.2845,11.193 C108.4695,11.241 110.3545,11.338 111.8545,12.837 C112.4345,13.417 113.1355,14.384 113.1355,15.956 C113.1355,17.068 112.7725,18.228 111.8545,19.147 C110.4765,20.525 108.7355,20.622 107.2365,20.622 L97.5655,20.622 L97.5655,19.993 L99.9115,19.993 L99.9595,17.6 L99.9595,6.188 L99.9115,4.182 L97.5655,4.182 L97.5655,3.553 Z" id="Fill-55" fill="#00AEEF" mask="url(#mask-4)"></path>
                    <path d="M116.1572,3.5531 C117.2932,3.5531 117.6322,3.5291 118.6952,3.4561 L118.6472,6.1401 L118.6472,18.0591 L118.6952,19.9931 L120.3642,19.9931 L120.3642,20.6221 L113.3042,20.6221 L113.3042,19.9931 L115.1172,19.9931 L115.1662,18.0591 L115.1662,6.1401 L115.1172,4.1821 L113.3042,4.1821 L113.3042,3.5531 L116.1572,3.5531 Z" id="Fill-56" fill="#00AEEF" mask="url(#mask-4)"></path>
                    <path d="M122.3223,8.9203 C123.5793,8.9203 123.9663,8.8963 125.1503,8.8233 L125.1023,11.0723 L125.1023,16.4883 C125.1023,17.4063 125.1503,18.1073 125.3433,18.5903 C125.6583,19.3403 126.3113,19.6783 127.1083,19.6783 C127.8093,19.6783 128.4143,19.4133 128.8743,18.9773 C129.8163,18.0353 129.7933,16.7783 129.7933,15.7133 L129.7933,11.4103 L129.7443,9.5493 L127.9553,9.5493 L127.9553,8.9203 L130.0343,8.9203 C131.4363,8.9203 131.8473,8.8963 133.2503,8.8233 L133.2013,11.0723 L133.2013,17.7693 L133.2503,19.9683 L134.9903,19.9683 L134.9903,20.6223 L133.1533,20.6223 C131.6053,20.6223 131.0503,20.6463 129.8893,20.7183 L129.8163,18.8573 C129.3083,19.4853 128.1243,20.8873 125.3923,20.8873 C123.6033,20.8873 122.4673,20.2113 122.0083,19.2923 C121.6453,18.6153 121.6693,17.7453 121.6693,17.0193 L121.6693,11.3143 L121.6213,9.5493 L119.8563,9.5493 L119.8563,8.9203 L122.3223,8.9203 Z" id="Fill-57" fill="#00AEEF" mask="url(#mask-4)"></path>
                    <path d="M143.2344,13.369 C143.2584,11.483 143.2824,9.259 141.1064,9.259 C139.0514,9.259 138.9554,11.314 138.8824,13.369 L143.2344,13.369 Z M146.7634,17.237 C146.1354,18.422 144.8304,20.888 141.1794,20.888 C137.4314,20.888 135.1354,18.011 135.1354,14.65 C135.1354,11.435 137.3104,8.582 141.2034,8.582 C143.6214,8.582 144.9514,9.621 145.5314,10.226 C146.8604,11.604 146.9094,13.055 146.9334,14.095 L138.8584,14.095 C138.8824,16.149 138.9304,18.011 139.9464,19.075 C140.5024,19.654 141.2994,19.896 142.0974,19.896 C144.7094,19.896 145.7004,17.696 146.0394,16.923 L146.7634,17.237 Z" id="Fill-58" fill="#00AEEF" mask="url(#mask-4)"></path>
                    <path d="M230.5576,10.5267 C230.3306,10.5267 230.1386,10.3597 230.1316,10.1247 L230.2706,10.1247 C230.2746,10.3437 230.4376,10.4077 230.6296,10.4077 C230.7886,10.4077 230.9736,10.3147 230.9736,10.1327 C230.9736,9.9897 230.8696,9.9227 230.7496,9.8827 C230.5186,9.8057 230.1656,9.7327 230.1656,9.4237 C230.1656,9.1737 230.3956,9.0377 230.6216,9.0377 C230.8086,9.0377 231.0546,9.1027 231.0866,9.3787 L230.9486,9.3787 C230.9446,9.2017 230.7846,9.1567 230.6376,9.1567 C230.4896,9.1567 230.3046,9.2317 230.3046,9.4057 C230.3046,9.8117 231.1126,9.6277 231.1126,10.1207 C231.1126,10.4317 230.8456,10.5267 230.5576,10.5267" id="Fill-59" fill="#231F20" mask="url(#mask-4)"></path>
                    <polygon id="Fill-60" fill="#231F20" mask="url(#mask-4)" points="231.4189 10.4969 231.4189 9.0669 231.6249 9.0669 232.1619 10.3129 232.7099 9.0669 232.9049 9.0669 232.9049 10.4969 232.7769 10.4969 232.7769 9.1759 232.7729 9.1759 232.2279 10.4969 232.0989 10.4969 231.5519 9.1819 231.5479 9.1819 231.5479 10.4969"></polygon>
                    <path d="M160.5645,7.8573 C160.2945,5.8783 158.5855,5.0683 156.7415,5.0683 C152.5805,5.0683 151.3205,8.8473 151.3205,12.1753 C151.3205,15.5043 152.5805,19.2833 156.7415,19.2833 C158.5415,19.2833 160.3395,18.3833 160.7445,16.3593 L162.3195,16.3593 C161.8465,19.0813 159.3495,20.6313 156.7415,20.6313 C151.8155,20.6313 149.7475,16.6733 149.7475,12.1753 C149.7475,7.7223 151.8375,3.7193 156.7415,3.7193 C159.3955,3.7193 161.9145,4.9343 162.1385,7.8573 L160.5645,7.8573 Z" id="Fill-61" fill="#231F20" mask="url(#mask-4)"></path>
                    <path d="M169.6279,9.9042 C166.9069,9.9042 165.8269,12.5582 165.8269,14.6492 C165.8269,16.7412 166.9069,19.3952 169.6279,19.3952 C172.3499,19.3952 173.4299,16.7412 173.4299,14.6492 C173.4299,12.5582 172.3499,9.9042 169.6279,9.9042 M174.8919,14.6492 C174.8919,17.6182 173.2269,20.6322 169.6279,20.6322 C166.0289,20.6322 164.3649,17.6182 164.3649,14.6492 C164.3649,11.6812 166.0289,8.6672 169.6279,8.6672 C173.2269,8.6672 174.8919,11.6812 174.8919,14.6492" id="Fill-62" fill="#231F20" mask="url(#mask-4)"></path>
                    <path d="M178.4102,20.6034 L177.0612,20.6034 L177.0612,11.4504 C177.0612,10.5734 176.9932,9.6744 176.9482,8.9094 L178.3432,8.9094 L178.4102,10.5734 L178.4552,10.6184 C179.2432,9.2244 180.5242,8.5714 181.9862,8.5714 C185.6752,8.5714 185.9672,11.8334 185.9672,13.1374 L185.9672,20.6034 L184.6182,20.6034 L184.6182,12.9124 C184.6182,10.9564 183.4932,9.8094 181.6492,9.8094 C179.4232,9.8094 178.4102,11.6754 178.4102,13.7004 L178.4102,20.6034 Z" id="Fill-63" fill="#231F20" mask="url(#mask-4)"></path>
                    <path d="M189.4248,20.6981 L188.0748,20.6981 L188.0748,11.5461 C188.0748,10.6691 188.0078,9.7691 187.9638,9.0051 L189.3578,9.0051 L189.4248,10.6691 L189.4698,10.7141 C190.2578,9.3201 191.5388,8.6671 193.0008,8.6671 C196.6898,8.6671 196.9818,11.9281 196.9818,13.2331 L196.9818,20.6981 L195.6328,20.6981 L195.6328,13.0081 C195.6328,11.0511 194.5078,9.9041 192.6638,9.9041 C190.4378,9.9041 189.4248,11.7711 189.4248,13.7951 L189.4248,20.6981 Z" id="Fill-64" fill="#231F20" mask="url(#mask-4)"></path>
                    <path d="M207.7344,13.7274 C207.5774,11.5454 206.4074,9.9044 204.0684,9.9044 C201.8644,9.9044 200.6954,11.7484 200.5144,13.7274 L207.7344,13.7274 Z M200.4694,14.9644 C200.5144,17.3714 201.6174,19.3954 204.3824,19.3954 C205.9794,19.3954 207.3064,18.2484 207.6444,16.6964 L209.0614,16.6964 C208.3644,19.3954 206.6764,20.6314 203.9564,20.6314 C200.5824,20.6314 199.0074,17.7314 199.0074,14.6494 C199.0074,11.5904 200.6954,8.6664 204.0464,8.6664 C207.8244,8.6664 209.1964,11.4334 209.1964,14.9644 L200.4694,14.9644 Z" id="Fill-65" fill="#231F20" mask="url(#mask-4)"></path>
                    <path d="M219.0117,12.4681 C218.8987,10.7361 217.7967,9.9041 215.9307,9.9041 C213.8617,9.9041 212.5787,12.0631 212.5787,14.6281 C212.5787,17.2141 213.8617,19.3951 215.9307,19.3951 C217.6847,19.3951 218.8987,18.3151 219.0117,16.7631 L220.4727,16.7631 C220.1137,19.3501 218.6287,20.6321 216.0657,20.6321 C212.6917,20.6321 211.1167,17.7311 211.1167,14.6491 C211.1167,11.5911 212.8037,8.6671 216.1557,8.6671 C218.4717,8.6671 220.3607,10.0611 220.4727,12.4681 L219.0117,12.4681 Z" id="Fill-66" fill="#231F20" mask="url(#mask-4)"></path>
                    <path d="M224.666,10.2416 L222.417,10.2416 L222.417,9.0046 L224.666,9.0046 L224.666,6.5976 L226.016,6.0136 L226.016,9.0046 L228.579,9.0046 L228.579,10.2416 L226.016,10.2416 L226.016,17.7986 C225.993,18.8326 226.533,19.3956 227.567,19.3956 C227.973,19.3956 228.377,19.3726 228.737,19.2606 L228.737,20.4296 C228.31,20.5416 227.815,20.6316 227.365,20.6316 C224.509,20.6316 224.666,18.8106 224.666,17.2816 L224.666,10.2416 Z" id="Fill-67" fill="#231F20" mask="url(#mask-4)"></path>
                </g>
            </g>
        </g>
    </g>
</svg>