<?xml version="1.0" encoding="UTF-8"?>
<svg width="233px" height="25px" viewBox="0 0 233 25" version="1.1" xmlns="http://www.w3.org/2000/svg" xmlns:xlink="http://www.w3.org/1999/xlink">
    <!-- Generator: Sketch 61.2 (89653) - https://sketch.com -->
    <title>Logo</title>
    <desc>Created with Sketch.</desc>
    <g id="Symbols" stroke="none" stroke-width="1" fill="none" fill-rule="evenodd">
        <g id="Brand/Full/Inverse" transform="translate(0.000000, -1.000000)" fill-rule="nonzero">
            <g id="Logo">
                <polygon id="Fill-1" fill="#00AEEF" points="7.02 1.27 7.02 8.05 0 8.05 0 18.91 7.02 18.91 7.02 25.69 18.2 25.69 18.2 18.91 25.22 18.91 25.22 8.05 18.2 8.05 18.2 1.27"></polygon>
                <path d="M6.14,11.14 L10.79,11.57 C11.0982126,11.6218 11.3644826,11.8147202 11.5097211,12.0914584 C11.6549596,12.3681967 11.662462,12.6969239 11.53,12.98 L8.34,18.78 L8.34,18.78 C6.67301883,17.5356741 5.68786011,15.580171 5.67999844,13.5 C5.67943467,12.691957 5.8321331,11.8911386 6.13,11.14 L6.14,11.14 Z" id="Fill-2" fill="#FFFFFF"></path>
                <path d="M6.83,12.13 L10.35,12.44 C10.6,12.44 10.62,12.56 10.57,12.71 L8.1,17.26 C6.84890625,15.8681274 6.37275928,13.9447936 6.83,12.13" id="Fill-4" fill="#00AEEF"></path>
                <path d="M19.12,11.14 L14.45,11.57 C14.1436061,11.6244565 13.880028,11.8184501 13.736951,12.0948044 C13.593874,12.3711587 13.587608,12.6983707 13.72,12.98 L16.91,18.76 L16.91,18.76 C19.2765231,16.9970341 20.1798816,13.8741118 19.12,11.12 L19.12,11.14 Z" id="Fill-6" fill="#FFFFFF"></path>
                <path d="M12.63,6.8 C9.97027046,6.78718363 7.53306165,8.28283165 6.34,10.66 L11.28,10.66 C11.98,10.66 12.28,10.25 12.28,9.93 C12.28,9.61 12.28,9.42 11.9,9.01 C11.6405547,8.65402171 11.6920279,8.15955804 12.0192301,7.86464926 C12.3464322,7.56974048 12.8435678,7.56974048 13.1707699,7.86464926 C13.4979721,8.15955804 13.5494453,8.65402171 13.29,9.01 C12.96,9.42 12.9,9.54 12.92,9.93 C12.94,10.32 13.24,10.65 13.92,10.66 L18.85,10.66 C17.6694831,8.27605783 15.2301236,6.7767063 12.57,6.8" id="Fill-8" fill="#FFFFFF"></path>
                <path d="M18.45,12.13 L14.93,12.44 C14.67,12.44 14.65,12.56 14.71,12.71 L17.18,17.26 C18.4310937,15.8681274 18.9072407,13.9447936 18.45,12.13" id="Fill-10" fill="#00AEEF"></path>
                <path d="M14.29,7.98 C14.5597448,8.53480593 14.4516678,9.19927925 14.02,9.64 C13.9945347,9.65408951 13.9787298,9.68089684 13.9787298,9.71 C13.9787298,9.73910316 13.9945347,9.76591049 14.02,9.78 L17.15,9.78 C16.3888101,8.91838139 15.3960982,8.29359771 14.29,7.98" id="Fill-12" fill="#00AEEF"></path>
                <path d="M12.63,20.21 C13.9838841,20.217208 15.3108062,19.8316364 16.45,19.1 L16.45,19.1 L13.07,14.21 C12.9773186,14.0585618 12.8125483,13.9662236 12.635,13.9662236 C12.4574517,13.9662236 12.2926814,14.0585618 12.2,14.21 L8.83,19.1 L8.83,19.1 C9.96633513,19.829781 11.2895149,20.2152743 12.64,20.21" id="Fill-14" fill="#FFFFFF"></path>
                <g id="Group-18" transform="translate(28.000000, 0.000000)" fill="#00AEEF">
                    <g id="Fill-16-Clipped">
                        <path d="M11.07,25.98 C15.5177335,23.5901815 18.8551893,19.5565251 20.37,14.74 C21.94,9.98 21.68,4.46 19.86,0.98 C17.1283185,2.32939284 14.1165955,3.01465403 11.07,2.98 C8.02251417,3.02306295 5.00884599,2.33735915 2.28,0.98 C0.45,4.46 0.2,9.98 1.77,14.72 C3.28310952,19.5424437 6.62031268,23.5829714 11.07,25.98" id="Fill-16"></path>
                    </g>
                </g>
                <path d="M39.07,23.86 C42.6571426,21.6522534 45.3137764,18.2096542 46.54,14.18 C47.75,10.75 48.05,6.73 46.72,3.6 C45.3371514,4.06350157 43.914439,4.39825742 42.47,4.6 C41.3478881,4.76953364 40.214841,4.856434 39.08,4.86 L39.08,4.86 C37.941809,4.85721492 36.8053802,4.77031154 35.68,4.6 C34.2357694,4.39714473 32.8131583,4.06241271 31.43,3.6 C30.11,6.73 30.43,10.75 31.61,14.18 C32.8403924,18.2103842 35.5003482,21.6526799 39.09,23.86 L39.07,23.86 Z" id="Fill-19" fill="#FFFFFF"></path>
                <path d="M39.07,22.91 C42.6025514,20.4795274 45.0992153,16.8165648 46.07,12.64 C46.8211383,10.0806407 46.8211383,7.35935928 46.07,4.8 C44.9208259,5.11832595 43.7515117,5.3588706 42.57,5.52 C41.4274235,5.68786536 40.2747804,5.77807221 39.12,5.79 L39.12,5.79 C37.9618829,5.77846295 36.8058876,5.68825523 35.66,5.52 C34.4786549,5.35789685 33.3094054,5.11736553 32.16,4.8 C31.4088617,7.35935928 31.4088617,10.0806407 32.16,12.64 C33.1343793,16.8149873 35.6302311,20.4767584 39.16,22.91 L39.07,22.91 Z" id="Fill-21" fill="#00AEEF"></path>
                <path d="M36.32,7.53 C35.8831056,7.74269522 35.5500807,8.12212561 35.3958559,8.58291912 C35.2416311,9.04371263 35.2791606,9.5471653 35.5,9.98 C35.8747837,10.7267705 36.5583895,11.2714618 37.37,11.47 C37.7750193,11.5761934 38.1913445,11.6332702 38.61,11.64 C39.1075324,11.6421257 39.6035086,11.6957447 40.09,11.8 C40.206845,11.8187935 40.3093697,11.8883638 40.37,11.99 C40.4297624,12.0966944 40.4360183,12.225243 40.3868985,12.3372362 C40.3377787,12.4492293 40.2389715,12.5316977 40.12,12.56 C40.12,12.98 40.12,13.83 40.12,13.83 C40.12,13.83 42.23,13.63 41.88,11.83 C41.7639008,11.3596645 41.4504169,10.9623418 41.02,10.74 C39.96,10.21 38.8,10.44 37.71,10.1 C37.34,9.98 36.83,9.81 36.71,9.41 C36.71,9.25 36.71,8.93 36.88,8.88 C37.05,8.83 37.46,9.02 37.88,9.11 C38.1100226,9.16558752 38.3499774,9.16558752 38.58,9.11 C38.67,9.11 38.8,9.11 38.81,9.01 C38.82,8.91 38.7,8.92 38.65,8.9 C38.6,8.88 38.4,8.81 38.27,8.76 C38.0427807,8.67671051 37.8221568,8.57642691 37.61,8.46 C37.8624506,8.43009223 38.1175494,8.43009223 38.37,8.46 C38.6494364,8.4851251 38.9305636,8.4851251 39.21,8.46 C39.21,8.46 39.31,8.46 39.28,8.36 C39.25,8.26 39.12,8.23 39.05,8.14 C38.9334266,7.86391869 38.7200699,7.63989419 38.45,7.51 C37.7613637,7.2094545 36.9786363,7.2094545 36.29,7.51" id="Fill-23" fill="#FFFFFF"></path>
                <path d="M39.85,14.1 L39.85,11.98 C39.625235,11.9370575 39.3981974,11.9070084 39.17,11.89 C38.65,11.89 38.41,11.89 38.41,11.89 L38.41,12.07 C38.41,12.07 38.16,12.17 38.12,12.24 C38.0912418,12.3000687 38.0912418,12.3699313 38.12,12.43 C38.351208,12.9263797 38.5288772,13.4459783 38.65,13.98 C39.03,14.04 39.38,13.98 39.85,14.08" id="Fill-25" fill="#FFFFFF"></path>
                <path d="M37.19,13.78 C37.1069944,14.4819438 37.6000505,15.1215841 38.3,15.22 C38.792857,15.3124932 39.2901975,15.3792503 39.79,15.42 C39.8949547,15.4242729 39.9990242,15.4410583 40.1,15.47 C40.1743961,15.4912828 40.2339667,15.5471302 40.26,15.62 C40.2957266,15.6818802 40.2957266,15.7581198 40.26,15.82 C40.1994033,15.8723467 40.1275358,15.9099916 40.05,15.93 L40.05,16.93 C40.3160711,16.9114084 40.5751408,16.8364145 40.81,16.71 C41.1045374,16.5628452 41.3226642,16.2974575 41.41,15.98 C41.4869004,15.6290432 41.4025021,15.2620942 41.18,14.98 C40.9735834,14.7507684 40.7067011,14.5844002 40.41,14.5 C39.7674798,14.3406951 39.1111222,14.243581 38.45,14.21 C38.3569404,14.1995462 38.2806976,14.131329 38.26,14.04 C38.2505869,13.9436095 38.3025641,13.8516498 38.39,13.81 C38.39,13.81 38.32,13.57 38.24,13.33 C38.16,13.09 38.06,12.91 37.99,12.78 C37.5702055,12.9480108 37.2751436,13.331208 37.22,13.78" id="Fill-27" fill="#FFFFFF"></path>
                <path d="M39.79,15.65 L39.79,17.47 L39.32,17.26 L38.85,17.08 L38.85,15.56 C39.27,15.61 39.46,15.61 39.85,15.65" id="Fill-29" fill="#FFFFFF"></path>
                <path d="M37.69,16.66 C37.5780153,16.9222435 37.5764116,17.2185457 37.6855511,17.481986 C37.7946906,17.7454262 38.0053676,17.9537836 38.27,18.06 C38.5661045,18.1946564 38.8699775,18.3115306 39.18,18.41 C39.46,18.52 39.96,18.82 39.99,18.96 C40.02,19.1 39.91,19.14 39.91,19.14 L39.91,19.85 C40.1016546,19.8030814 40.2819022,19.718059 40.44,19.6 C40.6761202,19.4279992 40.8140715,19.1520967 40.81,18.86 C40.81,18.47 40.62,18.17 40.05,17.86 C39.5942064,17.6266286 39.1269478,17.4163622 38.65,17.23 C38.6035163,17.2101926 38.5668367,17.1726856 38.5480711,17.1257716 C38.5293055,17.0788575 38.5299996,17.026401 38.55,16.98 C38.5609738,16.939531 38.5857315,16.9041627 38.62,16.88 L38.62,16.08 C38.4574524,16.1092497 38.2994398,16.1596792 38.15,16.23 C37.9545978,16.3166989 37.7954867,16.4687384 37.7,16.66" id="Fill-31" fill="#FFFFFF"></path>
                <path d="M39.72,19.07 C39.72,19.01 39.72,19.01 39.67,18.97 C39.5695375,18.8686137 39.4507769,18.7871778 39.32,18.73 C39.1848992,18.659158 39.0444723,18.5989751 38.9,18.55 C38.9,18.55 38.9,20.41 38.96,21.37 C38.96,21.59 39.09,21.65 39.31,21.66 C39.53,21.67 39.65,21.51 39.65,21.42 C39.65,21.11 39.65,19.77 39.72,19.07" id="Fill-33" fill="#FFFFFF"></path>
                <path d="M39.92,7.1 C40.02,7.17 40.02,7.18 40.05,7.31 C40.11,7.61 40.05,8.07 40.05,8.31 C40.05,8.55 40.15,8.37 40.21,8.31 C40.6091375,8.02808753 41.0230615,7.76771595 41.45,7.53 C41.65,7.45 42.22,7.72 42.09,8.13 C42.02,8.32 41.94,8.35 41.81,8.47 C41.68,8.59 41.21,8.97 40.9,9.29 C40.6726573,9.48553835 40.4619341,9.69960631 40.27,9.93 C40.2265451,9.99563818 40.1798195,10.0590515 40.13,10.12 C39.45,9.98 38.88,9.98 38.45,9.98 L38.45,9.25 C38.45,9.25 38.92,9.18 39.01,8.95 C39.0147948,8.89389352 38.9877621,8.83982802 38.94,8.81 C38.8541835,8.75567312 38.7638501,8.70883358 38.67,8.67 C39.086374,8.71331993 39.494089,8.81777584 39.88,8.98 C39.9137842,8.91761348 39.9137842,8.84238652 39.88,8.78 C39.82,8.71 39.79,8.69 39.62,8.65 C39.45,8.61 38.62,8.49 38.62,8.49 C38.8364003,8.50519467 39.0535997,8.50519467 39.27,8.49 C39.41,8.49 39.53,8.49 39.56,8.39 C39.59,8.29 39.56,8.21 39.43,8.11 L39.23,7.9 C39.1449031,7.76246886 39.0405051,7.63786485 38.92,7.53 C38.7755363,7.42806841 38.6172771,7.3472552 38.45,7.29 C38.4163268,7.12166748 38.4163268,6.94833252 38.45,6.78 C38.51,6.68 38.65,6.61 38.73,6.65 C39.0800001,6.86702958 39.4661271,7.01944814 39.87,7.1" id="Fill-35" fill="#FFFFFF"></path>
                <path d="M38.45,7.8 C38.3793693,7.86430728 38.2932082,7.90911103 38.2,7.93 C38.01,7.93 38.04,7.8 37.9,7.71 C37.76,7.62 37.74,7.71 37.67,7.59 C37.9732894,7.54979878 38.2810839,7.61701828 38.54,7.78 C38.5111361,7.76832397 38.4788639,7.76832397 38.45,7.78" id="Fill-37" fill="#00AEEF"></path>
                <path d="M12.53,15.32 C12.5497171,15.2862212 12.5858877,15.2654527 12.625,15.2654527 C12.6641123,15.2654527 12.7002829,15.2862212 12.72,15.32 L15.06,18.78 C13.5058804,19.4333795 11.7541196,19.4333795 10.2,18.78 L12.53,15.32 C12.5497171,15.2862212 12.5858877,15.2654527 12.625,15.2654527 C12.6641123,15.2654527 12.7002829,15.2862212 12.72,15.32" id="Fill-39" fill="#00AEEF"></path>
                <path d="M38.45,19.76 C38.2509043,19.9585131 38.1271514,20.2201619 38.1,20.5 C38.075619,20.7133557 38.1250257,20.9286275 38.24,21.11 C38.32,21.26 38.49,21.25 38.54,21.11 C38.59,20.97 38.54,20.89 38.54,20.65 C38.5605892,20.5338266 38.6250297,20.4300058 38.72,20.36 L38.72,19.53 C38.615908,19.5925425 38.5215676,19.6700364 38.44,19.76" id="Fill-41" fill="#FFFFFF"></path>
                <path d="M10.97,7.98 C10.6976785,8.5327576 10.8017128,9.19697628 11.23,9.64 C11.2554653,9.65408951 11.2712702,9.68089684 11.2712702,9.71 C11.2712702,9.73910316 11.2554653,9.76591049 11.23,9.78 L8.09,9.78 C8.85660968,8.91515284 9.85667921,8.29010939 10.97,7.98" id="Fill-43" fill="#00AEEF"></path>
                <path d="M44.45,24.08 L44.45,24.52 L44.66,24.52 C44.9,24.52 45.01,24.47 45.01,24.31 C45.01,24.15 44.9,24.08 44.66,24.08 L44.45,24.08 Z M45.280007,24.28 C45.2811402,24.4641945 45.1430578,24.6195371 44.96,24.64 L45.27,25.25 L44.95,25.25 L44.67,24.68 L44.45,24.68 L44.45,25.25 L44.19,25.25 L44.19,23.92 L44.7,23.92 C45.09,23.92 45.280007,24.04 45.280007,24.28 Z M45.42,23.89 C45.2233083,23.6889849 44.951063,23.5800868 44.67,23.59 C44.3972975,23.5830516 44.1335931,23.6878109 43.94,23.88 C43.7367768,24.0684718 43.6208916,24.3328349 43.62,24.61 C43.6237358,24.8787063 43.7354643,25.1346007 43.93,25.32 C44.3450703,25.7226224 45.0049297,25.7226224 45.42,25.32 C45.6164161,25.1409533 45.7258049,24.8857128 45.72,24.62 C45.7243149,24.3458272 45.6158561,24.0819108 45.42,23.89 Z M45.54,23.78 C45.7618309,23.9994998 45.8876776,24.2979364 45.890017,24.61 C45.8917317,24.9220209 45.7608693,25.2200966 45.53,25.43 C45.3000673,25.6545399 44.9913832,25.7801671 44.67,25.780021 C44.351224,25.7818933 44.0450167,25.6558079 43.82,25.43 C43.5941305,25.2165386 43.4642714,24.9207484 43.46,24.61 C43.4671429,24.2920313 43.6002229,23.9899036 43.83,23.77 C44.0546003,23.5520898 44.3571352,23.4332368 44.67,23.44 C44.9926616,23.4386994 45.3037209,23.5602629 45.54,23.78 L45.54,23.78 Z" id="Fill-45" fill="#00AEEF"></path>
                <path d="M20.11,24.08 L20.11,24.52 L20.32,24.52 C20.56,24.52 20.67,24.47 20.67,24.31 C20.67,24.15 20.56,24.08 20.32,24.08 L20.11,24.08 Z M20.940007,24.28 C20.9411402,24.4641945 20.8030578,24.6195371 20.62,24.64 L20.93,25.25 L20.64,25.25 L20.36,24.68 L20.11,24.68 L20.11,25.25 L19.85,25.25 L19.85,23.92 L20.36,23.92 C20.75,23.92 20.940007,24.04 20.940007,24.28 Z M21.08,23.89 C20.8833083,23.6889849 20.611063,23.5800868 20.33,23.59 C20.0572975,23.5830516 19.7935931,23.6878109 19.6,23.88 C19.3967768,24.0684718 19.2808916,24.3328349 19.28,24.61 C19.2837358,24.8787063 19.3954643,25.1346007 19.59,25.32 C20.0050703,25.7226224 20.6649297,25.7226224 21.08,25.32 C21.2684143,25.1353695 21.376243,24.8837693 21.38,24.62 C21.3843149,24.3458272 21.2758561,24.0819108 21.08,23.89 L21.08,23.89 Z M21.2,23.78 C21.4218309,23.9994998 21.5476776,24.2979364 21.550017,24.61 C21.5517317,24.9220209 21.4208693,25.2200966 21.19,25.43 C20.9600673,25.6545399 20.6513832,25.7801671 20.33,25.780021 C20.011224,25.7818933 19.7050167,25.6558079 19.48,25.43 C19.2541305,25.2165386 19.1242714,24.9207484 19.12,24.61 C19.12526,24.294378 19.2557078,23.9937778 19.4826367,23.7743507 C19.7095655,23.5549237 20.0143795,23.4346509 20.33,23.44 C20.6526616,23.4386994 20.9637209,23.5602629 21.2,23.78 L21.2,23.78 Z" id="Fill-47" fill="#00AEEF"></path>
                <polygon id="Fill-49" fill="#FFFFFF" points="67.2 21.08 59.52 10.22 59.52 21.08 56.61 21.08 56.61 5.3 59.57 5.3 66.9 15.63 66.9 5.3 69.8 5.3 69.8 21.08"></polygon>
                <path d="M72.02,13.21 C72.02,8.32 75.12,5.03 79.73,5.03 C81.3257493,4.98493689 82.9031921,5.37929758 84.29,6.17 L83.84,9.03 C82.6946697,8.14024907 81.2902031,7.64868577 79.84,7.63 C76.96,7.63 75.18,9.76 75.18,13.19 C75.18,16.62 77.07,18.72 79.96,18.72 C81.4383913,18.6882834 82.8760971,18.2298845 84.1,17.4 L84.55,19.98 C83.1054062,20.8647159 81.4439804,21.331992 79.75,21.3300921 C75,21.35 72.02,18.11 72.02,13.21 Z" id="Fill-51" fill="#FFFFFF"></path>
                <rect id="Rectangle" fill="#FFFFFF" x="91" y="2.89" width="1" height="21"></rect>
                <path d="M97.56,4.51 L107.14,4.51 C108.165299,4.45795328 109.189497,4.63206691 110.14,5.02 C111.320185,5.59024136 112.056078,6.79976733 112.02,8.11 C112.046619,9.06642256 111.686045,9.99309657 111.02,10.68 C109.996681,11.6070999 108.670682,12.1296786 107.29,12.15 C108.971001,12.0778957 110.612781,12.6706608 111.86,13.8 C112.700184,14.6138328 113.163905,15.7405295 113.14,16.91 C113.162763,18.1057146 112.701115,19.2598366 111.86,20.11 C110.590424,21.2193659 108.917205,21.751754 107.24,21.58 L97.56,21.58 L97.56,20.98 L99.91,20.98 L99.96,18.59 L99.96,7.15 L99.91,5.15 L97.56,5.15 L97.56,4.51 Z M103.75,5.24 L103.75,6.91 L103.75,11.84 L105.35,11.84 C106.175492,11.9015538 106.989732,11.619284 107.6,11.06 C108.097082,10.3152616 108.319794,9.42087741 108.23,8.53 C108.23,5.79 107.38,5.24 105.52,5.24 L103.75,5.24 Z M103.75,12.54 L103.75,18.98 L103.75,20.89 L105.59,20.89 C106.512239,20.9695022 107.424793,20.6531985 108.1,20.02 C108.841485,19.0643087 109.198241,17.8656099 109.1,16.66 C109.1,14.8 108.68,13.81 107.93,13.23 C107.029187,12.6865158 105.977113,12.4480458 104.93,12.55 L103.75,12.54 Z" id="Shape" fill="#00AEEF"></path>
                <path d="M116.15,4.51 C117.29,4.51 117.63,4.51 118.69,4.42 L118.69,7.1 L118.69,18.98 L118.69,20.91 L120.36,20.91 L120.36,21.54 L113.3,21.54 L113.3,20.98 L115.11,20.98 L115.11,19.05 L115.11,7.1 L115.11,5.1 L113.3,5.1 L113.3,4.51 L116.15,4.51 Z" id="Path" fill="#00AEEF"></path>
                <path d="M122.32,9.88 C123.58,9.88 123.96,9.88 125.15,9.78 L125.15,12.03 L125.15,17.45 C125.108812,18.1585883 125.189999,18.8689762 125.39,19.55 C125.684535,20.2558816 126.397092,20.6946874 127.16,20.64 C127.814977,20.6423166 128.44553,20.3915283 128.92,19.94 C129.664613,19.0235754 129.997539,17.8402409 129.84,16.67 L129.84,12.37 L129.79,10.51 L127.95,10.51 L127.95,9.88 L130.03,9.88 C131.43,9.88 131.84,9.88 133.25,9.78 L133.2,12.03 L133.2,18.73 L133.25,20.93 L134.99,20.93 L134.99,21.58 L133.15,21.58 C131.6,21.58 131.05,21.58 129.89,21.68 L129.81,19.82 C128.755879,21.1738113 127.102778,21.9218209 125.39,21.82 C123.6,21.82 122.46,21.14 122,20.22 C121.712313,19.5000021 121.599228,18.7221087 121.67,17.95 L121.67,12.27 L121.67,10.51 L119.85,10.51 L119.85,9.88 L122.32,9.88 Z" id="Path" fill="#00AEEF"></path>
                <path d="M146.76,18.2 C145.597219,20.8608146 142.712798,22.3254219 139.878443,21.6942114 C137.044088,21.0630008 135.053767,18.5127886 135.13,15.61 C135.180909,13.1723669 136.65579,10.990873 138.898932,10.0353811 C141.142073,9.07988928 143.736983,9.52780854 145.53,11.18 C146.511076,12.2213126 147.01779,13.6220175 146.93,15.05 L138.86,15.05 C138.86,17.11 138.93,18.97 139.94,20.05 C140.520036,20.6043849 141.297977,20.9033157 142.1,20.88 C143.913043,20.8066954 145.487043,19.6082182 146.04,17.88 L146.76,18.2 Z M143.23,14.33 C143.23,12.44 143.28,10.22 141.1,10.22 C138.92,10.22 138.95,12.22 138.88,14.33 L143.23,14.33 Z" id="Shape" fill="#00AEEF"></path>
                <path d="M230.56,11.49 C230.4486,11.492684 230.3407,11.4509882 230.260052,11.3740916 C230.179405,11.297195 230.132621,11.1914014 230.13,11.08 L230.27,11.08 C230.27,11.3 230.43,11.37 230.63,11.37 C230.712297,11.3783534 230.79452,11.3534689 230.858374,11.3008831 C230.922229,11.2482972 230.962418,11.172372 230.97,11.09 C230.97,10.95 230.87,10.88 230.75,10.84 C230.63,10.8 230.16,10.69 230.16,10.38 C230.16739,10.2673111 230.220934,10.1626602 230.308,10.0907365 C230.395065,10.0188129 230.507942,9.98598585 230.62,10 C230.81,10 231.05,10.06 231.08,10.34 L230.95,10.34 C230.95,10.16 230.78,10.12 230.63,10.12 C230.48,10.12 230.3,10.19 230.3,10.36 C230.3,10.77 231.11,10.59 231.11,11.08 C231.11,11.39 230.84,11.49 230.56,11.49 Z" id="Path" fill="#FFFFFF"></path>
                <polygon id="Path" fill="#FFFFFF" points="231.45 11.46 231.45 10.03 231.65 10.03 232.19 11.27 232.74 10.03 232.93 10.03 232.93 11.46 232.8 11.46 232.8 10.13 232.8 10.13 232.25 11.46 232.13 11.46 231.58 10.14 231.58 10.14 231.58 11.46"></polygon>
                <path d="M160.56,8.82 C160.29,6.82 158.56,6.03 156.74,6.03 C152.58,6.03 151.32,9.81 151.32,13.13 C151.32,16.45 152.58,20.24 156.74,20.24 C158.612834,20.392837 160.314885,19.1503397 160.74,17.32 L162.32,17.32 C161.763136,19.9218671 159.396971,21.7325349 156.74,21.59 C151.81,21.59 149.74,17.59 149.74,13.13 C149.74,8.67 151.84,4.68 156.74,4.68 C159.39,4.68 161.91,5.89 162.14,8.82 L160.56,8.82 Z" id="Path" fill="#FFFFFF"></path>
                <path d="M174.89,15.61 C174.89,18.61 173.22,21.61 169.63,21.61 C166.04,21.61 164.36,18.61 164.36,15.61 C164.36,12.61 166.03,9.61 169.63,9.61 C173.23,9.61 174.89,12.64 174.89,15.61 Z M169.63,10.86 C166.9,10.86 165.82,13.52 165.82,15.61 C165.82,17.7 166.9,20.35 169.63,20.35 C172.36,20.35 173.43,17.7 173.43,15.61 C173.43,13.52 172.35,10.86 169.63,10.86 Z" id="Shape" fill="#FFFFFF"></path>
                <path d="M178.45,21.56 L177.1,21.56 L177.1,12.41 C177.1,11.53 177.03,10.63 176.99,9.87 L178.38,9.87 L178.45,11.53 L178.45,11.53 C179.156609,10.2522299 180.520744,9.47934875 181.98,9.53 C185.67,9.53 185.98,12.79 185.98,14.1 L185.98,21.56 L184.64,21.56 L184.64,13.87 C184.735636,13.0399907 184.454263,12.2108075 183.873238,11.6104147 C183.292213,11.010022 182.472698,10.7016212 181.64,10.77 C179.41,10.77 178.4,12.63 178.4,14.66 L178.45,21.56 Z" id="Path" fill="#FFFFFF"></path>
                <path d="M189.45,21.66 L188.1,21.66 L188.1,12.5 C188.1,11.63 188.04,10.73 187.99,9.96 L189.38,9.96 L189.45,11.63 L189.5,11.63 C190.206609,10.3522299 191.570744,9.57934875 193.03,9.63 C196.72,9.63 197.03,12.89 197.03,14.19 L197.03,21.66 L195.68,21.66 L195.68,13.98 C195.778895,13.1483708 195.498978,12.3163042 194.91754,11.7135465 C194.336102,11.1107889 193.51465,10.8011037 192.68,10.87 C190.45,10.87 189.44,12.74 189.44,14.76 L189.45,21.66 Z" id="Path" fill="#FFFFFF"></path>
                <path d="M200.45,15.92 C200.45,18.33 201.59,20.35 204.36,20.35 C205.949646,20.3374932 207.311601,19.209494 207.62,17.65 L209.04,17.65 C208.626953,20.0962699 206.400884,21.8126517 203.93,21.59 C200.56,21.59 198.99,18.69 198.99,15.59 C198.99,12.49 200.67,9.59 203.99,9.59 C207.77,9.59 209.14,12.35 209.14,15.88 L200.45,15.92 Z M207.71,14.69 C207.55,12.5 206.38,10.86 204.05,10.86 C201.72,10.86 200.67,12.71 200.49,14.69 L207.71,14.69 Z" id="Shape" fill="#FFFFFF"></path>
                <path d="M219.01,13.43 C218.9,11.69 217.79,10.86 215.93,10.86 C213.86,10.86 212.58,13.02 212.58,15.59 C212.58,18.16 213.86,20.35 215.93,20.35 C216.688029,20.4134573 217.439969,20.1712492 218.018448,19.6772887 C218.596926,19.1833283 218.953932,18.4786109 219.01,17.72 L220.45,17.72 C220.09,20.31 218.61,21.59 216.04,21.59 C212.67,21.59 211.04,18.69 211.04,15.59 C211.04,12.49 212.73,9.59 216.04,9.59 C218.36,9.59 220.25,10.98 220.36,13.39 L219.01,13.43 Z" id="Path" fill="#FFFFFF"></path>
                <path d="M224.66,11.2 L222.45,11.2 L222.45,9.98 L224.7,9.98 L224.7,7.56 L226.01,6.98 L226.01,9.98 L228.58,9.98 L228.58,11.22 L226.01,11.22 L226.01,18.78 C225.943678,19.2114183 226.083856,19.6489353 226.388542,19.9614843 C226.693228,20.2740332 227.127032,20.4253112 227.56,20.37 C227.954277,20.3846064 228.348546,20.3407988 228.73,20.24 L228.73,21.41 C228.283218,21.532381 227.823122,21.5995483 227.36,21.61 C224.51,21.61 224.66,19.79 224.66,18.26 L224.66,11.2 Z" id="Path" fill="#FFFFFF"></path>
            </g>
        </g>
    </g>
</svg>