<?xml version="1.0" encoding="UTF-8"?>
<svg width="105px" height="47px" viewBox="0 0 105 47" version="1.1" xmlns="http://www.w3.org/2000/svg" xmlns:xlink="http://www.w3.org/1999/xlink">
    <!-- Generator: Sketch 61.2 (89653) - https://sketch.com -->
    <title>centered-inverse-blue copy</title>
    <desc>Created with Sketch.</desc>
    <defs>
        <polygon id="path-1" points="0.122944218 0.559091156 5.93834014 0.559091156 5.93834014 7.82717279 0.122944218 7.82717279"></polygon>
    </defs>
    <g id="ID-Card" stroke="none" stroke-width="1" fill="none" fill-rule="evenodd">
        <g id="centered-inverse-blue-copy">
            <path d="M2.5612517,31.9470367 L2.5612517,34.628234 L2.58296599,35.4254585 L3.34606803,35.4254585 C3.69866667,35.4047782 4.07504762,35.3727238 4.39352381,35.0645878 C4.81229932,34.6385741 4.81229932,33.9137306 4.81229932,33.6614313 C4.81229932,32.8838531 4.63651701,32.4733497 4.3242449,32.2293224 C4.09159184,32.046302 3.68936054,31.9387646 3.07619048,31.9470367 L2.5612517,31.9470367 Z M2.58296599,28.9018667 L2.57055782,29.5987918 L2.5612517,31.6544109 L3.22819048,31.6544109 C3.66971429,31.6544109 4.02334694,31.5158531 4.16293878,31.3328327 C4.33561905,31.1312 4.42454422,30.7972136 4.42454422,30.2729687 C4.42454422,29.1334857 4.07504762,28.923581 3.29746939,28.9018667 L2.58296599,28.9018667 Z M2.79776202e-14,28.5999347 L3.99336054,28.5999347 C4.39352381,28.6102748 4.83918367,28.6319891 5.2517551,28.8139755 C6.02106122,29.1862204 6.04070748,29.9400163 6.04070748,30.1023565 C6.04070748,30.5056218 5.89904762,30.8768327 5.60538776,31.1704925 C5.1297415,31.665785 4.50623129,31.7350639 4.05333333,31.7867646 C4.54655782,31.8064109 5.34068027,31.8477714 5.95695238,32.4733497 C6.19994558,32.7029007 6.49463946,33.1165061 6.49463946,33.7700027 C6.49463946,34.2373769 6.34160544,34.7223293 5.95695238,35.1028463 C5.38514286,35.6756898 4.65616327,35.6963701 4.03265306,35.7160163 L2.79776202e-14,35.7160163 L2.79776202e-14,35.4575129 L0.978176871,35.4575129 L0.997823129,34.4576218 L0.997823129,29.6980571 L0.978176871,28.8625741 L2.79776202e-14,28.8625741 L2.79776202e-14,28.5999347 Z" id="Fill-1" fill="#FFFFFF"></path>
            <path d="M8.10490884,28.5996245 C8.5805551,28.5934204 8.72221497,28.5934204 9.16477279,28.559298 L9.14512653,29.6791347 L9.14512653,34.6496381 L9.16477279,35.4572027 L9.86066395,35.4572027 L9.86066395,35.7157061 L6.91682721,35.7157061 L6.91682721,35.4572027 L7.67269116,35.4572027 L7.69233741,34.6496381 L7.69233741,29.6791347 L7.67269116,28.8622639 L6.91682721,28.8622639 L6.91682721,28.5996245 L8.10490884,28.5996245 Z" id="Fill-3" fill="#FFFFFF"></path>
            <path d="M11.0312707,30.839298 C11.5534476,30.8299918 11.7137197,30.8299918 12.2079782,30.7969034 L12.188332,31.7347537 L12.188332,33.9920054 C12.188332,34.3766585 12.2079782,34.6692844 12.2896653,34.870917 C12.417883,35.1821551 12.6918966,35.323815 13.025883,35.323815 C13.3185088,35.323815 13.5718422,35.2142095 13.7631347,35.0322231 C14.1550259,34.6382639 14.1436517,34.1160871 14.1436517,33.6693932 L14.1436517,31.8774476 L14.1240054,31.1009034 L13.3784816,31.1009034 L13.3784816,30.839298 L14.244985,30.839298 C14.8281687,30.8299918 15.001883,30.8299918 15.5850667,30.7969034 L15.5654204,31.7347537 L15.5654204,34.5296925 L15.5850667,35.4447946 L16.3140463,35.4447946 L16.3140463,35.7157061 L15.5447401,35.7157061 C14.8995156,35.7157061 14.6689306,35.7291483 14.1829442,35.7581007 L14.1550259,34.9825905 C13.940985,35.2441959 13.4487946,35.8263456 12.3103456,35.8263456 C11.5658558,35.8263456 11.0902095,35.5461279 10.896849,35.1614748 C10.746917,34.8791891 10.7562231,34.5152163 10.7562231,34.2153524 L10.7562231,31.8371211 L10.7365769,31.1009034 L10.0003592,31.1009034 L10.0003592,30.839298 L11.0312707,30.839298 Z" id="Fill-5" fill="#FFFFFF"></path>
            <path d="M20.1081524,32.6912163 C20.1164245,31.9064 20.1257306,30.9799238 19.2189007,30.9799238 C18.3627374,30.9799238 18.3203429,31.8371211 18.2903565,32.6912163 L20.1081524,32.6912163 Z M21.5785197,34.3053116 C21.3148463,34.7985361 20.7730231,35.8263456 19.2478531,35.8263456 C17.6833905,35.8263456 16.7279619,34.6279238 16.7279619,33.2278694 C16.7279619,31.8877878 17.6327238,30.6997061 19.2602612,30.6997061 C20.2642884,30.6997061 20.8195537,31.1308898 21.063581,31.3821551 C21.6167782,31.9570667 21.6374585,32.5629986 21.6498667,32.9952163 L18.2810503,32.9952163 C18.2903565,33.8524136 18.3100027,34.6279238 18.7349823,35.0735837 C18.9655673,35.3145088 19.3016218,35.4148082 19.6314721,35.4148082 C20.7182204,35.4148082 21.1318259,34.5007401 21.2745197,34.1729578 L21.5785197,34.3053116 Z" id="Fill-7" fill="#FFFFFF"></path>
            <path d="M28.7366857,35.2147265 C27.9890939,35.4846041 27.0636517,35.8185905 25.9034884,35.8185905 C23.8271891,35.8185905 22.2844408,34.3265088 22.2844408,32.1478422 C22.2844408,29.8006313 24.0619102,28.4388354 26.0647946,28.4388354 C26.6810667,28.4388354 27.6292571,28.5794612 28.6953252,29.0426993 L28.6953252,31.0486857 L28.3840871,31.0486857 C28.3344544,30.6671347 28.2517333,30.0394884 27.6385633,29.4273524 C27.162917,28.9548082 26.6210939,28.7821279 26.1464816,28.7821279 C25.6129306,28.7821279 25.0773116,29.0034068 24.7247129,29.3560054 C24.2211483,29.8595701 23.9988354,30.6671347 23.9988354,32.1385361 C23.9988354,33.5582367 24.1725497,34.4392163 24.6957605,34.9738014 C24.9863184,35.2746993 25.4495565,35.5166585 26.0048218,35.5166585 C26.5373388,35.5166585 27.1722231,35.3046857 27.6881959,34.7597605 C28.2941279,34.1341823 28.3623728,33.6006313 28.4026993,33.2170122 L28.7366857,33.2170122 L28.7366857,35.2147265 Z" id="Fill-9" fill="#FFFFFF"></path>
            <path d="M31.7357388,35.4569959 L32.4833306,35.4569959 L32.4833306,35.7154993 L29.5250177,35.7154993 L29.5250177,35.4569959 L30.2633034,35.4569959 L30.2829497,34.6380571 L30.2829497,31.9889143 L30.2633034,31.1006966 L29.5250177,31.1006966 L29.5250177,30.8390912 L30.6551946,30.8390912 C31.1205007,30.829785 31.2725007,30.829785 31.6933442,30.7966966 L31.7140245,31.5639347 L31.7140245,31.7862476 C31.7853714,31.5639347 31.8567184,31.3716082 32.0759293,31.1523973 C32.3106503,30.9094041 32.6394667,30.749132 33.0034395,30.749132 C33.650732,30.749132 33.9226776,31.2609687 33.9226776,31.7149007 C33.9226776,32.3301388 33.5194122,32.4314721 33.2970993,32.4314721 C33.195766,32.4314721 32.6694531,32.3787374 32.6694531,31.7655673 C32.6694531,31.7149007 32.7046095,31.4626014 32.7046095,31.4109007 C32.7046095,31.2020299 32.5495075,31.2020299 32.5226231,31.2020299 C32.3892354,31.2020299 32.209317,31.362302 32.0759293,31.5639347 C31.7429769,32.0974857 31.7233306,32.8843701 31.7140245,33.4375673 L31.7140245,34.6380571 L31.7357388,35.4569959 Z" id="Fill-11" fill="#FFFFFF"></path>
            <path d="M35.6961143,33.0558095 C35.6961143,34.6378503 35.7964136,35.5457143 36.7642503,35.5457143 C37.7424272,35.5457143 37.8127401,34.6285442 37.8127401,33.2977687 C37.8127401,32.0776327 37.7527673,30.9588299 36.7539102,30.9691701 C35.8181279,30.9691701 35.6961143,31.9266667 35.6961143,33.0558095 M39.3565224,33.2977687 C39.3565224,34.8901497 38.0857197,35.826966 36.7249578,35.826966 C35.2401143,35.826966 34.1647401,34.7588299 34.1647401,33.2564082 C34.1647401,31.6733333 35.3114612,30.7272109 36.7042776,30.7065306 C38.338019,30.6775782 39.3565224,31.8367075 39.3565224,33.2977687" id="Fill-13" fill="#FFFFFF"></path>
            <path d="M40.3733714,33.8616163 C40.414732,34.1542422 40.4457524,34.3962014 40.6060245,34.6991673 C40.7662966,35.0217796 41.177834,35.5263782 41.8944054,35.5263782 C42.4920653,35.5263782 42.8849905,35.1934259 42.8849905,34.7901605 C42.8849905,34.3331265 42.4413986,34.1542422 41.7951401,33.9236571 C40.8996844,33.5907048 40.1417524,33.3208272 40.1417524,32.2464871 C40.1417524,30.9798204 41.253317,30.6892626 41.9471401,30.6892626 C42.5024054,30.6892626 42.9563374,30.8474667 43.4288816,31.0098068 L43.4485279,32.3209361 L43.1434939,32.3209361 C43.1073034,32.1193034 43.0649088,31.939385 42.9956299,31.7760109 C42.8653442,31.5030313 42.4786231,31.0191129 41.8365007,31.0191129 C41.2926095,31.0191129 41.0485823,31.3830857 41.0485823,31.636419 C41.0485823,31.9466231 41.3122558,32.0769088 41.4239293,32.1286095 C41.5821333,32.1999565 42.3793578,32.4925823 42.5603102,32.5628952 C43.1755483,32.8141605 43.8104327,33.155385 43.8104327,34.0859973 C43.8104327,35.1417252 42.9842558,35.8386503 41.7744599,35.8386503 C41.1106231,35.8386503 40.6060245,35.657698 40.0807456,35.4653714 L40.0600653,33.8616163 L40.3733714,33.8616163 Z" id="Fill-15" fill="#FFFFFF"></path>
            <path d="M44.9901388,33.8616163 C45.0294313,34.1542422 45.0614857,34.3962014 45.2238259,34.6991673 C45.384098,35.0217796 45.7966694,35.5263782 46.5142748,35.5263782 C47.1077986,35.5263782 47.5027918,35.1934259 47.5027918,34.7901605 C47.5027918,34.3331265 47.0550639,34.1542422 46.4098395,33.9236571 C45.5195537,33.5907048 44.7595537,33.3208272 44.7595537,32.2464871 C44.7595537,30.9798204 45.8680163,30.6892626 46.5649415,30.6892626 C47.1171048,30.6892626 47.5710367,30.8474667 48.043581,31.0098068 L48.0652952,32.3209361 L47.7643973,32.3209361 C47.7251048,32.1193034 47.6827102,31.939385 47.6113633,31.7760109 C47.4790095,31.5030313 47.0984925,31.0191129 46.452234,31.0191129 C45.9093769,31.0191129 45.6684517,31.3830857 45.6684517,31.636419 C45.6684517,31.9466231 45.9269551,32.0769088 46.0375946,32.1286095 C46.2020027,32.1999565 46.9950912,32.4925823 47.1770776,32.5628952 C47.7923156,32.8141605 48.4272,33.155385 48.4272,34.0859973 C48.4272,35.1417252 47.6020571,35.8386503 46.3912272,35.8386503 C45.7263565,35.8386503 45.2238259,35.657698 44.6985469,35.4653714 L44.6799347,33.8616163 L44.9901388,33.8616163 Z" id="Fill-17" fill="#FFFFFF"></path>
            <path d="M54.4780408,31.9470367 L54.4780408,34.628234 L54.4976871,35.4254585 L55.2649252,35.4254585 C55.6195918,35.4047782 55.9918367,35.3727238 56.312381,35.0645878 C56.7259864,34.6385741 56.7259864,33.9137306 56.7259864,33.6614313 C56.7259864,32.8838531 56.5543401,32.4733497 56.241034,32.2293224 C56.010449,32.046302 55.6082177,31.9387646 54.9940136,31.9470367 L54.4780408,31.9470367 Z M54.4976871,28.9018667 L54.4873469,29.5987918 L54.4780408,31.6544109 L55.1449796,31.6544109 C55.5865034,31.6544109 55.939102,31.5158531 56.0817959,31.3328327 C56.2534422,31.1312 56.3434014,30.7972136 56.3434014,30.2729687 C56.3434014,29.1334857 55.9918367,28.923581 55.2152925,28.9018667 L54.4976871,28.9018667 Z M51.9167891,28.5999347 L55.9091156,28.5999347 C56.312381,28.6102748 56.7559728,28.6319891 57.1706122,28.8139755 C57.9368163,29.1862204 57.9543946,29.9400163 57.9543946,30.1023565 C57.9543946,30.5056218 57.8168707,30.8768327 57.5221769,31.1704925 C57.0485986,31.665785 56.4240544,31.7350639 55.9690884,31.7867646 C56.4612789,31.8064109 57.2605714,31.8477714 57.8747755,32.4733497 C58.1177687,32.7029007 58.4114286,33.1165061 58.4114286,33.7700027 C58.4114286,34.2373769 58.2563265,34.7223293 57.8747755,35.1028463 C57.300898,35.6756898 56.5739864,35.6963701 55.9484082,35.7160163 L51.9167891,35.7160163 L51.9167891,35.4575129 L52.894966,35.4575129 L52.9156463,34.4576218 L52.9156463,29.6980571 L52.894966,28.8625741 L51.9167891,28.8625741 L51.9167891,28.5999347 Z" id="Fill-19" fill="#FFFFFF"></path>
            <path d="M60.2741007,28.5996245 C60.750781,28.5934204 60.8914068,28.5934204 61.3339646,28.559298 L61.3143184,29.6791347 L61.3143184,34.6496381 L61.3339646,35.4572027 L62.0288218,35.4572027 L62.0288218,35.7157061 L59.0870531,35.7157061 L59.0870531,35.4572027 L59.841883,35.4572027 L59.8635973,34.6496381 L59.8635973,29.6791347 L59.841883,28.8622639 L59.0870531,28.8622639 L59.0870531,28.5996245 L60.2741007,28.5996245 Z" id="Fill-21" fill="#FFFFFF"></path>
            <path d="M63.2014966,30.839298 C63.7226395,30.8299918 63.8849796,30.8299918 64.3771701,30.7969034 L64.3585578,31.7347537 L64.3585578,33.9920054 C64.3585578,34.3766585 64.3771701,34.6692844 64.4567891,34.870917 C64.5891429,35.1821551 64.8621224,35.323815 65.1961088,35.323815 C65.4877007,35.323815 65.736898,35.2142095 65.9302585,35.0322231 C66.3252517,34.6382639 66.3149116,34.1160871 66.3149116,33.6693932 L66.3149116,31.8774476 L66.2921633,31.1009034 L65.5466395,31.1009034 L65.5466395,30.839298 L66.4141769,30.839298 C66.9994286,30.8299918 67.1710748,30.8299918 67.7563265,30.7969034 L67.7346122,31.7347537 L67.7346122,34.5296925 L67.7563265,35.4447946 L68.4801361,35.4447946 L68.4801361,35.7157061 L67.7118639,35.7157061 C67.0687075,35.7157061 66.8370884,35.7291483 66.3562721,35.7581007 L66.3252517,34.9825905 C66.1112109,35.2441959 65.6190204,35.8263456 64.4795374,35.8263456 C63.7319456,35.8263456 63.2614694,35.5461279 63.0691429,35.1614748 C62.9161088,34.8791891 62.924381,34.5152163 62.924381,34.2153524 L62.924381,31.8371211 L62.9068027,31.1009034 L62.169551,31.1009034 L62.169551,30.839298 L63.2014966,30.839298 Z" id="Fill-23" fill="#FFFFFF"></path>
            <path d="M72.5247837,32.6912163 C72.5351238,31.9064 72.547532,30.9799238 71.639668,30.9799238 C70.7804027,30.9799238 70.7411102,31.8371211 70.7111238,32.6912163 L72.5247837,32.6912163 Z M73.9992871,34.3053116 C73.7376816,34.7985361 73.1927565,35.8263456 71.6696544,35.8263456 C70.1062259,35.8263456 69.1487293,34.6279238 69.1487293,33.2278694 C69.1487293,31.8877878 70.0565932,30.6997061 71.6779265,30.6997061 C72.6891918,30.6997061 73.2434231,31.1308898 73.4853823,31.3821551 C74.0385796,31.9570667 74.0571918,32.5629986 74.0696,32.9952163 L70.7038857,32.9952163 C70.7111238,33.8524136 70.7328381,34.6279238 71.1547156,35.0735837 C71.3873687,35.3145088 71.7192871,35.4148082 72.0522395,35.4148082 C73.1420898,35.4148082 73.5525932,34.5007401 73.6973551,34.1729578 L73.9992871,34.3053116 Z" id="Fill-25" fill="#FFFFFF"></path>
            <path d="M74.9987646,33.288049 C75.0514993,33.5806748 75.102166,33.8422803 75.2738122,34.1938449 C75.8766422,35.4450014 76.9757986,35.4749878 77.1991456,35.4749878 C77.993268,35.4749878 78.6684789,35.0014095 78.6684789,34.2651918 C78.6684789,33.5320762 78.1142476,33.288049 76.5921796,32.6635048 C76.3502204,32.5632054 76.1186014,32.4732463 75.8973224,32.3501986 C75.6305469,32.2106068 74.7650776,31.7070422 74.7650776,30.5458449 C74.7650776,29.2967565 75.7670367,28.4592054 77.1660571,28.4592054 C78.0439347,28.4592054 78.7305197,28.7518313 79.0893224,28.9017633 L79.1927238,30.5954776 L78.8690776,30.5954776 C78.7305197,30.0712327 78.6477986,29.7817088 78.2952,29.4280762 C77.9436354,29.0672054 77.4793633,28.8138721 76.9757986,28.8138721 C76.2085605,28.8138721 75.8063293,29.3246748 75.8063293,29.8530558 C75.8063293,30.4962122 76.391581,30.7660898 76.6511184,30.8881034 C76.9954449,31.0483755 77.3366694,31.1703891 77.6799619,31.313083 C78.5568054,31.6656816 79.6549279,32.1899265 79.6549279,33.5703347 C79.6549279,34.8711238 78.6384925,35.8265524 76.9344381,35.8265524 C76.0669007,35.8265524 75.4009959,35.5866612 74.7464653,35.3529741 L74.6854585,33.288049 L74.9987646,33.288049 Z" id="Fill-27" fill="#FFFFFF"></path>
            <path d="M81.3411973,28.5996245 C81.855102,28.5996245 81.9760816,28.5934204 82.4289796,28.559298 L82.4103673,29.6584544 L82.4103673,31.5744816 C82.6006259,31.2715156 82.7919184,30.991298 83.3647619,30.8186177 C83.6077551,30.7389986 83.8497143,30.7059102 84.1009796,30.7059102 C84.8485714,30.7059102 85.2125442,30.997502 85.3738503,31.1526041 C85.7481633,31.5217469 85.7781497,31.9663728 85.7967619,32.3499918 L85.7967619,34.7489034 L85.8153741,35.4572027 L86.5112653,35.4572027 L86.5112653,35.7157061 L83.5591565,35.7157061 L83.5591565,35.4572027 L84.3325986,35.4572027 L84.3553469,34.7489034 L84.3553469,32.3293116 C84.3553469,31.9384544 84.3553469,31.1526041 83.5674286,31.1526041 C83.2861769,31.1526041 83.0142313,31.2715156 82.8105306,31.4731483 C82.4703401,31.8154068 82.4372517,32.2714068 82.4103673,32.8535565 L82.4103673,34.7489034 L82.4289796,35.4572027 L83.1858776,35.4572027 L83.1858776,35.7157061 L80.2410068,35.7157061 L80.2410068,35.4572027 L80.9782585,35.4572027 L80.9958367,34.7406313 L80.9958367,29.6584544 L80.9782585,28.8622639 L80.2410068,28.8622639 L80.2410068,28.5996245 L81.3411973,28.5996245 Z" id="Fill-29" fill="#FFFFFF"></path>
            <path d="M87.655298,29.3458721 C87.655298,28.9115864 88.0172027,28.5486476 88.4607946,28.5486476 C88.8919782,28.5486476 89.2466449,28.9012463 89.2466449,29.3458721 C89.2466449,29.792566 88.8919782,30.1430966 88.4607946,30.1430966 C88.2498558,30.1430966 88.038917,30.0614095 87.8982912,29.9114776 C87.7473252,29.7594776 87.655298,29.5588789 87.655298,29.3458721 L87.655298,29.3458721 Z M87.9572299,30.8389878 C88.5414476,30.8307156 88.7420463,30.8307156 89.2373388,30.7965932 L89.2176925,31.9071238 L89.2176925,34.6689741 L89.2373388,35.4568925 L89.9342639,35.4568925 L89.9342639,35.7153959 L86.9873252,35.7153959 L86.9873252,35.4568925 L87.7473252,35.4568925 L87.7628354,34.6689741 L87.7628354,31.9071238 L87.7473252,31.1005932 L86.9873252,31.1005932 L86.9873252,30.8389878 L87.9572299,30.8389878 Z" id="Fill-31" fill="#FFFFFF"></path>
            <path d="M93.7008653,32.6912163 C93.7101714,31.9064 93.7215456,30.9799238 92.8147156,30.9799238 C91.9575184,30.9799238 91.9171918,31.8371211 91.8892735,32.6912163 L93.7008653,32.6912163 Z M95.1743347,34.3053116 C94.9116952,34.7985361 94.3678041,35.8263456 92.8467701,35.8263456 C91.2823075,35.8263456 90.3237769,34.6279238 90.3237769,33.2278694 C90.3237769,31.8877878 91.2326748,30.6997061 92.8560762,30.6997061 C93.8632054,30.6997061 94.4164027,31.1308898 94.6593959,31.3821551 C95.2146612,31.9570667 95.2332735,32.5629986 95.2425796,32.9952163 L91.8789333,32.9952163 C91.8892735,33.8524136 91.9058177,34.6279238 92.3307973,35.0735837 C92.5644844,35.3145088 92.8964027,35.4148082 93.2272871,35.4148082 C94.3181714,35.4148082 94.7297088,34.5007401 94.8724027,34.1729578 L95.1743347,34.3053116 Z" id="Fill-33" fill="#FFFFFF"></path>
            <path d="M96.7483102,28.5996245 C97.2218884,28.5934204 97.3645823,28.5934204 97.8071401,28.559298 L97.7874939,29.6791347 L97.7874939,34.6496381 L97.8071401,35.4572027 L98.5030313,35.4572027 L98.5030313,35.7157061 L95.5591946,35.7157061 L95.5591946,35.4572027 L96.3160925,35.4572027 L96.3326367,34.6496381 L96.3326367,29.6791347 L96.3160925,28.8622639 L95.5591946,28.8622639 L95.5591946,28.5996245 L96.7483102,28.5996245 Z" id="Fill-35" fill="#FFFFFF"></path>
            <g id="Group-39" transform="translate(99.027069, 28.000000)">
                <mask id="mask-2" fill="white">
                    <use xlink:href="#path-1"></use>
                </mask>
                <g id="Clip-38"></g>
                <path d="M2.04310748,3.41090068 C1.75358367,3.71490068 1.70498503,4.3094585 1.70498503,5.25661497 C1.70498503,6.41781224 1.73186939,7.38358095 2.66041361,7.38358095 C2.91374694,7.38358095 3.20533878,7.30499592 3.43799184,7.06407075 C3.70786939,6.77971701 3.79059048,6.42711837 3.79059048,5.15528163 C3.79059048,4.24741769 3.79059048,3.14102313 2.72142041,3.15239728 C2.40811429,3.15239728 2.17752925,3.27130884 2.04310748,3.41090068 L2.04310748,3.41090068 Z M4.00359728,0.599417687 C4.58781497,0.599417687 4.76669932,0.593213605 5.22063129,0.559091156 L5.20098503,1.3759619 L5.20098503,6.7414585 L5.22063129,7.44458776 L5.93927075,7.44458776 L5.93927075,7.71549932 L4.99004626,7.71549932 C4.42444082,7.7289415 4.24452245,7.7289415 3.76784218,7.75789388 L3.76784218,7.09405714 C3.53725714,7.38358095 3.17535238,7.82717279 2.23750204,7.82717279 C0.726808163,7.82717279 0.122944218,6.45710476 0.122944218,5.34864218 C0.122944218,3.76556735 1.07113469,2.74913197 2.36675374,2.74913197 C2.99336599,2.74913197 3.32631837,2.9486966 3.55793741,3.17928163 C3.69959728,3.32197551 3.7316517,3.39332245 3.76784218,3.51637007 L3.76784218,1.51865578 L3.7471619,0.862057143 L3.00267211,0.862057143 L3.00267211,0.599417687 L4.00359728,0.599417687 Z" id="Fill-37" fill="#FFFFFF" mask="url(#mask-2)"></path>
            </g>
            <path d="M12.5344762,43.6169741 C12.5344762,45.201083 12.6337415,46.1058449 13.5995102,46.1058449 C14.5807891,46.1058449 14.6521361,45.1897088 14.6521361,43.8589333 C14.6521361,42.6418993 14.5900952,41.5230966 13.5912381,41.5302998 C12.6554558,41.5302998 12.5344762,42.4857633 12.5344762,43.6169741 M16.1917823,43.8589333 C16.1917823,45.4502803 14.9240816,46.3881306 13.5612517,46.3881306 C12.0795102,46.3881306 11,45.3220626 11,43.8175728 C11,42.235532 12.1498231,41.2883755 13.5426395,41.2687293 C15.176381,41.2397769 16.1917823,42.3989061 16.1917823,43.8589333" id="Fill-40" fill="#FFFFFF"></path>
            <path d="M19.6322558,39.8585415 C19.6322558,39.5834939 19.5226503,39.3322286 19.1876299,39.3322286 C18.7233578,39.3322286 18.7233578,39.7954667 18.7233578,40.2101061 L18.7233578,41.3971537 L19.5485007,41.3971537 L19.5485007,41.6618612 L18.7233578,41.6618612 L18.7233578,45.0792762 L18.7440381,46.0140245 L19.5485007,46.0140245 L19.5485007,46.277698 L16.5570993,46.277698 L16.5570993,46.0140245 L17.291249,46.0140245 L17.3129633,45.0792762 L17.3129633,41.6618612 L16.5570993,41.6618612 L16.5570993,41.3971537 L17.3129633,41.3971537 L17.3129633,40.9463238 C17.3243374,40.3807184 17.3243374,39.6569088 18.0667592,39.2815619 C18.430732,39.0995755 18.8339973,39.0499429 19.2372626,39.0499429 C20.6218068,39.0499429 20.8937524,39.7582422 20.8937524,40.1687456 C20.8937524,40.3331537 20.8606639,40.8025959 20.2361197,40.8025959 C19.6198476,40.8025959 19.6198476,40.3331537 19.6198476,40.2297524 L19.6322558,39.8585415 Z" id="Fill-42" fill="#FFFFFF"></path>
            <polygon id="Fill-44" fill="#FFFFFF" points="23.1008544 39.1618231 25.9630041 39.1618231 29.6192762 43.8303946 29.6192762 40.3333605 29.6006639 39.4244626 28.5232218 39.4244626 28.5232218 39.1618231 30.9148952 39.1618231 30.9148952 39.4244626 29.985317 39.4244626 29.9646367 40.3333605 29.9646367 46.3782041 29.7144054 46.4598912 24.4212898 39.7263946 24.4130177 40.6125442 24.4130177 45.079483 24.4295619 46.0142313 25.5297524 46.0142313 25.5297524 46.2779048 23.1008544 46.2779048 23.1008544 46.0142313 24.0779973 46.0142313 24.0976435 45.079483 24.0976435 40.3333605 24.0779973 39.4244626 23.1008544 39.4244626"></polygon>
            <path d="M32.3160871,43.6169741 C32.3160871,45.201083 32.4174204,46.1058449 33.3811211,46.1058449 C34.360332,46.1058449 34.4316789,45.1897088 34.4316789,43.8589333 C34.4316789,42.6418993 34.3696381,41.5230966 33.373883,41.5302998 C32.4381007,41.5302998 32.3160871,42.4857633 32.3160871,43.6169741 M35.9744272,43.8589333 C35.9744272,45.4502803 34.7056925,46.3881306 33.3428626,46.3881306 C31.8600871,46.3881306 30.7836789,45.3220626 30.7836789,43.8175728 C30.7836789,42.235532 31.931434,41.2883755 33.3252844,41.2687293 C34.9579918,41.2397769 35.9744272,42.3989061 35.9744272,43.8589333" id="Fill-46" fill="#FFFFFF"></path>
            <path d="M38.3454204,46.0141279 L39.0899102,46.0141279 L39.0899102,46.2778014 L36.1346993,46.2778014 L36.1346993,46.0141279 L36.872985,46.0141279 L36.8936653,45.2013932 L36.8936653,42.5470803 L36.872985,41.6619646 L36.1346993,41.6619646 L36.1346993,41.3972571 L37.2648762,41.3972571 C37.7312163,41.390019 37.8780463,41.390019 38.3040599,41.3579646 L38.3237061,42.1272707 L38.3237061,42.3464816 C38.391951,42.1272707 38.465366,41.9328762 38.6856109,41.7126313 C38.9172299,41.4696381 39.2491483,41.3062639 39.6151891,41.3062639 C40.2593796,41.3062639 40.5282231,41.8232707 40.5282231,42.2792707 C40.5282231,42.8903728 40.1270259,42.9927401 39.9057469,42.9927401 C39.8054476,42.9927401 39.2791347,42.9420735 39.2791347,42.3278694 C39.2791347,42.2792707 39.3122231,42.0238694 39.3122231,41.9742367 C39.3122231,41.7612299 39.1612571,41.7612299 39.1312707,41.7612299 C38.996849,41.7612299 38.8179646,41.9225361 38.6856109,42.1272707 C38.3557605,42.6577197 38.3340463,43.4466721 38.3237061,44.0009034 L38.3237061,45.2013932 L38.3454204,46.0141279 Z" id="Fill-48" fill="#FFFFFF"></path>
            <path d="M41.5090884,40.0282231 L42.9608435,40.0282231 L42.9411973,41.0746449 L42.9411973,41.3972571 L43.9452245,41.3972571 L43.9452245,41.6619646 L42.9411973,41.6619646 L42.9411973,44.7360871 C42.9525714,45.3895837 42.9608435,45.946917 43.4644082,45.946917 C43.7653061,45.946917 43.9452245,45.7835429 44.1416871,45.6025905 L44.3226395,45.8052571 C44.0300136,46.0668626 43.6846531,46.3687946 42.8512381,46.3687946 C41.5183946,46.3687946 41.5183946,45.4723048 41.5183946,44.959434 L41.5287347,43.515951 L41.5287347,41.6619646 L40.7645986,41.6619646 L40.7645986,41.3972571 L41.5287347,41.3972571 L41.5287347,41.0746449 L41.5090884,40.0282231 Z" id="Fill-50" fill="#FFFFFF"></path>
            <path d="M45.4381333,39.1618231 C45.9530721,39.1618231 46.0761197,39.150449 46.5279837,39.1204626 L46.5073034,40.219619 L46.5073034,42.1346122 C46.701698,41.8337143 46.8888544,41.5514286 47.4648,41.3808163 C47.7067592,41.2980952 47.9497524,41.2691429 48.2010177,41.2691429 C48.9486095,41.2691429 49.3125823,41.5617687 49.4728544,41.7127347 C49.8450993,42.0849796 49.8761197,42.5306395 49.8968,42.9111565 L49.8968,45.309034 L49.9154122,46.0142313 L50.6123374,46.0142313 L50.6123374,46.2779048 L47.6571265,46.2779048 L47.6571265,46.0142313 L48.4326367,46.0142313 L48.453317,45.309034 L48.453317,42.8894422 C48.453317,42.495483 48.453317,41.7127347 47.6674667,41.7127347 C47.385181,41.7127347 47.1111673,41.8337143 46.9126367,42.0332789 C46.5693442,42.3796735 46.5383238,42.8315374 46.5073034,43.4147211 L46.5073034,45.309034 L46.5279837,46.0142313 L47.2838476,46.0142313 L47.2838476,46.2779048 L44.3420789,46.2779048 L44.3420789,46.0142313 L45.0751946,46.0142313 L45.0958748,45.3007619 L45.0958748,40.219619 L45.0751946,39.4244626 L44.3420789,39.4244626 L44.3420789,39.1618231 L45.4381333,39.1618231 Z" id="Fill-52" fill="#FFFFFF"></path>
            <path d="M59.5447673,45.7748571 C58.8013116,46.0468027 57.8748354,46.3776871 56.7146721,46.3776871 C54.6383728,46.3776871 53.0956245,44.8866395 53.0956245,42.7121088 C53.0956245,40.3617959 54.8689578,39 56.8749442,39 C57.4912163,39 58.4383728,39.1426939 59.5065088,39.604898 L59.5065088,41.6098503 L59.1921687,41.6098503 C59.1435701,41.2293333 59.062917,40.6047891 58.4456109,39.988517 C57.9741007,39.5159728 57.4322776,39.3412245 56.9566313,39.3412245 C56.4210122,39.3412245 55.8884952,39.5645714 55.5358966,39.9171701 C55.031298,40.4217687 54.807951,41.2293333 54.807951,42.6997007 C54.807951,44.1225034 54.9816653,44.9983129 55.5038422,45.532898 C55.795434,45.8358639 56.2597061,46.0767891 56.8129034,46.0767891 C57.3495565,46.0767891 57.9865088,45.8668844 58.4993796,45.3229932 C59.1032435,44.697415 59.1735565,44.1628299 59.212849,43.7792109 L59.5447673,43.7792109 L59.5447673,45.7748571 Z" id="Fill-54" fill="#FFFFFF"></path>
            <path d="M63.4223184,43.254449 C63.2620463,43.3144218 63.1100463,43.3754286 62.9446041,43.4260952 C62.2218286,43.6783946 61.7099918,43.8490068 61.7099918,44.8954286 C61.7099918,45.1177415 61.7099918,45.9046259 62.4544816,45.9046259 C63.3799238,45.9046259 63.4006041,44.8158095 63.4223184,43.9896327 L63.4223184,43.254449 Z M64.8016925,45.229415 C64.8016925,45.4837823 64.8223728,46.0069932 65.3362776,46.0069932 C65.4179646,46.0069932 65.4862095,45.9966531 65.5596245,45.9842449 L65.5596245,46.2779048 C65.0343456,46.3202993 64.7334476,46.3399456 64.3684408,46.3399456 C63.6022367,46.3399456 63.4905633,45.8849796 63.4223184,45.5737415 C63.2899646,45.8053605 62.9446041,46.3782041 61.8806041,46.3782041 C60.9324136,46.3782041 60.2665088,45.8663673 60.2665088,44.8582041 C60.2665088,43.9007075 60.890019,43.6659864 61.1816109,43.557415 C61.5145633,43.4467755 61.8599238,43.3950748 62.1908082,43.3247619 C62.6054476,43.2337687 63.010781,43.103483 63.4119782,42.9711293 L63.4119782,42.4468844 C63.4006041,42.0953197 63.3799238,41.5514286 62.6054476,41.5514286 C62.2735293,41.5514286 62.0305361,41.6517279 61.9002503,41.7809796 C61.7461823,41.9329796 61.7461823,42.0746395 61.7461823,42.346585 C61.7461823,42.5895782 61.6758694,42.8894422 61.1547265,42.8894422 C60.9913524,42.8894422 60.6170395,42.872898 60.6170395,42.417932 C60.6170395,42.1625306 60.7607673,41.9226395 60.9220735,41.7613333 C61.1547265,41.5307483 61.5983184,41.2691429 62.7564136,41.2691429 C64.7624,41.2691429 64.7820463,42.1966531 64.8016925,42.9204626 L64.8016925,45.229415 Z" id="Fill-56" fill="#FFFFFF"></path>
            <path d="M68.169268,46.0141279 L68.9168599,46.0141279 L68.9168599,46.2778014 L65.960615,46.2778014 L65.960615,46.0141279 L66.6978667,46.0141279 L66.720615,45.2013932 L66.720615,42.5470803 L66.6978667,41.6619646 L65.960615,41.6619646 L65.960615,41.3972571 L67.0897578,41.3972571 C67.556098,41.390019 67.7060299,41.390019 68.1289415,41.3579646 L68.1506558,42.1272707 L68.1506558,42.3464816 C68.2209687,42.1272707 68.2902476,41.9328762 68.5104925,41.7126313 C68.7472816,41.4696381 69.0792,41.3062639 69.4400707,41.3062639 C70.0863293,41.3062639 70.3572408,41.8232707 70.3572408,42.2792707 C70.3572408,42.8903728 69.9550095,42.9927401 69.7316626,42.9927401 C69.6334313,42.9927401 69.1081524,42.9420735 69.1081524,42.3278694 C69.1081524,42.2792707 69.1402068,42.0238694 69.1402068,41.9742367 C69.1402068,41.7612299 68.9871728,41.7612299 68.9582204,41.7612299 C68.8237986,41.7612299 68.6449143,41.9225361 68.5104925,42.1272707 C68.1806422,42.6577197 68.1609959,43.4466721 68.1506558,44.0009034 L68.1506558,45.2013932 L68.169268,46.0141279 Z" id="Fill-58" fill="#FFFFFF"></path>
            <path d="M72.1316082,43.6169741 C72.1316082,45.201083 72.2329415,46.1058449 73.2007782,46.1058449 C74.1799891,46.1058449 74.249268,45.1897088 74.249268,43.8589333 C74.249268,42.6418993 74.1882612,41.5230966 73.1904381,41.5302998 C72.2546558,41.5302998 72.1316082,42.4857633 72.1316082,43.6169741 M75.7920163,43.8589333 C75.7920163,45.4502803 74.5191456,46.3881306 73.1604517,46.3881306 C71.6787102,46.3881306 70.5992,45.3220626 70.5992,43.8175728 C70.5992,42.235532 71.7479891,41.2883755 73.1397714,41.2687293 C74.7724789,41.2397769 75.7920163,42.3989061 75.7920163,43.8589333" id="Fill-60" fill="#FFFFFF"></path>
            <path d="M77.1431619,39.1618231 C77.6167401,39.150449 77.757366,39.150449 78.2009578,39.1204626 L78.1802776,40.2413333 L78.1802776,45.2108027 L78.2009578,46.0142313 L78.895815,46.0142313 L78.895815,46.2779048 L75.9519782,46.2779048 L75.9519782,46.0142313 L76.7078422,46.0142313 L76.7285224,45.2108027 L76.7285224,40.2413333 L76.7078422,39.4244626 L75.9519782,39.4244626 L75.9519782,39.1618231 L77.1431619,39.1618231 Z" id="Fill-62" fill="#FFFFFF"></path>
            <path d="M79.9746014,39.9060027 C79.9746014,39.474819 80.3396082,39.1108463 80.7790639,39.1108463 C81.2154177,39.1108463 81.5669823,39.4634449 81.5669823,39.9060027 C81.5669823,40.3516626 81.2154177,40.7052952 80.7790639,40.7052952 C80.5681252,40.7052952 80.3582204,40.6225741 80.2144925,40.4726422 C80.0655946,40.3206422 79.9746014,40.1169415 79.9746014,39.9060027 L79.9746014,39.9060027 Z M80.2765333,41.3970503 C80.861785,41.3908463 81.0644517,41.3908463 81.5576762,41.3577578 L81.5349279,42.4682884 L81.5349279,45.2291048 L81.5576762,46.0139211 L82.2525333,46.0139211 L82.2525333,46.2775946 L79.3086966,46.2775946 L79.3086966,46.0139211 L80.0655946,46.0139211 L80.0852408,45.2291048 L80.0852408,42.4682884 L80.0655946,41.6617578 L79.3086966,41.6617578 L79.3086966,41.3970503 L80.2765333,41.3970503 Z" id="Fill-64" fill="#FFFFFF"></path>
            <path d="M88.2083483,46.0141279 L88.9073415,46.0141279 L88.9073415,46.2778014 L86.0131374,46.2778014 L86.0131374,46.0141279 L86.7286748,46.0141279 L86.7483211,45.2293116 L86.7483211,42.6411755 C86.737981,42.3278694 86.7286748,41.7415837 86.0638041,41.7415837 C85.8125388,41.7415837 85.526117,41.843951 85.3141442,42.0455837 C84.8922667,42.4591891 84.8839946,43.1116517 84.8653823,43.7579102 L84.8653823,45.2293116 L84.8839946,46.0141279 L85.5902259,46.0141279 L85.5902259,46.2778014 L82.6743075,46.2778014 L82.6743075,46.0141279 L83.4125932,46.0141279 L83.4301714,45.2293116 L83.4301714,42.3992163 L83.4125932,41.6733388 L82.6743075,41.6733388 L82.6743075,41.4086313 L83.7134912,41.4086313 C84.2594503,41.3972571 84.4000762,41.3972571 84.8839946,41.3693388 L84.8653823,42.2554884 C84.9936,41.992849 85.0949333,41.7922503 85.3875592,41.5895837 C85.679151,41.3972571 86.0927565,41.2566313 86.6294095,41.2566313 C86.9892463,41.2566313 87.2208653,41.3290122 87.3625252,41.3817469 C88.1411374,41.6733388 88.1690558,42.3278694 88.1897361,42.7497469 L88.1897361,45.2293116 L88.2083483,46.0141279 Z" id="Fill-66" fill="#FFFFFF"></path>
            <path d="M92.7290558,43.254449 C92.5698177,43.3144218 92.4167837,43.3754286 92.2554776,43.4260952 C91.528566,43.6783946 91.0156952,43.8490068 91.0156952,44.8954286 C91.0156952,45.1177415 91.0156952,45.9046259 91.761219,45.9046259 C92.6887293,45.9046259 92.7094095,44.8158095 92.7290558,43.9896327 L92.7290558,43.254449 Z M94.1094639,45.229415 C94.1094639,45.4837823 94.1301442,46.0069932 94.643015,46.0069932 C94.724702,46.0069932 94.797083,45.9966531 94.8622259,45.9842449 L94.8622259,46.2779048 C94.341083,46.3202993 94.040185,46.3399456 93.6772463,46.3399456 C92.9100082,46.3399456 92.7983347,45.8849796 92.7290558,45.5737415 C92.596702,45.8053605 92.2554776,46.3782041 91.1852735,46.3782041 C90.240185,46.3782041 89.5722122,45.8663673 89.5722122,44.8582041 C89.5722122,43.9007075 90.1988245,43.6659864 90.4914503,43.557415 C90.8233687,43.4467755 91.1656272,43.3950748 91.4975456,43.3247619 C91.913219,43.2337687 92.3144163,43.103483 92.7187156,42.9711293 L92.7187156,42.4468844 C92.7094095,42.0953197 92.6887293,41.5514286 91.913219,41.5514286 C91.5813007,41.5514286 91.3383075,41.6517279 91.2080218,41.7809796 C91.0560218,41.9329796 91.0560218,42.0746395 91.0560218,42.346585 C91.0560218,42.5895782 90.9857088,42.8894422 90.4614639,42.8894422 C90.2991238,42.8894422 89.9279129,42.872898 89.9279129,42.417932 C89.9279129,42.1625306 90.0685388,41.9226395 90.2288109,41.7613333 C90.4614639,41.5307483 90.9050558,41.2691429 92.063151,41.2691429 C94.0670694,41.2691429 94.0898177,42.1966531 94.1094639,42.9204626 L94.1094639,45.229415 Z" id="Fill-68" fill="#FFFFFF"></path>
            <path d="M46.7056327,0.238236735 L46.7056327,6.29238639 L52.7618503,6.29238639 L52.7618503,15.9790259 L46.7056327,15.9790259 L46.7056327,22.0362776 L37.0551837,22.0362776 L37.0551837,15.9790259 L31,15.9790259 L31,6.29238639 L37.0551837,6.29238639 L37.0551837,0.238236735 L46.7056327,0.238236735 Z M41.5248109,11.7973714 L38.607,16.1532367 L38.8466582,16.3022528 C39.7398449,16.8305188 40.7824753,17.1328816 41.8980898,17.1328816 C43.0118086,17.1328816 44.0534122,16.8305188 44.9472373,16.3022528 L45.186,16.1532367 L42.2693007,11.7973714 C42.0656,11.5150857 41.7398857,11.4892354 41.5248109,11.7973714 Z M36.2958041,9.04234558 C36.0497088,9.69997823 35.912185,10.4113796 35.912185,11.1527673 C35.912185,13.0646585 36.8107429,14.7645769 38.2076952,15.8626993 L38.206,15.8612367 L40.9530014,10.7050395 C41.1400932,10.2959578 41.0745384,9.6296855 40.4453565,9.45939134 L40.3119129,9.43216871 L36.2958041,9.04648163 Z M47.497,9.04623673 L43.4832327,9.43216871 C42.7315048,9.53970612 42.6425796,10.2686857 42.8411102,10.7050395 L45.588,15.8612367 L45.7832929,15.7017729 C47.065778,14.6021992 47.8798585,12.9736161 47.8798585,11.1527673 C47.8798585,10.5172921 47.7795803,9.90384773 47.5953028,9.32741077 L47.497,9.04623673 Z M41.8980898,5.16996463 C39.4960762,5.16996463 37.429083,6.58346122 36.4746884,8.62150204 L40.7337905,8.62150204 C41.3417905,8.60805986 41.608566,8.25442721 41.6209741,7.96283537 C41.6354503,7.62057687 41.5806476,7.51200544 41.2993959,7.14596463 C40.9881578,6.73856327 41.2021986,5.94547483 41.8980898,5.93306667 C42.593981,5.94547483 42.8059537,6.73856327 42.4957497,7.14596463 C42.214498,7.51200544 42.1565932,7.62057687 42.1762395,7.96283537 C42.1855456,8.25442721 42.4543891,8.60805986 43.0603211,8.62150204 L47.3194231,8.62150204 C46.3639946,6.58346122 44.2970014,5.16996463 41.8980898,5.16996463 Z" id="Combined-Shape" fill="#FFFFFF"></path>
            <path d="M36.8926367,9.92704762 L39.9316027,10.2072653 C40.1518476,10.2238095 40.1683918,10.3168707 40.1146231,10.4440544 L37.9897252,14.5087619 C37.213181,13.6081361 36.7447728,12.4324626 36.7447728,11.1533878 C36.7447728,10.7304762 36.7954395,10.3199728 36.8926367,9.92704762" id="Fill-74" fill="#FFFFFF"></path>
            <path d="M46.9035429,9.92704762 L43.8604408,10.2072653 C43.644332,10.2238095 43.6267537,10.3168707 43.6763864,10.4440544 L45.8074884,14.5087619 C46.5809306,13.6081361 47.0483048,12.4324626 47.0483048,11.1533878 C47.0483048,10.7304762 46.9976381,10.3199728 46.9035429,9.92704762" id="Fill-80" fill="#FFFFFF"></path>
            <path d="M43.3279238,6.20201361 C43.6298558,6.70764626 43.3858286,7.36631293 43.0983728,7.67858503 C43.0466721,7.73235374 43.0725224,7.78922449 43.1211211,7.80473469 L45.8136925,7.80473469 C45.168468,7.05093878 44.3092027,6.48326531 43.3279238,6.20201361" id="Fill-82" fill="#FFFFFF"></path>
            <path d="M72.3036735,-4.26325641e-13 C73.8733061,3.08963265 74.0966531,8.04669388 72.7431293,12.237551 C71.435102,16.2764082 68.8997007,19.9554286 64.7160816,22.269551 C60.5334966,19.9554286 57.9980952,16.2764082 56.6921361,12.237551 C55.3365442,8.04669388 55.5609252,3.08963265 57.1315918,-4.26325641e-13 C59.5201633,1.20462585 61.9221769,1.824 64.7160816,1.8167619 C67.5099864,1.8084898 69.913034,1.20462585 72.3036735,-4.26325641e-13 Z M71.3151565,2.31463946 C69.5945578,2.90609524 68.5863946,3.08808163 67.6516463,3.23387755 C66.7789388,3.37140136 65.9992925,3.45412245 64.7233197,3.47066667 L64.7129796,3.47066667 C63.4349388,3.45412245 62.6563265,3.37140136 61.782585,3.23387755 C60.8457687,3.08808163 59.8355374,2.90609524 58.1190748,2.31463946 C56.9713197,5.11164626 57.2277551,8.69967347 58.2700408,11.7603537 C59.4041755,15.0908759 61.1513708,18.0531761 64.3697254,20.1735317 L64.7164411,20.395 L65.063675,20.1735317 C68.2838282,18.0531761 70.0301628,15.0908759 71.1672925,11.7603537 C72.2054422,8.69967347 72.4629116,5.11164626 71.3151565,2.31463946 Z" id="Combined-Shape" fill="#FFFFFF"></path>
            <path d="M70.7268027,3.39270204 C71.4557823,5.46072925 71.2975782,8.06644354 70.7412789,10.3878041 C69.683483,14.7616816 67.0457143,18.0839673 64.7160816,19.5501986 L64.7176353,19.548702 L64.5008698,19.4073263 C62.2994905,17.9247178 59.8784655,14.8329067 58.8003643,10.7947497 L58.6970884,10.3878041 C58.1376871,8.06644354 57.980517,5.46072925 58.7094966,3.39270204 C59.7517823,3.67291973 60.7247891,3.90247075 61.7308844,4.0358585 C62.7380136,4.17338231 63.7327347,4.26954558 64.7150476,4.27781769 L64.7150476,4.27781769 C65.6994286,4.26954558 66.6951837,4.17338231 67.704381,4.0358585 C68.7084082,3.90247075 69.683483,3.67291973 70.7268027,3.39270204 Z M64.5692517,15.6576544 C64.5692517,15.6576544 64.588898,17.3193143 64.6157823,18.1754776 C64.6261224,18.3698721 64.7357279,18.4226068 64.9208163,18.4298449 C65.1493333,18.4453551 65.2175782,18.3005932 65.2186122,18.2168381 C65.2268844,17.9417905 65.2651429,16.7506068 65.274449,16.1250286 C65.279619,16.0733279 65.2589388,16.0650558 65.2341224,16.0309333 C65.124517,15.9161578 64.969415,15.8396408 64.9332245,15.8158585 C64.820517,15.7507156 64.5692517,15.6576544 64.5692517,15.6576544 Z M64.4169415,16.5384272 C64.4169415,16.5384272 64.304234,16.599434 64.1687782,16.7400599 C64.0674449,16.8434612 63.9009687,17.0544 63.8730503,17.3925224 C63.848234,17.6954884 63.9185469,17.7813116 63.9950639,17.9446857 C64.0571048,18.0791075 64.2018667,18.0729034 64.2535673,17.9457197 C64.2980299,17.8433524 64.2349551,17.7513252 64.2742476,17.5259102 C64.304234,17.3625361 64.4314177,17.278781 64.4314177,17.278781 L64.4169415,16.5384272 Z M64.3206748,13.4501388 C64.3206748,13.4501388 64.0394231,13.5059755 63.9091374,13.5845605 C63.7871238,13.6548735 63.6030694,13.7768871 63.5265524,13.9671456 C63.3001034,14.4934585 63.5813551,15.0094313 64.0218449,15.2234721 C64.2534639,15.3382476 64.5574639,15.441649 64.8066612,15.5378122 C65.0527565,15.6339755 65.4818721,15.898683 65.5128925,16.0258667 C65.5325388,16.1054857 65.4415456,16.1809687 65.4415456,16.1809687 L65.4301714,16.814819 C65.4301714,16.814819 65.697981,16.7569143 65.8903075,16.5997442 C66.0743619,16.4456762 66.2087837,16.2502476 66.2067392,15.9328054 C66.2067392,15.5874449 66.0443755,15.3165333 65.552185,15.0280435 C65.168566,14.8026286 64.7042939,14.6247782 64.3403211,14.4634721 C64.2896544,14.4417578 64.2441578,14.3373224 64.2638041,14.2763156 C64.2824163,14.2091048 64.3268789,14.1832544 64.3268789,14.1832544 L64.3206748,13.4501388 Z M64.5107265,12.9887619 L64.5179646,14.3433197 L64.9191619,14.5097959 L65.3255293,14.6969524 L65.3420735,13.074585 C65.0349714,13.0363265 64.8705633,13.0342585 64.5107265,12.9887619 L64.5107265,12.9887619 Z M63.7561034,10.506819 C63.3797224,10.6691592 63.1377633,11.0145197 63.0943347,11.4033088 C63.0157497,12.1560707 63.5058721,12.5593361 64.0456272,12.6865197 C64.4788789,12.7899211 64.8924844,12.8116354 65.3422803,12.861268 C65.400185,12.8705741 65.5190966,12.8736762 65.6080218,12.9140027 C65.6876408,12.9450231 65.7269333,12.9946558 65.7403755,13.0442884 C65.7631238,13.1135673 65.7517497,13.1673361 65.7083211,13.2221388 C65.6607565,13.2831456 65.5315048,13.317268 65.5315048,13.317268 L65.5077224,14.2209959 L65.5565324,14.2173251 C65.6649946,14.2068006 65.9347701,14.1675719 66.1663891,14.0276354 C66.4455728,13.8611592 66.6182531,13.6471184 66.6813279,13.3772408 C66.7506068,13.0660027 66.7030422,12.7620027 66.4807293,12.4590367 C66.3359673,12.2584381 66.0816,12.1126422 65.8210286,12.022683 C65.2885116,11.8365605 64.712566,11.8655129 64.1593687,11.7858939 C64.0766476,11.7755537 63.9959946,11.7104109 63.9877224,11.6318259 C63.9753143,11.492234 64.107668,11.4270912 64.107668,11.4270912 L63.9711782,11.0010776 C63.9081034,10.8439075 63.8171102,10.6215946 63.7561034,10.506819 Z M64.1539918,9.67991837 L64.1539918,9.84019048 C64.1539918,9.84019048 63.939951,9.92911565 63.9037605,9.99012245 C63.8913524,10.0190748 63.8313796,10.0893878 63.860332,10.1597007 C64.0340463,10.6343129 64.2801415,11.095483 64.3514884,11.6011156 C64.6854748,11.6476463 64.9781007,11.6352381 65.3865361,11.6921088 L65.4010122,9.77608163 C65.4010122,9.77608163 65.150781,9.72334694 64.8064544,9.70059864 C64.3607946,9.67268027 64.1539918,9.67991837 64.1539918,9.67991837 Z M62.3389878,5.8293551 C61.5521034,6.23882449 61.2780898,7.20149116 61.6317224,7.97803537 C61.9398585,8.65117823 62.5447565,9.09787211 63.2458177,9.30467483 C63.6004844,9.4091102 63.954117,9.43702857 64.3211918,9.45667483 C64.7668517,9.4773551 65.171151,9.48872925 65.5981986,9.59936871 C65.6881578,9.62418503 65.7915592,9.67795374 65.8391238,9.7658449 C65.9549333,9.98091973 65.851532,10.2177088 65.624049,10.2797497 C65.6199129,10.6581986 65.5847565,11.4088925 65.5847565,11.4088925 L65.6132209,11.4055234 C65.8437109,11.3752537 67.3888804,11.1146582 67.1016544,9.59523265 C67.0282395,9.20127347 66.7190694,8.79697415 66.3654367,8.61498776 C65.4503347,8.14657959 64.4421714,8.34924626 63.5063891,8.04421224 C63.1889469,7.94391293 62.7494912,7.78777687 62.662634,7.43207619 C62.6274776,7.28938231 62.659532,7.00606259 62.8042939,6.95849796 C63.043151,6.88404898 63.3057905,7.08257959 63.650117,7.16013061 C63.8672599,7.20976327 64.0823347,7.20976327 64.2529469,7.15702857 C64.3284299,7.13738231 64.4390694,7.1063619 64.4473415,7.06189932 C64.4390694,7.02570884 64.3511782,6.99055238 64.3098177,6.96677007 C64.2033143,6.91403537 64.0937088,6.88715102 63.9810014,6.84372245 C63.7907429,6.7713415 63.6025524,6.68345034 63.4091918,6.57487891 C63.5891102,6.53868844 63.8920762,6.52938231 64.0740626,6.55006259 C64.2146884,6.56867483 64.6572463,6.56247075 64.7896,6.52731429 C64.8185524,6.51904218 64.8847293,6.49525986 64.8547429,6.44355918 C64.8051102,6.35877007 64.717219,6.32671565 64.6572463,6.24296054 C64.5300626,6.06717823 64.4173551,5.8903619 64.2084844,5.80764082 C63.6066884,5.5780898 62.9387156,5.51604898 62.3389878,5.8293551 Z M64.4657469,5.04236735 C64.4006041,5.0082449 64.2734204,5.06511565 64.2279238,5.15817687 C64.163815,5.29053061 64.2031075,5.6090068 64.2031075,5.6090068 C64.2031075,5.6090068 64.4378286,5.72895238 64.5298558,5.81167347 C64.6384272,5.90887075 64.7366585,6.05983673 64.7976653,6.1404898 C64.8462639,6.20770068 64.9083048,6.27180952 64.9693116,6.33385034 C65.0561687,6.43001361 65.1130395,6.51997279 65.082019,6.58614966 C65.0530667,6.62957823 64.9496653,6.65336054 64.8266177,6.67404082 C64.5691483,6.71643537 64.2651483,6.71746939 64.2651483,6.71746939 C64.2651483,6.71746939 64.925883,6.79605442 65.1699102,6.86223129 C65.309502,6.89428571 65.3384544,6.91496599 65.3932571,6.9770068 C65.4232435,7.01009524 65.4387537,7.10729252 65.4149714,7.15278912 C65.0137741,6.9770068 64.7583728,6.90979592 64.3447673,6.84465306 C64.3840599,6.85809524 64.5040054,6.91393197 64.5743184,6.96563265 C64.6363592,7.0069932 64.6466993,7.07627211 64.6394612,7.09488435 C64.5629442,7.29651701 64.1534748,7.3647619 64.1534748,7.3647619 L64.1534748,7.3647619 L64.1534748,7.96345578 C64.5536381,8.04410884 65.074781,8.02859864 65.5917878,8.13303401 C65.5917878,8.13303401 65.6662367,8.03790476 65.7086313,7.96345578 C65.8492571,7.74114286 66.068468,7.59638095 66.2483864,7.40095238 C66.5172299,7.10729252 66.8212299,6.89428571 67.0404408,6.67093878 C67.1448762,6.55926531 67.2213932,6.53444898 67.2730939,6.36280272 C67.3868354,5.99882993 66.902917,5.75480272 66.7292027,5.82821769 C66.3569578,5.98538776 66.1077605,6.32764626 65.7396517,6.52721088 C65.6941551,6.55306122 65.6352163,6.55306122 65.607298,6.49515646 C65.5555973,6.31317007 65.613502,5.89646259 65.5586993,5.6317551 C65.531815,5.51077551 65.531815,5.50457143 65.4501279,5.44459864 C65.0561687,5.37635374 64.7625088,5.20780952 64.4657469,5.04236735 Z" id="Combined-Shape" fill="#FFFFFF"></path>
            <path d="M64.1485116,6.06366259 C64.0740626,6.11846531 64.0182259,6.17223401 63.9334367,6.18567619 C63.7638585,6.21462857 63.7866068,6.06676463 63.6728653,5.98197551 C63.6004844,5.93337687 63.5332735,5.99955374 63.4701986,5.88064218 C63.7162939,5.88891429 64.0389061,5.8672 64.2208925,6.05125442 C64.2002122,6.0419483 64.1598857,6.05642449 64.1485116,6.06366259" id="Fill-106" fill="#FFFFFF"></path>
            <path d="M41.8133007,12.7817524 C41.8618993,12.7186776 41.9239401,12.7145415 41.9839129,12.7817524 L43.9940354,15.8610449 C43.3529469,16.1453986 42.6446476,16.3046367 41.8980898,16.3046367 C41.1484299,16.3046367 40.4401306,16.1453986 39.8011102,15.8610449 L41.8133007,12.7817524 C41.8691374,12.7145415 41.9363483,12.7186776 41.9839129,12.7817524" id="Fill-108" fill="#FFFFFF"></path>
            <path d="M40.4651537,6.20201361 C40.1621878,6.70764626 40.407249,7.36631293 40.6957388,7.67858503 C40.7495075,7.73235374 40.7226231,7.78922449 40.6760925,7.80473469 L37.9814531,7.80473469 C38.6277116,7.05093878 39.4869769,6.48326531 40.4651537,6.20201361" id="Fill-112" fill="#FFFFFF"></path>
            <path d="M69.3267483,20.5953796 L69.3267483,20.9852027 L69.5201088,20.9852027 C69.7207075,20.9852027 69.8158367,20.9366041 69.8158367,20.7990803 C69.8158367,20.6543184 69.7207075,20.5953796 69.5139048,20.5953796 L69.3267483,20.5953796 Z M70.0464218,20.776332 C70.0464218,20.9428082 69.9512925,21.0617197 69.7734422,21.0927401 L70.0391837,21.6345633 L69.7899864,21.6345633 L69.5521633,21.1330667 L69.3267483,21.1330667 L69.3267483,21.6345633 L69.1044354,21.6345633 L69.1044354,20.4516517 L69.5552653,20.4516517 C69.8820136,20.4516517 70.0464218,20.5612571 70.0464218,20.776332 L70.0464218,20.776332 Z M70.1725714,20.4237333 C69.9998912,20.245883 69.7734422,20.1569578 69.528381,20.1569578 C69.2822857,20.1569578 69.0579048,20.244849 68.8934966,20.4113252 C68.7166803,20.5943456 68.617415,20.8249306 68.617415,21.0627537 C68.617415,21.3016109 68.7115102,21.5259918 68.8862585,21.6986721 C69.0568707,21.8723864 69.2864218,21.9675156 69.5201088,21.9675156 C69.7662041,21.9675156 69.988517,21.8744544 70.1663673,21.7028082 C70.3380136,21.536332 70.4341769,21.314019 70.4341769,21.0710259 C70.4341769,20.8197605 70.3390476,20.5943456 70.1725714,20.4237333 L70.1725714,20.4237333 Z M70.2687347,20.3265361 C70.4620952,20.5240327 70.5706667,20.7856381 70.5706667,21.0627537 C70.5706667,21.3491755 70.4651973,21.6056109 70.2677007,21.7948354 C70.060898,21.996468 69.7951565,22.1091755 69.5273469,22.1091755 C69.2440272,22.1091755 68.9865578,21.996468 68.7869932,21.7948354 C68.5874286,21.5963048 68.4829932,21.3388354 68.4829932,21.0627537 C68.4829932,20.7877061 68.5946667,20.5188626 68.7962993,20.3151619 C68.9906939,20.1197333 69.2419592,20.017366 69.5273469,20.017366 C69.8085986,20.017366 70.0691701,20.1259374 70.2687347,20.3265361 L70.2687347,20.3265361 Z" id="Fill-114" fill="#FFFFFF"></path>
            <path d="M48.3505415,20.5953796 L48.3505415,20.9852027 L48.537698,20.9852027 C48.7445007,20.9852027 48.8385959,20.9366041 48.8385959,20.7990803 C48.8385959,20.6543184 48.7445007,20.5953796 48.5356299,20.5953796 L48.3505415,20.5953796 Z M49.0671129,20.776332 C49.0671129,20.9428082 48.9668136,21.0617197 48.7972354,21.0927401 L49.0609088,21.6345633 L48.8106776,21.6345633 L48.5697524,21.1330667 L48.3505415,21.1330667 L48.3505415,21.6345633 L48.1251265,21.6345633 L48.1251265,20.4516517 L48.5738884,20.4516517 C48.9027048,20.4516517 49.0671129,20.5612571 49.0671129,20.776332 L49.0671129,20.776332 Z M49.1953306,20.4237333 C49.0195483,20.245883 48.7972354,20.1569578 48.5480381,20.1569578 C48.3050449,20.1569578 48.0785959,20.244849 47.9152218,20.4113252 C47.7363374,20.5943456 47.6401741,20.8249306 47.6401741,21.0627537 C47.6401741,21.3016109 47.7353034,21.5259918 47.9059156,21.6986721 C48.0754939,21.8723864 48.3071129,21.9675156 48.537698,21.9675156 C48.7868952,21.9675156 49.0102422,21.8744544 49.1870585,21.7028082 C49.3587048,21.536332 49.4528,21.314019 49.4528,21.0710259 C49.4528,20.8197605 49.3628408,20.5943456 49.1953306,20.4237333 L49.1953306,20.4237333 Z M49.2914939,20.3265361 C49.4817524,20.5240327 49.5913578,20.7856381 49.5913578,21.0627537 C49.5913578,21.3491755 49.4869224,21.6056109 49.2883918,21.7948354 C49.0815891,21.996468 48.8179156,22.1091755 48.543902,22.1091755 C48.2667864,22.1091755 48.009317,21.996468 47.8076844,21.7948354 C47.6091537,21.5963048 47.5005823,21.3388354 47.5005823,21.0627537 C47.5005823,20.7877061 47.6143238,20.5188626 47.8169905,20.3151619 C48.010351,20.1197333 48.2636844,20.017366 48.543902,20.017366 C48.8292898,20.017366 49.0919293,20.1259374 49.2914939,20.3265361 L49.2914939,20.3265361 Z" id="Fill-116" fill="#FFFFFF"></path>
        </g>
    </g>
</svg>