<?xml version="1.0" encoding="UTF-8"?>
<svg width="105px" height="47px" viewBox="0 0 105 47" version="1.1" xmlns="http://www.w3.org/2000/svg" xmlns:xlink="http://www.w3.org/1999/xlink">
    <!-- Generator: Sketch 61.2 (89653) - https://sketch.com -->
    <title>centered-regular</title>
    <desc>Created with Sketch.</desc>
    <defs>
        <polygon id="path-1" points="0.122944218 0.559091156 5.93834014 0.559091156 5.93834014 7.82717279 0.122944218 7.82717279"></polygon>
    </defs>
    <g id="ID-Card" stroke="none" stroke-width="1" fill="none" fill-rule="evenodd">
        <g id="centered-regular">
            <g id="Group-3" transform="translate(0.000000, 28.000000)">
                <path d="M2.5612517,3.94703673 L2.5612517,6.62823401 L2.58296599,7.4254585 L3.34606803,7.4254585 C3.69866667,7.40477823 4.07504762,7.37272381 4.39352381,7.06458776 C4.81229932,6.63857415 4.81229932,5.91373061 4.81229932,5.66143129 C4.81229932,4.88385306 4.63651701,4.47334966 4.3242449,4.22932245 C4.09159184,4.04630204 3.68936054,3.93876463 3.07619048,3.94703673 L2.5612517,3.94703673 Z M2.58296599,0.901866667 L2.57055782,1.59879184 L2.5612517,3.65441088 L3.22819048,3.65441088 C3.66971429,3.65441088 4.02334694,3.51585306 4.16293878,3.33283265 C4.33561905,3.1312 4.42454422,2.79721361 4.42454422,2.27296871 C4.42454422,1.13348571 4.07504762,0.923580952 3.29746939,0.901866667 L2.58296599,0.901866667 Z M2.79776202e-14,0.599934694 L3.99336054,0.599934694 C4.39352381,0.61027483 4.83918367,0.631989116 5.2517551,0.81397551 C6.02106122,1.18622041 6.04070748,1.94001633 6.04070748,2.10235646 C6.04070748,2.50562177 5.89904762,2.87683265 5.60538776,3.17049252 C5.1297415,3.66578503 4.50623129,3.73506395 4.05333333,3.78676463 C4.54655782,3.80641088 5.34068027,3.84777143 5.95695238,4.47334966 C6.19994558,4.70290068 6.49463946,5.11650612 6.49463946,5.77000272 C6.49463946,6.23737687 6.34160544,6.72232925 5.95695238,7.10284626 C5.38514286,7.6756898 4.65616327,7.69637007 4.03265306,7.71601633 L2.79776202e-14,7.71601633 L2.79776202e-14,7.45751293 L0.978176871,7.45751293 L0.997823129,6.45762177 L0.997823129,1.69805714 L0.978176871,0.86257415 L2.79776202e-14,0.86257415 L2.79776202e-14,0.599934694 Z" id="Fill-1" fill="#231F20"></path>
                <path d="M8.10490884,0.59962449 C8.5805551,0.593420408 8.72221497,0.593420408 9.16477279,0.559297959 L9.14512653,1.67913469 L9.14512653,6.6496381 L9.16477279,7.45720272 L9.86066395,7.45720272 L9.86066395,7.71570612 L6.91682721,7.71570612 L6.91682721,7.45720272 L7.67269116,7.45720272 L7.69233741,6.6496381 L7.69233741,1.67913469 L7.67269116,0.862263946 L6.91682721,0.862263946 L6.91682721,0.59962449 L8.10490884,0.59962449 Z" id="Fill-3" fill="#231F20"></path>
                <path d="M11.0312707,2.83929796 C11.5534476,2.82999184 11.7137197,2.82999184 12.2079782,2.7969034 L12.188332,3.73475374 L12.188332,5.99200544 C12.188332,6.3766585 12.2079782,6.66928435 12.2896653,6.87091701 C12.417883,7.1821551 12.6918966,7.32381497 13.025883,7.32381497 C13.3185088,7.32381497 13.5718422,7.21420952 13.7631347,7.03222313 C14.1550259,6.63826395 14.1436517,6.11608707 14.1436517,5.6693932 L14.1436517,3.87744762 L14.1240054,3.1009034 L13.3784816,3.1009034 L13.3784816,2.83929796 L14.244985,2.83929796 C14.8281687,2.82999184 15.001883,2.82999184 15.5850667,2.7969034 L15.5654204,3.73475374 L15.5654204,6.52969252 L15.5850667,7.44479456 L16.3140463,7.44479456 L16.3140463,7.71570612 L15.5447401,7.71570612 C14.8995156,7.71570612 14.6689306,7.7291483 14.1829442,7.75810068 L14.1550259,6.98259048 C13.940985,7.24419592 13.4487946,7.82634558 12.3103456,7.82634558 C11.5658558,7.82634558 11.0902095,7.54612789 10.896849,7.16147483 C10.746917,6.87918912 10.7562231,6.51521633 10.7562231,6.21535238 L10.7562231,3.83712109 L10.7365769,3.1009034 L10.0003592,3.1009034 L10.0003592,2.83929796 L11.0312707,2.83929796 Z" id="Fill-5" fill="#231F20"></path>
                <path d="M20.1081524,4.69121633 C20.1164245,3.9064 20.1257306,2.97992381 19.2189007,2.97992381 C18.3627374,2.97992381 18.3203429,3.83712109 18.2903565,4.69121633 L20.1081524,4.69121633 Z M21.5785197,6.30531156 C21.3148463,6.79853605 20.7730231,7.82634558 19.2478531,7.82634558 C17.6833905,7.82634558 16.7279619,6.62792381 16.7279619,5.22786939 C16.7279619,3.88778776 17.6327238,2.69970612 19.2602612,2.69970612 C20.2642884,2.69970612 20.8195537,3.1308898 21.063581,3.3821551 C21.6167782,3.95706667 21.6374585,4.56299864 21.6498667,4.99521633 L18.2810503,4.99521633 C18.2903565,5.85241361 18.3100027,6.62792381 18.7349823,7.07358367 C18.9655673,7.31450884 19.3016218,7.41480816 19.6314721,7.41480816 C20.7182204,7.41480816 21.1318259,6.50074014 21.2745197,6.17295782 L21.5785197,6.30531156 Z" id="Fill-7" fill="#231F20"></path>
                <path d="M28.7366857,7.21472653 C27.9890939,7.48460408 27.0636517,7.81859048 25.9034884,7.81859048 C23.8271891,7.81859048 22.2844408,6.32650884 22.2844408,4.14784218 C22.2844408,1.80063129 24.0619102,0.438835374 26.0647946,0.438835374 C26.6810667,0.438835374 27.6292571,0.579461224 28.6953252,1.04269932 L28.6953252,3.04868571 L28.3840871,3.04868571 C28.3344544,2.66713469 28.2517333,2.03948844 27.6385633,1.42735238 C27.162917,0.954808163 26.6210939,0.782127891 26.1464816,0.782127891 C25.6129306,0.782127891 25.0773116,1.0034068 24.7247129,1.35600544 C24.2211483,1.85957007 23.9988354,2.66713469 23.9988354,4.13853605 C23.9988354,5.55823673 24.1725497,6.43921633 24.6957605,6.97380136 C24.9863184,7.27469932 25.4495565,7.5166585 26.0048218,7.5166585 C26.5373388,7.5166585 27.1722231,7.30468571 27.6881959,6.75976054 C28.2941279,6.13418231 28.3623728,5.60063129 28.4026993,5.21701224 L28.7366857,5.21701224 L28.7366857,7.21472653 Z" id="Fill-9" fill="#231F20"></path>
                <path d="M31.7357388,7.45699592 L32.4833306,7.45699592 L32.4833306,7.71549932 L29.5250177,7.71549932 L29.5250177,7.45699592 L30.2633034,7.45699592 L30.2829497,6.63805714 L30.2829497,3.98891429 L30.2633034,3.1006966 L29.5250177,3.1006966 L29.5250177,2.83909116 L30.6551946,2.83909116 C31.1205007,2.82978503 31.2725007,2.82978503 31.6933442,2.7966966 L31.7140245,3.56393469 L31.7140245,3.78624762 C31.7853714,3.56393469 31.8567184,3.37160816 32.0759293,3.15239728 C32.3106503,2.90940408 32.6394667,2.74913197 33.0034395,2.74913197 C33.650732,2.74913197 33.9226776,3.26096871 33.9226776,3.71490068 C33.9226776,4.33013878 33.5194122,4.43147211 33.2970993,4.43147211 C33.195766,4.43147211 32.6694531,4.37873741 32.6694531,3.76556735 C32.6694531,3.71490068 32.7046095,3.46260136 32.7046095,3.41090068 C32.7046095,3.20202993 32.5495075,3.20202993 32.5226231,3.20202993 C32.3892354,3.20202993 32.209317,3.36230204 32.0759293,3.56393469 C31.7429769,4.09748571 31.7233306,4.88437007 31.7140245,5.43756735 L31.7140245,6.63805714 L31.7357388,7.45699592 Z" id="Fill-11" fill="#231F20"></path>
                <path d="M35.6961143,5.05580952 C35.6961143,6.63785034 35.7964136,7.54571429 36.7642503,7.54571429 C37.7424272,7.54571429 37.8127401,6.62854422 37.8127401,5.29776871 C37.8127401,4.07763265 37.7527673,2.95882993 36.7539102,2.96917007 C35.8181279,2.96917007 35.6961143,3.92666667 35.6961143,5.05580952 M39.3565224,5.29776871 C39.3565224,6.89014966 38.0857197,7.82696599 36.7249578,7.82696599 C35.2401143,7.82696599 34.1647401,6.75882993 34.1647401,5.25640816 C34.1647401,3.67333333 35.3114612,2.72721088 36.7042776,2.70653061 C38.338019,2.67757823 39.3565224,3.83670748 39.3565224,5.29776871" id="Fill-13" fill="#231F20"></path>
                <path d="M40.3733714,5.86161633 C40.414732,6.15424218 40.4457524,6.39620136 40.6060245,6.69916735 C40.7662966,7.02177959 41.177834,7.52637823 41.8944054,7.52637823 C42.4920653,7.52637823 42.8849905,7.19342585 42.8849905,6.79016054 C42.8849905,6.33312653 42.4413986,6.15424218 41.7951401,5.92365714 C40.8996844,5.59070476 40.1417524,5.32082721 40.1417524,4.24648707 C40.1417524,2.97982041 41.253317,2.68926259 41.9471401,2.68926259 C42.5024054,2.68926259 42.9563374,2.84746667 43.4288816,3.0098068 L43.4485279,4.32093605 L43.1434939,4.32093605 C43.1073034,4.1193034 43.0649088,3.93938503 42.9956299,3.77601088 C42.8653442,3.50303129 42.4786231,3.01911293 41.8365007,3.01911293 C41.2926095,3.01911293 41.0485823,3.38308571 41.0485823,3.63641905 C41.0485823,3.94662313 41.3122558,4.07690884 41.4239293,4.12860952 C41.5821333,4.19995646 42.3793578,4.49258231 42.5603102,4.56289524 C43.1755483,4.81416054 43.8104327,5.15538503 43.8104327,6.08599728 C43.8104327,7.14172517 42.9842558,7.83865034 41.7744599,7.83865034 C41.1106231,7.83865034 40.6060245,7.65769796 40.0807456,7.46537143 L40.0600653,5.86161633 L40.3733714,5.86161633 Z" id="Fill-15" fill="#231F20"></path>
                <path d="M44.9901388,5.86161633 C45.0294313,6.15424218 45.0614857,6.39620136 45.2238259,6.69916735 C45.384098,7.02177959 45.7966694,7.52637823 46.5142748,7.52637823 C47.1077986,7.52637823 47.5027918,7.19342585 47.5027918,6.79016054 C47.5027918,6.33312653 47.0550639,6.15424218 46.4098395,5.92365714 C45.5195537,5.59070476 44.7595537,5.32082721 44.7595537,4.24648707 C44.7595537,2.97982041 45.8680163,2.68926259 46.5649415,2.68926259 C47.1171048,2.68926259 47.5710367,2.84746667 48.043581,3.0098068 L48.0652952,4.32093605 L47.7643973,4.32093605 C47.7251048,4.1193034 47.6827102,3.93938503 47.6113633,3.77601088 C47.4790095,3.50303129 47.0984925,3.01911293 46.452234,3.01911293 C45.9093769,3.01911293 45.6684517,3.38308571 45.6684517,3.63641905 C45.6684517,3.94662313 45.9269551,4.07690884 46.0375946,4.12860952 C46.2020027,4.19995646 46.9950912,4.49258231 47.1770776,4.56289524 C47.7923156,4.81416054 48.4272,5.15538503 48.4272,6.08599728 C48.4272,7.14172517 47.6020571,7.83865034 46.3912272,7.83865034 C45.7263565,7.83865034 45.2238259,7.65769796 44.6985469,7.46537143 L44.6799347,5.86161633 L44.9901388,5.86161633 Z" id="Fill-17" fill="#231F20"></path>
                <path d="M54.4780408,3.94703673 L54.4780408,6.62823401 L54.4976871,7.4254585 L55.2649252,7.4254585 C55.6195918,7.40477823 55.9918367,7.37272381 56.312381,7.06458776 C56.7259864,6.63857415 56.7259864,5.91373061 56.7259864,5.66143129 C56.7259864,4.88385306 56.5543401,4.47334966 56.241034,4.22932245 C56.010449,4.04630204 55.6082177,3.93876463 54.9940136,3.94703673 L54.4780408,3.94703673 Z M54.4976871,0.901866667 L54.4873469,1.59879184 L54.4780408,3.65441088 L55.1449796,3.65441088 C55.5865034,3.65441088 55.939102,3.51585306 56.0817959,3.33283265 C56.2534422,3.1312 56.3434014,2.79721361 56.3434014,2.27296871 C56.3434014,1.13348571 55.9918367,0.923580952 55.2152925,0.901866667 L54.4976871,0.901866667 Z M51.9167891,0.599934694 L55.9091156,0.599934694 C56.312381,0.61027483 56.7559728,0.631989116 57.1706122,0.81397551 C57.9368163,1.18622041 57.9543946,1.94001633 57.9543946,2.10235646 C57.9543946,2.50562177 57.8168707,2.87683265 57.5221769,3.17049252 C57.0485986,3.66578503 56.4240544,3.73506395 55.9690884,3.78676463 C56.4612789,3.80641088 57.2605714,3.84777143 57.8747755,4.47334966 C58.1177687,4.70290068 58.4114286,5.11650612 58.4114286,5.77000272 C58.4114286,6.23737687 58.2563265,6.72232925 57.8747755,7.10284626 C57.300898,7.6756898 56.5739864,7.69637007 55.9484082,7.71601633 L51.9167891,7.71601633 L51.9167891,7.45751293 L52.894966,7.45751293 L52.9156463,6.45762177 L52.9156463,1.69805714 L52.894966,0.86257415 L51.9167891,0.86257415 L51.9167891,0.599934694 Z" id="Fill-19" fill="#231F20"></path>
                <path d="M60.2741007,0.59962449 C60.750781,0.593420408 60.8914068,0.593420408 61.3339646,0.559297959 L61.3143184,1.67913469 L61.3143184,6.6496381 L61.3339646,7.45720272 L62.0288218,7.45720272 L62.0288218,7.71570612 L59.0870531,7.71570612 L59.0870531,7.45720272 L59.841883,7.45720272 L59.8635973,6.6496381 L59.8635973,1.67913469 L59.841883,0.862263946 L59.0870531,0.862263946 L59.0870531,0.59962449 L60.2741007,0.59962449 Z" id="Fill-21" fill="#231F20"></path>
                <path d="M63.2014966,2.83929796 C63.7226395,2.82999184 63.8849796,2.82999184 64.3771701,2.7969034 L64.3585578,3.73475374 L64.3585578,5.99200544 C64.3585578,6.3766585 64.3771701,6.66928435 64.4567891,6.87091701 C64.5891429,7.1821551 64.8621224,7.32381497 65.1961088,7.32381497 C65.4877007,7.32381497 65.736898,7.21420952 65.9302585,7.03222313 C66.3252517,6.63826395 66.3149116,6.11608707 66.3149116,5.6693932 L66.3149116,3.87744762 L66.2921633,3.1009034 L65.5466395,3.1009034 L65.5466395,2.83929796 L66.4141769,2.83929796 C66.9994286,2.82999184 67.1710748,2.82999184 67.7563265,2.7969034 L67.7346122,3.73475374 L67.7346122,6.52969252 L67.7563265,7.44479456 L68.4801361,7.44479456 L68.4801361,7.71570612 L67.7118639,7.71570612 C67.0687075,7.71570612 66.8370884,7.7291483 66.3562721,7.75810068 L66.3252517,6.98259048 C66.1112109,7.24419592 65.6190204,7.82634558 64.4795374,7.82634558 C63.7319456,7.82634558 63.2614694,7.54612789 63.0691429,7.16147483 C62.9161088,6.87918912 62.924381,6.51521633 62.924381,6.21535238 L62.924381,3.83712109 L62.9068027,3.1009034 L62.169551,3.1009034 L62.169551,2.83929796 L63.2014966,2.83929796 Z" id="Fill-23" fill="#231F20"></path>
                <path d="M72.5247837,4.69121633 C72.5351238,3.9064 72.547532,2.97992381 71.639668,2.97992381 C70.7804027,2.97992381 70.7411102,3.83712109 70.7111238,4.69121633 L72.5247837,4.69121633 Z M73.9992871,6.30531156 C73.7376816,6.79853605 73.1927565,7.82634558 71.6696544,7.82634558 C70.1062259,7.82634558 69.1487293,6.62792381 69.1487293,5.22786939 C69.1487293,3.88778776 70.0565932,2.69970612 71.6779265,2.69970612 C72.6891918,2.69970612 73.2434231,3.1308898 73.4853823,3.3821551 C74.0385796,3.95706667 74.0571918,4.56299864 74.0696,4.99521633 L70.7038857,4.99521633 C70.7111238,5.85241361 70.7328381,6.62792381 71.1547156,7.07358367 C71.3873687,7.31450884 71.7192871,7.41480816 72.0522395,7.41480816 C73.1420898,7.41480816 73.5525932,6.50074014 73.6973551,6.17295782 L73.9992871,6.30531156 Z" id="Fill-25" fill="#231F20"></path>
                <path d="M74.9987646,5.28804898 C75.0514993,5.58067483 75.102166,5.84228027 75.2738122,6.1938449 C75.8766422,7.44500136 76.9757986,7.47498776 77.1991456,7.47498776 C77.993268,7.47498776 78.6684789,7.00140952 78.6684789,6.26519184 C78.6684789,5.53207619 78.1142476,5.28804898 76.5921796,4.66350476 C76.3502204,4.56320544 76.1186014,4.47324626 75.8973224,4.35019864 C75.6305469,4.2106068 74.7650776,3.70704218 74.7650776,2.5458449 C74.7650776,1.29675646 75.7670367,0.459205442 77.1660571,0.459205442 C78.0439347,0.459205442 78.7305197,0.751831293 79.0893224,0.901763265 L79.1927238,2.59547755 L78.8690776,2.59547755 C78.7305197,2.07123265 78.6477986,1.78170884 78.2952,1.42807619 C77.9436354,1.06720544 77.4793633,0.813872109 76.9757986,0.813872109 C76.2085605,0.813872109 75.8063293,1.32467483 75.8063293,1.85305578 C75.8063293,2.49621224 76.391581,2.7660898 76.6511184,2.8881034 C76.9954449,3.04837551 77.3366694,3.17038912 77.6799619,3.31308299 C78.5568054,3.66568163 79.6549279,4.18992653 79.6549279,5.57033469 C79.6549279,6.87112381 78.6384925,7.82655238 76.9344381,7.82655238 C76.0669007,7.82655238 75.4009959,7.58666122 74.7464653,7.35297415 L74.6854585,5.28804898 L74.9987646,5.28804898 Z" id="Fill-27" fill="#231F20"></path>
                <path d="M81.3411973,0.59962449 C81.855102,0.59962449 81.9760816,0.593420408 82.4289796,0.559297959 L82.4103673,1.65845442 L82.4103673,3.57448163 C82.6006259,3.27151565 82.7919184,2.99129796 83.3647619,2.81861769 C83.6077551,2.73899864 83.8497143,2.7059102 84.1009796,2.7059102 C84.8485714,2.7059102 85.2125442,2.99750204 85.3738503,3.15260408 C85.7481633,3.52174694 85.7781497,3.96637279 85.7967619,4.34999184 L85.7967619,6.7489034 L85.8153741,7.45720272 L86.5112653,7.45720272 L86.5112653,7.71570612 L83.5591565,7.71570612 L83.5591565,7.45720272 L84.3325986,7.45720272 L84.3553469,6.7489034 L84.3553469,4.32931156 C84.3553469,3.93845442 84.3553469,3.15260408 83.5674286,3.15260408 C83.2861769,3.15260408 83.0142313,3.27151565 82.8105306,3.4731483 C82.4703401,3.8154068 82.4372517,4.2714068 82.4103673,4.85355646 L82.4103673,6.7489034 L82.4289796,7.45720272 L83.1858776,7.45720272 L83.1858776,7.71570612 L80.2410068,7.71570612 L80.2410068,7.45720272 L80.9782585,7.45720272 L80.9958367,6.74063129 L80.9958367,1.65845442 L80.9782585,0.862263946 L80.2410068,0.862263946 L80.2410068,0.59962449 L81.3411973,0.59962449 Z" id="Fill-29" fill="#231F20"></path>
                <path d="M87.655298,1.34587211 C87.655298,0.911586395 88.0172027,0.548647619 88.4607946,0.548647619 C88.8919782,0.548647619 89.2466449,0.901246259 89.2466449,1.34587211 C89.2466449,1.79256599 88.8919782,2.1430966 88.4607946,2.1430966 C88.2498558,2.1430966 88.038917,2.06140952 87.8982912,1.91147755 C87.7473252,1.75947755 87.655298,1.55887891 87.655298,1.34587211 L87.655298,1.34587211 Z M87.9572299,2.83898776 C88.5414476,2.83071565 88.7420463,2.83071565 89.2373388,2.7965932 L89.2176925,3.90712381 L89.2176925,6.66897415 L89.2373388,7.45689252 L89.9342639,7.45689252 L89.9342639,7.71539592 L86.9873252,7.71539592 L86.9873252,7.45689252 L87.7473252,7.45689252 L87.7628354,6.66897415 L87.7628354,3.90712381 L87.7473252,3.1005932 L86.9873252,3.1005932 L86.9873252,2.83898776 L87.9572299,2.83898776 Z" id="Fill-31" fill="#231F20"></path>
                <path d="M93.7008653,4.69121633 C93.7101714,3.9064 93.7215456,2.97992381 92.8147156,2.97992381 C91.9575184,2.97992381 91.9171918,3.83712109 91.8892735,4.69121633 L93.7008653,4.69121633 Z M95.1743347,6.30531156 C94.9116952,6.79853605 94.3678041,7.82634558 92.8467701,7.82634558 C91.2823075,7.82634558 90.3237769,6.62792381 90.3237769,5.22786939 C90.3237769,3.88778776 91.2326748,2.69970612 92.8560762,2.69970612 C93.8632054,2.69970612 94.4164027,3.1308898 94.6593959,3.3821551 C95.2146612,3.95706667 95.2332735,4.56299864 95.2425796,4.99521633 L91.8789333,4.99521633 C91.8892735,5.85241361 91.9058177,6.62792381 92.3307973,7.07358367 C92.5644844,7.31450884 92.8964027,7.41480816 93.2272871,7.41480816 C94.3181714,7.41480816 94.7297088,6.50074014 94.8724027,6.17295782 L95.1743347,6.30531156 Z" id="Fill-33" fill="#231F20"></path>
                <path d="M96.7483102,0.59962449 C97.2218884,0.593420408 97.3645823,0.593420408 97.8071401,0.559297959 L97.7874939,1.67913469 L97.7874939,6.6496381 L97.8071401,7.45720272 L98.5030313,7.45720272 L98.5030313,7.71570612 L95.5591946,7.71570612 L95.5591946,7.45720272 L96.3160925,7.45720272 L96.3326367,6.6496381 L96.3326367,1.67913469 L96.3160925,0.862263946 L95.5591946,0.862263946 L95.5591946,0.59962449 L96.7483102,0.59962449 Z" id="Fill-35" fill="#231F20"></path>
                <g id="Group-39" transform="translate(99.027069, -0.000000)">
                    <mask id="mask-2" fill="white">
                        <use xlink:href="#path-1"></use>
                    </mask>
                    <g id="Clip-38"></g>
                    <path d="M2.04310748,3.41090068 C1.75358367,3.71490068 1.70498503,4.3094585 1.70498503,5.25661497 C1.70498503,6.41781224 1.73186939,7.38358095 2.66041361,7.38358095 C2.91374694,7.38358095 3.20533878,7.30499592 3.43799184,7.06407075 C3.70786939,6.77971701 3.79059048,6.42711837 3.79059048,5.15528163 C3.79059048,4.24741769 3.79059048,3.14102313 2.72142041,3.15239728 C2.40811429,3.15239728 2.17752925,3.27130884 2.04310748,3.41090068 L2.04310748,3.41090068 Z M4.00359728,0.599417687 C4.58781497,0.599417687 4.76669932,0.593213605 5.22063129,0.559091156 L5.20098503,1.3759619 L5.20098503,6.7414585 L5.22063129,7.44458776 L5.93927075,7.44458776 L5.93927075,7.71549932 L4.99004626,7.71549932 C4.42444082,7.7289415 4.24452245,7.7289415 3.76784218,7.75789388 L3.76784218,7.09405714 C3.53725714,7.38358095 3.17535238,7.82717279 2.23750204,7.82717279 C0.726808163,7.82717279 0.122944218,6.45710476 0.122944218,5.34864218 C0.122944218,3.76556735 1.07113469,2.74913197 2.36675374,2.74913197 C2.99336599,2.74913197 3.32631837,2.9486966 3.55793741,3.17928163 C3.69959728,3.32197551 3.7316517,3.39332245 3.76784218,3.51637007 L3.76784218,1.51865578 L3.7471619,0.862057143 L3.00267211,0.862057143 L3.00267211,0.599417687 L4.00359728,0.599417687 Z" id="Fill-37" fill="#231F20" mask="url(#mask-2)"></path>
                </g>
            </g>
            <g id="Group-4" transform="translate(11.000000, 39.000000)" fill="#231F20">
                <path d="M1.53447619,4.61697415 C1.53447619,6.20108299 1.6337415,7.1058449 2.5995102,7.1058449 C3.58078912,7.1058449 3.65213605,6.18970884 3.65213605,4.85893333 C3.65213605,3.64189932 3.59009524,2.5230966 2.5912381,2.53029977 C1.65545578,2.53029977 1.53447619,3.48576327 1.53447619,4.61697415 M5.19178231,4.85893333 C5.19178231,6.45028027 3.92408163,7.38813061 2.5612517,7.38813061 C1.0795102,7.38813061 -3.55271368e-15,6.32206259 -3.55271368e-15,4.81757279 C-3.55271368e-15,3.23553197 1.14982313,2.28837551 2.54263946,2.26872925 C4.17638095,2.23977687 5.19178231,3.39890612 5.19178231,4.85893333" id="Fill-40"></path>
                <path d="M8.63225578,0.858541497 C8.63225578,0.583493878 8.52265034,0.332228571 8.18762993,0.332228571 C7.72335782,0.332228571 7.72335782,0.795466667 7.72335782,1.21010612 L7.72335782,2.39715374 L8.54850068,2.39715374 L8.54850068,2.66186122 L7.72335782,2.66186122 L7.72335782,6.07927619 L7.7440381,7.01402449 L8.54850068,7.01402449 L8.54850068,7.27769796 L5.55709932,7.27769796 L5.55709932,7.01402449 L6.29124898,7.01402449 L6.31296327,6.07927619 L6.31296327,2.66186122 L5.55709932,2.66186122 L5.55709932,2.39715374 L6.31296327,2.39715374 L6.31296327,1.94632381 C6.32433741,1.38071837 6.32433741,0.656908844 7.06675918,0.281561905 C7.43073197,0.0995755102 7.83399728,0.0499428571 8.23726259,0.0499428571 C9.6218068,0.0499428571 9.89375238,0.758242177 9.89375238,1.16874558 C9.89375238,1.33315374 9.86066395,1.80259592 9.23611973,1.80259592 C8.61984762,1.80259592 8.61984762,1.33315374 8.61984762,1.22975238 L8.63225578,0.858541497 Z" id="Fill-42"></path>
                <polygon id="Fill-44" points="12.1008544 0.161823129 14.9630041 0.161823129 18.6192762 4.83039456 18.6192762 1.33336054 18.6006639 0.424462585 17.5232218 0.424462585 17.5232218 0.161823129 19.9148952 0.161823129 19.9148952 0.424462585 18.985317 0.424462585 18.9646367 1.33336054 18.9646367 7.37820408 18.7144054 7.45989116 13.4212898 0.726394558 13.4130177 1.61254422 13.4130177 6.07948299 13.4295619 7.01423129 14.5297524 7.01423129 14.5297524 7.27790476 12.1008544 7.27790476 12.1008544 7.01423129 13.0779973 7.01423129 13.0976435 6.07948299 13.0976435 1.33336054 13.0779973 0.424462585 12.1008544 0.424462585"></polygon>
                <path d="M21.3160871,4.61697415 C21.3160871,6.20108299 21.4174204,7.1058449 22.3811211,7.1058449 C23.360332,7.1058449 23.4316789,6.18970884 23.4316789,4.85893333 C23.4316789,3.64189932 23.3696381,2.5230966 22.373883,2.53029977 C21.4381007,2.53029977 21.3160871,3.48576327 21.3160871,4.61697415 M24.9744272,4.85893333 C24.9744272,6.45028027 23.7056925,7.38813061 22.3428626,7.38813061 C20.8600871,7.38813061 19.7836789,6.32206259 19.7836789,4.81757279 C19.7836789,3.23553197 20.931434,2.28837551 22.3252844,2.26872925 C23.9579918,2.23977687 24.9744272,3.39890612 24.9744272,4.85893333" id="Fill-46"></path>
                <path d="M27.3454204,7.01412789 L28.0899102,7.01412789 L28.0899102,7.27780136 L25.1346993,7.27780136 L25.1346993,7.01412789 L25.872985,7.01412789 L25.8936653,6.2013932 L25.8936653,3.54708027 L25.872985,2.66196463 L25.1346993,2.66196463 L25.1346993,2.39725714 L26.2648762,2.39725714 C26.7312163,2.39001905 26.8780463,2.39001905 27.3040599,2.35796463 L27.3237061,3.12727075 L27.3237061,3.34648163 C27.391951,3.12727075 27.465366,2.93287619 27.6856109,2.71263129 C27.9172299,2.4696381 28.2491483,2.30626395 28.6151891,2.30626395 C29.2593796,2.30626395 29.5282231,2.82327075 29.5282231,3.27927075 C29.5282231,3.89037279 29.1270259,3.99274014 28.9057469,3.99274014 C28.8054476,3.99274014 28.2791347,3.94207347 28.2791347,3.32786939 C28.2791347,3.27927075 28.3122231,3.02386939 28.3122231,2.97423673 C28.3122231,2.76122993 28.1612571,2.76122993 28.1312707,2.76122993 C27.996849,2.76122993 27.8179646,2.92253605 27.6856109,3.12727075 C27.3557605,3.65771973 27.3340463,4.44667211 27.3237061,5.0009034 L27.3237061,6.2013932 L27.3454204,7.01412789 Z" id="Fill-48"></path>
                <path d="M30.5090884,1.02822313 L31.9608435,1.02822313 L31.9411973,2.0746449 L31.9411973,2.39725714 L32.9452245,2.39725714 L32.9452245,2.66196463 L31.9411973,2.66196463 L31.9411973,5.73608707 C31.9525714,6.38958367 31.9608435,6.94691701 32.4644082,6.94691701 C32.7653061,6.94691701 32.9452245,6.78354286 33.1416871,6.60259048 L33.3226395,6.80525714 C33.0300136,7.06686259 32.6846531,7.36879456 31.8512381,7.36879456 C30.5183946,7.36879456 30.5183946,6.47230476 30.5183946,5.95943401 L30.5287347,4.51595102 L30.5287347,2.66196463 L29.7645986,2.66196463 L29.7645986,2.39725714 L30.5287347,2.39725714 L30.5287347,2.0746449 L30.5090884,1.02822313 Z" id="Fill-50"></path>
                <path d="M34.4381333,0.161823129 C34.9530721,0.161823129 35.0761197,0.15044898 35.5279837,0.120462585 L35.5073034,1.21961905 L35.5073034,3.13461224 C35.701698,2.83371429 35.8888544,2.55142857 36.4648,2.38081633 C36.7067592,2.29809524 36.9497524,2.26914286 37.2010177,2.26914286 C37.9486095,2.26914286 38.3125823,2.56176871 38.4728544,2.71273469 C38.8450993,3.08497959 38.8761197,3.53063946 38.8968,3.91115646 L38.8968,6.30903401 L38.9154122,7.01423129 L39.6123374,7.01423129 L39.6123374,7.27790476 L36.6571265,7.27790476 L36.6571265,7.01423129 L37.4326367,7.01423129 L37.453317,6.30903401 L37.453317,3.88944218 C37.453317,3.49548299 37.453317,2.71273469 36.6674667,2.71273469 C36.385181,2.71273469 36.1111673,2.83371429 35.9126367,3.03327891 C35.5693442,3.37967347 35.5383238,3.83153741 35.5073034,4.41472109 L35.5073034,6.30903401 L35.5279837,7.01423129 L36.2838476,7.01423129 L36.2838476,7.27790476 L33.3420789,7.27790476 L33.3420789,7.01423129 L34.0751946,7.01423129 L34.0958748,6.3007619 L34.0958748,1.21961905 L34.0751946,0.424462585 L33.3420789,0.424462585 L33.3420789,0.161823129 L34.4381333,0.161823129 Z" id="Fill-52"></path>
                <path d="M48.5447673,6.77485714 C47.8013116,7.04680272 46.8748354,7.37768707 45.7146721,7.37768707 C43.6383728,7.37768707 42.0956245,5.88663946 42.0956245,3.71210884 C42.0956245,1.36179592 43.8689578,-9.59232693e-14 45.8749442,-9.59232693e-14 C46.4912163,-9.59232693e-14 47.4383728,0.142693878 48.5065088,0.604897959 L48.5065088,2.60985034 L48.1921687,2.60985034 C48.1435701,2.22933333 48.062917,1.60478912 47.4456109,0.988517007 C46.9741007,0.515972789 46.4322776,0.34122449 45.9566313,0.34122449 C45.4210122,0.34122449 44.8884952,0.564571429 44.5358966,0.917170068 C44.031298,1.42176871 43.807951,2.22933333 43.807951,3.69970068 C43.807951,5.1225034 43.9816653,5.99831293 44.5038422,6.53289796 C44.795434,6.83586395 45.2597061,7.07678912 45.8129034,7.07678912 C46.3495565,7.07678912 46.9865088,6.86688435 47.4993796,6.3229932 C48.1032435,5.69741497 48.1735565,5.16282993 48.212849,4.77921088 L48.5447673,4.77921088 L48.5447673,6.77485714 Z" id="Fill-54"></path>
                <path d="M52.4223184,4.25444898 C52.2620463,4.31442177 52.1100463,4.37542857 51.9446041,4.42609524 C51.2218286,4.67839456 50.7099918,4.8490068 50.7099918,5.89542857 C50.7099918,6.1177415 50.7099918,6.90462585 51.4544816,6.90462585 C52.3799238,6.90462585 52.4006041,5.81580952 52.4223184,4.98963265 L52.4223184,4.25444898 Z M53.8016925,6.22941497 C53.8016925,6.48378231 53.8223728,7.0069932 54.3362776,7.0069932 C54.4179646,7.0069932 54.4862095,6.99665306 54.5596245,6.9842449 L54.5596245,7.27790476 C54.0343456,7.32029932 53.7334476,7.33994558 53.3684408,7.33994558 C52.6022367,7.33994558 52.4905633,6.88497959 52.4223184,6.5737415 C52.2899646,6.80536054 51.9446041,7.37820408 50.8806041,7.37820408 C49.9324136,7.37820408 49.2665088,6.86636735 49.2665088,5.85820408 C49.2665088,4.90070748 49.890019,4.66598639 50.1816109,4.55741497 C50.5145633,4.44677551 50.8599238,4.39507483 51.1908082,4.3247619 C51.6054476,4.23376871 52.010781,4.10348299 52.4119782,3.97112925 L52.4119782,3.44688435 C52.4006041,3.09531973 52.3799238,2.55142857 51.6054476,2.55142857 C51.2735293,2.55142857 51.0305361,2.65172789 50.9002503,2.78097959 C50.7461823,2.93297959 50.7461823,3.07463946 50.7461823,3.34658503 C50.7461823,3.58957823 50.6758694,3.88944218 50.1547265,3.88944218 C49.9913524,3.88944218 49.6170395,3.87289796 49.6170395,3.41793197 C49.6170395,3.16253061 49.7607673,2.92263946 49.9220735,2.76133333 C50.1547265,2.5307483 50.5983184,2.26914286 51.7564136,2.26914286 C53.7624,2.26914286 53.7820463,3.19665306 53.8016925,3.92046259 L53.8016925,6.22941497 Z" id="Fill-56"></path>
                <path d="M57.169268,7.01412789 L57.9168599,7.01412789 L57.9168599,7.27780136 L54.960615,7.27780136 L54.960615,7.01412789 L55.6978667,7.01412789 L55.720615,6.2013932 L55.720615,3.54708027 L55.6978667,2.66196463 L54.960615,2.66196463 L54.960615,2.39725714 L56.0897578,2.39725714 C56.556098,2.39001905 56.7060299,2.39001905 57.1289415,2.35796463 L57.1506558,3.12727075 L57.1506558,3.34648163 C57.2209687,3.12727075 57.2902476,2.93287619 57.5104925,2.71263129 C57.7472816,2.4696381 58.0792,2.30626395 58.4400707,2.30626395 C59.0863293,2.30626395 59.3572408,2.82327075 59.3572408,3.27927075 C59.3572408,3.89037279 58.9550095,3.99274014 58.7316626,3.99274014 C58.6334313,3.99274014 58.1081524,3.94207347 58.1081524,3.32786939 C58.1081524,3.27927075 58.1402068,3.02386939 58.1402068,2.97423673 C58.1402068,2.76122993 57.9871728,2.76122993 57.9582204,2.76122993 C57.8237986,2.76122993 57.6449143,2.92253605 57.5104925,3.12727075 C57.1806422,3.65771973 57.1609959,4.44667211 57.1506558,5.0009034 L57.1506558,6.2013932 L57.169268,7.01412789 Z" id="Fill-58"></path>
                <path d="M61.1316082,4.61697415 C61.1316082,6.20108299 61.2329415,7.1058449 62.2007782,7.1058449 C63.1799891,7.1058449 63.249268,6.18970884 63.249268,4.85893333 C63.249268,3.64189932 63.1882612,2.5230966 62.1904381,2.53029977 C61.2546558,2.53029977 61.1316082,3.48576327 61.1316082,4.61697415 M64.7920163,4.85893333 C64.7920163,6.45028027 63.5191456,7.38813061 62.1604517,7.38813061 C60.6787102,7.38813061 59.5992,6.32206259 59.5992,4.81757279 C59.5992,3.23553197 60.7479891,2.28837551 62.1397714,2.26872925 C63.7724789,2.23977687 64.7920163,3.39890612 64.7920163,4.85893333" id="Fill-60"></path>
                <path d="M66.1431619,0.161823129 C66.6167401,0.15044898 66.757366,0.15044898 67.2009578,0.120462585 L67.1802776,1.24133333 L67.1802776,6.21080272 L67.2009578,7.01423129 L67.895815,7.01423129 L67.895815,7.27790476 L64.9519782,7.27790476 L64.9519782,7.01423129 L65.7078422,7.01423129 L65.7285224,6.21080272 L65.7285224,1.24133333 L65.7078422,0.424462585 L64.9519782,0.424462585 L64.9519782,0.161823129 L66.1431619,0.161823129 Z" id="Fill-62"></path>
                <path d="M68.9746014,0.906002721 C68.9746014,0.474819048 69.3396082,0.110846259 69.7790639,0.110846259 C70.2154177,0.110846259 70.5669823,0.463444898 70.5669823,0.906002721 C70.5669823,1.35166259 70.2154177,1.70529524 69.7790639,1.70529524 C69.5681252,1.70529524 69.3582204,1.62257415 69.2144925,1.47264218 C69.0655946,1.32064218 68.9746014,1.1169415 68.9746014,0.906002721 L68.9746014,0.906002721 Z M69.2765333,2.39705034 C69.861785,2.39084626 70.0644517,2.39084626 70.5576762,2.35775782 L70.5349279,3.46828844 L70.5349279,6.22910476 L70.5576762,7.01392109 L71.2525333,7.01392109 L71.2525333,7.27759456 L68.3086966,7.27759456 L68.3086966,7.01392109 L69.0655946,7.01392109 L69.0852408,6.22910476 L69.0852408,3.46828844 L69.0655946,2.66175782 L68.3086966,2.66175782 L68.3086966,2.39705034 L69.2765333,2.39705034 Z" id="Fill-64"></path>
                <path d="M77.2083483,7.01412789 L77.9073415,7.01412789 L77.9073415,7.27780136 L75.0131374,7.27780136 L75.0131374,7.01412789 L75.7286748,7.01412789 L75.7483211,6.22931156 L75.7483211,3.64117551 C75.737981,3.32786939 75.7286748,2.74158367 75.0638041,2.74158367 C74.8125388,2.74158367 74.526117,2.84395102 74.3141442,3.04558367 C73.8922667,3.45918912 73.8839946,4.1116517 73.8653823,4.7579102 L73.8653823,6.22931156 L73.8839946,7.01412789 L74.5902259,7.01412789 L74.5902259,7.27780136 L71.6743075,7.27780136 L71.6743075,7.01412789 L72.4125932,7.01412789 L72.4301714,6.22931156 L72.4301714,3.39921633 L72.4125932,2.67333878 L71.6743075,2.67333878 L71.6743075,2.40863129 L72.7134912,2.40863129 C73.2594503,2.39725714 73.4000762,2.39725714 73.8839946,2.36933878 L73.8653823,3.25548844 C73.9936,2.99284898 74.0949333,2.79225034 74.3875592,2.58958367 C74.679151,2.39725714 75.0927565,2.25663129 75.6294095,2.25663129 C75.9892463,2.25663129 76.2208653,2.32901224 76.3625252,2.38174694 C77.1411374,2.67333878 77.1690558,3.32786939 77.1897361,3.74974694 L77.1897361,6.22931156 L77.2083483,7.01412789 Z" id="Fill-66"></path>
                <path d="M81.7290558,4.25444898 C81.5698177,4.31442177 81.4167837,4.37542857 81.2554776,4.42609524 C80.528566,4.67839456 80.0156952,4.8490068 80.0156952,5.89542857 C80.0156952,6.1177415 80.0156952,6.90462585 80.761219,6.90462585 C81.6887293,6.90462585 81.7094095,5.81580952 81.7290558,4.98963265 L81.7290558,4.25444898 Z M83.1094639,6.22941497 C83.1094639,6.48378231 83.1301442,7.0069932 83.643015,7.0069932 C83.724702,7.0069932 83.797083,6.99665306 83.8622259,6.9842449 L83.8622259,7.27790476 C83.341083,7.32029932 83.040185,7.33994558 82.6772463,7.33994558 C81.9100082,7.33994558 81.7983347,6.88497959 81.7290558,6.5737415 C81.596702,6.80536054 81.2554776,7.37820408 80.1852735,7.37820408 C79.240185,7.37820408 78.5722122,6.86636735 78.5722122,5.85820408 C78.5722122,4.90070748 79.1988245,4.66598639 79.4914503,4.55741497 C79.8233687,4.44677551 80.1656272,4.39507483 80.4975456,4.3247619 C80.913219,4.23376871 81.3144163,4.10348299 81.7187156,3.97112925 L81.7187156,3.44688435 C81.7094095,3.09531973 81.6887293,2.55142857 80.913219,2.55142857 C80.5813007,2.55142857 80.3383075,2.65172789 80.2080218,2.78097959 C80.0560218,2.93297959 80.0560218,3.07463946 80.0560218,3.34658503 C80.0560218,3.58957823 79.9857088,3.88944218 79.4614639,3.88944218 C79.2991238,3.88944218 78.9279129,3.87289796 78.9279129,3.41793197 C78.9279129,3.16253061 79.0685388,2.92263946 79.2288109,2.76133333 C79.4614639,2.5307483 79.9050558,2.26914286 81.063151,2.26914286 C83.0670694,2.26914286 83.0898177,3.19665306 83.1094639,3.92046259 L83.1094639,6.22941497 Z" id="Fill-68"></path>
            </g>
            <g id="Group-2" transform="translate(31.000000, 0.000000)">
                <polygon id="Fill-70" fill="#00ADEE" points="15.7056327 22.0362776 15.7056327 15.9790259 21.7618503 15.9790259 21.7618503 6.29238639 15.7056327 6.29238639 15.7056327 0.238236735 6.05518367 0.238236735 6.05518367 6.29238639 -8.52651283e-14 6.29238639 -8.52651283e-14 15.9790259 6.05518367 15.9790259 6.05518367 22.0362776"></polygon>
                <path d="M5.29580408,9.04648163 L9.31191293,9.43216871 C10.0646748,9.53970612 10.152566,10.2686857 9.95300136,10.7050395 L7.20252517,15.8699374 L7.20769524,15.8626993 C5.81074286,14.7645769 4.91218503,13.0646585 4.91218503,11.1527673 C4.91218503,10.4113796 5.04970884,9.69997823 5.29580408,9.04234558 L5.29580408,9.04648163 Z" id="Fill-72" fill="#FEFEFE"></path>
                <path d="M5.89263673,9.92704762 L8.93160272,10.2072653 C9.15184762,10.2238095 9.16839184,10.3168707 9.11462313,10.4440544 L6.98972517,14.5087619 C6.21318095,13.6081361 5.74477279,12.4324626 5.74477279,11.1533878 C5.74477279,10.7304762 5.79543946,10.3199728 5.89263673,9.92704762" id="Fill-74" fill="#00ADEE"></path>
                <path d="M16.4993415,9.04648163 L12.4832327,9.43216871 C11.7315048,9.53970612 11.6425796,10.2686857 11.8411102,10.7050395 L14.5926204,15.8699374 L14.5874503,15.8626993 C15.9823347,14.7645769 16.8798585,13.0646585 16.8798585,11.1527673 C16.8798585,10.4113796 16.7433687,9.69997823 16.4962395,9.04234558 L16.4993415,9.04648163 Z" id="Fill-76" fill="#FEFEFE"></path>
                <path d="M10.8980898,5.16996463 C8.49607619,5.16996463 6.42908299,6.58346122 5.47468844,8.62150204 L9.73379048,8.62150204 C10.3417905,8.60805986 10.608566,8.25442721 10.6209741,7.96283537 C10.6354503,7.62057687 10.5806476,7.51200544 10.2993959,7.14596463 C9.98815782,6.73856327 10.2021986,5.94547483 10.8980898,5.93306667 C11.593981,5.94547483 11.8059537,6.73856327 11.4957497,7.14596463 C11.214498,7.51200544 11.1565932,7.62057687 11.1762395,7.96283537 C11.1855456,8.25442721 11.4543891,8.60805986 12.0603211,8.62150204 L16.3194231,8.62150204 C15.3639946,6.58346122 13.2970014,5.16996463 10.8980898,5.16996463" id="Fill-78" fill="#FEFEFE"></path>
                <path d="M15.9035429,9.92704762 L12.8604408,10.2072653 C12.644332,10.2238095 12.6267537,10.3168707 12.6763864,10.4440544 L14.8074884,14.5087619 C15.5809306,13.6081361 16.0483048,12.4324626 16.0483048,11.1533878 C16.0483048,10.7304762 15.9976381,10.3199728 15.9035429,9.92704762" id="Fill-80" fill="#00ADEE"></path>
                <path d="M12.3279238,6.20201361 C12.6298558,6.70764626 12.3858286,7.36631293 12.0983728,7.67858503 C12.0466721,7.73235374 12.0725224,7.78922449 12.1211211,7.80473469 L14.8136925,7.80473469 C14.168468,7.05093878 13.3092027,6.48326531 12.3279238,6.20201361" id="Fill-82" fill="#00ADEE"></path>
                <path d="M10.8980898,17.1328816 C12.1130558,17.1328816 13.2421986,16.7730449 14.1872871,16.1526367 L14.1872871,16.1557388 L11.2693007,11.7973714 C11.0656,11.5150857 10.7398857,11.4892354 10.5248109,11.7973714 L7.60682449,16.1557388 L7.60682449,16.1526367 C8.55087891,16.7730449 9.68105578,17.1328816 10.8980898,17.1328816" id="Fill-84" fill="#FEFEFE"></path>
                <path d="M33.7160816,22.269551 C37.8997007,19.9554286 40.435102,16.2764082 41.7431293,12.237551 C43.0966531,8.04669388 42.8733061,3.08963265 41.3036735,-7.10542736e-14 C38.913034,1.20462585 36.5099864,1.8084898 33.7160816,1.8167619 C30.9221769,1.824 28.5201633,1.20462585 26.1315918,-7.10542736e-14 C24.5609252,3.08963265 24.3365442,8.04669388 25.6921361,12.237551 C26.9980952,16.2764082 29.5334966,19.9554286 33.7160816,22.269551" id="Fill-86" fill="#00ADEE"></path>
                <path d="M33.7129796,20.3974694 C37.1583129,18.2642993 38.989551,15.2098231 40.1672925,11.7603537 C41.2054422,8.69967347 41.4629116,5.11164626 40.3151565,2.31463946 C38.5945578,2.90609524 37.5863946,3.08808163 36.6516463,3.23387755 C35.7789388,3.37140136 34.9992925,3.45412245 33.7233197,3.47066667 L33.7129796,3.47066667 C32.4349388,3.45412245 31.6563265,3.37140136 30.782585,3.23387755 C29.8457687,3.08808163 28.8355374,2.90609524 27.1190748,2.31463946 C25.9713197,5.11164626 26.2277551,8.69967347 27.2700408,11.7603537 C28.4446803,15.2098231 30.2769524,18.2642993 33.7202177,20.3974694 L33.7129796,20.3974694 Z" id="Fill-88" fill="#FEFEFE"></path>
                <path d="M33.7160816,19.5501986 C36.0457143,18.0839673 38.683483,14.7616816 39.7412789,10.3878041 C40.2975782,8.06644354 40.4557823,5.46072925 39.7268027,3.39270204 C38.683483,3.67291973 37.7084082,3.90247075 36.704381,4.0358585 C35.6951837,4.17338231 34.6994286,4.26954558 33.7202177,4.27781769 L33.7150476,4.27781769 C32.7327347,4.26954558 31.7380136,4.17338231 30.7308844,4.0358585 C29.7247891,3.90247075 28.7517823,3.67291973 27.7094966,3.39270204 C26.980517,5.46072925 27.1376871,8.06644354 27.6970884,10.3878041 C28.7497143,14.7616816 31.389551,18.0839673 33.7202177,19.5501986 L33.7160816,19.5501986 Z" id="Fill-90" fill="#00ADEE"></path>
                <path d="M31.3389878,5.8293551 C30.5521034,6.23882449 30.2780898,7.20149116 30.6317224,7.97803537 C30.9398585,8.65117823 31.5447565,9.09787211 32.2458177,9.30467483 C32.6004844,9.4091102 32.954117,9.43702857 33.3211918,9.45667483 C33.7668517,9.4773551 34.171151,9.48872925 34.5981986,9.59936871 C34.6881578,9.62418503 34.7915592,9.67795374 34.8391238,9.7658449 C34.9549333,9.98091973 34.851532,10.2177088 34.624049,10.2797497 C34.6199129,10.6581986 34.5847565,11.4088925 34.5847565,11.4088925 C34.5847565,11.4088925 36.4118585,11.2362122 36.1016544,9.59523265 C36.0282395,9.20127347 35.7190694,8.79697415 35.3654367,8.61498776 C34.4503347,8.14657959 33.4421714,8.34924626 32.5063891,8.04421224 C32.1889469,7.94391293 31.7494912,7.78777687 31.662634,7.43207619 C31.6274776,7.28938231 31.659532,7.00606259 31.8042939,6.95849796 C32.043151,6.88404898 32.3057905,7.08257959 32.650117,7.16013061 C32.8672599,7.20976327 33.0823347,7.20976327 33.2529469,7.15702857 C33.3284299,7.13738231 33.4390694,7.1063619 33.4473415,7.06189932 C33.4390694,7.02570884 33.3511782,6.99055238 33.3098177,6.96677007 C33.2033143,6.91403537 33.0937088,6.88715102 32.9810014,6.84372245 C32.7907429,6.7713415 32.6025524,6.68345034 32.4091918,6.57487891 C32.5891102,6.53868844 32.8920762,6.52938231 33.0740626,6.55006259 C33.2146884,6.56867483 33.6572463,6.56247075 33.7896,6.52731429 C33.8185524,6.51904218 33.8847293,6.49525986 33.8547429,6.44355918 C33.8051102,6.35877007 33.717219,6.32671565 33.6572463,6.24296054 C33.5300626,6.06717823 33.4173551,5.8903619 33.2084844,5.80764082 C32.6066884,5.5780898 31.9387156,5.51604898 31.3389878,5.8293551" id="Fill-92" fill="#FEFEFE"></path>
                <path d="M34.3865361,11.6921088 L34.4010122,9.77608163 C34.4010122,9.77608163 34.150781,9.72334694 33.8064544,9.70059864 C33.3607946,9.67268027 33.1539918,9.67991837 33.1539918,9.67991837 L33.1539918,9.84019048 C33.1539918,9.84019048 32.939951,9.92911565 32.9037605,9.99012245 C32.8913524,10.0190748 32.8313796,10.0893878 32.860332,10.1597007 C33.0340463,10.6343129 33.2801415,11.095483 33.3514884,11.6011156 C33.6854748,11.6476463 33.9781007,11.6352381 34.3865361,11.6921088" id="Fill-94" fill="#FEFEFE"></path>
                <path d="M32.0943347,11.4033088 C32.0157497,12.1560707 32.5058721,12.5593361 33.0456272,12.6865197 C33.4788789,12.7899211 33.8924844,12.8116354 34.3422803,12.861268 C34.400185,12.8705741 34.5190966,12.8736762 34.6080218,12.9140027 C34.6876408,12.9450231 34.7269333,12.9946558 34.7403755,13.0442884 C34.7631238,13.1135673 34.7517497,13.1673361 34.7083211,13.2221388 C34.6607565,13.2831456 34.5315048,13.317268 34.5315048,13.317268 L34.5077224,14.2209959 C34.5077224,14.2209959 34.8685932,14.2075537 35.1663891,14.0276354 C35.4455728,13.8611592 35.6182531,13.6471184 35.6813279,13.3772408 C35.7506068,13.0660027 35.7030422,12.7620027 35.4807293,12.4590367 C35.3359673,12.2584381 35.0816,12.1126422 34.8210286,12.022683 C34.2885116,11.8365605 33.712566,11.8655129 33.1593687,11.7858939 C33.0766476,11.7755537 32.9959946,11.7104109 32.9877224,11.6318259 C32.9753143,11.492234 33.107668,11.4270912 33.107668,11.4270912 L32.9711782,11.0010776 C32.9081034,10.8439075 32.8171102,10.6215946 32.7561034,10.506819 C32.3797224,10.6691592 32.1377633,11.0145197 32.0943347,11.4033088" id="Fill-96" fill="#FEFEFE"></path>
                <path d="M34.3420735,13.074585 L34.3255293,14.6969524 L33.9191619,14.5097959 L33.5179646,14.3433197 L33.5107265,12.9887619 C33.8705633,13.0342585 34.0349714,13.0363265 34.3420735,13.074585" id="Fill-98" fill="#FEFEFE"></path>
                <path d="M32.5265524,13.9671456 C32.3001034,14.4934585 32.5813551,15.0094313 33.0218449,15.2234721 C33.2534639,15.3382476 33.5574639,15.441649 33.8066612,15.5378122 C34.0527565,15.6339755 34.4818721,15.898683 34.5128925,16.0258667 C34.5325388,16.1054857 34.4415456,16.1809687 34.4415456,16.1809687 L34.4301714,16.814819 C34.4301714,16.814819 34.697981,16.7569143 34.8903075,16.5997442 C35.0743619,16.4456762 35.2087837,16.2502476 35.2067392,15.9328054 C35.2067392,15.5874449 35.0443755,15.3165333 34.552185,15.0280435 C34.168566,14.8026286 33.7042939,14.6247782 33.3403211,14.4634721 C33.2896544,14.4417578 33.2441578,14.3373224 33.2638041,14.2763156 C33.2824163,14.2091048 33.3268789,14.1832544 33.3268789,14.1832544 L33.3206748,13.4501388 C33.3206748,13.4501388 33.0394231,13.5059755 32.9091374,13.5845605 C32.7871238,13.6548735 32.6030694,13.7768871 32.5265524,13.9671456" id="Fill-100" fill="#FEFEFE"></path>
                <path d="M34.274449,16.1250286 C34.279619,16.0733279 34.2589388,16.0650558 34.2341224,16.0309333 C34.124517,15.9161578 33.969415,15.8396408 33.9332245,15.8158585 C33.820517,15.7507156 33.5692517,15.6576544 33.5692517,15.6576544 C33.5692517,15.6576544 33.588898,17.3193143 33.6157823,18.1754776 C33.6261224,18.3698721 33.7357279,18.4226068 33.9208163,18.4298449 C34.1493333,18.4453551 34.2175782,18.3005932 34.2186122,18.2168381 C34.2268844,17.9417905 34.2651429,16.7506068 34.274449,16.1250286" id="Fill-102" fill="#FEFEFE"></path>
                <path d="M34.4501279,5.44459864 C34.531815,5.50457143 34.531815,5.51077551 34.5586993,5.6317551 C34.613502,5.89646259 34.5555973,6.31317007 34.607298,6.49515646 C34.6352163,6.55306122 34.6941551,6.55306122 34.7396517,6.52721088 C35.1077605,6.32764626 35.3569578,5.98538776 35.7292027,5.82821769 C35.902917,5.75480272 36.3868354,5.99882993 36.2730939,6.36280272 C36.2213932,6.53444898 36.1448762,6.55926531 36.0404408,6.67093878 C35.8212299,6.89428571 35.5172299,7.10729252 35.2483864,7.40095238 C35.068468,7.59638095 34.8492571,7.74114286 34.7086313,7.96345578 C34.6662367,8.03790476 34.5917878,8.13303401 34.5917878,8.13303401 C34.074781,8.02859864 33.5536381,8.04410884 33.1534748,7.96345578 L33.1534748,7.3647619 C33.1534748,7.3647619 33.5629442,7.29651701 33.6394612,7.09488435 C33.6466993,7.07627211 33.6363592,7.0069932 33.5743184,6.96563265 C33.5040054,6.91393197 33.3840599,6.85809524 33.3447673,6.84465306 C33.7583728,6.90979592 34.0137741,6.9770068 34.4149714,7.15278912 C34.4387537,7.10729252 34.4232435,7.01009524 34.3932571,6.9770068 C34.3384544,6.91496599 34.309502,6.89428571 34.1699102,6.86223129 C33.925883,6.79605442 33.2651483,6.71746939 33.2651483,6.71746939 C33.2651483,6.71746939 33.5691483,6.71643537 33.8266177,6.67404082 C33.9496653,6.65336054 34.0530667,6.62957823 34.082019,6.58614966 C34.1130395,6.51997279 34.0561687,6.43001361 33.9693116,6.33385034 C33.9083048,6.27180952 33.8462639,6.20770068 33.7976653,6.1404898 C33.7366585,6.05983673 33.6384272,5.90887075 33.5298558,5.81167347 C33.4378286,5.72895238 33.2031075,5.6090068 33.2031075,5.6090068 C33.2031075,5.6090068 33.163815,5.29053061 33.2279238,5.15817687 C33.2734204,5.06511565 33.4006041,5.0082449 33.4657469,5.04236735 C33.7625088,5.20780952 34.0561687,5.37635374 34.4501279,5.44459864" id="Fill-104" fill="#FEFEFE"></path>
                <path d="M33.1485116,6.06366259 C33.0740626,6.11846531 33.0182259,6.17223401 32.9334367,6.18567619 C32.7638585,6.21462857 32.7866068,6.06676463 32.6728653,5.98197551 C32.6004844,5.93337687 32.5332735,5.99955374 32.4701986,5.88064218 C32.7162939,5.88891429 33.0389061,5.8672 33.2208925,6.05125442 C33.2002122,6.0419483 33.1598857,6.05642449 33.1485116,6.06366259" id="Fill-106" fill="#00ADEE"></path>
                <path d="M10.8133007,12.7817524 C10.8618993,12.7186776 10.9239401,12.7145415 10.9839129,12.7817524 L12.9940354,15.8610449 C12.3529469,16.1453986 11.6446476,16.3046367 10.8980898,16.3046367 C10.1484299,16.3046367 9.44013061,16.1453986 8.8011102,15.8610449 L10.8133007,12.7817524 C10.8691374,12.7145415 10.9363483,12.7186776 10.9839129,12.7817524" id="Fill-108" fill="#00ADEE"></path>
                <path d="M33.1687782,16.7400599 C33.0674449,16.8434612 32.9009687,17.0544 32.8730503,17.3925224 C32.848234,17.6954884 32.9185469,17.7813116 32.9950639,17.9446857 C33.0571048,18.0791075 33.2018667,18.0729034 33.2535673,17.9457197 C33.2980299,17.8433524 33.2349551,17.7513252 33.2742476,17.5259102 C33.304234,17.3625361 33.4314177,17.278781 33.4314177,17.278781 L33.4169415,16.5384272 C33.4169415,16.5384272 33.304234,16.599434 33.1687782,16.7400599" id="Fill-110" fill="#FEFEFE"></path>
                <path d="M9.46515374,6.20201361 C9.16218776,6.70764626 9.40724898,7.36631293 9.69573878,7.67858503 C9.74950748,7.73235374 9.72262313,7.78922449 9.67609252,7.80473469 L6.98145306,7.80473469 C7.62771156,7.05093878 8.48697687,6.48326531 9.46515374,6.20201361" id="Fill-112" fill="#00ADEE"></path>
                <path d="M38.3267483,20.5953796 L38.3267483,20.9852027 L38.5201088,20.9852027 C38.7207075,20.9852027 38.8158367,20.9366041 38.8158367,20.7990803 C38.8158367,20.6543184 38.7207075,20.5953796 38.5139048,20.5953796 L38.3267483,20.5953796 Z M39.0464218,20.776332 C39.0464218,20.9428082 38.9512925,21.0617197 38.7734422,21.0927401 L39.0391837,21.6345633 L38.7899864,21.6345633 L38.5521633,21.1330667 L38.3267483,21.1330667 L38.3267483,21.6345633 L38.1044354,21.6345633 L38.1044354,20.4516517 L38.5552653,20.4516517 C38.8820136,20.4516517 39.0464218,20.5612571 39.0464218,20.776332 L39.0464218,20.776332 Z M39.1725714,20.4237333 C38.9998912,20.245883 38.7734422,20.1569578 38.528381,20.1569578 C38.2822857,20.1569578 38.0579048,20.244849 37.8934966,20.4113252 C37.7166803,20.5943456 37.617415,20.8249306 37.617415,21.0627537 C37.617415,21.3016109 37.7115102,21.5259918 37.8862585,21.6986721 C38.0568707,21.8723864 38.2864218,21.9675156 38.5201088,21.9675156 C38.7662041,21.9675156 38.988517,21.8744544 39.1663673,21.7028082 C39.3380136,21.536332 39.4341769,21.314019 39.4341769,21.0710259 C39.4341769,20.8197605 39.3390476,20.5943456 39.1725714,20.4237333 L39.1725714,20.4237333 Z M39.2687347,20.3265361 C39.4620952,20.5240327 39.5706667,20.7856381 39.5706667,21.0627537 C39.5706667,21.3491755 39.4651973,21.6056109 39.2677007,21.7948354 C39.060898,21.996468 38.7951565,22.1091755 38.5273469,22.1091755 C38.2440272,22.1091755 37.9865578,21.996468 37.7869932,21.7948354 C37.5874286,21.5963048 37.4829932,21.3388354 37.4829932,21.0627537 C37.4829932,20.7877061 37.5946667,20.5188626 37.7962993,20.3151619 C37.9906939,20.1197333 38.2419592,20.017366 38.5273469,20.017366 C38.8085986,20.017366 39.0691701,20.1259374 39.2687347,20.3265361 L39.2687347,20.3265361 Z" id="Fill-114" fill="#00ADEE"></path>
                <path d="M17.3505415,20.5953796 L17.3505415,20.9852027 L17.537698,20.9852027 C17.7445007,20.9852027 17.8385959,20.9366041 17.8385959,20.7990803 C17.8385959,20.6543184 17.7445007,20.5953796 17.5356299,20.5953796 L17.3505415,20.5953796 Z M18.0671129,20.776332 C18.0671129,20.9428082 17.9668136,21.0617197 17.7972354,21.0927401 L18.0609088,21.6345633 L17.8106776,21.6345633 L17.5697524,21.1330667 L17.3505415,21.1330667 L17.3505415,21.6345633 L17.1251265,21.6345633 L17.1251265,20.4516517 L17.5738884,20.4516517 C17.9027048,20.4516517 18.0671129,20.5612571 18.0671129,20.776332 L18.0671129,20.776332 Z M18.1953306,20.4237333 C18.0195483,20.245883 17.7972354,20.1569578 17.5480381,20.1569578 C17.3050449,20.1569578 17.0785959,20.244849 16.9152218,20.4113252 C16.7363374,20.5943456 16.6401741,20.8249306 16.6401741,21.0627537 C16.6401741,21.3016109 16.7353034,21.5259918 16.9059156,21.6986721 C17.0754939,21.8723864 17.3071129,21.9675156 17.537698,21.9675156 C17.7868952,21.9675156 18.0102422,21.8744544 18.1870585,21.7028082 C18.3587048,21.536332 18.4528,21.314019 18.4528,21.0710259 C18.4528,20.8197605 18.3628408,20.5943456 18.1953306,20.4237333 L18.1953306,20.4237333 Z M18.2914939,20.3265361 C18.4817524,20.5240327 18.5913578,20.7856381 18.5913578,21.0627537 C18.5913578,21.3491755 18.4869224,21.6056109 18.2883918,21.7948354 C18.0815891,21.996468 17.8179156,22.1091755 17.543902,22.1091755 C17.2667864,22.1091755 17.009317,21.996468 16.8076844,21.7948354 C16.6091537,21.5963048 16.5005823,21.3388354 16.5005823,21.0627537 C16.5005823,20.7877061 16.6143238,20.5188626 16.8169905,20.3151619 C17.010351,20.1197333 17.2636844,20.017366 17.543902,20.017366 C17.8292898,20.017366 18.0919293,20.1259374 18.2914939,20.3265361 L18.2914939,20.3265361 Z" id="Fill-116" fill="#00ADEE"></path>
            </g>
        </g>
    </g>
</svg>