<?xml version="1.0" encoding="UTF-8"?>
<svg width="152px" height="23px" viewBox="0 0 152 23" version="1.1" xmlns="http://www.w3.org/2000/svg" xmlns:xlink="http://www.w3.org/1999/xlink">
    <!-- Generator: Sketch 61.2 (89653) - https://sketch.com -->
    <title>Blue Cross NC Logo</title>
    <desc>Created with Sketch.</desc>
    <defs>
        <polygon id="path-1" points="0.122944218 0.559091156 5.93834014 0.559091156 5.93834014 7.82717279 0.122944218 7.82717279"></polygon>
    </defs>
    <g id="ID-Card" stroke="none" stroke-width="1" fill="none" fill-rule="evenodd">
        <g id="ID-Card---Medicare---Advantage" transform="translate(-20.000000, -26.000000)">
            <g id="BlueMedicare-ID-Card" transform="translate(0.000000, 0.088496)">
                <g id="Top-Bar-Logos" transform="translate(20.000000, 21.911504)">
                    <g id="Blue-Cross-NC-Logo" transform="translate(0.000000, 4.000000)">
                        <path d="M49.3301007,5.53703946 L49.3301007,8.21823673 L49.351815,9.01546122 L50.114917,9.01546122 C50.4675156,8.99478095 50.8438966,8.96272653 51.1623728,8.65459048 C51.5811483,8.22857687 51.5811483,7.50373333 51.5811483,7.25143401 C51.5811483,6.47385578 51.405366,6.06335238 51.0930939,5.81932517 C50.8604408,5.63630476 50.4582095,5.52876735 49.8450395,5.53703946 L49.3301007,5.53703946 Z M49.351815,2.49186939 L49.3394068,3.18879456 L49.3301007,5.24441361 L49.9970395,5.24441361 C50.4385633,5.24441361 50.7921959,5.10585578 50.9317878,4.92283537 C51.104468,4.72120272 51.1933932,4.38721633 51.1933932,3.86297143 C51.1933932,2.72348844 50.8438966,2.51358367 50.0663184,2.49186939 L49.351815,2.49186939 Z M46.768849,2.18993741 L50.7622095,2.18993741 C51.1623728,2.20027755 51.6080327,2.22199184 52.0206041,2.40397823 C52.7899102,2.77622313 52.8095565,3.53001905 52.8095565,3.69235918 C52.8095565,4.09562449 52.6678966,4.46683537 52.3742367,4.76049524 C51.8985905,5.25578776 51.2750803,5.32506667 50.8221823,5.37676735 C51.3154068,5.39641361 52.1095293,5.43777415 52.7258014,6.06335238 C52.9687946,6.2929034 53.2634884,6.70650884 53.2634884,7.36000544 C53.2634884,7.82737959 53.1104544,8.31233197 52.7258014,8.69284898 C52.1539918,9.26569252 51.4250122,9.28637279 50.801502,9.30601905 L46.768849,9.30601905 L46.768849,9.04751565 L47.7470259,9.04751565 L47.7666721,8.04762449 L47.7666721,3.28805986 L47.7470259,2.45257687 L46.768849,2.45257687 L46.768849,2.18993741 Z" id="Fill-1" fill="#231F20"></path>
                        <path d="M54.8737578,2.18962721 C55.3494041,2.18342313 55.4910639,2.18342313 55.9336218,2.14930068 L55.9139755,3.26913741 L55.9139755,8.23964082 L55.9336218,9.04720544 L56.6295129,9.04720544 L56.6295129,9.30570884 L53.6856762,9.30570884 L53.6856762,9.04720544 L54.4415401,9.04720544 L54.4611864,8.23964082 L54.4611864,3.26913741 L54.4415401,2.45226667 L53.6856762,2.45226667 L53.6856762,2.18962721 L54.8737578,2.18962721 Z" id="Fill-3" fill="#231F20"></path>
                        <path d="M57.8001197,4.42930068 C58.3222966,4.41999456 58.4825687,4.41999456 58.9768272,4.38690612 L58.957181,5.32475646 L58.957181,7.58200816 C58.957181,7.96666122 58.9768272,8.25928707 59.0585143,8.46091973 C59.186732,8.77215782 59.4607456,8.91381769 59.794732,8.91381769 C60.0873578,8.91381769 60.3406912,8.80421224 60.5319837,8.62222585 C60.9238748,8.22826667 60.9125007,7.7060898 60.9125007,7.25939592 L60.9125007,5.46745034 L60.8928544,4.69090612 L60.1473306,4.69090612 L60.1473306,4.42930068 L61.013834,4.42930068 C61.5970177,4.41999456 61.770732,4.41999456 62.3539156,4.38690612 L62.3342694,5.32475646 L62.3342694,8.11969524 L62.3539156,9.03479728 L63.0828952,9.03479728 L63.0828952,9.30570884 L62.3135891,9.30570884 C61.6683646,9.30570884 61.4377796,9.31915102 60.9517932,9.3481034 L60.9238748,8.5725932 C60.709834,8.83419864 60.2176435,9.4163483 59.0791946,9.4163483 C58.3347048,9.4163483 57.8590585,9.13613061 57.665698,8.75147755 C57.515766,8.46919184 57.5250721,8.10521905 57.5250721,7.8053551 L57.5250721,5.42712381 L57.5054259,4.69090612 L56.7692082,4.69090612 L56.7692082,4.42930068 L57.8001197,4.42930068 Z" id="Fill-5" fill="#231F20"></path>
                        <path d="M66.8770014,6.28121905 C66.8852735,5.49640272 66.8945796,4.56992653 65.9877497,4.56992653 C65.1315864,4.56992653 65.0891918,5.42712381 65.0592054,6.28121905 L66.8770014,6.28121905 Z M68.3473687,7.89531429 C68.0836952,8.38853878 67.5418721,9.4163483 66.016702,9.4163483 C64.4522395,9.4163483 63.4968109,8.21792653 63.4968109,6.81787211 C63.4968109,5.47779048 64.4015728,4.28970884 66.0291102,4.28970884 C67.0331374,4.28970884 67.5884027,4.72089252 67.8324299,4.97215782 C68.3856272,5.54706939 68.4063075,6.15300136 68.4187156,6.58521905 L65.0498993,6.58521905 C65.0592054,7.44241633 65.0788517,8.21792653 65.5038313,8.66358639 C65.7344163,8.90451156 66.0704707,9.00481088 66.4003211,9.00481088 C67.4870694,9.00481088 67.9006748,8.09074286 68.0433687,7.76296054 L68.3473687,7.89531429 Z" id="Fill-7" fill="#231F20"></path>
                        <path d="M75.5055347,8.80472925 C74.7579429,9.0746068 73.8325007,9.4085932 72.6723374,9.4085932 C70.5960381,9.4085932 69.0532898,7.91651156 69.0532898,5.7378449 C69.0532898,3.39063401 70.8307592,2.0288381 72.8336435,2.0288381 C73.4499156,2.0288381 74.3981061,2.16946395 75.4641741,2.63270204 L75.4641741,4.63868844 L75.1529361,4.63868844 C75.1033034,4.25713741 75.0205823,3.62949116 74.4074122,3.0173551 C73.931766,2.54481088 73.3899429,2.37213061 72.9153306,2.37213061 C72.3817796,2.37213061 71.8461605,2.59340952 71.4935619,2.94600816 C70.9899973,3.44957279 70.7676844,4.25713741 70.7676844,5.72853878 C70.7676844,7.14823946 70.9413986,8.02921905 71.4646095,8.56380408 C71.7551673,8.86470204 72.2184054,9.10666122 72.7736707,9.10666122 C73.3061878,9.10666122 73.9410721,8.89468844 74.4570449,8.34976327 C75.0629769,7.72418503 75.1312218,7.19063401 75.1715483,6.80701497 L75.5055347,6.80701497 L75.5055347,8.80472925 Z" id="Fill-9" fill="#231F20"></path>
                        <path d="M78.5045878,9.04699864 L79.2521796,9.04699864 L79.2521796,9.30550204 L76.2938667,9.30550204 L76.2938667,9.04699864 L77.0321524,9.04699864 L77.0517986,8.22805986 L77.0517986,5.57891701 L77.0321524,4.69069932 L76.2938667,4.69069932 L76.2938667,4.42909388 L77.4240435,4.42909388 C77.8893497,4.41978776 78.0413497,4.41978776 78.4621932,4.38669932 L78.4828735,5.15393741 L78.4828735,5.37625034 C78.5542204,5.15393741 78.6255673,4.96161088 78.8447782,4.7424 C79.0794993,4.4994068 79.4083156,4.33913469 79.7722884,4.33913469 C80.419581,4.33913469 80.6915265,4.85097143 80.6915265,5.3049034 C80.6915265,5.9201415 80.2882612,6.02147483 80.0659483,6.02147483 C79.964615,6.02147483 79.438302,5.96874014 79.438302,5.35557007 C79.438302,5.3049034 79.4734585,5.05260408 79.4734585,5.0009034 C79.4734585,4.79203265 79.3183565,4.79203265 79.2914721,4.79203265 C79.1580844,4.79203265 78.978166,4.95230476 78.8447782,5.15393741 C78.5118259,5.68748844 78.4921796,6.47437279 78.4828735,7.02757007 L78.4828735,8.22805986 L78.5045878,9.04699864 Z" id="Fill-11" fill="#231F20"></path>
                        <path d="M82.4649633,6.64581224 C82.4649633,8.22785306 82.5652626,9.13571701 83.5330993,9.13571701 C84.5112762,9.13571701 84.5815891,8.21854694 84.5815891,6.88777143 C84.5815891,5.66763537 84.5216163,4.54883265 83.5227592,4.55917279 C82.5869769,4.55917279 82.4649633,5.51666939 82.4649633,6.64581224 M86.1253714,6.88777143 C86.1253714,8.48015238 84.8545687,9.41696871 83.4938068,9.41696871 C82.0089633,9.41696871 80.9335891,8.34883265 80.9335891,6.84641088 C80.9335891,5.26333605 82.0803102,4.31721361 83.4731265,4.29653333 C85.106868,4.26758095 86.1253714,5.4267102 86.1253714,6.88777143" id="Fill-13" fill="#231F20"></path>
                        <path d="M87.1422204,7.45161905 C87.183581,7.7442449 87.2146014,7.98620408 87.3748735,8.28917007 C87.5351456,8.61178231 87.946683,9.11638095 88.6632544,9.11638095 C89.2609143,9.11638095 89.6538395,8.78342857 89.6538395,8.38016327 C89.6538395,7.92312925 89.2102476,7.7442449 88.5639891,7.51365986 C87.6685333,7.18070748 86.9106014,6.91082993 86.9106014,5.8364898 C86.9106014,4.56982313 88.022166,4.27926531 88.7159891,4.27926531 C89.2712544,4.27926531 89.7251864,4.43746939 90.1977306,4.59980952 L90.2173769,5.91093878 L89.9123429,5.91093878 C89.8761524,5.70930612 89.8337578,5.52938776 89.7644789,5.36601361 C89.6341932,5.09303401 89.2474721,4.60911565 88.6053497,4.60911565 C88.0614585,4.60911565 87.8174313,4.97308844 87.8174313,5.22642177 C87.8174313,5.53662585 88.0811048,5.66691156 88.1927782,5.71861224 C88.3509823,5.78995918 89.1482068,6.08258503 89.3291592,6.15289796 C89.9443973,6.40416327 90.5792816,6.74538776 90.5792816,7.676 C90.5792816,8.73172789 89.7531048,9.42865306 88.5433088,9.42865306 C87.8794721,9.42865306 87.3748735,9.24770068 86.8495946,9.05537415 L86.8289143,7.45161905 L87.1422204,7.45161905 Z" id="Fill-15" fill="#231F20"></path>
                        <path d="M91.7589878,7.45161905 C91.7982803,7.7442449 91.8303347,7.98620408 91.9926748,8.28917007 C92.1529469,8.61178231 92.5655184,9.11638095 93.2831238,9.11638095 C93.8766476,9.11638095 94.2716408,8.78342857 94.2716408,8.38016327 C94.2716408,7.92312925 93.8239129,7.7442449 93.1786884,7.51365986 C92.2884027,7.18070748 91.5284027,6.91082993 91.5284027,5.8364898 C91.5284027,4.56982313 92.6368653,4.27926531 93.3337905,4.27926531 C93.8859537,4.27926531 94.3398857,4.43746939 94.8124299,4.59980952 L94.8341442,5.91093878 L94.5332463,5.91093878 C94.4939537,5.70930612 94.4515592,5.52938776 94.3802122,5.36601361 C94.2478585,5.09303401 93.8673415,4.60911565 93.221083,4.60911565 C92.6782259,4.60911565 92.4373007,4.97308844 92.4373007,5.22642177 C92.4373007,5.53662585 92.6958041,5.66691156 92.8064435,5.71861224 C92.9708517,5.78995918 93.7639401,6.08258503 93.9459265,6.15289796 C94.5611646,6.40416327 95.196049,6.74538776 95.196049,7.676 C95.196049,8.73172789 94.3709061,9.42865306 93.1600762,9.42865306 C92.4952054,9.42865306 91.9926748,9.24770068 91.4673959,9.05537415 L91.4487837,7.45161905 L91.7589878,7.45161905 Z" id="Fill-17" fill="#231F20"></path>
                        <path d="M101.24689,5.53703946 L101.24689,8.21823673 L101.266536,9.01546122 L102.033774,9.01546122 C102.388441,8.99478095 102.760686,8.96272653 103.08123,8.65459048 C103.494835,8.22857687 103.494835,7.50373333 103.494835,7.25143401 C103.494835,6.47385578 103.323189,6.06335238 103.009883,5.81932517 C102.779298,5.63630476 102.377067,5.52876735 101.762863,5.53703946 L101.24689,5.53703946 Z M101.266536,2.49186939 L101.256196,3.18879456 L101.24689,5.24441361 L101.913829,5.24441361 C102.355352,5.24441361 102.707951,5.10585578 102.850645,4.92283537 C103.022291,4.72120272 103.11225,4.38721633 103.11225,3.86297143 C103.11225,2.72348844 102.760686,2.51358367 101.984141,2.49186939 L101.266536,2.49186939 Z M98.6856381,2.18993741 L102.677965,2.18993741 C103.08123,2.20027755 103.524822,2.22199184 103.939461,2.40397823 C104.705665,2.77622313 104.723244,3.53001905 104.723244,3.69235918 C104.723244,4.09562449 104.58572,4.46683537 104.291026,4.76049524 C103.817448,5.25578776 103.192903,5.32506667 102.737937,5.37676735 C103.230128,5.39641361 104.02942,5.43777415 104.643624,6.06335238 C104.886618,6.2929034 105.180278,6.70650884 105.180278,7.36000544 C105.180278,7.82737959 105.025176,8.31233197 104.643624,8.69284898 C104.069747,9.26569252 103.342835,9.28637279 102.717257,9.30601905 L98.6856381,9.30601905 L98.6856381,9.04751565 L99.663815,9.04751565 L99.6844952,8.04762449 L99.6844952,3.28805986 L99.663815,2.45257687 L98.6856381,2.45257687 L98.6856381,2.18993741 Z" id="Fill-19" fill="#231F20"></path>
                        <path d="M107.04295,2.18962721 C107.51963,2.18342313 107.660256,2.18342313 108.102814,2.14930068 L108.083167,3.26913741 L108.083167,8.23964082 L108.102814,9.04720544 L108.797671,9.04720544 L108.797671,9.30570884 L105.855902,9.30570884 L105.855902,9.04720544 L106.610732,9.04720544 L106.632446,8.23964082 L106.632446,3.26913741 L106.610732,2.45226667 L105.855902,2.45226667 L105.855902,2.18962721 L107.04295,2.18962721 Z" id="Fill-21" fill="#231F20"></path>
                        <path d="M109.970346,4.42930068 C110.491488,4.41999456 110.653829,4.41999456 111.146019,4.38690612 L111.127407,5.32475646 L111.127407,7.58200816 C111.127407,7.96666122 111.146019,8.25928707 111.225638,8.46091973 C111.357992,8.77215782 111.630971,8.91381769 111.964958,8.91381769 C112.25655,8.91381769 112.505747,8.80421224 112.699107,8.62222585 C113.094101,8.22826667 113.083761,7.7060898 113.083761,7.25939592 L113.083761,5.46745034 L113.061012,4.69090612 L112.315488,4.69090612 L112.315488,4.42930068 L113.183026,4.42930068 C113.768278,4.41999456 113.939924,4.41999456 114.525176,4.38690612 L114.503461,5.32475646 L114.503461,8.11969524 L114.525176,9.03479728 L115.248985,9.03479728 L115.248985,9.30570884 L114.480713,9.30570884 C113.837556,9.30570884 113.605937,9.31915102 113.125121,9.3481034 L113.094101,8.5725932 C112.88006,8.83419864 112.387869,9.4163483 111.248386,9.4163483 C110.500795,9.4163483 110.030318,9.13613061 109.837992,8.75147755 C109.684958,8.46919184 109.69323,8.10521905 109.69323,7.8053551 L109.69323,5.42712381 L109.675652,4.69090612 L108.9384,4.69090612 L108.9384,4.42930068 L109.970346,4.42930068 Z" id="Fill-23" fill="#231F20"></path>
                        <path d="M119.293633,6.28121905 C119.303973,5.49640272 119.316381,4.56992653 118.408517,4.56992653 C117.549252,4.56992653 117.509959,5.42712381 117.479973,6.28121905 L119.293633,6.28121905 Z M120.768136,7.89531429 C120.506531,8.38853878 119.961605,9.4163483 118.438503,9.4163483 C116.875075,9.4163483 115.917578,8.21792653 115.917578,6.81787211 C115.917578,5.47779048 116.825442,4.28970884 118.446776,4.28970884 C119.458041,4.28970884 120.012272,4.72089252 120.254231,4.97215782 C120.807429,5.54706939 120.826041,6.15300136 120.838449,6.58521905 L117.472735,6.58521905 C117.479973,7.44241633 117.501687,8.21792653 117.923565,8.66358639 C118.156218,8.90451156 118.488136,9.00481088 118.821088,9.00481088 C119.910939,9.00481088 120.321442,8.09074286 120.466204,7.76296054 L120.768136,7.89531429 Z" id="Fill-25" fill="#231F20"></path>
                        <path d="M121.767614,6.8780517 C121.820348,7.17067755 121.871015,7.43228299 122.042661,7.78384762 C122.645491,9.03500408 123.744648,9.06499048 123.967995,9.06499048 C124.762117,9.06499048 125.437328,8.59141224 125.437328,7.85519456 C125.437328,7.12207891 124.883097,6.8780517 123.361029,6.25350748 C123.119069,6.15320816 122.88745,6.06324898 122.666171,5.94020136 C122.399396,5.80060952 121.533927,5.2970449 121.533927,4.13584762 C121.533927,2.88675918 122.535886,2.04920816 123.934906,2.04920816 C124.812784,2.04920816 125.499369,2.34183401 125.858171,2.49176599 L125.961573,4.18548027 L125.637927,4.18548027 C125.499369,3.66123537 125.416648,3.37171156 125.064049,3.01807891 C124.712484,2.65720816 124.248212,2.40387483 123.744648,2.40387483 C122.97741,2.40387483 122.575178,2.91467755 122.575178,3.4430585 C122.575178,4.08621497 123.16043,4.35609252 123.419967,4.47810612 C123.764294,4.63837823 124.105518,4.76039184 124.448811,4.90308571 C125.325654,5.25568435 126.423777,5.77992925 126.423777,7.16033741 C126.423777,8.46112653 125.407341,9.4165551 123.703287,9.4165551 C122.83575,9.4165551 122.169845,9.17666395 121.515314,8.94297687 L121.454307,6.8780517 L121.767614,6.8780517 Z" id="Fill-27" fill="#231F20"></path>
                        <path d="M128.110046,2.18962721 C128.623951,2.18962721 128.744931,2.18342313 129.197829,2.14930068 L129.179216,3.24845714 L129.179216,5.16448435 C129.369475,4.86151837 129.560767,4.58130068 130.133611,4.40862041 C130.376604,4.32900136 130.618563,4.29591293 130.869829,4.29591293 C131.61742,4.29591293 131.981393,4.58750476 132.142699,4.7426068 C132.517012,5.11174966 132.546999,5.55637551 132.565611,5.93999456 L132.565611,8.33890612 L132.584223,9.04720544 L133.280114,9.04720544 L133.280114,9.30570884 L130.328005,9.30570884 L130.328005,9.04720544 L131.101448,9.04720544 L131.124196,8.33890612 L131.124196,5.91931429 C131.124196,5.52845714 131.124196,4.7426068 130.336278,4.7426068 C130.055026,4.7426068 129.78308,4.86151837 129.57938,5.06315102 C129.239189,5.40540952 129.206101,5.86140952 129.179216,6.44355918 L129.179216,8.33890612 L129.197829,9.04720544 L129.954727,9.04720544 L129.954727,9.30570884 L127.009856,9.30570884 L127.009856,9.04720544 L127.747107,9.04720544 L127.764686,8.33063401 L127.764686,3.24845714 L127.747107,2.45226667 L127.009856,2.45226667 L127.009856,2.18962721 L128.110046,2.18962721 Z" id="Fill-29" fill="#231F20"></path>
                        <path d="M134.424147,2.93587483 C134.424147,2.50158912 134.786052,2.13865034 135.229644,2.13865034 C135.660827,2.13865034 136.015494,2.49124898 136.015494,2.93587483 C136.015494,3.38256871 135.660827,3.73309932 135.229644,3.73309932 C135.018705,3.73309932 134.807766,3.65141224 134.66714,3.50148027 C134.516174,3.34948027 134.424147,3.14888163 134.424147,2.93587483 L134.424147,2.93587483 Z M134.726079,4.42899048 C135.310297,4.42071837 135.510895,4.42071837 136.006188,4.38659592 L135.986541,5.49712653 L135.986541,8.25897687 L136.006188,9.04689524 L136.703113,9.04689524 L136.703113,9.30539864 L133.756174,9.30539864 L133.756174,9.04689524 L134.516174,9.04689524 L134.531684,8.25897687 L134.531684,5.49712653 L134.516174,4.69059592 L133.756174,4.69059592 L133.756174,4.42899048 L134.726079,4.42899048 Z" id="Fill-31" fill="#231F20"></path>
                        <path d="M140.469714,6.28121905 C140.47902,5.49640272 140.490395,4.56992653 139.583565,4.56992653 C138.726367,4.56992653 138.686041,5.42712381 138.658122,6.28121905 L140.469714,6.28121905 Z M141.943184,7.89531429 C141.680544,8.38853878 141.136653,9.4163483 139.615619,9.4163483 C138.051156,9.4163483 137.092626,8.21792653 137.092626,6.81787211 C137.092626,5.47779048 138.001524,4.28970884 139.624925,4.28970884 C140.632054,4.28970884 141.185252,4.72089252 141.428245,4.97215782 C141.98351,5.54706939 142.002122,6.15300136 142.011429,6.58521905 L138.647782,6.58521905 C138.658122,7.44241633 138.674667,8.21792653 139.099646,8.66358639 C139.333333,8.90451156 139.665252,9.00481088 139.996136,9.00481088 C141.08702,9.00481088 141.498558,8.09074286 141.641252,7.76296054 L141.943184,7.89531429 Z" id="Fill-33" fill="#231F20"></path>
                        <path d="M143.517159,2.18962721 C143.990737,2.18342313 144.133431,2.18342313 144.575989,2.14930068 L144.556343,3.26913741 L144.556343,8.23964082 L144.575989,9.04720544 L145.27188,9.04720544 L145.27188,9.30570884 L142.328044,9.30570884 L142.328044,9.04720544 L143.084941,9.04720544 L143.101486,8.23964082 L143.101486,3.26913741 L143.084941,2.45226667 L142.328044,2.45226667 L142.328044,2.18962721 L143.517159,2.18962721 Z" id="Fill-35" fill="#231F20"></path>
                        <g id="Group-39" transform="translate(145.795918, 1.590003)">
                            <mask id="mask-2" fill="white">
                                <use xlink:href="#path-1"></use>
                            </mask>
                            <g id="Clip-38"></g>
                            <path d="M2.04310748,3.41090068 C1.75358367,3.71490068 1.70498503,4.3094585 1.70498503,5.25661497 C1.70498503,6.41781224 1.73186939,7.38358095 2.66041361,7.38358095 C2.91374694,7.38358095 3.20533878,7.30499592 3.43799184,7.06407075 C3.70786939,6.77971701 3.79059048,6.42711837 3.79059048,5.15528163 C3.79059048,4.24741769 3.79059048,3.14102313 2.72142041,3.15239728 C2.40811429,3.15239728 2.17752925,3.27130884 2.04310748,3.41090068 L2.04310748,3.41090068 Z M4.00359728,0.599417687 C4.58781497,0.599417687 4.76669932,0.593213605 5.22063129,0.559091156 L5.20098503,1.3759619 L5.20098503,6.7414585 L5.22063129,7.44458776 L5.93927075,7.44458776 L5.93927075,7.71549932 L4.99004626,7.71549932 C4.42444082,7.7289415 4.24452245,7.7289415 3.76784218,7.75789388 L3.76784218,7.09405714 C3.53725714,7.38358095 3.17535238,7.82717279 2.23750204,7.82717279 C0.726808163,7.82717279 0.122944218,6.45710476 0.122944218,5.34864218 C0.122944218,3.76556735 1.07113469,2.74913197 2.36675374,2.74913197 C2.99336599,2.74913197 3.32631837,2.9486966 3.55793741,3.17928163 C3.69959728,3.32197551 3.7316517,3.39332245 3.76784218,3.51637007 L3.76784218,1.51865578 L3.7471619,0.862057143 L3.00267211,0.862057143 L3.00267211,0.599417687 L4.00359728,0.599417687 Z" id="Fill-37" fill="#231F20" mask="url(#mask-2)"></path>
                        </g>
                        <path d="M48.3122177,17.7402612 C48.3122177,19.3243701 48.411483,20.229132 49.3772517,20.229132 C50.3585306,20.229132 50.4298776,19.3129959 50.4298776,17.9822204 C50.4298776,16.7651864 50.3678367,15.6463837 49.3689796,15.6535868 C48.4331973,15.6535868 48.3122177,16.6090503 48.3122177,17.7402612 M51.9695238,17.9822204 C51.9695238,19.5735673 50.7018231,20.5114177 49.3389932,20.5114177 C47.8572517,20.5114177 46.7777415,19.4453497 46.7777415,17.9408599 C46.7777415,16.358819 47.9275646,15.4116626 49.320381,15.3920163 C50.9541224,15.3630639 51.9695238,16.5221932 51.9695238,17.9822204" id="Fill-40" fill="#231F20"></path>
                        <path d="M55.4099973,13.9818286 C55.4099973,13.706781 55.3003918,13.4555156 54.9653714,13.4555156 C54.5010993,13.4555156 54.5010993,13.9187537 54.5010993,14.3333932 L54.5010993,15.5204408 L55.3262422,15.5204408 L55.3262422,15.7851483 L54.5010993,15.7851483 L54.5010993,19.2025633 L54.5217796,20.1373116 L55.3262422,20.1373116 L55.3262422,20.400985 L52.3348408,20.400985 L52.3348408,20.1373116 L53.0689905,20.1373116 L53.0907048,19.2025633 L53.0907048,15.7851483 L52.3348408,15.7851483 L52.3348408,15.5204408 L53.0907048,15.5204408 L53.0907048,15.0696109 C53.1020789,14.5040054 53.1020789,13.7801959 53.8445007,13.404849 C54.2084735,13.2228626 54.6117388,13.1732299 55.0150041,13.1732299 C56.3995483,13.1732299 56.6714939,13.8815293 56.6714939,14.2920327 C56.6714939,14.4564408 56.6384054,14.925883 56.0138612,14.925883 C55.3975891,14.925883 55.3975891,14.4564408 55.3975891,14.3530395 L55.4099973,13.9818286 Z" id="Fill-42" fill="#231F20"></path>
                        <polygon id="Fill-44" fill="#231F20" points="58.8785959 13.2851102 61.7407456 13.2851102 65.3970177 17.9536816 65.3970177 14.4566476 65.3784054 13.5477497 64.3009633 13.5477497 64.3009633 13.2851102 66.6926367 13.2851102 66.6926367 13.5477497 65.7630585 13.5477497 65.7423782 14.4566476 65.7423782 20.5014912 65.4921469 20.5831782 60.1990313 13.8496816 60.1907592 14.7358313 60.1907592 19.2027701 60.2073034 20.1375184 61.3074939 20.1375184 61.3074939 20.4011918 58.8785959 20.4011918 58.8785959 20.1375184 59.8557388 20.1375184 59.875385 19.2027701 59.875385 14.4566476 59.8557388 13.5477497 58.8785959 13.5477497"></polygon>
                        <path d="M68.0938286,17.7402612 C68.0938286,19.3243701 68.1951619,20.229132 69.1588626,20.229132 C70.1380735,20.229132 70.2094204,19.3129959 70.2094204,17.9822204 C70.2094204,16.7651864 70.1473796,15.6463837 69.1516245,15.6535868 C68.2158422,15.6535868 68.0938286,16.6090503 68.0938286,17.7402612 M71.7521687,17.9822204 C71.7521687,19.5735673 70.483434,20.5114177 69.1206041,20.5114177 C67.6378286,20.5114177 66.5614204,19.4453497 66.5614204,17.9408599 C66.5614204,16.358819 67.7091755,15.4116626 69.1030259,15.3920163 C70.7357333,15.3630639 71.7521687,16.5221932 71.7521687,17.9822204" id="Fill-46" fill="#231F20"></path>
                        <path d="M74.1231619,20.137415 L74.8676517,20.137415 L74.8676517,20.4010884 L71.9124408,20.4010884 L71.9124408,20.137415 L72.6507265,20.137415 L72.6714068,19.3246803 L72.6714068,16.6703673 L72.6507265,15.7852517 L71.9124408,15.7852517 L71.9124408,15.5205442 L73.0426177,15.5205442 C73.5089578,15.5133061 73.6557878,15.5133061 74.0818014,15.4812517 L74.1014476,16.2505578 L74.1014476,16.4697687 C74.1696925,16.2505578 74.2431075,16.0561633 74.4633524,15.8359184 C74.6949714,15.5929252 75.0268898,15.429551 75.3929306,15.429551 C76.0371211,15.429551 76.3059646,15.9465578 76.3059646,16.4025578 C76.3059646,17.0136599 75.9047673,17.1160272 75.6834884,17.1160272 C75.5831891,17.1160272 75.0568762,17.0653605 75.0568762,16.4511565 C75.0568762,16.4025578 75.0899646,16.1471565 75.0899646,16.0975238 C75.0899646,15.884517 74.9389986,15.884517 74.9090122,15.884517 C74.7745905,15.884517 74.5957061,16.0458231 74.4633524,16.2505578 C74.133502,16.7810068 74.1117878,17.5699592 74.1014476,18.1241905 L74.1014476,19.3246803 L74.1231619,20.137415 Z" id="Fill-48" fill="#231F20"></path>
                        <path d="M77.2868299,14.1515102 L78.738585,14.1515102 L78.7189388,15.197932 L78.7189388,15.5205442 L79.722966,15.5205442 L79.722966,15.7852517 L78.7189388,15.7852517 L78.7189388,18.8593741 C78.7303129,19.5128707 78.738585,20.0702041 79.2421497,20.0702041 C79.5430476,20.0702041 79.722966,19.9068299 79.9194286,19.7258776 L80.100381,19.9285442 C79.8077551,20.1901497 79.4623946,20.4920816 78.6289796,20.4920816 C77.2961361,20.4920816 77.2961361,19.5955918 77.2961361,19.0827211 L77.3064762,17.6392381 L77.3064762,15.7852517 L76.5423401,15.7852517 L76.5423401,15.5205442 L77.3064762,15.5205442 L77.3064762,15.197932 L77.2868299,14.1515102 Z" id="Fill-50" fill="#231F20"></path>
                        <path d="M81.2158748,13.2851102 C81.7308136,13.2851102 81.8538612,13.2737361 82.3057252,13.2437497 L82.2850449,14.3429061 L82.2850449,16.2578993 C82.4794395,15.9570014 82.6665959,15.6747156 83.2425415,15.5041034 C83.4845007,15.4213823 83.7274939,15.3924299 83.9787592,15.3924299 C84.726351,15.3924299 85.0903238,15.6850558 85.2505959,15.8360218 C85.6228408,16.2082667 85.6538612,16.6539265 85.6745415,17.0344435 L85.6745415,19.4323211 L85.6931537,20.1375184 L86.3900789,20.1375184 L86.3900789,20.4011918 L83.434868,20.4011918 L83.434868,20.1375184 L84.2103782,20.1375184 L84.2310585,19.4323211 L84.2310585,17.0127293 C84.2310585,16.6187701 84.2310585,15.8360218 83.4452082,15.8360218 C83.1629224,15.8360218 82.8889088,15.9570014 82.6903782,16.156566 C82.3470857,16.5029605 82.3160653,16.9548245 82.2850449,17.5380082 L82.2850449,19.4323211 L82.3057252,20.1375184 L83.0615891,20.1375184 L83.0615891,20.4011918 L80.1198204,20.4011918 L80.1198204,20.1375184 L80.8529361,20.1375184 L80.8736163,19.424049 L80.8736163,14.3429061 L80.8529361,13.5477497 L80.1198204,13.5477497 L80.1198204,13.2851102 L81.2158748,13.2851102 Z" id="Fill-52" fill="#231F20"></path>
                        <path d="M95.3225088,19.8981442 C94.5790531,20.1700898 93.6525769,20.5009741 92.4924136,20.5009741 C90.4161143,20.5009741 88.873366,19.0099265 88.873366,16.8353959 C88.873366,14.485083 90.6466993,13.1232871 92.6526857,13.1232871 C93.2689578,13.1232871 94.2161143,13.265981 95.2842503,13.728185 L95.2842503,15.7331374 L94.9699102,15.7331374 C94.9213116,15.3526204 94.8406585,14.7280762 94.2233524,14.1118041 C93.7518422,13.6392599 93.210019,13.4645116 92.7343728,13.4645116 C92.1987537,13.4645116 91.6662367,13.6878585 91.3136381,14.0404571 C90.8090395,14.5450558 90.5856925,15.3526204 90.5856925,16.8229878 C90.5856925,18.2457905 90.7594068,19.1216 91.2815837,19.656185 C91.5731755,19.959151 92.0374476,20.2000762 92.5906449,20.2000762 C93.127298,20.2000762 93.7642503,19.9901714 94.2771211,19.4462803 C94.880985,18.820702 94.951298,18.286117 94.9905905,17.902498 L95.3225088,17.902498 L95.3225088,19.8981442 Z" id="Fill-54" fill="#231F20"></path>
                        <path d="M99.2000599,17.3777361 C99.0397878,17.4377088 98.8877878,17.4987156 98.7223456,17.5493823 C97.9995701,17.8016816 97.4877333,17.9722939 97.4877333,19.0187156 C97.4877333,19.2410286 97.4877333,20.0279129 98.2322231,20.0279129 C99.1576653,20.0279129 99.1783456,18.9390966 99.2000599,18.1129197 L99.2000599,17.3777361 Z M100.579434,19.352702 C100.579434,19.6070694 100.600114,20.1302803 101.114019,20.1302803 C101.195706,20.1302803 101.263951,20.1199401 101.337366,20.107532 L101.337366,20.4011918 C100.812087,20.4435864 100.511189,20.4632327 100.146182,20.4632327 C99.3799782,20.4632327 99.2683048,20.0082667 99.2000599,19.6970286 C99.0677061,19.9286476 98.7223456,20.5014912 97.6583456,20.5014912 C96.7101551,20.5014912 96.0442503,19.9896544 96.0442503,18.9814912 C96.0442503,18.0239946 96.6677605,17.7892735 96.9593524,17.680702 C97.2923048,17.5700626 97.6376653,17.5183619 97.9685497,17.448049 C98.3831891,17.3570558 98.7885224,17.2267701 99.1897197,17.0944163 L99.1897197,16.5701714 C99.1783456,16.2186068 99.1576653,15.6747156 98.3831891,15.6747156 C98.0512707,15.6747156 97.8082776,15.775015 97.6779918,15.9042667 C97.5239238,16.0562667 97.5239238,16.1979265 97.5239238,16.4698721 C97.5239238,16.7128653 97.4536109,17.0127293 96.932468,17.0127293 C96.7690939,17.0127293 96.394781,16.996185 96.394781,16.541219 C96.394781,16.2858177 96.5385088,16.0459265 96.699815,15.8846204 C96.932468,15.6540354 97.3760599,15.3924299 98.5341551,15.3924299 C100.540141,15.3924299 100.559788,16.3199401 100.579434,17.0437497 L100.579434,19.352702 Z" id="Fill-56" fill="#231F20"></path>
                        <path d="M103.94701,20.137415 L104.694601,20.137415 L104.694601,20.4010884 L101.738356,20.4010884 L101.738356,20.137415 L102.475608,20.137415 L102.498356,19.3246803 L102.498356,16.6703673 L102.475608,15.7852517 L101.738356,15.7852517 L101.738356,15.5205442 L102.867499,15.5205442 C103.333839,15.5133061 103.483771,15.5133061 103.906683,15.4812517 L103.928397,16.2505578 L103.928397,16.4697687 C103.99871,16.2505578 104.067989,16.0561633 104.288234,15.8359184 C104.525023,15.5929252 104.856941,15.429551 105.217812,15.429551 C105.864071,15.429551 106.134982,15.9465578 106.134982,16.4025578 C106.134982,17.0136599 105.732751,17.1160272 105.509404,17.1160272 C105.411173,17.1160272 104.885894,17.0653605 104.885894,16.4511565 C104.885894,16.4025578 104.917948,16.1471565 104.917948,16.0975238 C104.917948,15.884517 104.764914,15.884517 104.735962,15.884517 C104.60154,15.884517 104.422656,16.0458231 104.288234,16.2505578 C103.958384,16.7810068 103.938737,17.5699592 103.928397,18.1241905 L103.928397,19.3246803 L103.94701,20.137415 Z" id="Fill-58" fill="#231F20"></path>
                        <path d="M107.90935,17.7402612 C107.90935,19.3243701 108.010683,20.229132 108.97852,20.229132 C109.957731,20.229132 110.02701,19.3129959 110.02701,17.9822204 C110.02701,16.7651864 109.966003,15.6463837 108.96818,15.6535868 C108.032397,15.6535868 107.90935,16.6090503 107.90935,17.7402612 M111.569758,17.9822204 C111.569758,19.5735673 110.296887,20.5114177 108.938193,20.5114177 C107.456452,20.5114177 106.376941,19.4453497 106.376941,17.9408599 C106.376941,16.358819 107.525731,15.4116626 108.917513,15.3920163 C110.55022,15.3630639 111.569758,16.5221932 111.569758,17.9822204" id="Fill-60" fill="#231F20"></path>
                        <path d="M112.920903,13.2851102 C113.394482,13.2737361 113.535107,13.2737361 113.978699,13.2437497 L113.958019,14.3646204 L113.958019,19.3340898 L113.978699,20.1375184 L114.673556,20.1375184 L114.673556,20.4011918 L111.72972,20.4011918 L111.72972,20.1375184 L112.485584,20.1375184 L112.506264,19.3340898 L112.506264,14.3646204 L112.485584,13.5477497 L111.72972,13.5477497 L111.72972,13.2851102 L112.920903,13.2851102 Z" id="Fill-62" fill="#231F20"></path>
                        <path d="M115.752343,14.0292898 C115.752343,13.5981061 116.11735,13.2341333 116.556805,13.2341333 C116.993159,13.2341333 117.344724,13.586732 117.344724,14.0292898 C117.344724,14.4749497 116.993159,14.8285823 116.556805,14.8285823 C116.345867,14.8285823 116.135962,14.7458612 115.992234,14.5959293 C115.843336,14.4439293 115.752343,14.2402286 115.752343,14.0292898 L115.752343,14.0292898 Z M116.054275,15.5203374 C116.639527,15.5141333 116.842193,15.5141333 117.335418,15.4810449 L117.312669,16.5915755 L117.312669,19.3523918 L117.335418,20.1372082 L118.030275,20.1372082 L118.030275,20.4008816 L115.086438,20.4008816 L115.086438,20.1372082 L115.843336,20.1372082 L115.862982,19.3523918 L115.862982,16.5915755 L115.843336,15.7850449 L115.086438,15.7850449 L115.086438,15.5203374 L116.054275,15.5203374 Z" id="Fill-64" fill="#231F20"></path>
                        <path d="M123.98609,20.137415 L124.685083,20.137415 L124.685083,20.4010884 L121.790879,20.4010884 L121.790879,20.137415 L122.506416,20.137415 L122.526063,19.3525986 L122.526063,16.7644626 C122.515722,16.4511565 122.506416,15.8648707 121.841546,15.8648707 C121.59028,15.8648707 121.303859,15.9672381 121.091886,16.1688707 C120.670008,16.5824762 120.661736,17.2349388 120.643124,17.8811973 L120.643124,19.3525986 L120.661736,20.137415 L121.367967,20.137415 L121.367967,20.4010884 L118.452049,20.4010884 L118.452049,20.137415 L119.190335,20.137415 L119.207913,19.3525986 L119.207913,16.5225034 L119.190335,15.7966259 L118.452049,15.7966259 L118.452049,15.5319184 L119.491233,15.5319184 C120.037192,15.5205442 120.177818,15.5205442 120.661736,15.4926259 L120.643124,16.3787755 C120.771341,16.1161361 120.872675,15.9155374 121.165301,15.7128707 C121.456893,15.5205442 121.870498,15.3799184 122.407151,15.3799184 C122.766988,15.3799184 122.998607,15.4522993 123.140267,15.505034 C123.918879,15.7966259 123.946797,16.4511565 123.967478,16.873034 L123.967478,19.3525986 L123.98609,20.137415 Z" id="Fill-66" fill="#231F20"></path>
                        <path d="M128.506797,17.3777361 C128.347559,17.4377088 128.194525,17.4987156 128.033219,17.5493823 C127.306307,17.8016816 126.793437,17.9722939 126.793437,19.0187156 C126.793437,19.2410286 126.793437,20.0279129 127.538961,20.0279129 C128.466471,20.0279129 128.487151,18.9390966 128.506797,18.1129197 L128.506797,17.3777361 Z M129.887205,19.352702 C129.887205,19.6070694 129.907886,20.1302803 130.420756,20.1302803 C130.502444,20.1302803 130.574824,20.1199401 130.639967,20.107532 L130.639967,20.4011918 C130.118824,20.4435864 129.817927,20.4632327 129.454988,20.4632327 C128.68775,20.4632327 128.576076,20.0082667 128.506797,19.6970286 C128.374444,19.9286476 128.033219,20.5014912 126.963015,20.5014912 C126.017927,20.5014912 125.349954,19.9896544 125.349954,18.9814912 C125.349954,18.0239946 125.976566,17.7892735 126.269192,17.680702 C126.60111,17.5700626 126.943369,17.5183619 127.275287,17.448049 C127.690961,17.3570558 128.092158,17.2267701 128.496457,17.0944163 L128.496457,16.5701714 C128.487151,16.2186068 128.466471,15.6747156 127.690961,15.6747156 C127.359042,15.6747156 127.116049,15.775015 126.985763,15.9042667 C126.833763,16.0562667 126.833763,16.1979265 126.833763,16.4698721 C126.833763,16.7128653 126.76345,17.0127293 126.239205,17.0127293 C126.076865,17.0127293 125.705654,16.996185 125.705654,16.541219 C125.705654,16.2858177 125.84628,16.0459265 126.006552,15.8846204 C126.239205,15.6540354 126.682797,15.3924299 127.840893,15.3924299 C129.844811,15.3924299 129.867559,16.3199401 129.887205,17.0437497 L129.887205,19.352702 Z" id="Fill-68" fill="#231F20"></path>
                        <polygon id="Fill-70" fill="#00ADEE" points="15.7064599 22.0367946 15.7064599 15.9795429 21.7626776 15.9795429 21.7626776 6.2929034 15.7064599 6.2929034 15.7064599 0.238753741 6.05601088 0.238753741 6.05601088 6.2929034 0.000827210884 6.2929034 0.000827210884 15.9795429 6.05601088 15.9795429 6.05601088 22.0367946"></polygon>
                        <path d="M5.29663129,9.04699864 L9.31274014,9.43268571 C10.065502,9.54022313 10.1533932,10.2692027 9.95382857,10.7055565 L7.20335238,15.8704544 L7.20852245,15.8632163 C5.81157007,14.7650939 4.91301224,13.0651755 4.91301224,11.1532844 C4.91301224,10.4118966 5.05053605,9.70049524 5.29663129,9.04286259 L5.29663129,9.04699864 Z" id="Fill-72" fill="#FEFEFE"></path>
                        <path d="M5.89346395,9.92756463 L8.93242993,10.2077823 C9.15267483,10.2243265 9.16921905,10.3173878 9.11545034,10.4445714 L6.99055238,14.5092789 C6.21400816,13.6086531 5.7456,12.4329796 5.7456,11.1539048 C5.7456,10.7309932 5.79626667,10.3204898 5.89346395,9.92756463" id="Fill-74" fill="#00ADEE"></path>
                        <path d="M16.5001687,9.04699864 L12.4840599,9.43268571 C11.732332,9.54022313 11.6434068,10.2692027 11.8419374,10.7055565 L14.5934476,15.8704544 L14.5882776,15.8632163 C15.9831619,14.7650939 16.8806857,13.0651755 16.8806857,11.1532844 C16.8806857,10.4118966 16.7441959,9.70049524 16.4970667,9.04286259 L16.5001687,9.04699864 Z" id="Fill-76" fill="#FEFEFE"></path>
                        <path d="M10.898917,5.17048163 C8.4969034,5.17048163 6.4299102,6.58397823 5.47551565,8.62201905 L9.73461769,8.62201905 C10.3426177,8.60857687 10.6093932,8.25494422 10.6218014,7.96335238 C10.6362776,7.62109388 10.5814748,7.51252245 10.3002231,7.14648163 C9.98898503,6.73908027 10.2030259,5.94599184 10.898917,5.93358367 C11.5948082,5.94599184 11.806781,6.73908027 11.4965769,7.14648163 C11.2153252,7.51252245 11.1574204,7.62109388 11.1770667,7.96335238 C11.1863728,8.25494422 11.4552163,8.60857687 12.0611483,8.62201905 L16.3202503,8.62201905 C15.3648218,6.58397823 13.2978286,5.17048163 10.898917,5.17048163" id="Fill-78" fill="#FEFEFE"></path>
                        <path d="M15.9043701,9.92756463 L12.861268,10.2077823 C12.6451592,10.2243265 12.627581,10.3173878 12.6772136,10.4445714 L14.8083156,14.5092789 C15.5817578,13.6086531 16.049132,12.4329796 16.049132,11.1539048 C16.049132,10.7309932 15.9984653,10.3204898 15.9043701,9.92756463" id="Fill-80" fill="#00ADEE"></path>
                        <path d="M12.328751,6.20253061 C12.630683,6.70816327 12.3866558,7.36682993 12.0992,7.67910204 C12.0474993,7.73287075 12.0733497,7.7897415 12.1219483,7.8052517 L14.8145197,7.8052517 C14.1692952,7.05145578 13.3100299,6.48378231 12.328751,6.20253061" id="Fill-82" fill="#00ADEE"></path>
                        <path d="M10.898917,17.1333986 C12.113883,17.1333986 13.2430259,16.7735619 14.1881143,16.1531537 L14.1881143,16.1562558 L11.2701279,11.7978884 C11.0664272,11.5156027 10.7407129,11.4897524 10.5256381,11.7978884 L7.6076517,16.1562558 L7.6076517,16.1531537 C8.55170612,16.7735619 9.68188299,17.1333986 10.898917,17.1333986" id="Fill-84" fill="#FEFEFE"></path>
                        <path d="M33.7169088,22.270068 C37.9005279,19.9559456 40.4359293,16.2769252 41.7439565,12.238068 C43.0974803,8.04721088 42.8741333,3.09014966 41.3045007,0.000517006803 C38.9138612,1.20514286 36.5108136,1.8090068 33.7169088,1.81727891 C30.9230041,1.82451701 28.5209905,1.20514286 26.132419,0.000517006803 C24.5617524,3.09014966 24.3373714,8.04721088 25.6929633,12.238068 C26.9989224,16.2769252 29.5343238,19.9559456 33.7169088,22.270068" id="Fill-86" fill="#00ADEE"></path>
                        <path d="M33.7138068,20.3979864 C37.1591401,18.2648163 38.9903782,15.2103401 40.1681197,11.7608707 C41.2062694,8.70019048 41.4637388,5.11216327 40.3159837,2.31515646 C38.595385,2.90661224 37.5872218,3.08859864 36.6524735,3.23439456 C35.779766,3.37191837 35.0001197,3.45463946 33.7241469,3.47118367 L33.7138068,3.47118367 C32.435766,3.45463946 31.6571537,3.37191837 30.7834122,3.23439456 C29.8465959,3.08859864 28.8363646,2.90661224 27.119902,2.31515646 C25.9721469,5.11216327 26.2285823,8.70019048 27.270868,11.7608707 C28.4455075,15.2103401 30.2777796,18.2648163 33.7210449,20.3979864 L33.7138068,20.3979864 Z" id="Fill-88" fill="#FEFEFE"></path>
                        <path d="M33.7169088,19.5507156 C36.0465415,18.0844844 38.6843102,14.7621986 39.7421061,10.3883211 C40.2984054,8.06696054 40.4566095,5.46124626 39.7276299,3.39321905 C38.6843102,3.67343673 37.7092354,3.90298776 36.7052082,4.03637551 C35.6960109,4.17389932 34.7002558,4.27006259 33.7210449,4.27833469 L33.7158748,4.27833469 C32.7335619,4.27006259 31.7388408,4.17389932 30.7317116,4.03637551 C29.7256163,3.90298776 28.7526095,3.67343673 27.7103238,3.39321905 C26.9813442,5.46124626 27.1385143,8.06696054 27.6979156,10.3883211 C28.7505415,14.7621986 31.3903782,18.0844844 33.7210449,19.5507156 L33.7169088,19.5507156 Z" id="Fill-90" fill="#00ADEE"></path>
                        <path d="M31.339815,5.82987211 C30.5529306,6.2393415 30.278917,7.20200816 30.6325497,7.97855238 C30.9406857,8.65169524 31.5455837,9.09838912 32.2466449,9.30519184 C32.6013116,9.40962721 32.9549442,9.43754558 33.322019,9.45719184 C33.7676789,9.47787211 34.1719782,9.48924626 34.5990259,9.59988571 C34.688985,9.62470204 34.7923864,9.67847075 34.839951,9.7663619 C34.9557605,9.98143673 34.8523592,10.2182259 34.6248762,10.2802667 C34.6207401,10.6587156 34.5855837,11.4094095 34.5855837,11.4094095 C34.5855837,11.4094095 36.4126857,11.2367293 36.1024816,9.59574966 C36.0290667,9.20179048 35.7198966,8.79749116 35.3662639,8.61550476 C34.4511619,8.1470966 33.4429986,8.34976327 32.5072163,8.04472925 C32.1897741,7.94442993 31.7503184,7.78829388 31.6634612,7.4325932 C31.6283048,7.28989932 31.6603592,7.00657959 31.8051211,6.95901497 C32.0439782,6.88456599 32.3066177,7.0830966 32.6509442,7.16064762 C32.8680871,7.21028027 33.0831619,7.21028027 33.2537741,7.15754558 C33.3292571,7.13789932 33.4398966,7.10687891 33.4481687,7.06241633 C33.4398966,7.02622585 33.3520054,6.99106939 33.3106449,6.96728707 C33.2041415,6.91455238 33.0945361,6.88766803 32.9818286,6.84423946 C32.7915701,6.7718585 32.6033796,6.68396735 32.410019,6.57539592 C32.5899374,6.53920544 32.8929034,6.52989932 33.0748898,6.55057959 C33.2155156,6.56919184 33.6580735,6.56298776 33.7904272,6.52783129 C33.8193796,6.51955918 33.8855565,6.49577687 33.8555701,6.44407619 C33.8059374,6.35928707 33.7180463,6.32723265 33.6580735,6.24347755 C33.5308898,6.06769524 33.4181823,5.89087891 33.2093116,5.80815782 C32.6075156,5.5786068 31.9395429,5.51656599 31.339815,5.82987211" id="Fill-92" fill="#FEFEFE"></path>
                        <path d="M34.3873633,11.6926259 L34.4018395,9.77659864 C34.4018395,9.77659864 34.1516082,9.72386395 33.8072816,9.70111565 C33.3616218,9.67319728 33.154819,9.68043537 33.154819,9.68043537 L33.154819,9.84070748 C33.154819,9.84070748 32.9407782,9.92963265 32.9045878,9.99063946 C32.8921796,10.0195918 32.8322068,10.0899048 32.8611592,10.1602177 C33.0348735,10.6348299 33.2809687,11.096 33.3523156,11.6016327 C33.686302,11.6481633 33.9789279,11.6357551 34.3873633,11.6926259" id="Fill-94" fill="#FEFEFE"></path>
                        <path d="M32.0951619,11.4038259 C32.0165769,12.1565878 32.5066993,12.5598531 33.0464544,12.6870367 C33.4797061,12.7904381 33.8933116,12.8121524 34.3431075,12.861785 C34.4010122,12.8710912 34.5199238,12.8741932 34.608849,12.9145197 C34.688468,12.9455401 34.7277605,12.9951728 34.7412027,13.0448054 C34.763951,13.1140844 34.7525769,13.1678531 34.7091483,13.2226558 C34.6615837,13.2836626 34.532332,13.317785 34.532332,13.317785 L34.5085497,14.2215129 C34.5085497,14.2215129 34.8694204,14.2080707 35.1672163,14.0281524 C35.4464,13.8616762 35.6190803,13.6476354 35.6821551,13.3777578 C35.751434,13.0665197 35.7038694,12.7625197 35.4815565,12.4595537 C35.3367946,12.2589551 35.0824272,12.1131592 34.8218558,12.0232 C34.2893388,11.8370776 33.7133932,11.8660299 33.1601959,11.7864109 C33.0774748,11.7760707 32.9968218,11.7109279 32.9885497,11.6323429 C32.9761415,11.492751 33.1084952,11.4276082 33.1084952,11.4276082 L32.9720054,11.0015946 C32.9089306,10.8444245 32.8179374,10.6221116 32.7569306,10.5073361 C32.3805497,10.6696762 32.1385905,11.0150367 32.0951619,11.4038259" id="Fill-96" fill="#FEFEFE"></path>
                        <path d="M34.3429007,13.075102 L34.3263565,14.6974694 L33.9199891,14.5103129 L33.5187918,14.3438367 L33.5115537,12.9892789 C33.8713905,13.0347755 34.0357986,13.0368435 34.3429007,13.075102" id="Fill-98" fill="#FEFEFE"></path>
                        <path d="M32.5273796,13.9676626 C32.3009306,14.4939755 32.5821823,15.0099483 33.0226721,15.2239891 C33.2542912,15.3387646 33.5582912,15.442166 33.8074884,15.5383293 C34.0535837,15.6344925 34.4826993,15.8992 34.5137197,16.0263837 C34.533366,16.1060027 34.4423728,16.1814857 34.4423728,16.1814857 L34.4309986,16.8153361 C34.4309986,16.8153361 34.6988082,16.7574313 34.8911347,16.6002612 C35.0751891,16.4461932 35.2096109,16.2507646 35.2075664,15.9333224 C35.2075664,15.5879619 35.0452027,15.3170503 34.5530122,15.0285605 C34.1693932,14.8031456 33.7051211,14.6252952 33.3411483,14.4639891 C33.2904816,14.4422748 33.244985,14.3378395 33.2646313,14.2768327 C33.2832435,14.2096218 33.3277061,14.1837714 33.3277061,14.1837714 L33.321502,13.4506558 C33.321502,13.4506558 33.0402503,13.5064925 32.9099646,13.5850776 C32.787951,13.6553905 32.6038966,13.7774041 32.5273796,13.9676626" id="Fill-100" fill="#FEFEFE"></path>
                        <path d="M34.2752762,16.1255456 C34.2804463,16.0738449 34.259766,16.0655728 34.2349497,16.0314503 C34.1253442,15.9166748 33.9702422,15.8401578 33.9340517,15.8163755 C33.8213442,15.7512327 33.5700789,15.6581714 33.5700789,15.6581714 C33.5700789,15.6581714 33.5897252,17.3198313 33.6166095,18.1759946 C33.6269497,18.3703891 33.7365551,18.4231238 33.9216435,18.4303619 C34.1501605,18.4458721 34.2184054,18.3011102 34.2194395,18.2173551 C34.2277116,17.9423075 34.2659701,16.7511238 34.2752762,16.1255456" id="Fill-102" fill="#FEFEFE"></path>
                        <path d="M34.4509551,5.44511565 C34.5326422,5.50508844 34.5326422,5.51129252 34.5595265,5.63227211 C34.6143293,5.89697959 34.5564245,6.31368707 34.6081252,6.49567347 C34.6360435,6.55357823 34.6949823,6.55357823 34.7404789,6.52772789 C35.1085878,6.32816327 35.357785,5.98590476 35.7300299,5.82873469 C35.9037442,5.75531973 36.3876626,5.99934694 36.2739211,6.36331973 C36.2222204,6.53496599 36.1457034,6.55978231 36.041268,6.67145578 C35.8220571,6.89480272 35.5180571,7.10780952 35.2492136,7.40146939 C35.0692952,7.59689796 34.8500844,7.74165986 34.7094585,7.96397279 C34.6670639,8.03842177 34.592615,8.13355102 34.592615,8.13355102 C34.0756082,8.02911565 33.5544653,8.04462585 33.154302,7.96397279 L33.154302,7.36527891 C33.154302,7.36527891 33.5637714,7.29703401 33.6402884,7.09540136 C33.6475265,7.07678912 33.6371864,7.0075102 33.5751456,6.96614966 C33.5048327,6.91444898 33.3848871,6.85861224 33.3455946,6.84517007 C33.7592,6.91031293 34.0146014,6.97752381 34.4157986,7.15330612 C34.439581,7.10780952 34.4240707,7.01061224 34.3940844,6.97752381 C34.3392816,6.91548299 34.3103293,6.89480272 34.1707374,6.8627483 C33.9267102,6.79657143 33.2659755,6.71798639 33.2659755,6.71798639 C33.2659755,6.71798639 33.5699755,6.71695238 33.8274449,6.67455782 C33.9504925,6.65387755 34.0538939,6.63009524 34.0828463,6.58666667 C34.1138667,6.5204898 34.0569959,6.43053061 33.9701388,6.33436735 C33.909132,6.27232653 33.8470912,6.20821769 33.7984925,6.1410068 C33.7374857,6.06035374 33.6392544,5.90938776 33.530683,5.81219048 C33.4386558,5.72946939 33.2039347,5.60952381 33.2039347,5.60952381 C33.2039347,5.60952381 33.1646422,5.29104762 33.228751,5.15869388 C33.2742476,5.06563265 33.4014313,5.0087619 33.4665741,5.04288435 C33.7633361,5.20832653 34.0569959,5.37687075 34.4509551,5.44511565" id="Fill-104" fill="#FEFEFE"></path>
                        <path d="M33.1493388,6.06417959 C33.0748898,6.11898231 33.0190531,6.17275102 32.9342639,6.1861932 C32.7646857,6.21514558 32.787434,6.06728163 32.6736925,5.98249252 C32.6013116,5.93389388 32.5341007,6.00007075 32.4710259,5.88115918 C32.7171211,5.88943129 33.0397333,5.86771701 33.2217197,6.05177143 C33.2010395,6.04246531 33.1607129,6.0569415 33.1493388,6.06417959" id="Fill-106" fill="#00ADEE"></path>
                        <path d="M10.8141279,12.7822694 C10.8627265,12.7191946 10.9247673,12.7150585 10.9847401,12.7822694 L12.9948626,15.8615619 C12.3537741,16.1459156 11.6454748,16.3051537 10.898917,16.3051537 C10.1492571,16.3051537 9.44095782,16.1459156 8.80193741,15.8615619 L10.8141279,12.7822694 C10.8699646,12.7150585 10.9371755,12.7191946 10.9847401,12.7822694" id="Fill-108" fill="#00ADEE"></path>
                        <path d="M33.1696054,16.7405769 C33.0682721,16.8439782 32.9017959,17.054917 32.8738776,17.3930395 C32.8490612,17.6960054 32.9193741,17.7818286 32.9958912,17.9452027 C33.057932,18.0796245 33.2026939,18.0734204 33.2543946,17.9462367 C33.2988571,17.8438694 33.2357823,17.7518422 33.2750748,17.5264272 C33.3050612,17.3630531 33.4322449,17.279298 33.4322449,17.279298 L33.4177687,16.5389442 C33.4177687,16.5389442 33.3050612,16.599951 33.1696054,16.7405769" id="Fill-110" fill="#FEFEFE"></path>
                        <path d="M9.46598095,6.20253061 C9.16301497,6.70816327 9.40807619,7.36682993 9.69656599,7.67910204 C9.75033469,7.73287075 9.72345034,7.7897415 9.67691973,7.8052517 L6.98228027,7.8052517 C7.62853878,7.05145578 8.48780408,6.48378231 9.46598095,6.20253061" id="Fill-112" fill="#00ADEE"></path>
                        <path d="M38.3275755,20.5958966 L38.3275755,20.9857197 L38.5209361,20.9857197 C38.7215347,20.9857197 38.8166639,20.9371211 38.8166639,20.7995973 C38.8166639,20.6548354 38.7215347,20.5958966 38.514732,20.5958966 L38.3275755,20.5958966 Z M39.047249,20.776849 C39.047249,20.9433252 38.9521197,21.0622367 38.7742694,21.0932571 L39.0400109,21.6350803 L38.7908136,21.6350803 L38.5529905,21.1335837 L38.3275755,21.1335837 L38.3275755,21.6350803 L38.1052626,21.6350803 L38.1052626,20.4521687 L38.5560925,20.4521687 C38.8828408,20.4521687 39.047249,20.5617741 39.047249,20.776849 L39.047249,20.776849 Z M39.1733986,20.4242503 C39.0007184,20.2464 38.7742694,20.1574748 38.5292082,20.1574748 C38.2831129,20.1574748 38.058732,20.245366 37.8943238,20.4118422 C37.7175075,20.5948626 37.6182422,20.8254476 37.6182422,21.0632707 C37.6182422,21.3021279 37.7123374,21.5265088 37.8870857,21.6991891 C38.057698,21.8729034 38.287249,21.9680327 38.5209361,21.9680327 C38.7670313,21.9680327 38.9893442,21.8749714 39.1671946,21.7033252 C39.3388408,21.536849 39.4350041,21.3145361 39.4350041,21.0715429 C39.4350041,20.8202776 39.3398748,20.5948626 39.1733986,20.4242503 L39.1733986,20.4242503 Z M39.2695619,20.3270531 C39.4629224,20.5245497 39.5714939,20.7861551 39.5714939,21.0632707 C39.5714939,21.3496925 39.4660245,21.6061279 39.2685279,21.7953524 C39.0617252,21.996985 38.7959837,22.1096925 38.5281741,22.1096925 C38.2448544,22.1096925 37.987385,21.996985 37.7878204,21.7953524 C37.5882558,21.5968218 37.4838204,21.3393524 37.4838204,21.0632707 C37.4838204,20.7882231 37.5954939,20.5193796 37.7971265,20.3156789 C37.9915211,20.1202503 38.2427864,20.017883 38.5281741,20.017883 C38.8094259,20.017883 39.0699973,20.1264544 39.2695619,20.3270531 L39.2695619,20.3270531 Z" id="Fill-114" fill="#00ADEE"></path>
                        <path d="M17.3513687,20.5958966 L17.3513687,20.9857197 L17.5385252,20.9857197 C17.7453279,20.9857197 17.8394231,20.9371211 17.8394231,20.7995973 C17.8394231,20.6548354 17.7453279,20.5958966 17.5364571,20.5958966 L17.3513687,20.5958966 Z M18.0679401,20.776849 C18.0679401,20.9433252 17.9676408,21.0622367 17.7980626,21.0932571 L18.0617361,21.6350803 L17.8115048,21.6350803 L17.5705796,21.1335837 L17.3513687,21.1335837 L17.3513687,21.6350803 L17.1259537,21.6350803 L17.1259537,20.4521687 L17.5747156,20.4521687 C17.903532,20.4521687 18.0679401,20.5617741 18.0679401,20.776849 L18.0679401,20.776849 Z M18.1961578,20.4242503 C18.0203755,20.2464 17.7980626,20.1574748 17.5488653,20.1574748 C17.3058721,20.1574748 17.0794231,20.245366 16.916049,20.4118422 C16.7371646,20.5948626 16.6410014,20.8254476 16.6410014,21.0632707 C16.6410014,21.3021279 16.7361306,21.5265088 16.9067429,21.6991891 C17.0763211,21.8729034 17.3079401,21.9680327 17.5385252,21.9680327 C17.7877224,21.9680327 18.0110694,21.8749714 18.1878857,21.7033252 C18.359532,21.536849 18.4536272,21.3145361 18.4536272,21.0715429 C18.4536272,20.8202776 18.363668,20.5948626 18.1961578,20.4242503 L18.1961578,20.4242503 Z M18.2923211,20.3270531 C18.4825796,20.5245497 18.592185,20.7861551 18.592185,21.0632707 C18.592185,21.3496925 18.4877497,21.6061279 18.289219,21.7953524 C18.0824163,21.996985 17.8187429,22.1096925 17.5447293,22.1096925 C17.2676136,22.1096925 17.0101442,21.996985 16.8085116,21.7953524 C16.609981,21.5968218 16.5014095,21.3393524 16.5014095,21.0632707 C16.5014095,20.7882231 16.615151,20.5193796 16.8178177,20.3156789 C17.0111782,20.1202503 17.2645116,20.017883 17.5447293,20.017883 C17.830117,20.017883 18.0927565,20.1264544 18.2923211,20.3270531 L18.2923211,20.3270531 Z" id="Fill-116" fill="#00ADEE"></path>
                    </g>
                </g>
            </g>
        </g>
    </g>
</svg>