<?xml version="1.0" encoding="UTF-8"?>
<svg width="152px" height="23px" viewBox="0 0 152 23" version="1.1" xmlns="http://www.w3.org/2000/svg" xmlns:xlink="http://www.w3.org/1999/xlink">
    <!-- Generator: Sketch 61.2 (89653) - https://sketch.com -->
    <title>Group 2</title>
    <desc>Created with Sketch.</desc>
    <defs>
        <polygon id="path-1" points="0.122944218 0.559091156 5.93834014 0.559091156 5.93834014 7.82717279 0.122944218 7.82717279"></polygon>
    </defs>
    <g id="ID-Card" stroke="none" stroke-width="1" fill="none" fill-rule="evenodd">
        <g id="Group-2">
            <path d="M49.3292735,5.53652245 L49.3292735,8.21771973 L49.3509878,9.01494422 L50.1140898,9.01494422 C50.4666884,8.99426395 50.8430694,8.96220952 51.1615456,8.65407347 C51.5803211,8.22805986 51.5803211,7.50321633 51.5803211,7.25091701 C51.5803211,6.47333878 51.4045388,6.06283537 51.0922667,5.81880816 C50.8596136,5.63578776 50.4573823,5.52825034 49.8442122,5.53652245 L49.3292735,5.53652245 Z M49.3509878,2.49135238 L49.3385796,3.18827755 L49.3292735,5.2438966 L49.9962122,5.2438966 C50.4377361,5.2438966 50.7913687,5.10533878 50.9309605,4.92231837 C51.1036408,4.72068571 51.192566,4.38669932 51.192566,3.86245442 C51.192566,2.72297143 50.8430694,2.51306667 50.0654912,2.49135238 L49.3509878,2.49135238 Z M46.7680218,2.18942041 L50.7613823,2.18942041 C51.1615456,2.19976054 51.6072054,2.22147483 52.0197769,2.40346122 C52.789083,2.77570612 52.8087293,3.52950204 52.8087293,3.69184218 C52.8087293,4.09510748 52.6670694,4.46631837 52.3734095,4.75997823 C51.8977633,5.25527075 51.2742531,5.32454966 50.8213551,5.37625034 C51.3145796,5.3958966 52.108702,5.43725714 52.7249741,6.06283537 C52.9679673,6.29238639 53.2626612,6.70599184 53.2626612,7.35948844 C53.2626612,7.82686259 53.1096272,8.31181497 52.7249741,8.69233197 C52.1531646,9.26517551 51.424185,9.28585578 50.8006748,9.30550204 L46.7680218,9.30550204 L46.7680218,9.04699864 L47.7461986,9.04699864 L47.7658449,8.04710748 L47.7658449,3.28754286 L47.7461986,2.45205986 L46.7680218,2.45205986 L46.7680218,2.18942041 Z" id="Fill-1" fill="#FFFFFF"></path>
            <path d="M54.8729306,2.1891102 C55.3485769,2.18290612 55.4902367,2.18290612 55.9327946,2.14878367 L55.9131483,3.26862041 L55.9131483,8.23912381 L55.9327946,9.04668844 L56.6286857,9.04668844 L56.6286857,9.30519184 L53.684849,9.30519184 L53.684849,9.04668844 L54.4407129,9.04668844 L54.4603592,8.23912381 L54.4603592,3.26862041 L54.4407129,2.45174966 L53.684849,2.45174966 L53.684849,2.1891102 L54.8729306,2.1891102 Z" id="Fill-3" fill="#FFFFFF"></path>
            <path d="M57.7992925,4.42878367 C58.3214694,4.41947755 58.4817415,4.41947755 58.976,4.38638912 L58.9563537,5.32423946 L58.9563537,7.58149116 C58.9563537,7.96614422 58.976,8.25877007 59.0576871,8.46040272 C59.1859048,8.77164082 59.4599184,8.91330068 59.7939048,8.91330068 C60.0865306,8.91330068 60.3398639,8.80369524 60.5311565,8.62170884 C60.9230476,8.22774966 60.9116735,7.70557279 60.9116735,7.25887891 L60.9116735,5.46693333 L60.8920272,4.69038912 L60.1465034,4.69038912 L60.1465034,4.42878367 L61.0130068,4.42878367 C61.5961905,4.41947755 61.7699048,4.41947755 62.3530884,4.38638912 L62.3334422,5.32423946 L62.3334422,8.11917823 L62.3530884,9.03428027 L63.082068,9.03428027 L63.082068,9.30519184 L62.3127619,9.30519184 C61.6675374,9.30519184 61.4369524,9.31863401 60.950966,9.34758639 L60.9230476,8.57207619 C60.7090068,8.83368163 60.2168163,9.41583129 59.0783673,9.41583129 C58.3338776,9.41583129 57.8582313,9.13561361 57.6648707,8.75096054 C57.5149388,8.46867483 57.5242449,8.10470204 57.5242449,7.8048381 L57.5242449,5.4266068 L57.5045986,4.69038912 L56.768381,4.69038912 L56.768381,4.42878367 L57.7992925,4.42878367 Z" id="Fill-5" fill="#FFFFFF"></path>
            <path d="M66.8761741,6.28070204 C66.8844463,5.49588571 66.8937524,4.56940952 65.9869224,4.56940952 C65.1307592,4.56940952 65.0883646,5.4266068 65.0583782,6.28070204 L66.8761741,6.28070204 Z M68.3465415,7.89479728 C68.082868,8.38802177 67.5410449,9.41583129 66.0158748,9.41583129 C64.4514122,9.41583129 63.4959837,8.21740952 63.4959837,6.8173551 C63.4959837,5.47727347 64.4007456,4.28919184 66.028283,4.28919184 C67.0323102,4.28919184 67.5875755,4.72037551 67.8316027,4.97164082 C68.3848,5.54655238 68.4054803,6.15248435 68.4178884,6.58470204 L65.0490721,6.58470204 C65.0583782,7.44189932 65.0780245,8.21740952 65.5030041,8.66306939 C65.7335891,8.90399456 66.0696435,9.00429388 66.3994939,9.00429388 C67.4862422,9.00429388 67.8998476,8.09022585 68.0425415,7.76244354 L68.3465415,7.89479728 Z" id="Fill-7" fill="#FFFFFF"></path>
            <path d="M75.5047075,8.80421224 C74.7571156,9.0740898 73.8316735,9.40807619 72.6715102,9.40807619 C70.5952109,9.40807619 69.0524626,7.91599456 69.0524626,5.73732789 C69.0524626,3.39011701 70.829932,2.02832109 72.8328163,2.02832109 C73.4490884,2.02832109 74.3972789,2.16894694 75.4633469,2.63218503 L75.4633469,4.63817143 L75.1521088,4.63817143 C75.1024762,4.25662041 75.0197551,3.62897415 74.406585,3.0168381 C73.9309388,2.54429388 73.3891156,2.37161361 72.9145034,2.37161361 C72.3809524,2.37161361 71.8453333,2.59289252 71.4927347,2.94549116 C70.9891701,3.44905578 70.7668571,4.25662041 70.7668571,5.72802177 C70.7668571,7.14772245 70.9405714,8.02870204 71.4637823,8.56328707 C71.7543401,8.86418503 72.2175782,9.10614422 72.7728435,9.10614422 C73.3053605,9.10614422 73.9402449,8.89417143 74.4562177,8.34924626 C75.0621497,7.72366803 75.1303946,7.19011701 75.1707211,6.80649796 L75.5047075,6.80649796 L75.5047075,8.80421224 Z" id="Fill-9" fill="#FFFFFF"></path>
            <path d="M78.5037605,9.04648163 L79.2513524,9.04648163 L79.2513524,9.30498503 L76.2930395,9.30498503 L76.2930395,9.04648163 L77.0313252,9.04648163 L77.0509714,8.22754286 L77.0509714,5.5784 L77.0313252,4.69018231 L76.2930395,4.69018231 L76.2930395,4.42857687 L77.4232163,4.42857687 C77.8885224,4.41927075 78.0405224,4.41927075 78.461366,4.38618231 L78.4820463,5.15342041 L78.4820463,5.37573333 C78.5533932,5.15342041 78.6247401,4.96109388 78.843951,4.74188299 C79.0786721,4.4988898 79.4074884,4.33861769 79.7714612,4.33861769 C80.4187537,4.33861769 80.6906993,4.85045442 80.6906993,5.30438639 C80.6906993,5.91962449 80.287434,6.02095782 80.0651211,6.02095782 C79.9637878,6.02095782 79.4374748,5.96822313 79.4374748,5.35505306 C79.4374748,5.30438639 79.4726313,5.05208707 79.4726313,5.00038639 C79.4726313,4.79151565 79.3175293,4.79151565 79.2906449,4.79151565 C79.1572571,4.79151565 78.9773388,4.95178776 78.843951,5.15342041 C78.5109986,5.68697143 78.4913524,6.47385578 78.4820463,7.02705306 L78.4820463,8.22754286 L78.5037605,9.04648163 Z" id="Fill-11" fill="#FFFFFF"></path>
            <path d="M82.4641361,6.64529524 C82.4641361,8.22733605 82.5644354,9.1352 83.5322721,9.1352 C84.510449,9.1352 84.5807619,8.21802993 84.5807619,6.88725442 C84.5807619,5.66711837 84.5207891,4.54831565 83.521932,4.55865578 C82.5861497,4.55865578 82.4641361,5.51615238 82.4641361,6.64529524 M86.1245442,6.88725442 C86.1245442,8.47963537 84.8537415,9.4164517 83.4929796,9.4164517 C82.0081361,9.4164517 80.9327619,8.34831565 80.9327619,6.84589388 C80.9327619,5.26281905 82.079483,4.3166966 83.4722993,4.29601633 C85.1060408,4.26706395 86.1245442,5.4261932 86.1245442,6.88725442" id="Fill-13" fill="#FFFFFF"></path>
            <path d="M87.1413932,7.45110204 C87.1827537,7.74372789 87.2137741,7.98568707 87.3740463,8.28865306 C87.5343184,8.61126531 87.9458558,9.11586395 88.6624272,9.11586395 C89.2600871,9.11586395 89.6530122,8.78291156 89.6530122,8.37964626 C89.6530122,7.92261224 89.2094204,7.74372789 88.5631619,7.51314286 C87.6677061,7.18019048 86.9097741,6.91031293 86.9097741,5.83597279 C86.9097741,4.56930612 88.0213388,4.2787483 88.7151619,4.2787483 C89.2704272,4.2787483 89.7243592,4.43695238 90.1969034,4.59929252 L90.2165497,5.91042177 L89.9115156,5.91042177 C89.8753252,5.70878912 89.8329306,5.52887075 89.7636517,5.3654966 C89.633366,5.09251701 89.2466449,4.60859864 88.6045224,4.60859864 C88.0606313,4.60859864 87.8166041,4.97257143 87.8166041,5.22590476 C87.8166041,5.53610884 88.0802776,5.66639456 88.191951,5.71809524 C88.3501551,5.78944218 89.1473796,6.08206803 89.328332,6.15238095 C89.9435701,6.40364626 90.5784544,6.74487075 90.5784544,7.67548299 C90.5784544,8.73121088 89.7522776,9.42813605 88.5424816,9.42813605 C87.8786449,9.42813605 87.3740463,9.24718367 86.8487673,9.05485714 L86.8280871,7.45110204 L87.1413932,7.45110204 Z" id="Fill-15" fill="#FFFFFF"></path>
            <path d="M91.7581605,7.45110204 C91.7974531,7.74372789 91.8295075,7.98568707 91.9918476,8.28865306 C92.1521197,8.61126531 92.5646912,9.11586395 93.2822966,9.11586395 C93.8758204,9.11586395 94.2708136,8.78291156 94.2708136,8.37964626 C94.2708136,7.92261224 93.8230857,7.74372789 93.1778612,7.51314286 C92.2875755,7.18019048 91.5275755,6.91031293 91.5275755,5.83597279 C91.5275755,4.56930612 92.6360381,4.2787483 93.3329633,4.2787483 C93.8851265,4.2787483 94.3390585,4.43695238 94.8116027,4.59929252 L94.833317,5.91042177 L94.532419,5.91042177 C94.4931265,5.70878912 94.450732,5.52887075 94.379385,5.3654966 C94.2470313,5.09251701 93.8665143,4.60859864 93.2202558,4.60859864 C92.6773986,4.60859864 92.4364735,4.97257143 92.4364735,5.22590476 C92.4364735,5.53610884 92.6949769,5.66639456 92.8056163,5.71809524 C92.9700245,5.78944218 93.7631129,6.08206803 93.9450993,6.15238095 C94.5603374,6.40364626 95.1952218,6.74487075 95.1952218,7.67548299 C95.1952218,8.73121088 94.3700789,9.42813605 93.159249,9.42813605 C92.4943782,9.42813605 91.9918476,9.24718367 91.4665687,9.05485714 L91.4479565,7.45110204 L91.7581605,7.45110204 Z" id="Fill-17" fill="#FFFFFF"></path>
            <path d="M101.246063,5.53652245 L101.246063,8.21771973 L101.265709,9.01494422 L102.032947,9.01494422 C102.387614,8.99426395 102.759859,8.96220952 103.080403,8.65407347 C103.494008,8.22805986 103.494008,7.50321633 103.494008,7.25091701 C103.494008,6.47333878 103.322362,6.06283537 103.009056,5.81880816 C102.778471,5.63578776 102.376239,5.52825034 101.762035,5.53652245 L101.246063,5.53652245 Z M101.265709,2.49135238 L101.255369,3.18827755 L101.246063,5.2438966 L101.913001,5.2438966 C102.354525,5.2438966 102.707124,5.10533878 102.849818,4.92231837 C103.021464,4.72068571 103.111423,4.38669932 103.111423,3.86245442 C103.111423,2.72297143 102.759859,2.51306667 101.983314,2.49135238 L101.265709,2.49135238 Z M98.6848109,2.18942041 L102.677137,2.18942041 C103.080403,2.19976054 103.523995,2.22147483 103.938634,2.40346122 C104.704838,2.77570612 104.722416,3.52950204 104.722416,3.69184218 C104.722416,4.09510748 104.584893,4.46631837 104.290199,4.75997823 C103.81662,5.25527075 103.192076,5.32454966 102.73711,5.37625034 C103.229301,5.3958966 104.028593,5.43725714 104.642797,6.06283537 C104.88579,6.29238639 105.17945,6.70599184 105.17945,7.35948844 C105.17945,7.82686259 105.024348,8.31181497 104.642797,8.69233197 C104.06892,9.26517551 103.342008,9.28585578 102.71643,9.30550204 L98.6848109,9.30550204 L98.6848109,9.04699864 L99.6629878,9.04699864 L99.683668,8.04710748 L99.683668,3.28754286 L99.6629878,2.45205986 L98.6848109,2.45205986 L98.6848109,2.18942041 Z" id="Fill-19" fill="#FFFFFF"></path>
            <path d="M107.042122,2.1891102 C107.518803,2.18290612 107.659429,2.18290612 108.101986,2.14878367 L108.08234,3.26862041 L108.08234,8.23912381 L108.101986,9.04668844 L108.796844,9.04668844 L108.796844,9.30519184 L105.855075,9.30519184 L105.855075,9.04668844 L106.609905,9.04668844 L106.631619,8.23912381 L106.631619,3.26862041 L106.609905,2.45174966 L105.855075,2.45174966 L105.855075,2.1891102 L107.042122,2.1891102 Z" id="Fill-21" fill="#FFFFFF"></path>
            <path d="M109.969518,4.42878367 C110.490661,4.41947755 110.653001,4.41947755 111.145192,4.38638912 L111.12658,5.32423946 L111.12658,7.58149116 C111.12658,7.96614422 111.145192,8.25877007 111.224811,8.46040272 C111.357165,8.77164082 111.630144,8.91330068 111.964131,8.91330068 C112.255722,8.91330068 112.50492,8.80369524 112.69828,8.62170884 C113.093273,8.22774966 113.082933,7.70557279 113.082933,7.25887891 L113.082933,5.46693333 L113.060185,4.69038912 L112.314661,4.69038912 L112.314661,4.42878367 L113.182199,4.42878367 C113.76745,4.41947755 113.939097,4.41947755 114.524348,4.38638912 L114.502634,5.32423946 L114.502634,8.11917823 L114.524348,9.03428027 L115.248158,9.03428027 L115.248158,9.30519184 L114.479886,9.30519184 C113.836729,9.30519184 113.60511,9.31863401 113.124294,9.34758639 L113.093273,8.57207619 C112.879233,8.83368163 112.387042,9.41583129 111.247559,9.41583129 C110.499967,9.41583129 110.029491,9.13561361 109.837165,8.75096054 C109.684131,8.46867483 109.692403,8.10470204 109.692403,7.8048381 L109.692403,5.4266068 L109.674824,4.69038912 L108.937573,4.69038912 L108.937573,4.42878367 L109.969518,4.42878367 Z" id="Fill-23" fill="#FFFFFF"></path>
            <path d="M119.292805,6.28070204 C119.303146,5.49588571 119.315554,4.56940952 118.40769,4.56940952 C117.548424,4.56940952 117.509132,5.4266068 117.479146,6.28070204 L119.292805,6.28070204 Z M120.767309,7.89479728 C120.505703,8.38802177 119.960778,9.41583129 118.437676,9.41583129 C116.874248,9.41583129 115.916751,8.21740952 115.916751,6.8173551 C115.916751,5.47727347 116.824615,4.28919184 118.445948,4.28919184 C119.457214,4.28919184 120.011445,4.72037551 120.253404,4.97164082 C120.806601,5.54655238 120.825214,6.15248435 120.837622,6.58470204 L117.471907,6.58470204 C117.479146,7.44189932 117.50086,8.21740952 117.922737,8.66306939 C118.15539,8.90399456 118.487309,9.00429388 118.820261,9.00429388 C119.910112,9.00429388 120.320615,8.09022585 120.465377,7.76244354 L120.767309,7.89479728 Z" id="Fill-25" fill="#FFFFFF"></path>
            <path d="M121.766786,6.87753469 C121.819521,7.17016054 121.870188,7.43176599 122.041834,7.78333061 C122.644664,9.03448707 123.74382,9.06447347 123.967167,9.06447347 C124.76129,9.06447347 125.436501,8.59089524 125.436501,7.85467755 C125.436501,7.1215619 124.882269,6.87753469 123.360201,6.25299048 C123.118242,6.15269116 122.886623,6.06273197 122.665344,5.93968435 C122.398569,5.80009252 121.533099,5.29652789 121.533099,4.13533061 C121.533099,2.88624218 122.535059,2.04869116 123.934079,2.04869116 C124.811956,2.04869116 125.498541,2.34131701 125.857344,2.49124898 L125.960746,4.18496327 L125.637099,4.18496327 C125.498541,3.66071837 125.41582,3.37119456 125.063222,3.0175619 C124.711657,2.65669116 124.247385,2.40335782 123.74382,2.40335782 C122.976582,2.40335782 122.574351,2.91416054 122.574351,3.4425415 C122.574351,4.08569796 123.159603,4.35557551 123.41914,4.47758912 C123.763467,4.63786122 124.104691,4.75987483 124.447984,4.90256871 C125.324827,5.25516735 126.42295,5.77941224 126.42295,7.15982041 C126.42295,8.46060952 125.406514,9.4160381 123.70246,9.4160381 C122.834922,9.4160381 122.169018,9.17614694 121.514487,8.94245986 L121.45348,6.87753469 L121.766786,6.87753469 Z" id="Fill-27" fill="#FFFFFF"></path>
            <path d="M128.109219,2.1891102 C128.623124,2.1891102 128.744103,2.18290612 129.197001,2.14878367 L129.178389,3.24794014 L129.178389,5.16396735 C129.368648,4.86100136 129.55994,4.58078367 130.132784,4.4081034 C130.375777,4.32848435 130.617736,4.29539592 130.869001,4.29539592 C131.616593,4.29539592 131.980566,4.58698776 132.141872,4.7420898 C132.516185,5.11123265 132.546171,5.5558585 132.564784,5.93947755 L132.564784,8.33838912 L132.583396,9.04668844 L133.279287,9.04668844 L133.279287,9.30519184 L130.327178,9.30519184 L130.327178,9.04668844 L131.10062,9.04668844 L131.123369,8.33838912 L131.123369,5.91879728 C131.123369,5.52794014 131.123369,4.7420898 130.33545,4.7420898 C130.054199,4.7420898 129.782253,4.86100136 129.578552,5.06263401 C129.238362,5.40489252 129.205273,5.86089252 129.178389,6.44304218 L129.178389,8.33838912 L129.197001,9.04668844 L129.953899,9.04668844 L129.953899,9.30519184 L127.009029,9.30519184 L127.009029,9.04668844 L127.74628,9.04668844 L127.763859,8.33011701 L127.763859,3.24794014 L127.74628,2.45174966 L127.009029,2.45174966 L127.009029,2.1891102 L128.109219,2.1891102 Z" id="Fill-29" fill="#FFFFFF"></path>
            <path d="M134.42332,2.93535782 C134.42332,2.50107211 134.785224,2.13813333 135.228816,2.13813333 C135.66,2.13813333 136.014667,2.49073197 136.014667,2.93535782 C136.014667,3.3820517 135.66,3.73258231 135.228816,3.73258231 C135.017878,3.73258231 134.806939,3.65089524 134.666313,3.50096327 C134.515347,3.34896327 134.42332,3.14836463 134.42332,2.93535782 L134.42332,2.93535782 Z M134.725252,4.42847347 C135.309469,4.42020136 135.510068,4.42020136 136.005361,4.38607891 L135.985714,5.49660952 L135.985714,8.25845986 L136.005361,9.04637823 L136.702286,9.04637823 L136.702286,9.30488163 L133.755347,9.30488163 L133.755347,9.04637823 L134.515347,9.04637823 L134.530857,8.25845986 L134.530857,5.49660952 L134.515347,4.69007891 L133.755347,4.69007891 L133.755347,4.42847347 L134.725252,4.42847347 Z" id="Fill-31" fill="#FFFFFF"></path>
            <path d="M140.468887,6.28070204 C140.478193,5.49588571 140.489567,4.56940952 139.582737,4.56940952 C138.72554,4.56940952 138.685214,5.4266068 138.657295,6.28070204 L140.468887,6.28070204 Z M141.942356,7.89479728 C141.679717,8.38802177 141.135826,9.41583129 139.614792,9.41583129 C138.050329,9.41583129 137.091799,8.21740952 137.091799,6.8173551 C137.091799,5.47727347 138.000697,4.28919184 139.624098,4.28919184 C140.631227,4.28919184 141.184424,4.72037551 141.427418,4.97164082 C141.982683,5.54655238 142.001295,6.15248435 142.010601,6.58470204 L138.646955,6.58470204 C138.657295,7.44189932 138.673839,8.21740952 139.098819,8.66306939 C139.332506,8.90399456 139.664424,9.00429388 139.995309,9.00429388 C141.086193,9.00429388 141.497731,8.09022585 141.640424,7.76244354 L141.942356,7.89479728 Z" id="Fill-33" fill="#FFFFFF"></path>
            <path d="M143.516332,2.1891102 C143.98991,2.18290612 144.132604,2.18290612 144.575162,2.14878367 L144.555516,3.26862041 L144.555516,8.23912381 L144.575162,9.04668844 L145.271053,9.04668844 L145.271053,9.30519184 L142.327216,9.30519184 L142.327216,9.04668844 L143.084114,9.04668844 L143.100659,8.23912381 L143.100659,3.26862041 L143.084114,2.45174966 L142.327216,2.45174966 L142.327216,2.1891102 L143.516332,2.1891102 Z" id="Fill-35" fill="#FFFFFF"></path>
            <g id="Group-39" transform="translate(145.795091, 1.589486)">
                <mask id="mask-2" fill="white">
                    <use xlink:href="#path-1"></use>
                </mask>
                <g id="Clip-38"></g>
                <path d="M2.04310748,3.41090068 C1.75358367,3.71490068 1.70498503,4.3094585 1.70498503,5.25661497 C1.70498503,6.41781224 1.73186939,7.38358095 2.66041361,7.38358095 C2.91374694,7.38358095 3.20533878,7.30499592 3.43799184,7.06407075 C3.70786939,6.77971701 3.79059048,6.42711837 3.79059048,5.15528163 C3.79059048,4.24741769 3.79059048,3.14102313 2.72142041,3.15239728 C2.40811429,3.15239728 2.17752925,3.27130884 2.04310748,3.41090068 L2.04310748,3.41090068 Z M4.00359728,0.599417687 C4.58781497,0.599417687 4.76669932,0.593213605 5.22063129,0.559091156 L5.20098503,1.3759619 L5.20098503,6.7414585 L5.22063129,7.44458776 L5.93927075,7.44458776 L5.93927075,7.71549932 L4.99004626,7.71549932 C4.42444082,7.7289415 4.24452245,7.7289415 3.76784218,7.75789388 L3.76784218,7.09405714 C3.53725714,7.38358095 3.17535238,7.82717279 2.23750204,7.82717279 C0.726808163,7.82717279 0.122944218,6.45710476 0.122944218,5.34864218 C0.122944218,3.76556735 1.07113469,2.74913197 2.36675374,2.74913197 C2.99336599,2.74913197 3.32631837,2.9486966 3.55793741,3.17928163 C3.69959728,3.32197551 3.7316517,3.39332245 3.76784218,3.51637007 L3.76784218,1.51865578 L3.7471619,0.862057143 L3.00267211,0.862057143 L3.00267211,0.599417687 L4.00359728,0.599417687 Z" id="Fill-37" fill="#FFFFFF" mask="url(#mask-2)"></path>
            </g>
            <path d="M48.3113905,17.7397442 C48.3113905,19.3238531 48.4106558,20.228615 49.3764245,20.228615 C50.3577034,20.228615 50.4290503,19.3124789 50.4290503,17.9817034 C50.4290503,16.7646694 50.3670095,15.6458667 49.3681524,15.6530698 C48.4323701,15.6530698 48.3113905,16.6085333 48.3113905,17.7397442 M51.9686966,17.9817034 C51.9686966,19.5730503 50.7009959,20.5109007 49.338166,20.5109007 C47.8564245,20.5109007 46.7769143,19.4448327 46.7769143,17.9403429 C46.7769143,16.358302 47.9267374,15.4111456 49.3195537,15.3914993 C50.9532952,15.3625469 51.9686966,16.5216762 51.9686966,17.9817034" id="Fill-40" fill="#FFFFFF"></path>
            <path d="M55.4091701,13.9813116 C55.4091701,13.7062639 55.2995646,13.4549986 54.9645442,13.4549986 C54.5002721,13.4549986 54.5002721,13.9182367 54.5002721,14.3328762 L54.5002721,15.5199238 L55.325415,15.5199238 L55.325415,15.7846313 L54.5002721,15.7846313 L54.5002721,19.2020463 L54.5209524,20.1367946 L55.325415,20.1367946 L55.325415,20.400468 L52.3340136,20.400468 L52.3340136,20.1367946 L53.0681633,20.1367946 L53.0898776,19.2020463 L53.0898776,15.7846313 L52.3340136,15.7846313 L52.3340136,15.5199238 L53.0898776,15.5199238 L53.0898776,15.0690939 C53.1012517,14.5034884 53.1012517,13.7796789 53.8436735,13.404332 C54.2076463,13.2223456 54.6109116,13.1727129 55.0141769,13.1727129 C56.3987211,13.1727129 56.6706667,13.8810122 56.6706667,14.2915156 C56.6706667,14.4559238 56.6375782,14.925366 56.013034,14.925366 C55.3967619,14.925366 55.3967619,14.4559238 55.3967619,14.3525224 L55.4091701,13.9813116 Z" id="Fill-42" fill="#FFFFFF"></path>
            <polygon id="Fill-44" fill="#FFFFFF" points="58.8777687 13.2845932 61.7399184 13.2845932 65.3961905 17.9531646 65.3961905 14.4561306 65.3775782 13.5472327 64.3001361 13.5472327 64.3001361 13.2845932 66.6918095 13.2845932 66.6918095 13.5472327 65.7622313 13.5472327 65.741551 14.4561306 65.741551 20.5009741 65.4913197 20.5826612 60.1982041 13.8491646 60.189932 14.7353143 60.189932 19.2022531 60.2064762 20.1370014 61.3066667 20.1370014 61.3066667 20.4006748 58.8777687 20.4006748 58.8777687 20.1370014 59.8549116 20.1370014 59.8745578 19.2022531 59.8745578 14.4561306 59.8549116 13.5472327 58.8777687 13.5472327"></polygon>
            <path d="M68.0930014,17.7397442 C68.0930014,19.3238531 68.1943347,20.228615 69.1580354,20.228615 C70.1372463,20.228615 70.2085932,19.3124789 70.2085932,17.9817034 C70.2085932,16.7646694 70.1465524,15.6458667 69.1507973,15.6530698 C68.215015,15.6530698 68.0930014,16.6085333 68.0930014,17.7397442 M71.7513415,17.9817034 C71.7513415,19.5730503 70.4826068,20.5109007 69.1197769,20.5109007 C67.6370014,20.5109007 66.5605932,19.4448327 66.5605932,17.9403429 C66.5605932,16.358302 67.7083483,15.4111456 69.1021986,15.3914993 C70.7349061,15.3625469 71.7513415,16.5216762 71.7513415,17.9817034" id="Fill-46" fill="#FFFFFF"></path>
            <path d="M74.1223347,20.136898 L74.8668245,20.136898 L74.8668245,20.4005714 L71.9116136,20.4005714 L71.9116136,20.136898 L72.6498993,20.136898 L72.6705796,19.3241633 L72.6705796,16.6698503 L72.6498993,15.7847347 L71.9116136,15.7847347 L71.9116136,15.5200272 L73.0417905,15.5200272 C73.5081306,15.5127891 73.6549605,15.5127891 74.0809741,15.4807347 L74.1006204,16.2500408 L74.1006204,16.4692517 C74.1688653,16.2500408 74.2422803,16.0556463 74.4625252,15.8354014 C74.6941442,15.5924082 75.0260626,15.429034 75.3921034,15.429034 C76.0362939,15.429034 76.3051374,15.9460408 76.3051374,16.4020408 C76.3051374,17.0131429 75.9039401,17.1155102 75.6826612,17.1155102 C75.5823619,17.1155102 75.056049,17.0648435 75.056049,16.4506395 C75.056049,16.4020408 75.0891374,16.1466395 75.0891374,16.0970068 C75.0891374,15.884 74.9381714,15.884 74.908185,15.884 C74.7737633,15.884 74.5948789,16.0453061 74.4625252,16.2500408 C74.1326748,16.7804898 74.1109605,17.5694422 74.1006204,18.1236735 L74.1006204,19.3241633 L74.1223347,20.136898 Z" id="Fill-48" fill="#FFFFFF"></path>
            <path d="M77.2860027,14.1509932 L78.7377578,14.1509932 L78.7181116,15.197415 L78.7181116,15.5200272 L79.7221388,15.5200272 L79.7221388,15.7847347 L78.7181116,15.7847347 L78.7181116,18.8588571 C78.7294857,19.5123537 78.7377578,20.0696871 79.2413224,20.0696871 C79.5422204,20.0696871 79.7221388,19.9063129 79.9186014,19.7253605 L80.0995537,19.9280272 C79.8069279,20.1896327 79.4615673,20.4915646 78.6281524,20.4915646 C77.2953088,20.4915646 77.2953088,19.5950748 77.2953088,19.0822041 L77.305649,17.6387211 L77.305649,15.7847347 L76.5415129,15.7847347 L76.5415129,15.5200272 L77.305649,15.5200272 L77.305649,15.197415 L77.2860027,14.1509932 Z" id="Fill-50" fill="#FFFFFF"></path>
            <path d="M81.2150476,13.2845932 C81.7299864,13.2845932 81.853034,13.273219 82.304898,13.2432327 L82.2842177,14.3423891 L82.2842177,16.2573823 C82.4786122,15.9564844 82.6657687,15.6741986 83.2417143,15.5035864 C83.4836735,15.4208653 83.7266667,15.3919129 83.977932,15.3919129 C84.7255238,15.3919129 85.0894966,15.6845388 85.2497687,15.8355048 C85.6220136,16.2077497 85.653034,16.6534095 85.6737143,17.0339265 L85.6737143,19.4318041 L85.6923265,20.1370014 L86.3892517,20.1370014 L86.3892517,20.4006748 L83.4340408,20.4006748 L83.4340408,20.1370014 L84.209551,20.1370014 L84.2302313,19.4318041 L84.2302313,17.0122122 C84.2302313,16.6182531 84.2302313,15.8355048 83.444381,15.8355048 C83.1620952,15.8355048 82.8880816,15.9564844 82.689551,16.156049 C82.3462585,16.5024435 82.3152381,16.9543075 82.2842177,17.5374912 L82.2842177,19.4318041 L82.304898,20.1370014 L83.0607619,20.1370014 L83.0607619,20.4006748 L80.1189932,20.4006748 L80.1189932,20.1370014 L80.8521088,20.1370014 L80.8727891,19.423532 L80.8727891,14.3423891 L80.8521088,13.5472327 L80.1189932,13.5472327 L80.1189932,13.2845932 L81.2150476,13.2845932 Z" id="Fill-52" fill="#FFFFFF"></path>
            <path d="M95.3216816,19.8976272 C94.5782259,20.1695728 93.6517497,20.5004571 92.4915864,20.5004571 C90.4152871,20.5004571 88.8725388,19.0094095 88.8725388,16.8348789 C88.8725388,14.484566 90.6458721,13.1227701 92.6518585,13.1227701 C93.2681306,13.1227701 94.2152871,13.2654639 95.2834231,13.727668 L95.2834231,15.7326204 L94.969083,15.7326204 C94.9204844,15.3521034 94.8398313,14.7275592 94.2225252,14.1112871 C93.751015,13.6387429 93.2091918,13.4639946 92.7335456,13.4639946 C92.1979265,13.4639946 91.6654095,13.6873415 91.3128109,14.0399401 C90.8082122,14.5445388 90.5848653,15.3521034 90.5848653,16.8224707 C90.5848653,18.2452735 90.7585796,19.121083 91.2807565,19.655668 C91.5723483,19.958634 92.0366204,20.1995592 92.5898177,20.1995592 C93.1264707,20.1995592 93.7634231,19.9896544 94.2762939,19.4457633 C94.8801578,18.820185 94.9504707,18.2856 94.9897633,17.901981 L95.3216816,17.901981 L95.3216816,19.8976272 Z" id="Fill-54" fill="#FFFFFF"></path>
            <path d="M99.1992327,17.377219 C99.0389605,17.4371918 98.8869605,17.4981986 98.7215184,17.5488653 C97.9987429,17.8011646 97.4869061,17.9717769 97.4869061,19.0181986 C97.4869061,19.2405116 97.4869061,20.0273959 98.2313959,20.0273959 C99.1568381,20.0273959 99.1775184,18.9385796 99.1992327,18.1124027 L99.1992327,17.377219 Z M100.578607,19.352185 C100.578607,19.6065524 100.599287,20.1297633 101.113192,20.1297633 C101.194879,20.1297633 101.263124,20.1194231 101.336539,20.107015 L101.336539,20.4006748 C100.81126,20.4430694 100.510362,20.4627156 100.145355,20.4627156 C99.379151,20.4627156 99.2674776,20.0077497 99.1992327,19.6965116 C99.0668789,19.9281306 98.7215184,20.5009741 97.6575184,20.5009741 C96.7093279,20.5009741 96.0434231,19.9891374 96.0434231,18.9809741 C96.0434231,18.0234776 96.6669333,17.7887565 96.9585252,17.680185 C97.2914776,17.5695456 97.6368381,17.5178449 97.9677224,17.447532 C98.3823619,17.3565388 98.7876952,17.2262531 99.1888925,17.0938993 L99.1888925,16.5696544 C99.1775184,16.2180898 99.1568381,15.6741986 98.3823619,15.6741986 C98.0504435,15.6741986 97.8074503,15.774498 97.6771646,15.9037497 C97.5230966,16.0557497 97.5230966,16.1974095 97.5230966,16.4693551 C97.5230966,16.7123483 97.4527837,17.0122122 96.9316408,17.0122122 C96.7682667,17.0122122 96.3939537,16.995668 96.3939537,16.540702 C96.3939537,16.2853007 96.5376816,16.0454095 96.6989878,15.8841034 C96.9316408,15.6535184 97.3752327,15.3919129 98.5333279,15.3919129 C100.539314,15.3919129 100.558961,16.3194231 100.578607,17.0432327 L100.578607,19.352185 Z" id="Fill-56" fill="#FFFFFF"></path>
            <path d="M103.946182,20.136898 L104.693774,20.136898 L104.693774,20.4005714 L101.737529,20.4005714 L101.737529,20.136898 L102.474781,20.136898 L102.497529,19.3241633 L102.497529,16.6698503 L102.474781,15.7847347 L101.737529,15.7847347 L101.737529,15.5200272 L102.866672,15.5200272 C103.333012,15.5127891 103.482944,15.5127891 103.905856,15.4807347 L103.92757,16.2500408 L103.92757,16.4692517 C103.997883,16.2500408 104.067162,16.0556463 104.287407,15.8354014 C104.524196,15.5924082 104.856114,15.429034 105.216985,15.429034 C105.863244,15.429034 106.134155,15.9460408 106.134155,16.4020408 C106.134155,17.0131429 105.731924,17.1155102 105.508577,17.1155102 C105.410346,17.1155102 104.885067,17.0648435 104.885067,16.4506395 C104.885067,16.4020408 104.917121,16.1466395 104.917121,16.0970068 C104.917121,15.884 104.764087,15.884 104.735135,15.884 C104.600713,15.884 104.421829,16.0453061 104.287407,16.2500408 C103.957556,16.7804898 103.93791,17.5694422 103.92757,18.1236735 L103.92757,19.3241633 L103.946182,20.136898 Z" id="Fill-58" fill="#FFFFFF"></path>
            <path d="M107.908522,17.7397442 C107.908522,19.3238531 108.009856,20.228615 108.977693,20.228615 C109.956903,20.228615 110.026182,19.3124789 110.026182,17.9817034 C110.026182,16.7646694 109.965176,15.6458667 108.967352,15.6530698 C108.03157,15.6530698 107.908522,16.6085333 107.908522,17.7397442 M111.568931,17.9817034 C111.568931,19.5730503 110.29606,20.5109007 108.937366,20.5109007 C107.455624,20.5109007 106.376114,19.4448327 106.376114,17.9403429 C106.376114,16.358302 107.524903,15.4111456 108.916686,15.3914993 C110.549393,15.3625469 111.568931,16.5216762 111.568931,17.9817034" id="Fill-60" fill="#FFFFFF"></path>
            <path d="M112.920076,13.2845932 C113.393654,13.273219 113.53428,13.273219 113.977872,13.2432327 L113.957192,14.3641034 L113.957192,19.3335728 L113.977872,20.1370014 L114.672729,20.1370014 L114.672729,20.4006748 L111.728893,20.4006748 L111.728893,20.1370014 L112.484756,20.1370014 L112.505437,19.3335728 L112.505437,14.3641034 L112.484756,13.5472327 L111.728893,13.5472327 L111.728893,13.2845932 L112.920076,13.2845932 Z" id="Fill-62" fill="#FFFFFF"></path>
            <path d="M115.751516,14.0287728 C115.751516,13.5975891 116.116522,13.2336163 116.555978,13.2336163 C116.992332,13.2336163 117.343897,13.586215 117.343897,14.0287728 C117.343897,14.4744327 116.992332,14.8280653 116.555978,14.8280653 C116.345039,14.8280653 116.135135,14.7453442 115.991407,14.5954122 C115.842509,14.4434122 115.751516,14.2397116 115.751516,14.0287728 L115.751516,14.0287728 Z M116.053448,15.5198204 C116.638699,15.5136163 116.841366,15.5136163 117.33459,15.4805279 L117.311842,16.5910585 L117.311842,19.3518748 L117.33459,20.1366912 L118.029448,20.1366912 L118.029448,20.4003646 L115.085611,20.4003646 L115.085611,20.1366912 L115.842509,20.1366912 L115.862155,19.3518748 L115.862155,16.5910585 L115.842509,15.7845279 L115.085611,15.7845279 L115.085611,15.5198204 L116.053448,15.5198204 Z" id="Fill-64" fill="#FFFFFF"></path>
            <path d="M123.985263,20.136898 L124.684256,20.136898 L124.684256,20.4005714 L121.790052,20.4005714 L121.790052,20.136898 L122.505589,20.136898 L122.525235,19.3520816 L122.525235,16.7639456 C122.514895,16.4506395 122.505589,15.8643537 121.840718,15.8643537 C121.589453,15.8643537 121.303031,15.9667211 121.091059,16.1683537 C120.669181,16.5819592 120.660909,17.2344218 120.642297,17.8806803 L120.642297,19.3520816 L120.660909,20.136898 L121.36714,20.136898 L121.36714,20.4005714 L118.451222,20.4005714 L118.451222,20.136898 L119.189507,20.136898 L119.207086,19.3520816 L119.207086,16.5219864 L119.189507,15.7961088 L118.451222,15.7961088 L118.451222,15.5314014 L119.490405,15.5314014 C120.036365,15.5200272 120.17699,15.5200272 120.660909,15.4921088 L120.642297,16.3782585 C120.770514,16.115619 120.871848,15.9150204 121.164473,15.7123537 C121.456065,15.5200272 121.869671,15.3794014 122.406324,15.3794014 C122.766161,15.3794014 122.99778,15.4517823 123.139439,15.504517 C123.918052,15.7961088 123.94597,16.4506395 123.96665,16.872517 L123.96665,19.3520816 L123.985263,20.136898 Z" id="Fill-66" fill="#FFFFFF"></path>
            <path d="M128.50597,17.377219 C128.346732,17.4371918 128.193698,17.4981986 128.032392,17.5488653 C127.30548,17.8011646 126.79261,17.9717769 126.79261,19.0181986 C126.79261,19.2405116 126.79261,20.0273959 127.538133,20.0273959 C128.465644,20.0273959 128.486324,18.9385796 128.50597,18.1124027 L128.50597,17.377219 Z M129.886378,19.352185 C129.886378,19.6065524 129.907059,20.1297633 130.419929,20.1297633 C130.501616,20.1297633 130.573997,20.1194231 130.63914,20.107015 L130.63914,20.4006748 C130.117997,20.4430694 129.817099,20.4627156 129.454161,20.4627156 C128.686922,20.4627156 128.575249,20.0077497 128.50597,19.6965116 C128.373616,19.9281306 128.032392,20.5009741 126.962188,20.5009741 C126.017099,20.5009741 125.349127,19.9891374 125.349127,18.9809741 C125.349127,18.0234776 125.975739,17.7887565 126.268365,17.680185 C126.600283,17.5695456 126.942541,17.5178449 127.27446,17.447532 C127.690133,17.3565388 128.091331,17.2262531 128.49563,17.0938993 L128.49563,16.5696544 C128.486324,16.2180898 128.465644,15.6741986 127.690133,15.6741986 C127.358215,15.6741986 127.115222,15.774498 126.984936,15.9037497 C126.832936,16.0557497 126.832936,16.1974095 126.832936,16.4693551 C126.832936,16.7123483 126.762623,17.0122122 126.238378,17.0122122 C126.076038,17.0122122 125.704827,16.995668 125.704827,16.540702 C125.704827,16.2853007 125.845453,16.0454095 126.005725,15.8841034 C126.238378,15.6535184 126.68197,15.3919129 127.840065,15.3919129 C129.843984,15.3919129 129.866732,16.3194231 129.886378,17.0432327 L129.886378,19.352185 Z" id="Fill-68" fill="#FFFFFF"></path>
            <polygon id="Fill-70" fill="#00ADEE" points="15.7056327 22.0362776 15.7056327 15.9790259 21.7618503 15.9790259 21.7618503 6.29238639 15.7056327 6.29238639 15.7056327 0.238236735 6.05518367 0.238236735 6.05518367 6.29238639 1.42108547e-13 6.29238639 1.42108547e-13 15.9790259 6.05518367 15.9790259 6.05518367 22.0362776"></polygon>
            <path d="M5.29580408,9.04648163 L9.31191293,9.43216871 C10.0646748,9.53970612 10.152566,10.2686857 9.95300136,10.7050395 L7.20252517,15.8699374 L7.20769524,15.8626993 C5.81074286,14.7645769 4.91218503,13.0646585 4.91218503,11.1527673 C4.91218503,10.4113796 5.04970884,9.69997823 5.29580408,9.04234558 L5.29580408,9.04648163 Z" id="Fill-72" fill="#FEFEFE"></path>
            <path d="M5.89263673,9.92704762 L8.93160272,10.2072653 C9.15184762,10.2238095 9.16839184,10.3168707 9.11462313,10.4440544 L6.98972517,14.5087619 C6.21318095,13.6081361 5.74477279,12.4324626 5.74477279,11.1533878 C5.74477279,10.7304762 5.79543946,10.3199728 5.89263673,9.92704762" id="Fill-74" fill="#00ADEE"></path>
            <path d="M16.4993415,9.04648163 L12.4832327,9.43216871 C11.7315048,9.53970612 11.6425796,10.2686857 11.8411102,10.7050395 L14.5926204,15.8699374 L14.5874503,15.8626993 C15.9823347,14.7645769 16.8798585,13.0646585 16.8798585,11.1527673 C16.8798585,10.4113796 16.7433687,9.69997823 16.4962395,9.04234558 L16.4993415,9.04648163 Z" id="Fill-76" fill="#FEFEFE"></path>
            <path d="M10.8980898,5.16996463 C8.49607619,5.16996463 6.42908299,6.58346122 5.47468844,8.62150204 L9.73379048,8.62150204 C10.3417905,8.60805986 10.608566,8.25442721 10.6209741,7.96283537 C10.6354503,7.62057687 10.5806476,7.51200544 10.2993959,7.14596463 C9.98815782,6.73856327 10.2021986,5.94547483 10.8980898,5.93306667 C11.593981,5.94547483 11.8059537,6.73856327 11.4957497,7.14596463 C11.214498,7.51200544 11.1565932,7.62057687 11.1762395,7.96283537 C11.1855456,8.25442721 11.4543891,8.60805986 12.0603211,8.62150204 L16.3194231,8.62150204 C15.3639946,6.58346122 13.2970014,5.16996463 10.8980898,5.16996463" id="Fill-78" fill="#FEFEFE"></path>
            <path d="M15.9035429,9.92704762 L12.8604408,10.2072653 C12.644332,10.2238095 12.6267537,10.3168707 12.6763864,10.4440544 L14.8074884,14.5087619 C15.5809306,13.6081361 16.0483048,12.4324626 16.0483048,11.1533878 C16.0483048,10.7304762 15.9976381,10.3199728 15.9035429,9.92704762" id="Fill-80" fill="#00ADEE"></path>
            <path d="M12.3279238,6.20201361 C12.6298558,6.70764626 12.3858286,7.36631293 12.0983728,7.67858503 C12.0466721,7.73235374 12.0725224,7.78922449 12.1211211,7.80473469 L14.8136925,7.80473469 C14.168468,7.05093878 13.3092027,6.48326531 12.3279238,6.20201361" id="Fill-82" fill="#00ADEE"></path>
            <path d="M10.8980898,17.1328816 C12.1130558,17.1328816 13.2421986,16.7730449 14.1872871,16.1526367 L14.1872871,16.1557388 L11.2693007,11.7973714 C11.0656,11.5150857 10.7398857,11.4892354 10.5248109,11.7973714 L7.60682449,16.1557388 L7.60682449,16.1526367 C8.55087891,16.7730449 9.68105578,17.1328816 10.8980898,17.1328816" id="Fill-84" fill="#FEFEFE"></path>
            <path d="M33.7160816,22.269551 C37.8997007,19.9554286 40.435102,16.2764082 41.7431293,12.237551 C43.0966531,8.04669388 42.8733061,3.08963265 41.3036735,-7.10542736e-14 C38.913034,1.20462585 36.5099864,1.8084898 33.7160816,1.8167619 C30.9221769,1.824 28.5201633,1.20462585 26.1315918,-7.10542736e-14 C24.5609252,3.08963265 24.3365442,8.04669388 25.6921361,12.237551 C26.9980952,16.2764082 29.5334966,19.9554286 33.7160816,22.269551" id="Fill-86" fill="#00ADEE"></path>
            <path d="M33.7129796,20.3974694 C37.1583129,18.2642993 38.989551,15.2098231 40.1672925,11.7603537 C41.2054422,8.69967347 41.4629116,5.11164626 40.3151565,2.31463946 C38.5945578,2.90609524 37.5863946,3.08808163 36.6516463,3.23387755 C35.7789388,3.37140136 34.9992925,3.45412245 33.7233197,3.47066667 L33.7129796,3.47066667 C32.4349388,3.45412245 31.6563265,3.37140136 30.782585,3.23387755 C29.8457687,3.08808163 28.8355374,2.90609524 27.1190748,2.31463946 C25.9713197,5.11164626 26.2277551,8.69967347 27.2700408,11.7603537 C28.4446803,15.2098231 30.2769524,18.2642993 33.7202177,20.3974694 L33.7129796,20.3974694 Z" id="Fill-88" fill="#FEFEFE"></path>
            <path d="M33.7160816,19.5501986 C36.0457143,18.0839673 38.683483,14.7616816 39.7412789,10.3878041 C40.2975782,8.06644354 40.4557823,5.46072925 39.7268027,3.39270204 C38.683483,3.67291973 37.7084082,3.90247075 36.704381,4.0358585 C35.6951837,4.17338231 34.6994286,4.26954558 33.7202177,4.27781769 L33.7150476,4.27781769 C32.7327347,4.26954558 31.7380136,4.17338231 30.7308844,4.0358585 C29.7247891,3.90247075 28.7517823,3.67291973 27.7094966,3.39270204 C26.980517,5.46072925 27.1376871,8.06644354 27.6970884,10.3878041 C28.7497143,14.7616816 31.389551,18.0839673 33.7202177,19.5501986 L33.7160816,19.5501986 Z" id="Fill-90" fill="#00ADEE"></path>
            <path d="M31.3389878,5.8293551 C30.5521034,6.23882449 30.2780898,7.20149116 30.6317224,7.97803537 C30.9398585,8.65117823 31.5447565,9.09787211 32.2458177,9.30467483 C32.6004844,9.4091102 32.954117,9.43702857 33.3211918,9.45667483 C33.7668517,9.4773551 34.171151,9.48872925 34.5981986,9.59936871 C34.6881578,9.62418503 34.7915592,9.67795374 34.8391238,9.7658449 C34.9549333,9.98091973 34.851532,10.2177088 34.624049,10.2797497 C34.6199129,10.6581986 34.5847565,11.4088925 34.5847565,11.4088925 C34.5847565,11.4088925 36.4118585,11.2362122 36.1016544,9.59523265 C36.0282395,9.20127347 35.7190694,8.79697415 35.3654367,8.61498776 C34.4503347,8.14657959 33.4421714,8.34924626 32.5063891,8.04421224 C32.1889469,7.94391293 31.7494912,7.78777687 31.662634,7.43207619 C31.6274776,7.28938231 31.659532,7.00606259 31.8042939,6.95849796 C32.043151,6.88404898 32.3057905,7.08257959 32.650117,7.16013061 C32.8672599,7.20976327 33.0823347,7.20976327 33.2529469,7.15702857 C33.3284299,7.13738231 33.4390694,7.1063619 33.4473415,7.06189932 C33.4390694,7.02570884 33.3511782,6.99055238 33.3098177,6.96677007 C33.2033143,6.91403537 33.0937088,6.88715102 32.9810014,6.84372245 C32.7907429,6.7713415 32.6025524,6.68345034 32.4091918,6.57487891 C32.5891102,6.53868844 32.8920762,6.52938231 33.0740626,6.55006259 C33.2146884,6.56867483 33.6572463,6.56247075 33.7896,6.52731429 C33.8185524,6.51904218 33.8847293,6.49525986 33.8547429,6.44355918 C33.8051102,6.35877007 33.717219,6.32671565 33.6572463,6.24296054 C33.5300626,6.06717823 33.4173551,5.8903619 33.2084844,5.80764082 C32.6066884,5.5780898 31.9387156,5.51604898 31.3389878,5.8293551" id="Fill-92" fill="#FEFEFE"></path>
            <path d="M34.3865361,11.6921088 L34.4010122,9.77608163 C34.4010122,9.77608163 34.150781,9.72334694 33.8064544,9.70059864 C33.3607946,9.67268027 33.1539918,9.67991837 33.1539918,9.67991837 L33.1539918,9.84019048 C33.1539918,9.84019048 32.939951,9.92911565 32.9037605,9.99012245 C32.8913524,10.0190748 32.8313796,10.0893878 32.860332,10.1597007 C33.0340463,10.6343129 33.2801415,11.095483 33.3514884,11.6011156 C33.6854748,11.6476463 33.9781007,11.6352381 34.3865361,11.6921088" id="Fill-94" fill="#FEFEFE"></path>
            <path d="M32.0943347,11.4033088 C32.0157497,12.1560707 32.5058721,12.5593361 33.0456272,12.6865197 C33.4788789,12.7899211 33.8924844,12.8116354 34.3422803,12.861268 C34.400185,12.8705741 34.5190966,12.8736762 34.6080218,12.9140027 C34.6876408,12.9450231 34.7269333,12.9946558 34.7403755,13.0442884 C34.7631238,13.1135673 34.7517497,13.1673361 34.7083211,13.2221388 C34.6607565,13.2831456 34.5315048,13.317268 34.5315048,13.317268 L34.5077224,14.2209959 C34.5077224,14.2209959 34.8685932,14.2075537 35.1663891,14.0276354 C35.4455728,13.8611592 35.6182531,13.6471184 35.6813279,13.3772408 C35.7506068,13.0660027 35.7030422,12.7620027 35.4807293,12.4590367 C35.3359673,12.2584381 35.0816,12.1126422 34.8210286,12.022683 C34.2885116,11.8365605 33.712566,11.8655129 33.1593687,11.7858939 C33.0766476,11.7755537 32.9959946,11.7104109 32.9877224,11.6318259 C32.9753143,11.492234 33.107668,11.4270912 33.107668,11.4270912 L32.9711782,11.0010776 C32.9081034,10.8439075 32.8171102,10.6215946 32.7561034,10.506819 C32.3797224,10.6691592 32.1377633,11.0145197 32.0943347,11.4033088" id="Fill-96" fill="#FEFEFE"></path>
            <path d="M34.3420735,13.074585 L34.3255293,14.6969524 L33.9191619,14.5097959 L33.5179646,14.3433197 L33.5107265,12.9887619 C33.8705633,13.0342585 34.0349714,13.0363265 34.3420735,13.074585" id="Fill-98" fill="#FEFEFE"></path>
            <path d="M32.5265524,13.9671456 C32.3001034,14.4934585 32.5813551,15.0094313 33.0218449,15.2234721 C33.2534639,15.3382476 33.5574639,15.441649 33.8066612,15.5378122 C34.0527565,15.6339755 34.4818721,15.898683 34.5128925,16.0258667 C34.5325388,16.1054857 34.4415456,16.1809687 34.4415456,16.1809687 L34.4301714,16.814819 C34.4301714,16.814819 34.697981,16.7569143 34.8903075,16.5997442 C35.0743619,16.4456762 35.2087837,16.2502476 35.2067392,15.9328054 C35.2067392,15.5874449 35.0443755,15.3165333 34.552185,15.0280435 C34.168566,14.8026286 33.7042939,14.6247782 33.3403211,14.4634721 C33.2896544,14.4417578 33.2441578,14.3373224 33.2638041,14.2763156 C33.2824163,14.2091048 33.3268789,14.1832544 33.3268789,14.1832544 L33.3206748,13.4501388 C33.3206748,13.4501388 33.0394231,13.5059755 32.9091374,13.5845605 C32.7871238,13.6548735 32.6030694,13.7768871 32.5265524,13.9671456" id="Fill-100" fill="#FEFEFE"></path>
            <path d="M34.274449,16.1250286 C34.279619,16.0733279 34.2589388,16.0650558 34.2341224,16.0309333 C34.124517,15.9161578 33.969415,15.8396408 33.9332245,15.8158585 C33.820517,15.7507156 33.5692517,15.6576544 33.5692517,15.6576544 C33.5692517,15.6576544 33.588898,17.3193143 33.6157823,18.1754776 C33.6261224,18.3698721 33.7357279,18.4226068 33.9208163,18.4298449 C34.1493333,18.4453551 34.2175782,18.3005932 34.2186122,18.2168381 C34.2268844,17.9417905 34.2651429,16.7506068 34.274449,16.1250286" id="Fill-102" fill="#FEFEFE"></path>
            <path d="M34.4501279,5.44459864 C34.531815,5.50457143 34.531815,5.51077551 34.5586993,5.6317551 C34.613502,5.89646259 34.5555973,6.31317007 34.607298,6.49515646 C34.6352163,6.55306122 34.6941551,6.55306122 34.7396517,6.52721088 C35.1077605,6.32764626 35.3569578,5.98538776 35.7292027,5.82821769 C35.902917,5.75480272 36.3868354,5.99882993 36.2730939,6.36280272 C36.2213932,6.53444898 36.1448762,6.55926531 36.0404408,6.67093878 C35.8212299,6.89428571 35.5172299,7.10729252 35.2483864,7.40095238 C35.068468,7.59638095 34.8492571,7.74114286 34.7086313,7.96345578 C34.6662367,8.03790476 34.5917878,8.13303401 34.5917878,8.13303401 C34.074781,8.02859864 33.5536381,8.04410884 33.1534748,7.96345578 L33.1534748,7.3647619 C33.1534748,7.3647619 33.5629442,7.29651701 33.6394612,7.09488435 C33.6466993,7.07627211 33.6363592,7.0069932 33.5743184,6.96563265 C33.5040054,6.91393197 33.3840599,6.85809524 33.3447673,6.84465306 C33.7583728,6.90979592 34.0137741,6.9770068 34.4149714,7.15278912 C34.4387537,7.10729252 34.4232435,7.01009524 34.3932571,6.9770068 C34.3384544,6.91496599 34.309502,6.89428571 34.1699102,6.86223129 C33.925883,6.79605442 33.2651483,6.71746939 33.2651483,6.71746939 C33.2651483,6.71746939 33.5691483,6.71643537 33.8266177,6.67404082 C33.9496653,6.65336054 34.0530667,6.62957823 34.082019,6.58614966 C34.1130395,6.51997279 34.0561687,6.43001361 33.9693116,6.33385034 C33.9083048,6.27180952 33.8462639,6.20770068 33.7976653,6.1404898 C33.7366585,6.05983673 33.6384272,5.90887075 33.5298558,5.81167347 C33.4378286,5.72895238 33.2031075,5.6090068 33.2031075,5.6090068 C33.2031075,5.6090068 33.163815,5.29053061 33.2279238,5.15817687 C33.2734204,5.06511565 33.4006041,5.0082449 33.4657469,5.04236735 C33.7625088,5.20780952 34.0561687,5.37635374 34.4501279,5.44459864" id="Fill-104" fill="#FEFEFE"></path>
            <path d="M33.1485116,6.06366259 C33.0740626,6.11846531 33.0182259,6.17223401 32.9334367,6.18567619 C32.7638585,6.21462857 32.7866068,6.06676463 32.6728653,5.98197551 C32.6004844,5.93337687 32.5332735,5.99955374 32.4701986,5.88064218 C32.7162939,5.88891429 33.0389061,5.8672 33.2208925,6.05125442 C33.2002122,6.0419483 33.1598857,6.05642449 33.1485116,6.06366259" id="Fill-106" fill="#00ADEE"></path>
            <path d="M10.8133007,12.7817524 C10.8618993,12.7186776 10.9239401,12.7145415 10.9839129,12.7817524 L12.9940354,15.8610449 C12.3529469,16.1453986 11.6446476,16.3046367 10.8980898,16.3046367 C10.1484299,16.3046367 9.44013061,16.1453986 8.8011102,15.8610449 L10.8133007,12.7817524 C10.8691374,12.7145415 10.9363483,12.7186776 10.9839129,12.7817524" id="Fill-108" fill="#00ADEE"></path>
            <path d="M33.1687782,16.7400599 C33.0674449,16.8434612 32.9009687,17.0544 32.8730503,17.3925224 C32.848234,17.6954884 32.9185469,17.7813116 32.9950639,17.9446857 C33.0571048,18.0791075 33.2018667,18.0729034 33.2535673,17.9457197 C33.2980299,17.8433524 33.2349551,17.7513252 33.2742476,17.5259102 C33.304234,17.3625361 33.4314177,17.278781 33.4314177,17.278781 L33.4169415,16.5384272 C33.4169415,16.5384272 33.304234,16.599434 33.1687782,16.7400599" id="Fill-110" fill="#FEFEFE"></path>
            <path d="M9.46515374,6.20201361 C9.16218776,6.70764626 9.40724898,7.36631293 9.69573878,7.67858503 C9.74950748,7.73235374 9.72262313,7.78922449 9.67609252,7.80473469 L6.98145306,7.80473469 C7.62771156,7.05093878 8.48697687,6.48326531 9.46515374,6.20201361" id="Fill-112" fill="#00ADEE"></path>
            <path d="M38.3267483,20.5953796 L38.3267483,20.9852027 L38.5201088,20.9852027 C38.7207075,20.9852027 38.8158367,20.9366041 38.8158367,20.7990803 C38.8158367,20.6543184 38.7207075,20.5953796 38.5139048,20.5953796 L38.3267483,20.5953796 Z M39.0464218,20.776332 C39.0464218,20.9428082 38.9512925,21.0617197 38.7734422,21.0927401 L39.0391837,21.6345633 L38.7899864,21.6345633 L38.5521633,21.1330667 L38.3267483,21.1330667 L38.3267483,21.6345633 L38.1044354,21.6345633 L38.1044354,20.4516517 L38.5552653,20.4516517 C38.8820136,20.4516517 39.0464218,20.5612571 39.0464218,20.776332 L39.0464218,20.776332 Z M39.1725714,20.4237333 C38.9998912,20.245883 38.7734422,20.1569578 38.528381,20.1569578 C38.2822857,20.1569578 38.0579048,20.244849 37.8934966,20.4113252 C37.7166803,20.5943456 37.617415,20.8249306 37.617415,21.0627537 C37.617415,21.3016109 37.7115102,21.5259918 37.8862585,21.6986721 C38.0568707,21.8723864 38.2864218,21.9675156 38.5201088,21.9675156 C38.7662041,21.9675156 38.988517,21.8744544 39.1663673,21.7028082 C39.3380136,21.536332 39.4341769,21.314019 39.4341769,21.0710259 C39.4341769,20.8197605 39.3390476,20.5943456 39.1725714,20.4237333 L39.1725714,20.4237333 Z M39.2687347,20.3265361 C39.4620952,20.5240327 39.5706667,20.7856381 39.5706667,21.0627537 C39.5706667,21.3491755 39.4651973,21.6056109 39.2677007,21.7948354 C39.060898,21.996468 38.7951565,22.1091755 38.5273469,22.1091755 C38.2440272,22.1091755 37.9865578,21.996468 37.7869932,21.7948354 C37.5874286,21.5963048 37.4829932,21.3388354 37.4829932,21.0627537 C37.4829932,20.7877061 37.5946667,20.5188626 37.7962993,20.3151619 C37.9906939,20.1197333 38.2419592,20.017366 38.5273469,20.017366 C38.8085986,20.017366 39.0691701,20.1259374 39.2687347,20.3265361 L39.2687347,20.3265361 Z" id="Fill-114" fill="#00ADEE"></path>
            <path d="M17.3505415,20.5953796 L17.3505415,20.9852027 L17.537698,20.9852027 C17.7445007,20.9852027 17.8385959,20.9366041 17.8385959,20.7990803 C17.8385959,20.6543184 17.7445007,20.5953796 17.5356299,20.5953796 L17.3505415,20.5953796 Z M18.0671129,20.776332 C18.0671129,20.9428082 17.9668136,21.0617197 17.7972354,21.0927401 L18.0609088,21.6345633 L17.8106776,21.6345633 L17.5697524,21.1330667 L17.3505415,21.1330667 L17.3505415,21.6345633 L17.1251265,21.6345633 L17.1251265,20.4516517 L17.5738884,20.4516517 C17.9027048,20.4516517 18.0671129,20.5612571 18.0671129,20.776332 L18.0671129,20.776332 Z M18.1953306,20.4237333 C18.0195483,20.245883 17.7972354,20.1569578 17.5480381,20.1569578 C17.3050449,20.1569578 17.0785959,20.244849 16.9152218,20.4113252 C16.7363374,20.5943456 16.6401741,20.8249306 16.6401741,21.0627537 C16.6401741,21.3016109 16.7353034,21.5259918 16.9059156,21.6986721 C17.0754939,21.8723864 17.3071129,21.9675156 17.537698,21.9675156 C17.7868952,21.9675156 18.0102422,21.8744544 18.1870585,21.7028082 C18.3587048,21.536332 18.4528,21.314019 18.4528,21.0710259 C18.4528,20.8197605 18.3628408,20.5943456 18.1953306,20.4237333 L18.1953306,20.4237333 Z M18.2914939,20.3265361 C18.4817524,20.5240327 18.5913578,20.7856381 18.5913578,21.0627537 C18.5913578,21.3491755 18.4869224,21.6056109 18.2883918,21.7948354 C18.0815891,21.996468 17.8179156,22.1091755 17.543902,22.1091755 C17.2667864,22.1091755 17.009317,21.996468 16.8076844,21.7948354 C16.6091537,21.5963048 16.5005823,21.3388354 16.5005823,21.0627537 C16.5005823,20.7877061 16.6143238,20.5188626 16.8169905,20.3151619 C17.010351,20.1197333 17.2636844,20.017366 17.543902,20.017366 C17.8292898,20.017366 18.0919293,20.1259374 18.2914939,20.3265361 L18.2914939,20.3265361 Z" id="Fill-116" fill="#00ADEE"></path>
        </g>
    </g>
</svg>