<?xml version="1.0" encoding="UTF-8"?>
<svg width="52px" height="51px" viewBox="0 0 52 51" version="1.1" xmlns="http://www.w3.org/2000/svg" xmlns:xlink="http://www.w3.org/1999/xlink">
    <!-- Generator: Sketch 61.2 (89653) - https://sketch.com -->
    <title>stacked-regular</title>
    <desc>Created with Sketch.</desc>
    <defs>
        <polygon id="path-1" points="0.483202335 25.873224 21.9586248 25.873224 21.9586248 0.091566087 0.483202335 0.091566087"></polygon>
    </defs>
    <g id="ID-Card" stroke="none" stroke-width="1" fill="none" fill-rule="evenodd">
        <g id="stacked-regular">
            <polygon id="Fill-1" fill="#00AEEF" points="7.29443274 0.385323389 7.29443274 7.39757137 7.16679224e-05 7.39757137 7.16679224e-05 18.6090102 7.29443274 18.6090102 7.29443274 25.6212582 18.9153862 25.6212582 18.9153862 18.6090102 26.2090306 18.6090102 26.2090306 7.39757137 18.9153862 7.39757137 18.9153862 0.385323389"></polygon>
            <path d="M6.38095341,10.5816 L11.2149547,11.0317177 C12.1229873,11.15194 12.2276225,11.9977892 11.9875349,12.5051557 L8.6743269,18.4826337 L8.68077701,18.4740464 C6.99944757,17.2067037 5.92012867,15.2344866 5.92012867,13.0225407 C5.92012867,12.1638104 6.08424821,11.3394294 6.38238677,10.5816 L6.38095341,10.5816 Z" id="Fill-2" fill="#FFFFFF"></path>
            <path d="M7.09763262,11.6039899 L10.7584301,11.9288761 C11.022168,11.947482 11.0429517,12.0569701 10.982034,12.2036698 L8.41775574,16.9073647 C7.4846394,15.8654387 6.92132954,14.5079293 6.92132954,13.022326 C6.92132954,12.534281 6.98296395,12.0598325 7.09763262,11.6039899" id="Fill-4" fill="#00AEEF"></path>
            <path d="M19.869788,10.5816 L15.03507,11.0317177 C14.1270374,11.15194 14.0224022,11.9977892 14.2639231,12.5051557 L17.5756978,18.4826337 L17.570681,18.4740464 C19.2505771,17.2067037 20.329896,15.2344866 20.329896,13.0225407 C20.329896,12.1638104 20.1664931,11.3394294 19.8683546,10.5816 L19.869788,10.5816 Z" id="Fill-6" fill="#FFFFFF"></path>
            <path d="M13.1256932,6.09716755 C10.2353259,6.09716755 7.74271559,7.73233304 6.59602884,10.09241 L11.723152,10.09241 C12.4548814,10.0780978 12.7773871,9.66733851 12.791004,9.3310025 C12.8103543,8.93383976 12.7451365,8.80789266 12.4032805,8.38425241 C12.031324,7.90837274 12.2886119,6.99454065 13.1256932,6.97879726 C13.9613412,6.99454065 14.2193457,7.90837274 13.8459558,8.38425241 C13.5055332,8.80789266 13.441032,8.93383976 13.458949,9.3310025 C13.4739993,9.66733851 13.7943549,10.0780978 14.5260844,10.09241 L19.6539242,10.09241 C18.5065207,7.73233304 16.0153438,6.09716755 13.1256932,6.09716755" id="Fill-8" fill="#FFFFFF"></path>
            <path d="M19.1523921,11.6039899 L15.4923113,11.9288761 C15.22714,11.947482 15.2077896,12.0569701 15.2679907,12.2036698 L17.8322689,16.9073647 C18.7653853,15.8654387 19.3286951,14.5079293 19.3286951,13.022326 C19.3286951,12.534281 19.2670607,12.0598325 19.1523921,11.6039899" id="Fill-10" fill="#00AEEF"></path>
            <path d="M14.848805,7.29216224 C15.2157448,7.87824562 14.9197563,8.64036871 14.5721668,9.00175101 C14.5083824,9.06400896 14.540633,9.12912933 14.5972506,9.14558833 L17.8409408,9.14558833 C17.0633438,8.27326153 16.028459,7.61991094 14.848805,7.29216224" id="Fill-12" fill="#00AEEF"></path>
            <path d="M13.1256932,19.9502037 C14.5884355,19.9502037 15.950126,19.5301415 17.0860625,18.8095237 L17.0867792,18.814533 L13.5750511,13.7659148 C13.3285134,13.4431754 12.9350565,13.4166978 12.6756186,13.7659148 L9.16389047,18.814533 L9.16389047,18.8095237 C10.3005437,19.5301415 11.6622342,19.9502037 13.1256932,19.9502037" id="Fill-14" fill="#FFFFFF"></path>
            <g id="Group-18" transform="translate(29.383848, 0.020252)">
                <mask id="mask-2" fill="white">
                    <use xlink:href="#path-1"></use>
                </mask>
                <g id="Clip-17"></g>
                <path d="M11.2213332,25.8735102 C16.2581547,23.1957031 19.3126415,18.9378323 20.8850357,14.260615 C22.517631,9.40664232 22.2467262,3.66889313 20.3546931,0.091566087 C17.4786594,1.4855715 14.5847087,2.18257421 11.2213332,2.19187712 C7.85867428,2.20404247 4.96329025,1.4855715 2.08653987,0.091566087 C0.195940098,3.66889313 -0.0763980045,9.40664232 1.55691393,14.260615 C3.13002481,18.9378323 6.18379495,23.1957031 11.2213332,25.8735102" id="Fill-16" fill="#00AEEF" mask="url(#mask-2)"></path>
            </g>
            <path d="M40.599591,23.7266846 C44.7462969,21.2578352 46.9551023,17.7184354 48.3705437,13.7246242 C49.6261657,10.1787839 49.9321877,6.03111688 48.5518636,2.79298829 C46.4792273,3.47639443 45.2658893,3.68749895 44.1378363,3.85638256 C43.0879012,4.01524766 42.1469014,4.10899237 40.6103412,4.12974502 L40.599591,4.12974502 C39.060164,4.10899237 38.1227476,4.01524766 37.0713792,3.85638256 C35.9440428,3.68749895 34.7299882,3.47639443 32.6580686,2.79298829 C31.2777444,6.03111688 31.5837664,10.1787839 32.8401051,13.7246242 C34.2548299,17.7184354 36.4643519,21.2578352 40.6103412,23.7266846 L40.599591,23.7266846 Z" id="Fill-19" fill="#FFFFFF"></path>
            <path d="M40.602386,22.7455138 C43.4060351,21.0502371 46.5859408,17.2016945 47.8573297,12.1380485 C48.5310082,9.45093849 48.7187781,6.43393293 47.8408461,4.03664435 C46.5859408,4.36153062 45.4127369,4.62630578 44.2008324,4.78445526 C42.9882111,4.94188914 41.7899235,5.05423968 40.6102695,5.06211137 L40.5995193,5.06211137 C39.4198653,5.05423968 38.2222943,4.94188914 37.0089564,4.78445526 C35.7970519,4.62630578 34.6252813,4.36153062 33.3696594,4.03664435 C32.4917273,6.43393293 32.6787806,9.45093849 33.3531757,12.1380485 C34.6231313,17.2016945 37.8044704,21.0502371 40.6088361,22.7455138 L40.602386,22.7455138 Z" id="Fill-21" fill="#00AEEF"></path>
            <path d="M37.7412592,6.86093654 C36.7930926,7.33466938 36.4662869,8.44815626 36.890561,9.34910739 C37.2596508,10.1241114 37.9885136,10.6436432 38.8356284,10.8876657 C39.2591858,11.0057411 39.68991,11.0379435 40.1292344,11.0586962 C40.6660271,11.0830269 41.1526523,11.0987702 41.6686614,11.2247174 C41.7783133,11.2511949 41.8994321,11.314884 41.9560497,11.417216 C42.0950855,11.664101 41.9696666,11.9388947 41.6973285,12.0161804 C41.6915951,12.4491235 41.6514611,13.3214503 41.6514611,13.3214503 C41.6514611,13.3214503 43.8502329,13.1196487 43.4797097,11.2182769 C43.3894082,10.7617186 43.0160183,10.2980043 42.5910275,10.0861842 C41.4887749,9.53945926 40.2768703,9.77918812 39.1466672,9.4249619 C38.7661105,9.30617088 38.2364846,9.12440632 38.1325661,8.71507824 C38.0909987,8.54977267 38.1289827,8.21987713 38.3052858,8.1669221 C38.5905241,8.08176469 38.905863,8.31004381 39.3193869,8.4016417 C39.5809748,8.45889038 39.8404127,8.45889038 40.0453829,8.39806366 C40.1364012,8.37373297 40.2689868,8.33866815 40.2818871,8.28714434 C40.2689868,8.24420782 40.1686518,8.20270253 40.1156175,8.17837184 C39.9873319,8.11468268 39.8554629,8.08534273 39.7178605,8.03525013 C39.4892399,7.95009272 39.2613359,7.84632948 39.0319985,7.72252921 C39.2491523,7.68102391 39.6110753,7.67028978 39.8267958,7.69462047 C40.0009488,7.7132263 40.5341582,7.70821704 40.6925443,7.66742735 C40.7276615,7.65812444 40.8064963,7.63021571 40.7720957,7.57225141 C40.7104612,7.47278183 40.6072594,7.43413897 40.5341582,7.34325669 C40.3786388,7.13787704 40.2446197,6.92891935 39.9944987,6.83589024 C39.2692193,6.56896826 38.4629552,6.50026984 37.7412592,6.86093654" id="Fill-23" fill="#FFFFFF"></path>
            <path d="M41.4121619,13.6473385 L41.4250621,11.428952 C41.4250621,11.428952 41.1283569,11.3695565 40.7133996,11.3423634 C40.1737402,11.3094454 39.9286359,11.3180327 39.9286359,11.3180327 L39.9272025,11.5033753 C39.9272025,11.5033753 39.6656146,11.610001 39.6269139,11.6765526 C39.608997,11.7073237 39.5409124,11.7917656 39.573163,11.8733449 C39.7853,12.4243635 40.0791385,12.955345 40.1644233,13.5407128 C40.5657637,13.5972459 40.9219533,13.5829337 41.4121619,13.6473385" id="Fill-25" fill="#FFFFFF"></path>
            <path d="M38.6510835,13.3132924 C38.5543318,14.1834724 39.1463088,14.6500491 39.7992036,14.7996113 C40.316646,14.9176867 40.8183215,14.9420174 41.3565476,15.0042754 C41.4246321,15.0128627 41.5686846,15.0150095 41.6776198,15.0593772 C41.7736549,15.0994513 41.8209557,15.1545532 41.8395893,15.2118018 C41.8639564,15.2933812 41.8539229,15.3563548 41.7994553,15.4221907 C41.7406876,15.4901736 41.5858849,15.529532 41.5858849,15.529532 L41.5550677,16.5757517 C41.5550677,16.5757517 41.9936754,16.5600083 42.3491483,16.3531974 C42.6845541,16.1592675 42.8945412,15.911667 42.9690758,15.6003773 C43.055794,15.238995 42.9955929,14.8869156 42.7297049,14.5341206 C42.5548352,14.3036946 42.2480965,14.1362422 41.936341,14.0310478 C41.2949131,13.8163652 40.5990176,13.8471364 39.9332226,13.7576853 C39.8307375,13.7419419 39.7390026,13.6675186 39.7296857,13.5794988 C39.7124854,13.4184869 39.8694382,13.3412011 39.8694382,13.3412011 C39.8694382,13.3412011 39.7906035,13.0936006 39.7060353,12.8510093 C39.630784,12.6670979 39.5254322,12.4094788 39.4473141,12.2749444 C38.9958062,12.4610026 38.7019677,12.8638902 38.6510835,13.3132924" id="Fill-27" fill="#FFFFFF"></path>
            <path d="M41.3568342,15.248441 L41.3396339,17.127629 L40.8494253,16.9107996 L40.3663835,16.7183009 L40.35635,15.149687 C40.7906576,15.2004952 40.9877444,15.2047889 41.3568342,15.248441" id="Fill-29" fill="#FFFFFF"></path>
            <path d="M39.1690276,16.283354 C38.9024229,16.8923369 39.2371121,17.4870076 39.7696048,17.7389018 C40.0476763,17.8705738 40.412466,17.9886492 40.7134713,18.1002841 C41.0058764,18.2090566 41.5254688,18.5167683 41.5648862,18.6677617 C41.5892533,18.7579283 41.478168,18.8459482 41.478168,18.8459482 L41.4659845,19.5787313 C41.4659845,19.5787313 41.78419,19.5150422 42.0199775,19.3296996 C42.239998,19.1536599 42.4019675,18.9246651 42.4005342,18.557558 C42.3976675,18.158964 42.2027307,17.8462431 41.610037,17.5113383 C41.1484956,17.24871 40.5894858,17.0426147 40.1551782,16.8579877 C40.0928271,16.8315102 40.0362094,16.7120036 40.0598598,16.6397271 C40.0842269,16.5617258 40.1365445,16.5331014 40.1365445,16.5331014 L40.124361,15.6851053 C40.124361,15.6851053 39.7903885,15.7495101 39.632719,15.8389612 C39.4872332,15.9205405 39.2679293,16.058653 39.1690276,16.283354" id="Fill-31" fill="#FFFFFF"></path>
            <path d="M41.2763511,18.7803269 C41.2828013,18.7195002 41.2598675,18.7123441 41.2304837,18.6701232 C41.1007647,18.5398824 40.9108447,18.4497158 40.8671273,18.4239538 C40.7302416,18.3459525 40.4285196,18.2393268 40.4285196,18.2393268 C40.4285196,18.2393268 40.45002,20.1614514 40.485854,21.154716 C40.4937374,21.3815639 40.6263231,21.4395282 40.8492103,21.4502623 C41.1265652,21.4652901 41.2068333,21.2992689 41.2097,21.2026618 C41.2218835,20.8849316 41.2620176,19.5045227 41.2763511,18.7803269" id="Fill-33" fill="#FFFFFF"></path>
            <path d="M41.4884165,6.41511242 C41.5880349,6.48667327 41.5880349,6.49096693 41.6188521,6.6312262 C41.6847866,6.93750665 41.6145521,7.41839558 41.6776198,7.63093131 C41.7113038,7.69962973 41.7829717,7.6967673 41.8360059,7.66885857 C42.2789137,7.43914823 42.5792023,7.0427011 43.0278435,6.85950532 C43.2378305,6.77291669 43.8212074,7.05558206 43.685755,7.47635987 C43.6226872,7.67458343 43.5295189,7.7053546 43.40195,7.8313017 C43.1403621,8.09393003 42.7712723,8.33866815 42.4502,8.67786659 C42.2316129,8.90757693 41.9685916,9.07431372 41.800172,9.33193279 C41.746421,9.41422777 41.6575528,9.52729392 41.6575528,9.52729392 C41.0361919,9.40492486 40.410531,9.42710872 39.9260558,9.33050157 L39.9246225,8.63779252 C39.9246225,8.63779252 40.4191311,8.55764436 40.5122994,8.32364037 C40.5187495,8.30575016 40.5051326,8.22488639 40.432748,8.17407819 C40.3496133,8.11253585 40.202694,8.05099352 40.1596933,8.03596574 C40.6542019,8.10967342 40.9630907,8.18910597 41.4425491,8.39162318 C41.4733663,8.34081498 41.456166,8.22846444 41.4196153,8.18910597 C41.3536808,8.1161139 41.3192802,8.09249882 41.1487106,8.05457156 C40.8563055,7.98086389 40.0607915,7.88711917 40.0607915,7.88711917 C40.0607915,7.88711917 40.428448,7.88497234 40.73662,7.83487975 C40.886406,7.81198027 41.0096748,7.78764958 41.0433587,7.73684138 C41.0791927,7.6631337 41.0139749,7.55149877 40.908623,7.44344188 C40.8383885,7.37188103 40.7588371,7.29674213 40.7007861,7.22303445 C40.6291181,7.12714291 40.5094327,6.95253443 40.3789971,6.8408995 C40.2679118,6.74429235 39.9862569,6.60546429 39.9862569,6.60546429 C39.9862569,6.60546429 39.9375227,6.23406346 40.0156407,6.08521689 C40.0736918,5.97429757 40.2241944,5.91060841 40.3030291,5.94710444 C40.6599354,6.13817192 41.0111082,6.33639548 41.4884165,6.41511242" id="Fill-35" fill="#FFFFFF"></path>
            <path d="M39.9200357,7.13143656 C39.8283008,7.19297889 39.7637997,7.25595244 39.6620312,7.27241144 C39.459211,7.30389822 39.4871615,7.13429899 39.347409,7.03769184 C39.2614075,6.98187438 39.1804228,7.05701327 39.1030214,6.91818522 C39.3982933,6.92748813 39.7860167,6.90172622 40.008904,7.11712439 C39.9809535,7.10495904 39.932936,7.12213365 39.9200357,7.13143656" id="Fill-37" fill="#00AEEF"></path>
            <path d="M13.0228497,14.9087416 C13.0801841,14.8350339 13.1604521,14.8314559 13.2263866,14.9087416 L15.6501957,18.4731877 C14.8797656,18.8037989 14.0233339,18.9877102 13.1260515,18.9877102 C12.2266191,18.9877102 11.3709041,18.8037989 10.600474,18.4731877 L13.0228497,14.9087416 C13.0909342,14.8314559 13.169769,14.8350339 13.2263866,14.9087416" id="Fill-39" fill="#00AEEF"></path>
            <path d="M39.9459079,19.4910693 C39.8262224,19.6112915 39.6255522,19.8574609 39.590435,20.2496143 C39.5581844,20.5988313 39.6427525,20.6975853 39.7337708,20.8857903 C39.8097388,21.041793 39.9860419,21.0324901 40.0476763,20.8879371 C40.0985605,20.7698617 40.0254592,20.6610892 40.0720434,20.4063326 C40.1057273,20.2166963 40.26053,20.1115019 40.26053,20.1115019 L40.2447631,19.2577809 C40.2447631,19.2577809 40.1078774,19.3293418 39.9459079,19.4910693" id="Fill-41" fill="#FFFFFF"></path>
            <path d="M11.4019363,7.29216224 C11.0357133,7.87824562 11.3324184,8.64036871 11.6778578,9.00175101 C11.7416423,9.06400896 11.708675,9.12912933 11.6527741,9.14558833 L8.41051728,9.14558833 C9.18596419,8.27326153 10.2222823,7.61991094 11.4019363,7.29216224" id="Fill-43" fill="#00AEEF"></path>
            <path d="M46.1587283,23.9579693 L46.1587283,24.4095183 L46.3866323,24.4095183 C46.6310199,24.4095183 46.7464053,24.3522696 46.7464053,24.1898265 C46.7464053,24.0252365 46.6310199,23.9579693 46.3816155,23.9579693 L46.1587283,23.9579693 Z M47.0230434,24.1640645 C47.0230434,24.3594257 46.903358,24.4939601 46.6976711,24.5354654 L47.0158767,25.159476 L46.7148714,25.159476 L46.425333,24.5733926 L46.1587283,24.5733926 L46.1587283,25.159476 L45.8899736,25.159476 L45.8899736,23.7883701 L46.4281997,23.7883701 C46.82739,23.7883701 47.0230434,23.9157484 47.0230434,24.1640645 L47.0230434,24.1640645 Z M47.1764128,23.7575989 C46.9671425,23.5522193 46.6976711,23.4455936 46.3959491,23.4455936 C46.1028273,23.4455936 45.835506,23.5500724 45.6355525,23.7447179 C45.4212654,23.9543912 45.3030133,24.2205976 45.3030133,24.4975381 C45.3030133,24.773763 45.4191154,25.0313821 45.6248023,25.2338993 C45.8297726,25.4342697 46.1064107,25.545189 46.3866323,25.545189 C46.6826208,25.545189 46.9528089,25.4371321 47.1699627,25.2367617 C47.3763663,25.0464099 47.4874516,24.7873596 47.4874516,24.5075566 C47.4874516,24.2134415 47.3785163,23.9543912 47.1764128,23.7575989 L47.1764128,23.7575989 Z M47.2910815,23.6466796 C47.5232855,23.8728119 47.6558712,24.1755143 47.6558712,24.4975381 C47.6558712,24.8295805 47.5254356,25.1279892 47.2882148,25.3462498 C47.0388104,25.5802538 46.7213215,25.7069165 46.3930824,25.7069165 C46.0569599,25.7069165 45.7459211,25.5802538 45.5058335,25.344103 C45.2671794,25.1143927 45.1381771,24.8174151 45.1381771,24.4975381 C45.1381771,24.1790923 45.2757795,23.8699494 45.5187338,23.6309362 C45.7502212,23.4048039 46.0548098,23.2881597 46.3930824,23.2881597 C46.7356551,23.2881597 47.0509939,23.4112444 47.2910815,23.6466796 L47.2910815,23.6466796 Z" id="Fill-45" fill="#00AEEF"></path>
            <path d="M20.8965026,23.9579693 L20.8965026,24.4095183 L21.1229732,24.4095183 C21.3680775,24.4095183 21.4813128,24.3522696 21.4813128,24.1898265 C21.4813128,24.0252365 21.3680775,23.9579693 21.1158064,23.9579693 L20.8965026,23.9579693 Z M21.7593844,24.1640645 C21.7593844,24.3594257 21.6396989,24.4939601 21.434012,24.5354654 L21.7522176,25.159476 L21.4512123,25.159476 L21.1609572,24.5733926 L20.8965026,24.5733926 L20.8965026,25.159476 L20.6263145,25.159476 L20.6263145,23.7883701 L21.1645406,23.7883701 C21.5637309,23.7883701 21.7593844,23.9157484 21.7593844,24.1640645 L21.7593844,24.1640645 Z M21.912037,23.7575989 C21.7027667,23.5522193 21.434012,23.4455936 21.1337234,23.4455936 C20.8391683,23.4455936 20.5718469,23.5500724 20.3704601,23.7447179 C20.158323,23.9543912 20.0393543,24.2205976 20.0393543,24.4975381 C20.0393543,24.773763 20.1547396,25.0313821 20.3604265,25.2338993 C20.5675468,25.4342697 20.8434683,25.545189 21.1229732,25.545189 C21.4203951,25.545189 21.6891498,25.4371321 21.9063036,25.2367617 C22.1112739,25.0464099 22.2252259,24.7873596 22.2252259,24.5075566 C22.2252259,24.2134415 22.1155739,23.9543912 21.912037,23.7575989 L21.912037,23.7575989 Z M22.0288558,23.6466796 C22.2589098,23.8728119 22.3922121,24.1755143 22.3922121,24.4975381 C22.3922121,24.8295805 22.2624932,25.1279892 22.0245557,25.3462498 C21.7773014,25.5802538 21.4583791,25.7069165 21.13014,25.7069165 C20.7940175,25.7069165 20.4829787,25.5802538 20.2428912,25.344103 C20.0035203,25.1143927 19.874518,24.8174151 19.874518,24.4975381 C19.874518,24.1790923 20.0114038,23.8699494 20.254358,23.6309362 C20.4865621,23.4048039 20.7918674,23.2881597 21.13014,23.2881597 C21.4734294,23.2881597 21.7873349,23.4112444 22.0288558,23.6466796 L22.0288558,23.6466796 Z" id="Fill-47" fill="#00AEEF"></path>
            <polygon id="Fill-49" fill="#231F20" points="23.0067594 50.5803634 15.0222363 39.3617685 15.0222363 50.5803634 12 50.5803634 12 34.284526 15.0716871 34.284526 22.6878372 44.959974 22.6878372 34.284526 25.7093567 34.284526 25.7093567 50.5803634"></polygon>
            <path d="M28.0179238,42.4570616 C28.0179238,37.402003 31.2365302,34 36.0289641,34 C37.9933819,34 39.5156085,34.4486865 40.7683638,35.1814697 L40.3025223,38.1333549 C39.1959696,37.3311577 37.8199455,36.6921193 36.1758834,36.6921193 C33.1772975,36.6921193 31.3347152,38.8883219 31.3347152,42.4327309 C31.3347152,46.0215077 33.2998497,48.1475806 36.2984355,48.1475806 C37.870113,48.1475806 39.2941546,47.6065806 40.5977941,46.7786215 L41.0385518,49.4707408 C39.6876115,50.2986999 37.9682981,50.8640306 36.0518979,50.8640306 C31.113978,50.8640306 28.0179238,47.5114047 28.0179238,42.4570616 Z" id="Fill-51" fill="#231F20"></path>
        </g>
    </g>
</svg>