<?xml version="1.0" encoding="UTF-8"?>
<svg width="198px" height="26px" viewBox="0 0 198 26" version="1.1" xmlns="http://www.w3.org/2000/svg" xmlns:xlink="http://www.w3.org/1999/xlink">
    <!-- Generator: Sketch 61.2 (89653) - https://sketch.com -->
    <title>incorrect-distort</title>
    <desc>Created with Sketch.</desc>
    <defs>
        <polygon id="path-1" points="0.0990833333 0.5407 4.78583333 0.5407 4.78583333 7.5697 0.0990833333 7.5697"></polygon>
        <polygon id="path-3" points="0.35141988 25.873224 15.9699089 25.873224 15.9699089 0.091566087 0.35141988 0.091566087"></polygon>
    </defs>
    <g id="Logos" stroke="none" stroke-width="1" fill="none" fill-rule="evenodd">
        <g id="Artboard" transform="translate(-426.000000, -349.000000)">
            <g id="incorrect-distort" transform="translate(426.000000, 349.000000)">
                <g transform="translate(0.000000, 2.000000)">
                    <path d="M37.9718198,5.29250218 L37.9718198,7.92996222 L37.9885369,8.71418192 L38.5760229,8.71418192 C38.8474765,8.693839 39.1372393,8.66230747 39.3824232,8.35919791 C39.7048241,7.94013368 39.7048241,7.22711421 39.7048241,6.97893054 C39.7048241,6.21403662 39.5694953,5.81022958 39.3290877,5.57018309 C39.1499761,5.39014821 38.8403121,5.28436501 38.3682535,5.29250218 L37.9718198,5.29250218 Z M37.9885369,2.29700668 L37.9789842,2.98256321 L37.9718198,5.00464981 L38.485273,5.00464981 C38.8251871,5.00464981 39.0974367,4.86835222 39.2049037,4.68831735 C39.3378443,4.48997384 39.4063047,4.16143563 39.4063047,3.64574252 C39.4063047,2.52484743 39.1372393,2.31836675 38.5386085,2.29700668 L37.9885369,2.29700668 Z M36,2 L39.0743512,2 C39.3824232,2.01017146 39.7255214,2.03153153 40.043146,2.21054926 C40.6354084,2.57672188 40.6505334,3.31822145 40.6505334,3.4779134 C40.6505334,3.87460041 40.5414743,4.23975588 40.3153956,4.5286254 C39.9492119,5.01583842 39.4691928,5.08398721 39.1205222,5.13484452 C39.5002388,5.1541703 40.1116064,5.19485615 40.5860532,5.81022958 C40.7731253,6.03603604 41,6.44289451 41,7.08573089 C41,7.54548096 40.8821844,8.02252252 40.5860532,8.39683232 C40.1458367,8.9603313 39.5846203,8.98067422 39.1046012,9 L36,9 L36,8.74571346 L36.7530648,8.74571346 L36.7681898,7.7621331 L36.7681898,3.08020924 L36.7530648,2.25835513 L36,2.25835513 L36,2 Z" id="Fill-1" fill="#231F20"></path>
                    <path d="M42.8071654,2.03944517 C43.1303126,2.03337668 43.2265543,2.03337668 43.5272216,2 L43.5138743,3.09536194 L43.5138743,7.95723161 L43.5272216,8.74714637 L44,8.74714637 L44,9 L42,9 L42,8.74714637 L42.513523,8.74714637 L42.5268704,7.95723161 L42.5268704,3.09536194 L42.513523,2.29634446 L42,2.29634446 L42,2.03944517 L42.8071654,2.03944517 Z" id="Fill-3" fill="#231F20"></path>
                    <path d="M43.8164101,4.04214638 C44.2299378,4.03289474 44.3568621,4.03289474 44.7482804,4 L44.7327219,4.9323602 L44.7327219,7.17639803 C44.7327219,7.55879934 44.7482804,7.84971217 44.8129708,8.05016447 C44.9145103,8.35958059 45.13151,8.50041118 45.3960039,8.50041118 C45.6277432,8.50041118 45.8283655,8.39144737 45.9798559,8.21052632 C46.2902064,7.81887336 46.2811988,7.29975329 46.2811988,6.85567434 L46.2811988,5.07421875 L46.2656404,4.30222039 L45.6752375,4.30222039 L45.6752375,4.04214638 L46.3614478,4.04214638 C46.8232886,4.03289474 46.9608582,4.03289474 47.422699,4 L47.4071405,4.9323602 L47.4071405,7.7109375 L47.422699,8.62068257 L48,8.62068257 L48,8.89000822 L47.3907632,8.89000822 C46.8797904,8.89000822 46.6971831,8.90337171 46.3123158,8.93215461 L46.2902064,8.16118421 C46.1207009,8.42125822 45.7309204,9 44.8293482,9 C44.2397642,9 43.8630855,8.7214227 43.7099574,8.33902138 C43.5912217,8.05838816 43.5985915,7.69654605 43.5985915,7.3984375 L43.5985915,5.03412829 L43.5830331,4.30222039 L43,4.30222039 L43,4.04214638 L43.8164101,4.04214638 Z" id="Fill-5" fill="#231F20"></path>
                    <path d="M51.7470588,5.94231545 C51.7537815,5.17688584 51.7613445,4.27329568 51.0243697,4.27329568 C50.3285714,4.27329568 50.2941176,5.10931827 50.2697479,5.94231545 L51.7470588,5.94231545 Z M52.9420168,7.51653893 C52.7277311,7.99757967 52.287395,9 51.0478992,9 C49.7764706,9 49,7.83118193 49,6.46571198 C49,5.15873336 49.7352941,4 51.0579832,4 C51.8739496,4 52.3252101,4.42053247 52.5235294,4.66559096 C52.9731092,5.22630093 52.989916,5.81726503 53,6.23880597 L50.2621849,6.23880597 C50.2697479,7.07482856 50.2857143,7.83118193 50.6310924,8.265833 C50.8184874,8.50080678 51.0915966,8.59862848 51.3596639,8.59862848 C52.2428571,8.59862848 52.5789916,7.70713998 52.694958,7.38745462 L52.9420168,7.51653893 Z" id="Fill-7" fill="#231F20"></path>
                    <path d="M58,8.42721031 C57.4206731,8.68320022 56.7035256,9 55.8044872,9 C54.1955128,9 53,7.58469945 53,5.51814488 C53,3.29171921 54.3774038,2 55.9294872,2 C56.4070513,2 57.1418269,2.13338938 57.9679487,2.57278969 L57.9679487,4.47554995 L57.7267628,4.47554995 C57.6883013,4.11363318 57.6241987,3.51828499 57.1490385,2.93764887 C56.7804487,2.48942133 56.3605769,2.32562701 55.9927885,2.32562701 C55.5793269,2.32562701 55.1642628,2.53551913 54.8910256,2.86997338 C54.5008013,3.34762505 54.3285256,4.11363318 54.3285256,5.50931764 C54.3285256,6.85596189 54.463141,7.69160712 54.8685897,8.19868292 C55.09375,8.48409696 55.4527244,8.71360516 55.8830128,8.71360516 C56.2956731,8.71360516 56.7876603,8.51254028 57.1875,7.99565644 C57.6570513,7.40226986 57.7099359,6.89617486 57.7411859,6.53229648 L58,6.53229648 L58,8.42721031 Z" id="Fill-9" fill="#231F20"></path>
                    <path d="M60.0108159,8.73974599 L60.6908065,8.73974599 L60.6908065,9 L58,9 L58,8.73974599 L58.671526,8.73974599 L58.6893957,7.9152613 L58.6893957,5.24817822 L58.671526,4.35394545 L58,4.35394545 L58,4.09056839 L59.0279802,4.09056839 C59.4512109,4.08119925 59.5894663,4.08119925 59.9722549,4.04788674 L59.9910651,4.82032063 L59.9910651,5.04413908 C60.0559605,4.82032063 60.1208559,4.62669165 60.3202445,4.40599625 C60.5337409,4.16135748 60.8328239,4 61.1638843,4 C61.7526452,4 62,4.51530294 62,4.97230897 C62,5.59171351 61.6332001,5.69373308 61.4309899,5.69373308 C61.3388197,5.69373308 60.8600988,5.64064127 60.8600988,5.02331876 C60.8600988,4.97230897 60.8920762,4.71830106 60.8920762,4.66625026 C60.8920762,4.45596502 60.7509993,4.45596502 60.726546,4.45596502 C60.6052198,4.45596502 60.4415707,4.61732251 60.3202445,4.82032063 C60.0173995,5.35748491 59.9995297,6.14969811 59.9910651,6.70664168 L59.9910651,7.9152613 L60.0108159,8.73974599 Z" id="Fill-11" fill="#231F20"></path>
                    <path d="M63.1798447,6.29430308 C63.1798447,7.83897334 63.2571201,8.72539195 64.0027883,8.72539195 C64.756423,8.72539195 64.8105955,7.82988704 64.8105955,6.53054677 C64.8105955,5.33923245 64.7643896,4.2468578 63.9948217,4.25695369 C63.2738498,4.25695369 63.1798447,5.19183255 63.1798447,6.29430308 M66,6.53054677 C66,8.08531291 65.0209122,9 63.9725154,9 C62.8285202,9 62,7.95709518 62,6.49016323 C62,4.94448339 62.8834893,4.02071 63.9565824,4.00051823 C65.2152958,3.97224976 66,5.10399836 66,6.53054677" id="Fill-13" fill="#231F20"></path>
                    <path d="M67.2506203,7.08032129 C67.2837055,7.36445783 67.3085194,7.59939759 67.4367246,7.8935743 C67.5649297,8.20682731 67.8941274,8.69678715 68.4673284,8.69678715 C68.9454094,8.69678715 69.2597188,8.37349398 69.2597188,7.98192771 C69.2597188,7.53815261 68.9048801,7.36445783 68.3879239,7.14056225 C67.6716294,6.81726908 67.0653433,6.55522088 67.0653433,5.51204819 C67.0653433,4.28212851 67.9545079,4 68.509512,4 C68.9536807,4 69.3167907,4.15361446 69.6947891,4.31124498 L69.7105045,5.58433735 L69.4665012,5.58433735 C69.4375517,5.38855422 69.4036394,5.21385542 69.3482217,5.05522088 C69.2440033,4.79016064 68.9346567,4.32028112 68.4210091,4.32028112 C67.9859388,4.32028112 67.7907361,4.67369478 67.7907361,4.91967871 C67.7907361,5.22088353 68.0016543,5.34738956 68.0909843,5.39759036 C68.2175352,5.46686747 68.8552523,5.75100402 69,5.81927711 C69.4921423,6.06325301 70,6.39457831 70,7.29819277 C70,8.32329317 69.3391232,9 68.3713813,9 C67.8403639,9 67.4367246,8.82429719 67.0165426,8.6375502 L67,7.08032129 L67.2506203,7.08032129 Z" id="Fill-15" fill="#231F20"></path>
                    <path d="M70.2483444,7.08032129 C70.2798013,7.36445783 70.3054636,7.59939759 70.4354305,7.8935743 C70.5637417,8.20682731 70.8940397,8.69678715 71.468543,8.69678715 C71.9437086,8.69678715 72.2599338,8.37349398 72.2599338,7.98192771 C72.2599338,7.53815261 71.9014901,7.36445783 71.3849338,7.14056225 C70.6721854,6.81726908 70.0637417,6.55522088 70.0637417,5.51204819 C70.0637417,4.28212851 70.9511589,4 71.509106,4 C71.9511589,4 72.3145695,4.15361446 72.6928808,4.31124498 L72.7102649,5.58433735 L72.4693709,5.58433735 C72.4379139,5.38855422 72.4039735,5.21385542 72.3468543,5.05522088 C72.240894,4.79016064 71.9362583,4.32028112 71.4188742,4.32028112 C70.9842715,4.32028112 70.7913907,4.67369478 70.7913907,4.91967871 C70.7913907,5.22088353 70.9983444,5.34738956 71.0869205,5.39759036 C71.218543,5.46686747 71.8534768,5.75100402 71.9991722,5.81927711 C72.4917219,6.06325301 73,6.39457831 73,7.29819277 C73,8.32329317 72.339404,9 71.3700331,9 C70.8377483,9 70.4354305,8.82429719 70.0149007,8.6375502 L70,7.08032129 L70.2483444,7.08032129 Z" id="Fill-17" fill="#231F20"></path>
                    <path d="M77.9718198,5.29250218 L77.9718198,7.92996222 L77.9869448,8.71418192 L78.577615,8.71418192 C78.8506607,8.693839 79.1372393,8.66230747 79.3840153,8.35919791 C79.7024359,7.94013368 79.7024359,7.22711421 79.7024359,6.97893054 C79.7024359,6.21403662 79.5702914,5.81022958 79.3290877,5.57018309 C79.1515682,5.39014821 78.8419042,5.28436501 78.3690495,5.29250218 L77.9718198,5.29250218 Z M77.9869448,2.29700668 L77.9789842,2.98256321 L77.9718198,5.00464981 L78.485273,5.00464981 C78.8251871,5.00464981 79.0966407,4.86835222 79.2064958,4.68831735 C79.3386403,4.48997384 79.4078968,4.16143563 79.4078968,3.64574252 C79.4078968,2.52484743 79.1372393,2.31836675 78.5394046,2.29700668 L77.9869448,2.29700668 Z M76,2 L79.0735552,2 C79.3840153,2.01017146 79.7255214,2.03153153 80.0447381,2.21054926 C80.6346123,2.57672188 80.6481452,3.31822145 80.6481452,3.4779134 C80.6481452,3.87460041 80.5422703,4.23975588 80.3153956,4.5286254 C79.950804,5.01583842 79.4699889,5.08398721 79.1197262,5.13484452 C79.4986467,5.1541703 80.1139946,5.19485615 80.5868492,5.81022958 C80.7739214,6.03603604 81,6.44289451 81,7.08573089 C81,7.54548096 80.8805923,8.02252252 80.5868492,8.39683232 C80.1450406,8.9603313 79.5854163,8.98067422 79.1038051,9 L76,9 L76,8.74571346 L76.7530648,8.74571346 L76.7689858,7.7621331 L76.7689858,3.08020924 L76.7530648,2.25835513 L76,2.25835513 L76,2 Z" id="Fill-19" fill="#231F20"></path>
                    <path d="M82.8070299,2.03944517 C83.1311072,2.03337668 83.2267135,2.03337668 83.5275923,2 L83.5142355,3.09536194 L83.5142355,7.95723161 L83.5275923,8.74714637 L84,8.74714637 L84,9 L82,9 L82,8.74714637 L82.513181,8.74714637 L82.5279438,7.95723161 L82.5279438,3.09536194 L82.513181,2.29634446 L82,2.29634446 L82,2.03944517 L82.8070299,2.03944517 Z" id="Fill-21" fill="#231F20"></path>
                    <path d="M83.8176307,4.04214638 C84.2305424,4.03289474 84.3591676,4.03289474 84.7491398,4 L84.7343929,4.9323602 L84.7343929,7.17639803 C84.7343929,7.55879934 84.7491398,7.84971217 84.8122235,8.05016447 C84.91709,8.35958059 85.133377,8.50041118 85.398001,8.50041118 C85.6290349,8.50041118 85.8264788,8.39144737 85.9796821,8.21052632 C86.292643,7.81887336 86.2844503,7.29975329 86.2844503,6.85567434 L86.2844503,5.07421875 L86.2664263,4.30222039 L85.6757332,4.30222039 L85.6757332,4.04214638 L86.3631001,4.04214638 C86.8268065,4.03289474 86.9628052,4.03289474 87.4265116,4 L87.4093069,4.9323602 L87.4093069,7.7109375 L87.4265116,8.62068257 L88,8.62068257 L88,8.89000822 L87.391283,8.89000822 C86.8816975,8.89000822 86.6981812,8.90337171 86.317221,8.93215461 L86.292643,8.16118421 C86.1230542,8.42125822 85.7330821,9 84.8302474,9 C84.2379158,9 83.8651483,8.7214227 83.7127642,8.33902138 C83.5915124,8.05838816 83.5980665,7.69654605 83.5980665,7.3984375 L83.5980665,5.03412829 L83.5841389,4.30222039 L83,4.30222039 L83,4.04214638 L83.8176307,4.04214638 Z" id="Fill-23" fill="#231F20"></path>
                    <path d="M91.744274,5.94231545 C91.7526791,5.17688584 91.7627653,4.27329568 91.0247951,4.27329568 C90.3263291,4.27329568 90.2943896,5.10931827 90.2700147,5.94231545 L91.744274,5.94231545 Z M92.9428451,7.51653893 C92.7301954,7.99757967 92.2872452,9 91.04917,9 C89.7783148,9 89,7.83118193 89,6.46571198 C89,5.15873336 89.7379702,4 91.0558941,4 C91.8779155,4 92.3284303,4.42053247 92.5251103,4.66559096 C92.9747846,5.22630093 92.9899138,5.81726503 93,6.23880597 L90.2641311,6.23880597 C90.2700147,7.07482856 90.2876655,7.83118193 90.6305947,8.265833 C90.81971,8.50080678 91.0895146,8.59862848 91.3601597,8.59862848 C92.2460601,8.59862848 92.5797436,7.70713998 92.6974154,7.38745462 L92.9428451,7.51653893 Z" id="Fill-25" fill="#231F20"></path>
                    <path d="M94.2521848,6.58807018 C94.2946317,6.86610526 94.3354141,7.11466667 94.4735747,7.44870175 C94.9588015,8.63747368 95.8435289,8.66596491 96.0233042,8.66596491 C96.6625052,8.66596491 97.2059925,8.216 97.2059925,7.51649123 C97.2059925,6.81992982 96.7598835,6.58807018 95.5347482,5.99466667 C95.3399917,5.89936842 95.1535581,5.81389474 94.9754474,5.69698246 C94.7607158,5.56435088 94.0640866,5.08589474 94.0640866,3.98259649 C94.0640866,2.79578947 94.8705784,2 95.9966708,2 C96.7032876,2 97.2559301,2.27803509 97.5447357,2.42049123 L97.627965,4.02975439 L97.3674573,4.02975439 C97.2559301,3.53164912 97.1893467,3.2565614 96.9055347,2.9205614 C96.6225551,2.57768421 96.2488556,2.33698246 95.8435289,2.33698246 C95.2259675,2.33698246 94.9022056,2.82231579 94.9022056,3.32435088 C94.9022056,3.9354386 95.3732834,4.19185965 95.5821889,4.30778947 C95.8593425,4.46007018 96.1339992,4.576 96.4103204,4.71157895 C97.1161049,5.04659649 98,5.54470175 98,6.8562807 C98,8.09221053 97.181856,9 95.8102372,9 C95.1119434,9 94.5759467,8.77207018 94.0491053,8.55003509 L94,6.58807018 L94.2521848,6.58807018 Z" id="Fill-27" fill="#231F20"></path>
                    <path d="M97.8773087,2.03944517 C98.2871042,2.03944517 98.3835752,2.03337668 98.744723,2 L98.7298813,3.07513365 L98.7298813,4.94928479 C98.8815963,4.65294033 99.0341359,4.37884699 99.4909301,4.20994076 C99.6846966,4.13206184 99.8776385,4.09969658 100.078001,4.09969658 C100.674142,4.09969658 100.96438,4.38491547 101.093008,4.53662765 C101.391491,4.89770264 101.415402,5.33261089 101.430244,5.70784569 L101.430244,8.05432741 L101.445086,8.74714637 L102,8.74714637 L102,9 L99.6459433,9 L99.6459433,8.74714637 L100.262698,8.74714637 L100.280838,8.05432741 L100.280838,5.6876174 C100.280838,5.3053027 100.280838,4.53662765 99.6525396,4.53662765 C99.4282652,4.53662765 99.2114116,4.65294033 99.0489776,4.85016616 C98.7777045,5.18494437 98.7513193,5.63097818 98.7298813,6.20040457 L98.7298813,8.05432741 L98.744723,8.74714637 L99.348285,8.74714637 L99.348285,9 L97,9 L97,8.74714637 L97.5878958,8.74714637 L97.6019129,8.04623609 L97.6019129,3.07513365 L97.5878958,2.29634446 L97,2.29634446 L97,2.03944517 L97.8773087,2.03944517 Z" id="Fill-29" fill="#231F20"></path>
                    <path d="M103.453333,2.77867552 C103.453333,2.3544943 103.698947,2 104,2 C104.292632,2 104.533333,2.34439475 104.533333,2.77867552 C104.533333,3.21497619 104.292632,3.55735103 104,3.55735103 C103.856842,3.55735103 103.713684,3.47756456 103.618246,3.33112105 C103.515789,3.18265763 103.453333,2.9867263 103.453333,2.77867552 L103.453333,2.77867552 Z M103.658246,4.23705093 C104.054737,4.22897129 104.190877,4.22897129 104.527018,4.19564276 L104.513684,5.28033473 L104.513684,7.97792526 L104.527018,8.74751118 L105,8.74751118 L105,9 L103,9 L103,8.74751118 L103.515789,8.74751118 L103.526316,7.97792526 L103.526316,5.28033473 L103.515789,4.49256961 L103,4.49256961 L103,4.23705093 L103.658246,4.23705093 Z" id="Fill-31" fill="#231F20"></path>
                    <path d="M108.746269,5.94231545 C108.753836,5.17688584 108.763086,4.27329568 108.025646,4.27329568 C107.328568,4.27329568 107.295775,5.10931827 107.273071,5.94231545 L108.746269,5.94231545 Z M109.944503,7.51653893 C109.730923,7.99757967 109.288627,9 108.051713,9 C106.779483,9 106,7.83118193 106,6.46571198 C106,5.15873336 106.739121,4 108.059281,4 C108.878285,4 109.328148,4.42053247 109.525752,4.66559096 C109.977297,5.22630093 109.992432,5.81726503 110,6.23880597 L107.264663,6.23880597 C107.273071,7.07482856 107.286525,7.83118193 107.632121,8.265833 C107.822157,8.50080678 108.092075,8.59862848 108.361152,8.59862848 C109.248266,8.59862848 109.58293,7.70713998 109.69897,7.38745462 L109.944503,7.51653893 Z" id="Fill-33" fill="#231F20"></path>
                    <path d="M110.807868,2.03944517 C111.12961,2.03337668 111.226554,2.03337668 111.527222,2 L111.513874,3.09536194 L111.513874,7.95723161 L111.527222,8.74714637 L112,8.74714637 L112,9 L110,9 L110,8.74714637 L110.514226,8.74714637 L110.525465,7.95723161 L110.525465,3.09536194 L110.514226,2.29634446 L110,2.29634446 L110,2.03944517 L110.807868,2.03944517 Z" id="Fill-35" fill="#231F20"></path>
                    <g id="Group-39" transform="translate(112.000000, 2.000000)">
                        <mask id="mask-2" fill="white">
                            <use xlink:href="#path-1"></use>
                        </mask>
                        <g id="Clip-38"></g>
                        <path d="M1.64658333,3.2987 C1.41325,3.5927 1.37408333,4.1677 1.37408333,5.0837 C1.37408333,6.2067 1.39575,7.1407 2.14408333,7.1407 C2.34825,7.1407 2.58325,7.0647 2.77075,6.8317 C2.98825,6.5567 3.05491667,6.2157 3.05491667,4.9857 C3.05491667,4.1077 3.05491667,3.0377 2.19325,3.0487 C1.94075,3.0487 1.75491667,3.1637 1.64658333,3.2987 L1.64658333,3.2987 Z M3.22658333,0.5797 C3.69741667,0.5797 3.84158333,0.5737 4.20741667,0.5407 L4.19158333,1.3307 L4.19158333,6.5197 L4.20741667,7.1997 L4.78658333,7.1997 L4.78658333,7.4617 L4.02158333,7.4617 C3.56575,7.4747 3.42075,7.4747 3.03658333,7.5027 L3.03658333,6.8607 C2.85075,7.1407 2.55908333,7.5697 1.80325,7.5697 C0.58575,7.5697 0.0990833333,6.2447 0.0990833333,5.1727 C0.0990833333,3.6417 0.86325,2.6587 1.90741667,2.6587 C2.41241667,2.6587 2.68075,2.8517 2.86741667,3.0747 C2.98158333,3.2127 3.00741667,3.2817 3.03658333,3.4007 L3.03658333,1.4687 L3.01991667,0.8337 L2.41991667,0.8337 L2.41991667,0.5797 L3.22658333,0.5797 Z" id="Fill-37" fill="#231F20" mask="url(#mask-2)"></path>
                    </g>
                    <path d="M37.1822346,17.2937566 C37.1822346,18.8407584 37.2587134,19.7243267 38.0027883,19.7243267 C38.758813,19.7243267 38.8137821,18.8296507 38.8137821,17.530048 C38.8137821,16.3415225 38.7659829,15.2489272 37.9964151,15.2559617 C37.2754431,15.2559617 37.1822346,16.1890439 37.1822346,17.2937566 M40,17.530048 C40,19.0841184 39.0233021,20 37.9733121,20 C36.8317068,20 36,18.9589041 36,17.4896564 C36,15.9446741 36.8858793,15.0197044 37.9589723,15.0005183 C39.2176857,14.9722442 40,16.1042213 40,17.530048" id="Fill-40" fill="#231F20"></path>
                    <path d="M42.836433,13.7831187 C42.836433,13.5167382 42.7353362,13.2733906 42.4263233,13.2733906 C41.9980925,13.2733906 41.9980925,13.7220315 41.9980925,14.1236052 L41.9980925,15.2732475 L42.7591798,15.2732475 L42.7591798,15.5296137 L41.9980925,15.5296137 L41.9980925,18.8393419 L42.0171674,19.7446352 L42.7591798,19.7446352 L42.7591798,20 L40,20 L40,19.7446352 L40.6771578,19.7446352 L40.6971865,18.8393419 L40.6971865,15.5296137 L40,15.5296137 L40,15.2732475 L40.6971865,15.2732475 L40.6971865,14.8366237 C40.7076776,14.2888412 40.7076776,13.5878398 41.3924654,13.2243205 C41.7281831,13.0480687 42.1001431,13 42.472103,13 C43.7491655,13 44,13.68598 44,14.0835479 C44,14.2427754 43.9694802,14.6974249 43.3934192,14.6974249 C42.8249881,14.6974249 42.8249881,14.2427754 42.8249881,14.1426323 L42.836433,13.7831187 Z" id="Fill-42" fill="#231F20"></path>
                    <polygon id="Fill-44" fill="#231F20" points="45 13 47.1976975 13 50.0051608 17.4778974 50.0051608 14.1236894 49.9908694 13.2519127 49.163557 13.2519127 49.163557 13 51 13 51 13.2519127 50.2862247 13.2519127 50.2703454 14.1236894 50.2703454 19.9216492 50.0782056 20 46.0138944 13.5415132 46.0075427 14.3914707 46.0075427 18.6759705 46.0202461 19.5725418 46.8650258 19.5725418 46.8650258 19.8254463 45 19.8254463 45 19.5725418 45.7502977 19.5725418 45.7653831 18.6759705 45.7653831 14.1236894 45.7502977 13.2519127 45 13.2519127"></polygon>
                    <path d="M52.1808765,17.2937566 C52.1808765,18.8407584 52.2589641,19.7243267 53.0015936,19.7243267 C53.7561753,19.7243267 53.8111554,18.8296507 53.8111554,17.530048 C53.8111554,16.3415225 53.7633466,15.2489272 52.9960159,15.2559617 C52.2749004,15.2559617 52.1808765,16.1890439 52.1808765,17.2937566 M55,17.530048 C55,19.0841184 54.0223108,20 52.9721116,20 C51.8294821,20 51,18.9589041 51,17.4896564 C51,15.9446741 51.8844622,15.0197044 52.9585657,15.0005183 C54.2167331,14.9722442 55,16.1042213 55,17.530048" id="Fill-46" fill="#231F20"></path>
                    <path d="M57.0127089,19.734817 L57.6905154,19.734817 L57.6905154,20 L55,20 L55,19.734817 L55.6721582,19.734817 L55.6909861,18.9174293 L55.6909861,16.2479201 L55.6721582,15.3577371 L55,15.3577371 L55,15.0915141 L56.028948,15.0915141 C56.4535185,15.0842346 56.587197,15.0842346 56.975053,15.0519967 L56.9929395,15.8257072 L56.9929395,16.046173 C57.0550718,15.8257072 57.121911,15.6301997 57.3224288,15.4086938 C57.533302,15.1643095 57.8354907,15 58.1687456,15 C58.7552365,15 59,15.5199667 59,15.9785774 C59,16.593178 58.6347376,16.6961314 58.4332784,16.6961314 C58.3419628,16.6961314 57.8627912,16.6451747 57.8627912,16.0274542 C57.8627912,15.9785774 57.892916,15.7217138 57.892916,15.671797 C57.892916,15.4575707 57.7554719,15.4575707 57.7281713,15.4575707 C57.6057896,15.4575707 57.4429277,15.6198003 57.3224288,15.8257072 C57.0221229,16.359193 57.0023535,17.1526622 56.9929395,17.7100666 L56.9929395,18.9174293 L57.0127089,19.734817 Z" id="Fill-48" fill="#231F20"></path>
                    <path d="M58.6277245,14 L59.8517873,14 L59.8352223,14.9902153 L59.8352223,15.295499 L60.6817786,15.295499 L60.6817786,15.5459883 L59.8352223,15.5459883 L59.8352223,18.4549902 C59.8448126,19.0733855 59.8517873,19.6007828 60.2763731,19.6007828 C60.5300785,19.6007828 60.6817786,19.446184 60.8474281,19.2749511 L61,19.4667319 C60.7532694,19.7142857 60.462075,20 59.7593723,20 C58.6355711,20 58.6355711,19.1516634 58.6355711,18.6663405 L58.6442895,17.3003914 L58.6442895,15.5459883 L58,15.5459883 L58,15.295499 L58.6442895,15.295499 L58.6442895,14.9902153 L58.6277245,14 Z" id="Fill-50" fill="#231F20"></path>
                    <path d="M62.8740106,13.0404507 C63.2846306,13.0404507 63.3827507,13.0293268 63.7430739,13 L63.7265831,14.0749783 L63.7265831,15.9478474 C63.8815963,15.6535683 64.0308377,15.3774921 64.4901055,15.2106328 C64.6830475,15.1297313 64.876814,15.1014158 65.0771768,15.1014158 C65.6733179,15.1014158 65.9635554,15.3876047 66.0913588,15.5352499 C66.3881926,15.8993066 66.4129288,16.3351632 66.4294195,16.70731 L66.4294195,19.0524415 L66.4442612,19.7421266 L67,19.7421266 L67,20 L64.6434697,20 L64.6434697,19.7421266 L65.2618734,19.7421266 L65.2783641,19.0524415 L65.2783641,16.6860734 C65.2783641,16.3007801 65.2783641,15.5352499 64.651715,15.5352499 C64.4266161,15.5352499 64.2081135,15.6535683 64.0498021,15.8487431 C63.7760554,16.1875181 63.7513193,16.6294424 63.7265831,17.1997977 L63.7265831,19.0524415 L63.7430739,19.7421266 L64.3458113,19.7421266 L64.3458113,20 L62,20 L62,19.7421266 L62.5845976,19.7421266 L62.6010884,19.0443513 L62.6010884,14.0749783 L62.5845976,13.2973129 L62,13.2973129 L62,13.0404507 L62.8740106,13.0404507 Z" id="Fill-52" fill="#231F20"></path>
                    <path d="M74,19.4280308 C73.4236011,19.6860547 72.705307,20 71.8058361,20 C70.1960879,20 69,18.5852838 69,16.5220743 C69,14.2920813 70.3748597,13 71.9300946,13 C72.4078884,13 73.1422158,13.1353889 73.9703383,13.5739313 L73.9703383,15.4762439 L73.7266314,15.4762439 C73.688953,15.1152067 73.626423,14.5226349 73.1478275,13.9379117 C72.7822671,13.4895585 72.3621934,13.3237561 71.9934263,13.3237561 C71.5781626,13.3237561 71.1653038,13.5356692 70.8919352,13.8702172 C70.5007215,14.3489839 70.3275613,15.1152067 70.3275613,16.5103013 C70.3275613,17.8602663 70.4622415,18.6912404 70.8670835,19.1984583 C71.0931538,19.4859145 71.4531025,19.714506 71.8819945,19.714506 C72.29806,19.714506 72.7918871,19.5153469 73.1895142,18.9992992 C73.657688,18.4057463 73.7122014,17.8985284 73.7426647,17.534548 L74,17.534548 L74,19.4280308 Z" id="Fill-54" fill="#231F20"></path>
                    <path d="M76.3848408,16.9429265 C76.2637234,17.0016191 76.1488572,17.0613236 76.0238328,17.1109087 C75.4776324,17.3578223 75.0908381,17.5247926 75.0908381,18.5488767 C75.0908381,18.766444 75.0908381,19.5365311 75.6534479,19.5365311 C76.3528033,19.5365311 76.3684313,18.4709573 76.3848408,17.6624165 L76.3848408,16.9429265 Z M77.4272319,18.8757337 C77.4272319,19.1246711 77.4428599,19.6367132 77.831217,19.6367132 C77.8929478,19.6367132 77.9445204,19.6265938 78,19.6144505 L78,19.9018417 C77.6030475,19.9433313 77.3756593,19.9625582 77.0998242,19.9625582 C76.5208048,19.9625582 76.4364134,19.5173042 76.3848408,19.21271 C76.2848213,19.4393847 76.0238328,20 75.2197695,20 C74.5032233,20 74,19.4990893 74,18.5124469 C74,17.5753896 74.4711858,17.345679 74.6915413,17.2394252 C74.943153,17.1311475 75.2041414,17.0805505 75.4541903,17.0117385 C75.7675327,16.9226877 76.0738425,16.7951832 76.3770268,16.6656547 L76.3770268,16.1526007 C76.3684313,15.8085408 76.3528033,15.2762599 75.7675327,15.2762599 C75.5167025,15.2762599 75.3330729,15.3744181 75.2346161,15.5009107 C75.1181871,15.6496661 75.1181871,15.788302 75.1181871,16.0544424 C75.1181871,16.2922485 75.0650518,16.5857114 74.6712248,16.5857114 C74.5477632,16.5857114 74.2648955,16.5695203 74.2648955,16.1242663 C74.2648955,15.8743169 74.3735105,15.6395467 74.4954093,15.4816839 C74.6712248,15.256021 75.0064466,15 75.8816175,15 C77.3975386,15 77.4123852,15.907711 77.4272319,16.6160696 L77.4272319,18.8757337 Z" id="Fill-56" fill="#231F20"></path>
                    <path d="M80.0094073,19.734817 L80.6895579,19.734817 L80.6895579,20 L78,20 L78,19.734817 L78.6707432,19.734817 L78.6914393,18.9174293 L78.6914393,16.2479201 L78.6707432,15.3577371 L78,15.3577371 L78,15.0915141 L79.0272813,15.0915141 C79.4515522,15.0842346 79.5879586,15.0842346 79.9727187,15.0519967 L79.9924741,15.8257072 L79.9924741,16.046173 C80.056444,15.8257072 80.1194732,15.6301997 80.3198495,15.4086938 C80.5352775,15.1643095 80.8372531,15 81.1655691,15 C81.7535278,15 82,15.5199667 82,15.9785774 C82,16.593178 81.6340546,16.6961314 81.4308561,16.6961314 C81.3414864,16.6961314 80.8635936,16.6451747 80.8635936,16.0274542 C80.8635936,15.9785774 80.8927563,15.7217138 80.8927563,15.671797 C80.8927563,15.4575707 80.7535278,15.4575707 80.7271872,15.4575707 C80.6048918,15.4575707 80.4421449,15.6198003 80.3198495,15.8257072 C80.0197554,16.359193 80.0018815,17.1526622 79.9924741,17.7100666 L79.9924741,18.9174293 L80.0094073,19.734817 Z" id="Fill-58" fill="#231F20"></path>
                    <path d="M83.1804062,17.2937566 C83.1804062,18.8407584 83.2584628,19.7243267 84.0039825,19.7243267 C84.7582636,19.7243267 84.8116288,18.8296507 84.8116288,17.530048 C84.8116288,16.3415225 84.7646356,15.2489272 83.9960175,15.2559617 C83.2751892,15.2559617 83.1804062,16.1890439 83.1804062,17.2937566 M86,17.530048 C86,19.0841184 85.0195141,20 83.9729192,20 C82.8315412,20 82,18.9589041 82,17.4896564 C82,15.9446741 82.8849064,15.0197044 83.9569892,15.0005183 C85.2146555,14.9722442 86,16.1042213 86,17.530048" id="Fill-60" fill="#231F20"></path>
                    <path d="M86.8092729,13.0404507 C87.1310151,13.0293268 87.2265543,13.0293268 87.5279241,13 L87.5138743,14.096215 L87.5138743,18.956371 L87.5279241,19.7421266 L88,19.7421266 L88,20 L86,20 L86,19.7421266 L86.513523,19.7421266 L86.5275729,18.956371 L86.5275729,14.096215 L86.513523,13.2973129 L86,13.2973129 L86,13.0404507 L86.8092729,13.0404507 Z" id="Fill-62" fill="#231F20"></path>
                    <path d="M89.452406,13.7766556 C89.452406,13.3555043 89.7003864,13 89.9989463,13 C90.2953987,13 90.5342466,13.3443947 90.5342466,13.7766556 C90.5342466,14.2119463 90.2953987,14.557351 89.9989463,14.557351 C89.8556375,14.557351 89.7130313,14.4765546 89.6153846,14.3301111 C89.5142255,14.1816477 89.452406,13.9826865 89.452406,13.7766556 L89.452406,13.7766556 Z M89.6575342,15.2330111 C90.0551458,15.2269514 90.1928346,15.2269514 90.5279241,15.1946328 L90.5124693,16.2793248 L90.5124693,18.9759054 L90.5279241,19.7424614 L91,19.7424614 L91,20 L89,20 L89,19.7424614 L89.5142255,19.7424614 L89.5275729,18.9759054 L89.5275729,16.2793248 L89.5142255,15.4915597 L89,15.4915597 L89,15.2330111 L89.6575342,15.2330111 Z" id="Fill-64" fill="#231F20"></path>
                    <path d="M95.4392833,19.7374382 L96,19.7374382 L96,20 L93.6783344,20 L93.6783344,19.7374382 L94.2523225,19.7374382 L94.2680823,18.9559308 L94.2680823,16.3787068 C94.2597877,16.0667216 94.2523225,15.4829077 93.7189781,15.4829077 C93.5174187,15.4829077 93.2876576,15.5848435 93.1176178,15.785626 C92.7791971,16.1974876 92.7725614,16.8471993 92.7576311,17.4907331 L92.7576311,18.9559308 L92.7725614,19.7374382 L93.3390843,19.7374382 L93.3390843,20 L91,20 L91,19.7374382 L91.5922362,19.7374382 L91.6063371,18.9559308 L91.6063371,16.1377677 L91.5922362,15.4149506 L91,15.4149506 L91,15.1513591 L91.8336098,15.1513591 C92.271566,15.1400329 92.3843729,15.1400329 92.7725614,15.1122323 L92.7576311,15.9946458 C92.8604844,15.7331137 92.9417717,15.5333608 93.1765096,15.3315486 C93.410418,15.1400329 93.7422031,15 94.1726941,15 C94.461347,15 94.6471466,15.0720758 94.760783,15.1245881 C95.3853683,15.4149506 95.4077638,16.0667216 95.424353,16.4868204 L95.424353,18.9559308 L95.4392833,19.7374382 Z" id="Fill-66" fill="#231F20"></path>
                    <path d="M98.3870211,16.9429265 C98.2666145,17.0016191 98.1508991,17.0613236 98.0289289,17.1109087 C97.4792807,17.3578223 97.0914777,17.5247926 97.0914777,18.5488767 C97.0914777,18.766444 97.0914777,19.5365311 97.6551994,19.5365311 C98.3565285,19.5365311 98.3721658,18.4709573 98.3870211,17.6624165 L98.3870211,16.9429265 Z M99.4308053,18.8757337 C99.4308053,19.1246711 99.4464425,19.6367132 99.8342455,19.6367132 C99.8960125,19.6367132 99.9507428,19.6265938 100,19.6144505 L100,19.9018417 C99.6059421,19.9433313 99.3784206,19.9625582 99.1039875,19.9625582 C98.5238468,19.9625582 98.4394058,19.5173042 98.3870211,19.21271 C98.2869429,19.4393847 98.0289289,20 97.2197029,20 C96.5050821,20 96,19.4990893 96,18.5124469 C96,17.5753896 96.4738077,17.345679 96.6950743,17.2394252 C96.9460516,17.1311475 97.2048475,17.0805505 97.4558249,17.0117385 C97.7701329,16.9226877 98.0734949,16.7951832 98.3792025,16.6656547 L98.3792025,16.1526007 C98.3721658,15.8085408 98.3565285,15.2762599 97.7701329,15.2762599 C97.5191556,15.2762599 97.3354183,15.3744181 97.2369038,15.5009107 C97.1219703,15.6496661 97.1219703,15.788302 97.1219703,16.0544424 C97.1219703,16.2922485 97.0688038,16.5857114 96.6724003,16.5857114 C96.5496482,16.5857114 96.2689601,16.5695203 96.2689601,16.1242663 C96.2689601,15.8743169 96.3752932,15.6395467 96.4964816,15.4816839 C96.6724003,15.256021 97.0078186,15 97.8835027,15 C99.398749,15 99.41595,15.907711 99.4308053,16.6160696 L99.4308053,18.8757337 Z" id="Fill-68" fill="#231F20"></path>
                    <polygon id="Fill-70" fill="#00ADEE" points="12.2689822 22 12.2689822 15.8866278 17 15.8866278 17 6.11024145 12.2689822 6.11024145 12.2689822 0 4.73021002 0 4.73021002 6.11024145 0 6.11024145 0 15.8866278 4.73021002 15.8866278 4.73021002 22"></polygon>
                    <path d="M4.29896024,9.0042405 L7.42877577,9.39966682 C8.01541473,9.50991973 8.08390966,10.2573073 7.92838587,10.7046797 L5.78489737,16 L5.78892649,15.9925791 C4.70025996,14.8667272 4,13.1238831 4,11.1637135 C4,10.4036044 4.10717442,9.67423898 4.29896024,9 L4.29896024,9.0042405 Z" id="Fill-72" fill="#FEFEFE"></path>
                    <path d="M5.13063504,10 L7.81550479,10.3058 C8.01008705,10.3238547 8.02470356,10.4254119 7.97719991,10.5642067 L6.0998922,15 C5.41382987,14.0171519 5,12.7341458 5,11.3382984 C5,10.8767773 5.04476305,10.4287971 5.13063504,10" id="Fill-74" fill="#00ADEE"></path>
                    <path d="M12.7032885,9.0042405 L9.57169176,9.39966682 C8.98552523,9.50991973 8.91618504,10.2573073 9.07099105,10.7046797 L11.2165057,16 L11.2124743,15.9925791 C12.3001478,14.8667272 13,13.1238831 13,11.1637135 C13,10.4036044 12.8935709,9.67423898 12.7008696,9 L12.7032885,9.0042405 Z" id="Fill-76" fill="#FEFEFE"></path>
                    <path d="M9.00076278,5 C7.22883295,5 5.70404272,6.22857999 5,8 L8.14187643,8 C8.59038902,7.98831636 8.78718535,7.68094667 8.79633867,7.4275015 C8.80701754,7.13001797 8.76659039,7.03565009 8.55911518,6.71749551 C8.32951945,6.36339125 8.48741419,5.67405632 9.00076278,5.66327142 C9.51411137,5.67405632 9.67048055,6.36339125 9.4416476,6.71749551 C9.23417239,7.03565009 9.1914569,7.13001797 9.20594966,7.4275015 C9.21281465,7.68094667 9.41113654,7.98831636 9.85812357,8 L13,8 C12.2951945,6.22857999 10.7704043,5 9.00076278,5" id="Fill-78" fill="#FEFEFE"></path>
                    <path d="M11.8720785,10 L9.18298634,10.3058 C8.99201785,10.3238547 8.97648453,10.4254119 9.02034332,10.5642067 L10.9035302,15 C11.5869964,14.0171519 12,12.7341458 12,11.3382984 C12,10.8767773 11.9552275,10.4287971 11.8720785,10" id="Fill-80" fill="#00ADEE"></path>
                    <path d="M9.18800166,6 C9.40809463,6.63096774 9.23021127,7.45290323 9.0206707,7.84258065 C8.98298354,7.90967742 9.00182712,7.98064516 9.03725304,8 L11,8 C10.5296643,7.05935484 9.90330383,6.35096774 9.18800166,6" id="Fill-82" fill="#00ADEE"></path>
                    <path d="M8.50078567,17 C9.4239472,17 10.2818982,16.611479 11,15.9416153 L11,15.9449647 L8.78284098,11.2391721 C8.62806411,10.9343841 8.38057825,10.9064731 8.21715902,11.2391721 L6,15.9449647 L6,15.9416153 C6.71731615,16.611479 7.5760528,17 8.50078567,17" id="Fill-84" fill="#FEFEFE"></path>
                    <path d="M25.9992501,22 C29.2836127,19.7138877 31.2740371,16.0793982 32.3009077,12.0894275 C33.3634956,7.94929656 33.1881564,3.05223569 31.9559117,0 C30.079133,1.19004504 28.1926134,1.7865998 25.9992501,1.79477179 C23.8058869,1.80192227 21.920179,1.19004504 20.0450239,0 C18.8119673,3.05223569 18.6358164,7.94929656 19.7000278,12.0894275 C20.7252749,16.0793982 22.7156993,19.7138877 25.9992501,22" id="Fill-86" fill="#00ADEE"></path>
                    <path d="M26.4969273,20 C29.074774,17.8766011 30.4449321,14.8361162 31.3261348,11.4024474 C32.1028929,8.35578683 32.2955352,4.78419488 31.4367687,2 C30.1493926,2.58874657 29.3950707,2.76989936 28.6956789,2.91502745 C28.0427069,3.05192132 27.4593647,3.13426349 26.5046639,3.15073193 L26.4969273,3.15073193 C25.5406792,3.13426349 24.9581106,3.05192132 24.304365,2.91502745 C23.6034258,2.76989936 22.8475566,2.58874657 21.5632752,2 C20.7045087,4.78419488 20.8963773,8.35578683 21.6762301,11.4024474 C22.5551118,14.8361162 23.9260435,17.8766011 26.5023429,20 L26.4969273,20 Z" id="Fill-88" fill="#FEFEFE"></path>
                    <path d="M25.9984657,19 C27.7906451,17.5480609 29.8198725,14.2581595 30.6336317,9.92691668 C31.0615911,7.6281838 31.183297,5.04786894 30.6224952,3 C29.8198725,3.27748624 29.0697504,3.50479969 28.2973553,3.63688724 C27.5209829,3.77307052 26.7549515,3.86829643 26.0016476,3.8764879 L25.9976703,3.8764879 C25.2419799,3.86829643 24.476744,3.77307052 23.7019625,3.63688724 C22.9279765,3.50479969 22.1794453,3.27748624 21.3776181,3 C20.8168163,5.04786894 20.9377267,7.6281838 21.3680725,9.92691668 C22.1778544,14.2581595 24.2086728,17.5480609 26.0016476,19 L25.9984657,19 Z" id="Fill-90" fill="#00ADEE"></path>
                    <path d="M23.7594972,6.22233241 C23.0640621,6.64634212 22.8218935,7.64319322 23.134428,8.44731263 C23.4067535,9.14435889 23.9413521,9.60691493 24.5609382,9.82106124 C24.8743866,9.92920513 25.1869212,9.95811488 25.5113357,9.97845878 C25.9052024,9.99987342 26.2625153,10.0116515 26.6399328,10.1262197 C26.7194372,10.1519173 26.8108216,10.2075953 26.8528584,10.2986075 C26.9552089,10.5213197 26.8638245,10.7665172 26.6627789,10.8307611 C26.6591235,11.2226489 26.6280528,12 26.6280528,12 C26.6280528,12 28.2428148,11.8211878 27.9686617,10.1219368 C27.9037788,9.71398808 27.6305395,9.29533204 27.3180049,9.10688328 C26.5092531,8.62184188 25.6182554,8.83170527 24.7912268,8.51583945 C24.5106768,8.41197849 24.1222932,8.25029802 24.0455303,7.88196636 C24.0144596,7.7342054 24.0427888,7.44082495 24.1707269,7.3915713 C24.3818248,7.31447862 24.6139411,7.52005909 24.9182511,7.60036395 C25.1101583,7.65175907 25.3002378,7.65175907 25.451022,7.59715176 C25.5177326,7.57680786 25.6155139,7.54468591 25.6228247,7.49864445 C25.6155139,7.46116885 25.5378372,7.42476397 25.5012834,7.40013715 C25.4071575,7.34552984 25.3102901,7.31769082 25.2106811,7.27272009 C25.0425339,7.19776888 24.8762143,7.1067567 24.7053255,6.99432988 C24.8643343,6.95685428 25.1320906,6.94721769 25.2929271,6.96863232 C25.4172098,6.98790549 25.808335,6.9814811 25.925307,6.94507623 C25.9508946,6.93651038 26.0093806,6.91188355 25.9828791,6.85834697 C25.9390146,6.77054698 25.8613379,6.7373543 25.808335,6.65062505 C25.6959322,6.46860068 25.5963232,6.28550558 25.4117268,6.19984705 C24.8798697,5.96214464 24.2895266,5.89790075 23.7594972,6.22233241" id="Fill-92" fill="#FEFEFE"></path>
                    <path d="M25.9906514,12 L26,10.0963791 C26,10.0963791 25.8384029,10.0439858 25.61604,10.0213848 C25.3282369,9.99364725 25.1946856,10.0008385 25.1946856,10.0008385 L25.1946856,10.1600728 C25.1946856,10.1600728 25.0564599,10.2484222 25.0330885,10.309034 C25.0250754,10.3377989 24.9863455,10.4076565 25.0050427,10.4775142 C25.1172258,10.9490533 25.2761519,11.4072373 25.3222271,11.909596 C25.5379124,11.9558253 25.7268876,11.9434975 25.9906514,12" id="Fill-94" fill="#FEFEFE"></path>
                    <path d="M25.0068894,10.9654788 C24.9418492,11.7761693 25.3474945,12.2104677 25.7942177,12.3474388 C26.1527944,12.4587973 26.4951111,12.4821826 26.8673805,12.5356347 C26.9153048,12.545657 27.0137209,12.5489978 27.087319,12.5924276 C27.1532149,12.6258352 27.185735,12.6792873 27.1968603,12.7327394 C27.2156877,12.8073497 27.206274,12.8652561 27.1703308,12.9242762 C27.1309643,12.9899777 27.0239904,13.0267261 27.0239904,13.0267261 L27.0043072,14 C27.0043072,14 27.3029785,13.9855234 27.5494465,13.7917595 C27.7805102,13.6124722 27.9234274,13.3819599 27.9756307,13.091314 C28.0329688,12.7561247 27.9936024,12.4287305 27.8096071,12.1024499 C27.6897963,11.8864143 27.4792715,11.7293987 27.263612,11.6325167 C26.8228793,11.4320713 26.3462034,11.4632517 25.8883548,11.3775056 C25.8198915,11.3663697 25.7531397,11.2962138 25.7462934,11.2115813 C25.7360239,11.0612472 25.8455652,10.9910913 25.8455652,10.9910913 L25.7326007,10.532294 C25.6803974,10.363029 25.6050878,10.123608 25.5545961,10 C25.2430879,10.174833 25.0428326,10.5467706 25.0068894,10.9654788" id="Fill-96" fill="#FEFEFE"></path>
                    <path d="M26.902,13.1004843 L26.886,15 L26.493,14.7808717 L26.105,14.5859564 L26.098,13 C26.446,13.0532688 26.605,13.0556901 26.902,13.1004843" id="Fill-98" fill="#FEFEFE"></path>
                    <path d="M25.0580683,14.4609711 C24.8939945,14.9302397 25.0977757,15.3902889 25.4169329,15.5811309 C25.5847527,15.6834665 25.8050162,15.7756607 25.9855723,15.8614014 C26.1638808,15.947142 26.4747969,16.1831592 26.4972728,16.2965581 C26.5115075,16.3675476 26.4455783,16.4348494 26.4455783,16.4348494 L26.4373372,17 C26.4373372,17 26.6313788,16.9483712 26.7707291,16.808236 C26.9040859,16.6708666 27.0014813,16.4966195 27,16.2135833 C27,15.9056546 26.8823593,15.6641057 26.5257422,15.4068838 C26.2477907,15.2059004 25.9114019,15.0473264 25.6476851,14.9035034 C25.6109746,14.8841426 25.57801,14.7910264 25.5922447,14.7366318 C25.6057302,14.6767056 25.6379456,14.653657 25.6379456,14.653657 L25.6334504,14 C25.6334504,14 25.4296692,14.0497849 25.3352706,14.1198525 C25.2468656,14.1825446 25.1135088,14.2913337 25.0580683,14.4609711" id="Fill-100" fill="#FEFEFE"></path>
                    <path d="M26.8406138,16.5055713 C26.8456138,16.4496453 26.8256138,16.4406971 26.8016138,16.4037859 C26.6956138,16.2796301 26.5456138,16.1968596 26.5106138,16.1711336 C26.4016138,16.1006669 26.1586138,16 26.1586138,16 C26.1586138,16 26.1776138,17.7974626 26.2036138,18.7235976 C26.2136138,18.9338795 26.3196138,18.990924 26.4986138,18.9987537 C26.7196138,19.0155315 26.7856138,18.8589386 26.7866138,18.7683384 C26.7946138,18.470812 26.8316138,17.1822763 26.8406138,16.5055713" id="Fill-102" fill="#FEFEFE"></path>
                    <path d="M26.2401298,5.39884167 C26.318256,5.45686751 26.318256,5.46287018 26.3439684,5.57992231 C26.3963822,5.83603636 26.3410016,6.2392159 26.3904485,6.41529431 C26.4171499,6.47131926 26.4735194,6.47131926 26.5170327,6.44630812 C26.8690951,6.25322214 27.1074295,5.92207467 27.4634476,5.77000696 C27.6295894,5.69897532 28.0924129,5.93508047 27.9836296,6.28723729 C27.9341826,6.45331124 27.8610011,6.47732193 27.7611183,6.58537005 C27.5514632,6.80146628 27.260715,7.00755805 27.0035908,7.29168458 C26.8315154,7.48076878 26.6218603,7.62083115 26.4873646,7.83592694 C26.4468181,7.90795901 26.3756144,8 26.3756144,8 C25.8811448,7.898955 25.3827195,7.91396169 25,7.83592694 L25,7.25666899 C25,7.25666899 25.3916199,7.19063958 25.4648014,6.99555271 C25.471724,6.97754469 25.4618346,6.91051484 25.4024983,6.87049702 C25.3352504,6.82047474 25.2205334,6.76645068 25.1829538,6.75344489 C25.5785294,6.81647296 25.8227974,6.88150192 26.2065058,7.05157766 C26.2292514,7.00755805 26.2144173,6.91351617 26.1857381,6.88150192 C26.1333243,6.82147519 26.105634,6.80146628 25.9721272,6.77045247 C25.7387376,6.70642395 25.1068054,6.6303901 25.1068054,6.6303901 C25.1068054,6.6303901 25.3975536,6.62938965 25.6437994,6.58837138 C25.7614832,6.56836247 25.8603771,6.54535223 25.8880674,6.50333352 C25.9177356,6.439305 25.8633439,6.35226624 25.780273,6.25922481 C25.7219256,6.19919808 25.6625893,6.13717046 25.6161091,6.0721415 C25.5577617,5.99410675 25.4638125,5.84804171 25.3599739,5.75399983 C25.2719583,5.67396419 25.0474691,5.55791251 25.0474691,5.55791251 C25.0474691,5.55791251 25.0098894,5.24977529 25.0712036,5.12171826 C25.1147169,5.03167817 25.2363565,4.97665367 25.2986596,5.00966837 C25.5824852,5.16973965 25.8633439,5.33281227 26.2401298,5.39884167" id="Fill-104" fill="#FEFEFE"></path>
                    <path d="M25.793,6.52771106 C25.721,6.58071106 25.667,6.63271106 25.585,6.64571106 C25.421,6.67371106 25.443,6.53071106 25.333,6.44871106 C25.263,6.40171106 25.198,6.46571106 25.137,6.35071106 C25.375,6.35871106 25.687,6.33771106 25.863,6.51571106 C25.843,6.50671106 25.804,6.52071106 25.793,6.52771106" id="Fill-106" fill="#00ADEE"></path>
                    <path d="M8.43970407,13.0547288 C8.47447596,12.9840914 8.5188656,12.9794595 8.56177559,13.0547288 L10,16.5032224 C9.54130703,16.8216696 9.03452528,17 8.50036991,17 C7.96399507,17 7.45721332,16.8216696 7,16.5032224 L8.43970407,13.0547288 C8.47965475,12.9794595 8.52774353,12.9840914 8.56177559,13.0547288" id="Fill-108" fill="#00ADEE"></path>
                    <path d="M25.5184532,16.2679705 C25.4204532,16.4053912 25.2594532,16.6857296 25.2324532,17.1350954 C25.2084532,17.5377382 25.2764532,17.6517974 25.3504532,17.8689222 C25.4104532,18.0475692 25.5504532,18.039324 25.6004532,17.8702964 C25.6434532,17.7342499 25.5824532,17.6119454 25.6204532,17.3123682 C25.6494532,17.0952434 25.7724532,16.9839326 25.7724532,16.9839326 L25.7584532,16 C25.7584532,16 25.6494532,16.0810782 25.5184532,16.2679705" id="Fill-110" fill="#FEFEFE"></path>
                    <path d="M7.8102694,6 C7.58944969,6.63096774 7.76806495,7.45290323 7.97833354,7.84258065 C8.01752339,7.90967742 7.99792847,7.98064516 7.96401418,8 L6,8 C6.4710318,7.05935484 7.09731567,6.35096774 7.8102694,6" id="Fill-112" fill="#00ADEE"></path>
                    <path d="M29.808321,20.5526446 L29.808321,20.9253584 L29.9935612,20.9253584 C30.1857355,20.9253584 30.2768697,20.8788927 30.2768697,20.7474048 C30.2768697,20.6089965 30.1857355,20.5526446 29.9876176,20.5526446 L29.808321,20.5526446 Z M30.4977712,20.725655 C30.4977712,20.8848245 30.4066369,20.9985171 30.2362556,21.028176 L30.490837,21.5462185 L30.252105,21.5462185 L30.0242694,21.0667326 L29.808321,21.0667326 L29.808321,21.5462185 L29.5953442,21.5462185 L29.5953442,20.4152249 L30.0272412,20.4152249 C30.3402675,20.4152249 30.4977712,20.5200198 30.4977712,20.725655 L30.4977712,20.725655 Z M30.6186231,20.3885319 C30.4531947,20.2184874 30.2362556,20.1334652 30.0014859,20.1334652 C29.7657256,20.1334652 29.5507677,20.2174988 29.393264,20.3766683 C29.2238732,20.551656 29.1287766,20.7721206 29.1287766,20.9995057 C29.1287766,21.2278794 29.2189203,21.4424123 29.3863299,21.6075136 C29.5497771,21.7736036 29.769688,21.8645576 29.9935612,21.8645576 C30.2293214,21.8645576 30.4422982,21.7755808 30.6126795,21.6114681 C30.7771174,21.4522986 30.8692422,21.239743 30.8692422,21.0074147 C30.8692422,20.7671775 30.778108,20.551656 30.6186231,20.3885319 L30.6186231,20.3885319 Z M30.7107479,20.2956006 C30.8959881,20.4844291 31,20.7345526 31,20.9995057 C31,21.2733564 30.8989599,21.5185368 30.7097573,21.6994563 C30.5116394,21.8922392 30.2570579,22 30.0004953,22 C29.7290738,22 29.482417,21.8922392 29.2912333,21.6994563 C29.1000495,21.5096391 29,21.2634701 29,20.9995057 C29,20.7365299 29.1069837,20.4794859 29.3001486,20.2847257 C29.4863794,20.0978744 29.7270926,20 30.0004953,20 C30.2699356,20 30.5195641,20.1038062 30.7107479,20.2956006 L30.7107479,20.2956006 Z" id="Fill-114" fill="#00ADEE"></path>
                    <path d="M13.8130564,20.5526446 L13.8130564,20.9253584 L13.992087,20.9253584 C14.189911,20.9253584 14.2799209,20.8788927 14.2799209,20.7474048 C14.2799209,20.6089965 14.189911,20.5526446 13.9901088,20.5526446 L13.8130564,20.5526446 Z M14.4985163,20.725655 C14.4985163,20.8848245 14.4025717,20.9985171 14.2403561,21.028176 L14.4925816,21.5462185 L14.2532146,21.5462185 L14.0227498,21.0667326 L13.8130564,21.0667326 L13.8130564,21.5462185 L13.5974283,21.5462185 L13.5974283,20.4152249 L14.0267062,20.4152249 C14.3412463,20.4152249 14.4985163,20.5200198 14.4985163,20.725655 L14.4985163,20.725655 Z M14.6211672,20.3885319 C14.4530168,20.2184874 14.2403561,20.1334652 14.0019782,20.1334652 C13.7695351,20.1334652 13.5529179,20.2174988 13.396637,20.3766683 C13.2255193,20.551656 13.1335312,20.7721206 13.1335312,20.9995057 C13.1335312,21.2278794 13.2245302,21.4424123 13.3877349,21.6075136 C13.5499505,21.7736036 13.7715134,21.8645576 13.992087,21.8645576 C14.2304649,21.8645576 14.4441147,21.7755808 14.6132542,21.6114681 C14.7774481,21.4522986 14.867458,21.239743 14.867458,21.0074147 C14.867458,20.7671775 14.7814045,20.551656 14.6211672,20.3885319 L14.6211672,20.3885319 Z M14.7131553,20.2956006 C14.8951533,20.4844291 15,20.7345526 15,20.9995057 C15,21.2733564 14.9000989,21.5185368 14.7101879,21.6994563 C14.512364,21.8922392 14.2601385,22 13.9980218,22 C13.7329377,22 13.4866469,21.8922392 13.2937685,21.6994563 C13.1038576,21.5096391 13,21.2634701 13,20.9995057 C13,20.7365299 13.1088032,20.4794859 13.3026706,20.2847257 C13.487636,20.0978744 13.7299703,20 13.9980218,20 C14.2710188,20 14.5222552,20.1038062 14.7131553,20.2956006 L14.7131553,20.2956006 Z" id="Fill-116" fill="#00ADEE"></path>
                </g>
                <g id="Logo" transform="translate(136.000000, 0.000000)">
                    <polygon id="Fill-1" fill="#00AEEF" points="5.00968007 1 5.00968007 7.94668935 0 7.94668935 0 19.0533106 5.00968007 19.0533106 5.00968007 26 12.9908121 26 12.9908121 19.0533106 18 19.0533106 18 7.94668935 12.9908121 7.94668935 12.9908121 1"></polygon>
                    <path d="M4.2983589,11 L7.42811133,11.4557558 C8.01601293,11.5774839 8.0837585,12.4339281 7.92831491,12.9476497 L5.78319327,19 L5.78736936,18.9913051 C4.69880017,17.708088 4,15.7111675 4,13.4715153 C4,12.6020288 4.10625846,11.7673218 4.29928693,11 L4.2983589,11 Z" id="Fill-2" fill="#FFFFFF"></path>
                    <path d="M5.12934433,12 L7.81507952,12.3063014 C8.00857023,12.3238429 8.02381814,12.4270679 7.97912599,12.5653758 L6.09784946,17 C5.41327092,16.0176764 5,14.7378222 5,13.3372015 C5,12.8770746 5.04521794,12.4297666 5.12934433,12" id="Fill-4" fill="#00AEEF"></path>
                    <path d="M13.7020806,11 L10.5716064,11.4557558 C9.9836564,11.5774839 9.91590525,12.4339281 10.0722897,12.9476497 L12.2166599,19 L12.2134116,18.9913051 C13.3011423,17.708088 14,15.7111675 14,13.4715153 C14,12.6020288 13.8941968,11.7673218 13.7011525,11 L13.7020806,11 Z" id="Fill-6" fill="#FFFFFF"></path>
                    <path d="M9.50049396,6 C7.50834248,6 5.79034029,7.63711266 5,10 L8.533809,10 C9.0381449,9.98567079 9.2604281,9.57442235 9.26981339,9.23768583 C9.28315038,8.84005015 9.23819978,8.71395307 9.00257958,8.28980835 C8.74621295,7.81336199 8.92354555,6.8984417 9.50049396,6.88267956 C10.0764544,6.8984417 10.254281,7.81336199 9.99692645,8.28980835 C9.76229418,8.71395307 9.71783754,8.84005015 9.73018661,9.23768583 C9.74055982,9.57442235 9.96136114,9.98567079 10.465697,10 L14,10 C13.2091658,7.63711266 11.4921515,6 9.50049396,6" id="Fill-8" fill="#FFFFFF"></path>
                    <path d="M13.8706492,12 L11.1853063,12.3063014 C10.9907543,12.3238429 10.9765573,12.4270679 11.0207258,12.5653758 L12.9020959,17 C13.5867085,16.0176764 14,14.7378222 14,13.3372015 C14,12.8770746 13.9547798,12.4297666 13.8706492,12" id="Fill-10" fill="#00AEEF"></path>
                    <path d="M10.1886881,7 C10.4108179,7.63243243 10.231639,8.45482625 10.0212231,8.84478764 C9.98261074,8.91196911 10.0021339,8.98223938 10.0364078,9 L12,9 C11.5292758,8.05868726 10.9028005,7.35366795 10.1886881,7" id="Fill-12" fill="#00AEEF"></path>
                    <path d="M9.00027137,20 C10.1080054,20 11.139213,19.608417 11.9994573,18.9366553 L12,18.941325 L9.34056988,14.2349909 C9.15386703,13.9341324 8.85590231,13.90945 8.65943012,14.2349909 L6,18.941325 L6,18.9366553 C6.86078697,19.608417 7.89199457,20 9.00027137,20" id="Fill-14" fill="#FFFFFF"></path>
                    <g id="Group-18" transform="translate(20.000000, 0.000000)">
                        <mask id="mask-4" fill="white">
                            <use xlink:href="#path-3"></use>
                        </mask>
                        <g id="Clip-17"></g>
                        <path d="M8.16096958,25.8735102 C11.8241125,23.1957031 14.0455575,18.9378323 15.1891169,14.260615 C16.3764589,9.40664232 16.1794373,3.66889313 14.8034132,0.091566087 C12.7117523,1.4855715 10.6070609,2.18257421 8.16096958,2.19187712 C5.71539948,2.20404247 3.60966564,1.4855715 1.51748354,0.091566087 C0.142501889,3.66889313 -0.0555621851,9.40664232 1.13230104,14.260615 C2.27638168,18.9378323 4.49730542,23.1957031 8.16096958,25.8735102" id="Fill-16" fill="#00AEEF" mask="url(#mask-4)"></path>
                    </g>
                    <path d="M28.9963344,24 C31.8066889,21.5233309 33.3036665,17.9727207 34.2629562,13.9662599 C35.1139312,10.4091888 35.3213321,6.24838478 34.3858425,3 C32.9811509,3.68557071 32.1588332,3.89734386 31.3943158,4.06676238 C30.6827414,4.22613065 30.0449959,4.32017229 29.0036201,4.34099067 L28.9963344,4.34099067 C27.9530157,4.32017229 27.3176988,4.22613065 26.605153,4.06676238 C25.8411212,3.89734386 25.0183178,3.68557071 23.614112,3 C22.6786224,6.24838478 22.8860232,10.4091888 23.7374839,13.9662599 C24.6962879,17.9727207 26.1937513,21.5233309 29.0036201,24 L28.9963344,24 Z" id="Fill-19" fill="#FFFFFF"></path>
                    <path d="M28.4980747,23 C30.4680421,21.278343 32.7023839,17.3699128 33.5957177,12.2274709 C34.0690739,9.49854651 34.2010093,6.43459302 33.5841356,4 C32.7023839,4.32994186 31.8780391,4.59883721 31.0265016,4.75944767 C30.1744605,4.9193314 29.3324909,5.03343023 28.503614,5.04142442 L28.4960604,5.04142442 C27.6671836,5.03343023 26.8257175,4.9193314 25.9731728,4.75944767 C25.1216353,4.59883721 24.2982977,4.32994186 23.4160424,4 C22.7991687,6.43459302 22.9306006,9.49854651 23.4044603,12.2274709 C24.296787,17.3699128 26.5321359,21.278343 28.5026069,23 L28.4980747,23 Z" id="Fill-21" fill="#00AEEF"></path>
                    <path d="M26.7583523,6.25892873 C26.0626038,6.75323414 25.8227994,7.91507584 26.1341245,8.85515213 C26.4049562,9.66381187 26.9397833,10.2059051 27.5613817,10.4605247 C27.8721808,10.5837277 28.1882389,10.6173285 28.5106076,10.6389824 C28.9044969,10.6643696 29.2615742,10.6807967 29.6402128,10.8122132 C29.7206735,10.8398406 29.8095484,10.9062955 29.8510934,11.0130715 C29.9531155,11.2706778 29.8610853,11.5574048 29.6612482,11.6380467 C29.6570412,12.0897911 29.6275915,13 29.6275915,13 C29.6275915,13 31.2410126,12.7894349 30.9691291,10.8054931 C30.9028673,10.3291081 30.6288802,9.8452563 30.3170293,9.62423757 C29.5082151,9.05377031 28.6189403,9.30390975 27.7896166,8.93430073 C27.5103706,8.81035103 27.1217402,8.62069307 27.0454866,8.19358931 C27.0149851,8.0211051 27.0428571,7.67688336 27.1722253,7.62162867 C27.3815283,7.53277317 27.6129186,7.77096565 27.9163553,7.86654132 C28.1083041,7.92627611 28.2986752,7.92627611 28.4490788,7.8628079 C28.5158665,7.83742061 28.6131556,7.80083305 28.6226215,7.74707174 C28.6131556,7.70227064 28.5395314,7.65896292 28.5006157,7.63357563 C28.406482,7.56712068 28.3097188,7.5365066 28.2087485,7.48423865 C28.0409906,7.39538315 27.8737585,7.28711384 27.7054747,7.15793735 C27.8648184,7.11462963 28.1303913,7.10342935 28.2886833,7.12881664 C28.4164738,7.14823045 28.8077337,7.14300365 28.9239547,7.10044262 C28.9497232,7.09073571 29.0075708,7.061615 28.9823282,7.00113352 C28.9371019,6.89734432 28.8613742,6.85702334 28.8077337,6.76219436 C28.6936163,6.54789579 28.5952754,6.3298638 28.4117409,6.23279476 C27.8795433,5.9542813 27.2879204,5.88259955 26.7583523,6.25892873" id="Fill-23" fill="#FFFFFF"></path>
                    <path d="M28.9930661,13 L29,11.0960632 C29,11.0960632 28.8405197,11.0450868 28.6174783,11.0217482 C28.327409,10.9934963 28.1956644,11.0008664 28.1956644,11.0008664 L28.1948939,11.1599372 C28.1948939,11.1599372 28.0542893,11.251449 28.0334875,11.3085671 C28.023857,11.3349766 27.9872613,11.407449 28.0045961,11.4774647 C28.1186207,11.9503781 28.2765602,12.4060946 28.3224012,12.9084882 C28.5381234,12.9570079 28.7295768,12.9447244 28.9930661,13" id="Fill-25" fill="#FFFFFF"></path>
                    <path d="M27.0071625,12.9657238 C26.9406728,13.7750416 27.3474914,14.208985 27.7961739,14.3480865 C28.1517708,14.4579035 28.4965323,14.4805324 28.8664122,14.5384359 C28.9132013,14.5464226 29.0121971,14.5484193 29.0870596,14.5896839 C29.1530568,14.6269551 29.1855629,14.678203 29.1983683,14.7314476 C29.2151139,14.8073211 29.2082186,14.8658902 29.1707874,14.9271215 C29.130401,14.9903494 29.0240175,15.0269551 29.0240175,15.0269551 L29.0028393,16 C29.0028393,16 29.3042593,15.9853577 29.5485475,15.7930116 C29.7790452,15.6126456 29.9233526,15.3823627 29.9745743,15.0928453 C30.0341688,14.7567388 29.9927974,14.4292845 29.8100738,14.1011647 C29.6898997,13.8868552 29.4791027,13.7311148 29.264858,13.6332779 C28.8240558,13.4336106 28.3458223,13.4622296 27.8882745,13.3790349 C27.8178446,13.3643927 27.7548025,13.2951747 27.7483998,13.2133111 C27.7365794,13.0635607 27.8444405,12.9916805 27.8444405,12.9916805 C27.8444405,12.9916805 27.7902637,12.7613977 27.7321467,12.5357737 C27.6804325,12.3647255 27.6080326,12.1251248 27.5543483,12 C27.2440629,12.1730449 27.0421311,12.5477537 27.0071625,12.9657238" id="Fill-27" fill="#FFFFFF"></path>
                    <path d="M29,15.0998553 L28.982808,17 L28.4928367,16.7807525 L28.0100287,16.5861071 L28,15 C28.4340974,15.0513748 28.6310888,15.0557164 29,15.0998553" id="Fill-29" fill="#FFFFFF"></path>
                    <path d="M28.0563174,16.6145929 C27.8959608,17.2402132 28.0972687,17.8511303 28.4175508,18.1099063 C28.5848044,18.2451755 28.804217,18.3664768 28.9852648,18.4811616 C29.1611398,18.5929057 29.4736627,18.9090241 29.4973713,19.0641426 C29.5120275,19.1567727 29.4452123,19.2471972 29.4452123,19.2471972 L29.4378842,20 C29.4378842,20 29.6292775,19.9345709 29.7710982,19.7441647 C29.9034355,19.5633156 30.0008565,19.3280647 29.9999943,18.9509281 C29.9982701,18.5414446 29.8810201,18.2201801 29.5245284,17.8761257 C29.2469219,17.6063224 28.9106904,17.3945966 28.6494643,17.2049256 C28.6119616,17.1777247 28.5779074,17.0549531 28.5921325,16.9807021 C28.6067888,16.9005697 28.6382566,16.8711634 28.6382566,16.8711634 L28.6309285,16 C28.6309285,16 28.4300517,16.0661643 28.3352172,16.1580592 C28.2477107,16.2418673 28.1158045,16.383753 28.0563174,16.6145929" id="Fill-31" fill="#FFFFFF"></path>
                    <path d="M28.9987109,18.50531 C29.0063089,18.4484961 28.9792938,18.4418121 28.9446809,18.4023765 C28.7918773,18.2807278 28.5681593,18.1965095 28.5166619,18.1724471 C28.3554161,18.0995915 28,18 28,18 C28,18 28.0253266,19.7953211 28.0675375,20.7230597 C28.0768239,20.9349424 28.2330044,20.9890827 28.4955565,20.9991087 C28.8222691,21.0131451 28.9168217,20.8580764 28.9201985,20.7678425 C28.9345503,20.4710731 28.9818265,19.1817304 28.9987109,18.50531" id="Fill-33" fill="#FFFFFF"></path>
                    <path d="M29.2406784,6.5328773 C29.3197134,6.6125996 29.3197134,6.61738293 29.344163,6.77363864 C29.3964739,7.11485007 29.3407515,7.6505839 29.390788,7.88735913 C29.417512,7.96389253 29.4743717,7.96070364 29.5164479,7.92961194 C29.8678408,7.67370337 30.1060829,7.23204184 30.4620245,7.02795276 C30.6286234,6.93148878 31.0914613,7.24639186 30.9839964,7.71515896 C30.9339599,7.93598973 30.8600423,7.97027032 30.7588321,8.11058156 C30.5512942,8.40316239 30.2584668,8.67581265 30.0037354,9.05369633 C29.8303134,9.30960491 29.6216383,9.49535786 29.488018,9.78235813 C29.4453733,9.87403877 29.3748673,10 29.3748673,10 C28.8818938,9.86367487 28.3855087,9.88838878 28.0011372,9.78076368 L28,9.00905185 C28,9.00905185 28.3923318,8.91976287 28.4662494,8.65907096 C28.4713668,8.63914039 28.4605635,8.54905419 28.4031352,8.49245136 C28.337178,8.42389019 28.2206156,8.35532901 28.1864998,8.33858733 C28.5788316,8.42070129 28.8238969,8.50919304 29.2042882,8.73480714 C29.2287379,8.67820431 29.2150915,8.55304031 29.1860931,8.50919304 C29.1337822,8.4278763 29.1064895,8.40156794 28.9711635,8.35931513 C28.7391759,8.27720116 28.1080334,8.17276495 28.1080334,8.17276495 C28.1080334,8.17276495 28.3997236,8.17037328 28.6442203,8.11456767 C28.763057,8.08905654 28.8608557,8.06195096 28.8875797,8.00534813 C28.9160096,7.92323416 28.8642673,7.79886738 28.7806835,7.67848671 C28.724961,7.59876441 28.6618468,7.515056 28.6157904,7.43294203 C28.5589307,7.32611416 28.4639751,7.13159175 28.3604904,7.00722497 C28.2723579,6.89959987 28.0488993,6.74493861 28.0488993,6.74493861 C28.0488993,6.74493861 28.0102347,6.33117989 28.0722118,6.16535751 C28.1182682,6.04178795 28.2376735,5.9708351 28.3002192,6.01149348 C28.5833804,6.22435201 28.8619929,6.44518277 29.2406784,6.5328773" id="Fill-35" fill="#FFFFFF"></path>
                    <path d="M27.9018987,7.35289474 C27.8006329,7.45473684 27.7294304,7.55894737 27.6170886,7.58618421 C27.3931962,7.63828947 27.4240506,7.35763158 27.2697785,7.19776316 C27.1748418,7.10539474 27.085443,7.22973684 27,7 C27.3259494,7.01539474 27.7539557,6.97276316 28,7.32921053 C27.9691456,7.30907895 27.9161392,7.3375 27.9018987,7.35289474" id="Fill-37" fill="#00AEEF"></path>
                    <path d="M8.91881919,15.0547737 C8.96423503,14.9834827 9.0278172,14.980022 9.08004542,15.0547737 L11,18.5023478 C10.3897247,18.8221187 9.71132557,19 9.0005677,19 C8.28810673,19 7.61027533,18.8221187 7,18.5023478 L8.91881919,15.0547737 C8.9727505,14.980022 9.03519728,14.9834827 9.08004542,15.0547737" id="Fill-39" fill="#00AEEF"></path>
                    <path d="M28.0168568,19.2678694 C27.9325329,19.4059125 27.7911517,19.6885722 27.7664099,20.1388556 C27.743688,20.539838 27.8032701,20.6532305 27.8673966,20.8693337 C27.9209195,21.0484611 28.045133,21.0377792 28.0885573,20.8717988 C28.1244075,20.7362207 28.0729043,20.6113246 28.105725,20.3188047 C28.1294568,20.1010581 28.2385224,19.9802704 28.2385224,19.9802704 L28.2274138,19 C28.2274138,19 28.1309716,19.0821685 28.0168568,19.2678694" id="Fill-41" fill="#FFFFFF"></path>
                    <path d="M7.81177249,7 C7.58996709,7.63243243 7.76966853,8.45482625 7.97888615,8.84478764 C8.01751762,8.91196911 7.9975508,8.98223938 7.963694,9 L6,9 C6.46965449,8.05868726 7.09730735,7.35366795 7.81177249,7" id="Fill-43" fill="#00AEEF"></path>
                    <path d="M32.8107031,23.5538462 L32.8107031,23.9272189 L32.9917449,23.9272189 C33.185881,23.9272189 33.2775406,23.8798817 33.2775406,23.7455621 C33.2775406,23.6094675 33.185881,23.5538462 32.9877597,23.5538462 L32.8107031,23.5538462 Z M33.4972958,23.7242604 C33.4972958,23.8857988 33.4022203,23.9970414 33.2388272,24.0313609 L33.4916026,24.5473373 L33.2524907,24.5473373 L33.0224879,24.0627219 L32.8107031,24.0627219 L32.8107031,24.5473373 L32.5972104,24.5473373 L32.5972104,23.4136095 L33.0247652,23.4136095 C33.341873,23.4136095 33.4972958,23.5189349 33.4972958,23.7242604 L33.4972958,23.7242604 Z M33.6191289,23.3881657 C33.4528893,23.2183432 33.2388272,23.1301775 32.999146,23.1301775 C32.7662966,23.1301775 32.5539425,23.216568 32.3951039,23.3775148 C32.224879,23.5508876 32.1309422,23.7710059 32.1309422,24 C32.1309422,24.2284024 32.2231711,24.4414201 32.3865642,24.6088757 C32.549388,24.7745562 32.7691432,24.8662722 32.9917449,24.8662722 C33.2268716,24.8662722 33.441503,24.7769231 33.6140051,24.6112426 C33.7779675,24.4538462 33.8662112,24.239645 33.8662112,24.008284 C33.8662112,23.7650888 33.7796755,23.5508876 33.6191289,23.3881657 L33.6191289,23.3881657 Z M33.7102192,23.2964497 C33.8946769,23.483432 34,23.7337278 34,24 C34,24.2745562 33.8963849,24.5213018 33.7079419,24.7017751 C33.5098207,24.8952663 33.2576146,25 32.9968688,25 C32.7298605,25 32.4827783,24.8952663 32.2920581,24.7 C32.1024765,24.5100592 32,24.264497 32,24 C32,23.7366864 32.1093083,23.4810651 32.3023057,23.283432 C32.4861941,23.0964497 32.7281526,23 32.9968688,23 C33.2690009,23 33.519499,23.1017751 33.7102192,23.2964497 L33.7102192,23.2964497 Z" id="Fill-45" fill="#00AEEF"></path>
                    <path d="M14.8118417,23.5538462 L14.8118417,23.9272189 L14.9917449,23.9272189 C15.1864503,23.9272189 15.2764019,23.8798817 15.2764019,23.7455621 C15.2764019,23.6094675 15.1864503,23.5538462 14.9860518,23.5538462 L14.8118417,23.5538462 Z M15.4972958,23.7242604 C15.4972958,23.8857988 15.4022203,23.9970414 15.2388272,24.0313609 L15.4916026,24.5473373 L15.2524907,24.5473373 L15.0219186,24.0627219 L14.8118417,24.0627219 L14.8118417,24.5473373 L14.5972104,24.5473373 L14.5972104,23.4136095 L15.0247652,23.4136095 C15.341873,23.4136095 15.4972958,23.5189349 15.4972958,23.7242604 L15.4972958,23.7242604 Z M15.6185596,23.3881657 C15.45232,23.2183432 15.2388272,23.1301775 15.0002847,23.1301775 C14.7662966,23.1301775 14.5539425,23.216568 14.3939653,23.3775148 C14.2254483,23.5508876 14.1309422,23.7710059 14.1309422,24 C14.1309422,24.2284024 14.2226018,24.4414201 14.3859949,24.6088757 C14.5505266,24.7745562 14.7697125,24.8662722 14.9917449,24.8662722 C15.2280102,24.8662722 15.441503,24.7769231 15.6140051,24.6112426 C15.7768289,24.4538462 15.8673498,24.239645 15.8673498,24.008284 C15.8673498,23.7650888 15.7802448,23.5508876 15.6185596,23.3881657 L15.6185596,23.3881657 Z M15.7113578,23.2964497 C15.8941076,23.483432 16,23.7337278 16,24 C16,24.2745562 15.8969542,24.5213018 15.7079419,24.7017751 C15.5115286,24.8952663 15.2581839,25 14.9974381,25 C14.7304298,25 14.4833476,24.8952663 14.2926274,24.7 C14.1024765,24.5100592 14,24.264497 14,24 C14,23.7366864 14.108739,23.4810651 14.3017364,23.283432 C14.4861941,23.0964497 14.7287219,23 14.9974381,23 C15.2701395,23 15.519499,23.1017751 15.7113578,23.2964497 L15.7113578,23.2964497 Z" id="Fill-47" fill="#00AEEF"></path>
                    <polygon id="Fill-49" fill="#231F20" points="49.0286476 21 43.2045062 9.98506938 43.2045062 21 41 21 41 5 43.2405771 5 48.7960165 15.4816441 48.7960165 5 51 5 51 21"></polygon>
                    <path d="M53,12.5252482 C53,7.42943223 55.2247358,4 58.5373184,4 C59.8951453,4 60.947325,4.45230417 61.8132431,5.1909955 L61.4912483,8.16668081 C60.7263871,7.35801579 59.7752642,6.713825 58.6388705,6.713825 C56.5662153,6.713825 55.2926024,8.92773487 55.2926024,12.5007214 C55.2926024,16.1184333 56.6509247,18.2616481 58.7235799,18.2616481 C59.8099406,18.2616481 60.7942536,17.7162862 61.6953435,16.8816515 L62,19.5954765 C61.0662153,20.4301112 59.8778071,21 58.5531704,21 C55.1400264,21 53,17.6203429 53,12.5252482 Z" id="Fill-51" fill="#231F20"></path>
                </g>
            </g>
        </g>
    </g>
</svg>