<?xml version="1.0" encoding="UTF-8"?>
<svg width="223px" height="47px" viewBox="0 0 223 47" version="1.1" xmlns="http://www.w3.org/2000/svg" xmlns:xlink="http://www.w3.org/1999/xlink">
    <!-- Generator: Sketch 61.2 (89653) - https://sketch.com -->
    <title>incorrect-white-text</title>
    <desc>Created with Sketch.</desc>
    <defs>
        <polygon id="path-1" points="0.122944218 0.559091156 5.93834014 0.559091156 5.93834014 7.82717279 0.122944218 7.82717279"></polygon>
        <polygon id="path-3" points="0.483202335 25.873224 21.9586248 25.873224 21.9586248 0.091566087 0.483202335 0.091566087"></polygon>
    </defs>
    <g id="Logos" stroke="none" stroke-width="1" fill="none" fill-rule="evenodd">
        <g id="Artboard" transform="translate(-746.000000, -740.000000)">
            <g id="incorrect-white-text" transform="translate(746.000000, 740.000000)">
                <g id="centered-inverse-blue">
                    <path d="M2.5612517,31.9470367 L2.5612517,34.628234 L2.58296599,35.4254585 L3.34606803,35.4254585 C3.69866667,35.4047782 4.07504762,35.3727238 4.39352381,35.0645878 C4.81229932,34.6385741 4.81229932,33.9137306 4.81229932,33.6614313 C4.81229932,32.8838531 4.63651701,32.4733497 4.3242449,32.2293224 C4.09159184,32.046302 3.68936054,31.9387646 3.07619048,31.9470367 L2.5612517,31.9470367 Z M2.58296599,28.9018667 L2.57055782,29.5987918 L2.5612517,31.6544109 L3.22819048,31.6544109 C3.66971429,31.6544109 4.02334694,31.5158531 4.16293878,31.3328327 C4.33561905,31.1312 4.42454422,30.7972136 4.42454422,30.2729687 C4.42454422,29.1334857 4.07504762,28.923581 3.29746939,28.9018667 L2.58296599,28.9018667 Z M2.79776202e-14,28.5999347 L3.99336054,28.5999347 C4.39352381,28.6102748 4.83918367,28.6319891 5.2517551,28.8139755 C6.02106122,29.1862204 6.04070748,29.9400163 6.04070748,30.1023565 C6.04070748,30.5056218 5.89904762,30.8768327 5.60538776,31.1704925 C5.1297415,31.665785 4.50623129,31.7350639 4.05333333,31.7867646 C4.54655782,31.8064109 5.34068027,31.8477714 5.95695238,32.4733497 C6.19994558,32.7029007 6.49463946,33.1165061 6.49463946,33.7700027 C6.49463946,34.2373769 6.34160544,34.7223293 5.95695238,35.1028463 C5.38514286,35.6756898 4.65616327,35.6963701 4.03265306,35.7160163 L2.79776202e-14,35.7160163 L2.79776202e-14,35.4575129 L0.978176871,35.4575129 L0.997823129,34.4576218 L0.997823129,29.6980571 L0.978176871,28.8625741 L2.79776202e-14,28.8625741 L2.79776202e-14,28.5999347 Z" id="Fill-1" fill="#FFFFFF"></path>
                    <path d="M8.10490884,28.5996245 C8.5805551,28.5934204 8.72221497,28.5934204 9.16477279,28.559298 L9.14512653,29.6791347 L9.14512653,34.6496381 L9.16477279,35.4572027 L9.86066395,35.4572027 L9.86066395,35.7157061 L6.91682721,35.7157061 L6.91682721,35.4572027 L7.67269116,35.4572027 L7.69233741,34.6496381 L7.69233741,29.6791347 L7.67269116,28.8622639 L6.91682721,28.8622639 L6.91682721,28.5996245 L8.10490884,28.5996245 Z" id="Fill-3" fill="#FFFFFF"></path>
                    <path d="M11.0312707,30.839298 C11.5534476,30.8299918 11.7137197,30.8299918 12.2079782,30.7969034 L12.188332,31.7347537 L12.188332,33.9920054 C12.188332,34.3766585 12.2079782,34.6692844 12.2896653,34.870917 C12.417883,35.1821551 12.6918966,35.323815 13.025883,35.323815 C13.3185088,35.323815 13.5718422,35.2142095 13.7631347,35.0322231 C14.1550259,34.6382639 14.1436517,34.1160871 14.1436517,33.6693932 L14.1436517,31.8774476 L14.1240054,31.1009034 L13.3784816,31.1009034 L13.3784816,30.839298 L14.244985,30.839298 C14.8281687,30.8299918 15.001883,30.8299918 15.5850667,30.7969034 L15.5654204,31.7347537 L15.5654204,34.5296925 L15.5850667,35.4447946 L16.3140463,35.4447946 L16.3140463,35.7157061 L15.5447401,35.7157061 C14.8995156,35.7157061 14.6689306,35.7291483 14.1829442,35.7581007 L14.1550259,34.9825905 C13.940985,35.2441959 13.4487946,35.8263456 12.3103456,35.8263456 C11.5658558,35.8263456 11.0902095,35.5461279 10.896849,35.1614748 C10.746917,34.8791891 10.7562231,34.5152163 10.7562231,34.2153524 L10.7562231,31.8371211 L10.7365769,31.1009034 L10.0003592,31.1009034 L10.0003592,30.839298 L11.0312707,30.839298 Z" id="Fill-5" fill="#FFFFFF"></path>
                    <path d="M20.1081524,32.6912163 C20.1164245,31.9064 20.1257306,30.9799238 19.2189007,30.9799238 C18.3627374,30.9799238 18.3203429,31.8371211 18.2903565,32.6912163 L20.1081524,32.6912163 Z M21.5785197,34.3053116 C21.3148463,34.7985361 20.7730231,35.8263456 19.2478531,35.8263456 C17.6833905,35.8263456 16.7279619,34.6279238 16.7279619,33.2278694 C16.7279619,31.8877878 17.6327238,30.6997061 19.2602612,30.6997061 C20.2642884,30.6997061 20.8195537,31.1308898 21.063581,31.3821551 C21.6167782,31.9570667 21.6374585,32.5629986 21.6498667,32.9952163 L18.2810503,32.9952163 C18.2903565,33.8524136 18.3100027,34.6279238 18.7349823,35.0735837 C18.9655673,35.3145088 19.3016218,35.4148082 19.6314721,35.4148082 C20.7182204,35.4148082 21.1318259,34.5007401 21.2745197,34.1729578 L21.5785197,34.3053116 Z" id="Fill-7" fill="#FFFFFF"></path>
                    <path d="M28.7366857,35.2147265 C27.9890939,35.4846041 27.0636517,35.8185905 25.9034884,35.8185905 C23.8271891,35.8185905 22.2844408,34.3265088 22.2844408,32.1478422 C22.2844408,29.8006313 24.0619102,28.4388354 26.0647946,28.4388354 C26.6810667,28.4388354 27.6292571,28.5794612 28.6953252,29.0426993 L28.6953252,31.0486857 L28.3840871,31.0486857 C28.3344544,30.6671347 28.2517333,30.0394884 27.6385633,29.4273524 C27.162917,28.9548082 26.6210939,28.7821279 26.1464816,28.7821279 C25.6129306,28.7821279 25.0773116,29.0034068 24.7247129,29.3560054 C24.2211483,29.8595701 23.9988354,30.6671347 23.9988354,32.1385361 C23.9988354,33.5582367 24.1725497,34.4392163 24.6957605,34.9738014 C24.9863184,35.2746993 25.4495565,35.5166585 26.0048218,35.5166585 C26.5373388,35.5166585 27.1722231,35.3046857 27.6881959,34.7597605 C28.2941279,34.1341823 28.3623728,33.6006313 28.4026993,33.2170122 L28.7366857,33.2170122 L28.7366857,35.2147265 Z" id="Fill-9" fill="#FFFFFF"></path>
                    <path d="M31.7357388,35.4569959 L32.4833306,35.4569959 L32.4833306,35.7154993 L29.5250177,35.7154993 L29.5250177,35.4569959 L30.2633034,35.4569959 L30.2829497,34.6380571 L30.2829497,31.9889143 L30.2633034,31.1006966 L29.5250177,31.1006966 L29.5250177,30.8390912 L30.6551946,30.8390912 C31.1205007,30.829785 31.2725007,30.829785 31.6933442,30.7966966 L31.7140245,31.5639347 L31.7140245,31.7862476 C31.7853714,31.5639347 31.8567184,31.3716082 32.0759293,31.1523973 C32.3106503,30.9094041 32.6394667,30.749132 33.0034395,30.749132 C33.650732,30.749132 33.9226776,31.2609687 33.9226776,31.7149007 C33.9226776,32.3301388 33.5194122,32.4314721 33.2970993,32.4314721 C33.195766,32.4314721 32.6694531,32.3787374 32.6694531,31.7655673 C32.6694531,31.7149007 32.7046095,31.4626014 32.7046095,31.4109007 C32.7046095,31.2020299 32.5495075,31.2020299 32.5226231,31.2020299 C32.3892354,31.2020299 32.209317,31.362302 32.0759293,31.5639347 C31.7429769,32.0974857 31.7233306,32.8843701 31.7140245,33.4375673 L31.7140245,34.6380571 L31.7357388,35.4569959 Z" id="Fill-11" fill="#FFFFFF"></path>
                    <path d="M35.6961143,33.0558095 C35.6961143,34.6378503 35.7964136,35.5457143 36.7642503,35.5457143 C37.7424272,35.5457143 37.8127401,34.6285442 37.8127401,33.2977687 C37.8127401,32.0776327 37.7527673,30.9588299 36.7539102,30.9691701 C35.8181279,30.9691701 35.6961143,31.9266667 35.6961143,33.0558095 M39.3565224,33.2977687 C39.3565224,34.8901497 38.0857197,35.826966 36.7249578,35.826966 C35.2401143,35.826966 34.1647401,34.7588299 34.1647401,33.2564082 C34.1647401,31.6733333 35.3114612,30.7272109 36.7042776,30.7065306 C38.338019,30.6775782 39.3565224,31.8367075 39.3565224,33.2977687" id="Fill-13" fill="#FFFFFF"></path>
                    <path d="M40.3733714,33.8616163 C40.414732,34.1542422 40.4457524,34.3962014 40.6060245,34.6991673 C40.7662966,35.0217796 41.177834,35.5263782 41.8944054,35.5263782 C42.4920653,35.5263782 42.8849905,35.1934259 42.8849905,34.7901605 C42.8849905,34.3331265 42.4413986,34.1542422 41.7951401,33.9236571 C40.8996844,33.5907048 40.1417524,33.3208272 40.1417524,32.2464871 C40.1417524,30.9798204 41.253317,30.6892626 41.9471401,30.6892626 C42.5024054,30.6892626 42.9563374,30.8474667 43.4288816,31.0098068 L43.4485279,32.3209361 L43.1434939,32.3209361 C43.1073034,32.1193034 43.0649088,31.939385 42.9956299,31.7760109 C42.8653442,31.5030313 42.4786231,31.0191129 41.8365007,31.0191129 C41.2926095,31.0191129 41.0485823,31.3830857 41.0485823,31.636419 C41.0485823,31.9466231 41.3122558,32.0769088 41.4239293,32.1286095 C41.5821333,32.1999565 42.3793578,32.4925823 42.5603102,32.5628952 C43.1755483,32.8141605 43.8104327,33.155385 43.8104327,34.0859973 C43.8104327,35.1417252 42.9842558,35.8386503 41.7744599,35.8386503 C41.1106231,35.8386503 40.6060245,35.657698 40.0807456,35.4653714 L40.0600653,33.8616163 L40.3733714,33.8616163 Z" id="Fill-15" fill="#FFFFFF"></path>
                    <path d="M44.9901388,33.8616163 C45.0294313,34.1542422 45.0614857,34.3962014 45.2238259,34.6991673 C45.384098,35.0217796 45.7966694,35.5263782 46.5142748,35.5263782 C47.1077986,35.5263782 47.5027918,35.1934259 47.5027918,34.7901605 C47.5027918,34.3331265 47.0550639,34.1542422 46.4098395,33.9236571 C45.5195537,33.5907048 44.7595537,33.3208272 44.7595537,32.2464871 C44.7595537,30.9798204 45.8680163,30.6892626 46.5649415,30.6892626 C47.1171048,30.6892626 47.5710367,30.8474667 48.043581,31.0098068 L48.0652952,32.3209361 L47.7643973,32.3209361 C47.7251048,32.1193034 47.6827102,31.939385 47.6113633,31.7760109 C47.4790095,31.5030313 47.0984925,31.0191129 46.452234,31.0191129 C45.9093769,31.0191129 45.6684517,31.3830857 45.6684517,31.636419 C45.6684517,31.9466231 45.9269551,32.0769088 46.0375946,32.1286095 C46.2020027,32.1999565 46.9950912,32.4925823 47.1770776,32.5628952 C47.7923156,32.8141605 48.4272,33.155385 48.4272,34.0859973 C48.4272,35.1417252 47.6020571,35.8386503 46.3912272,35.8386503 C45.7263565,35.8386503 45.2238259,35.657698 44.6985469,35.4653714 L44.6799347,33.8616163 L44.9901388,33.8616163 Z" id="Fill-17" fill="#FFFFFF"></path>
                    <path d="M54.4780408,31.9470367 L54.4780408,34.628234 L54.4976871,35.4254585 L55.2649252,35.4254585 C55.6195918,35.4047782 55.9918367,35.3727238 56.312381,35.0645878 C56.7259864,34.6385741 56.7259864,33.9137306 56.7259864,33.6614313 C56.7259864,32.8838531 56.5543401,32.4733497 56.241034,32.2293224 C56.010449,32.046302 55.6082177,31.9387646 54.9940136,31.9470367 L54.4780408,31.9470367 Z M54.4976871,28.9018667 L54.4873469,29.5987918 L54.4780408,31.6544109 L55.1449796,31.6544109 C55.5865034,31.6544109 55.939102,31.5158531 56.0817959,31.3328327 C56.2534422,31.1312 56.3434014,30.7972136 56.3434014,30.2729687 C56.3434014,29.1334857 55.9918367,28.923581 55.2152925,28.9018667 L54.4976871,28.9018667 Z M51.9167891,28.5999347 L55.9091156,28.5999347 C56.312381,28.6102748 56.7559728,28.6319891 57.1706122,28.8139755 C57.9368163,29.1862204 57.9543946,29.9400163 57.9543946,30.1023565 C57.9543946,30.5056218 57.8168707,30.8768327 57.5221769,31.1704925 C57.0485986,31.665785 56.4240544,31.7350639 55.9690884,31.7867646 C56.4612789,31.8064109 57.2605714,31.8477714 57.8747755,32.4733497 C58.1177687,32.7029007 58.4114286,33.1165061 58.4114286,33.7700027 C58.4114286,34.2373769 58.2563265,34.7223293 57.8747755,35.1028463 C57.300898,35.6756898 56.5739864,35.6963701 55.9484082,35.7160163 L51.9167891,35.7160163 L51.9167891,35.4575129 L52.894966,35.4575129 L52.9156463,34.4576218 L52.9156463,29.6980571 L52.894966,28.8625741 L51.9167891,28.8625741 L51.9167891,28.5999347 Z" id="Fill-19" fill="#FFFFFF"></path>
                    <path d="M60.2741007,28.5996245 C60.750781,28.5934204 60.8914068,28.5934204 61.3339646,28.559298 L61.3143184,29.6791347 L61.3143184,34.6496381 L61.3339646,35.4572027 L62.0288218,35.4572027 L62.0288218,35.7157061 L59.0870531,35.7157061 L59.0870531,35.4572027 L59.841883,35.4572027 L59.8635973,34.6496381 L59.8635973,29.6791347 L59.841883,28.8622639 L59.0870531,28.8622639 L59.0870531,28.5996245 L60.2741007,28.5996245 Z" id="Fill-21" fill="#FFFFFF"></path>
                    <path d="M63.2014966,30.839298 C63.7226395,30.8299918 63.8849796,30.8299918 64.3771701,30.7969034 L64.3585578,31.7347537 L64.3585578,33.9920054 C64.3585578,34.3766585 64.3771701,34.6692844 64.4567891,34.870917 C64.5891429,35.1821551 64.8621224,35.323815 65.1961088,35.323815 C65.4877007,35.323815 65.736898,35.2142095 65.9302585,35.0322231 C66.3252517,34.6382639 66.3149116,34.1160871 66.3149116,33.6693932 L66.3149116,31.8774476 L66.2921633,31.1009034 L65.5466395,31.1009034 L65.5466395,30.839298 L66.4141769,30.839298 C66.9994286,30.8299918 67.1710748,30.8299918 67.7563265,30.7969034 L67.7346122,31.7347537 L67.7346122,34.5296925 L67.7563265,35.4447946 L68.4801361,35.4447946 L68.4801361,35.7157061 L67.7118639,35.7157061 C67.0687075,35.7157061 66.8370884,35.7291483 66.3562721,35.7581007 L66.3252517,34.9825905 C66.1112109,35.2441959 65.6190204,35.8263456 64.4795374,35.8263456 C63.7319456,35.8263456 63.2614694,35.5461279 63.0691429,35.1614748 C62.9161088,34.8791891 62.924381,34.5152163 62.924381,34.2153524 L62.924381,31.8371211 L62.9068027,31.1009034 L62.169551,31.1009034 L62.169551,30.839298 L63.2014966,30.839298 Z" id="Fill-23" fill="#FFFFFF"></path>
                    <path d="M72.5247837,32.6912163 C72.5351238,31.9064 72.547532,30.9799238 71.639668,30.9799238 C70.7804027,30.9799238 70.7411102,31.8371211 70.7111238,32.6912163 L72.5247837,32.6912163 Z M73.9992871,34.3053116 C73.7376816,34.7985361 73.1927565,35.8263456 71.6696544,35.8263456 C70.1062259,35.8263456 69.1487293,34.6279238 69.1487293,33.2278694 C69.1487293,31.8877878 70.0565932,30.6997061 71.6779265,30.6997061 C72.6891918,30.6997061 73.2434231,31.1308898 73.4853823,31.3821551 C74.0385796,31.9570667 74.0571918,32.5629986 74.0696,32.9952163 L70.7038857,32.9952163 C70.7111238,33.8524136 70.7328381,34.6279238 71.1547156,35.0735837 C71.3873687,35.3145088 71.7192871,35.4148082 72.0522395,35.4148082 C73.1420898,35.4148082 73.5525932,34.5007401 73.6973551,34.1729578 L73.9992871,34.3053116 Z" id="Fill-25" fill="#FFFFFF"></path>
                    <path d="M74.9987646,33.288049 C75.0514993,33.5806748 75.102166,33.8422803 75.2738122,34.1938449 C75.8766422,35.4450014 76.9757986,35.4749878 77.1991456,35.4749878 C77.993268,35.4749878 78.6684789,35.0014095 78.6684789,34.2651918 C78.6684789,33.5320762 78.1142476,33.288049 76.5921796,32.6635048 C76.3502204,32.5632054 76.1186014,32.4732463 75.8973224,32.3501986 C75.6305469,32.2106068 74.7650776,31.7070422 74.7650776,30.5458449 C74.7650776,29.2967565 75.7670367,28.4592054 77.1660571,28.4592054 C78.0439347,28.4592054 78.7305197,28.7518313 79.0893224,28.9017633 L79.1927238,30.5954776 L78.8690776,30.5954776 C78.7305197,30.0712327 78.6477986,29.7817088 78.2952,29.4280762 C77.9436354,29.0672054 77.4793633,28.8138721 76.9757986,28.8138721 C76.2085605,28.8138721 75.8063293,29.3246748 75.8063293,29.8530558 C75.8063293,30.4962122 76.391581,30.7660898 76.6511184,30.8881034 C76.9954449,31.0483755 77.3366694,31.1703891 77.6799619,31.313083 C78.5568054,31.6656816 79.6549279,32.1899265 79.6549279,33.5703347 C79.6549279,34.8711238 78.6384925,35.8265524 76.9344381,35.8265524 C76.0669007,35.8265524 75.4009959,35.5866612 74.7464653,35.3529741 L74.6854585,33.288049 L74.9987646,33.288049 Z" id="Fill-27" fill="#FFFFFF"></path>
                    <path d="M81.3411973,28.5996245 C81.855102,28.5996245 81.9760816,28.5934204 82.4289796,28.559298 L82.4103673,29.6584544 L82.4103673,31.5744816 C82.6006259,31.2715156 82.7919184,30.991298 83.3647619,30.8186177 C83.6077551,30.7389986 83.8497143,30.7059102 84.1009796,30.7059102 C84.8485714,30.7059102 85.2125442,30.997502 85.3738503,31.1526041 C85.7481633,31.5217469 85.7781497,31.9663728 85.7967619,32.3499918 L85.7967619,34.7489034 L85.8153741,35.4572027 L86.5112653,35.4572027 L86.5112653,35.7157061 L83.5591565,35.7157061 L83.5591565,35.4572027 L84.3325986,35.4572027 L84.3553469,34.7489034 L84.3553469,32.3293116 C84.3553469,31.9384544 84.3553469,31.1526041 83.5674286,31.1526041 C83.2861769,31.1526041 83.0142313,31.2715156 82.8105306,31.4731483 C82.4703401,31.8154068 82.4372517,32.2714068 82.4103673,32.8535565 L82.4103673,34.7489034 L82.4289796,35.4572027 L83.1858776,35.4572027 L83.1858776,35.7157061 L80.2410068,35.7157061 L80.2410068,35.4572027 L80.9782585,35.4572027 L80.9958367,34.7406313 L80.9958367,29.6584544 L80.9782585,28.8622639 L80.2410068,28.8622639 L80.2410068,28.5996245 L81.3411973,28.5996245 Z" id="Fill-29" fill="#FFFFFF"></path>
                    <path d="M87.655298,29.3458721 C87.655298,28.9115864 88.0172027,28.5486476 88.4607946,28.5486476 C88.8919782,28.5486476 89.2466449,28.9012463 89.2466449,29.3458721 C89.2466449,29.792566 88.8919782,30.1430966 88.4607946,30.1430966 C88.2498558,30.1430966 88.038917,30.0614095 87.8982912,29.9114776 C87.7473252,29.7594776 87.655298,29.5588789 87.655298,29.3458721 L87.655298,29.3458721 Z M87.9572299,30.8389878 C88.5414476,30.8307156 88.7420463,30.8307156 89.2373388,30.7965932 L89.2176925,31.9071238 L89.2176925,34.6689741 L89.2373388,35.4568925 L89.9342639,35.4568925 L89.9342639,35.7153959 L86.9873252,35.7153959 L86.9873252,35.4568925 L87.7473252,35.4568925 L87.7628354,34.6689741 L87.7628354,31.9071238 L87.7473252,31.1005932 L86.9873252,31.1005932 L86.9873252,30.8389878 L87.9572299,30.8389878 Z" id="Fill-31" fill="#FFFFFF"></path>
                    <path d="M93.7008653,32.6912163 C93.7101714,31.9064 93.7215456,30.9799238 92.8147156,30.9799238 C91.9575184,30.9799238 91.9171918,31.8371211 91.8892735,32.6912163 L93.7008653,32.6912163 Z M95.1743347,34.3053116 C94.9116952,34.7985361 94.3678041,35.8263456 92.8467701,35.8263456 C91.2823075,35.8263456 90.3237769,34.6279238 90.3237769,33.2278694 C90.3237769,31.8877878 91.2326748,30.6997061 92.8560762,30.6997061 C93.8632054,30.6997061 94.4164027,31.1308898 94.6593959,31.3821551 C95.2146612,31.9570667 95.2332735,32.5629986 95.2425796,32.9952163 L91.8789333,32.9952163 C91.8892735,33.8524136 91.9058177,34.6279238 92.3307973,35.0735837 C92.5644844,35.3145088 92.8964027,35.4148082 93.2272871,35.4148082 C94.3181714,35.4148082 94.7297088,34.5007401 94.8724027,34.1729578 L95.1743347,34.3053116 Z" id="Fill-33" fill="#FFFFFF"></path>
                    <path d="M96.7483102,28.5996245 C97.2218884,28.5934204 97.3645823,28.5934204 97.8071401,28.559298 L97.7874939,29.6791347 L97.7874939,34.6496381 L97.8071401,35.4572027 L98.5030313,35.4572027 L98.5030313,35.7157061 L95.5591946,35.7157061 L95.5591946,35.4572027 L96.3160925,35.4572027 L96.3326367,34.6496381 L96.3326367,29.6791347 L96.3160925,28.8622639 L95.5591946,28.8622639 L95.5591946,28.5996245 L96.7483102,28.5996245 Z" id="Fill-35" fill="#FFFFFF"></path>
                    <g id="Group-39" transform="translate(99.027069, 28.000000)">
                        <mask id="mask-2" fill="white">
                            <use xlink:href="#path-1"></use>
                        </mask>
                        <g id="Clip-38"></g>
                        <path d="M2.04310748,3.41090068 C1.75358367,3.71490068 1.70498503,4.3094585 1.70498503,5.25661497 C1.70498503,6.41781224 1.73186939,7.38358095 2.66041361,7.38358095 C2.91374694,7.38358095 3.20533878,7.30499592 3.43799184,7.06407075 C3.70786939,6.77971701 3.79059048,6.42711837 3.79059048,5.15528163 C3.79059048,4.24741769 3.79059048,3.14102313 2.72142041,3.15239728 C2.40811429,3.15239728 2.17752925,3.27130884 2.04310748,3.41090068 L2.04310748,3.41090068 Z M4.00359728,0.599417687 C4.58781497,0.599417687 4.76669932,0.593213605 5.22063129,0.559091156 L5.20098503,1.3759619 L5.20098503,6.7414585 L5.22063129,7.44458776 L5.93927075,7.44458776 L5.93927075,7.71549932 L4.99004626,7.71549932 C4.42444082,7.7289415 4.24452245,7.7289415 3.76784218,7.75789388 L3.76784218,7.09405714 C3.53725714,7.38358095 3.17535238,7.82717279 2.23750204,7.82717279 C0.726808163,7.82717279 0.122944218,6.45710476 0.122944218,5.34864218 C0.122944218,3.76556735 1.07113469,2.74913197 2.36675374,2.74913197 C2.99336599,2.74913197 3.32631837,2.9486966 3.55793741,3.17928163 C3.69959728,3.32197551 3.7316517,3.39332245 3.76784218,3.51637007 L3.76784218,1.51865578 L3.7471619,0.862057143 L3.00267211,0.862057143 L3.00267211,0.599417687 L4.00359728,0.599417687 Z" id="Fill-37" fill="#FFFFFF" mask="url(#mask-2)"></path>
                    </g>
                    <path d="M12.5344762,43.6169741 C12.5344762,45.201083 12.6337415,46.1058449 13.5995102,46.1058449 C14.5807891,46.1058449 14.6521361,45.1897088 14.6521361,43.8589333 C14.6521361,42.6418993 14.5900952,41.5230966 13.5912381,41.5302998 C12.6554558,41.5302998 12.5344762,42.4857633 12.5344762,43.6169741 M16.1917823,43.8589333 C16.1917823,45.4502803 14.9240816,46.3881306 13.5612517,46.3881306 C12.0795102,46.3881306 11,45.3220626 11,43.8175728 C11,42.235532 12.1498231,41.2883755 13.5426395,41.2687293 C15.176381,41.2397769 16.1917823,42.3989061 16.1917823,43.8589333" id="Fill-40" fill="#FFFFFF"></path>
                    <path d="M19.6322558,39.8585415 C19.6322558,39.5834939 19.5226503,39.3322286 19.1876299,39.3322286 C18.7233578,39.3322286 18.7233578,39.7954667 18.7233578,40.2101061 L18.7233578,41.3971537 L19.5485007,41.3971537 L19.5485007,41.6618612 L18.7233578,41.6618612 L18.7233578,45.0792762 L18.7440381,46.0140245 L19.5485007,46.0140245 L19.5485007,46.277698 L16.5570993,46.277698 L16.5570993,46.0140245 L17.291249,46.0140245 L17.3129633,45.0792762 L17.3129633,41.6618612 L16.5570993,41.6618612 L16.5570993,41.3971537 L17.3129633,41.3971537 L17.3129633,40.9463238 C17.3243374,40.3807184 17.3243374,39.6569088 18.0667592,39.2815619 C18.430732,39.0995755 18.8339973,39.0499429 19.2372626,39.0499429 C20.6218068,39.0499429 20.8937524,39.7582422 20.8937524,40.1687456 C20.8937524,40.3331537 20.8606639,40.8025959 20.2361197,40.8025959 C19.6198476,40.8025959 19.6198476,40.3331537 19.6198476,40.2297524 L19.6322558,39.8585415 Z" id="Fill-42" fill="#FFFFFF"></path>
                    <polygon id="Fill-44" fill="#FFFFFF" points="23.1008544 39.1618231 25.9630041 39.1618231 29.6192762 43.8303946 29.6192762 40.3333605 29.6006639 39.4244626 28.5232218 39.4244626 28.5232218 39.1618231 30.9148952 39.1618231 30.9148952 39.4244626 29.985317 39.4244626 29.9646367 40.3333605 29.9646367 46.3782041 29.7144054 46.4598912 24.4212898 39.7263946 24.4130177 40.6125442 24.4130177 45.079483 24.4295619 46.0142313 25.5297524 46.0142313 25.5297524 46.2779048 23.1008544 46.2779048 23.1008544 46.0142313 24.0779973 46.0142313 24.0976435 45.079483 24.0976435 40.3333605 24.0779973 39.4244626 23.1008544 39.4244626"></polygon>
                    <path d="M32.3160871,43.6169741 C32.3160871,45.201083 32.4174204,46.1058449 33.3811211,46.1058449 C34.360332,46.1058449 34.4316789,45.1897088 34.4316789,43.8589333 C34.4316789,42.6418993 34.3696381,41.5230966 33.373883,41.5302998 C32.4381007,41.5302998 32.3160871,42.4857633 32.3160871,43.6169741 M35.9744272,43.8589333 C35.9744272,45.4502803 34.7056925,46.3881306 33.3428626,46.3881306 C31.8600871,46.3881306 30.7836789,45.3220626 30.7836789,43.8175728 C30.7836789,42.235532 31.931434,41.2883755 33.3252844,41.2687293 C34.9579918,41.2397769 35.9744272,42.3989061 35.9744272,43.8589333" id="Fill-46" fill="#FFFFFF"></path>
                    <path d="M38.3454204,46.0141279 L39.0899102,46.0141279 L39.0899102,46.2778014 L36.1346993,46.2778014 L36.1346993,46.0141279 L36.872985,46.0141279 L36.8936653,45.2013932 L36.8936653,42.5470803 L36.872985,41.6619646 L36.1346993,41.6619646 L36.1346993,41.3972571 L37.2648762,41.3972571 C37.7312163,41.390019 37.8780463,41.390019 38.3040599,41.3579646 L38.3237061,42.1272707 L38.3237061,42.3464816 C38.391951,42.1272707 38.465366,41.9328762 38.6856109,41.7126313 C38.9172299,41.4696381 39.2491483,41.3062639 39.6151891,41.3062639 C40.2593796,41.3062639 40.5282231,41.8232707 40.5282231,42.2792707 C40.5282231,42.8903728 40.1270259,42.9927401 39.9057469,42.9927401 C39.8054476,42.9927401 39.2791347,42.9420735 39.2791347,42.3278694 C39.2791347,42.2792707 39.3122231,42.0238694 39.3122231,41.9742367 C39.3122231,41.7612299 39.1612571,41.7612299 39.1312707,41.7612299 C38.996849,41.7612299 38.8179646,41.9225361 38.6856109,42.1272707 C38.3557605,42.6577197 38.3340463,43.4466721 38.3237061,44.0009034 L38.3237061,45.2013932 L38.3454204,46.0141279 Z" id="Fill-48" fill="#FFFFFF"></path>
                    <path d="M41.5090884,40.0282231 L42.9608435,40.0282231 L42.9411973,41.0746449 L42.9411973,41.3972571 L43.9452245,41.3972571 L43.9452245,41.6619646 L42.9411973,41.6619646 L42.9411973,44.7360871 C42.9525714,45.3895837 42.9608435,45.946917 43.4644082,45.946917 C43.7653061,45.946917 43.9452245,45.7835429 44.1416871,45.6025905 L44.3226395,45.8052571 C44.0300136,46.0668626 43.6846531,46.3687946 42.8512381,46.3687946 C41.5183946,46.3687946 41.5183946,45.4723048 41.5183946,44.959434 L41.5287347,43.515951 L41.5287347,41.6619646 L40.7645986,41.6619646 L40.7645986,41.3972571 L41.5287347,41.3972571 L41.5287347,41.0746449 L41.5090884,40.0282231 Z" id="Fill-50" fill="#FFFFFF"></path>
                    <path d="M45.4381333,39.1618231 C45.9530721,39.1618231 46.0761197,39.150449 46.5279837,39.1204626 L46.5073034,40.219619 L46.5073034,42.1346122 C46.701698,41.8337143 46.8888544,41.5514286 47.4648,41.3808163 C47.7067592,41.2980952 47.9497524,41.2691429 48.2010177,41.2691429 C48.9486095,41.2691429 49.3125823,41.5617687 49.4728544,41.7127347 C49.8450993,42.0849796 49.8761197,42.5306395 49.8968,42.9111565 L49.8968,45.309034 L49.9154122,46.0142313 L50.6123374,46.0142313 L50.6123374,46.2779048 L47.6571265,46.2779048 L47.6571265,46.0142313 L48.4326367,46.0142313 L48.453317,45.309034 L48.453317,42.8894422 C48.453317,42.495483 48.453317,41.7127347 47.6674667,41.7127347 C47.385181,41.7127347 47.1111673,41.8337143 46.9126367,42.0332789 C46.5693442,42.3796735 46.5383238,42.8315374 46.5073034,43.4147211 L46.5073034,45.309034 L46.5279837,46.0142313 L47.2838476,46.0142313 L47.2838476,46.2779048 L44.3420789,46.2779048 L44.3420789,46.0142313 L45.0751946,46.0142313 L45.0958748,45.3007619 L45.0958748,40.219619 L45.0751946,39.4244626 L44.3420789,39.4244626 L44.3420789,39.1618231 L45.4381333,39.1618231 Z" id="Fill-52" fill="#FFFFFF"></path>
                    <path d="M59.5447673,45.7748571 C58.8013116,46.0468027 57.8748354,46.3776871 56.7146721,46.3776871 C54.6383728,46.3776871 53.0956245,44.8866395 53.0956245,42.7121088 C53.0956245,40.3617959 54.8689578,39 56.8749442,39 C57.4912163,39 58.4383728,39.1426939 59.5065088,39.604898 L59.5065088,41.6098503 L59.1921687,41.6098503 C59.1435701,41.2293333 59.062917,40.6047891 58.4456109,39.988517 C57.9741007,39.5159728 57.4322776,39.3412245 56.9566313,39.3412245 C56.4210122,39.3412245 55.8884952,39.5645714 55.5358966,39.9171701 C55.031298,40.4217687 54.807951,41.2293333 54.807951,42.6997007 C54.807951,44.1225034 54.9816653,44.9983129 55.5038422,45.532898 C55.795434,45.8358639 56.2597061,46.0767891 56.8129034,46.0767891 C57.3495565,46.0767891 57.9865088,45.8668844 58.4993796,45.3229932 C59.1032435,44.697415 59.1735565,44.1628299 59.212849,43.7792109 L59.5447673,43.7792109 L59.5447673,45.7748571 Z" id="Fill-54" fill="#FFFFFF"></path>
                    <path d="M63.4223184,43.254449 C63.2620463,43.3144218 63.1100463,43.3754286 62.9446041,43.4260952 C62.2218286,43.6783946 61.7099918,43.8490068 61.7099918,44.8954286 C61.7099918,45.1177415 61.7099918,45.9046259 62.4544816,45.9046259 C63.3799238,45.9046259 63.4006041,44.8158095 63.4223184,43.9896327 L63.4223184,43.254449 Z M64.8016925,45.229415 C64.8016925,45.4837823 64.8223728,46.0069932 65.3362776,46.0069932 C65.4179646,46.0069932 65.4862095,45.9966531 65.5596245,45.9842449 L65.5596245,46.2779048 C65.0343456,46.3202993 64.7334476,46.3399456 64.3684408,46.3399456 C63.6022367,46.3399456 63.4905633,45.8849796 63.4223184,45.5737415 C63.2899646,45.8053605 62.9446041,46.3782041 61.8806041,46.3782041 C60.9324136,46.3782041 60.2665088,45.8663673 60.2665088,44.8582041 C60.2665088,43.9007075 60.890019,43.6659864 61.1816109,43.557415 C61.5145633,43.4467755 61.8599238,43.3950748 62.1908082,43.3247619 C62.6054476,43.2337687 63.010781,43.103483 63.4119782,42.9711293 L63.4119782,42.4468844 C63.4006041,42.0953197 63.3799238,41.5514286 62.6054476,41.5514286 C62.2735293,41.5514286 62.0305361,41.6517279 61.9002503,41.7809796 C61.7461823,41.9329796 61.7461823,42.0746395 61.7461823,42.346585 C61.7461823,42.5895782 61.6758694,42.8894422 61.1547265,42.8894422 C60.9913524,42.8894422 60.6170395,42.872898 60.6170395,42.417932 C60.6170395,42.1625306 60.7607673,41.9226395 60.9220735,41.7613333 C61.1547265,41.5307483 61.5983184,41.2691429 62.7564136,41.2691429 C64.7624,41.2691429 64.7820463,42.1966531 64.8016925,42.9204626 L64.8016925,45.229415 Z" id="Fill-56" fill="#FFFFFF"></path>
                    <path d="M68.169268,46.0141279 L68.9168599,46.0141279 L68.9168599,46.2778014 L65.960615,46.2778014 L65.960615,46.0141279 L66.6978667,46.0141279 L66.720615,45.2013932 L66.720615,42.5470803 L66.6978667,41.6619646 L65.960615,41.6619646 L65.960615,41.3972571 L67.0897578,41.3972571 C67.556098,41.390019 67.7060299,41.390019 68.1289415,41.3579646 L68.1506558,42.1272707 L68.1506558,42.3464816 C68.2209687,42.1272707 68.2902476,41.9328762 68.5104925,41.7126313 C68.7472816,41.4696381 69.0792,41.3062639 69.4400707,41.3062639 C70.0863293,41.3062639 70.3572408,41.8232707 70.3572408,42.2792707 C70.3572408,42.8903728 69.9550095,42.9927401 69.7316626,42.9927401 C69.6334313,42.9927401 69.1081524,42.9420735 69.1081524,42.3278694 C69.1081524,42.2792707 69.1402068,42.0238694 69.1402068,41.9742367 C69.1402068,41.7612299 68.9871728,41.7612299 68.9582204,41.7612299 C68.8237986,41.7612299 68.6449143,41.9225361 68.5104925,42.1272707 C68.1806422,42.6577197 68.1609959,43.4466721 68.1506558,44.0009034 L68.1506558,45.2013932 L68.169268,46.0141279 Z" id="Fill-58" fill="#FFFFFF"></path>
                    <path d="M72.1316082,43.6169741 C72.1316082,45.201083 72.2329415,46.1058449 73.2007782,46.1058449 C74.1799891,46.1058449 74.249268,45.1897088 74.249268,43.8589333 C74.249268,42.6418993 74.1882612,41.5230966 73.1904381,41.5302998 C72.2546558,41.5302998 72.1316082,42.4857633 72.1316082,43.6169741 M75.7920163,43.8589333 C75.7920163,45.4502803 74.5191456,46.3881306 73.1604517,46.3881306 C71.6787102,46.3881306 70.5992,45.3220626 70.5992,43.8175728 C70.5992,42.235532 71.7479891,41.2883755 73.1397714,41.2687293 C74.7724789,41.2397769 75.7920163,42.3989061 75.7920163,43.8589333" id="Fill-60" fill="#FFFFFF"></path>
                    <path d="M77.1431619,39.1618231 C77.6167401,39.150449 77.757366,39.150449 78.2009578,39.1204626 L78.1802776,40.2413333 L78.1802776,45.2108027 L78.2009578,46.0142313 L78.895815,46.0142313 L78.895815,46.2779048 L75.9519782,46.2779048 L75.9519782,46.0142313 L76.7078422,46.0142313 L76.7285224,45.2108027 L76.7285224,40.2413333 L76.7078422,39.4244626 L75.9519782,39.4244626 L75.9519782,39.1618231 L77.1431619,39.1618231 Z" id="Fill-62" fill="#FFFFFF"></path>
                    <path d="M79.9746014,39.9060027 C79.9746014,39.474819 80.3396082,39.1108463 80.7790639,39.1108463 C81.2154177,39.1108463 81.5669823,39.4634449 81.5669823,39.9060027 C81.5669823,40.3516626 81.2154177,40.7052952 80.7790639,40.7052952 C80.5681252,40.7052952 80.3582204,40.6225741 80.2144925,40.4726422 C80.0655946,40.3206422 79.9746014,40.1169415 79.9746014,39.9060027 L79.9746014,39.9060027 Z M80.2765333,41.3970503 C80.861785,41.3908463 81.0644517,41.3908463 81.5576762,41.3577578 L81.5349279,42.4682884 L81.5349279,45.2291048 L81.5576762,46.0139211 L82.2525333,46.0139211 L82.2525333,46.2775946 L79.3086966,46.2775946 L79.3086966,46.0139211 L80.0655946,46.0139211 L80.0852408,45.2291048 L80.0852408,42.4682884 L80.0655946,41.6617578 L79.3086966,41.6617578 L79.3086966,41.3970503 L80.2765333,41.3970503 Z" id="Fill-64" fill="#FFFFFF"></path>
                    <path d="M88.2083483,46.0141279 L88.9073415,46.0141279 L88.9073415,46.2778014 L86.0131374,46.2778014 L86.0131374,46.0141279 L86.7286748,46.0141279 L86.7483211,45.2293116 L86.7483211,42.6411755 C86.737981,42.3278694 86.7286748,41.7415837 86.0638041,41.7415837 C85.8125388,41.7415837 85.526117,41.843951 85.3141442,42.0455837 C84.8922667,42.4591891 84.8839946,43.1116517 84.8653823,43.7579102 L84.8653823,45.2293116 L84.8839946,46.0141279 L85.5902259,46.0141279 L85.5902259,46.2778014 L82.6743075,46.2778014 L82.6743075,46.0141279 L83.4125932,46.0141279 L83.4301714,45.2293116 L83.4301714,42.3992163 L83.4125932,41.6733388 L82.6743075,41.6733388 L82.6743075,41.4086313 L83.7134912,41.4086313 C84.2594503,41.3972571 84.4000762,41.3972571 84.8839946,41.3693388 L84.8653823,42.2554884 C84.9936,41.992849 85.0949333,41.7922503 85.3875592,41.5895837 C85.679151,41.3972571 86.0927565,41.2566313 86.6294095,41.2566313 C86.9892463,41.2566313 87.2208653,41.3290122 87.3625252,41.3817469 C88.1411374,41.6733388 88.1690558,42.3278694 88.1897361,42.7497469 L88.1897361,45.2293116 L88.2083483,46.0141279 Z" id="Fill-66" fill="#FFFFFF"></path>
                    <path d="M92.7290558,43.254449 C92.5698177,43.3144218 92.4167837,43.3754286 92.2554776,43.4260952 C91.528566,43.6783946 91.0156952,43.8490068 91.0156952,44.8954286 C91.0156952,45.1177415 91.0156952,45.9046259 91.761219,45.9046259 C92.6887293,45.9046259 92.7094095,44.8158095 92.7290558,43.9896327 L92.7290558,43.254449 Z M94.1094639,45.229415 C94.1094639,45.4837823 94.1301442,46.0069932 94.643015,46.0069932 C94.724702,46.0069932 94.797083,45.9966531 94.8622259,45.9842449 L94.8622259,46.2779048 C94.341083,46.3202993 94.040185,46.3399456 93.6772463,46.3399456 C92.9100082,46.3399456 92.7983347,45.8849796 92.7290558,45.5737415 C92.596702,45.8053605 92.2554776,46.3782041 91.1852735,46.3782041 C90.240185,46.3782041 89.5722122,45.8663673 89.5722122,44.8582041 C89.5722122,43.9007075 90.1988245,43.6659864 90.4914503,43.557415 C90.8233687,43.4467755 91.1656272,43.3950748 91.4975456,43.3247619 C91.913219,43.2337687 92.3144163,43.103483 92.7187156,42.9711293 L92.7187156,42.4468844 C92.7094095,42.0953197 92.6887293,41.5514286 91.913219,41.5514286 C91.5813007,41.5514286 91.3383075,41.6517279 91.2080218,41.7809796 C91.0560218,41.9329796 91.0560218,42.0746395 91.0560218,42.346585 C91.0560218,42.5895782 90.9857088,42.8894422 90.4614639,42.8894422 C90.2991238,42.8894422 89.9279129,42.872898 89.9279129,42.417932 C89.9279129,42.1625306 90.0685388,41.9226395 90.2288109,41.7613333 C90.4614639,41.5307483 90.9050558,41.2691429 92.063151,41.2691429 C94.0670694,41.2691429 94.0898177,42.1966531 94.1094639,42.9204626 L94.1094639,45.229415 Z" id="Fill-68" fill="#FFFFFF"></path>
                    <polygon id="Fill-70" fill="#00ADEE" points="46.7056327 22.0362776 46.7056327 15.9790259 52.7618503 15.9790259 52.7618503 6.29238639 46.7056327 6.29238639 46.7056327 0.238236735 37.0551837 0.238236735 37.0551837 6.29238639 31 6.29238639 31 15.9790259 37.0551837 15.9790259 37.0551837 22.0362776"></polygon>
                    <path d="M36.2958041,9.04648163 L40.3119129,9.43216871 C41.0646748,9.53970612 41.152566,10.2686857 40.9530014,10.7050395 L38.2025252,15.8699374 L38.2076952,15.8626993 C36.8107429,14.7645769 35.912185,13.0646585 35.912185,11.1527673 C35.912185,10.4113796 36.0497088,9.69997823 36.2958041,9.04234558 L36.2958041,9.04648163 Z" id="Fill-72" fill="#FEFEFE"></path>
                    <path d="M36.8926367,9.92704762 L39.9316027,10.2072653 C40.1518476,10.2238095 40.1683918,10.3168707 40.1146231,10.4440544 L37.9897252,14.5087619 C37.213181,13.6081361 36.7447728,12.4324626 36.7447728,11.1533878 C36.7447728,10.7304762 36.7954395,10.3199728 36.8926367,9.92704762" id="Fill-74" fill="#00ADEE"></path>
                    <path d="M47.4993415,9.04648163 L43.4832327,9.43216871 C42.7315048,9.53970612 42.6425796,10.2686857 42.8411102,10.7050395 L45.5926204,15.8699374 L45.5874503,15.8626993 C46.9823347,14.7645769 47.8798585,13.0646585 47.8798585,11.1527673 C47.8798585,10.4113796 47.7433687,9.69997823 47.4962395,9.04234558 L47.4993415,9.04648163 Z" id="Fill-76" fill="#FEFEFE"></path>
                    <path d="M41.8980898,5.16996463 C39.4960762,5.16996463 37.429083,6.58346122 36.4746884,8.62150204 L40.7337905,8.62150204 C41.3417905,8.60805986 41.608566,8.25442721 41.6209741,7.96283537 C41.6354503,7.62057687 41.5806476,7.51200544 41.2993959,7.14596463 C40.9881578,6.73856327 41.2021986,5.94547483 41.8980898,5.93306667 C42.593981,5.94547483 42.8059537,6.73856327 42.4957497,7.14596463 C42.214498,7.51200544 42.1565932,7.62057687 42.1762395,7.96283537 C42.1855456,8.25442721 42.4543891,8.60805986 43.0603211,8.62150204 L47.3194231,8.62150204 C46.3639946,6.58346122 44.2970014,5.16996463 41.8980898,5.16996463" id="Fill-78" fill="#FEFEFE"></path>
                    <path d="M46.9035429,9.92704762 L43.8604408,10.2072653 C43.644332,10.2238095 43.6267537,10.3168707 43.6763864,10.4440544 L45.8074884,14.5087619 C46.5809306,13.6081361 47.0483048,12.4324626 47.0483048,11.1533878 C47.0483048,10.7304762 46.9976381,10.3199728 46.9035429,9.92704762" id="Fill-80" fill="#00ADEE"></path>
                    <path d="M43.3279238,6.20201361 C43.6298558,6.70764626 43.3858286,7.36631293 43.0983728,7.67858503 C43.0466721,7.73235374 43.0725224,7.78922449 43.1211211,7.80473469 L45.8136925,7.80473469 C45.168468,7.05093878 44.3092027,6.48326531 43.3279238,6.20201361" id="Fill-82" fill="#00ADEE"></path>
                    <path d="M41.8980898,17.1328816 C43.1130558,17.1328816 44.2421986,16.7730449 45.1872871,16.1526367 L45.1872871,16.1557388 L42.2693007,11.7973714 C42.0656,11.5150857 41.7398857,11.4892354 41.5248109,11.7973714 L38.6068245,16.1557388 L38.6068245,16.1526367 C39.5508789,16.7730449 40.6810558,17.1328816 41.8980898,17.1328816" id="Fill-84" fill="#FEFEFE"></path>
                    <path d="M64.7160816,22.269551 C68.8997007,19.9554286 71.435102,16.2764082 72.7431293,12.237551 C74.0966531,8.04669388 73.8733061,3.08963265 72.3036735,-7.10542736e-14 C69.913034,1.20462585 67.5099864,1.8084898 64.7160816,1.8167619 C61.9221769,1.824 59.5201633,1.20462585 57.1315918,-7.10542736e-14 C55.5609252,3.08963265 55.3365442,8.04669388 56.6921361,12.237551 C57.9980952,16.2764082 60.5334966,19.9554286 64.7160816,22.269551" id="Fill-86" fill="#00ADEE"></path>
                    <path d="M64.7129796,20.3974694 C68.1583129,18.2642993 69.989551,15.2098231 71.1672925,11.7603537 C72.2054422,8.69967347 72.4629116,5.11164626 71.3151565,2.31463946 C69.5945578,2.90609524 68.5863946,3.08808163 67.6516463,3.23387755 C66.7789388,3.37140136 65.9992925,3.45412245 64.7233197,3.47066667 L64.7129796,3.47066667 C63.4349388,3.45412245 62.6563265,3.37140136 61.782585,3.23387755 C60.8457687,3.08808163 59.8355374,2.90609524 58.1190748,2.31463946 C56.9713197,5.11164626 57.2277551,8.69967347 58.2700408,11.7603537 C59.4446803,15.2098231 61.2769524,18.2642993 64.7202177,20.3974694 L64.7129796,20.3974694 Z" id="Fill-88" fill="#FEFEFE"></path>
                    <path d="M64.7160816,19.5501986 C67.0457143,18.0839673 69.683483,14.7616816 70.7412789,10.3878041 C71.2975782,8.06644354 71.4557823,5.46072925 70.7268027,3.39270204 C69.683483,3.67291973 68.7084082,3.90247075 67.704381,4.0358585 C66.6951837,4.17338231 65.6994286,4.26954558 64.7202177,4.27781769 L64.7150476,4.27781769 C63.7327347,4.26954558 62.7380136,4.17338231 61.7308844,4.0358585 C60.7247891,3.90247075 59.7517823,3.67291973 58.7094966,3.39270204 C57.980517,5.46072925 58.1376871,8.06644354 58.6970884,10.3878041 C59.7497143,14.7616816 62.389551,18.0839673 64.7202177,19.5501986 L64.7160816,19.5501986 Z" id="Fill-90" fill="#00ADEE"></path>
                    <path d="M62.3389878,5.8293551 C61.5521034,6.23882449 61.2780898,7.20149116 61.6317224,7.97803537 C61.9398585,8.65117823 62.5447565,9.09787211 63.2458177,9.30467483 C63.6004844,9.4091102 63.954117,9.43702857 64.3211918,9.45667483 C64.7668517,9.4773551 65.171151,9.48872925 65.5981986,9.59936871 C65.6881578,9.62418503 65.7915592,9.67795374 65.8391238,9.7658449 C65.9549333,9.98091973 65.851532,10.2177088 65.624049,10.2797497 C65.6199129,10.6581986 65.5847565,11.4088925 65.5847565,11.4088925 C65.5847565,11.4088925 67.4118585,11.2362122 67.1016544,9.59523265 C67.0282395,9.20127347 66.7190694,8.79697415 66.3654367,8.61498776 C65.4503347,8.14657959 64.4421714,8.34924626 63.5063891,8.04421224 C63.1889469,7.94391293 62.7494912,7.78777687 62.662634,7.43207619 C62.6274776,7.28938231 62.659532,7.00606259 62.8042939,6.95849796 C63.043151,6.88404898 63.3057905,7.08257959 63.650117,7.16013061 C63.8672599,7.20976327 64.0823347,7.20976327 64.2529469,7.15702857 C64.3284299,7.13738231 64.4390694,7.1063619 64.4473415,7.06189932 C64.4390694,7.02570884 64.3511782,6.99055238 64.3098177,6.96677007 C64.2033143,6.91403537 64.0937088,6.88715102 63.9810014,6.84372245 C63.7907429,6.7713415 63.6025524,6.68345034 63.4091918,6.57487891 C63.5891102,6.53868844 63.8920762,6.52938231 64.0740626,6.55006259 C64.2146884,6.56867483 64.6572463,6.56247075 64.7896,6.52731429 C64.8185524,6.51904218 64.8847293,6.49525986 64.8547429,6.44355918 C64.8051102,6.35877007 64.717219,6.32671565 64.6572463,6.24296054 C64.5300626,6.06717823 64.4173551,5.8903619 64.2084844,5.80764082 C63.6066884,5.5780898 62.9387156,5.51604898 62.3389878,5.8293551" id="Fill-92" fill="#FEFEFE"></path>
                    <path d="M65.3865361,11.6921088 L65.4010122,9.77608163 C65.4010122,9.77608163 65.150781,9.72334694 64.8064544,9.70059864 C64.3607946,9.67268027 64.1539918,9.67991837 64.1539918,9.67991837 L64.1539918,9.84019048 C64.1539918,9.84019048 63.939951,9.92911565 63.9037605,9.99012245 C63.8913524,10.0190748 63.8313796,10.0893878 63.860332,10.1597007 C64.0340463,10.6343129 64.2801415,11.095483 64.3514884,11.6011156 C64.6854748,11.6476463 64.9781007,11.6352381 65.3865361,11.6921088" id="Fill-94" fill="#FEFEFE"></path>
                    <path d="M63.0943347,11.4033088 C63.0157497,12.1560707 63.5058721,12.5593361 64.0456272,12.6865197 C64.4788789,12.7899211 64.8924844,12.8116354 65.3422803,12.861268 C65.400185,12.8705741 65.5190966,12.8736762 65.6080218,12.9140027 C65.6876408,12.9450231 65.7269333,12.9946558 65.7403755,13.0442884 C65.7631238,13.1135673 65.7517497,13.1673361 65.7083211,13.2221388 C65.6607565,13.2831456 65.5315048,13.317268 65.5315048,13.317268 L65.5077224,14.2209959 C65.5077224,14.2209959 65.8685932,14.2075537 66.1663891,14.0276354 C66.4455728,13.8611592 66.6182531,13.6471184 66.6813279,13.3772408 C66.7506068,13.0660027 66.7030422,12.7620027 66.4807293,12.4590367 C66.3359673,12.2584381 66.0816,12.1126422 65.8210286,12.022683 C65.2885116,11.8365605 64.712566,11.8655129 64.1593687,11.7858939 C64.0766476,11.7755537 63.9959946,11.7104109 63.9877224,11.6318259 C63.9753143,11.492234 64.107668,11.4270912 64.107668,11.4270912 L63.9711782,11.0010776 C63.9081034,10.8439075 63.8171102,10.6215946 63.7561034,10.506819 C63.3797224,10.6691592 63.1377633,11.0145197 63.0943347,11.4033088" id="Fill-96" fill="#FEFEFE"></path>
                    <path d="M65.3420735,13.074585 L65.3255293,14.6969524 L64.9191619,14.5097959 L64.5179646,14.3433197 L64.5107265,12.9887619 C64.8705633,13.0342585 65.0349714,13.0363265 65.3420735,13.074585" id="Fill-98" fill="#FEFEFE"></path>
                    <path d="M63.5265524,13.9671456 C63.3001034,14.4934585 63.5813551,15.0094313 64.0218449,15.2234721 C64.2534639,15.3382476 64.5574639,15.441649 64.8066612,15.5378122 C65.0527565,15.6339755 65.4818721,15.898683 65.5128925,16.0258667 C65.5325388,16.1054857 65.4415456,16.1809687 65.4415456,16.1809687 L65.4301714,16.814819 C65.4301714,16.814819 65.697981,16.7569143 65.8903075,16.5997442 C66.0743619,16.4456762 66.2087837,16.2502476 66.2067392,15.9328054 C66.2067392,15.5874449 66.0443755,15.3165333 65.552185,15.0280435 C65.168566,14.8026286 64.7042939,14.6247782 64.3403211,14.4634721 C64.2896544,14.4417578 64.2441578,14.3373224 64.2638041,14.2763156 C64.2824163,14.2091048 64.3268789,14.1832544 64.3268789,14.1832544 L64.3206748,13.4501388 C64.3206748,13.4501388 64.0394231,13.5059755 63.9091374,13.5845605 C63.7871238,13.6548735 63.6030694,13.7768871 63.5265524,13.9671456" id="Fill-100" fill="#FEFEFE"></path>
                    <path d="M65.274449,16.1250286 C65.279619,16.0733279 65.2589388,16.0650558 65.2341224,16.0309333 C65.124517,15.9161578 64.969415,15.8396408 64.9332245,15.8158585 C64.820517,15.7507156 64.5692517,15.6576544 64.5692517,15.6576544 C64.5692517,15.6576544 64.588898,17.3193143 64.6157823,18.1754776 C64.6261224,18.3698721 64.7357279,18.4226068 64.9208163,18.4298449 C65.1493333,18.4453551 65.2175782,18.3005932 65.2186122,18.2168381 C65.2268844,17.9417905 65.2651429,16.7506068 65.274449,16.1250286" id="Fill-102" fill="#FEFEFE"></path>
                    <path d="M65.4501279,5.44459864 C65.531815,5.50457143 65.531815,5.51077551 65.5586993,5.6317551 C65.613502,5.89646259 65.5555973,6.31317007 65.607298,6.49515646 C65.6352163,6.55306122 65.6941551,6.55306122 65.7396517,6.52721088 C66.1077605,6.32764626 66.3569578,5.98538776 66.7292027,5.82821769 C66.902917,5.75480272 67.3868354,5.99882993 67.2730939,6.36280272 C67.2213932,6.53444898 67.1448762,6.55926531 67.0404408,6.67093878 C66.8212299,6.89428571 66.5172299,7.10729252 66.2483864,7.40095238 C66.068468,7.59638095 65.8492571,7.74114286 65.7086313,7.96345578 C65.6662367,8.03790476 65.5917878,8.13303401 65.5917878,8.13303401 C65.074781,8.02859864 64.5536381,8.04410884 64.1534748,7.96345578 L64.1534748,7.3647619 C64.1534748,7.3647619 64.5629442,7.29651701 64.6394612,7.09488435 C64.6466993,7.07627211 64.6363592,7.0069932 64.5743184,6.96563265 C64.5040054,6.91393197 64.3840599,6.85809524 64.3447673,6.84465306 C64.7583728,6.90979592 65.0137741,6.9770068 65.4149714,7.15278912 C65.4387537,7.10729252 65.4232435,7.01009524 65.3932571,6.9770068 C65.3384544,6.91496599 65.309502,6.89428571 65.1699102,6.86223129 C64.925883,6.79605442 64.2651483,6.71746939 64.2651483,6.71746939 C64.2651483,6.71746939 64.5691483,6.71643537 64.8266177,6.67404082 C64.9496653,6.65336054 65.0530667,6.62957823 65.082019,6.58614966 C65.1130395,6.51997279 65.0561687,6.43001361 64.9693116,6.33385034 C64.9083048,6.27180952 64.8462639,6.20770068 64.7976653,6.1404898 C64.7366585,6.05983673 64.6384272,5.90887075 64.5298558,5.81167347 C64.4378286,5.72895238 64.2031075,5.6090068 64.2031075,5.6090068 C64.2031075,5.6090068 64.163815,5.29053061 64.2279238,5.15817687 C64.2734204,5.06511565 64.4006041,5.0082449 64.4657469,5.04236735 C64.7625088,5.20780952 65.0561687,5.37635374 65.4501279,5.44459864" id="Fill-104" fill="#FEFEFE"></path>
                    <path d="M64.1485116,6.06366259 C64.0740626,6.11846531 64.0182259,6.17223401 63.9334367,6.18567619 C63.7638585,6.21462857 63.7866068,6.06676463 63.6728653,5.98197551 C63.6004844,5.93337687 63.5332735,5.99955374 63.4701986,5.88064218 C63.7162939,5.88891429 64.0389061,5.8672 64.2208925,6.05125442 C64.2002122,6.0419483 64.1598857,6.05642449 64.1485116,6.06366259" id="Fill-106" fill="#00ADEE"></path>
                    <path d="M41.8133007,12.7817524 C41.8618993,12.7186776 41.9239401,12.7145415 41.9839129,12.7817524 L43.9940354,15.8610449 C43.3529469,16.1453986 42.6446476,16.3046367 41.8980898,16.3046367 C41.1484299,16.3046367 40.4401306,16.1453986 39.8011102,15.8610449 L41.8133007,12.7817524 C41.8691374,12.7145415 41.9363483,12.7186776 41.9839129,12.7817524" id="Fill-108" fill="#00ADEE"></path>
                    <path d="M64.1687782,16.7400599 C64.0674449,16.8434612 63.9009687,17.0544 63.8730503,17.3925224 C63.848234,17.6954884 63.9185469,17.7813116 63.9950639,17.9446857 C64.0571048,18.0791075 64.2018667,18.0729034 64.2535673,17.9457197 C64.2980299,17.8433524 64.2349551,17.7513252 64.2742476,17.5259102 C64.304234,17.3625361 64.4314177,17.278781 64.4314177,17.278781 L64.4169415,16.5384272 C64.4169415,16.5384272 64.304234,16.599434 64.1687782,16.7400599" id="Fill-110" fill="#FEFEFE"></path>
                    <path d="M40.4651537,6.20201361 C40.1621878,6.70764626 40.407249,7.36631293 40.6957388,7.67858503 C40.7495075,7.73235374 40.7226231,7.78922449 40.6760925,7.80473469 L37.9814531,7.80473469 C38.6277116,7.05093878 39.4869769,6.48326531 40.4651537,6.20201361" id="Fill-112" fill="#00ADEE"></path>
                    <path d="M69.3267483,20.5953796 L69.3267483,20.9852027 L69.5201088,20.9852027 C69.7207075,20.9852027 69.8158367,20.9366041 69.8158367,20.7990803 C69.8158367,20.6543184 69.7207075,20.5953796 69.5139048,20.5953796 L69.3267483,20.5953796 Z M70.0464218,20.776332 C70.0464218,20.9428082 69.9512925,21.0617197 69.7734422,21.0927401 L70.0391837,21.6345633 L69.7899864,21.6345633 L69.5521633,21.1330667 L69.3267483,21.1330667 L69.3267483,21.6345633 L69.1044354,21.6345633 L69.1044354,20.4516517 L69.5552653,20.4516517 C69.8820136,20.4516517 70.0464218,20.5612571 70.0464218,20.776332 L70.0464218,20.776332 Z M70.1725714,20.4237333 C69.9998912,20.245883 69.7734422,20.1569578 69.528381,20.1569578 C69.2822857,20.1569578 69.0579048,20.244849 68.8934966,20.4113252 C68.7166803,20.5943456 68.617415,20.8249306 68.617415,21.0627537 C68.617415,21.3016109 68.7115102,21.5259918 68.8862585,21.6986721 C69.0568707,21.8723864 69.2864218,21.9675156 69.5201088,21.9675156 C69.7662041,21.9675156 69.988517,21.8744544 70.1663673,21.7028082 C70.3380136,21.536332 70.4341769,21.314019 70.4341769,21.0710259 C70.4341769,20.8197605 70.3390476,20.5943456 70.1725714,20.4237333 L70.1725714,20.4237333 Z M70.2687347,20.3265361 C70.4620952,20.5240327 70.5706667,20.7856381 70.5706667,21.0627537 C70.5706667,21.3491755 70.4651973,21.6056109 70.2677007,21.7948354 C70.060898,21.996468 69.7951565,22.1091755 69.5273469,22.1091755 C69.2440272,22.1091755 68.9865578,21.996468 68.7869932,21.7948354 C68.5874286,21.5963048 68.4829932,21.3388354 68.4829932,21.0627537 C68.4829932,20.7877061 68.5946667,20.5188626 68.7962993,20.3151619 C68.9906939,20.1197333 69.2419592,20.017366 69.5273469,20.017366 C69.8085986,20.017366 70.0691701,20.1259374 70.2687347,20.3265361 L70.2687347,20.3265361 Z" id="Fill-114" fill="#00ADEE"></path>
                    <path d="M48.3505415,20.5953796 L48.3505415,20.9852027 L48.537698,20.9852027 C48.7445007,20.9852027 48.8385959,20.9366041 48.8385959,20.7990803 C48.8385959,20.6543184 48.7445007,20.5953796 48.5356299,20.5953796 L48.3505415,20.5953796 Z M49.0671129,20.776332 C49.0671129,20.9428082 48.9668136,21.0617197 48.7972354,21.0927401 L49.0609088,21.6345633 L48.8106776,21.6345633 L48.5697524,21.1330667 L48.3505415,21.1330667 L48.3505415,21.6345633 L48.1251265,21.6345633 L48.1251265,20.4516517 L48.5738884,20.4516517 C48.9027048,20.4516517 49.0671129,20.5612571 49.0671129,20.776332 L49.0671129,20.776332 Z M49.1953306,20.4237333 C49.0195483,20.245883 48.7972354,20.1569578 48.5480381,20.1569578 C48.3050449,20.1569578 48.0785959,20.244849 47.9152218,20.4113252 C47.7363374,20.5943456 47.6401741,20.8249306 47.6401741,21.0627537 C47.6401741,21.3016109 47.7353034,21.5259918 47.9059156,21.6986721 C48.0754939,21.8723864 48.3071129,21.9675156 48.537698,21.9675156 C48.7868952,21.9675156 49.0102422,21.8744544 49.1870585,21.7028082 C49.3587048,21.536332 49.4528,21.314019 49.4528,21.0710259 C49.4528,20.8197605 49.3628408,20.5943456 49.1953306,20.4237333 L49.1953306,20.4237333 Z M49.2914939,20.3265361 C49.4817524,20.5240327 49.5913578,20.7856381 49.5913578,21.0627537 C49.5913578,21.3491755 49.4869224,21.6056109 49.2883918,21.7948354 C49.0815891,21.996468 48.8179156,22.1091755 48.543902,22.1091755 C48.2667864,22.1091755 48.009317,21.996468 47.8076844,21.7948354 C47.6091537,21.5963048 47.5005823,21.3388354 47.5005823,21.0627537 C47.5005823,20.7877061 47.6143238,20.5188626 47.8169905,20.3151619 C48.010351,20.1197333 48.2636844,20.017366 48.543902,20.017366 C48.8292898,20.017366 49.0919293,20.1259374 49.2914939,20.3265361 L49.2914939,20.3265361 Z" id="Fill-116" fill="#00ADEE"></path>
                </g>
                <g id="Logo" transform="translate(135.000000, 10.000000)">
                    <polygon id="Fill-1" fill="#00AEEF" points="7.29443274 0.385323389 7.29443274 7.39757137 7.16679224e-05 7.39757137 7.16679224e-05 18.6090102 7.29443274 18.6090102 7.29443274 25.6212582 18.9153862 25.6212582 18.9153862 18.6090102 26.2090306 18.6090102 26.2090306 7.39757137 18.9153862 7.39757137 18.9153862 0.385323389"></polygon>
                    <path d="M6.38095341,10.5816 L11.2149547,11.0317177 C12.1229873,11.15194 12.2276225,11.9977892 11.9875349,12.5051557 L8.6743269,18.4826337 L8.68077701,18.4740464 C6.99944757,17.2067037 5.92012867,15.2344866 5.92012867,13.0225407 C5.92012867,12.1638104 6.08424821,11.3394294 6.38238677,10.5816 L6.38095341,10.5816 Z" id="Fill-2" fill="#FFFFFF"></path>
                    <path d="M7.09763262,11.6039899 L10.7584301,11.9288761 C11.022168,11.947482 11.0429517,12.0569701 10.982034,12.2036698 L8.41775574,16.9073647 C7.4846394,15.8654387 6.92132954,14.5079293 6.92132954,13.022326 C6.92132954,12.534281 6.98296395,12.0598325 7.09763262,11.6039899" id="Fill-4" fill="#00AEEF"></path>
                    <path d="M19.869788,10.5816 L15.03507,11.0317177 C14.1270374,11.15194 14.0224022,11.9977892 14.2639231,12.5051557 L17.5756978,18.4826337 L17.570681,18.4740464 C19.2505771,17.2067037 20.329896,15.2344866 20.329896,13.0225407 C20.329896,12.1638104 20.1664931,11.3394294 19.8683546,10.5816 L19.869788,10.5816 Z" id="Fill-6" fill="#FFFFFF"></path>
                    <path d="M13.1256932,6.09716755 C10.2353259,6.09716755 7.74271559,7.73233304 6.59602884,10.09241 L11.723152,10.09241 C12.4548814,10.0780978 12.7773871,9.66733851 12.791004,9.3310025 C12.8103543,8.93383976 12.7451365,8.80789266 12.4032805,8.38425241 C12.031324,7.90837274 12.2886119,6.99454065 13.1256932,6.97879726 C13.9613412,6.99454065 14.2193457,7.90837274 13.8459558,8.38425241 C13.5055332,8.80789266 13.441032,8.93383976 13.458949,9.3310025 C13.4739993,9.66733851 13.7943549,10.0780978 14.5260844,10.09241 L19.6539242,10.09241 C18.5065207,7.73233304 16.0153438,6.09716755 13.1256932,6.09716755" id="Fill-8" fill="#FFFFFF"></path>
                    <path d="M19.1523921,11.6039899 L15.4923113,11.9288761 C15.22714,11.947482 15.2077896,12.0569701 15.2679907,12.2036698 L17.8322689,16.9073647 C18.7653853,15.8654387 19.3286951,14.5079293 19.3286951,13.022326 C19.3286951,12.534281 19.2670607,12.0598325 19.1523921,11.6039899" id="Fill-10" fill="#00AEEF"></path>
                    <path d="M14.848805,7.29216224 C15.2157448,7.87824562 14.9197563,8.64036871 14.5721668,9.00175101 C14.5083824,9.06400896 14.540633,9.12912933 14.5972506,9.14558833 L17.8409408,9.14558833 C17.0633438,8.27326153 16.028459,7.61991094 14.848805,7.29216224" id="Fill-12" fill="#00AEEF"></path>
                    <path d="M13.1256932,19.9502037 C14.5884355,19.9502037 15.950126,19.5301415 17.0860625,18.8095237 L17.0867792,18.814533 L13.5750511,13.7659148 C13.3285134,13.4431754 12.9350565,13.4166978 12.6756186,13.7659148 L9.16389047,18.814533 L9.16389047,18.8095237 C10.3005437,19.5301415 11.6622342,19.9502037 13.1256932,19.9502037" id="Fill-14" fill="#FFFFFF"></path>
                    <g id="Group-18" transform="translate(29.383848, 0.020252)">
                        <mask id="mask-4" fill="white">
                            <use xlink:href="#path-3"></use>
                        </mask>
                        <g id="Clip-17"></g>
                        <path d="M11.2213332,25.8735102 C16.2581547,23.1957031 19.3126415,18.9378323 20.8850357,14.260615 C22.517631,9.40664232 22.2467262,3.66889313 20.3546931,0.091566087 C17.4786594,1.4855715 14.5847087,2.18257421 11.2213332,2.19187712 C7.85867428,2.20404247 4.96329025,1.4855715 2.08653987,0.091566087 C0.195940098,3.66889313 -0.0763980045,9.40664232 1.55691393,14.260615 C3.13002481,18.9378323 6.18379495,23.1957031 11.2213332,25.8735102" id="Fill-16" fill="#00AEEF" mask="url(#mask-4)"></path>
                    </g>
                    <path d="M40.599591,23.7266846 C44.7462969,21.2578352 46.9551023,17.7184354 48.3705437,13.7246242 C49.6261657,10.1787839 49.9321877,6.03111688 48.5518636,2.79298829 C46.4792273,3.47639443 45.2658893,3.68749895 44.1378363,3.85638256 C43.0879012,4.01524766 42.1469014,4.10899237 40.6103412,4.12974502 L40.599591,4.12974502 C39.060164,4.10899237 38.1227476,4.01524766 37.0713792,3.85638256 C35.9440428,3.68749895 34.7299882,3.47639443 32.6580686,2.79298829 C31.2777444,6.03111688 31.5837664,10.1787839 32.8401051,13.7246242 C34.2548299,17.7184354 36.4643519,21.2578352 40.6103412,23.7266846 L40.599591,23.7266846 Z" id="Fill-19" fill="#FFFFFF"></path>
                    <path d="M40.602386,22.7455138 C43.4060351,21.0502371 46.5859408,17.2016945 47.8573297,12.1380485 C48.5310082,9.45093849 48.7187781,6.43393293 47.8408461,4.03664435 C46.5859408,4.36153062 45.4127369,4.62630578 44.2008324,4.78445526 C42.9882111,4.94188914 41.7899235,5.05423968 40.6102695,5.06211137 L40.5995193,5.06211137 C39.4198653,5.05423968 38.2222943,4.94188914 37.0089564,4.78445526 C35.7970519,4.62630578 34.6252813,4.36153062 33.3696594,4.03664435 C32.4917273,6.43393293 32.6787806,9.45093849 33.3531757,12.1380485 C34.6231313,17.2016945 37.8044704,21.0502371 40.6088361,22.7455138 L40.602386,22.7455138 Z" id="Fill-21" fill="#00AEEF"></path>
                    <path d="M37.7412592,6.86093654 C36.7930926,7.33466938 36.4662869,8.44815626 36.890561,9.34910739 C37.2596508,10.1241114 37.9885136,10.6436432 38.8356284,10.8876657 C39.2591858,11.0057411 39.68991,11.0379435 40.1292344,11.0586962 C40.6660271,11.0830269 41.1526523,11.0987702 41.6686614,11.2247174 C41.7783133,11.2511949 41.8994321,11.314884 41.9560497,11.417216 C42.0950855,11.664101 41.9696666,11.9388947 41.6973285,12.0161804 C41.6915951,12.4491235 41.6514611,13.3214503 41.6514611,13.3214503 C41.6514611,13.3214503 43.8502329,13.1196487 43.4797097,11.2182769 C43.3894082,10.7617186 43.0160183,10.2980043 42.5910275,10.0861842 C41.4887749,9.53945926 40.2768703,9.77918812 39.1466672,9.4249619 C38.7661105,9.30617088 38.2364846,9.12440632 38.1325661,8.71507824 C38.0909987,8.54977267 38.1289827,8.21987713 38.3052858,8.1669221 C38.5905241,8.08176469 38.905863,8.31004381 39.3193869,8.4016417 C39.5809748,8.45889038 39.8404127,8.45889038 40.0453829,8.39806366 C40.1364012,8.37373297 40.2689868,8.33866815 40.2818871,8.28714434 C40.2689868,8.24420782 40.1686518,8.20270253 40.1156175,8.17837184 C39.9873319,8.11468268 39.8554629,8.08534273 39.7178605,8.03525013 C39.4892399,7.95009272 39.2613359,7.84632948 39.0319985,7.72252921 C39.2491523,7.68102391 39.6110753,7.67028978 39.8267958,7.69462047 C40.0009488,7.7132263 40.5341582,7.70821704 40.6925443,7.66742735 C40.7276615,7.65812444 40.8064963,7.63021571 40.7720957,7.57225141 C40.7104612,7.47278183 40.6072594,7.43413897 40.5341582,7.34325669 C40.3786388,7.13787704 40.2446197,6.92891935 39.9944987,6.83589024 C39.2692193,6.56896826 38.4629552,6.50026984 37.7412592,6.86093654" id="Fill-23" fill="#FFFFFF"></path>
                    <path d="M41.4121619,13.6473385 L41.4250621,11.428952 C41.4250621,11.428952 41.1283569,11.3695565 40.7133996,11.3423634 C40.1737402,11.3094454 39.9286359,11.3180327 39.9286359,11.3180327 L39.9272025,11.5033753 C39.9272025,11.5033753 39.6656146,11.610001 39.6269139,11.6765526 C39.608997,11.7073237 39.5409124,11.7917656 39.573163,11.8733449 C39.7853,12.4243635 40.0791385,12.955345 40.1644233,13.5407128 C40.5657637,13.5972459 40.9219533,13.5829337 41.4121619,13.6473385" id="Fill-25" fill="#FFFFFF"></path>
                    <path d="M38.6510835,13.3132924 C38.5543318,14.1834724 39.1463088,14.6500491 39.7992036,14.7996113 C40.316646,14.9176867 40.8183215,14.9420174 41.3565476,15.0042754 C41.4246321,15.0128627 41.5686846,15.0150095 41.6776198,15.0593772 C41.7736549,15.0994513 41.8209557,15.1545532 41.8395893,15.2118018 C41.8639564,15.2933812 41.8539229,15.3563548 41.7994553,15.4221907 C41.7406876,15.4901736 41.5858849,15.529532 41.5858849,15.529532 L41.5550677,16.5757517 C41.5550677,16.5757517 41.9936754,16.5600083 42.3491483,16.3531974 C42.6845541,16.1592675 42.8945412,15.911667 42.9690758,15.6003773 C43.055794,15.238995 42.9955929,14.8869156 42.7297049,14.5341206 C42.5548352,14.3036946 42.2480965,14.1362422 41.936341,14.0310478 C41.2949131,13.8163652 40.5990176,13.8471364 39.9332226,13.7576853 C39.8307375,13.7419419 39.7390026,13.6675186 39.7296857,13.5794988 C39.7124854,13.4184869 39.8694382,13.3412011 39.8694382,13.3412011 C39.8694382,13.3412011 39.7906035,13.0936006 39.7060353,12.8510093 C39.630784,12.6670979 39.5254322,12.4094788 39.4473141,12.2749444 C38.9958062,12.4610026 38.7019677,12.8638902 38.6510835,13.3132924" id="Fill-27" fill="#FFFFFF"></path>
                    <path d="M41.3568342,15.248441 L41.3396339,17.127629 L40.8494253,16.9107996 L40.3663835,16.7183009 L40.35635,15.149687 C40.7906576,15.2004952 40.9877444,15.2047889 41.3568342,15.248441" id="Fill-29" fill="#FFFFFF"></path>
                    <path d="M39.1690276,16.283354 C38.9024229,16.8923369 39.2371121,17.4870076 39.7696048,17.7389018 C40.0476763,17.8705738 40.412466,17.9886492 40.7134713,18.1002841 C41.0058764,18.2090566 41.5254688,18.5167683 41.5648862,18.6677617 C41.5892533,18.7579283 41.478168,18.8459482 41.478168,18.8459482 L41.4659845,19.5787313 C41.4659845,19.5787313 41.78419,19.5150422 42.0199775,19.3296996 C42.239998,19.1536599 42.4019675,18.9246651 42.4005342,18.557558 C42.3976675,18.158964 42.2027307,17.8462431 41.610037,17.5113383 C41.1484956,17.24871 40.5894858,17.0426147 40.1551782,16.8579877 C40.0928271,16.8315102 40.0362094,16.7120036 40.0598598,16.6397271 C40.0842269,16.5617258 40.1365445,16.5331014 40.1365445,16.5331014 L40.124361,15.6851053 C40.124361,15.6851053 39.7903885,15.7495101 39.632719,15.8389612 C39.4872332,15.9205405 39.2679293,16.058653 39.1690276,16.283354" id="Fill-31" fill="#FFFFFF"></path>
                    <path d="M41.2763511,18.7803269 C41.2828013,18.7195002 41.2598675,18.7123441 41.2304837,18.6701232 C41.1007647,18.5398824 40.9108447,18.4497158 40.8671273,18.4239538 C40.7302416,18.3459525 40.4285196,18.2393268 40.4285196,18.2393268 C40.4285196,18.2393268 40.45002,20.1614514 40.485854,21.154716 C40.4937374,21.3815639 40.6263231,21.4395282 40.8492103,21.4502623 C41.1265652,21.4652901 41.2068333,21.2992689 41.2097,21.2026618 C41.2218835,20.8849316 41.2620176,19.5045227 41.2763511,18.7803269" id="Fill-33" fill="#FFFFFF"></path>
                    <path d="M41.4884165,6.41511242 C41.5880349,6.48667327 41.5880349,6.49096693 41.6188521,6.6312262 C41.6847866,6.93750665 41.6145521,7.41839558 41.6776198,7.63093131 C41.7113038,7.69962973 41.7829717,7.6967673 41.8360059,7.66885857 C42.2789137,7.43914823 42.5792023,7.0427011 43.0278435,6.85950532 C43.2378305,6.77291669 43.8212074,7.05558206 43.685755,7.47635987 C43.6226872,7.67458343 43.5295189,7.7053546 43.40195,7.8313017 C43.1403621,8.09393003 42.7712723,8.33866815 42.4502,8.67786659 C42.2316129,8.90757693 41.9685916,9.07431372 41.800172,9.33193279 C41.746421,9.41422777 41.6575528,9.52729392 41.6575528,9.52729392 C41.0361919,9.40492486 40.410531,9.42710872 39.9260558,9.33050157 L39.9246225,8.63779252 C39.9246225,8.63779252 40.4191311,8.55764436 40.5122994,8.32364037 C40.5187495,8.30575016 40.5051326,8.22488639 40.432748,8.17407819 C40.3496133,8.11253585 40.202694,8.05099352 40.1596933,8.03596574 C40.6542019,8.10967342 40.9630907,8.18910597 41.4425491,8.39162318 C41.4733663,8.34081498 41.456166,8.22846444 41.4196153,8.18910597 C41.3536808,8.1161139 41.3192802,8.09249882 41.1487106,8.05457156 C40.8563055,7.98086389 40.0607915,7.88711917 40.0607915,7.88711917 C40.0607915,7.88711917 40.428448,7.88497234 40.73662,7.83487975 C40.886406,7.81198027 41.0096748,7.78764958 41.0433587,7.73684138 C41.0791927,7.6631337 41.0139749,7.55149877 40.908623,7.44344188 C40.8383885,7.37188103 40.7588371,7.29674213 40.7007861,7.22303445 C40.6291181,7.12714291 40.5094327,6.95253443 40.3789971,6.8408995 C40.2679118,6.74429235 39.9862569,6.60546429 39.9862569,6.60546429 C39.9862569,6.60546429 39.9375227,6.23406346 40.0156407,6.08521689 C40.0736918,5.97429757 40.2241944,5.91060841 40.3030291,5.94710444 C40.6599354,6.13817192 41.0111082,6.33639548 41.4884165,6.41511242" id="Fill-35" fill="#FFFFFF"></path>
                    <path d="M39.9200357,7.13143656 C39.8283008,7.19297889 39.7637997,7.25595244 39.6620312,7.27241144 C39.459211,7.30389822 39.4871615,7.13429899 39.347409,7.03769184 C39.2614075,6.98187438 39.1804228,7.05701327 39.1030214,6.91818522 C39.3982933,6.92748813 39.7860167,6.90172622 40.008904,7.11712439 C39.9809535,7.10495904 39.932936,7.12213365 39.9200357,7.13143656" id="Fill-37" fill="#00AEEF"></path>
                    <path d="M13.0228497,14.9087416 C13.0801841,14.8350339 13.1604521,14.8314559 13.2263866,14.9087416 L15.6501957,18.4731877 C14.8797656,18.8037989 14.0233339,18.9877102 13.1260515,18.9877102 C12.2266191,18.9877102 11.3709041,18.8037989 10.600474,18.4731877 L13.0228497,14.9087416 C13.0909342,14.8314559 13.169769,14.8350339 13.2263866,14.9087416" id="Fill-39" fill="#00AEEF"></path>
                    <path d="M39.9459079,19.4910693 C39.8262224,19.6112915 39.6255522,19.8574609 39.590435,20.2496143 C39.5581844,20.5988313 39.6427525,20.6975853 39.7337708,20.8857903 C39.8097388,21.041793 39.9860419,21.0324901 40.0476763,20.8879371 C40.0985605,20.7698617 40.0254592,20.6610892 40.0720434,20.4063326 C40.1057273,20.2166963 40.26053,20.1115019 40.26053,20.1115019 L40.2447631,19.2577809 C40.2447631,19.2577809 40.1078774,19.3293418 39.9459079,19.4910693" id="Fill-41" fill="#FFFFFF"></path>
                    <path d="M11.4019363,7.29216224 C11.0357133,7.87824562 11.3324184,8.64036871 11.6778578,9.00175101 C11.7416423,9.06400896 11.708675,9.12912933 11.6527741,9.14558833 L8.41051728,9.14558833 C9.18596419,8.27326153 10.2222823,7.61991094 11.4019363,7.29216224" id="Fill-43" fill="#00AEEF"></path>
                    <path d="M46.1587283,23.9579693 L46.1587283,24.4095183 L46.3866323,24.4095183 C46.6310199,24.4095183 46.7464053,24.3522696 46.7464053,24.1898265 C46.7464053,24.0252365 46.6310199,23.9579693 46.3816155,23.9579693 L46.1587283,23.9579693 Z M47.0230434,24.1640645 C47.0230434,24.3594257 46.903358,24.4939601 46.6976711,24.5354654 L47.0158767,25.159476 L46.7148714,25.159476 L46.425333,24.5733926 L46.1587283,24.5733926 L46.1587283,25.159476 L45.8899736,25.159476 L45.8899736,23.7883701 L46.4281997,23.7883701 C46.82739,23.7883701 47.0230434,23.9157484 47.0230434,24.1640645 L47.0230434,24.1640645 Z M47.1764128,23.7575989 C46.9671425,23.5522193 46.6976711,23.4455936 46.3959491,23.4455936 C46.1028273,23.4455936 45.835506,23.5500724 45.6355525,23.7447179 C45.4212654,23.9543912 45.3030133,24.2205976 45.3030133,24.4975381 C45.3030133,24.773763 45.4191154,25.0313821 45.6248023,25.2338993 C45.8297726,25.4342697 46.1064107,25.545189 46.3866323,25.545189 C46.6826208,25.545189 46.9528089,25.4371321 47.1699627,25.2367617 C47.3763663,25.0464099 47.4874516,24.7873596 47.4874516,24.5075566 C47.4874516,24.2134415 47.3785163,23.9543912 47.1764128,23.7575989 L47.1764128,23.7575989 Z M47.2910815,23.6466796 C47.5232855,23.8728119 47.6558712,24.1755143 47.6558712,24.4975381 C47.6558712,24.8295805 47.5254356,25.1279892 47.2882148,25.3462498 C47.0388104,25.5802538 46.7213215,25.7069165 46.3930824,25.7069165 C46.0569599,25.7069165 45.7459211,25.5802538 45.5058335,25.344103 C45.2671794,25.1143927 45.1381771,24.8174151 45.1381771,24.4975381 C45.1381771,24.1790923 45.2757795,23.8699494 45.5187338,23.6309362 C45.7502212,23.4048039 46.0548098,23.2881597 46.3930824,23.2881597 C46.7356551,23.2881597 47.0509939,23.4112444 47.2910815,23.6466796 L47.2910815,23.6466796 Z" id="Fill-45" fill="#00AEEF"></path>
                    <path d="M20.8965026,23.9579693 L20.8965026,24.4095183 L21.1229732,24.4095183 C21.3680775,24.4095183 21.4813128,24.3522696 21.4813128,24.1898265 C21.4813128,24.0252365 21.3680775,23.9579693 21.1158064,23.9579693 L20.8965026,23.9579693 Z M21.7593844,24.1640645 C21.7593844,24.3594257 21.6396989,24.4939601 21.434012,24.5354654 L21.7522176,25.159476 L21.4512123,25.159476 L21.1609572,24.5733926 L20.8965026,24.5733926 L20.8965026,25.159476 L20.6263145,25.159476 L20.6263145,23.7883701 L21.1645406,23.7883701 C21.5637309,23.7883701 21.7593844,23.9157484 21.7593844,24.1640645 L21.7593844,24.1640645 Z M21.912037,23.7575989 C21.7027667,23.5522193 21.434012,23.4455936 21.1337234,23.4455936 C20.8391683,23.4455936 20.5718469,23.5500724 20.3704601,23.7447179 C20.158323,23.9543912 20.0393543,24.2205976 20.0393543,24.4975381 C20.0393543,24.773763 20.1547396,25.0313821 20.3604265,25.2338993 C20.5675468,25.4342697 20.8434683,25.545189 21.1229732,25.545189 C21.4203951,25.545189 21.6891498,25.4371321 21.9063036,25.2367617 C22.1112739,25.0464099 22.2252259,24.7873596 22.2252259,24.5075566 C22.2252259,24.2134415 22.1155739,23.9543912 21.912037,23.7575989 L21.912037,23.7575989 Z M22.0288558,23.6466796 C22.2589098,23.8728119 22.3922121,24.1755143 22.3922121,24.4975381 C22.3922121,24.8295805 22.2624932,25.1279892 22.0245557,25.3462498 C21.7773014,25.5802538 21.4583791,25.7069165 21.13014,25.7069165 C20.7940175,25.7069165 20.4829787,25.5802538 20.2428912,25.344103 C20.0035203,25.1143927 19.874518,24.8174151 19.874518,24.4975381 C19.874518,24.1790923 20.0114038,23.8699494 20.254358,23.6309362 C20.4865621,23.4048039 20.7918674,23.2881597 21.13014,23.2881597 C21.4734294,23.2881597 21.7873349,23.4112444 22.0288558,23.6466796 L22.0288558,23.6466796 Z" id="Fill-47" fill="#00AEEF"></path>
                    <polygon id="Fill-49" fill="#FFFFFF" points="69.8357313 20.8510117 61.8512081 9.63241681 61.8512081 20.8510117 58.8289719 20.8510117 58.8289719 4.55517429 61.900659 4.55517429 69.516809 15.2306223 69.516809 4.55517429 72.5383286 4.55517429 72.5383286 20.8510117"></polygon>
                    <path d="M74.8468957,12.7277099 C74.8468957,7.67265129 78.0655021,4.27064834 82.857936,4.27064834 C84.8223537,4.27064834 86.3445804,4.71933489 87.5973356,5.45211802 L87.1314941,8.40400321 C86.0249414,7.60180605 84.6489173,6.96276763 83.0048552,6.96276763 C80.0062694,6.96276763 78.1636871,9.15897021 78.1636871,12.7033793 C78.1636871,16.292156 80.1288215,18.418229 83.1274074,18.418229 C84.6990849,18.418229 86.1231265,17.8772289 87.426766,17.0492699 L87.8675237,19.7413891 C86.5165834,20.5693482 84.7972699,21.134679 82.8808697,21.134679 C77.9429499,21.134679 74.8468957,17.782053 74.8468957,12.7277099 Z" id="Fill-51" fill="#FFFFFF"></path>
                </g>
            </g>
        </g>
    </g>
</svg>