<?xml version="1.0" encoding="UTF-8"?>
<svg width="292px" height="26px" viewBox="0 0 292 26" version="1.1" xmlns="http://www.w3.org/2000/svg" xmlns:xlink="http://www.w3.org/1999/xlink">
    <!-- Generator: Sketch 61.2 (89653) - https://sketch.com -->
    <title>incorrect-one-line</title>
    <desc>Created with Sketch.</desc>
    <defs>
        <polygon id="path-1" points="0.483202335 25.873224 21.9586248 25.873224 21.9586248 0.091566087 0.483202335 0.091566087"></polygon>
        <polygon id="path-3" points="0.148460942 0.675128944 7.17082582 0.675128944 7.17082582 9.45168035 0.148460942 9.45168035"></polygon>
    </defs>
    <g id="Logos" stroke="none" stroke-width="1" fill="none" fill-rule="evenodd">
        <g id="Artboard" transform="translate(-30.000000, -352.000000)">
            <g id="incorrect-one-line" transform="translate(30.000072, 352.020252)">
                <polygon id="Fill-1" fill="#00AEEF" points="7.29436107 0.365071667 7.29436107 7.37731965 9.76996262e-14 7.37731965 9.76996262e-14 18.5887585 7.29436107 18.5887585 7.29436107 25.6010065 18.9153146 25.6010065 18.9153146 18.5887585 26.208959 18.5887585 26.208959 7.37731965 18.9153146 7.37731965 18.9153146 0.365071667"></polygon>
                <path d="M6.38088174,10.5613482 L11.2148831,11.011466 C12.1229156,11.1316882 12.2275508,11.9775375 11.9874633,12.484904 L8.67425523,18.462382 L8.68070535,18.4537947 C6.9993759,17.186452 5.920057,15.2142349 5.920057,13.0022889 C5.920057,12.1435587 6.08417654,11.3191777 6.3823151,10.5613482 L6.38088174,10.5613482 Z" id="Fill-2" fill="#FFFFFF"></path>
                <path d="M7.09756096,11.5837382 L10.7583584,11.9086244 C11.0220963,11.9272302 11.04288,12.0367184 10.9819623,12.1834181 L8.41768407,16.887113 C7.48456773,15.8451869 6.92125787,14.4876776 6.92125787,13.0020743 C6.92125787,12.5140292 6.98289228,12.0395808 7.09756096,11.5837382" id="Fill-4" fill="#00AEEF"></path>
                <path d="M19.8697163,10.5613482 L15.0349983,11.011466 C14.1269657,11.1316882 14.0223306,11.9775375 14.2638514,12.484904 L17.5756261,18.462382 L17.5706094,18.4537947 C19.2505054,17.186452 20.3298243,15.2142349 20.3298243,13.0022889 C20.3298243,12.1435587 20.1664215,11.3191777 19.8682829,10.5613482 L19.8697163,10.5613482 Z" id="Fill-6" fill="#FFFFFF"></path>
                <path d="M13.1256215,6.07691583 C10.2352542,6.07691583 7.74264392,7.71208132 6.59595717,10.0721583 L11.7230803,10.0721583 C12.4548098,10.0578461 12.7773154,9.64708679 12.7909323,9.31075078 C12.8102827,8.91358804 12.7450649,8.78764094 12.4032089,8.36400069 C12.0312524,7.88812102 12.2885402,6.97428893 13.1256215,6.95854554 C13.9612695,6.97428893 14.219274,7.88812102 13.8458841,8.36400069 C13.5054615,8.78764094 13.4409604,8.91358804 13.4588774,9.31075078 C13.4739276,9.64708679 13.7942832,10.0578461 14.5260127,10.0721583 L19.6538525,10.0721583 C18.5064491,7.71208132 16.0152721,6.07691583 13.1256215,6.07691583" id="Fill-8" fill="#FFFFFF"></path>
                <path d="M19.1523204,11.5837382 L15.4922396,11.9086244 C15.2270683,11.9272302 15.207718,12.0367184 15.267919,12.1834181 L17.8321973,16.887113 C18.7653136,15.8451869 19.3286235,14.4876776 19.3286235,13.0020743 C19.3286235,12.5140292 19.2669891,12.0395808 19.1523204,11.5837382" id="Fill-10" fill="#00AEEF"></path>
                <path d="M14.8487334,7.27191051 C15.2156731,7.8579939 14.9196846,8.62011699 14.5720952,8.98149929 C14.5083107,9.04375723 14.5405613,9.10887761 14.597179,9.12533661 L17.8408691,9.12533661 C17.0632721,8.25300981 16.0283873,7.59965922 14.8487334,7.27191051" id="Fill-12" fill="#00AEEF"></path>
                <path d="M13.1256215,19.929952 C14.5883638,19.929952 15.9500543,19.5098898 17.0859909,18.789272 L17.0867075,18.7942813 L13.5749794,13.7456631 C13.3284417,13.4229236 12.9349848,13.3964461 12.675547,13.7456631 L9.16381881,18.7942813 L9.16381881,18.789272 C10.300472,19.5098898 11.6621626,19.929952 13.1256215,19.929952" id="Fill-14" fill="#FFFFFF"></path>
                <g id="Group-18" transform="translate(29.383776, 0.000000)">
                    <mask id="mask-2" fill="white">
                        <use xlink:href="#path-1"></use>
                    </mask>
                    <g id="Clip-17"></g>
                    <path d="M11.2213332,25.8735102 C16.2581547,23.1957031 19.3126415,18.9378323 20.8850357,14.260615 C22.517631,9.40664232 22.2467262,3.66889313 20.3546931,0.091566087 C17.4786594,1.4855715 14.5847087,2.18257421 11.2213332,2.19187712 C7.85867428,2.20404247 4.96329025,1.4855715 2.08653987,0.091566087 C0.195940098,3.66889313 -0.0763980045,9.40664232 1.55691393,14.260615 C3.13002481,18.9378323 6.18379495,23.1957031 11.2213332,25.8735102" id="Fill-16" fill="#00AEEF" mask="url(#mask-2)"></path>
                </g>
                <path d="M40.5995193,23.7064329 C44.7462252,21.2375835 46.9550306,17.6981837 48.370472,13.7043725 C49.626094,10.1585322 49.9321161,6.01086516 48.5517919,2.77273657 C46.4791556,3.45614271 45.2658177,3.66724723 44.1377646,3.83613084 C43.0878295,3.99499593 42.1468297,4.08874065 40.6102695,4.1094933 L40.5995193,4.1094933 C39.0600923,4.08874065 38.1226759,3.99499593 37.0713075,3.83613084 C35.9439711,3.66724723 34.7299165,3.45614271 32.6579969,2.77273657 C31.2776727,6.01086516 31.5836947,10.1585322 32.8400334,13.7043725 C34.2547582,17.6981837 36.4642802,21.2375835 40.6102695,23.7064329 L40.5995193,23.7064329 Z" id="Fill-19" fill="#FFFFFF"></path>
                <path d="M40.6023143,22.725262 C43.4059634,21.0299854 46.5858691,17.1814428 47.8572581,12.1177968 C48.5309365,9.43068677 48.7187065,6.4136812 47.8407744,4.01639263 C46.5858691,4.3412789 45.4126652,4.60605406 44.2007607,4.76420354 C42.9881395,4.92163742 41.7898518,5.03398796 40.6101978,5.04185965 L40.5994476,5.04185965 C39.4197936,5.03398796 38.2222227,4.92163742 37.0088848,4.76420354 C35.7969802,4.60605406 34.6252097,4.3412789 33.3695877,4.01639263 C32.4916556,6.4136812 32.6787089,9.43068677 33.3531041,12.1177968 C34.6230596,17.1814428 37.8043987,21.0299854 40.6087645,22.725262 L40.6023143,22.725262 Z" id="Fill-21" fill="#00AEEF"></path>
                <path d="M37.7411876,6.84068481 C36.793021,7.31441766 36.4662152,8.42790453 36.8904893,9.32885567 C37.2595791,10.1038597 37.9884419,10.6233915 38.8355567,10.867414 C39.2591142,10.9854894 39.6898384,11.0176918 40.1291627,11.0384445 C40.6659555,11.0627751 41.1525806,11.0785185 41.6685897,11.2044656 C41.7782416,11.2309431 41.8993604,11.2946323 41.955978,11.3969643 C42.0950138,11.6438493 41.969595,11.9186429 41.6972569,11.9959287 C41.6915234,12.4288718 41.6513894,13.3011986 41.6513894,13.3011986 C41.6513894,13.3011986 43.8501612,13.099397 43.4796381,11.1980252 C43.3893365,10.7414669 43.0159466,10.2777526 42.5909558,10.0659325 C41.4887032,9.51920754 40.2767986,9.7589364 39.1465955,9.40471018 C38.7660389,9.28591916 38.2364129,9.10415459 38.1324944,8.69482652 C38.090927,8.52952095 38.128911,8.19962541 38.3052141,8.14667038 C38.5904524,8.06151297 38.9057913,8.28979209 39.3193152,8.38138998 C39.5809031,8.43863866 39.840341,8.43863866 40.0453113,8.37781194 C40.1363295,8.35348125 40.2689152,8.31841643 40.2818154,8.26689261 C40.2689152,8.2239561 40.1685801,8.18245081 40.1155458,8.15812012 C39.9872602,8.09443096 39.8553913,8.06509101 39.7177889,8.01499841 C39.4891682,7.929841 39.2612642,7.82607776 39.0319268,7.70227748 C39.2490806,7.66077219 39.6110037,7.65003806 39.8267241,7.67436875 C40.0008771,7.69297457 40.5340865,7.68796531 40.6924726,7.64717563 C40.7275899,7.63787272 40.8064246,7.60996398 40.772024,7.55199969 C40.7103896,7.45253011 40.6071878,7.41388725 40.5340865,7.32300496 C40.3785671,7.11762532 40.2445481,6.90866763 39.994427,6.81563852 C39.2691477,6.54871653 38.4628835,6.48001812 37.7411876,6.84068481" id="Fill-23" fill="#FFFFFF"></path>
                <path d="M41.4120902,13.6270867 L41.4249904,11.4087003 C41.4249904,11.4087003 41.1282852,11.3493048 40.713328,11.3221117 C40.1736685,11.2891937 39.9285642,11.297781 39.9285642,11.297781 L39.9271309,11.4831236 C39.9271309,11.4831236 39.6655429,11.5897493 39.6268423,11.6563009 C39.6089253,11.687072 39.5408408,11.7715138 39.5730913,11.8530932 C39.7852284,12.4041118 40.0790668,12.9350933 40.1643517,13.5204611 C40.565692,13.5769941 40.9218816,13.562682 41.4120902,13.6270867" id="Fill-25" fill="#FFFFFF"></path>
                <path d="M38.6510118,13.2930407 C38.5542601,14.1632207 39.1462372,14.6297974 39.7991319,14.7793596 C40.3165743,14.897435 40.8182498,14.9217657 41.3564759,14.9840236 C41.4245604,14.9926109 41.5686129,14.9947578 41.6775482,15.0391255 C41.7735832,15.0791996 41.820884,15.1343014 41.8395177,15.1915501 C41.8638848,15.2731295 41.8538513,15.336103 41.7993836,15.401939 C41.7406159,15.4699218 41.5858132,15.5092803 41.5858132,15.5092803 L41.554996,16.5555 C41.554996,16.5555 41.9936037,16.5397566 42.3490766,16.3329457 C42.6844825,16.1390158 42.8944695,15.8914153 42.9690041,15.5801255 C43.0557223,15.2187432 42.9955213,14.8666638 42.7296333,14.5138688 C42.5547635,14.2834429 42.2480248,14.1159905 41.9362694,14.010796 C41.2948415,13.7961135 40.598946,13.8268846 39.933151,13.7374336 C39.8306658,13.7216902 39.7389309,13.6472669 39.7296141,13.5592471 C39.7124138,13.3982351 39.8693665,13.3209494 39.8693665,13.3209494 C39.8693665,13.3209494 39.7905318,13.0733489 39.7059636,12.8307576 C39.6307123,12.6468462 39.5253605,12.3892271 39.4472425,12.2546927 C38.9957345,12.4407509 38.7018961,12.8436385 38.6510118,13.2930407" id="Fill-27" fill="#FFFFFF"></path>
                <path d="M41.3567626,15.2281893 L41.3395623,17.1073773 L40.8493537,16.8905479 L40.3663119,16.6980492 L40.3562784,15.1294353 C40.790586,15.1802435 40.9876728,15.1845372 41.3567626,15.2281893" id="Fill-29" fill="#FFFFFF"></path>
                <path d="M39.1689559,16.2631023 C38.9023512,16.8720852 39.2370404,17.4667559 39.7695331,17.7186501 C40.0476046,17.850322 40.4123944,17.9683975 40.7133996,18.0800324 C41.0058047,18.1888049 41.5253972,18.4965165 41.5648145,18.6475099 C41.5891816,18.7376766 41.4780963,18.8256965 41.4780963,18.8256965 L41.4659128,19.5584796 C41.4659128,19.5584796 41.7841184,19.4947904 42.0199058,19.3094478 C42.2399264,19.1334081 42.4018959,18.9044134 42.4004625,18.5373062 C42.3975958,18.1387123 42.202659,17.8259914 41.6099653,17.4910866 C41.1484239,17.2284582 40.5894141,17.022363 40.1551065,16.837736 C40.0927554,16.8112585 40.0361378,16.6917518 40.0597882,16.6194754 C40.0841553,16.541474 40.1364729,16.5128497 40.1364729,16.5128497 L40.1242893,15.6648536 C40.1242893,15.6648536 39.7903168,15.7292584 39.6326474,15.8187094 C39.4871615,15.9002888 39.2678576,16.0384012 39.1689559,16.2631023" id="Fill-31" fill="#FFFFFF"></path>
                <path d="M41.2762795,18.7600752 C41.2827296,18.6992484 41.2597959,18.6920924 41.230412,18.6498715 C41.1006931,18.5196307 40.9107731,18.429464 40.8670556,18.4037021 C40.7301699,18.3257008 40.428448,18.2190751 40.428448,18.2190751 C40.428448,18.2190751 40.4499483,20.1411996 40.4857823,21.1344643 C40.4936658,21.3613122 40.6262514,21.4192765 40.8491387,21.4300106 C41.1264935,21.4450384 41.2067616,21.2790172 41.2096283,21.18241 C41.2218119,20.8646799 41.2619459,19.484271 41.2762795,18.7600752" id="Fill-33" fill="#FFFFFF"></path>
                <path d="M41.4883449,6.3948607 C41.5879633,6.46642155 41.5879633,6.4707152 41.6187805,6.61097448 C41.684715,6.91725493 41.6144804,7.39814386 41.6775482,7.61067959 C41.7112321,7.67937801 41.7829,7.67651558 41.8359343,7.64860684 C42.278842,7.41889651 42.5791306,7.02244938 43.0277718,6.8392536 C43.2377588,6.75266497 43.8211357,7.03533033 43.6856833,7.45610815 C43.6226156,7.65433171 43.5294473,7.68510288 43.4018784,7.81104998 C43.1402905,8.07367831 42.7712007,8.31841643 42.4501284,8.65761487 C42.2315412,8.88732521 41.9685199,9.054062 41.8001003,9.31168107 C41.7463494,9.39397605 41.6574812,9.5070422 41.6574812,9.5070422 C41.0361203,9.38467314 40.4104593,9.406857 39.9259842,9.31024985 L39.9245508,8.61754079 C39.9245508,8.61754079 40.4190595,8.53739264 40.5122278,8.30338865 C40.5186779,8.28549844 40.505061,8.20463467 40.4326764,8.15382647 C40.3495416,8.09228413 40.2026223,8.0307418 40.1596216,8.01571402 C40.6541303,8.0894217 40.963019,8.16885425 41.4424774,8.37137146 C41.4732946,8.32056325 41.4560943,8.20821272 41.4195437,8.16885425 C41.3536092,8.09586218 41.3192086,8.07224709 41.1486389,8.03431984 C40.8562338,7.96061216 40.0607199,7.86686745 40.0607199,7.86686745 C40.0607199,7.86686745 40.4283763,7.86472062 40.7365484,7.81462802 C40.8863343,7.79172855 41.0096031,7.76739786 41.0432871,7.71658966 C41.079121,7.64288198 41.0139032,7.53124705 40.9085514,7.42319016 C40.8383168,7.35162931 40.7587654,7.27649041 40.7007144,7.20278273 C40.6290465,7.10689119 40.5093611,6.93228271 40.3789254,6.82064778 C40.2678402,6.72404062 39.9861852,6.58521257 39.9861852,6.58521257 C39.9861852,6.58521257 39.937451,6.21381174 40.0155691,6.06496517 C40.0736201,5.95404585 40.2241227,5.89035669 40.3029574,5.92685272 C40.6598637,6.1179202 41.0110365,6.31614376 41.4883449,6.3948607" id="Fill-35" fill="#FFFFFF"></path>
                <path d="M39.9199641,7.11118484 C39.8282291,7.17272717 39.763728,7.23570072 39.6619595,7.25215972 C39.4591393,7.28364649 39.4870898,7.11404727 39.3473374,7.01744012 C39.2613359,6.96162266 39.1803511,7.03676155 39.1029498,6.8979335 C39.3982216,6.90723641 39.785945,6.8814745 40.0088323,7.09687267 C39.9808818,7.08470732 39.9328643,7.10188193 39.9199641,7.11118484" id="Fill-37" fill="#00AEEF"></path>
                <path d="M13.022778,14.8884899 C13.0801124,14.8147822 13.1603805,14.8112042 13.2263149,14.8884899 L15.6501241,18.452936 C14.8796939,18.7835471 14.0232622,18.9674585 13.1259799,18.9674585 C12.2265474,18.9674585 11.3708325,18.7835471 10.6004023,18.452936 L13.022778,14.8884899 C13.0908626,14.8112042 13.1696973,14.8147822 13.2263149,14.8884899" id="Fill-39" fill="#00AEEF"></path>
                <path d="M39.9458362,19.4708176 C39.8261508,19.5910398 39.6254806,19.8372091 39.5903633,20.2293626 C39.5581127,20.5785796 39.6426809,20.6773335 39.7336991,20.8655386 C39.8096671,21.0215412 39.9859702,21.0122383 40.0476046,20.8676854 C40.0984889,20.74961 40.0253876,20.6408375 40.0719717,20.3860809 C40.1056556,20.1964446 40.2604584,20.0912502 40.2604584,20.0912502 L40.2446914,19.2375292 C40.2446914,19.2375292 40.1078057,19.30909 39.9458362,19.4708176" id="Fill-41" fill="#FFFFFF"></path>
                <path d="M11.4018647,7.27191051 C11.0356416,7.8579939 11.3323468,8.62011699 11.6777862,8.98149929 C11.7415706,9.04375723 11.7086034,9.10887761 11.6527024,9.12533661 L8.41044561,9.12533661 C9.18589253,8.25300981 10.2222107,7.59965922 11.4018647,7.27191051" id="Fill-43" fill="#00AEEF"></path>
                <path d="M46.1586566,23.9377176 L46.1586566,24.3892665 L46.3865606,24.3892665 C46.6309482,24.3892665 46.7463336,24.3320179 46.7463336,24.1695747 C46.7463336,24.0049848 46.6309482,23.9377176 46.3815439,23.9377176 L46.1586566,23.9377176 Z M47.0229718,24.1438128 C47.0229718,24.339174 46.9032864,24.4737084 46.6975994,24.5152137 L47.015805,25.1392243 L46.7147997,25.1392243 L46.4252613,24.5531409 L46.1586566,24.5531409 L46.1586566,25.1392243 L45.8899019,25.1392243 L45.8899019,23.7681183 L46.428128,23.7681183 C46.8273184,23.7681183 47.0229718,23.8954967 47.0229718,24.1438128 L47.0229718,24.1438128 Z M47.1763411,23.7373472 C46.9670708,23.5319675 46.6975994,23.4253419 46.3958775,23.4253419 C46.1027557,23.4253419 45.8354343,23.5298207 45.6354808,23.7244662 C45.4211937,23.9341395 45.3029417,24.2003459 45.3029417,24.4772864 C45.3029417,24.7535113 45.4190437,25.0111304 45.6247306,25.2136476 C45.8297009,25.414018 46.1063391,25.5249373 46.3865606,25.5249373 C46.6825492,25.5249373 46.9527372,25.4168804 47.169891,25.21651 C47.3762946,25.0261581 47.4873799,24.7671079 47.4873799,24.4873049 C47.4873799,24.1931898 47.3784447,23.9341395 47.1763411,23.7373472 L47.1763411,23.7373472 Z M47.2910098,23.6264279 C47.5232139,23.8525602 47.6557995,24.1552626 47.6557995,24.4772864 C47.6557995,24.8093288 47.5253639,25.1077375 47.2881431,25.3259981 C47.0387387,25.5600021 46.7212498,25.6866648 46.3930107,25.6866648 C46.0568882,25.6866648 45.7458494,25.5600021 45.5057619,25.3238513 C45.2671077,25.094141 45.1381054,24.7971634 45.1381054,24.4772864 C45.1381054,24.1588406 45.2757079,23.8496977 45.5186621,23.6106845 C45.7501495,23.3845522 46.0547382,23.267908 46.3930107,23.267908 C46.7355834,23.267908 47.0509223,23.3909926 47.2910098,23.6264279 L47.2910098,23.6264279 Z" id="Fill-45" fill="#00AEEF"></path>
                <path d="M20.8964309,23.9377176 L20.8964309,24.3892665 L21.1229016,24.3892665 C21.3680059,24.3892665 21.4812412,24.3320179 21.4812412,24.1695747 C21.4812412,24.0049848 21.3680059,23.9377176 21.1157348,23.9377176 L20.8964309,23.9377176 Z M21.7593127,24.1438128 C21.7593127,24.339174 21.6396273,24.4737084 21.4339403,24.5152137 L21.7521459,25.1392243 L21.4511406,25.1392243 L21.1608856,24.5531409 L20.8964309,24.5531409 L20.8964309,25.1392243 L20.6262429,25.1392243 L20.6262429,23.7681183 L21.164469,23.7681183 C21.5636593,23.7681183 21.7593127,23.8954967 21.7593127,24.1438128 L21.7593127,24.1438128 Z M21.9119654,23.7373472 C21.702695,23.5319675 21.4339403,23.4253419 21.1336518,23.4253419 C20.8390966,23.4253419 20.5717752,23.5298207 20.3703884,23.7244662 C20.1582513,23.9341395 20.0392826,24.2003459 20.0392826,24.4772864 C20.0392826,24.7535113 20.1546679,25.0111304 20.3603549,25.2136476 C20.5674752,25.414018 20.8433967,25.5249373 21.1229016,25.5249373 C21.4203234,25.5249373 21.6890781,25.4168804 21.9062319,25.21651 C22.1112022,25.0261581 22.2251542,24.7671079 22.2251542,24.4873049 C22.2251542,24.1931898 22.1155023,23.9341395 21.9119654,23.7373472 L21.9119654,23.7373472 Z M22.0287841,23.6264279 C22.2588381,23.8525602 22.3921405,24.1552626 22.3921405,24.4772864 C22.3921405,24.8093288 22.2624215,25.1077375 22.024484,25.3259981 C21.7772297,25.5600021 21.4583074,25.6866648 21.1300684,25.6866648 C20.7939458,25.6866648 20.482907,25.5600021 20.2428195,25.3238513 C20.0034486,25.094141 19.8744464,24.7971634 19.8744464,24.4772864 C19.8744464,24.1588406 20.0113321,23.8496977 20.2542864,23.6106845 C20.4864904,23.3845522 20.7917958,23.267908 21.1300684,23.267908 C21.4733577,23.267908 21.7872632,23.3909926 22.0287841,23.6264279 L22.0287841,23.6264279 Z" id="Fill-47" fill="#00AEEF"></path>
                <path d="M63.0927606,12.7459813 L63.0927606,15.9836535 L63.1189816,16.9463397 L64.0404633,16.9463397 C64.4662428,16.9213673 64.9207406,16.88266 65.3053156,16.5105712 C65.8110068,15.9961397 65.8110068,15.1208569 65.8110068,14.8161936 C65.8110068,13.8772312 65.5987413,13.381529 65.221658,13.0868546 C64.9407185,12.8658489 64.4550052,12.7359924 63.7145734,12.7459813 L63.0927606,12.7459813 Z M63.1189816,9.06879482 L63.1039982,9.91036484 L63.0927606,12.3926218 L63.8981206,12.3926218 C64.4312814,12.3926218 64.8583095,12.2253067 65.0268733,12.0043009 C65.2353928,11.76082 65.3427742,11.3575157 65.3427742,10.7244652 C65.3427742,9.34848574 64.9207406,9.09501584 63.9817782,9.06879482 L63.1189816,9.06879482 Z M59.9999283,8.70419772 L64.8220996,8.70419772 C65.3053156,8.71668392 65.8434709,8.74290495 66.3416703,8.9626621 C67.2706438,9.41216538 67.2943676,10.3224095 67.2943676,10.5184429 C67.2943676,11.0054048 67.1233066,11.4536594 66.7686985,11.8082675 C66.1943332,12.4063566 65.4414152,12.4900142 64.8945195,12.5524452 C65.4901114,12.576169 66.4490517,12.6261138 67.1932293,13.381529 C67.4866551,13.6587227 67.8425118,14.1581708 67.8425118,14.9472987 C67.8425118,15.5116751 67.657716,16.0972779 67.1932293,16.5567702 C66.5027423,17.2485058 65.6224651,17.2734782 64.8695471,17.297202 L59.9999283,17.297202 L59.9999283,16.9850469 L61.181123,16.9850469 L61.2048468,15.7776312 L61.2048468,10.0302324 L61.181123,9.02134725 L59.9999283,9.02134725 L59.9999283,8.70419772 Z" id="Fill-1" fill="#231F20"></path>
                <path d="M69.7869881,8.70382313 C70.3613534,8.69633141 70.5324143,8.69633141 71.0668238,8.65512695 L71.0431,10.0073826 L71.0431,16.0094999 L71.0668238,16.9846723 L71.9071452,16.9846723 L71.9071452,17.2968274 L68.3523235,17.2968274 L68.3523235,16.9846723 L69.2650648,16.9846723 L69.2887886,16.0094999 L69.2887886,10.0073826 L69.2650648,9.02097267 L68.3523235,9.02097267 L68.3523235,8.70382313 L69.7869881,8.70382313 Z" id="Fill-3" fill="#231F20"></path>
                <path d="M73.3207081,11.4083345 C73.9512613,11.3970969 74.1447974,11.3970969 74.7416379,11.3571411 L74.7179141,12.4896396 L74.7179141,15.2153775 C74.7179141,15.6798642 74.7416379,16.0332237 74.8402789,16.2767047 C74.9951078,16.6525393 75.3259921,16.8236003 75.7292965,16.8236003 C76.082656,16.8236003 76.3885679,16.6912466 76.6195627,16.4714894 C77.0927897,15.9957651 77.0790549,15.3652119 77.0790549,14.825808 L77.0790549,12.6619492 L77.0553311,11.7242354 L76.155076,11.7242354 L76.155076,11.4083345 L77.2014197,11.4083345 C77.9056415,11.3970969 78.1154097,11.3970969 78.8196315,11.3571411 L78.7959077,12.4896396 L78.7959077,15.86466 L78.8196315,16.9696889 L79.6999087,16.9696889 L79.6999087,17.2968274 L78.7709353,17.2968274 C77.9917963,17.2968274 77.713354,17.3130594 77.1265025,17.3480208 L77.0927897,16.4115556 C76.8343254,16.7274566 76.2399821,17.4304297 74.8652513,17.4304297 C73.9662447,17.4304297 73.3918795,17.0920537 73.1583875,16.6275669 C72.9773375,16.2866936 72.9885751,15.8471793 72.9885751,15.4850795 L72.9885751,12.613253 L72.9648513,11.7242354 L72.0758338,11.7242354 L72.0758338,11.4083345 L73.3207081,11.4083345 Z" id="Fill-5" fill="#231F20"></path>
                <path d="M84.2814708,13.6446133 C84.2914598,12.6969105 84.3026974,11.5781468 83.2076575,11.5781468 C82.1737999,11.5781468 82.1226065,12.613253 82.0863965,13.6446133 L84.2814708,13.6446133 Z M86.0570088,15.5937094 C85.7386106,16.1893012 85.0843336,17.4304297 83.2426188,17.4304297 C81.3534565,17.4304297 80.1997314,15.9832789 80.1997314,14.2926472 C80.1997314,12.6744354 81.2922741,11.2397708 83.2576023,11.2397708 C84.4700125,11.2397708 85.1405215,11.7604454 85.4351959,12.0638601 C86.1032077,12.7580929 86.1281801,13.4897844 86.1431636,14.0117076 L82.0751589,14.0117076 C82.0863965,15.0468138 82.1101203,15.9832789 82.6233032,16.5214342 C82.9017455,16.8123627 83.3075471,16.9334789 83.7058569,16.9334789 C85.0181567,16.9334789 85.5176048,15.8296986 85.6899144,15.433886 L86.0570088,15.5937094 Z" id="Fill-7" fill="#231F20"></path>
                <path d="M94.7008318,16.6918709 C93.7980794,17.0177608 92.6805643,17.4210651 91.2796125,17.4210651 C88.7723831,17.4210651 86.9094418,15.6193061 86.9094418,12.9884634 C86.9094418,10.1540955 89.0558199,8.50966269 91.4743972,8.50966269 C92.2185749,8.50966269 93.3635596,8.67947504 94.650887,9.23885689 L94.650887,11.6611801 L94.2750523,11.6611801 C94.2151186,11.2004392 94.115229,10.4425268 93.3747972,9.70334361 C92.8004319,9.13272417 92.1461549,8.9242046 91.5730382,8.9242046 C90.9287502,8.9242046 90.2819649,9.19140932 89.8561854,9.61718881 C89.2481074,10.2252669 88.9796541,11.2004392 88.9796541,12.9772258 C88.9796541,14.6915813 89.1894223,15.7554057 89.8212241,16.4009424 C90.1720864,16.7642909 90.7314682,17.056468 91.4019773,17.056468 C92.0450167,17.056468 92.8116695,16.8005008 93.434731,16.142478 C94.1664224,15.3870628 94.2488313,14.7427747 94.2975275,14.2795366 L94.7008318,14.2795366 L94.7008318,16.6918709 Z" id="Fill-9" fill="#231F20"></path>
                <path d="M98.3223299,16.9844226 L99.2250823,16.9844226 L99.2250823,17.2965776 L95.6527799,17.2965776 L95.6527799,16.9844226 L96.5442947,16.9844226 L96.5680185,15.9955154 L96.5680185,12.7965504 L96.5442947,11.7239857 L95.6527799,11.7239857 L95.6527799,11.4080848 L97.0175218,11.4080848 C97.5794009,11.3968472 97.762948,11.3968472 98.2711364,11.3568913 L98.2961088,12.2833675 L98.2961088,12.5518209 C98.3822636,12.2833675 98.4684184,12.0511242 98.7331259,11.7864167 C99.0165627,11.4929909 99.4136239,11.2994548 99.8531382,11.2994548 C100.634774,11.2994548 100.963162,11.9175218 100.963162,12.4656661 C100.963162,13.2085951 100.4762,13.3309599 100.207746,13.3309599 C100.085382,13.3309599 99.4498339,13.2672803 99.4498339,12.5268485 C99.4498339,12.4656661 99.492287,12.1610028 99.492287,12.0985717 C99.492287,11.8463505 99.304994,11.8463505 99.2725298,11.8463505 C99.1114578,11.8463505 98.8941979,12.0398866 98.7331259,12.2833675 C98.3310702,12.9276556 98.3073464,13.8778555 98.2961088,14.5458673 L98.2961088,15.9955154 L98.3223299,16.9844226 Z" id="Fill-11" fill="#231F20"></path>
                <path d="M103.10467,14.0848768 C103.10467,15.9952657 103.225786,17.0915542 104.394495,17.0915542 C105.575689,17.0915542 105.660596,15.9840281 105.660596,14.3770539 C105.660596,12.903682 105.588176,11.552675 104.382009,11.5651612 C103.252007,11.5651612 103.10467,12.7213835 103.10467,14.0848768 M107.524786,14.3770539 C107.524786,16.299929 105.990231,17.4311789 104.347047,17.4311789 C102.554029,17.4311789 101.255464,16.1413542 101.255464,14.3271091 C101.255464,12.4154715 102.640183,11.2729841 104.322075,11.2480117 C106.294895,11.2130503 107.524786,12.6127535 107.524786,14.3770539" id="Fill-13" fill="#231F20"></path>
                <path d="M108.752679,15.0579265 C108.802624,15.411286 108.840082,15.7034631 109.033618,16.0693088 C109.227154,16.4588784 109.724105,17.068205 110.589399,17.068205 C111.311102,17.068205 111.785577,16.6661493 111.785577,16.1791874 C111.785577,15.6272973 111.249919,15.411286 110.469532,15.1328437 C109.388226,14.730788 108.472988,14.4048981 108.472988,13.1075817 C108.472988,11.578022 109.815255,11.2271597 110.653079,11.2271597 C111.323588,11.2271597 111.871732,11.4181986 112.442351,11.614232 L112.466075,13.1974824 L112.097732,13.1974824 C112.054031,12.9540014 112.002837,12.7367415 111.91918,12.5394595 C111.761853,12.2098238 111.294869,11.6254695 110.519476,11.6254695 C109.862702,11.6254695 109.568028,12.0649839 109.568028,12.3708958 C109.568028,12.7454819 109.886426,12.902808 110.021277,12.965239 C110.212316,13.0513938 111.175002,13.4047533 111.39351,13.4896595 C112.136439,13.7930742 112.903092,14.2051189 112.903092,15.3288771 C112.903092,16.6037183 111.905445,17.4452883 110.444559,17.4452883 C109.642945,17.4452883 109.033618,17.2267798 108.399319,16.9945364 L108.374347,15.0579265 L108.752679,15.0579265 Z" id="Fill-15" fill="#231F20"></path>
                <path d="M114.327643,15.0579265 C114.375091,15.411286 114.413798,15.7034631 114.609831,16.0693088 C114.803367,16.4588784 115.301567,17.068205 116.168109,17.068205 C116.884817,17.068205 117.36179,16.6661493 117.36179,16.1791874 C117.36179,15.6272973 116.821138,15.411286 116.041999,15.1328437 C114.966937,14.730788 114.049201,14.4048981 114.049201,13.1075817 C114.049201,11.578022 115.387722,11.2271597 116.229292,11.2271597 C116.896055,11.2271597 117.444199,11.4181986 118.014819,11.614232 L118.04104,13.1974824 L117.677691,13.1974824 C117.630244,12.9540014 117.57905,12.7367415 117.492895,12.5394595 C117.333072,12.2098238 116.87358,11.6254695 116.093192,11.6254695 C115.437666,11.6254695 115.146738,12.0649839 115.146738,12.3708958 C115.146738,12.7454819 115.458893,12.902808 115.592495,12.965239 C115.791026,13.0513938 116.748718,13.4047533 116.968475,13.4896595 C117.711404,13.7930742 118.478057,14.2051189 118.478057,15.3288771 C118.478057,16.6037183 117.481658,17.4452883 116.019523,17.4452883 C115.216661,17.4452883 114.609831,17.2267798 113.975532,16.9945364 L113.953057,15.0579265 L114.327643,15.0579265 Z" id="Fill-17" fill="#231F20"></path>
                <path d="M125.784732,12.7459813 L125.784732,15.9836535 L125.808456,16.9463397 L126.734932,16.9463397 C127.163209,16.9213673 127.612712,16.88266 127.999785,16.5105712 C128.499233,15.9961397 128.499233,15.1208569 128.499233,14.8161936 C128.499233,13.8772312 128.291962,13.381529 127.91363,13.0868546 C127.635187,12.8658489 127.149474,12.7359924 126.407794,12.7459813 L125.784732,12.7459813 Z M125.808456,9.06879482 L125.79597,9.91036484 L125.784732,12.3926218 L126.590092,12.3926218 C127.123253,12.3926218 127.549033,12.2253067 127.721342,12.0043009 C127.928613,11.76082 128.037243,11.3575157 128.037243,10.7244652 C128.037243,9.34848574 127.612712,9.09501584 126.674999,9.06879482 L125.808456,9.06879482 Z M122.6919,8.70419772 L127.512823,8.70419772 C127.999785,8.71668392 128.535443,8.74290495 129.036139,8.9626621 C129.961367,9.41216538 129.982593,10.3224095 129.982593,10.5184429 C129.982593,11.0054048 129.816527,11.4536594 129.46067,11.8082675 C128.888802,12.4063566 128.134636,12.4900142 127.585243,12.5524452 C128.179586,12.576169 129.144769,12.6261138 129.88645,13.381529 C130.179875,13.6587227 130.534484,14.1581708 130.534484,14.9472987 C130.534484,15.5116751 130.347191,16.0972779 129.88645,16.5567702 C129.193465,17.2485058 128.315685,17.2734782 127.56027,17.297202 L122.6919,17.297202 L122.6919,16.9850469 L123.873095,16.9850469 L123.898067,15.7776312 L123.898067,10.0302324 L123.873095,9.02134725 L122.6919,9.02134725 L122.6919,8.70419772 Z" id="Fill-19" fill="#231F20"></path>
                <path d="M132.783748,8.70382313 C133.359362,8.69633141 133.529174,8.69633141 134.063584,8.65512695 L134.03986,10.0073826 L134.03986,16.0094999 L134.063584,16.9846723 L134.902657,16.9846723 L134.902657,17.2968274 L131.350332,17.2968274 L131.350332,16.9846723 L132.261825,16.9846723 L132.288046,16.0094999 L132.288046,10.0073826 L132.261825,9.02097267 L131.350332,9.02097267 L131.350332,8.70382313 L132.783748,8.70382313 Z" id="Fill-21" fill="#231F20"></path>
                <path d="M136.318717,11.4083345 C136.948021,11.3970969 137.144055,11.3970969 137.738398,11.3571411 L137.715923,12.4896396 L137.715923,15.2153775 C137.715923,15.6798642 137.738398,16.0332237 137.834542,16.2767047 C137.994365,16.6525393 138.324001,16.8236003 138.727305,16.8236003 C139.079416,16.8236003 139.380333,16.6912466 139.613825,16.4714894 C140.090798,15.9957651 140.078312,15.3652119 140.078312,14.825808 L140.078312,12.6619492 L140.050842,11.7242354 L139.150587,11.7242354 L139.150587,11.4083345 L140.19818,11.4083345 C140.904899,11.3970969 141.11217,11.3970969 141.818889,11.3571411 L141.792668,12.4896396 L141.792668,15.86466 L141.818889,16.9696889 L142.692923,16.9696889 L142.692923,17.2968274 L141.765198,17.2968274 C140.988556,17.2968274 140.708865,17.3130594 140.128257,17.3480208 L140.090798,16.4115556 C139.832334,16.7274566 139.237991,17.4304297 137.862011,17.4304297 C136.959259,17.4304297 136.391137,17.0920537 136.158893,16.6275669 C135.974098,16.2866936 135.984086,15.8471793 135.984086,15.4850795 L135.984086,12.613253 L135.96286,11.7242354 L135.072594,11.7242354 L135.072594,11.4083345 L136.318717,11.4083345 Z" id="Fill-23" fill="#231F20"></path>
                <path d="M147.577026,13.6446133 C147.589512,12.6969105 147.604495,11.5781468 146.508207,11.5781468 C145.470603,11.5781468 145.423156,12.613253 145.386946,13.6446133 L147.577026,13.6446133 Z M149.357558,15.5937094 C149.041657,16.1893012 148.383634,17.4304297 146.544417,17.4304297 C144.656503,17.4304297 143.500281,15.9832789 143.500281,14.2926472 C143.500281,12.6744354 144.596569,11.2397708 146.554406,11.2397708 C147.775556,11.2397708 148.444817,11.7604454 148.736994,12.0638601 C149.405006,12.7580929 149.427481,13.4897844 149.442464,14.0117076 L145.378205,14.0117076 C145.386946,15.0468138 145.413167,15.9832789 145.922604,16.5214342 C146.203543,16.8123627 146.60435,16.9334789 147.006406,16.9334789 C148.322452,16.9334789 148.818154,15.8296986 148.992961,15.433886 L149.357558,15.5937094 Z" id="Fill-25" fill="#231F20"></path>
                <path d="M150.564474,14.3653169 C150.628154,14.7186764 150.689336,15.0345773 150.896607,15.4591082 C151.624553,16.9699386 152.951836,17.0061486 153.221538,17.0061486 C154.180478,17.0061486 154.995827,16.4342805 154.995827,15.5452629 C154.995827,14.6599912 154.326567,14.3653169 152.488598,13.6111503 C152.196421,13.4900341 151.91673,13.3814041 151.649525,13.2328183 C151.327381,13.0642546 150.282286,12.4561766 150.282286,11.0539761 C150.282286,9.54564287 151.492199,8.53426051 153.181582,8.53426051 C154.241661,8.53426051 155.070745,8.88762003 155.504016,9.06866996 L155.628878,11.1139098 L155.23806,11.1139098 C155.070745,10.4808594 154.970855,10.1312458 154.545076,9.70421764 C154.120545,9.26844919 153.559914,8.96253724 152.951836,8.96253724 C152.02536,8.96253724 151.539647,9.57935562 151.539647,10.2174005 C151.539647,10.9940423 152.246366,11.3199322 152.559769,11.4672694 C152.97556,11.6608055 153.387605,11.8081427 153.802146,11.9804523 C154.860976,12.4062318 156.187011,13.0392822 156.187011,14.7061902 C156.187011,16.2769544 154.959617,17.4306795 152.901891,17.4306795 C151.854299,17.4306795 151.050188,17.1409996 150.259811,16.8588114 L150.186142,14.3653169 L150.564474,14.3653169 Z" id="Fill-27" fill="#231F20"></path>
                <path d="M158.223261,8.70382313 C158.843825,8.70382313 158.989914,8.69633141 159.536809,8.65512695 L159.514334,9.98241022 L159.514334,12.2961035 C159.74408,11.9302577 159.975075,11.5918817 160.666811,11.3833621 C160.960236,11.2872183 161.252414,11.2472625 161.555828,11.2472625 C162.458581,11.2472625 162.898095,11.5993734 163.09288,11.7866664 C163.54488,12.2324238 163.58109,12.7693305 163.603565,13.2325686 L163.603565,16.1293675 L163.626041,16.9846723 L164.466362,16.9846723 L164.466362,17.2968274 L160.901551,17.2968274 L160.901551,16.9846723 L161.835519,16.9846723 L161.862989,16.1293675 L161.862989,13.2075962 C161.862989,12.7356178 161.862989,11.7866664 160.91154,11.7866664 C160.571915,11.7866664 160.243528,11.9302577 159.99755,12.1737387 C159.586754,12.587032 159.546798,13.1376735 159.514334,13.8406466 L159.514334,16.1293675 L159.536809,16.9846723 L160.450799,16.9846723 L160.450799,17.2968274 L156.894729,17.2968274 L156.894729,16.9846723 L157.784995,16.9846723 L157.806222,16.1193785 L157.806222,9.98241022 L157.784995,9.02097267 L156.894729,9.02097267 L156.894729,8.70382313 L158.223261,8.70382313 Z" id="Fill-29" fill="#231F20"></path>
                <path d="M165.847835,9.60495233 C165.847835,9.08053185 166.284852,8.64226616 166.82051,8.64226616 C167.341185,8.64226616 167.769462,9.06804565 167.769462,9.60495233 C167.769462,10.1443563 167.341185,10.5676385 166.82051,10.5676385 C166.565792,10.5676385 166.311073,10.4689975 166.141261,10.2879476 C165.958962,10.1044004 165.847835,9.8621681 165.847835,9.60495233 L165.847835,9.60495233 Z M166.212432,11.4079599 C166.917903,11.3979709 167.160135,11.3979709 167.758224,11.3567665 L167.7345,12.6977846 L167.7345,16.0328491 L167.758224,16.9842977 L168.599794,16.9842977 L168.599794,17.2964528 L165.041227,17.2964528 L165.041227,16.9842977 L165.958962,16.9842977 L165.977692,16.0328491 L165.977692,12.6977846 L165.958962,11.7238608 L165.041227,11.7238608 L165.041227,11.4079599 L166.212432,11.4079599 Z" id="Fill-31" fill="#231F20"></path>
                <path d="M173.148143,13.6446133 C173.159381,12.6969105 173.173115,11.5781468 172.078076,11.5781468 C171.042969,11.5781468 170.994273,12.613253 170.96056,13.6446133 L173.148143,13.6446133 Z M174.927427,15.5937094 C174.610277,16.1893012 173.953503,17.4304297 172.116783,17.4304297 C170.22762,17.4304297 169.070149,15.9832789 169.070149,14.2926472 C169.070149,12.6744354 170.167687,11.2397708 172.12802,11.2397708 C173.344176,11.2397708 174.012188,11.7604454 174.305614,12.0638601 C174.976123,12.7580929 174.998598,13.4897844 175.009836,14.0117076 L170.948074,14.0117076 C170.96056,15.0468138 170.980538,15.9832789 171.493721,16.5214342 C171.775909,16.8123627 172.176717,16.9334789 172.576275,16.9334789 C173.893569,16.9334789 174.39052,15.8296986 174.56283,15.433886 L174.927427,15.5937094 Z" id="Fill-33" fill="#231F20"></path>
                <path d="M176.828077,8.70382313 C177.399945,8.69633141 177.572254,8.69633141 178.106664,8.65512695 L178.08294,10.0073826 L178.08294,16.0094999 L178.106664,16.9846723 L178.946985,16.9846723 L178.946985,17.2968274 L175.392163,17.2968274 L175.392163,16.9846723 L176.306153,16.9846723 L176.326131,16.0094999 L176.326131,10.0073826 L176.306153,9.02097267 L175.392163,9.02097267 L175.392163,8.70382313 L176.828077,8.70382313 Z" id="Fill-35" fill="#231F20"></path>
                <g id="Group-39" transform="translate(179.579786, 7.979748)">
                    <mask id="mask-4" fill="white">
                        <use xlink:href="#path-3"></use>
                    </mask>
                    <g id="Clip-38"></g>
                    <path d="M2.46714866,4.11882346 C2.117535,4.4859178 2.05884985,5.20387442 2.05884985,6.34761052 C2.05884985,7.74981101 2.09131398,8.91602228 3.21257492,8.91602228 C3.51848687,8.91602228 3.87059777,8.82112715 4.15153731,8.53019864 C4.47742719,8.18682808 4.5773168,7.76104859 4.5773168,6.22524575 C4.5773168,5.12895721 4.5773168,3.79293359 3.28624351,3.80666841 C2.90791159,3.80666841 2.62946929,3.95025974 2.46714866,4.11882346 L2.46714866,4.11882346 Z M4.83453256,0.723825132 C5.54000298,0.723825132 5.75601427,0.71633341 6.30415854,0.675128944 L6.28043476,1.6615389 L6.28043476,8.14062914 L6.30415854,8.98969087 L7.17194958,8.98969087 L7.17194958,9.31682937 L6.02571624,9.31682937 C5.34272099,9.33306143 5.12546107,9.33306143 4.54984716,9.3680228 L4.54984716,8.56640863 C4.27140485,8.91602228 3.83438778,9.45168035 2.70188926,9.45168035 C0.877655141,9.45168035 0.148460942,7.79725858 0.148460942,6.45873772 C0.148460942,4.54710019 1.29344567,3.31970653 2.85796678,3.31970653 C3.61463063,3.31970653 4.01668633,3.56069023 4.29637726,3.83913254 C4.46743822,4.01144213 4.50614545,4.09759692 4.54984716,4.24618272 L4.54984716,1.83384849 L4.52487475,1.04097466 L3.62586821,1.04097466 L3.62586821,0.723825132 L4.83453256,0.723825132 Z" id="Fill-37" fill="#231F20" mask="url(#mask-4)"></path>
                </g>
                <path d="M191.852881,13.5549623 C191.852881,15.4678485 191.972748,16.5603912 193.13896,16.5603912 C194.3239,16.5603912 194.410055,15.4541137 194.410055,13.8471395 C194.410055,12.3775135 194.335138,11.0265064 193.128971,11.0352046 C191.998969,11.0352046 191.852881,12.1889718 191.852881,13.5549623 M196.26925,13.8471395 C196.26925,15.768766 194.738442,16.9012645 193.092761,16.9012645 C191.303488,16.9012645 189.999928,15.6139371 189.999928,13.7971947 C189.999928,11.8868058 191.388394,10.7430696 193.070285,10.7193459 C195.043105,10.6843845 196.26925,12.0840877 196.26925,13.8471395" id="Fill-40" fill="#231F20"></path>
                <path d="M200.423784,9.01647763 C200.423784,8.68434466 200.291431,8.38092995 199.886878,8.38092995 C199.326247,8.38092995 199.326247,8.9403118 199.326247,9.4410085 L199.326247,10.8744245 L200.322646,10.8744245 L200.322646,11.1940713 L199.326247,11.1940713 L199.326247,15.320761 L199.35122,16.4495137 L200.322646,16.4495137 L200.322646,16.7679119 L196.710388,16.7679119 L196.710388,16.4495137 L197.596908,16.4495137 L197.623129,15.320761 L197.623129,11.1940713 L196.710388,11.1940713 L196.710388,10.8744245 L197.623129,10.8744245 L197.623129,10.3300261 C197.636864,9.64703084 197.636864,8.77299669 198.533373,8.31974756 C198.972888,8.0999904 199.45985,8.04005663 199.946811,8.04005663 C201.618714,8.04005663 201.947101,8.89536147 201.947101,9.39106369 C201.947101,9.58959431 201.907145,10.1564679 201.152979,10.1564679 C200.408801,10.1564679 200.408801,9.58959431 200.408801,9.46473229 L200.423784,9.01647763 Z" id="Fill-42" fill="#231F20"></path>
                <polygon id="Fill-44" fill="#231F20" points="204.612281 8.17515734 208.068462 8.17515734 212.483583 13.8126776 212.483583 9.58984403 212.461107 8.49230687 211.160045 8.49230687 211.160045 8.17515734 214.048104 8.17515734 214.048104 8.49230687 212.925594 8.49230687 212.900622 9.58984403 212.900622 16.8892777 212.598456 16.9879187 206.206769 8.85690397 206.19678 9.92697148 206.19678 15.3210108 206.216758 16.4497634 207.54529 16.4497634 207.54529 16.7681616 204.612281 16.7681616 204.612281 16.4497634 205.792227 16.4497634 205.815951 15.3210108 205.815951 9.58984403 205.792227 8.49230687 204.612281 8.49230687"></polygon>
                <path d="M215.740109,13.5549623 C215.740109,15.4678485 215.862474,16.5603912 217.026188,16.5603912 C218.208631,16.5603912 218.294786,15.4541137 218.294786,13.8471395 C218.294786,12.3775135 218.219869,11.0265064 217.017447,11.0352046 C215.887446,11.0352046 215.740109,12.1889718 215.740109,13.5549623 M220.157727,13.8471395 C220.157727,15.768766 218.62567,16.9012645 216.979989,16.9012645 C215.189467,16.9012645 213.889654,15.6139371 213.889654,13.7971947 C213.889654,11.8868058 215.275622,10.7430696 216.958762,10.7193459 C218.930334,10.6843845 220.157727,12.0840877 220.157727,13.8471395" id="Fill-46" fill="#231F20"></path>
                <path d="M223.020813,16.4496386 L223.91982,16.4496386 L223.91982,16.7680367 L220.351263,16.7680367 L220.351263,16.4496386 L221.242778,16.4496386 L221.267751,15.4682231 L221.267751,12.263015 L221.242778,11.1941961 L220.351263,11.1941961 L220.351263,10.8745494 L221.716005,10.8745494 C222.279133,10.865809 222.456437,10.865809 222.970869,10.8271018 L222.994592,11.7560752 L222.994592,12.0207827 C223.077001,11.7560752 223.165653,11.5213346 223.431609,11.2553785 C223.7113,10.9619528 224.112107,10.7646708 224.554119,10.7646708 C225.332009,10.7646708 225.656651,11.3889809 225.656651,11.9396224 C225.656651,12.6775569 225.172186,12.8011703 224.904981,12.8011703 C224.783865,12.8011703 224.148317,12.7399879 224.148317,11.9983075 C224.148317,11.9396224 224.188273,11.6312132 224.188273,11.5712794 C224.188273,11.3140637 224.005975,11.3140637 223.969765,11.3140637 C223.807444,11.3140637 223.591433,11.5088484 223.431609,11.7560752 C223.0333,12.3966174 223.007079,13.3493146 222.994592,14.018575 L222.994592,15.4682231 L223.020813,16.4496386 Z" id="Fill-48" fill="#231F20"></path>
                <path d="M226.841092,9.22137621 L228.594154,9.22137621 L228.570431,10.4849799 L228.570431,10.8745494 L229.782841,10.8745494 L229.782841,11.1941961 L228.570431,11.1941961 L228.570431,14.906344 C228.584166,15.695472 228.594154,16.3684782 229.202233,16.3684782 C229.565581,16.3684782 229.782841,16.1711963 230.020079,15.9526877 L230.238587,16.1974173 C229.885228,16.5133182 229.468189,16.8779153 228.461801,16.8779153 C226.852329,16.8779153 226.852329,15.7953616 226.852329,15.176046 L226.864816,13.4329722 L226.864816,11.1941961 L225.942085,11.1941961 L225.942085,10.8745494 L226.864816,10.8745494 L226.864816,10.4849799 L226.841092,9.22137621 Z" id="Fill-50" fill="#231F20"></path>
                <path d="M231.585599,8.17515734 C232.207412,8.17515734 232.355997,8.16142252 232.901644,8.12521253 L232.876672,9.45249581 L232.876672,11.7649404 C233.111413,11.4015919 233.337413,11.0607186 234.032894,10.8546963 C234.325071,10.7548067 234.618497,10.7198453 234.921912,10.7198453 C235.824664,10.7198453 236.264179,11.0732048 236.457715,11.2555034 C236.907218,11.7050067 236.944677,12.243162 236.969649,12.7026542 L236.969649,15.5982044 L236.992124,16.4497634 L237.833694,16.4497634 L237.833694,16.7681616 L234.265138,16.7681616 L234.265138,16.4497634 L235.201603,16.4497634 L235.226575,15.5982044 L235.226575,12.6764332 C235.226575,12.2007089 235.226575,11.2555034 234.277624,11.2555034 C233.936751,11.2555034 233.605866,11.4015919 233.366131,11.6425756 C232.951589,12.0608634 232.914131,12.6065104 232.876672,13.3107322 L232.876672,15.5982044 L232.901644,16.4497634 L233.814386,16.4497634 L233.814386,16.7681616 L230.262061,16.7681616 L230.262061,16.4497634 L231.147333,16.4497634 L231.172305,15.5882155 L231.172305,9.45249581 L231.147333,8.49230687 L230.262061,8.49230687 L230.262061,8.17515734 L231.585599,8.17515734 Z" id="Fill-52" fill="#231F20"></path>
                <path d="M248.620025,16.1607078 C247.722267,16.489095 246.603503,16.8886534 245.202551,16.8886534 C242.695322,16.8886534 240.832381,15.0881431 240.832381,12.4622948 C240.832381,9.62418109 242.973764,7.97974828 245.396087,7.97974828 C246.140265,7.97974828 247.284001,8.15205787 248.573826,8.7101911 L248.573826,11.1312657 L248.194245,11.1312657 C248.13556,10.6717734 248.038168,9.91760683 247.292741,9.17342919 C246.723371,8.60280976 246.069094,8.39179295 245.494728,8.39179295 C244.847943,8.39179295 244.204904,8.66149491 243.779124,9.0872744 C243.169798,9.69660106 242.900096,10.6717734 242.900096,12.4473114 C242.900096,14.1654128 243.109864,15.2229941 243.740417,15.8685307 C244.092528,16.2343764 244.653158,16.5253049 245.32117,16.5253049 C245.969204,16.5253049 246.738354,16.271835 247.35767,15.6150608 C248.086864,14.8596456 248.17177,14.214109 248.219218,13.7508709 L248.620025,13.7508709 L248.620025,16.1607078 Z" id="Fill-54" fill="#231F20"></path>
                <path d="M253.302351,13.1171961 C253.108814,13.1896161 252.925267,13.2632847 252.725488,13.3244671 C251.852702,13.6291304 251.234635,13.8351527 251.234635,15.0987564 C251.234635,15.3672097 251.234635,16.3174097 252.133642,16.3174097 C253.251157,16.3174097 253.276129,15.0026126 253.302351,14.0049651 L253.302351,13.1171961 Z M254.96801,15.5020607 C254.96801,15.8092213 254.992982,16.4410231 255.613547,16.4410231 C255.712188,16.4410231 255.794596,16.4285369 255.883248,16.4135534 L255.883248,16.7681616 C255.248949,16.819355 254.885601,16.8430788 254.444838,16.8430788 C253.51961,16.8430788 253.384759,16.2936859 253.302351,15.9178512 C253.142527,16.1975421 252.725488,16.8892777 251.440658,16.8892777 C250.295673,16.8892777 249.491562,16.2712107 249.491562,15.053806 C249.491562,13.8975837 250.24448,13.6141469 250.596591,13.4830418 C250.998646,13.3494395 251.415685,13.2870085 251.815244,13.2021023 C252.315941,13.0922237 252.8054,12.9348976 253.289864,12.7750742 L253.289864,12.1420237 C253.276129,11.7174929 253.251157,11.0607186 252.315941,11.0607186 C251.915133,11.0607186 251.621708,11.1818348 251.464382,11.3379123 C251.278337,11.5214595 251.278337,11.6925205 251.278337,12.0209076 C251.278337,12.3143333 251.193431,12.6764332 250.564126,12.6764332 C250.366844,12.6764332 249.914844,12.6564552 249.914844,12.1070624 C249.914844,11.7986532 250.088402,11.5089733 250.283187,11.3141885 C250.564126,11.0357462 251.099784,10.7198453 252.498239,10.7198453 C254.920562,10.7198453 254.944286,11.8398576 254.96801,12.7138918 L254.96801,15.5020607 Z" id="Fill-56" fill="#231F20"></path>
                <path d="M259.034516,16.4496386 L259.937269,16.4496386 L259.937269,16.7680367 L256.367463,16.7680367 L256.367463,16.4496386 L257.25773,16.4496386 L257.285199,15.4682231 L257.285199,12.263015 L257.25773,11.1941961 L256.367463,11.1941961 L256.367463,10.8745494 L257.730957,10.8745494 C258.294084,10.865809 258.475134,10.865809 258.98582,10.8271018 L259.012041,11.7560752 L259.012041,12.0207827 C259.096947,11.7560752 259.180605,11.5213346 259.446561,11.2553785 C259.732495,10.9619528 260.133302,10.7646708 260.56907,10.7646708 C261.349458,10.7646708 261.676596,11.3889809 261.676596,11.9396224 C261.676596,12.6775569 261.190883,12.8011703 260.921181,12.8011703 C260.802562,12.8011703 260.168263,12.7399879 260.168263,11.9983075 C260.168263,11.9396224 260.206971,11.6312132 260.206971,11.5712794 C260.206971,11.3140637 260.022175,11.3140637 259.987213,11.3140637 C259.824893,11.3140637 259.608881,11.5088484 259.446561,11.7560752 C259.048251,12.3966174 259.024527,13.3493146 259.012041,14.018575 L259.012041,15.4682231 L259.034516,16.4496386 Z" id="Fill-58" fill="#231F20"></path>
                <path d="M263.819229,13.5549623 C263.819229,15.4678485 263.941594,16.5603912 265.110302,16.5603912 C266.292745,16.5603912 266.376403,15.4541137 266.376403,13.8471395 C266.376403,12.3775135 266.302734,11.0265064 265.097816,11.0352046 C263.967815,11.0352046 263.819229,12.1889718 263.819229,13.5549623 M268.239344,13.8471395 C268.239344,15.768766 266.702293,16.9012645 265.061606,16.9012645 C263.272333,16.9012645 261.968774,15.6139371 261.968774,13.7971947 C261.968774,11.8868058 263.355991,10.7430696 265.036633,10.7193459 C267.008205,10.6843845 268.239344,12.0840877 268.239344,13.8471395" id="Fill-60" fill="#231F20"></path>
                <path d="M269.870916,8.17515734 C270.442784,8.16142252 270.612597,8.16142252 271.148255,8.12521253 L271.123282,9.47871683 L271.123282,15.4795855 L271.148255,16.4497634 L271.987328,16.4497634 L271.987328,16.7681616 L268.432506,16.7681616 L268.432506,16.4497634 L269.345247,16.4497634 L269.37022,15.4795855 L269.37022,9.47871683 L269.345247,8.49230687 L268.432506,8.49230687 L268.432506,8.17515734 L269.870916,8.17515734 Z" id="Fill-62" fill="#231F20"></path>
                <path d="M273.290013,9.0737893 C273.290013,8.55311468 273.730776,8.11360036 274.26144,8.11360036 C274.788357,8.11360036 275.212888,8.53937985 275.212888,9.0737893 C275.212888,9.61194461 274.788357,10.0389727 274.26144,10.0389727 C274.006721,10.0389727 273.753251,9.9390831 273.579693,9.75803317 C273.399892,9.574486 273.290013,9.32850782 273.290013,9.0737893 L273.290013,9.0737893 Z M273.65461,10.8742996 C274.361329,10.8668079 274.606059,10.8668079 275.201651,10.8268521 L275.174181,12.1678702 L275.174181,15.5016861 L275.201651,16.4493888 L276.040723,16.4493888 L276.040723,16.767787 L272.485902,16.767787 L272.485902,16.4493888 L273.399892,16.4493888 L273.423615,15.5016861 L273.423615,12.1678702 L273.399892,11.1939464 L272.485902,11.1939464 L272.485902,10.8742996 L273.65461,10.8742996 Z" id="Fill-64" fill="#231F20"></path>
                <path d="M283.232651,16.4496386 L284.076718,16.4496386 L284.076718,16.7680367 L280.58183,16.7680367 L280.58183,16.4496386 L281.445875,16.4496386 L281.469599,15.5019358 L281.469599,12.3766395 C281.457113,11.9983075 281.445875,11.2903399 280.643013,11.2903399 C280.339598,11.2903399 279.99373,11.4139533 279.737763,11.6574342 C279.228326,12.1568823 279.218337,12.9447617 279.195862,13.7251493 L279.195862,15.5019358 L279.218337,16.4496386 L280.071144,16.4496386 L280.071144,16.7680367 L276.550035,16.7680367 L276.550035,16.4496386 L277.44155,16.4496386 L277.462777,15.5019358 L277.462777,12.0844623 L277.44155,11.207931 L276.550035,11.207931 L276.550035,10.8882842 L277.804899,10.8882842 C278.46417,10.8745494 278.633983,10.8745494 279.218337,10.8408366 L279.195862,11.9109041 C279.350691,11.5937546 279.473055,11.3515223 279.826415,11.1067927 C280.178526,10.8745494 280.677974,10.704737 281.326008,10.704737 C281.760528,10.704737 282.040219,10.7921404 282.211279,10.8558201 C283.15149,11.207931 283.185203,11.9983075 283.210176,12.5077446 L283.210176,15.5019358 L283.232651,16.4496386 Z" id="Fill-66" fill="#231F20"></path>
                <path d="M288.691618,13.1171961 C288.499331,13.1896161 288.314535,13.2632847 288.11975,13.3244671 C287.24197,13.6291304 286.622655,13.8351527 286.622655,15.0987564 C286.622655,15.3672097 286.622655,16.3174097 287.52291,16.3174097 C288.642922,16.3174097 288.667895,15.0026126 288.691618,14.0049651 L288.691618,13.1171961 Z M290.358526,15.5020607 C290.358526,15.8092213 290.383499,16.4410231 291.002814,16.4410231 C291.101455,16.4410231 291.188859,16.4285369 291.267522,16.4135534 L291.267522,16.7681616 C290.638217,16.819355 290.274869,16.8430788 289.836603,16.8430788 C288.910127,16.8430788 288.775276,16.2936859 288.691618,15.9178512 C288.531795,16.1975421 288.11975,16.8892777 286.827428,16.8892777 C285.68619,16.8892777 284.879581,16.2712107 284.879581,15.053806 C284.879581,13.8975837 285.636245,13.6141469 285.989604,13.4830418 C286.390411,13.3494395 286.803705,13.2870085 287.204512,13.2021023 C287.706457,13.0922237 288.190922,12.9348976 288.679132,12.7750742 L288.679132,12.1420237 C288.667895,11.7174929 288.642922,11.0607186 287.706457,11.0607186 C287.30565,11.0607186 287.012224,11.1818348 286.854898,11.3379123 C286.671351,11.5214595 286.671351,11.6925205 286.671351,12.0209076 C286.671351,12.3143333 286.586445,12.6764332 285.953394,12.6764332 C285.757361,12.6764332 285.309106,12.6564552 285.309106,12.1070624 C285.309106,11.7986532 285.478919,11.5089733 285.672455,11.3141885 C285.953394,11.0357462 286.489052,10.7198453 287.887507,10.7198453 C290.307333,10.7198453 290.334803,11.8398576 290.358526,12.7138918 L290.358526,15.5020607 Z" id="Fill-68" fill="#231F20"></path>
            </g>
        </g>
    </g>
</svg>