<?xml version="1.0" encoding="UTF-8"?>
<svg width="88px" height="26px" viewBox="0 0 88 26" version="1.1" xmlns="http://www.w3.org/2000/svg" xmlns:xlink="http://www.w3.org/1999/xlink">
    <!-- Generator: Sketch 61.2 (89653) - https://sketch.com -->
    <title>incorrect-knockout</title>
    <desc>Created with Sketch.</desc>
    <defs>
        <polygon id="path-1" points="29.8670502 25.8934757 51.3424727 25.8934757 51.3424727 0.111817808 29.8670502 0.111817808"></polygon>
    </defs>
    <g id="Logos" stroke="none" stroke-width="1" fill="none" fill-rule="evenodd">
        <g id="Artboard" transform="translate(-746.000000, -600.000000)">
            <g id="incorrect-knockout" transform="translate(746.000000, 600.000000)">
                <path d="M18.9153862,0.385323389 L18.9153862,7.39757137 L26.2090306,7.39757137 L26.2090306,18.6090102 L18.9153862,18.6090102 L18.9153862,25.6212582 L7.29443274,25.6212582 L7.29443274,18.6090102 L7.16679213e-05,18.6090102 L7.16679213e-05,7.39757137 L7.29443274,7.39757137 L7.29443274,0.385323389 L18.9153862,0.385323389 Z M12.6756186,13.7659148 L9.16507167,18.8103234 L9.4301337,18.9704304 C10.5106367,19.5922809 11.774808,19.9502037 13.1256932,19.9502037 C14.4759168,19.9502037 15.7400372,19.5922809 16.8199726,18.9704304 L17.0830717,18.8103234 L13.5750511,13.7659148 C13.3285134,13.4431754 12.9350565,13.4166978 12.6756186,13.7659148 Z M19.8680717,10.5813234 L15.03507,11.0317177 C14.1270374,11.15194 14.0224022,11.9977892 14.2639231,12.5051557 L17.5700717,18.4733234 L17.7775054,18.311991 C19.3386465,17.0419361 20.329896,15.1423222 20.329896,13.0225407 C20.329896,12.2711517 20.2047907,11.5460614 19.9737848,10.8688427 L19.8680717,10.5813234 Z M6.38207167,10.5813234 L6.27692574,10.8688427 C6.04578269,11.5460614 5.92012867,12.2711517 5.92012867,13.0225407 C5.92012867,15.2344866 6.99944757,17.2067037 8.68077701,18.4740464 L8.67907167,18.4723234 L11.9875349,12.5051557 C12.2142843,12.0259763 12.1335495,11.2448785 11.3589333,11.0582911 L11.2149547,11.0317177 L6.38207167,10.5813234 Z M13.1256932,6.09716755 C10.2353259,6.09716755 7.74271559,7.73233304 6.59602884,10.09241 L11.723152,10.09241 C12.4548814,10.0780978 12.7773871,9.66733851 12.791004,9.3310025 C12.8103543,8.93383976 12.7451365,8.80789266 12.4032805,8.38425241 C12.031324,7.90837274 12.2886119,6.99454065 13.1256932,6.97879726 C13.9613412,6.99454065 14.2193457,7.90837274 13.8459558,8.38425241 C13.5055332,8.80789266 13.441032,8.93383976 13.458949,9.3310025 C13.4739993,9.66733851 13.7943549,10.0780978 14.5260844,10.09241 L19.6539242,10.09241 C18.5065207,7.73233304 16.0153438,6.09716755 13.1256932,6.09716755 Z" id="Combined-Shape" fill="#00AEEF"></path>
                <path d="M7.09763262,11.6039899 L10.7584301,11.9288761 C11.022168,11.947482 11.0429517,12.0569701 10.982034,12.2036698 L8.41775574,16.9073647 C7.4846394,15.8654387 6.92132954,14.5079293 6.92132954,13.022326 C6.92132954,12.534281 6.98296395,12.0598325 7.09763262,11.6039899" id="Fill-4" fill="#00AEEF"></path>
                <path d="M19.1523921,11.6039899 L15.4923113,11.9288761 C15.22714,11.947482 15.2077896,12.0569701 15.2679907,12.2036698 L17.8322689,16.9073647 C18.7653853,15.8654387 19.3286951,14.5079293 19.3286951,13.022326 C19.3286951,12.534281 19.2670607,12.0598325 19.1523921,11.6039899" id="Fill-10" fill="#00AEEF"></path>
                <path d="M14.848805,7.29216224 C15.2157448,7.87824562 14.9197563,8.64036871 14.5721668,9.00175101 C14.5083824,9.06400896 14.540633,9.12912933 14.5972506,9.14558833 L17.8409408,9.14558833 C17.0633438,8.27326153 16.028459,7.61991094 14.848805,7.29216224" id="Fill-12" fill="#00AEEF"></path>
                <mask id="mask-2" fill="white">
                    <use xlink:href="#path-1"></use>
                </mask>
                <g id="Clip-17"></g>
                <path d="M49.738541,0.111817808 C51.6305741,3.68914485 51.9014789,9.42689404 50.2688836,14.2808667 C48.6964894,18.9580841 45.6420026,23.2159548 40.6051811,25.8937619 C35.5676428,23.2159548 32.5138727,18.9580841 30.9407618,14.2808667 C29.3074499,9.42689404 29.579788,3.68914485 31.4703878,0.111817808 C34.3471381,1.50582322 37.2425222,2.22429419 40.6051811,2.21212884 C43.9685566,2.20282593 46.8625073,1.50582322 49.738541,0.111817808 Z M48.5518636,2.79298829 C46.4792273,3.47639443 45.2658893,3.68749895 44.1378363,3.85638256 C43.0879012,4.01524766 42.1469014,4.10899237 40.6103412,4.12974502 L40.599591,4.12974502 C39.060164,4.10899237 38.1227476,4.01524766 37.0713792,3.85638256 C35.9440428,3.68749895 34.7299882,3.47639443 32.6580686,2.79298829 C31.2777444,6.03111688 31.5837664,10.1787839 32.8401051,13.7246242 C34.2106197,17.5936288 36.3270329,21.0361789 40.2272931,23.4921124 L40.6050502,23.7228178 L40.9827021,23.4921124 C44.8835725,21.0361789 46.9993348,17.5936288 48.3705437,13.7246242 C49.6261657,10.1787839 49.9321877,6.03111688 48.5518636,2.79298829 Z" id="Combined-Shape" fill="#00AEEF" mask="url(#mask-2)"></path>
                <path d="M47.8408461,4.03664435 C48.7187781,6.43393293 48.5310082,9.45093849 47.8573297,12.1380485 C46.5859408,17.2016945 43.4060351,21.0502371 40.602386,22.7455138 L40.6045496,22.7426444 L40.3743154,22.5992764 C37.7076359,20.8858855 34.7614043,17.2750794 33.4633808,12.5571862 L33.3531757,12.1380485 C32.6787806,9.45093849 32.4917273,6.43393293 33.3696594,4.03664435 C34.6252813,4.36153062 35.7970519,4.62630578 37.0089564,4.78445526 C38.2222943,4.94188914 39.4198653,5.05423968 40.5995193,5.06211137 L40.5995193,5.06211137 L40.6102695,5.06211137 C41.7899235,5.05423968 42.9882111,4.94188914 44.2008324,4.78445526 C45.4127369,4.62630578 46.5859408,4.36153062 47.8408461,4.03664435 Z M40.4285196,18.2393268 C40.4285196,18.2393268 40.45002,20.1614514 40.485854,21.154716 C40.4937374,21.3815639 40.6263231,21.4395282 40.8492103,21.4502623 C41.1265652,21.4652901 41.2068333,21.2992689 41.2097,21.2026618 C41.2218835,20.8849316 41.2620176,19.5045227 41.2763511,18.7803269 C41.2828013,18.7195002 41.2598675,18.7123441 41.2304837,18.6701232 C41.1007647,18.5398824 40.9108447,18.4497158 40.8671273,18.4239538 C40.7302416,18.3459525 40.4285196,18.2393268 40.4285196,18.2393268 Z M40.2447631,19.2577809 C40.2447631,19.2577809 40.1078774,19.3293418 39.9459079,19.4910693 C39.8262224,19.6112915 39.6255522,19.8574609 39.590435,20.2496143 C39.5581844,20.5988313 39.6427525,20.6975853 39.7337708,20.8857903 C39.8097388,21.041793 39.9860419,21.0324901 40.0476763,20.8879371 C40.0985605,20.7698617 40.0254592,20.6610892 40.0720434,20.4063326 C40.1057273,20.2166963 40.26053,20.1115019 40.26053,20.1115019 L40.2447631,19.2577809 Z M40.124361,15.6851053 C40.124361,15.6851053 39.7903885,15.7495101 39.632719,15.8389612 C39.4872332,15.9205405 39.2679293,16.058653 39.1690276,16.283354 C38.9024229,16.8923369 39.2371121,17.4870076 39.7696048,17.7389018 C40.0476763,17.8705738 40.412466,17.9886492 40.7134713,18.1002841 C41.0058764,18.2090566 41.5254688,18.5167683 41.5648862,18.6677617 C41.5892533,18.7579283 41.478168,18.8459482 41.478168,18.8459482 L41.4659845,19.5787313 C41.4659845,19.5787313 41.78419,19.5150422 42.0199775,19.3296996 C42.239998,19.1536599 42.4019675,18.9246651 42.4005342,18.557558 C42.3976675,18.158964 42.2027307,17.8462431 41.610037,17.5113383 C41.1484956,17.24871 40.5894858,17.0426147 40.1551782,16.8579877 C40.0928271,16.8315102 40.0362094,16.7120036 40.0598598,16.6397271 C40.0842269,16.5617258 40.1365445,16.5331014 40.1365445,16.5331014 L40.124361,15.6851053 Z M40.35635,15.149687 L40.3663835,16.7183009 L40.8494253,16.9107996 L41.3396339,17.127629 L41.3568342,15.248441 C40.9877444,15.2047889 40.7906576,15.2004952 40.35635,15.149687 L40.35635,15.149687 Z M39.4473141,12.2749444 C38.9958062,12.4610026 38.7019677,12.8638902 38.6510835,13.3132924 C38.5543318,14.1834724 39.1463088,14.6500491 39.7992036,14.7996113 C40.316646,14.9176867 40.8183215,14.9420174 41.3565476,15.0042754 C41.4246321,15.0128627 41.5686846,15.0150095 41.6776198,15.0593772 C41.7736549,15.0994513 41.8209557,15.1545532 41.8395893,15.2118018 C41.8639564,15.2933812 41.8539229,15.3563548 41.7994553,15.4221907 C41.7406876,15.4901736 41.5858849,15.529532 41.5858849,15.529532 L41.5550677,16.5757517 C41.5550677,16.5757517 41.9936754,16.5600083 42.3491483,16.3531974 C42.6845541,16.1592675 42.8945412,15.911667 42.9690758,15.6003773 C43.055794,15.238995 42.9955929,14.8869156 42.7297049,14.5341206 C42.5548352,14.3036946 42.2480965,14.1362422 41.936341,14.0310478 C41.2949131,13.8163652 40.5990176,13.8471364 39.9332226,13.7576853 C39.8307375,13.7419419 39.7390026,13.6675186 39.7296857,13.5794988 C39.7124854,13.4184869 39.8694382,13.3412011 39.8694382,13.3412011 C39.8694382,13.3412011 39.7906035,13.0936006 39.7060353,12.8510093 C39.630784,12.6670979 39.5254322,12.4094788 39.4473141,12.2749444 Z M39.9286359,11.3180327 L39.9272025,11.5033753 C39.9272025,11.5033753 39.6656146,11.610001 39.6269139,11.6765526 C39.608997,11.7073237 39.5409124,11.7917656 39.573163,11.8733449 C39.7853,12.4243635 40.0791385,12.955345 40.1644233,13.5407128 C40.5657637,13.5972459 40.9219533,13.5829337 41.4121619,13.6473385 L41.4250621,11.428952 C41.4250621,11.428952 41.1283569,11.3695565 40.7133996,11.3423634 C40.1737402,11.3094454 39.9286359,11.3180327 39.9286359,11.3180327 Z M37.7412592,6.86093654 C36.7930926,7.33466938 36.4662869,8.44815626 36.890561,9.34910739 C37.2596508,10.1241114 37.9885136,10.6436432 38.8356284,10.8876657 C39.2591858,11.0057411 39.68991,11.0379435 40.1292344,11.0586962 C40.6660271,11.0830269 41.1526523,11.0987702 41.6686614,11.2247174 C41.7783133,11.2511949 41.8994321,11.314884 41.9560497,11.417216 C42.0950855,11.664101 41.9696666,11.9388947 41.6973285,12.0161804 C41.6915951,12.4491235 41.6514611,13.3214503 41.6514611,13.3214503 C41.6514611,13.3214503 43.8502329,13.1196487 43.4797097,11.2182769 C43.3894082,10.7617186 43.0160183,10.2980043 42.5910275,10.0861842 C41.4887749,9.53945926 40.2768703,9.77918812 39.1466672,9.4249619 C38.7661105,9.30617088 38.2364846,9.12440632 38.1325661,8.71507824 C38.0909987,8.54977267 38.1289827,8.21987713 38.3052858,8.1669221 C38.5905241,8.08176469 38.905863,8.31004381 39.3193869,8.4016417 C39.5809748,8.45889038 39.8404127,8.45889038 40.0453829,8.39806366 C40.1364012,8.37373297 40.2689868,8.33866815 40.2818871,8.28714434 C40.2689868,8.24420782 40.1686518,8.20270253 40.1156175,8.17837184 C39.9873319,8.11468268 39.8554629,8.08534273 39.7178605,8.03525013 C39.4892399,7.95009272 39.2613359,7.84632948 39.0319985,7.72252921 C39.2491523,7.68102391 39.6110753,7.67028978 39.8267958,7.69462047 C40.0009488,7.7132263 40.5341582,7.70821704 40.6925443,7.66742735 C40.7276615,7.65812444 40.8064963,7.63021571 40.7720957,7.57225141 C40.7104612,7.47278183 40.6072594,7.43413897 40.5341582,7.34325669 C40.3786388,7.13787704 40.2446197,6.92891935 39.9944987,6.83589024 C39.2692193,6.56896826 38.4629552,6.50026984 37.7412592,6.86093654 Z M40.3030291,5.94710444 C40.2241944,5.91060841 40.0736918,5.97429757 40.0156407,6.08521689 C39.9375227,6.23406346 39.9862569,6.60546429 39.9862569,6.60546429 C39.9862569,6.60546429 40.2679118,6.74429235 40.3789971,6.8408995 C40.5094327,6.95253443 40.6291181,7.12714291 40.7007861,7.22303445 C40.7588371,7.29674213 40.8383885,7.37188103 40.908623,7.44344188 C41.0139749,7.55149877 41.0791927,7.6631337 41.0433587,7.73684138 C41.0096748,7.78764958 40.886406,7.81198027 40.73662,7.83487975 C40.428448,7.88497234 40.0607915,7.88711917 40.0607915,7.88711917 C40.0607915,7.88711917 40.8563055,7.98086389 41.1487106,8.05457156 C41.3192802,8.09249882 41.3536808,8.1161139 41.4196153,8.18910597 C41.456166,8.22846444 41.4733663,8.34081498 41.4425491,8.39162318 C40.9630907,8.18910597 40.6542019,8.10967342 40.1596933,8.03596574 C40.202694,8.05099352 40.3496133,8.11253585 40.432748,8.17407819 C40.5051326,8.22488639 40.5187495,8.30575016 40.5122994,8.32364037 C40.4191311,8.55764436 39.9246225,8.63779252 39.9246225,8.63779252 L39.9246225,8.63779252 L39.9260558,9.33050157 C40.410531,9.42710872 41.0361919,9.40492486 41.6575528,9.52729392 C41.6575528,9.52729392 41.746421,9.41422777 41.800172,9.33193279 C41.9685916,9.07431372 42.2316129,8.90757693 42.4502,8.67786659 C42.7712723,8.33866815 43.1403621,8.09393003 43.40195,7.8313017 C43.5295189,7.7053546 43.6226872,7.67458343 43.685755,7.47635987 C43.8212074,7.05558206 43.2378305,6.77291669 43.0278435,6.85950532 C42.5792023,7.0427011 42.2789137,7.43914823 41.8360059,7.66885857 C41.7829717,7.6967673 41.7113038,7.69962973 41.6776198,7.63093131 C41.6145521,7.41839558 41.6847866,6.93750665 41.6188521,6.6312262 C41.5880349,6.49096693 41.5880349,6.48667327 41.4884165,6.41511242 C41.0111082,6.33639548 40.6599354,6.13817192 40.3030291,5.94710444 Z" id="Combined-Shape" fill="#00AEEF" mask="url(#mask-2)"></path>
                <path d="M39.9200357,7.13143656 C39.8283008,7.19297889 39.7637997,7.25595244 39.6620312,7.27241144 C39.459211,7.30389822 39.4871615,7.13429899 39.347409,7.03769184 C39.2614075,6.98187438 39.1804228,7.05701327 39.1030214,6.91818522 C39.3982933,6.92748813 39.7860167,6.90172622 40.008904,7.11712439 C39.9809535,7.10495904 39.932936,7.12213365 39.9200357,7.13143656" id="Fill-37" fill="#00AEEF"></path>
                <path d="M13.0228497,14.9087416 C13.0801841,14.8350339 13.1604521,14.8314559 13.2263866,14.9087416 L15.6501957,18.4731877 C14.8797656,18.8037989 14.0233339,18.9877102 13.1260515,18.9877102 C12.2266191,18.9877102 11.3709041,18.8037989 10.600474,18.4731877 L13.0228497,14.9087416 C13.0909342,14.8314559 13.169769,14.8350339 13.2263866,14.9087416" id="Fill-39" fill="#00AEEF"></path>
                <path d="M11.4019363,7.29216224 C11.0357133,7.87824562 11.3324184,8.64036871 11.6778578,9.00175101 C11.7416423,9.06400896 11.708675,9.12912933 11.6527741,9.14558833 L8.41051728,9.14558833 C9.18596419,8.27326153 10.2222823,7.61991094 11.4019363,7.29216224" id="Fill-43" fill="#00AEEF"></path>
                <path d="M46.1587283,23.9579693 L46.1587283,24.4095183 L46.3866323,24.4095183 C46.6310199,24.4095183 46.7464053,24.3522696 46.7464053,24.1898265 C46.7464053,24.0252365 46.6310199,23.9579693 46.3816155,23.9579693 L46.1587283,23.9579693 Z M47.0230434,24.1640645 C47.0230434,24.3594257 46.903358,24.4939601 46.6976711,24.5354654 L47.0158767,25.159476 L46.7148714,25.159476 L46.425333,24.5733926 L46.1587283,24.5733926 L46.1587283,25.159476 L45.8899736,25.159476 L45.8899736,23.7883701 L46.4281997,23.7883701 C46.82739,23.7883701 47.0230434,23.9157484 47.0230434,24.1640645 L47.0230434,24.1640645 Z M47.1764128,23.7575989 C46.9671425,23.5522193 46.6976711,23.4455936 46.3959491,23.4455936 C46.1028273,23.4455936 45.835506,23.5500724 45.6355525,23.7447179 C45.4212654,23.9543912 45.3030133,24.2205976 45.3030133,24.4975381 C45.3030133,24.773763 45.4191154,25.0313821 45.6248023,25.2338993 C45.8297726,25.4342697 46.1064107,25.545189 46.3866323,25.545189 C46.6826208,25.545189 46.9528089,25.4371321 47.1699627,25.2367617 C47.3763663,25.0464099 47.4874516,24.7873596 47.4874516,24.5075566 C47.4874516,24.2134415 47.3785163,23.9543912 47.1764128,23.7575989 L47.1764128,23.7575989 Z M47.2910815,23.6466796 C47.5232855,23.8728119 47.6558712,24.1755143 47.6558712,24.4975381 C47.6558712,24.8295805 47.5254356,25.1279892 47.2882148,25.3462498 C47.0388104,25.5802538 46.7213215,25.7069165 46.3930824,25.7069165 C46.0569599,25.7069165 45.7459211,25.5802538 45.5058335,25.344103 C45.2671794,25.1143927 45.1381771,24.8174151 45.1381771,24.4975381 C45.1381771,24.1790923 45.2757795,23.8699494 45.5187338,23.6309362 C45.7502212,23.4048039 46.0548098,23.2881597 46.3930824,23.2881597 C46.7356551,23.2881597 47.0509939,23.4112444 47.2910815,23.6466796 L47.2910815,23.6466796 Z" id="Fill-45" fill="#00AEEF"></path>
                <path d="M20.8965026,23.9579693 L20.8965026,24.4095183 L21.1229732,24.4095183 C21.3680775,24.4095183 21.4813128,24.3522696 21.4813128,24.1898265 C21.4813128,24.0252365 21.3680775,23.9579693 21.1158064,23.9579693 L20.8965026,23.9579693 Z M21.7593844,24.1640645 C21.7593844,24.3594257 21.6396989,24.4939601 21.434012,24.5354654 L21.7522176,25.159476 L21.4512123,25.159476 L21.1609572,24.5733926 L20.8965026,24.5733926 L20.8965026,25.159476 L20.6263145,25.159476 L20.6263145,23.7883701 L21.1645406,23.7883701 C21.5637309,23.7883701 21.7593844,23.9157484 21.7593844,24.1640645 L21.7593844,24.1640645 Z M21.912037,23.7575989 C21.7027667,23.5522193 21.434012,23.4455936 21.1337234,23.4455936 C20.8391683,23.4455936 20.5718469,23.5500724 20.3704601,23.7447179 C20.158323,23.9543912 20.0393543,24.2205976 20.0393543,24.4975381 C20.0393543,24.773763 20.1547396,25.0313821 20.3604265,25.2338993 C20.5675468,25.4342697 20.8434683,25.545189 21.1229732,25.545189 C21.4203951,25.545189 21.6891498,25.4371321 21.9063036,25.2367617 C22.1112739,25.0464099 22.2252259,24.7873596 22.2252259,24.5075566 C22.2252259,24.2134415 22.1155739,23.9543912 21.912037,23.7575989 L21.912037,23.7575989 Z M22.0288558,23.6466796 C22.2589098,23.8728119 22.3922121,24.1755143 22.3922121,24.4975381 C22.3922121,24.8295805 22.2624932,25.1279892 22.0245557,25.3462498 C21.7773014,25.5802538 21.4583791,25.7069165 21.13014,25.7069165 C20.7940175,25.7069165 20.4829787,25.5802538 20.2428912,25.344103 C20.0035203,25.1143927 19.874518,24.8174151 19.874518,24.4975381 C19.874518,24.1790923 20.0114038,23.8699494 20.254358,23.6309362 C20.4865621,23.4048039 20.7918674,23.2881597 21.13014,23.2881597 C21.4734294,23.2881597 21.7873349,23.4112444 22.0288558,23.6466796 L22.0288558,23.6466796 Z" id="Fill-47" fill="#00AEEF"></path>
                <polygon id="Fill-49" fill="#FFFFFF" points="69.8357313 20.8510117 61.8512081 9.63241681 61.8512081 20.8510117 58.8289719 20.8510117 58.8289719 4.55517429 61.900659 4.55517429 69.516809 15.2306223 69.516809 4.55517429 72.5383286 4.55517429 72.5383286 20.8510117"></polygon>
                <path d="M74.8468957,12.7277099 C74.8468957,7.67265129 78.0655021,4.27064834 82.857936,4.27064834 C84.8223537,4.27064834 86.3445804,4.71933489 87.5973356,5.45211802 L87.1314941,8.40400321 C86.0249414,7.60180605 84.6489173,6.96276763 83.0048552,6.96276763 C80.0062694,6.96276763 78.1636871,9.15897021 78.1636871,12.7033793 C78.1636871,16.292156 80.1288215,18.418229 83.1274074,18.418229 C84.6990849,18.418229 86.1231265,17.8772289 87.426766,17.0492699 L87.8675237,19.7413891 C86.5165834,20.5693482 84.7972699,21.134679 82.8808697,21.134679 C77.9429499,21.134679 74.8468957,17.782053 74.8468957,12.7277099 Z" id="Fill-51" fill="#FFFFFF"></path>
            </g>
        </g>
    </g>
</svg>