<?xml version="1.0" encoding="UTF-8"?>
<svg width="278px" height="78px" viewBox="0 0 278 78" version="1.1" xmlns="http://www.w3.org/2000/svg" xmlns:xlink="http://www.w3.org/1999/xlink">
    <!-- Generator: Sketch 54.1 (76490) - https://sketchapp.com -->
    <title>Blue Cross NC / Products / Dental Blue Students / W</title>
    <desc>Created with Sketch.</desc>
    <defs>
        <polygon id="path-1" points="0.06 0.857 33.147 0.857 33.147 43.066 0.06 43.066"></polygon>
        <polygon id="path-3" points="0.898 0.944 128.745 0.944 128.745 21.94 0.898 21.94"></polygon>
    </defs>
    <g id="Blue-Cross-NC-/-Products-/-Dental-Blue-Students-/-W" stroke="none" stroke-width="1" fill="none" fill-rule="evenodd">
        <g id="DentalBlue-Students-RGB-W-EPS">
            <g id="Group-3">
                <mask id="mask-2" fill="white">
                    <use xlink:href="#path-1"></use>
                </mask>
                <g id="Clip-2"></g>
                <path d="M12.335,39.559 C24.203,39.559 29.055,32.602 29.055,21.962 C29.055,9.51 21.748,4.015 9.763,4.366 L3.8,4.366 L3.8,39.559 L12.335,39.559 Z M11.4,0.857 C25.255,0.857 33.147,7.989 33.147,21.962 C33.147,35.934 25.255,43.066 11.4,43.066 L0,43.066 L0,0.857 L11.4,0.857 L11.4,0.857 Z" id="Fill-1" fill="#FFFFFE" mask="url(#mask-2)"></path>
            </g>
            <path d="M59.45,25.996 C59.04,20.325 56,16.058 49.92,16.058 C44.19,16.058 41.151,20.852 40.683,25.996 L59.45,25.996 Z M40.566,29.211 C40.683,35.467 43.548,40.728 50.738,40.728 C54.889,40.728 58.338,37.746 59.216,33.713 L62.898,33.713 C61.086,40.728 56.702,43.943 49.628,43.943 C40.859,43.943 36.767,36.402 36.767,28.392 C36.767,20.441 41.151,12.843 49.862,12.843 C59.683,12.843 63.25,20.032 63.25,29.211 L40.566,29.211 L40.566,29.211 Z" id="Fill-4" fill="#FFFFFE"></path>
            <path d="M70.485,43.066 L66.978,43.066 L66.978,20.325 C66.978,18.046 66.803,15.706 66.685,13.72 L70.31,13.72 L70.485,18.046 L70.602,18.161 C72.648,14.538 75.98,12.843 79.781,12.843 C89.369,12.843 90.128,21.318 90.128,24.71 L90.128,43.066 L86.621,43.066 L86.621,24.125 C86.621,19.039 83.698,16.058 78.904,16.058 C73.116,16.058 70.485,20.909 70.485,26.172 L70.485,43.066" id="Fill-5" fill="#FFFFFE"></path>
            <path d="M98.951,16.934 L93.105,16.934 L93.105,13.72 L98.951,13.72 L98.951,7.464 L102.458,5.943 L102.458,13.72 L109.124,13.72 L109.124,16.934 L102.458,16.934 L102.458,36.578 C102.4,39.267 103.803,40.728 106.492,40.728 C107.545,40.728 108.597,40.67 109.533,40.378 L109.533,43.418 C108.422,43.71 107.136,43.943 105.966,43.943 C98.542,43.943 98.951,39.208 98.951,35.232 L98.951,16.934" id="Fill-6" fill="#FFFFFE"></path>
            <path d="M121.692,40.728 C129.351,40.728 130.813,34.414 130.461,28.276 C125.492,28.452 115.086,27.516 115.086,34.883 C115.086,38.858 118.126,40.728 121.692,40.728 Z M130.461,22.371 C130.111,17.577 127.655,16.058 123.504,16.058 C119.822,16.058 116.781,17.168 116.313,21.143 L112.572,21.143 C113.449,15.122 117.951,12.843 123.563,12.843 C130.052,12.843 134.085,15.823 133.97,22.546 L133.97,36.46 C133.911,38.74 134.145,41.079 134.262,43.066 L130.637,43.066 L130.52,38.74 L130.403,38.74 L130.228,39.149 C128.941,41.605 125.025,43.943 121.049,43.943 C115.612,43.943 111.286,40.61 111.286,34.883 C111.286,30.907 113.683,27.866 117.19,26.406 C121.107,24.71 126.193,25.294 130.461,25.061 L130.461,22.371 L130.461,22.371 Z" id="Fill-7" fill="#FFFFFE"></path>
            <polygon id="Fill-8" fill="#FFFFFE" points="141.103 43.066 144.611 43.066 144.611 0.857 141.103 0.857"></polygon>
            <path d="M166.261,20.7 L166.261,36.737 L166.38,41.5 L170.962,41.5 C173.073,41.5 175.304,41.26 177.233,39.33 C179.765,36.797 179.706,32.457 179.706,30.949 C179.706,26.307 178.679,23.835 176.812,22.389 C175.425,21.302 173.013,20.7 169.335,20.7 L166.261,20.7 Z M166.38,2.493 L166.319,6.653 L166.261,18.951 L170.239,18.951 C172.892,18.951 175.001,18.107 175.847,17.022 C176.87,15.817 177.413,13.826 177.413,10.692 C177.413,3.88 175.304,2.493 170.661,2.493 L166.38,2.493 Z M150.947,0.683 L174.821,0.683 C177.233,0.683 179.886,0.804 182.356,1.95 C186.938,4.12 187.06,8.702 187.06,9.669 C187.06,12.077 186.216,14.31 184.468,16.058 C181.634,19.013 177.896,19.434 175.183,19.736 C178.138,19.856 182.839,20.098 186.577,23.835 C188.024,25.283 189.774,27.693 189.774,31.611 C189.774,34.387 188.868,37.281 186.577,39.57 C183.142,43.008 178.8,43.248 175.062,43.248 L150.947,43.248 L150.947,41.68 L156.794,41.68 L156.915,35.713 L156.915,7.256 L156.794,2.251 L150.947,2.251 L150.947,0.683 L150.947,0.683 Z" id="Fill-9" fill="#FFFFFE"></path>
            <path d="M197.298,0.683 C200.13,0.683 200.976,0.625 203.628,0.444 L203.507,7.135 L203.507,36.858 L203.628,41.68 L207.788,41.68 L207.788,43.248 L190.183,43.248 L190.183,41.68 L194.706,41.68 L194.825,36.858 L194.825,7.135 L194.706,2.251 L190.183,2.251 L190.183,0.683 L197.298,0.683" id="Fill-10" fill="#FFFFFE"></path>
            <path d="M212.657,14.069 C215.792,14.069 216.757,14.007 219.712,13.826 L219.591,19.434 L219.591,32.939 C219.591,35.228 219.712,36.978 220.194,38.185 C220.978,40.053 222.604,40.898 224.595,40.898 C226.343,40.898 227.851,40.233 228.997,39.148 C231.347,36.797 231.286,33.662 231.286,31.01 L231.286,20.278 L231.167,15.637 L226.704,15.637 L226.704,14.069 L231.89,14.069 C235.386,14.069 236.411,14.007 239.907,13.826 L239.786,19.434 L239.786,36.135 L239.907,41.621 L244.249,41.621 L244.249,43.248 L239.667,43.248 C235.808,43.248 234.421,43.31 231.528,43.49 L231.347,38.848 C230.081,40.416 227.126,43.912 220.313,43.912 C215.854,43.912 213.021,42.225 211.874,39.932 C210.97,38.244 211.03,36.073 211.03,34.267 L211.03,20.036 L210.909,15.637 L206.509,15.637 L206.509,14.069 L212.657,14.069" id="Fill-11" fill="#FFFFFE"></path>
            <path d="M264.206,25.16 C264.267,20.46 264.327,14.913 258.899,14.913 C253.776,14.913 253.534,20.036 253.354,25.16 L264.206,25.16 Z M273.009,34.807 C271.44,37.764 268.185,43.912 259.083,43.912 C249.735,43.912 244.009,36.737 244.009,28.356 C244.009,20.338 249.437,13.224 259.142,13.224 C265.171,13.224 268.487,15.817 269.935,17.324 C273.251,20.761 273.37,24.377 273.431,26.971 L253.294,26.971 C253.354,32.094 253.474,36.737 256.007,39.391 C257.394,40.836 259.382,41.439 261.372,41.439 C267.884,41.439 270.354,35.954 271.198,34.024 L273.009,34.807 L273.009,34.807 Z" id="Fill-12" fill="#FFFFFE"></path>
            <path d="M275.651,17.712 C276.657,17.712 277.466,16.917 277.466,15.868 C277.466,14.833 276.657,14.044 275.651,14.044 C274.64,14.044 273.835,14.833 273.835,15.887 C273.835,16.917 274.64,17.712 275.651,17.712 Z M275.651,13.733 C276.827,13.733 277.813,14.654 277.813,15.868 C277.813,17.101 276.827,18.022 275.651,18.022 C274.474,18.022 273.485,17.101 273.485,15.887 C273.485,14.654 274.474,13.733 275.651,13.733 Z M275.198,15.755 L275.614,15.755 C275.962,15.755 276.29,15.74 276.29,15.347 C276.29,15.001 275.999,14.962 275.731,14.962 L275.198,14.962 L275.198,15.755 Z M274.847,14.65 L275.757,14.65 C276.351,14.65 276.638,14.868 276.638,15.366 C276.638,15.807 276.347,15.999 275.978,16.04 L276.692,17.136 L276.319,17.136 L275.638,16.069 L275.198,16.069 L275.198,17.136 L274.847,17.136 L274.847,14.65 L274.847,14.65 Z" id="Fill-13" fill="#FFFFFE"></path>
            <path d="M2.91,77.248 L2.91,64.732 L0.082,64.732 L0.082,63.192 L2.91,63.192 L2.91,60.196 C2.91,57.788 3.89,56.696 6.298,56.696 C6.83,56.696 7.39,56.892 7.894,57.004 L7.894,58.348 C7.558,58.292 7.194,58.236 6.858,58.236 C4.562,58.236 4.506,59.384 4.59,61.4 L4.59,63.192 L7.782,63.192 L7.782,64.732 L4.59,64.732 L4.59,77.248 L2.91,77.248" id="Fill-14" fill="#FFFFFE"></path>
            <path d="M16.014,64.312 C12.626,64.312 11.282,67.616 11.282,70.22 C11.282,72.824 12.626,76.128 16.014,76.128 C19.402,76.128 20.746,72.824 20.746,70.22 C20.746,67.616 19.402,64.312 16.014,64.312 Z M22.566,70.22 C22.566,73.916 20.494,77.668 16.014,77.668 C11.534,77.668 9.462,73.916 9.462,70.22 C9.462,66.524 11.534,62.772 16.014,62.772 C20.494,62.772 22.566,66.524 22.566,70.22 L22.566,70.22 Z" id="Fill-15" fill="#FFFFFE"></path>
            <g id="Group-26" transform="translate(25.000000, 56.000000)">
                <mask id="mask-4" fill="white">
                    <use xlink:href="#path-3"></use>
                </mask>
                <g id="Clip-17"></g>
                <path d="M2.718,21.248 L1.038,21.248 L1.038,10.356 C1.066,9.264 0.954,8.144 0.898,7.192 L2.634,7.192 L2.718,9.264 L2.774,9.264 C3.278,7.836 4.538,6.828 5.938,6.772 C6.498,6.744 7.058,6.772 7.618,6.8 L7.618,8.424 C7.282,8.396 6.918,8.312 6.582,8.312 C4.09,8.312 2.774,10.105 2.718,12.792 L2.718,21.248" id="Fill-16" fill="#FFFFFE" mask="url(#mask-4)"></path>
                <path d="M24.571,22 C21.351,22 18.635,19.648 18.551,16.316 L20.511,16.316 C20.567,19.424 22.863,20.32 25.579,20.32 C27.847,20.32 30.451,19.004 30.451,16.428 C30.451,14.412 28.995,13.46 27.287,12.9 C24.011,11.809 19.027,10.772 19.027,6.404 C19.027,2.876 22.275,0.944 25.467,0.944 C28.127,0.944 31.599,1.868 32.047,5.76 L30.087,5.76 C30.031,3.269 27.763,2.624 25.691,2.624 C23.591,2.624 20.987,3.688 20.987,6.152 C20.987,11.892 32.411,9.288 32.411,16.26 C32.411,20.656 28.631,22 24.571,22" id="Fill-18" fill="#FFFFFE" mask="url(#mask-4)"></path>
                <path d="M36.478,9.064 L33.678,9.064 L33.678,7.524 L36.478,7.524 L36.478,4.528 L38.158,3.8 L38.158,7.524 L41.35,7.524 L41.35,9.064 L38.158,9.064 L38.158,18.472 C38.13,19.76 38.802,20.46 40.09,20.46 C40.594,20.46 41.098,20.432 41.546,20.292 L41.546,21.748 C41.014,21.888 40.398,22 39.838,22 C36.282,22 36.478,19.732 36.478,17.828 L36.478,9.064" id="Fill-19" fill="#FFFFFE" mask="url(#mask-4)"></path>
                <path d="M54.307,7.524 L55.987,7.524 L55.987,18.416 C55.987,19.508 56.071,20.628 56.127,21.58 L54.391,21.58 L54.307,19.508 L54.251,19.452 C53.271,21.188 51.675,22 49.855,22 C45.263,22 44.899,17.94 44.899,16.316 L44.899,7.524 L46.579,7.524 L46.579,16.596 C46.579,19.032 47.979,20.46 50.275,20.46 C53.047,20.46 54.307,18.136 54.307,15.616 L54.307,7.524" id="Fill-20" fill="#FFFFFE" mask="url(#mask-4)"></path>
                <path d="M65.563,8.644 C62.371,8.644 61.335,11.612 61.335,14.3 C61.335,16.904 62.091,20.46 65.311,20.46 C68.979,20.46 70.099,17.408 70.099,14.216 C70.099,11.36 68.839,8.644 65.563,8.644 Z M70.155,19.508 L70.099,19.396 C68.951,21.076 67.243,22 65.283,22 C61.111,22 59.515,18.024 59.515,14.496 C59.515,10.856 61.111,7.104 65.283,7.104 C67.159,7.104 69.119,8 70.099,9.652 L70.155,9.596 L70.155,1.364 L71.835,1.364 L71.835,18.416 C71.835,19.508 71.919,20.628 71.975,21.58 L70.239,21.58 L70.155,19.508 L70.155,19.508 Z" id="Fill-21" fill="#FFFFFE" mask="url(#mask-4)"></path>
                <path d="M86.059,13.404 C85.863,10.688 84.407,8.644 81.495,8.644 C78.751,8.644 77.295,10.94 77.071,13.404 L86.059,13.404 Z M77.015,14.944 C77.071,17.94 78.443,20.46 81.887,20.46 C83.875,20.46 85.527,19.032 85.947,17.1 L87.711,17.1 C86.843,20.46 84.743,22 81.355,22 C77.155,22 75.195,18.388 75.195,14.552 C75.195,10.744 77.295,7.104 81.467,7.104 C86.171,7.104 87.879,10.548 87.879,14.944 L77.015,14.944 L77.015,14.944 Z" id="Fill-22" fill="#FFFFFE" mask="url(#mask-4)"></path>
                <path d="M93.283,21.58 L91.603,21.58 L91.603,10.688 C91.603,9.596 91.519,8.477 91.463,7.524 L93.199,7.524 L93.283,9.596 L93.339,9.652 C94.319,7.916 95.915,7.104 97.735,7.104 C102.327,7.104 102.691,11.164 102.691,12.788 L102.691,21.58 L101.011,21.58 L101.011,12.508 C101.011,10.072 99.611,8.644 97.315,8.644 C94.543,8.644 93.283,10.968 93.283,13.488 L93.283,21.58" id="Fill-23" fill="#FFFFFE" mask="url(#mask-4)"></path>
                <path d="M109.376,9.064 L106.576,9.064 L106.576,7.524 L109.376,7.524 L109.376,4.528 L111.056,3.8 L111.056,7.524 L114.248,7.524 L114.248,9.064 L111.056,9.064 L111.056,18.472 C111.028,19.76 111.7,20.46 112.988,20.46 C113.492,20.46 113.996,20.432 114.444,20.292 L114.444,21.748 C113.912,21.888 113.296,22 112.736,22 C109.18,22 109.376,19.732 109.376,17.828 L109.376,9.064" id="Fill-24" fill="#FFFFFE" mask="url(#mask-4)"></path>
                <path d="M123.173,7.104 C125.833,7.104 128.073,8.028 128.297,10.996 L126.477,10.996 C126.309,9.232 124.741,8.644 123.005,8.644 C121.437,8.644 119.841,9.26 119.841,10.912 C119.841,12.984 122.557,12.788 126.365,14.132 C127.821,14.636 128.745,15.896 128.745,17.408 C128.745,20.572 125.805,22 122.837,22 C120.401,22 117.601,20.853 117.545,17.744 L119.365,17.744 C119.505,19.844 121.353,20.46 123.257,20.46 C125.049,20.46 126.925,19.62 126.925,17.66 C126.925,15.645 124.713,15.309 122.473,14.804 C120.261,14.272 118.021,13.628 118.021,11.024 C118.021,8.112 120.709,7.104 123.173,7.104" id="Fill-25" fill="#FFFFFE" mask="url(#mask-4)"></path>
            </g>
        </g>
    </g>
</svg>