<?xml version="1.0" encoding="UTF-8"?>
<svg width="233px" height="44px" viewBox="0 0 233 44" version="1.1" xmlns="http://www.w3.org/2000/svg" xmlns:xlink="http://www.w3.org/1999/xlink">
    <!-- Generator: Sketch 54.1 (76490) - https://sketchapp.com -->
    <title>Blue Cross NC / Products / Geo Blue / wo icons / CK</title>
    <desc>Created with Sketch.</desc>
    <g id="Blue-Cross-NC-/-Products-/-Geo-Blue-/-wo-icons-/-CK" stroke="none" stroke-width="1" fill="none" fill-rule="evenodd">
        <g id="GeoBlue">
            <path d="M117.792,20.923 L117.792,36.816 L117.912,41.537 L122.453,41.537 C124.544,41.537 126.755,41.298 128.667,39.386 C131.177,36.877 131.117,32.573 131.117,31.08 C131.117,26.479 130.101,24.028 128.249,22.595 C126.875,21.519 124.484,20.923 120.839,20.923 L117.792,20.923 Z M117.912,2.878 L117.851,6.999 L117.792,19.189 L121.736,19.189 C124.365,19.189 126.457,18.353 127.292,17.277 C128.308,16.083 128.846,14.11 128.846,11.002 C128.846,4.251 126.755,2.878 122.154,2.878 L117.912,2.878 Z M102.614,1.085 L126.277,1.085 C128.667,1.085 131.296,1.203 133.746,2.339 C138.288,4.49 138.408,9.032 138.408,9.987 C138.408,12.378 137.572,14.589 135.837,16.322 C133.029,19.25 129.325,19.668 126.635,19.966 C129.564,20.086 134.224,20.325 137.929,24.028 C139.363,25.465 141.097,27.854 141.097,31.737 C141.097,34.486 140.2,37.354 137.929,39.625 C134.523,43.031 130.222,43.27 126.515,43.27 L102.614,43.27 L102.614,41.718 L108.411,41.718 L108.53,35.801 L108.53,7.597 L108.411,2.639 L102.614,2.639 L102.614,1.085 L102.614,1.085 Z" id="Fill-1" fill="#00A3DA"></path>
            <path d="M148.565,1.085 C151.375,1.085 152.21,1.023 154.839,0.845 L154.72,7.478 L154.72,36.936 L154.839,41.718 L158.962,41.718 L158.962,43.27 L141.514,43.27 L141.514,41.718 L145.996,41.718 L146.115,36.936 L146.115,7.478 L145.996,2.639 L141.514,2.639 L141.514,1.085 L148.565,1.085" id="Fill-2" fill="#00A3DA"></path>
            <path d="M163.802,14.351 C166.91,14.351 167.866,14.29 170.792,14.11 L170.673,19.668 L170.673,33.053 C170.673,35.322 170.792,37.056 171.271,38.252 C172.046,40.103 173.662,40.939 175.634,40.939 C177.367,40.939 178.861,40.282 179.996,39.207 C182.326,36.877 182.267,33.77 182.267,31.14 L182.267,20.505 L182.146,15.904 L177.724,15.904 L177.724,14.351 L182.865,14.351 C186.33,14.351 187.345,14.29 190.812,14.11 L190.691,19.668 L190.691,36.219 L190.812,41.658 L195.113,41.658 L195.113,43.27 L190.572,43.27 C186.748,43.27 185.373,43.33 182.505,43.509 L182.326,38.909 C181.072,40.462 178.144,43.928 171.392,43.928 C166.968,43.928 164.16,42.255 163.026,39.985 C162.129,38.31 162.189,36.161 162.189,34.368 L162.189,20.265 L162.069,15.904 L157.708,15.904 L157.708,14.351 L163.802,14.351" id="Fill-3" fill="#00A3DA"></path>
            <path d="M215.49,25.344 C215.548,20.684 215.609,15.186 210.23,15.186 C205.152,15.186 204.912,20.265 204.732,25.344 L215.49,25.344 Z M224.212,34.904 C222.66,37.834 219.433,43.928 210.41,43.928 C201.148,43.928 195.47,36.816 195.47,28.511 C195.47,20.565 200.849,13.514 210.47,13.514 C216.445,13.514 219.732,16.083 221.166,17.577 C224.453,20.982 224.572,24.568 224.632,27.137 L204.673,27.137 C204.732,32.216 204.853,36.816 207.363,39.446 C208.736,40.88 210.708,41.478 212.681,41.478 C219.134,41.478 221.583,36.04 222.419,34.128 L224.212,34.904 L224.212,34.904 Z" id="Fill-4" fill="#00A3DA"></path>
            <path d="M227.518,14.352 C227.363,14.122 227.133,14.007 226.833,14.007 C226.463,14.007 226.078,14.202 226.078,14.647 C226.078,15.602 227.893,15.097 227.893,16.372 C227.893,17.017 227.288,17.397 226.728,17.397 C226.298,17.397 225.883,17.242 225.613,16.872 L225.938,16.637 C226.088,16.897 226.373,17.067 226.743,17.067 C227.098,17.067 227.503,16.837 227.503,16.422 C227.503,15.422 225.688,15.977 225.688,14.682 C225.688,13.997 226.258,13.677 226.833,13.677 C227.233,13.677 227.553,13.788 227.833,14.107 L227.518,14.352" id="Fill-5" fill="#00A3DA"></path>
            <polyline id="Fill-6" fill="#00A3DA" points="230.368 16.647 231.563 13.767 232.113 13.767 232.113 17.307 231.752 17.307 231.752 14.247 231.743 14.247 230.462 17.307 230.273 17.307 228.993 14.247 228.983 14.247 228.983 17.307 228.623 17.307 228.623 13.767 229.172 13.767 230.368 16.647"></polyline>
            <path d="M31.401,11.225 C28.761,8.42 25.077,6.716 20.292,6.716 C10.284,6.716 4.29,14.58 4.29,23.543 C4.29,32.507 10.284,40.371 20.292,40.371 C24.307,40.371 28.156,39.271 31.071,37.622 L31.071,24.588 L21.777,24.588 L21.777,20.958 L35.03,20.958 L35.03,40.041 C30.686,42.626 25.021,44 20.292,44 C8.689,44 0,35.367 0,23.543 C0,11.72 8.689,3.086 20.292,3.086 C26.452,3.086 30.906,4.846 34.371,8.311 L31.401,11.225" id="Fill-7" fill="#1A1919"></path>
            <path d="M61.927,28.163 C61.927,23.268 58.792,19.914 53.568,19.914 C48.839,19.914 44.549,23.928 44.549,28.163 L61.927,28.163 Z M44.439,31.132 C44.879,36.302 48.784,40.371 53.898,40.371 C57.748,40.371 60.717,38.226 62.147,35.916 L64.952,38.226 C61.927,42.076 58.132,43.671 53.898,43.671 C46.254,43.671 40.59,37.896 40.59,30.143 C40.59,22.389 46.254,16.614 53.568,16.614 C61.377,16.669 65.887,22.443 65.887,29.482 L65.887,31.132 L44.439,31.132 L44.439,31.132 Z" id="Fill-8" fill="#1A1919"></path>
            <path d="M83.709,19.914 C77.77,19.914 74.03,24.368 74.03,30.143 C74.03,35.916 77.77,40.371 83.709,40.371 C89.703,40.371 93.443,35.916 93.443,30.143 C93.443,24.368 89.703,19.914 83.709,19.914 Z M83.709,43.671 C75.734,43.671 70.07,37.896 70.07,30.143 C70.07,22.389 75.734,16.614 83.709,16.614 C91.738,16.614 97.402,22.389 97.402,30.143 C97.402,37.896 91.738,43.671 83.709,43.671 L83.709,43.671 Z" id="Fill-9" fill="#1A1919"></path>
        </g>
    </g>
</svg>