<?xml version="1.0" encoding="UTF-8"?>
<svg width="638px" height="37px" viewBox="0 0 638 37" version="1.1" xmlns="http://www.w3.org/2000/svg" xmlns:xlink="http://www.w3.org/1999/xlink">
    <!-- Generator: Sketch 54.1 (76490) - https://sketchapp.com -->
    <title>Blue Cross NC / Products / Blue Medicare HMO Essential / K</title>
    <desc>Created with Sketch.</desc>
    <defs>
        <polygon id="path-1" points="0.427 0.703 508.017 0.703 508.017 35.94 0.427 35.94"></polygon>
        <polygon id="path-3" points="0.06 0.984 422.41 0.984 422.41 36.94 0.06 36.94"></polygon>
    </defs>
    <g id="Blue-Cross-NC-/-Products-/-Blue-Medicare-HMO-Essential-/-K" stroke="none" stroke-width="1" fill="none" fill-rule="evenodd">
        <g id="BlueMedicareHMOEssential-RGB-K-EPS">
            <g id="Group-18" transform="translate(105.000000, 1.000000)">
                <mask id="mask-2" fill="white">
                    <use xlink:href="#path-1"></use>
                </mask>
                <g id="Clip-2"></g>
                <polyline id="Fill-1" fill="#1B1A19" mask="url(#mask-2)" points="0.427 35.282 0.427 0.703 5.408 0.703 18.387 30.827 31.653 0.703 36.395 0.703 36.395 35.282 33.282 35.282 33.282 3.337 33.187 3.337 19.968 35.282 16.854 35.282 3.636 3.48 3.54 3.48 3.54 35.282 0.427 35.282"></polyline>
                <path d="M61.962,21.297 C61.627,16.651 59.137,13.155 54.155,13.155 C49.462,13.155 46.972,17.083 46.589,21.297 L61.962,21.297 Z M46.492,23.932 C46.589,29.056 48.936,33.366 54.825,33.366 C58.227,33.366 61.052,30.924 61.771,27.619 L64.788,27.619 C63.303,33.366 59.711,36 53.916,36 C46.731,36 43.379,29.822 43.379,23.261 C43.379,16.747 46.972,10.522 54.107,10.522 C62.153,10.522 65.075,16.412 65.075,23.932 L46.492,23.932 L46.492,23.932 Z" id="Fill-3" fill="#1B1A19" mask="url(#mask-2)"></path>
                <path d="M80.157,13.155 C74.697,13.155 72.926,18.232 72.926,22.829 C72.926,27.284 74.219,33.366 79.727,33.366 C86.001,33.366 87.917,28.146 87.917,22.687 C87.917,17.801 85.762,13.155 80.157,13.155 Z M88.013,31.737 L87.917,31.546 C85.953,34.42 83.031,36 79.679,36 C72.542,36 69.813,29.199 69.813,23.165 C69.813,16.939 72.542,10.522 79.679,10.522 C82.888,10.522 86.24,12.054 87.917,14.879 L88.013,14.783 L88.013,0.703 L90.886,0.703 L90.886,29.87 C90.886,31.737 91.029,33.653 91.125,35.282 L88.155,35.282 L88.013,31.737 L88.013,31.737 Z" id="Fill-4" fill="#1B1A19" mask="url(#mask-2)"></path>
                <path d="M98.113,35.282 L100.986,35.282 L100.986,11.239 L98.113,11.239 L98.113,35.282 Z M97.874,4.295 L101.226,4.295 L101.226,0.703 L97.874,0.703 L97.874,4.295 Z" id="Fill-5" fill="#1B1A19" mask="url(#mask-2)"></path>
                <path d="M123.877,18.615 C123.638,14.928 121.291,13.155 117.315,13.155 C112.91,13.155 110.18,17.753 110.18,23.213 C110.18,28.721 112.91,33.366 117.315,33.366 C121.052,33.366 123.638,31.067 123.877,27.763 L126.99,27.763 C126.224,33.271 123.063,36 117.604,36 C110.419,36 107.067,29.822 107.067,23.261 C107.067,16.747 110.659,10.522 117.795,10.522 C122.728,10.522 126.751,13.49 126.99,18.615 L123.877,18.615" id="Fill-6" fill="#1B1A19" mask="url(#mask-2)"></path>
                <path d="M139.056,33.366 C145.33,33.366 146.526,28.194 146.24,23.165 C142.169,23.309 133.644,22.542 133.644,28.577 C133.644,31.833 136.134,33.366 139.056,33.366 Z M146.24,18.327 C145.952,14.4 143.94,13.155 140.54,13.155 C137.522,13.155 135.032,14.066 134.649,17.321 L131.584,17.321 C132.303,12.389 135.99,10.522 140.588,10.522 C145.904,10.522 149.209,12.964 149.113,18.471 L149.113,29.87 C149.065,31.737 149.257,33.653 149.353,35.282 L146.384,35.282 L146.287,31.737 L146.191,31.737 L146.048,32.073 C144.994,34.085 141.785,36 138.528,36 C134.075,36 130.53,33.271 130.53,28.577 C130.53,25.32 132.494,22.829 135.368,21.632 C138.577,20.243 142.743,20.722 146.24,20.531 L146.24,18.327 L146.24,18.327 Z" id="Fill-7" fill="#1B1A19" mask="url(#mask-2)"></path>
                <path d="M159.454,35.282 L156.58,35.282 L156.58,16.651 C156.629,14.783 156.437,12.868 156.341,11.239 L159.311,11.239 L159.454,14.783 L159.551,14.783 C160.412,12.341 162.568,10.617 164.962,10.522 C165.92,10.473 166.878,10.522 167.836,10.569 L167.836,13.347 C167.261,13.299 166.639,13.155 166.064,13.155 C161.802,13.155 159.551,16.22 159.454,20.817 L159.454,35.282" id="Fill-8" fill="#1B1A19" mask="url(#mask-2)"></path>
                <path d="M189.672,21.297 C189.337,16.651 186.847,13.155 181.866,13.155 C177.172,13.155 174.682,17.083 174.298,21.297 L189.672,21.297 Z M174.203,23.932 C174.298,29.056 176.646,33.366 182.537,33.366 C185.937,33.366 188.762,30.924 189.481,27.619 L192.499,27.619 C191.013,33.366 187.421,36 181.626,36 C174.442,36 171.089,29.822 171.089,23.261 C171.089,16.747 174.682,10.522 181.818,10.522 C189.864,10.522 192.786,16.412 192.786,23.932 L174.203,23.932 L174.203,23.932 Z" id="Fill-9" fill="#1B1A19" mask="url(#mask-2)"></path>
                <polyline id="Fill-10" fill="#1B1A19" mask="url(#mask-2)" points="335.388 35.282 335.388 0.703 355.935 0.703 355.935 3.577 338.5 3.577 338.5 15.981 355.263 15.981 355.263 18.855 338.5 18.855 338.5 32.408 356.652 32.408 356.652 35.282 335.388 35.282"></polyline>
                <path d="M371.591,10.522 C376.14,10.522 379.972,12.102 380.355,17.179 L377.244,17.179 C376.955,14.161 374.271,13.155 371.302,13.155 C368.621,13.155 365.89,14.209 365.89,17.034 C365.89,20.579 370.537,20.243 377.05,22.542 C379.541,23.404 381.123,25.56 381.123,28.146 C381.123,33.558 376.093,36 371.015,36 C366.849,36 362.06,34.037 361.964,28.721 L365.078,28.721 C365.316,32.313 368.478,33.366 371.736,33.366 C374.798,33.366 378.007,31.93 378.007,28.577 C378.007,25.129 374.226,24.554 370.392,23.692 C366.611,22.782 362.777,21.681 362.777,17.226 C362.777,12.245 367.375,10.522 371.591,10.522" id="Fill-11" fill="#1B1A19" mask="url(#mask-2)"></path>
                <path d="M395.535,10.522 C400.082,10.522 403.916,12.102 404.298,17.179 L401.185,17.179 C400.898,14.161 398.214,13.155 395.246,13.155 C392.562,13.155 389.833,14.209 389.833,17.034 C389.833,20.579 394.48,20.243 400.994,22.542 C403.484,23.404 405.066,25.56 405.066,28.146 C405.066,33.558 400.037,36 394.958,36 C390.792,36 386.003,34.037 385.908,28.721 L389.021,28.721 C389.259,32.313 392.421,33.366 395.677,33.366 C398.742,33.366 401.951,31.93 401.951,28.577 C401.951,25.129 398.167,24.554 394.335,23.692 C390.554,22.782 386.72,21.681 386.72,17.226 C386.72,12.245 391.318,10.522 395.535,10.522" id="Fill-12" fill="#1B1A19" mask="url(#mask-2)"></path>
                <path d="M428.625,21.297 C428.289,16.651 425.798,13.155 420.818,13.155 C416.123,13.155 413.632,17.083 413.25,21.297 L428.625,21.297 Z M413.154,23.932 C413.25,29.056 415.597,33.366 421.488,33.366 C424.886,33.366 427.714,30.924 428.431,27.619 L431.449,27.619 C429.964,33.366 426.375,36 420.578,36 C413.392,36 410.041,29.822 410.041,23.261 C410.041,16.747 413.632,10.522 420.769,10.522 C428.816,10.522 431.738,16.412 431.738,23.932 L413.154,23.932 L413.154,23.932 Z" id="Fill-13" fill="#1B1A19" mask="url(#mask-2)"></path>
                <path d="M440.976,35.282 L438.103,35.282 L438.103,16.651 C438.103,14.783 437.958,12.868 437.863,11.239 L440.832,11.239 L440.976,14.783 L441.072,14.879 C442.748,11.91 445.478,10.522 448.591,10.522 C456.447,10.522 457.07,17.466 457.07,20.243 L457.07,35.282 L454.193,35.282 L454.193,19.765 C454.193,15.598 451.8,13.155 447.873,13.155 C443.132,13.155 440.976,17.13 440.976,21.441 L440.976,35.282" id="Fill-14" fill="#1B1A19" mask="url(#mask-2)"></path>
                <path d="M466.787,13.873 L461.996,13.873 L461.996,11.239 L466.787,11.239 L466.787,6.115 L469.66,4.869 L469.66,11.239 L475.119,11.239 L475.119,13.873 L469.66,13.873 L469.66,29.966 C469.611,32.169 470.761,33.366 472.962,33.366 C473.826,33.366 474.687,33.318 475.453,33.079 L475.453,35.569 C474.544,35.809 473.49,36 472.533,36 C466.449,36 466.787,32.121 466.787,28.864 L466.787,13.873" id="Fill-15" fill="#1B1A19" mask="url(#mask-2)"></path>
                <path d="M480.72,35.282 L483.593,35.282 L483.593,11.239 L480.72,11.239 L480.72,35.282 Z M480.48,4.295 L483.832,4.295 L483.832,0.703 L480.48,0.703 L480.48,4.295 Z" id="Fill-16" fill="#1B1A19" mask="url(#mask-2)"></path>
                <path d="M497.718,33.366 C503.994,33.366 505.193,28.194 504.904,23.165 C500.832,23.309 492.308,22.542 492.308,28.577 C492.308,31.833 494.798,33.366 497.718,33.366 Z M504.904,18.327 C504.617,14.4 502.605,13.155 499.203,13.155 C496.189,13.155 493.695,14.066 493.314,17.321 L490.248,17.321 C490.966,12.389 494.656,10.522 499.251,10.522 C504.57,10.522 507.873,12.964 507.777,18.471 L507.777,29.87 C507.728,31.737 507.921,33.653 508.017,35.282 L505.048,35.282 L504.953,31.737 L504.855,31.737 L504.71,32.073 C503.66,34.085 500.451,36 497.195,36 C492.738,36 489.193,33.271 489.193,28.577 C489.193,25.32 491.16,22.829 494.033,21.632 C497.24,20.243 501.408,20.722 504.904,20.531 L504.904,18.327 L504.904,18.327 Z" id="Fill-17" fill="#1B1A19" mask="url(#mask-2)"></path>
            </g>
            <polygon id="Fill-19" fill="#1B1A19" points="620.292 36.282 623.166 36.282 623.166 1.703 620.292 1.703"></polygon>
            <path d="M628.582,7.022 C627.748,7.022 627.048,6.415 627.025,5.555 L627.531,5.555 C627.546,6.357 628.138,6.589 628.839,6.589 C629.425,6.589 630.097,6.248 630.097,5.584 C630.097,5.063 629.72,4.817 629.281,4.673 C628.435,4.392 627.148,4.123 627.148,2.996 C627.148,2.085 627.988,1.586 628.81,1.586 C629.5,1.586 630.394,1.824 630.509,2.829 L630.003,2.829 C629.99,2.186 629.404,2.02 628.869,2.02 C628.328,2.02 627.656,2.295 627.656,2.931 C627.656,4.412 630.605,3.74 630.605,5.54 C630.605,6.675 629.628,7.022 628.582,7.022" id="Fill-20" fill="#1B1A19"></path>
            <polyline id="Fill-21" fill="#1B1A19" points="631.722 6.914 631.722 1.694 632.474 1.694 634.435 6.241 636.437 1.694 637.152 1.694 637.152 6.914 636.683 6.914 636.683 2.092 636.669 2.092 634.675 6.914 634.203 6.914 632.208 2.114 632.195 2.114 632.195 6.914 631.722 6.914"></polyline>
            <polyline id="Fill-22" fill="#1B1A19" points="313.322 36.282 313.322 1.703 316.435 1.703 316.435 16.885 335.304 16.885 335.304 1.703 338.417 1.703 338.417 36.282 335.304 36.282 335.304 19.759 316.435 19.759 316.435 36.282 313.322 36.282"></polyline>
            <g id="Group-27">
                <mask id="mask-4" fill="white">
                    <use xlink:href="#path-3"></use>
                </mask>
                <g id="Clip-24"></g>
                <polyline id="Fill-23" fill="#1B1A19" mask="url(#mask-4)" points="347.796 36.282 347.796 1.703 352.781 1.703 365.759 31.827 379.025 1.703 383.767 1.703 383.767 36.282 380.654 36.282 380.654 4.337 380.558 4.337 367.337 36.282 364.226 36.282 351.007 4.48 350.912 4.48 350.912 36.282 347.796 36.282"></polyline>
                <path d="M406.986,34.127 C415.607,34.127 419.056,26.56 419.056,18.992 C419.056,11.426 415.607,3.858 406.986,3.858 C398.367,3.858 394.919,11.426 394.919,18.992 C394.919,26.56 398.367,34.127 406.986,34.127 Z M406.986,37 C397.074,37 391.566,29.769 391.566,18.992 C391.566,8.216 397.074,0.984 406.986,0.984 C416.902,0.984 422.41,8.216 422.41,18.992 C422.41,29.769 416.902,37 406.986,37 L406.986,37 Z" id="Fill-25" fill="#1B1A19" mask="url(#mask-4)"></path>
                <path d="M12.182,17.833 L12.182,30.587 L12.276,34.375 L15.921,34.375 C17.599,34.375 19.374,34.183 20.908,32.648 C22.921,30.637 22.872,27.183 22.872,25.984 C22.872,22.29 22.058,20.325 20.573,19.176 C19.47,18.313 17.552,17.833 14.626,17.833 L12.182,17.833 Z M12.276,3.351 L12.228,6.66 L12.182,16.443 L15.345,16.443 C17.455,16.443 19.134,15.772 19.805,14.908 C20.62,13.948 21.052,12.365 21.052,9.871 C21.052,4.455 19.374,3.351 15.682,3.351 L12.276,3.351 Z M0,1.913 L18.989,1.913 C20.908,1.913 23.018,2.009 24.983,2.92 C28.628,4.646 28.723,8.292 28.723,9.058 C28.723,10.977 28.053,12.752 26.661,14.142 C24.409,16.489 21.436,16.826 19.277,17.064 C21.627,17.16 25.366,17.354 28.339,20.325 C29.49,21.477 30.88,23.396 30.88,26.512 C30.88,28.717 30.161,31.019 28.339,32.84 C25.606,35.573 22.155,35.766 19.182,35.766 L0,35.766 L0,34.519 L4.654,34.519 L4.749,29.772 L4.749,7.139 L4.654,3.159 L0,3.159 L0,1.913 L0,1.913 Z" id="Fill-26" fill="#1B1A19" mask="url(#mask-4)"></path>
            </g>
            <path d="M36.874,1.912 C39.129,1.912 39.8,1.865 41.91,1.722 L41.815,7.042 L41.815,30.684 L41.91,34.518 L45.216,34.518 L45.216,35.767 L31.217,35.767 L31.217,34.518 L34.813,34.518 L34.909,30.684 L34.909,7.042 L34.813,3.16 L31.217,3.16 L31.217,1.912 L36.874,1.912" id="Fill-28" fill="#1B1A19"></path>
            <path d="M49.102,12.559 C51.595,12.559 52.362,12.51 54.711,12.366 L54.616,16.827 L54.616,27.566 C54.616,29.388 54.711,30.779 55.096,31.736 C55.719,33.225 57.014,33.896 58.595,33.896 C59.986,33.896 61.185,33.367 62.097,32.505 C63.966,30.636 63.917,28.143 63.917,26.029 L63.917,17.497 L63.822,13.804 L60.273,13.804 L60.273,12.559 L64.398,12.559 C67.178,12.559 67.994,12.51 70.774,12.366 L70.681,16.827 L70.681,30.107 L70.774,34.471 L74.229,34.471 L74.229,35.766 L70.583,35.766 C67.515,35.766 66.411,35.814 64.109,35.958 L63.966,32.266 C62.957,33.514 60.61,36.294 55.191,36.294 C51.643,36.294 49.388,34.951 48.478,33.13 C47.761,31.784 47.806,30.06 47.806,28.621 L47.806,17.305 L47.712,13.804 L44.21,13.804 L44.21,12.559 L49.102,12.559" id="Fill-29" fill="#1B1A19"></path>
            <path d="M90.578,21.38 C90.627,17.64 90.674,13.23 86.357,13.23 C82.282,13.23 82.091,17.305 81.947,21.38 L90.578,21.38 Z M97.579,29.053 C96.332,31.403 93.743,36.293 86.502,36.293 C79.069,36.293 74.515,30.587 74.515,23.922 C74.515,17.544 78.829,11.887 86.551,11.887 C91.346,11.887 93.982,13.948 95.132,15.148 C97.77,17.881 97.866,20.757 97.915,22.819 L81.898,22.819 C81.947,26.897 82.043,30.587 84.058,32.698 C85.161,33.848 86.742,34.327 88.324,34.327 C93.503,34.327 95.47,29.964 96.141,28.431 L97.579,29.053 L97.579,29.053 Z" id="Fill-30" fill="#1B1A19"></path>
        </g>
    </g>
</svg>