<?xml version="1.0" encoding="UTF-8"?>
<svg width="498px" height="44px" viewBox="0 0 498 44" version="1.1" xmlns="http://www.w3.org/2000/svg" xmlns:xlink="http://www.w3.org/1999/xlink">
    <!-- Generator: Sketch 54.1 (76490) - https://sketchapp.com -->
    <title>Blue Cross NC / Products / Dental Blue Preferred / C</title>
    <desc>Created with Sketch.</desc>
    <g id="Blue-Cross-NC-/-Products-/-Dental-Blue-Preferred-/-C" stroke="none" stroke-width="1" fill="none" fill-rule="evenodd">
        <g id="DentalBluePreferred-RGB-C-EPS" fill="#38A1CE">
            <path d="M12.335,39.617 C24.203,39.617 29.055,32.66 29.055,22.019 C29.055,9.568 21.748,4.073 9.763,4.424 L3.8,4.424 L3.8,39.617 L12.335,39.617 Z M11.4,0.915 C25.255,0.915 33.148,8.047 33.148,22.019 C33.148,35.992 25.255,43.123 11.4,43.123 L0,43.123 L0,0.915 L11.4,0.915 L11.4,0.915 Z" id="Fill-1"></path>
            <path d="M59.45,26.054 C59.041,20.383 56.001,16.115 49.92,16.115 C44.19,16.115 41.151,20.909 40.683,26.054 L59.45,26.054 Z M40.566,29.268 C40.683,35.524 43.548,40.786 50.738,40.786 C54.889,40.786 58.338,37.804 59.216,33.771 L62.898,33.771 C61.086,40.786 56.702,44 49.628,44 C40.859,44 36.767,36.46 36.767,28.45 C36.767,20.499 41.151,12.901 49.862,12.901 C59.683,12.901 63.249,20.09 63.249,29.268 L40.566,29.268 L40.566,29.268 Z" id="Fill-2"></path>
            <path d="M70.485,43.123 L66.977,43.123 L66.977,20.383 C66.977,18.103 66.803,15.764 66.686,13.777 L70.31,13.777 L70.485,18.103 L70.602,18.219 C72.648,14.596 75.98,12.901 79.781,12.901 C89.369,12.901 90.128,21.376 90.128,24.767 L90.128,43.123 L86.621,43.123 L86.621,24.183 C86.621,19.097 83.698,16.115 78.904,16.115 C73.116,16.115 70.485,20.967 70.485,26.229 L70.485,43.123" id="Fill-3"></path>
            <path d="M98.951,16.991 L93.105,16.991 L93.105,13.777 L98.951,13.777 L98.951,7.522 L102.458,6.001 L102.458,13.777 L109.124,13.777 L109.124,16.991 L102.458,16.991 L102.458,36.636 C102.4,39.325 103.803,40.786 106.492,40.786 C107.545,40.786 108.597,40.727 109.533,40.435 L109.533,43.475 C108.422,43.767 107.136,44 105.966,44 C98.542,44 98.951,39.266 98.951,35.29 L98.951,16.991" id="Fill-4"></path>
            <path d="M121.692,40.786 C129.351,40.786 130.813,34.472 130.461,28.334 C125.492,28.51 115.086,27.573 115.086,34.94 C115.086,38.916 118.126,40.786 121.692,40.786 Z M130.461,22.429 C130.111,17.635 127.655,16.115 123.504,16.115 C119.822,16.115 116.781,17.226 116.313,21.201 L112.572,21.201 C113.449,15.18 117.951,12.901 123.563,12.901 C130.052,12.901 134.085,15.881 133.97,22.603 L133.97,36.517 C133.911,38.798 134.145,41.137 134.262,43.123 L130.637,43.123 L130.52,38.798 L130.403,38.798 L130.228,39.207 C128.941,41.662 125.025,44 121.049,44 C115.612,44 111.286,40.668 111.286,34.94 C111.286,30.965 113.683,27.924 117.19,26.464 C121.107,24.767 126.193,25.351 130.461,25.118 L130.461,22.429 L130.461,22.429 Z" id="Fill-5"></path>
            <polygon id="Fill-6" points="141.103 43.123 144.611 43.123 144.611 0.915 141.103 0.915"></polygon>
            <path d="M166.261,20.758 L166.261,36.795 L166.38,41.558 L170.962,41.558 C173.073,41.558 175.304,41.317 177.233,39.388 C179.765,36.854 179.706,32.515 179.706,31.007 C179.706,26.364 178.679,23.892 176.812,22.446 C175.425,21.359 173.013,20.758 169.335,20.758 L166.261,20.758 Z M166.38,2.551 L166.319,6.711 L166.261,19.009 L170.239,19.009 C172.892,19.009 175.001,18.165 175.847,17.08 C176.87,15.875 177.413,13.884 177.413,10.75 C177.413,3.937 175.304,2.551 170.661,2.551 L166.38,2.551 Z M150.947,0.74 L174.821,0.74 C177.233,0.74 179.886,0.861 182.356,2.008 C186.938,4.178 187.06,8.76 187.06,9.727 C187.06,12.135 186.216,14.367 184.468,16.115 C181.634,19.07 177.896,19.492 175.183,19.794 C178.138,19.914 182.839,20.155 186.577,23.892 C188.024,25.341 189.774,27.751 189.774,31.669 C189.774,34.444 188.868,37.339 186.577,39.628 C183.142,43.065 178.8,43.306 175.062,43.306 L150.947,43.306 L150.947,41.737 L156.794,41.737 L156.915,35.77 L156.915,7.313 L156.794,2.309 L150.947,2.309 L150.947,0.74 L150.947,0.74 Z" id="Fill-7"></path>
            <path d="M197.298,0.74 C200.13,0.74 200.976,0.683 203.628,0.502 L203.507,7.192 L203.507,36.916 L203.628,41.737 L207.788,41.737 L207.788,43.306 L190.183,43.306 L190.183,41.737 L194.706,41.737 L194.825,36.916 L194.825,7.192 L194.706,2.309 L190.183,2.309 L190.183,0.74 L197.298,0.74" id="Fill-8"></path>
            <path d="M212.657,14.127 C215.792,14.127 216.757,14.064 219.712,13.884 L219.591,19.492 L219.591,32.997 C219.591,35.286 219.712,37.036 220.194,38.243 C220.978,40.11 222.604,40.956 224.595,40.956 C226.343,40.956 227.851,40.291 228.997,39.206 C231.347,36.854 231.286,33.72 231.286,31.067 L231.286,20.336 L231.167,15.694 L226.704,15.694 L226.704,14.127 L231.89,14.127 C235.386,14.127 236.411,14.064 239.907,13.884 L239.786,19.492 L239.786,36.192 L239.907,41.679 L244.249,41.679 L244.249,43.306 L239.667,43.306 C235.808,43.306 234.421,43.367 231.528,43.548 L231.347,38.905 C230.081,40.474 227.126,43.97 220.313,43.97 C215.854,43.97 213.021,42.282 211.874,39.989 C210.97,38.302 211.03,36.131 211.03,34.325 L211.03,20.094 L210.909,15.694 L206.509,15.694 L206.509,14.127 L212.657,14.127" id="Fill-9"></path>
            <path d="M264.206,25.218 C264.267,20.517 264.327,14.971 258.899,14.971 C253.776,14.971 253.534,20.094 253.354,25.218 L264.206,25.218 Z M273.009,34.864 C271.44,37.821 268.185,43.97 259.083,43.97 C249.735,43.97 244.009,36.795 244.009,28.414 C244.009,20.395 249.437,13.281 259.142,13.281 C265.171,13.281 268.487,15.875 269.935,17.382 C273.251,20.818 273.37,24.434 273.431,27.028 L253.294,27.028 C253.354,32.151 253.474,36.795 256.007,39.448 C257.394,40.893 259.382,41.497 261.372,41.497 C267.884,41.497 270.354,36.012 271.198,34.082 L273.009,34.864 L273.009,34.864 Z" id="Fill-10"></path>
            <path d="M275.651,17.769 C276.657,17.769 277.466,16.975 277.466,15.926 C277.466,14.891 276.657,14.101 275.651,14.101 C274.64,14.101 273.835,14.891 273.835,15.944 C273.835,16.975 274.64,17.769 275.651,17.769 Z M275.651,13.791 C276.827,13.791 277.813,14.712 277.813,15.926 C277.813,17.158 276.827,18.08 275.651,18.08 C274.474,18.08 273.485,17.158 273.485,15.944 C273.485,14.712 274.474,13.791 275.651,13.791 Z M275.198,15.812 L275.614,15.812 C275.962,15.812 276.29,15.798 276.29,15.404 C276.29,15.059 275.999,15.019 275.731,15.019 L275.198,15.019 L275.198,15.812 Z M274.847,14.708 L275.757,14.708 C276.351,14.708 276.638,14.926 276.638,15.424 C276.638,15.864 276.347,16.057 275.978,16.098 L276.692,17.193 L276.319,17.193 L275.638,16.127 L275.198,16.127 L275.198,17.193 L274.847,17.193 L274.847,14.708 L274.847,14.708 Z" id="Fill-11"></path>
            <path d="M492.03,4.61 C491.466,4.61 490.989,4.197 490.974,3.613 L491.317,3.613 C491.327,4.158 491.731,4.315 492.208,4.315 C492.604,4.315 493.062,4.083 493.062,3.632 C493.062,3.279 492.806,3.111 492.507,3.013 C491.933,2.822 491.058,2.64 491.058,1.873 C491.058,1.253 491.628,0.915 492.188,0.915 C492.653,0.915 493.263,1.078 493.343,1.76 L492.999,1.76 C492.989,1.323 492.591,1.21 492.228,1.21 C491.858,1.21 491.401,1.396 491.401,1.83 C491.401,2.835 493.405,2.379 493.405,3.603 C493.405,4.374 492.743,4.61 492.03,4.61" id="Fill-12"></path>
            <polyline id="Fill-13" points="494.167 4.537 494.167 0.989 494.679 0.989 496.011 4.08 497.37 0.989 497.856 0.989 497.856 4.537 497.538 4.537 497.538 1.259 497.528 1.259 496.173 4.537 495.853 4.537 494.497 1.273 494.487 1.273 494.487 4.537 494.167 4.537"></polyline>
            <path d="M284.915,20.978 L294.079,20.978 C299.706,20.978 304.694,19.181 304.694,12.627 C304.694,6.073 299.706,4.274 294.079,4.274 L284.915,4.274 L284.915,20.978 Z M281.146,42.67 L281.146,0.795 L291.644,0.795 C299.706,0.621 308.753,2.65 308.753,12.627 C308.753,22.602 299.706,24.633 291.644,24.458 L284.915,24.458 L284.915,42.67 L281.146,42.67 L281.146,42.67 Z" id="Fill-14"></path>
            <path d="M316.063,42.67 L312.583,42.67 L312.583,20.108 C312.642,17.847 312.409,15.526 312.292,13.555 L315.89,13.555 L316.063,17.847 L316.179,17.847 C317.222,14.889 319.833,12.801 322.733,12.684 C323.892,12.627 325.052,12.684 326.212,12.742 L326.212,16.106 C325.517,16.049 324.763,15.875 324.067,15.875 C318.905,15.875 316.179,19.587 316.063,25.154 L316.063,42.67" id="Fill-15"></path>
            <path d="M349.179,25.734 C348.772,20.108 345.757,15.875 339.726,15.875 C334.042,15.875 331.026,20.631 330.562,25.734 L349.179,25.734 Z M330.446,28.924 C330.562,35.13 333.403,40.35 340.538,40.35 C344.655,40.35 348.077,37.392 348.948,33.39 L352.601,33.39 C350.804,40.35 346.454,43.54 339.435,43.54 C330.735,43.54 326.677,36.058 326.677,28.112 C326.677,20.225 331.026,12.684 339.667,12.684 C349.411,12.684 352.948,19.818 352.948,28.924 L330.446,28.924 L330.446,28.924 Z" id="Fill-16"></path>
            <path d="M359.679,42.67 L359.679,16.744 L353.821,16.744 L353.821,13.555 L359.679,13.555 L359.679,7.349 C359.679,2.361 361.708,0.099 366.696,0.099 C367.798,0.099 368.958,0.505 370.003,0.737 L370.003,3.52 C369.306,3.405 368.552,3.289 367.856,3.289 C363.101,3.289 362.983,5.667 363.157,9.843 L363.157,13.555 L369.771,13.555 L369.771,16.744 L363.157,16.744 L363.157,42.67 L359.679,42.67" id="Fill-17"></path>
            <path d="M393.259,25.734 C392.853,20.108 389.837,15.875 383.806,15.875 C378.122,15.875 375.106,20.631 374.642,25.734 L393.259,25.734 Z M374.526,28.924 C374.642,35.13 377.483,40.35 384.618,40.35 C388.735,40.35 392.157,37.392 393.028,33.39 L396.681,33.39 C394.884,40.35 390.534,43.54 383.515,43.54 C374.815,43.54 370.757,36.058 370.757,28.112 C370.757,20.225 375.106,12.684 383.747,12.684 C393.491,12.684 397.028,19.818 397.028,28.924 L374.526,28.924 L374.526,28.924 Z" id="Fill-18"></path>
            <path d="M406.542,42.67 L403.062,42.67 L403.062,20.108 C403.12,17.847 402.888,15.526 402.772,13.555 L406.368,13.555 L406.542,17.847 L406.657,17.847 C407.702,14.889 410.312,12.801 413.212,12.684 C414.372,12.627 415.532,12.684 416.692,12.742 L416.692,16.106 C415.995,16.049 415.241,15.875 414.546,15.875 C409.384,15.875 406.657,19.587 406.542,25.154 L406.542,42.67" id="Fill-19"></path>
            <path d="M423.651,42.67 L420.171,42.67 L420.171,20.108 C420.229,17.847 419.997,15.526 419.882,13.555 L423.478,13.555 L423.651,17.847 L423.767,17.847 C424.812,14.889 427.421,12.801 430.321,12.684 C431.481,12.627 432.642,12.684 433.802,12.742 L433.802,16.106 C433.104,16.049 432.351,15.875 431.655,15.875 C426.493,15.875 423.767,19.587 423.651,25.154 L423.651,42.67" id="Fill-20"></path>
            <path d="M456.769,25.734 C456.362,20.108 453.347,15.875 447.313,15.875 C441.63,15.875 438.614,20.631 438.151,25.734 L456.769,25.734 Z M438.034,28.924 C438.151,35.13 440.993,40.35 448.126,40.35 C452.245,40.35 455.667,37.392 456.536,33.39 L460.19,33.39 C458.392,40.35 454.042,43.54 447.024,43.54 C438.325,43.54 434.265,36.058 434.265,28.112 C434.265,20.225 438.614,12.684 447.257,12.684 C457.001,12.684 460.538,19.818 460.538,28.924 L438.034,28.924 L438.034,28.924 Z" id="Fill-21"></path>
            <path d="M475.329,15.875 C468.718,15.875 466.571,22.022 466.571,27.59 C466.571,32.984 468.138,40.35 474.808,40.35 C482.405,40.35 484.726,34.028 484.726,27.416 C484.726,21.5 482.114,15.875 475.329,15.875 Z M484.841,38.378 L484.726,38.146 C482.347,41.626 478.81,43.54 474.749,43.54 C466.106,43.54 462.802,35.304 462.802,27.996 C462.802,20.456 466.106,12.684 474.749,12.684 C478.636,12.684 482.694,14.541 484.726,17.963 L484.841,17.847 L484.841,0.795 L488.321,0.795 L488.321,36.116 C488.321,38.378 488.495,40.698 488.61,42.67 L485.015,42.67 L484.841,38.378 L484.841,38.378 Z" id="Fill-22"></path>
        </g>
    </g>
</svg>