<?xml version="1.0" encoding="UTF-8"?>
<svg width="259px" height="69px" viewBox="0 0 259 69" version="1.1" xmlns="http://www.w3.org/2000/svg" xmlns:xlink="http://www.w3.org/1999/xlink">
    <!-- Generator: Sketch 54.1 (76490) - https://sketchapp.com -->
    <title>Blue Cross NC / Products / Blue Local Duke Wake / CK</title>
    <desc>Created with Sketch.</desc>
    <g id="Blue-Cross-NC-/-Products-/-Blue-Local-Duke-Wake-/-CK" stroke="none" stroke-width="1" fill="none" fill-rule="evenodd">
        <g id="BlueLocal-RGB-CK-DukeHealthWakeMed-EPS">
            <path d="M15.24,20.331 L15.24,36.29 L15.36,41.03 L19.921,41.03 C22.021,41.03 24.24,40.79 26.16,38.87 C28.681,36.351 28.62,32.03 28.62,30.53 C28.62,25.91 27.601,23.45 25.74,22.01 C24.36,20.93 21.96,20.331 18.301,20.331 L15.24,20.331 Z M15.36,2.21 L15.301,6.35 L15.24,18.59 L19.2,18.59 C21.841,18.59 23.94,17.751 24.78,16.67 C25.801,15.47 26.341,13.49 26.341,10.37 C26.341,3.59 24.24,2.21 19.62,2.21 L15.36,2.21 Z M0,0.41 L23.761,0.41 C26.16,0.41 28.801,0.53 31.261,1.67 C35.82,3.83 35.94,8.39 35.94,9.35 C35.94,11.751 35.101,13.97 33.36,15.71 C30.54,18.65 26.82,19.07 24.12,19.37 C27.061,19.49 31.74,19.731 35.461,23.45 C36.9,24.89 38.641,27.29 38.641,31.19 C38.641,33.95 37.74,36.831 35.461,39.11 C32.04,42.53 27.721,42.771 24,42.771 L0,42.771 L0,41.21 L5.82,41.21 L5.94,35.271 L5.94,6.95 L5.82,1.97 L0,1.97 L0,0.41 L0,0.41 Z" id="Fill-1" fill="#00AEEF"></path>
            <path d="M46.14,0.41 C48.96,0.41 49.8,0.35 52.44,0.17 L52.32,6.83 L52.32,36.411 L52.44,41.21 L56.58,41.21 L56.58,42.771 L39.06,42.771 L39.06,41.21 L43.56,41.21 L43.68,36.411 L43.68,6.83 L43.56,1.97 L39.06,1.97 L39.06,0.41 L46.14,0.41" id="Fill-2" fill="#00AEEF"></path>
            <path d="M61.44,13.73 C64.56,13.73 65.52,13.67 68.459,13.49 L68.34,19.07 L68.34,32.511 C68.34,34.79 68.459,36.53 68.939,37.731 C69.72,39.591 71.34,40.431 73.319,40.431 C75.06,40.431 76.56,39.771 77.699,38.69 C80.039,36.351 79.98,33.231 79.98,30.591 L79.98,19.91 L79.859,15.291 L75.42,15.291 L75.42,13.73 L80.579,13.73 C84.06,13.73 85.079,13.67 88.56,13.49 L88.439,19.07 L88.439,35.69 L88.56,41.15 L92.88,41.15 L92.88,42.771 L88.319,42.771 C84.48,42.771 83.1,42.831 80.22,43.011 L80.039,38.391 C78.779,39.95 75.84,43.431 69.06,43.431 C64.619,43.431 61.8,41.751 60.659,39.471 C59.76,37.79 59.819,35.63 59.819,33.831 L59.819,19.67 L59.699,15.291 L55.319,15.291 L55.319,13.73 L61.44,13.73" id="Fill-3" fill="#00AEEF"></path>
            <path d="M113.339,24.771 C113.4,20.09 113.459,14.57 108.059,14.57 C102.959,14.57 102.719,19.67 102.54,24.771 L113.339,24.771 Z M122.099,34.37 C120.54,37.311 117.299,43.431 108.24,43.431 C98.939,43.431 93.239,36.29 93.239,27.95 C93.239,19.97 98.639,12.89 108.299,12.89 C114.299,12.89 117.599,15.47 119.04,16.97 C122.339,20.39 122.459,23.99 122.52,26.57 L102.48,26.57 C102.54,31.671 102.66,36.29 105.179,38.931 C106.559,40.37 108.54,40.971 110.519,40.971 C117,40.971 119.459,35.511 120.299,33.591 L122.099,34.37 L122.099,34.37 Z" id="Fill-4" fill="#00AEEF"></path>
            <path d="M252.307,3.951 C251.743,3.951 251.266,3.539 251.25,2.954 L251.594,2.954 C251.604,3.499 252.008,3.656 252.485,3.656 C252.881,3.656 253.338,3.425 253.338,2.973 C253.338,2.62 253.083,2.453 252.784,2.354 C252.209,2.163 251.334,1.981 251.334,1.214 C251.334,0.595 251.905,0.256 252.465,0.256 C252.93,0.256 253.54,0.418 253.62,1.102 L253.276,1.102 C253.266,0.664 252.868,0.551 252.504,0.551 C252.135,0.551 251.678,0.738 251.678,1.17 C251.678,2.177 253.682,1.721 253.682,2.944 C253.682,3.715 253.02,3.951 252.307,3.951" id="Fill-5" fill="#231F20"></path>
            <polyline id="Fill-6" fill="#231F20" points="254.444 3.877 254.444 0.33 254.956 0.33 256.288 3.42 257.647 0.33 258.133 0.33 258.133 3.877 257.815 3.877 257.815 0.6 257.805 0.6 256.45 3.877 256.129 3.877 254.774 0.615 254.764 0.615 254.764 3.877 254.444 3.877"></polyline>
            <polyline id="Fill-7" fill="#231F20" points="127.813 42.769 127.813 0.394 131.628 0.394 131.628 39.246 152.932 39.246 152.932 42.769 127.813 42.769"></polyline>
            <path d="M167.718,15.654 C160.617,15.654 157.798,22.579 157.798,28.036 C157.798,33.495 160.617,40.42 167.718,40.42 C174.818,40.42 177.636,33.495 177.636,28.036 C177.636,22.579 174.818,15.654 167.718,15.654 Z M181.451,28.036 C181.451,35.784 177.107,43.648 167.718,43.648 C158.328,43.648 153.985,35.784 153.985,28.036 C153.985,20.29 158.328,12.426 167.718,12.426 C177.107,12.426 181.451,20.29 181.451,28.036 L181.451,28.036 Z" id="Fill-8" fill="#231F20"></path>
            <path d="M206.334,22.344 C206.041,17.825 203.166,15.654 198.294,15.654 C192.894,15.654 189.55,21.288 189.55,27.979 C189.55,34.728 192.894,40.42 198.294,40.42 C202.872,40.42 206.041,37.604 206.334,33.554 L210.15,33.554 C209.209,40.304 205.337,43.648 198.647,43.648 C189.842,43.648 185.735,36.077 185.735,28.036 C185.735,20.055 190.136,12.426 198.88,12.426 C204.927,12.426 209.856,16.064 210.15,22.344 L206.334,22.344" id="Fill-9" fill="#231F20"></path>
            <path d="M224.941,40.42 C232.628,40.42 234.096,34.082 233.744,27.92 C228.756,28.096 218.308,27.156 218.308,34.551 C218.308,38.543 221.361,40.42 224.941,40.42 Z M233.744,21.992 C233.391,17.179 230.927,15.654 226.761,15.654 C223.062,15.654 220.012,16.769 219.541,20.759 L215.786,20.759 C216.666,14.714 221.186,12.426 226.819,12.426 C233.333,12.426 237.382,15.418 237.265,22.168 L237.265,36.136 C237.207,38.425 237.443,40.773 237.559,42.769 L233.92,42.769 L233.802,38.425 L233.685,38.425 L233.51,38.836 C232.217,41.301 228.286,43.648 224.294,43.648 C218.838,43.648 214.495,40.304 214.495,34.551 C214.495,30.561 216.901,27.509 220.422,26.041 C224.355,24.34 229.459,24.927 233.744,24.691 L233.744,21.992 L233.744,21.992 Z" id="Fill-10" fill="#231F20"></path>
            <polygon id="Fill-11" fill="#231F20" points="243.685 42.768 247.207 42.768 247.207 0.394 243.685 0.394"></polygon>
            <polyline id="Fill-12" fill="#231F20" points="10.141 67.397 10.175 67.397 12.766 60.189 13.976 60.189 16.499 67.329 16.533 67.329 19.004 60.189 20.129 60.189 16.942 68.744 15.97 68.744 13.346 61.364 13.312 61.364 10.636 68.744 9.596 68.744 6.459 60.189 7.584 60.189 10.141 67.397"></polyline>
            <path d="M21.666,68.745 L22.689,68.745 L22.689,60.189 L21.666,60.189 L21.666,68.745 Z M21.581,57.717 L22.774,57.717 L22.774,56.439 L21.581,56.439 L21.581,57.717 Z" id="Fill-13" fill="#231F20"></path>
            <path d="M26.064,61.125 L24.36,61.125 L24.36,60.189 L26.064,60.189 L26.064,58.364 L27.087,57.921 L27.087,60.189 L29.03,60.189 L29.03,61.125 L27.087,61.125 L27.087,66.853 C27.07,67.637 27.479,68.062 28.263,68.062 C28.57,68.062 28.877,68.045 29.149,67.96 L29.149,68.847 C28.825,68.932 28.45,69 28.109,69 C25.945,69 26.064,67.619 26.064,66.46 L26.064,61.125" id="Fill-14" fill="#231F20"></path>
            <path d="M31.929,61.483 L31.963,61.483 C32.559,60.427 33.531,59.933 34.639,59.933 C37.434,59.933 37.655,62.403 37.655,63.393 L37.655,68.744 L36.633,68.744 L36.633,63.222 C36.633,61.739 35.781,60.87 34.383,60.87 C32.696,60.87 31.929,62.284 31.929,63.818 L31.929,68.744 L30.906,68.744 L30.906,56.439 L31.929,56.439 L31.929,61.483" id="Fill-15" fill="#231F20"></path>
            <path d="M48.704,67.722 C52.164,67.722 53.578,65.693 53.578,62.591 C53.578,58.961 51.448,57.358 47.954,57.461 L46.215,57.461 L46.215,67.722 L48.704,67.722 Z M48.431,56.439 C52.47,56.439 54.771,58.518 54.771,62.591 C54.771,66.665 52.47,68.744 48.431,68.744 L45.107,68.744 L45.107,56.439 L48.431,56.439 L48.431,56.439 Z" id="Fill-16" fill="#231F20"></path>
            <path d="M62.853,60.189 L63.875,60.189 L63.875,66.818 C63.875,67.482 63.926,68.165 63.96,68.744 L62.904,68.744 L62.853,67.482 L62.818,67.449 C62.222,68.506 61.251,69 60.143,69 C57.347,69 57.126,66.528 57.126,65.54 L57.126,60.189 L58.148,60.189 L58.148,65.71 C58.148,67.193 59.001,68.062 60.398,68.062 C62.085,68.062 62.853,66.647 62.853,65.113 L62.853,60.189" id="Fill-17" fill="#231F20"></path>
            <polyline id="Fill-18" fill="#231F20" points="67.627 63.682 71.769 60.189 73.081 60.189 68.752 63.887 73.422 68.744 72.127 68.744 67.627 64.108 67.627 68.744 66.605 68.744 66.605 56.439 67.627 56.439 67.627 63.682"></polyline>
            <path d="M80.174,63.768 C80.055,62.114 79.168,60.87 77.396,60.87 C75.725,60.87 74.839,62.268 74.703,63.768 L80.174,63.768 Z M74.669,64.705 C74.703,66.528 75.538,68.062 77.634,68.062 C78.844,68.062 79.85,67.193 80.105,66.017 L81.179,66.017 C80.651,68.062 79.373,69 77.311,69 C74.754,69 73.561,66.801 73.561,64.466 C73.561,62.148 74.839,59.933 77.378,59.933 C80.242,59.933 81.282,62.028 81.282,64.705 L74.669,64.705 L74.669,64.705 Z" id="Fill-19" fill="#231F20"></path>
            <polyline id="Fill-20" fill="#231F20" points="88.409 68.744 88.409 56.439 89.517 56.439 89.517 61.841 96.232 61.841 96.232 56.439 97.34 56.439 97.34 68.744 96.232 68.744 96.232 62.864 89.517 62.864 89.517 68.744 88.409 68.744"></polyline>
            <path d="M106.274,63.768 C106.155,62.114 105.268,60.87 103.496,60.87 C101.826,60.87 100.939,62.268 100.803,63.768 L106.274,63.768 Z M100.769,64.705 C100.803,66.528 101.638,68.062 103.734,68.062 C104.945,68.062 105.95,67.193 106.206,66.017 L107.28,66.017 C106.751,68.062 105.473,69 103.411,69 C100.854,69 99.661,66.801 99.661,64.466 C99.661,62.148 100.939,59.933 103.479,59.933 C106.342,59.933 107.381,62.028 107.381,64.705 L100.769,64.705 L100.769,64.705 Z" id="Fill-21" fill="#231F20"></path>
            <path d="M111.833,68.062 C114.065,68.062 114.492,66.222 114.389,64.432 C112.94,64.483 109.907,64.21 109.907,66.358 C109.907,67.517 110.792,68.062 111.833,68.062 Z M114.389,62.711 C114.287,61.313 113.571,60.87 112.361,60.87 C111.287,60.87 110.401,61.193 110.264,62.353 L109.173,62.353 C109.429,60.597 110.742,59.933 112.377,59.933 C114.27,59.933 115.446,60.802 115.412,62.762 L115.412,66.818 C115.395,67.482 115.462,68.165 115.497,68.744 L114.44,68.744 L114.406,67.482 L114.372,67.482 L114.321,67.603 C113.946,68.318 112.804,69 111.645,69 C110.06,69 108.798,68.028 108.798,66.358 C108.798,65.199 109.498,64.313 110.52,63.887 C111.662,63.393 113.145,63.563 114.389,63.494 L114.389,62.711 L114.389,62.711 Z" id="Fill-22" fill="#231F20"></path>
            <polygon id="Fill-23" fill="#231F20" points="117.988 68.745 119.01 68.745 119.01 56.439 117.988 56.439"></polygon>
            <path d="M122.386,61.125 L120.681,61.125 L120.681,60.189 L122.386,60.189 L122.386,58.364 L123.409,57.921 L123.409,60.189 L125.352,60.189 L125.352,61.125 L123.409,61.125 L123.409,66.853 C123.391,67.637 123.8,68.062 124.584,68.062 C124.891,68.062 125.199,68.045 125.471,67.96 L125.471,68.847 C125.147,68.932 124.772,69 124.431,69 C122.267,69 122.386,67.619 122.386,66.46 L122.386,61.125" id="Fill-24" fill="#231F20"></path>
            <path d="M128.25,61.483 L128.284,61.483 C128.88,60.427 129.852,59.933 130.959,59.933 C133.755,59.933 133.977,62.403 133.977,63.393 L133.977,68.744 L132.955,68.744 L132.955,63.222 C132.955,61.739 132.102,60.87 130.705,60.87 C129.017,60.87 128.25,62.284 128.25,63.818 L128.25,68.744 L127.227,68.744 L127.227,56.439 L128.25,56.439 L128.25,61.483" id="Fill-25" fill="#231F20"></path>
            <path d="M143.525,68.062 C145.757,68.062 146.184,66.222 146.082,64.432 C144.632,64.483 141.599,64.21 141.599,66.358 C141.599,67.517 142.485,68.062 143.525,68.062 Z M146.082,62.711 C145.979,61.313 145.263,60.87 144.053,60.87 C142.979,60.87 142.093,61.193 141.957,62.353 L140.866,62.353 C141.122,60.597 142.434,59.933 144.07,59.933 C145.962,59.933 147.138,60.802 147.104,62.762 L147.104,66.818 C147.087,67.482 147.155,68.165 147.189,68.744 L146.132,68.744 L146.098,67.482 L146.064,67.482 L146.013,67.603 C145.638,68.318 144.497,69 143.337,69 C141.752,69 140.491,68.028 140.491,66.358 C140.491,65.199 141.19,64.313 142.212,63.887 C143.354,63.393 144.837,63.563 146.082,63.494 L146.082,62.711 L146.082,62.711 Z" id="Fill-26" fill="#231F20"></path>
            <path d="M150.685,68.744 L149.663,68.744 L149.663,62.114 C149.663,61.449 149.612,60.768 149.578,60.189 L150.634,60.189 L150.685,61.449 L150.719,61.483 C151.316,60.427 152.288,59.933 153.395,59.933 C156.191,59.933 156.413,62.403 156.413,63.393 L156.413,68.744 L155.39,68.744 L155.39,63.222 C155.39,61.739 154.538,60.87 153.14,60.87 C151.453,60.87 150.685,62.284 150.685,63.818 L150.685,68.744" id="Fill-27" fill="#231F20"></path>
            <path d="M161.971,60.87 C160.028,60.87 159.397,62.677 159.397,64.313 C159.397,65.897 159.858,68.062 161.818,68.062 C164.05,68.062 164.732,66.204 164.732,64.262 C164.732,62.523 163.965,60.87 161.971,60.87 Z M164.766,67.482 L164.732,67.415 C164.034,68.438 162.994,69 161.8,69 C159.261,69 158.29,66.579 158.29,64.432 C158.29,62.216 159.261,59.933 161.8,59.933 C162.943,59.933 164.135,60.478 164.732,61.483 L164.766,61.449 L164.766,56.439 L165.789,56.439 L165.789,66.818 C165.789,67.482 165.84,68.165 165.874,68.744 L164.817,68.744 L164.766,67.482 L164.766,67.482 Z" id="Fill-28" fill="#231F20"></path>
            <polyline id="Fill-29" fill="#231F20" points="176.461 68.744 174.894 68.744 171.69 56.439 172.866 56.439 175.729 67.637 175.763 67.637 179.359 56.439 180.706 56.439 184.456 67.637 184.49 67.637 187.335 56.439 188.41 56.439 185.171 68.744 183.655 68.744 180.024 57.58 179.99 57.58 176.461 68.744"></polyline>
            <path d="M191.771,68.062 C194.003,68.062 194.43,66.222 194.328,64.432 C192.878,64.483 189.845,64.21 189.845,66.358 C189.845,67.517 190.731,68.062 191.771,68.062 Z M194.328,62.711 C194.225,61.313 193.509,60.87 192.299,60.87 C191.225,60.87 190.339,61.193 190.203,62.353 L189.112,62.353 C189.368,60.597 190.68,59.933 192.316,59.933 C194.208,59.933 195.384,60.802 195.35,62.762 L195.35,66.818 C195.333,67.482 195.401,68.165 195.435,68.744 L194.378,68.744 L194.344,67.482 L194.31,67.482 L194.259,67.603 C193.884,68.318 192.743,69 191.583,69 C189.999,69 188.737,68.028 188.737,66.358 C188.737,65.199 189.436,64.313 190.458,63.887 C191.6,63.393 193.083,63.563 194.328,63.494 L194.328,62.711 L194.328,62.711 Z" id="Fill-30" fill="#231F20"></path>
            <polyline id="Fill-31" fill="#231F20" points="199.034 63.682 203.175 60.189 204.488 60.189 200.159 63.887 204.829 68.744 203.534 68.744 199.034 64.108 199.034 68.744 198.011 68.744 198.011 56.439 199.034 56.439 199.034 63.682"></polyline>
            <path d="M211.887,63.768 C211.768,62.114 210.882,60.87 209.11,60.87 C207.439,60.87 206.553,62.268 206.417,63.768 L211.887,63.768 Z M206.382,64.705 C206.417,66.528 207.251,68.062 209.348,68.062 C210.558,68.062 211.564,67.193 211.82,66.017 L212.893,66.017 C212.365,68.062 211.086,69 209.024,69 C206.467,69 205.275,66.801 205.275,64.466 C205.275,62.148 206.553,59.933 209.092,59.933 C211.956,59.933 212.996,62.028 212.996,64.705 L206.382,64.705 L206.382,64.705 Z" id="Fill-32" fill="#231F20"></path>
            <polyline id="Fill-33" fill="#231F20" points="215.452 68.744 215.452 56.439 217.224 56.439 221.843 67.159 226.564 56.439 228.251 56.439 228.251 68.744 227.144 68.744 227.144 57.376 227.11 57.376 222.406 68.744 221.297 68.744 216.593 57.427 216.559 57.427 216.559 68.744 215.452 68.744"></polyline>
            <path d="M237.083,63.768 C236.964,62.114 236.079,60.87 234.306,60.87 C232.635,60.87 231.75,62.268 231.613,63.768 L237.083,63.768 Z M231.579,64.705 C231.613,66.528 232.448,68.062 234.544,68.062 C235.754,68.062 236.76,67.193 237.016,66.017 L238.089,66.017 C237.561,68.062 236.283,69 234.22,69 C231.664,69 230.471,66.801 230.471,64.466 C230.471,62.148 231.75,59.933 234.289,59.933 C237.152,59.933 238.192,62.028 238.192,64.705 L231.579,64.705 L231.579,64.705 Z" id="Fill-34" fill="#231F20"></path>
            <path d="M243.461,60.87 C241.518,60.87 240.887,62.677 240.887,64.313 C240.887,65.897 241.348,68.062 243.308,68.062 C245.541,68.062 246.222,66.204 246.222,64.262 C246.222,62.523 245.456,60.87 243.461,60.87 Z M246.256,67.482 L246.222,67.415 C245.524,68.438 244.484,69 243.291,69 C240.751,69 239.78,66.579 239.78,64.432 C239.78,62.216 240.751,59.933 243.291,59.933 C244.433,59.933 245.625,60.478 246.222,61.483 L246.256,61.449 L246.256,56.439 L247.279,56.439 L247.279,66.818 C247.279,67.482 247.331,68.165 247.364,68.744 L246.307,68.744 L246.256,67.482 L246.256,67.482 Z" id="Fill-35" fill="#231F20"></path>
        </g>
    </g>
</svg>