<?xml version="1.0" encoding="UTF-8"?>
<svg width="270px" height="50px" viewBox="0 0 270 50" version="1.1" xmlns="http://www.w3.org/2000/svg" xmlns:xlink="http://www.w3.org/1999/xlink">
    <!-- Generator: Sketch 54.1 (76490) - https://sketchapp.com -->
    <title>Blue Cross NC / Products / Blue2020 / CW</title>
    <desc>Created with Sketch.</desc>
    <g id="Blue-Cross-NC-/-Products-/-Blue2020-/-CW" stroke="none" stroke-width="1" fill="none" fill-rule="evenodd">
        <g id="Blue2020-RGB-CW-EPS">
            <path d="M15.239,23.891 L15.239,39.849 L15.358,44.589 L19.918,44.589 C22.018,44.589 24.239,44.349 26.159,42.429 C28.678,39.909 28.618,35.59 28.618,34.09 C28.618,29.471 27.598,27.01 25.739,25.57 C24.358,24.49 21.959,23.891 18.299,23.891 L15.239,23.891 Z M15.358,5.771 L15.299,9.91 L15.239,22.15 L19.198,22.15 C21.838,22.15 23.938,21.311 24.778,20.23 C25.797,19.031 26.338,17.051 26.338,13.93 C26.338,7.15 24.239,5.771 19.618,5.771 L15.358,5.771 Z M0,3.971 L23.758,3.971 C26.159,3.971 28.797,4.092 31.258,5.23 C35.819,7.391 35.938,11.951 35.938,12.91 C35.938,15.311 35.098,17.531 33.358,19.269 C30.538,22.211 26.819,22.631 24.118,22.93 C27.059,23.051 31.739,23.291 35.457,27.01 C36.897,28.449 38.637,30.85 38.637,34.75 C38.637,37.509 37.739,40.39 35.457,42.669 C32.038,46.089 27.717,46.329 23.998,46.329 L0,46.329 L0,44.769 L5.819,44.769 L5.94,38.829 L5.94,10.512 L5.819,5.531 L0,5.531 L0,3.971 L0,3.971 Z" id="Fill-1" fill="#38A1CE"></path>
            <path d="M46.125,3.971 C48.946,3.971 49.786,3.91 52.424,3.73 L52.305,10.391 L52.305,39.97 L52.424,44.769 L56.565,44.769 L56.565,46.329 L39.045,46.329 L39.045,44.769 L43.545,44.769 L43.665,39.97 L43.665,10.391 L43.545,5.531 L39.045,5.531 L39.045,3.971 L46.125,3.971" id="Fill-2" fill="#38A1CE"></path>
            <path d="M61.411,17.291 C64.532,17.291 65.491,17.23 68.43,17.051 L68.311,22.631 L68.311,36.07 C68.311,38.349 68.43,40.089 68.911,41.29 C69.69,43.149 71.311,43.989 73.291,43.989 C75.03,43.989 76.53,43.329 77.67,42.249 C80.01,39.909 79.95,36.789 79.95,34.15 L79.95,23.471 L79.831,18.85 L75.391,18.85 L75.391,17.291 L80.551,17.291 C84.03,17.291 85.049,17.23 88.53,17.051 L88.411,22.631 L88.411,39.249 L88.53,44.71 L92.85,44.71 L92.85,46.329 L88.29,46.329 C84.45,46.329 83.071,46.39 80.19,46.569 L80.01,41.948 C78.75,43.509 75.811,46.989 69.03,46.989 C64.59,46.989 61.772,45.31 60.631,43.028 C59.731,41.349 59.791,39.188 59.791,37.39 L59.791,23.23 L59.67,18.85 L55.291,18.85 L55.291,17.291 L61.411,17.291" id="Fill-3" fill="#38A1CE"></path>
            <path d="M112.711,28.33 C112.77,23.65 112.831,18.131 107.43,18.131 C102.331,18.131 102.09,23.23 101.911,28.33 L112.711,28.33 Z M121.471,37.929 C119.911,40.87 116.67,46.989 107.612,46.989 C98.311,46.989 92.612,39.849 92.612,31.51 C92.612,23.529 98.012,16.451 107.67,16.451 C113.67,16.451 116.971,19.031 118.411,20.531 C121.711,23.949 121.831,27.551 121.891,30.131 L101.852,30.131 C101.911,35.23 102.032,39.849 104.551,42.489 C105.932,43.929 107.911,44.528 109.891,44.528 C116.372,44.528 118.831,39.069 119.67,37.15 L121.471,37.929 L121.471,37.929 Z" id="Fill-4" fill="#38A1CE"></path>
            <path d="M126.451,46.221 L126.451,42.141 C131.85,37.281 147.81,22.221 147.81,14.782 C147.81,9.922 143.97,7.402 139.47,7.402 C134.49,7.402 131.071,10.822 131.071,15.682 L126.871,15.682 C126.871,8.362 132.39,3.802 139.59,3.802 C146.25,3.802 152.009,7.342 152.009,14.541 C152.009,24.261 137.55,36.44 131.13,42.621 L152.549,42.621 L152.549,46.221 L126.451,46.221" id="Fill-5" fill="#FFFFFE"></path>
            <path d="M160.79,25.461 C160.79,31.641 161.569,43.52 170.389,43.52 C179.208,43.52 179.989,31.641 179.989,25.461 C179.989,19.281 179.208,7.402 170.389,7.402 C161.569,7.402 160.79,19.281 160.79,25.461 Z M184.188,25.461 C184.188,36.02 181.728,47.12 170.389,47.12 C159.049,47.12 156.589,36.02 156.589,25.461 C156.589,14.901 159.049,3.802 170.389,3.802 C181.728,3.802 184.188,14.901 184.188,25.461 L184.188,25.461 Z" id="Fill-6" fill="#FFFFFE"></path>
            <polyline id="Fill-7" fill="#FFFFFE" points="200.129 0.921 204.03 0.921 188.371 50 184.59 50 200.129 0.921"></polyline>
            <path d="M204.551,46.221 L204.551,42.141 C209.951,37.281 225.911,22.221 225.911,14.782 C225.911,9.922 222.071,7.402 217.571,7.402 C212.59,7.402 209.171,10.822 209.171,15.682 L204.971,15.682 C204.971,8.362 210.491,3.802 217.691,3.802 C224.35,3.802 230.11,7.342 230.11,14.541 C230.11,24.261 215.651,36.44 209.231,42.621 L230.65,42.621 L230.65,46.221 L204.551,46.221" id="Fill-8" fill="#FFFFFE"></path>
            <path d="M238.891,25.461 C238.891,31.641 239.67,43.52 248.491,43.52 C257.31,43.52 258.09,31.641 258.09,25.461 C258.09,19.281 257.31,7.402 248.491,7.402 C239.67,7.402 238.891,19.281 238.891,25.461 Z M262.29,25.461 C262.29,36.02 259.83,47.12 248.491,47.12 C237.151,47.12 234.691,36.02 234.691,25.461 C234.691,14.901 237.151,3.802 248.491,3.802 C259.83,3.802 262.29,14.901 262.29,25.461 L262.29,25.461 Z" id="Fill-9" fill="#FFFFFE"></path>
            <path d="M263.824,7.599 C263.259,7.599 262.783,7.187 262.767,6.601 L263.111,6.601 C263.121,7.147 263.525,7.304 264.001,7.304 C264.398,7.304 264.855,7.073 264.855,6.62 C264.855,6.267 264.599,6.101 264.3,6.003 C263.726,5.81 262.851,5.628 262.851,4.862 C262.851,4.243 263.421,3.903 263.982,3.903 C264.447,3.903 265.056,4.065 265.136,4.749 L264.792,4.749 C264.783,4.312 264.384,4.198 264.021,4.198 C263.652,4.198 263.195,4.386 263.195,4.817 C263.195,5.825 265.199,5.368 265.199,6.591 C265.199,7.362 264.537,7.599 263.824,7.599" id="Fill-10" fill="#FFFFFE"></path>
            <polyline id="Fill-11" fill="#FFFFFE" points="265.96 7.524 265.96 3.978 266.472 3.978 267.804 7.067 269.164 3.978 269.65 3.978 269.65 7.524 269.332 7.524 269.332 4.247 269.322 4.247 267.966 7.524 267.646 7.524 266.291 4.263 266.281 4.263 266.281 7.524 265.96 7.524"></polyline>
        </g>
    </g>
</svg>