<?xml version="1.0" encoding="UTF-8"?>
<svg width="259px" height="72px" viewBox="0 0 259 72" version="1.1" xmlns="http://www.w3.org/2000/svg" xmlns:xlink="http://www.w3.org/1999/xlink">
    <!-- Generator: Sketch 54.1 (76490) - https://sketchapp.com -->
    <title>Blue Cross NC / Products / Blue Local CHS / W</title>
    <desc>Created with Sketch.</desc>
    <defs>
        <polygon id="path-1" points="0.183 0.13 16.378 0.13 16.378 14.94 0.183 14.94"></polygon>
    </defs>
    <g id="Blue-Cross-NC-/-Products-/-Blue-Local-CHS-/-W" stroke="none" stroke-width="1" fill="none" fill-rule="evenodd">
        <g id="BlueLocal-RGB-W-CHS-EPS">
            <path d="M15.24,20.863 L15.24,36.822 L15.36,41.562 L19.921,41.562 C22.021,41.562 24.24,41.322 26.16,39.402 C28.681,36.883 28.62,32.562 28.62,31.062 C28.62,26.442 27.601,23.982 25.74,22.542 C24.36,21.462 21.96,20.863 18.301,20.863 L15.24,20.863 Z M15.36,2.743 L15.301,6.882 L15.24,19.122 L19.2,19.122 C21.841,19.122 23.94,18.283 24.78,17.203 C25.801,16.002 26.341,14.022 26.341,10.902 C26.341,4.123 24.24,2.743 19.62,2.743 L15.36,2.743 Z M0,0.942 L23.761,0.942 C26.16,0.942 28.801,1.062 31.261,2.203 C35.82,4.362 35.94,8.922 35.94,9.882 C35.94,12.283 35.101,14.502 33.36,16.243 C30.54,19.183 26.82,19.602 24.12,19.902 C27.061,20.022 31.74,20.263 35.461,23.982 C36.9,25.422 38.641,27.822 38.641,31.723 C38.641,34.482 37.74,37.363 35.461,39.642 C32.04,43.062 27.721,43.303 24,43.303 L0,43.303 L0,41.742 L5.82,41.742 L5.94,35.803 L5.94,7.482 L5.82,2.502 L0,2.502 L0,0.942 L0,0.942 Z" id="Fill-1" fill="#FFFFFE"></path>
            <path d="M46.14,0.942 C48.96,0.942 49.8,0.882 52.44,0.703 L52.32,7.362 L52.32,36.943 L52.44,41.742 L56.58,41.742 L56.58,43.303 L39.06,43.303 L39.06,41.742 L43.56,41.742 L43.68,36.943 L43.68,7.362 L43.56,2.502 L39.06,2.502 L39.06,0.942 L46.14,0.942" id="Fill-2" fill="#FFFFFE"></path>
            <path d="M61.44,14.263 C64.56,14.263 65.52,14.203 68.459,14.022 L68.34,19.602 L68.34,33.043 C68.34,35.322 68.459,37.062 68.939,38.263 C69.72,40.123 71.34,40.963 73.319,40.963 C75.06,40.963 76.56,40.303 77.699,39.223 C80.039,36.883 79.98,33.763 79.98,31.123 L79.98,20.442 L79.859,15.823 L75.42,15.823 L75.42,14.263 L80.579,14.263 C84.06,14.263 85.079,14.203 88.56,14.022 L88.439,19.602 L88.439,36.223 L88.56,41.683 L92.88,41.683 L92.88,43.303 L88.319,43.303 C84.48,43.303 83.1,43.363 80.22,43.543 L80.039,38.923 C78.779,40.482 75.84,43.963 69.06,43.963 C64.619,43.963 61.8,42.283 60.659,40.003 C59.76,38.322 59.819,36.162 59.819,34.363 L59.819,20.203 L59.699,15.823 L55.319,15.823 L55.319,14.263 L61.44,14.263" id="Fill-3" fill="#FFFFFE"></path>
            <path d="M113.339,25.303 C113.4,20.622 113.459,15.102 108.059,15.102 C102.959,15.102 102.719,20.203 102.54,25.303 L113.339,25.303 Z M122.099,34.902 C120.54,37.843 117.299,43.963 108.24,43.963 C98.939,43.963 93.239,36.822 93.239,28.482 C93.239,20.502 98.639,13.422 108.299,13.422 C114.299,13.422 117.599,16.002 119.04,17.502 C122.339,20.922 122.459,24.522 122.52,27.102 L102.48,27.102 C102.54,32.203 102.66,36.822 105.179,39.463 C106.559,40.902 108.54,41.503 110.519,41.503 C117,41.503 119.459,36.043 120.299,34.123 L122.099,34.902 L122.099,34.902 Z" id="Fill-4" fill="#FFFFFE"></path>
            <path d="M252.307,4.483 C251.743,4.483 251.266,4.071 251.25,3.486 L251.594,3.486 C251.604,4.031 252.008,4.188 252.485,4.188 C252.881,4.188 253.338,3.957 253.338,3.505 C253.338,3.152 253.083,2.985 252.784,2.887 C252.209,2.695 251.334,2.513 251.334,1.747 C251.334,1.127 251.905,0.789 252.465,0.789 C252.93,0.789 253.54,0.951 253.62,1.634 L253.276,1.634 C253.266,1.196 252.868,1.083 252.504,1.083 C252.135,1.083 251.678,1.27 251.678,1.703 C251.678,2.709 253.682,2.253 253.682,3.476 C253.682,4.248 253.02,4.483 252.307,4.483" id="Fill-5" fill="#FFFFFE"></path>
            <polyline id="Fill-6" fill="#FFFFFE" points="254.444 4.41 254.444 0.862 254.956 0.862 256.288 3.953 257.647 0.862 258.133 0.862 258.133 4.41 257.815 4.41 257.815 1.132 257.805 1.132 256.45 4.41 256.129 4.41 254.774 1.147 254.764 1.147 254.764 4.41 254.444 4.41"></polyline>
            <polyline id="Fill-7" fill="#FFFFFE" points="127.813 43.301 127.813 0.926 131.628 0.926 131.628 39.778 152.932 39.778 152.932 43.301 127.813 43.301"></polyline>
            <path d="M167.718,16.186 C160.617,16.186 157.798,23.111 157.798,28.568 C157.798,34.027 160.617,40.952 167.718,40.952 C174.818,40.952 177.636,34.027 177.636,28.568 C177.636,23.111 174.818,16.186 167.718,16.186 Z M181.451,28.568 C181.451,36.316 177.107,44.18 167.718,44.18 C158.328,44.18 153.985,36.316 153.985,28.568 C153.985,20.822 158.328,12.958 167.718,12.958 C177.107,12.958 181.451,20.822 181.451,28.568 L181.451,28.568 Z" id="Fill-8" fill="#FFFFFE"></path>
            <path d="M206.334,22.876 C206.041,18.357 203.166,16.186 198.294,16.186 C192.894,16.186 189.55,21.82 189.55,28.511 C189.55,35.26 192.894,40.952 198.294,40.952 C202.872,40.952 206.041,38.136 206.334,34.086 L210.15,34.086 C209.209,40.836 205.337,44.18 198.647,44.18 C189.842,44.18 185.735,36.609 185.735,28.568 C185.735,20.587 190.136,12.958 198.88,12.958 C204.927,12.958 209.856,16.597 210.15,22.876 L206.334,22.876" id="Fill-9" fill="#FFFFFE"></path>
            <path d="M224.941,40.952 C232.628,40.952 234.096,34.614 233.744,28.452 C228.756,28.628 218.308,27.688 218.308,35.083 C218.308,39.075 221.361,40.952 224.941,40.952 Z M233.744,22.524 C233.391,17.711 230.927,16.186 226.761,16.186 C223.062,16.186 220.012,17.301 219.541,21.291 L215.786,21.291 C216.666,15.246 221.186,12.958 226.819,12.958 C233.333,12.958 237.382,15.951 237.265,22.7 L237.265,36.668 C237.207,38.957 237.443,41.305 237.559,43.301 L233.92,43.301 L233.802,38.957 L233.685,38.957 L233.51,39.368 C232.217,41.833 228.286,44.18 224.294,44.18 C218.838,44.18 214.495,40.836 214.495,35.083 C214.495,31.093 216.901,28.041 220.422,26.573 C224.355,24.872 229.459,25.459 233.744,25.224 L233.744,22.524 L233.744,22.524 Z" id="Fill-10" fill="#FFFFFE"></path>
            <polygon id="Fill-11" fill="#FFFFFE" points="243.685 43.3 247.207 43.3 247.207 0.926 243.685 0.926"></polygon>
            <polyline id="Fill-12" fill="#FFFFFE" points="10.091 67.662 10.123 67.662 12.556 60.892 13.692 60.892 16.062 67.599 16.093 67.599 18.414 60.892 19.471 60.892 16.478 68.927 15.565 68.927 13.1 61.996 13.068 61.996 10.555 68.927 9.579 68.927 6.634 60.892 7.69 60.892 10.091 67.662"></polyline>
            <path d="M21.018,68.927 L21.978,68.927 L21.978,60.892 L21.018,60.892 L21.018,68.927 Z M20.937,58.57 L22.058,58.57 L22.058,57.37 L20.937,57.37 L20.937,58.57 Z" id="Fill-13" fill="#FFFFFE"></path>
            <path d="M25.258,61.771 L23.657,61.771 L23.657,60.892 L25.258,60.892 L25.258,59.179 L26.218,58.763 L26.218,60.892 L28.043,60.892 L28.043,61.771 L26.218,61.771 L26.218,67.15 C26.202,67.887 26.586,68.286 27.323,68.286 C27.611,68.286 27.899,68.27 28.155,68.19 L28.155,69.022 C27.851,69.102 27.499,69.167 27.179,69.167 C25.146,69.167 25.258,67.87 25.258,66.782 L25.258,61.771" id="Fill-14" fill="#FFFFFE"></path>
            <path d="M30.874,62.108 L30.906,62.108 C31.466,61.115 32.378,60.651 33.419,60.651 C36.044,60.651 36.252,62.973 36.252,63.9 L36.252,68.927 L35.292,68.927 L35.292,63.74 C35.292,62.348 34.491,61.532 33.179,61.532 C31.594,61.532 30.874,62.86 30.874,64.301 L30.874,68.927 L29.913,68.927 L29.913,57.37 L30.874,57.37 L30.874,62.108" id="Fill-15" fill="#FFFFFE"></path>
            <path d="M50.684,60.075 C50.492,58.667 49.276,58.091 47.963,58.091 C45.002,58.091 44.105,60.779 44.105,63.148 C44.105,65.517 45.002,68.206 47.963,68.206 C49.244,68.206 50.524,67.566 50.813,66.126 L51.933,66.126 C51.597,68.062 49.82,69.167 47.963,69.167 C44.458,69.167 42.985,66.35 42.985,63.148 C42.985,59.979 44.474,57.13 47.963,57.13 C49.852,57.13 51.645,57.994 51.805,60.075 L50.684,60.075" id="Fill-16" fill="#FFFFFE"></path>
            <path d="M56.122,68.286 C58.219,68.286 58.619,66.558 58.523,64.877 C57.163,64.925 54.314,64.669 54.314,66.685 C54.314,67.774 55.146,68.286 56.122,68.286 Z M58.523,63.261 C58.427,61.948 57.755,61.532 56.618,61.532 C55.61,61.532 54.778,61.836 54.649,62.925 L53.625,62.925 C53.865,61.275 55.098,60.651 56.634,60.651 C58.411,60.651 59.516,61.468 59.483,63.309 L59.483,67.118 C59.467,67.742 59.532,68.383 59.564,68.927 L58.571,68.927 L58.539,67.742 L58.507,67.742 L58.459,67.854 C58.107,68.526 57.035,69.167 55.946,69.167 C54.458,69.167 53.273,68.255 53.273,66.685 C53.273,65.598 53.929,64.765 54.89,64.365 C55.962,63.9 57.354,64.06 58.523,63.997 L58.523,63.261 L58.523,63.261 Z" id="Fill-17" fill="#FFFFFE"></path>
            <path d="M62.953,68.927 L61.993,68.927 L61.993,62.7 C62.009,62.076 61.945,61.435 61.913,60.892 L62.905,60.892 L62.953,62.076 L62.985,62.076 C63.273,61.26 63.994,60.684 64.794,60.651 C65.114,60.636 65.434,60.651 65.754,60.667 L65.754,61.596 C65.563,61.58 65.354,61.532 65.162,61.532 C63.738,61.532 62.985,62.557 62.953,64.093 L62.953,68.927" id="Fill-18" fill="#FFFFFE"></path>
            <path d="M70.506,61.532 C68.57,61.532 67.801,63.421 67.801,64.909 C67.801,66.397 68.57,68.286 70.506,68.286 C72.443,68.286 73.211,66.397 73.211,64.909 C73.211,63.421 72.443,61.532 70.506,61.532 Z M74.252,64.909 C74.252,67.022 73.067,69.167 70.506,69.167 C67.945,69.167 66.761,67.022 66.761,64.909 C66.761,62.796 67.945,60.651 70.506,60.651 C73.067,60.651 74.252,62.796 74.252,64.909 L74.252,64.909 Z" id="Fill-19" fill="#FFFFFE"></path>
            <polygon id="Fill-20" fill="#FFFFFE" points="76.265 68.927 77.225 68.927 77.225 57.37 76.265 57.37"></polygon>
            <path d="M79.833,68.927 L80.794,68.927 L80.794,60.892 L79.833,60.892 L79.833,68.927 Z M79.753,58.57 L80.874,58.57 L80.874,57.37 L79.753,57.37 L79.753,58.57 Z" id="Fill-21" fill="#FFFFFE"></path>
            <path d="M84.345,68.927 L83.385,68.927 L83.385,62.7 C83.385,62.076 83.336,61.435 83.305,60.892 L84.297,60.892 L84.345,62.076 L84.377,62.108 C84.937,61.115 85.85,60.651 86.89,60.651 C89.515,60.651 89.723,62.973 89.723,63.9 L89.723,68.927 L88.763,68.927 L88.763,63.74 C88.763,62.348 87.962,61.532 86.65,61.532 C85.065,61.532 84.345,62.86 84.345,64.301 L84.345,68.927" id="Fill-22" fill="#FFFFFE"></path>
            <path d="M94.441,68.286 C96.539,68.286 96.939,66.558 96.842,64.877 C95.482,64.925 92.633,64.669 92.633,66.685 C92.633,67.774 93.465,68.286 94.441,68.286 Z M96.842,63.261 C96.747,61.948 96.074,61.532 94.938,61.532 C93.929,61.532 93.097,61.836 92.969,62.925 L91.944,62.925 C92.185,61.275 93.417,60.651 94.954,60.651 C96.731,60.651 97.835,61.468 97.803,63.309 L97.803,67.118 C97.787,67.742 97.851,68.383 97.883,68.927 L96.891,68.927 L96.858,67.742 L96.827,67.742 L96.778,67.854 C96.426,68.526 95.354,69.167 94.266,69.167 C92.777,69.167 91.592,68.255 91.592,66.685 C91.592,65.598 92.249,64.765 93.209,64.365 C94.281,63.9 95.674,64.06 96.842,63.997 L96.842,63.261 L96.842,63.261 Z" id="Fill-23" fill="#FFFFFE"></path>
            <path d="M102.986,60.651 C104.506,60.651 105.787,61.18 105.916,62.876 L104.875,62.876 C104.779,61.868 103.882,61.532 102.89,61.532 C101.994,61.532 101.082,61.884 101.082,62.828 C101.082,64.013 102.634,63.9 104.81,64.669 C105.643,64.957 106.171,65.678 106.171,66.542 C106.171,68.35 104.49,69.167 102.794,69.167 C101.402,69.167 99.8,68.511 99.769,66.733 L100.809,66.733 C100.889,67.934 101.945,68.286 103.034,68.286 C104.058,68.286 105.13,67.807 105.13,66.685 C105.13,65.533 103.867,65.342 102.585,65.053 C101.322,64.749 100.041,64.381 100.041,62.892 C100.041,61.227 101.578,60.651 102.986,60.651" id="Fill-24" fill="#FFFFFE"></path>
            <polyline id="Fill-25" fill="#FFFFFE" points="113.097 68.927 113.097 57.37 114.138 57.37 114.138 62.444 120.445 62.444 120.445 57.37 121.485 57.37 121.485 68.927 120.445 68.927 120.445 63.404 114.138 63.404 114.138 68.927 113.097 68.927"></polyline>
            <path d="M130.091,64.253 C129.979,62.7 129.146,61.532 127.482,61.532 C125.914,61.532 125.082,62.845 124.953,64.253 L130.091,64.253 Z M124.921,65.133 C124.953,66.846 125.738,68.286 127.707,68.286 C128.842,68.286 129.787,67.47 130.027,66.365 L131.035,66.365 C130.539,68.286 129.338,69.167 127.402,69.167 C125.001,69.167 123.88,67.101 123.88,64.909 C123.88,62.732 125.082,60.651 127.466,60.651 C130.155,60.651 131.131,62.62 131.131,65.133 L124.921,65.133 L124.921,65.133 Z" id="Fill-26" fill="#FFFFFE"></path>
            <path d="M135.417,68.286 C137.515,68.286 137.915,66.558 137.818,64.877 C136.458,64.925 133.609,64.669 133.609,66.685 C133.609,67.774 134.441,68.286 135.417,68.286 Z M137.818,63.261 C137.722,61.948 137.05,61.532 135.914,61.532 C134.906,61.532 134.074,61.836 133.945,62.925 L132.92,62.925 C133.161,61.275 134.393,60.651 135.929,60.651 C137.707,60.651 138.811,61.468 138.779,63.309 L138.779,67.118 C138.763,67.742 138.828,68.383 138.859,68.927 L137.867,68.927 L137.834,67.742 L137.802,67.742 L137.754,67.854 C137.402,68.526 136.33,69.167 135.242,69.167 C133.753,69.167 132.568,68.255 132.568,66.685 C132.568,65.598 133.224,64.765 134.185,64.365 C135.257,63.9 136.65,64.06 137.818,63.997 L137.818,63.261 L137.818,63.261 Z" id="Fill-27" fill="#FFFFFE"></path>
            <polygon id="Fill-28" fill="#FFFFFE" points="141.304 68.927 142.265 68.927 142.265 57.37 141.304 57.37"></polygon>
            <path d="M145.544,61.771 L143.945,61.771 L143.945,60.892 L145.544,60.892 L145.544,59.179 L146.505,58.763 L146.505,60.892 L148.33,60.892 L148.33,61.771 L146.505,61.771 L146.505,67.15 C146.49,67.887 146.874,68.286 147.61,68.286 C147.898,68.286 148.186,68.27 148.443,68.19 L148.443,69.022 C148.138,69.102 147.786,69.167 147.466,69.167 C145.433,69.167 145.544,67.87 145.544,66.782 L145.544,61.771" id="Fill-29" fill="#FFFFFE"></path>
            <path d="M151.16,62.108 L151.193,62.108 C151.752,61.115 152.666,60.651 153.706,60.651 C156.331,60.651 156.539,62.973 156.539,63.9 L156.539,68.927 L155.578,68.927 L155.578,63.74 C155.578,62.348 154.778,61.532 153.465,61.532 C151.88,61.532 151.16,62.86 151.16,64.301 L151.16,68.927 L150.201,68.927 L150.201,57.37 L151.16,57.37 L151.16,62.108" id="Fill-30" fill="#FFFFFE"></path>
            <path d="M166.507,60.075 C166.315,58.667 165.099,58.091 163.787,58.091 C160.825,58.091 159.928,60.779 159.928,63.148 C159.928,65.517 160.825,68.206 163.787,68.206 C165.066,68.206 166.347,67.566 166.635,66.126 L167.755,66.126 C167.419,68.062 165.642,69.167 163.787,69.167 C160.281,69.167 158.808,66.35 158.808,63.148 C158.808,59.979 160.296,57.13 163.787,57.13 C165.675,57.13 167.467,57.994 167.627,60.075 L166.507,60.075" id="Fill-31" fill="#FFFFFE"></path>
            <path d="M171.945,68.286 C174.042,68.286 174.442,66.558 174.345,64.877 C172.986,64.925 170.136,64.669 170.136,66.685 C170.136,67.774 170.968,68.286 171.945,68.286 Z M174.345,63.261 C174.25,61.948 173.578,61.532 172.441,61.532 C171.433,61.532 170.601,61.836 170.472,62.925 L169.448,62.925 C169.688,61.275 170.92,60.651 172.457,60.651 C174.234,60.651 175.338,61.468 175.306,63.309 L175.306,67.118 C175.291,67.742 175.355,68.383 175.386,68.927 L174.394,68.927 L174.362,67.742 L174.33,67.742 L174.282,67.854 C173.929,68.526 172.857,69.167 171.769,69.167 C170.281,69.167 169.095,68.255 169.095,66.685 C169.095,65.598 169.751,64.765 170.712,64.365 C171.785,63.9 173.177,64.06 174.345,63.997 L174.345,63.261 L174.345,63.261 Z" id="Fill-32" fill="#FFFFFE"></path>
            <path d="M178.777,68.927 L177.816,68.927 L177.816,62.7 C177.832,62.076 177.768,61.435 177.736,60.892 L178.728,60.892 L178.777,62.076 L178.808,62.076 C179.097,61.26 179.817,60.684 180.617,60.651 C180.937,60.636 181.257,60.651 181.578,60.667 L181.578,61.596 C181.386,61.58 181.177,61.532 180.986,61.532 C179.561,61.532 178.808,62.557 178.777,64.093 L178.777,68.927" id="Fill-33" fill="#FFFFFE"></path>
            <path d="M188.89,64.253 C188.778,62.7 187.945,61.532 186.281,61.532 C184.712,61.532 183.88,62.845 183.751,64.253 L188.89,64.253 Z M183.72,65.133 C183.751,66.846 184.537,68.286 186.505,68.286 C187.641,68.286 188.585,67.47 188.826,66.365 L189.833,66.365 C189.337,68.286 188.137,69.167 186.201,69.167 C183.8,69.167 182.679,67.101 182.679,64.909 C182.679,62.732 183.88,60.651 186.265,60.651 C188.954,60.651 189.93,62.62 189.93,65.133 L183.72,65.133 L183.72,65.133 Z" id="Fill-34" fill="#FFFFFE"></path>
            <g id="Group-38" transform="translate(196.000000, 57.000000)">
                <mask id="mask-2" fill="white">
                    <use xlink:href="#path-1"></use>
                </mask>
                <g id="Clip-36"></g>
                <path d="M3.625,12.167 C1.784,12.167 0.232,10.822 0.183,8.918 L1.304,8.918 C1.335,10.694 2.648,11.206 4.201,11.206 C5.498,11.206 6.986,10.454 6.986,8.981 C6.986,7.829 6.154,7.285 5.177,6.965 C3.304,6.341 0.456,5.748 0.456,3.251 C0.456,1.234 2.312,0.13 4.136,0.13 C5.658,0.13 7.642,0.658 7.898,2.883 L6.778,2.883 C6.746,1.459 5.449,1.091 4.265,1.091 C3.064,1.091 1.576,1.698 1.576,3.107 C1.576,6.389 8.107,4.9 8.107,8.886 C8.107,11.398 5.946,12.167 3.625,12.167" id="Fill-35" fill="#FFFFFE" mask="url(#mask-2)"></path>
                <polyline id="Fill-37" fill="#FFFFFE" mask="url(#mask-2)" points="9.943 3.892 12.648 10.614 15.337 3.892 16.378 3.892 11.945 15 10.888 15 12.105 11.927 8.775 3.892 9.943 3.892"></polyline>
            </g>
            <path d="M216.296,60.651 C217.817,60.651 219.097,61.18 219.226,62.876 L218.185,62.876 C218.089,61.868 217.193,61.532 216.201,61.532 C215.304,61.532 214.392,61.884 214.392,62.828 C214.392,64.013 215.945,63.9 218.121,64.669 C218.954,64.957 219.482,65.678 219.482,66.542 C219.482,68.35 217.8,69.167 216.105,69.167 C214.712,69.167 213.111,68.511 213.08,66.733 L214.12,66.733 C214.2,67.934 215.255,68.286 216.344,68.286 C217.369,68.286 218.441,67.807 218.441,66.685 C218.441,65.533 217.177,65.342 215.896,65.053 C214.632,64.749 213.351,64.381 213.351,62.892 C213.351,61.227 214.888,60.651 216.296,60.651" id="Fill-39" fill="#FFFFFE"></path>
            <path d="M222.328,61.771 L220.727,61.771 L220.727,60.892 L222.328,60.892 L222.328,59.179 L223.289,58.763 L223.289,60.892 L225.113,60.892 L225.113,61.771 L223.289,61.771 L223.289,67.15 C223.272,67.887 223.656,68.286 224.392,68.286 C224.681,68.286 224.968,68.27 225.224,68.19 L225.224,69.022 C224.921,69.102 224.568,69.167 224.249,69.167 C222.216,69.167 222.328,67.87 222.328,66.782 L222.328,61.771" id="Fill-40" fill="#FFFFFE"></path>
            <path d="M232.713,64.253 C232.601,62.7 231.769,61.532 230.105,61.532 C228.536,61.532 227.704,62.845 227.576,64.253 L232.713,64.253 Z M227.543,65.133 C227.576,66.846 228.36,68.286 230.329,68.286 C231.464,68.286 232.41,67.47 232.65,66.365 L233.658,66.365 C233.162,68.286 231.96,69.167 230.025,69.167 C227.624,69.167 226.503,67.101 226.503,64.909 C226.503,62.732 227.704,60.651 230.088,60.651 C232.777,60.651 233.753,62.62 233.753,65.133 L227.543,65.133 L227.543,65.133 Z" id="Fill-41" fill="#FFFFFE"></path>
            <path d="M236.839,62.076 L236.872,62.108 C237.431,61.115 238.344,60.651 239.384,60.651 C240.65,60.651 241.642,61.355 241.994,62.412 C242.585,61.468 243.514,60.651 244.763,60.651 C247.388,60.651 247.596,62.973 247.596,63.9 L247.596,68.927 L246.636,68.927 L246.636,63.74 C246.636,62.348 245.835,61.532 244.523,61.532 C242.938,61.532 242.218,62.86 242.218,64.301 L242.218,68.927 L241.257,68.927 L241.257,63.74 C241.257,62.348 240.457,61.532 239.144,61.532 C237.56,61.532 236.839,62.86 236.839,64.301 L236.839,68.927 L235.879,68.927 L235.879,62.7 C235.879,62.076 235.832,61.435 235.799,60.892 L236.792,60.892 L236.839,62.076" id="Fill-42" fill="#FFFFFE"></path>
        </g>
    </g>
</svg>