<?xml version="1.0" encoding="UTF-8"?>
<svg width="414px" height="44px" viewBox="0 0 414 44" version="1.1" xmlns="http://www.w3.org/2000/svg" xmlns:xlink="http://www.w3.org/1999/xlink">
    <!-- Generator: Sketch 54.1 (76490) - https://sketchapp.com -->
    <title>Blue Cross NC / Products / Basic Blue Rx PDP / CK</title>
    <desc>Created with Sketch.</desc>
    <g id="Blue-Cross-NC-/-Products-/-Basic-Blue-Rx-PDP-/-CK" stroke="none" stroke-width="1" fill="none" fill-rule="evenodd">
        <g id="BasicBlueRxPDP-RGB-CK-EPS">
            <path d="M259.743,18.822 L259.743,5.168 L267.469,5.168 C271.121,5.168 278.001,4.637 278.001,11.993 C278.001,18.505 271.97,18.822 267.099,18.822 L259.743,18.822 Z M259.743,21.991 L269.217,21.991 C276.149,21.991 276.677,23.525 277.473,32.254 C277.683,34.95 277.894,37.647 278.794,40.189 L282.756,40.189 C281.221,37.861 281.435,35.002 280.749,28.815 C280.273,24.37 279.215,21.09 274.348,20.301 L274.348,20.194 C278.794,19.088 281.697,16.121 281.697,11.993 C281.697,8.341 280.432,5.588 277.791,4.006 C274.88,2.21 272.128,1.999 268.793,1.999 L256.312,1.999 L256.312,40.189 L259.743,40.189 L259.743,21.991 Z M298.999,24.322 L291.226,13.639 L286.995,13.639 L296.778,26.595 L286.623,40.082 L286.519,40.189 L290.116,40.189 L298.471,28.657 L306.986,40.189 L311.166,40.189 L300.8,26.492 L310.317,13.639 L306.986,13.639 L298.999,24.322 Z M327.83,44 C326.006,39.321 324.34,33.213 324.34,27.78 C324.34,22.664 325.728,16.914 327.83,11.561 L325.846,11.561 C323.824,16.716 321.568,22.189 321.568,27.78 C321.568,33.491 323.864,38.805 325.807,44 L327.83,44 Z M335.721,13.936 L341.987,13.936 C345.838,13.936 349.249,15.165 349.249,19.651 C349.249,24.132 345.838,25.361 341.987,25.361 L335.721,25.361 L335.721,13.936 Z M335.721,40.189 L335.721,27.737 L340.322,27.737 C345.838,27.856 352.02,26.472 352.02,19.651 C352.02,12.83 345.838,11.442 340.322,11.561 L333.147,11.561 L333.147,40.189 L335.721,40.189 Z M359.198,37.813 L359.198,13.936 L363.243,13.936 C371.373,13.698 376.334,17.426 376.334,25.877 C376.334,33.095 373.043,37.813 364.988,37.813 L359.198,37.813 Z M356.625,11.561 L356.625,40.189 L364.353,40.189 C373.757,40.189 379.106,35.355 379.106,25.877 C379.106,16.395 373.757,11.561 364.353,11.561 L356.625,11.561 Z M387.787,13.936 L394.056,13.936 C397.903,13.936 401.318,15.165 401.318,19.651 C401.318,24.132 397.903,25.361 394.056,25.361 L387.787,25.361 L387.787,13.936 Z M387.787,40.189 L387.787,27.737 L392.391,27.737 C397.903,27.856 404.086,26.472 404.086,19.651 C404.086,12.83 397.903,11.442 392.391,11.561 L385.217,11.561 L385.217,40.189 L387.787,40.189 Z M408.852,44 C410.792,38.805 413.088,33.491 413.088,27.78 C413.088,22.189 410.832,16.716 408.813,11.561 L406.83,11.561 C408.931,16.914 410.32,22.664 410.32,27.78 C410.32,33.213 408.654,39.321 406.83,44 L408.852,44 L408.852,44 Z" id="Fill-1" fill="#ACA3BC"></path>
            <path d="M136.299,21.99 L142.648,21.99 C149.846,21.99 155.084,22.997 155.084,29.505 C155.084,35.382 151.277,37.127 144.714,37.019 L136.299,37.019 L136.299,21.99 Z M136.299,18.821 L136.299,5.112 L144.448,5.112 C148.949,5.167 153.498,6.282 153.498,11.861 C153.498,17.068 149.053,18.821 144.607,18.821 L136.299,18.821 Z M147.414,40.188 C155.719,40.188 158.784,35.009 158.784,29.98 C158.784,24.532 155.298,21.145 150.111,20.3 L150.111,20.193 C154.132,19.245 157.194,15.795 157.194,11.544 C157.194,5.433 152.229,1.999 146.566,1.999 L132.868,1.947 L132.868,40.188 L147.414,40.188 Z M166.617,40.188 L169.785,40.188 L169.785,1.999 L166.617,1.999 L166.617,40.188 Z M195.554,28.926 C195.554,33.688 193.175,38.078 187.935,38.078 C183.594,38.078 180.948,35.382 180.948,30.778 L180.948,13.638 L177.78,13.638 L177.78,30.25 C177.78,33.316 178.466,40.981 187.139,40.981 C190.581,40.981 193.598,39.451 195.451,36.175 L195.554,36.282 L195.713,40.188 L198.988,40.188 C198.881,38.391 198.722,36.274 198.722,34.212 L198.722,13.638 L195.554,13.638 L195.554,28.926 Z M229.036,27.649 C229.036,19.348 225.816,12.845 216.925,12.845 C209.041,12.845 205.079,19.717 205.079,26.911 C205.079,34.16 208.775,40.981 216.715,40.981 C223.115,40.981 227.085,38.078 228.719,31.725 L225.391,31.725 C224.598,35.378 221.477,38.078 217.718,38.078 C211.211,38.078 208.617,33.316 208.51,27.649 L229.036,27.649 Z M208.617,24.746 C209.041,20.09 211.794,15.748 216.976,15.748 C222.481,15.748 225.233,19.61 225.605,24.746 L208.617,24.746 Z M237.678,12.67 C240.957,12.67 243.622,9.99 243.622,6.69 C243.622,3.422 240.957,0.742 237.678,0.742 C234.378,0.742 231.697,3.422 231.697,6.69 C231.697,9.99 234.378,12.67 237.678,12.67 L237.678,12.67 Z M237.678,11.719 C234.759,11.719 232.644,9.625 232.644,6.69 C232.644,3.787 234.759,1.693 237.678,1.693 C240.576,1.693 242.674,3.787 242.674,6.69 C242.674,9.625 240.576,11.719 237.678,11.719 L237.678,11.719 Z M236.309,7.039 L237.772,7.039 L239.692,10.069 L240.672,10.069 L238.645,7.039 C239.835,6.944 240.751,6.452 240.751,5.136 C240.751,3.914 240.152,3.248 238.375,3.248 L235.44,3.248 L235.44,10.069 L236.309,10.069 L236.309,7.039 Z M236.309,6.246 L236.309,4.041 L238.184,4.041 C239.01,4.041 239.803,4.168 239.803,5.12 C239.803,6.405 238.471,6.246 237.518,6.246 L236.309,6.246 L236.309,6.246 Z" id="Fill-3" fill="#39A1CE"></path>
            <path d="M3.43,21.99 L9.779,21.99 C16.977,21.99 22.216,22.997 22.216,29.505 C22.216,35.382 18.409,37.127 11.846,37.019 L3.43,37.019 L3.43,21.99 Z M3.43,18.821 L3.43,5.112 L11.58,5.112 C16.081,5.167 20.629,6.282 20.629,11.861 C20.629,17.068 16.184,18.821 11.739,18.821 L3.43,18.821 Z M14.546,40.188 C22.85,40.188 25.916,35.009 25.916,29.98 C25.916,24.532 22.43,21.145 17.243,20.3 L17.243,20.193 C21.264,19.245 24.326,15.795 24.326,11.544 C24.326,5.433 19.361,1.999 13.698,1.999 L0,1.947 L0,40.188 L14.546,40.188 Z M34.803,32.784 C34.803,26.118 44.221,26.963 48.723,26.804 C49.039,32.364 47.715,38.078 40.783,38.078 C37.555,38.078 34.803,36.385 34.803,32.784 L34.803,32.784 Z M48.723,23.901 C44.86,24.111 40.252,23.584 36.706,25.115 C33.534,26.435 31.369,29.187 31.369,32.784 C31.369,37.972 35.279,40.981 40.2,40.981 C43.801,40.981 47.346,38.872 48.508,36.651 L48.667,36.278 L48.774,36.278 L48.881,40.188 L52.153,40.188 C52.05,38.388 51.835,36.274 51.891,34.212 L51.891,21.625 C51.994,15.537 48.349,12.845 42.476,12.845 C37.396,12.845 33.324,14.903 32.531,20.352 L35.913,20.352 C36.338,16.755 39.09,15.748 42.425,15.748 C46.181,15.748 48.405,17.124 48.723,21.466 L48.723,23.901 Z M58.72,20.245 C58.72,25.166 62.947,26.384 67.127,27.391 C71.362,28.343 75.542,28.977 75.542,32.788 C75.542,36.492 71.997,38.078 68.61,38.078 C65.009,38.078 61.519,36.916 61.254,32.947 L57.82,32.947 C57.927,38.816 63.213,40.981 67.817,40.981 C73.425,40.981 78.976,38.288 78.976,32.312 C78.976,29.453 77.232,27.074 74.483,26.118 C67.285,23.58 62.154,23.949 62.154,20.035 C62.154,16.91 65.168,15.748 68.134,15.748 C71.414,15.748 74.38,16.858 74.698,20.193 L78.128,20.193 C77.707,14.586 73.48,12.845 68.452,12.845 C63.792,12.845 58.72,14.744 58.72,20.245 L58.72,20.245 Z M85.595,40.188 L88.763,40.188 L88.763,13.638 L85.595,13.638 L85.595,40.188 Z M85.329,5.96 L89.025,5.96 L89.025,1.999 L85.329,1.999 L85.329,5.96 Z M116.96,21.78 C116.694,16.117 112.256,12.845 106.804,12.845 C98.92,12.845 94.958,19.717 94.958,26.911 C94.958,34.164 98.654,40.981 106.594,40.981 C112.629,40.981 116.115,37.972 116.96,31.888 L113.525,31.888 C113.263,35.54 110.405,38.078 106.276,38.078 C101.406,38.078 98.389,32.947 98.389,26.86 C98.389,20.827 101.406,15.748 106.276,15.748 C110.67,15.748 113.263,17.707 113.525,21.78 L116.96,21.78 L116.96,21.78 Z" id="Fill-4" fill="#ACA3BC"></path>
        </g>
    </g>
</svg>