<?xml version="1.0" encoding="UTF-8"?>
<svg width="294px" height="44px" viewBox="0 0 294 44" version="1.1" xmlns="http://www.w3.org/2000/svg" xmlns:xlink="http://www.w3.org/1999/xlink">
    <!-- Generator: Sketch 54.1 (76490) - https://sketchapp.com -->
    <title>Blue Cross NC / Products / Classic Blue / K</title>
    <desc>Created with Sketch.</desc>
    <g id="Blue-Cross-NC-/-Products-/-Classic-Blue-/-K" stroke="none" stroke-width="1" fill="none" fill-rule="evenodd">
        <g id="Classic-Blue-RGB-K-EPS" fill="#1C1B19">
            <path d="M28.081,10.839 C27.381,5.701 22.944,3.599 18.157,3.599 C7.356,3.599 4.086,13.407 4.086,22.048 C4.086,30.688 7.356,40.497 18.157,40.497 C22.827,40.497 27.498,38.162 28.549,32.907 L32.636,32.907 C31.41,39.972 24.929,44 18.157,44 C5.371,44 0,33.725 0,22.048 C0,10.488 5.429,0.096 18.157,0.096 C25.046,0.096 31.585,3.249 32.169,10.839 L28.081,10.839" id="Fill-1"></path>
            <polygon id="Fill-3" points="39.109 43.124 42.612 43.124 42.612 0.972 39.109 0.972"></polygon>
            <path d="M57.841,40.789 C65.489,40.789 66.949,34.483 66.598,28.353 C61.636,28.528 51.244,27.594 51.244,34.951 C51.244,38.92 54.28,40.789 57.841,40.789 Z M66.598,22.456 C66.248,17.669 63.796,16.152 59.651,16.152 C55.973,16.152 52.936,17.26 52.47,21.231 L48.734,21.231 C49.609,15.218 54.104,12.941 59.709,12.941 C66.19,12.941 70.218,15.918 70.101,22.632 L70.101,36.527 C70.043,38.804 70.276,41.139 70.393,43.124 L66.774,43.124 L66.657,38.804 L66.539,38.804 L66.365,39.213 C65.08,41.665 61.168,44 57.199,44 C51.769,44 47.449,40.673 47.449,34.951 C47.449,30.981 49.842,27.945 53.346,26.485 C57.257,24.792 62.337,25.376 66.598,25.143 L66.598,22.456 L66.598,22.456 Z" id="Fill-4"></path>
            <path d="M85.968,12.941 C91.515,12.941 96.186,14.867 96.653,21.055 L92.858,21.055 C92.507,17.378 89.238,16.152 85.618,16.152 C82.348,16.152 79.021,17.436 79.021,20.88 C79.021,25.201 84.684,24.792 92.624,27.594 C95.66,28.646 97.587,31.272 97.587,34.425 C97.587,41.022 91.456,44 85.268,44 C80.189,44 74.35,41.606 74.234,35.125 L78.029,35.125 C78.32,39.504 82.173,40.789 86.144,40.789 C89.88,40.789 93.792,39.038 93.792,34.951 C93.792,30.747 89.18,30.047 84.508,28.996 C79.896,27.887 75.226,26.544 75.226,21.115 C75.226,15.042 80.83,12.941 85.968,12.941" id="Fill-5"></path>
            <path d="M112.169,12.941 C117.716,12.941 122.387,14.867 122.853,21.055 L119.059,21.055 C118.708,17.378 115.438,16.152 111.819,16.152 C108.549,16.152 105.222,17.436 105.222,20.88 C105.222,25.201 110.885,24.792 118.824,27.594 C121.86,28.646 123.787,31.272 123.787,34.425 C123.787,41.022 117.657,44 111.468,44 C106.39,44 100.551,41.606 100.434,35.125 L104.229,35.125 C104.52,39.504 108.374,40.789 112.345,40.789 C116.081,40.789 119.993,39.038 119.993,34.951 C119.993,30.747 115.381,30.047 110.709,28.996 C106.098,27.887 101.427,26.544 101.427,21.115 C101.427,15.042 107.031,12.941 112.169,12.941" id="Fill-6"></path>
            <path d="M128.678,43.124 L132.182,43.124 L132.182,13.816 L128.678,13.816 L128.678,43.124 Z M128.387,5.35 L132.473,5.35 L132.473,0.972 L128.387,0.972 L128.387,5.35 Z" id="Fill-7"></path>
            <path d="M157.099,22.807 C156.807,18.312 153.946,16.152 149.1,16.152 C143.728,16.152 140.401,21.756 140.401,28.412 C140.401,35.125 143.728,40.789 149.1,40.789 C153.653,40.789 156.807,37.987 157.099,33.958 L160.893,33.958 C159.959,40.673 156.106,44 149.45,44 C140.692,44 136.606,36.469 136.606,28.47 C136.606,20.53 140.984,12.941 149.684,12.941 C155.697,12.941 160.601,16.56 160.893,22.807 L157.099,22.807" id="Fill-8"></path>
            <path d="M290.401,18.577 C291.688,18.577 292.714,17.564 292.714,16.228 C292.714,14.913 291.688,13.908 290.401,13.908 C289.117,13.908 288.091,14.913 288.091,16.256 C288.091,17.564 289.117,18.577 290.401,18.577 Z M290.401,13.511 C291.9,13.511 293.155,14.685 293.155,16.228 C293.155,17.797 291.9,18.973 290.401,18.973 C288.905,18.973 287.651,17.797 287.651,16.256 C287.651,14.685 288.905,13.511 290.401,13.511 Z M289.823,16.088 L290.365,16.088 C290.808,16.088 291.217,16.065 291.217,15.565 C291.217,15.125 290.844,15.076 290.505,15.076 L289.823,15.076 L289.823,16.088 Z M289.384,14.677 L290.541,14.677 C291.298,14.677 291.657,14.957 291.657,15.588 C291.657,16.153 291.29,16.396 290.821,16.448 L291.731,17.841 L291.253,17.841 L290.388,16.484 L289.823,16.484 L289.823,17.841 L289.384,17.841 L289.384,14.677 L289.384,14.677 Z" id="Fill-9"></path>
            <path d="M180.249,41.366 L183.612,41.366 C190.223,41.366 193.645,38.71 193.645,30.685 C193.645,23.898 191.403,21.006 184.616,21.006 L180.249,21.006 L180.249,41.366 Z M180.249,19.235 L184.026,19.235 C189.278,19.235 191.344,16.933 191.344,11.032 C191.344,5.19 189.632,2.71 183.672,2.71 L180.249,2.71 L180.249,19.235 Z M165.377,41.366 L171.043,41.366 L171.043,2.71 L165.377,2.71 L165.377,0.94 L187.684,0.94 C195.062,0.94 200.904,2.475 200.904,9.616 C200.904,16.284 195.593,19.294 189.573,19.707 L189.573,19.825 C196.715,20.002 203.559,23.543 203.559,31.57 C203.559,38.179 199.016,43.136 188.925,43.136 L165.377,43.136 L165.377,41.366 L165.377,41.366 Z" id="Fill-10"></path>
            <path d="M204.436,41.366 L208.684,41.366 L208.684,2.71 L204.436,2.71 L204.436,0.94 L208.096,0.94 C211.105,0.94 214.174,0.823 217.184,0.587 L217.184,41.366 L221.433,41.366 L221.433,43.136 L204.436,43.136 L204.436,41.366" id="Fill-11"></path>
            <path d="M253.096,41.366 L257.344,41.366 L257.344,43.136 C251.561,43.195 248.138,43.254 244.597,43.49 L244.597,39.006 L244.478,39.006 C242.473,42.251 238.755,43.844 235.096,43.844 C229.135,43.844 224.944,41.72 224.944,34.107 L224.944,15.989 L220.696,15.989 L220.696,14.219 L224.355,14.219 C227.365,14.219 230.434,14.102 233.443,13.865 L233.443,35.877 C233.443,40.421 235.627,41.012 238.047,41.012 C241.823,41.012 244.597,37.884 244.597,31.57 L244.597,15.989 L240.349,15.989 L240.349,14.219 L244.007,14.219 C247.017,14.219 250.086,14.102 253.096,13.865 L253.096,41.366" id="Fill-12"></path>
            <path d="M278.445,25.432 L278.445,22.717 C278.445,19.353 277.619,15.281 273.605,15.281 C268.117,15.281 267.999,21.655 267.822,25.432 L278.445,25.432 Z M267.822,27.202 L267.822,29.74 C267.822,34.992 268.767,41.366 275.494,41.366 C280.451,41.366 283.579,38.533 285.526,34.284 L287.12,34.992 C284.759,40.894 280.038,43.844 273.96,43.844 C264.812,43.844 258.616,37.943 258.616,28.678 C258.616,19.943 264.931,13.511 273.96,13.511 C281.632,13.511 287.651,18.468 287.651,27.202 L267.822,27.202 L267.822,27.202 Z" id="Fill-13"></path>
        </g>
    </g>
</svg>