<?xml version="1.0" encoding="UTF-8"?>
<svg width="420px" height="83px" viewBox="0 0 420 83" version="1.1" xmlns="http://www.w3.org/2000/svg" xmlns:xlink="http://www.w3.org/1999/xlink">
    <!-- Generator: Sketch 54.1 (76490) - https://sketchapp.com -->
    <title>Blue Cross NC / Products / Dental Blue for Seniors Spanish / CK</title>
    <desc>Created with Sketch.</desc>
    <defs>
        <polygon id="path-1" points="0 0.117 278.133 0.117 278.133 68.94 0 68.94"></polygon>
        <polygon id="path-3" points="0.24 0.148 34.736 0.148 34.736 19.94 0.24 19.94"></polygon>
        <polygon id="path-5" points="0.095 0.148 25.771 0.148 25.771 19.94 0.095 19.94"></polygon>
    </defs>
    <g id="Blue-Cross-NC-/-Products-/-Dental-Blue-for-Seniors-Spanish-/-CK" stroke="none" stroke-width="1" fill="none" fill-rule="evenodd">
        <g id="DentalBlue-Seniors-Spanish-CMYK-CK-EPS">
            <path d="M12.654,39.943 C24.523,39.943 29.375,32.986 29.375,22.346 C29.375,9.894 22.067,4.398 10.083,4.75 L4.119,4.75 L4.119,39.943 L12.654,39.943 Z M11.719,1.241 C25.575,1.241 33.467,8.373 33.467,22.346 C33.467,36.318 25.575,43.45 11.719,43.45 L0.319,43.45 L0.319,1.241 L11.719,1.241 L11.719,1.241 Z" id="Fill-1" fill="#1A1919"></path>
            <path d="M59.769,26.38 C59.36,20.709 56.32,16.441 50.239,16.441 C44.51,16.441 41.471,21.235 41.002,26.38 L59.769,26.38 Z M40.885,29.595 C41.002,35.851 43.868,41.112 51.058,41.112 C55.209,41.112 58.658,38.13 59.535,34.097 L63.218,34.097 C61.406,41.112 57.021,44.327 49.947,44.327 C41.179,44.327 37.086,36.786 37.086,28.776 C37.086,20.825 41.471,13.227 50.181,13.227 C60.002,13.227 63.569,20.416 63.569,29.595 L40.885,29.595 L40.885,29.595 Z" id="Fill-2" fill="#1A1919"></path>
            <path d="M70.805,43.45 L67.297,43.45 L67.297,20.709 C67.297,18.43 67.122,16.09 67.005,14.104 L70.629,14.104 L70.805,18.43 L70.921,18.545 C72.967,14.922 76.3,13.227 80.1,13.227 C89.688,13.227 90.448,21.702 90.448,25.094 L90.448,43.45 L86.94,43.45 L86.94,24.509 C86.94,19.423 84.017,16.441 79.223,16.441 C73.436,16.441 70.805,21.293 70.805,26.556 L70.805,43.45" id="Fill-3" fill="#1A1919"></path>
            <path d="M99.271,17.317 L93.424,17.317 L93.424,14.104 L99.271,14.104 L99.271,7.848 L102.778,6.327 L102.778,14.104 L109.443,14.104 L109.443,17.317 L102.778,17.317 L102.778,36.962 C102.72,39.651 104.123,41.112 106.812,41.112 C107.864,41.112 108.917,41.054 109.852,40.762 L109.852,43.802 C108.741,44.094 107.455,44.327 106.285,44.327 C98.861,44.327 99.271,39.592 99.271,35.616 L99.271,17.317" id="Fill-4" fill="#1A1919"></path>
            <path d="M122.012,41.112 C129.67,41.112 131.132,34.798 130.78,28.66 C125.812,28.836 115.405,27.899 115.405,35.267 C115.405,39.242 118.445,41.112 122.012,41.112 Z M130.78,22.755 C130.43,17.961 127.974,16.441 123.824,16.441 C120.141,16.441 117.101,17.552 116.633,21.527 L112.891,21.527 C113.769,15.506 118.271,13.227 123.883,13.227 C130.371,13.227 134.405,16.207 134.289,22.93 L134.289,36.844 C134.23,39.124 134.464,41.463 134.581,43.45 L130.957,43.45 L130.839,39.124 L130.723,39.124 L130.547,39.533 C129.261,41.989 125.344,44.327 121.369,44.327 C115.931,44.327 111.605,40.994 111.605,35.267 C111.605,31.291 114.002,28.25 117.51,26.79 C121.427,25.094 126.513,25.678 130.78,25.444 L130.78,22.755 L130.78,22.755 Z" id="Fill-5" fill="#1A1919"></path>
            <polygon id="Fill-6" fill="#1A1919" points="141.422 43.45 144.93 43.45 144.93 1.241 141.422 1.241"></polygon>
            <path d="M166.58,21.084 L166.58,37.121 L166.699,41.884 L171.281,41.884 C173.393,41.884 175.623,41.644 177.553,39.714 C180.084,37.181 180.025,32.841 180.025,31.333 C180.025,26.69 178.998,24.219 177.131,22.772 C175.744,21.685 173.332,21.084 169.654,21.084 L166.58,21.084 Z M166.699,2.877 L166.639,7.037 L166.58,19.335 L170.559,19.335 C173.211,19.335 175.32,18.491 176.166,17.406 C177.189,16.201 177.732,14.21 177.732,11.076 C177.732,4.264 175.623,2.877 170.98,2.877 L166.699,2.877 Z M151.266,1.066 L175.141,1.066 C177.553,1.066 180.205,1.187 182.676,2.334 C187.258,4.504 187.379,9.086 187.379,10.053 C187.379,12.461 186.535,14.693 184.787,16.441 C181.953,19.396 178.215,19.818 175.502,20.12 C178.457,20.24 183.158,20.481 186.896,24.219 C188.344,25.667 190.094,28.077 190.094,31.995 C190.094,34.771 189.188,37.665 186.896,39.954 C183.461,43.392 179.119,43.632 175.381,43.632 L151.266,43.632 L151.266,42.063 L157.114,42.063 L157.234,36.097 L157.234,7.64 L157.114,2.635 L151.266,2.635 L151.266,1.066 L151.266,1.066 Z" id="Fill-7" fill="#00A3DA"></path>
            <path d="M197.617,1.066 C200.449,1.066 201.295,1.009 203.947,0.828 L203.826,7.519 L203.826,37.242 L203.947,42.063 L208.107,42.063 L208.107,43.632 L190.502,43.632 L190.502,42.063 L195.025,42.063 L195.145,37.242 L195.145,7.519 L195.025,2.635 L190.502,2.635 L190.502,1.066 L197.617,1.066" id="Fill-8" fill="#00A3DA"></path>
            <path d="M212.977,14.453 C216.111,14.453 217.076,14.391 220.031,14.21 L219.91,19.818 L219.91,33.323 C219.91,35.612 220.031,37.362 220.514,38.569 C221.297,40.436 222.924,41.282 224.914,41.282 C226.662,41.282 228.17,40.617 229.316,39.532 C231.666,37.181 231.605,34.046 231.605,31.394 L231.605,20.662 L231.486,16.021 L227.023,16.021 L227.023,14.453 L232.209,14.453 C235.705,14.453 236.73,14.391 240.227,14.21 L240.105,19.818 L240.105,36.518 L240.227,42.005 L244.568,42.005 L244.568,43.632 L239.986,43.632 C236.127,43.632 234.74,43.693 231.848,43.874 L231.666,39.231 C230.4,40.8 227.445,44.296 220.633,44.296 C216.174,44.296 213.34,42.608 212.193,40.315 C211.289,38.628 211.35,36.457 211.35,34.651 L211.35,20.42 L211.229,16.021 L206.828,16.021 L206.828,14.453 L212.977,14.453" id="Fill-9" fill="#00A3DA"></path>
            <path d="M264.525,25.544 C264.586,20.844 264.646,15.297 259.219,15.297 C254.096,15.297 253.854,20.42 253.674,25.544 L264.525,25.544 Z M273.328,35.19 C271.76,38.147 268.504,44.296 259.402,44.296 C250.055,44.296 244.328,37.121 244.328,28.74 C244.328,20.722 249.756,13.607 259.461,13.607 C265.49,13.607 268.807,16.201 270.254,17.708 C273.57,21.145 273.689,24.761 273.75,27.354 L253.613,27.354 C253.674,32.478 253.793,37.121 256.326,39.774 C257.713,41.22 259.701,41.823 261.691,41.823 C268.203,41.823 270.674,36.338 271.518,34.408 L273.328,35.19 L273.328,35.19 Z" id="Fill-10" fill="#00A3DA"></path>
            <g id="Group-14" transform="translate(0.000000, 14.000000)">
                <mask id="mask-2" fill="white">
                    <use xlink:href="#path-1"></use>
                </mask>
                <g id="Clip-12"></g>
                <path d="M275.971,4.096 C276.977,4.096 277.785,3.301 277.785,2.252 C277.785,1.217 276.977,0.428 275.971,0.428 C274.959,0.428 274.154,1.217 274.154,2.271 C274.154,3.301 274.959,4.096 275.971,4.096 Z M275.971,0.117 C277.146,0.117 278.133,1.038 278.133,2.252 C278.133,3.484 277.146,4.406 275.971,4.406 C274.793,4.406 273.805,3.484 273.805,2.271 C273.805,1.038 274.793,0.117 275.971,0.117 Z M275.518,2.139 L275.934,2.139 C276.281,2.139 276.609,2.124 276.609,1.73 C276.609,1.385 276.318,1.346 276.051,1.346 L275.518,1.346 L275.518,2.139 Z M275.166,1.034 L276.076,1.034 C276.67,1.034 276.957,1.252 276.957,1.75 C276.957,2.19 276.666,2.383 276.297,2.424 L277.012,3.52 L276.639,3.52 L275.957,2.453 L275.518,2.453 L275.518,3.52 L275.166,3.52 L275.166,1.034 L275.166,1.034 Z" id="Fill-11" fill="#00A3DA" mask="url(#mask-2)"></path>
                <path d="M6.608,62.504 C9.828,62.504 10.64,58.948 10.64,56.344 C10.64,53.656 9.548,50.688 6.356,50.688 C3.08,50.688 1.82,53.404 1.82,56.26 C1.82,59.452 2.94,62.504 6.608,62.504 Z M1.82,69 L0.14,69 L0.14,52.732 C0.168,51.64 0.056,50.521 0,49.568 L1.736,49.568 L1.82,51.64 L1.876,51.696 C2.856,50.044 4.816,49.148 6.692,49.148 C10.864,49.148 12.46,52.9 12.46,56.54 C12.46,60.068 10.864,64.044 6.776,64.044 C4.732,64.044 3.024,63.12 1.876,61.44 L1.82,61.44 L1.82,69 L1.82,69 Z" id="Fill-13" fill="#1A1919" mask="url(#mask-2)"></path>
            </g>
            <path d="M19.74,76.504 C23.408,76.504 24.108,73.48 23.94,70.54 C21.56,70.624 16.576,70.176 16.576,73.704 C16.576,75.608 18.032,76.504 19.74,76.504 Z M23.94,67.712 C23.772,65.416 22.596,64.688 20.608,64.688 C18.844,64.688 17.388,65.22 17.164,67.124 L15.372,67.124 C15.792,64.24 17.948,63.148 20.636,63.148 C23.744,63.148 25.676,64.576 25.62,67.796 L25.62,74.46 C25.592,75.552 25.704,76.672 25.76,77.624 L24.024,77.624 L23.968,75.552 L23.912,75.552 L23.828,75.748 C23.212,76.924 21.336,78.044 19.432,78.044 C16.828,78.044 14.756,76.448 14.756,73.704 C14.756,71.8 15.904,70.344 17.584,69.644 C19.46,68.832 21.896,69.112 23.94,69 L23.94,67.712 L23.94,67.712 Z" id="Fill-15" fill="#1A1919"></path>
            <path d="M31.108,77.624 L29.428,77.624 L29.428,66.732 C29.456,65.64 29.344,64.521 29.288,63.568 L31.024,63.568 L31.108,65.64 L31.164,65.64 C31.668,64.212 32.928,63.204 34.328,63.148 C34.888,63.12 35.448,63.148 36.008,63.176 L36.008,64.8 C35.672,64.772 35.308,64.688 34.972,64.688 C32.48,64.688 31.164,66.48 31.108,69.168 L31.108,77.624" id="Fill-16" fill="#1A1919"></path>
            <g id="Group-20" transform="translate(37.000000, 63.000000)">
                <mask id="mask-4" fill="white">
                    <use xlink:href="#path-3"></use>
                </mask>
                <g id="Clip-18"></g>
                <path d="M5.224,13.504 C8.892,13.504 9.592,10.48 9.424,7.54 C7.044,7.624 2.06,7.176 2.06,10.704 C2.06,12.608 3.516,13.504 5.224,13.504 Z M9.424,4.712 C9.256,2.416 8.08,1.688 6.092,1.688 C4.328,1.688 2.872,2.22 2.648,4.124 L0.856,4.124 C1.276,1.24 3.432,0.148 6.12,0.148 C9.228,0.148 11.16,1.576 11.104,4.796 L11.104,11.46 C11.076,12.552 11.188,13.672 11.244,14.624 L9.508,14.624 L9.452,12.552 L9.396,12.552 L9.312,12.748 C8.696,13.924 6.82,15.044 4.916,15.044 C2.312,15.044 0.24,13.448 0.24,10.704 C0.24,8.8 1.388,7.344 3.068,6.644 C4.944,5.832 7.38,6.112 9.424,6 L9.424,4.712 L9.424,4.712 Z" id="Fill-17" fill="#1A1919" mask="url(#mask-4)"></path>
                <path d="M28.884,13.504 C32.104,13.504 32.916,9.948 32.916,7.344 C32.916,4.656 31.824,1.688 28.632,1.688 C25.356,1.688 24.096,4.404 24.096,7.26 C24.096,10.452 25.216,13.504 28.884,13.504 Z M24.096,20 L22.416,20 L22.416,3.732 C22.444,2.64 22.332,1.521 22.276,0.568 L24.012,0.568 L24.096,2.64 L24.152,2.696 C25.132,1.044 27.092,0.148 28.968,0.148 C33.14,0.148 34.736,3.9 34.736,7.54 C34.736,11.068 33.14,15.044 29.052,15.044 C27.008,15.044 25.3,14.12 24.152,12.44 L24.096,12.44 L24.096,20 L24.096,20 Z" id="Fill-19" fill="#1A1919" mask="url(#mask-4)"></path>
            </g>
            <path d="M85.008,69.448 C84.812,66.732 83.356,64.688 80.444,64.688 C77.7,64.688 76.244,66.984 76.02,69.448 L85.008,69.448 Z M75.964,70.988 C76.02,73.984 77.392,76.504 80.835,76.504 C82.824,76.504 84.476,75.076 84.896,73.143 L86.66,73.143 C85.792,76.504 83.691,78.044 80.304,78.044 C76.104,78.044 74.144,74.432 74.144,70.596 C74.144,66.788 76.244,63.148 80.416,63.148 C85.12,63.148 86.828,66.592 86.828,70.988 L75.964,70.988 L75.964,70.988 Z" id="Fill-21" fill="#1A1919"></path>
            <path d="M91.671,77.624 L89.991,77.624 L89.991,66.732 C90.02,65.64 89.907,64.521 89.852,63.568 L91.587,63.568 L91.671,65.64 L91.728,65.64 C92.231,64.212 93.491,63.204 94.892,63.148 C95.452,63.12 96.011,63.148 96.571,63.176 L96.571,64.8 C96.235,64.772 95.872,64.688 95.536,64.688 C93.044,64.688 91.728,66.48 91.671,69.168 L91.671,77.624" id="Fill-22" fill="#1A1919"></path>
            <path d="M103.711,63.148 C106.372,63.148 108.611,64.072 108.835,67.04 L107.015,67.04 C106.847,65.276 105.279,64.688 103.543,64.688 C101.976,64.688 100.379,65.304 100.379,66.956 C100.379,69.028 103.095,68.832 106.903,70.176 C108.359,70.68 109.283,71.94 109.283,73.452 C109.283,76.616 106.343,78.044 103.375,78.044 C100.939,78.044 98.14,76.896 98.084,73.788 L99.903,73.788 C100.043,75.888 101.892,76.504 103.795,76.504 C105.587,76.504 107.463,75.664 107.463,73.704 C107.463,71.688 105.251,71.352 103.011,70.848 C100.799,70.316 98.56,69.672 98.56,67.068 C98.56,64.156 101.248,63.148 103.711,63.148" id="Fill-23" fill="#1A1919"></path>
            <path d="M118.02,64.688 C114.631,64.688 113.287,67.992 113.287,70.596 C113.287,73.2 114.631,76.504 118.02,76.504 C121.407,76.504 122.751,73.2 122.751,70.596 C122.751,67.992 121.407,64.688 118.02,64.688 Z M124.571,70.596 C124.571,74.292 122.5,78.044 118.02,78.044 C113.54,78.044 111.467,74.292 111.467,70.596 C111.467,66.9 113.54,63.148 118.02,63.148 C122.5,63.148 124.571,66.9 124.571,70.596 L124.571,70.596 Z" id="Fill-24" fill="#1A1919"></path>
            <path d="M129.163,77.624 L127.483,77.624 L127.483,66.732 C127.483,65.64 127.399,64.521 127.343,63.568 L129.079,63.568 L129.163,65.64 L129.219,65.696 C130.199,63.96 131.795,63.148 133.615,63.148 C138.207,63.148 138.571,67.208 138.571,68.832 L138.571,77.624 L136.891,77.624 L136.891,68.552 C136.891,66.116 135.491,64.688 133.195,64.688 C130.423,64.688 129.163,67.012 129.163,69.532 L129.163,77.624" id="Fill-25" fill="#1A1919"></path>
            <path d="M146.523,76.504 C150.191,76.504 150.891,73.48 150.723,70.54 C148.343,70.624 143.359,70.176 143.359,73.704 C143.359,75.608 144.815,76.504 146.523,76.504 Z M150.723,67.712 C150.555,65.416 149.379,64.688 147.391,64.688 C145.627,64.688 144.171,65.22 143.947,67.124 L142.155,67.124 C142.575,64.24 144.731,63.148 147.419,63.148 C150.527,63.148 152.459,64.576 152.403,67.796 L152.403,74.46 C152.375,75.552 152.487,76.672 152.543,77.624 L150.807,77.624 L150.751,75.552 L150.695,75.552 L150.611,75.748 C149.995,76.924 148.119,78.044 146.215,78.044 C143.611,78.044 141.539,76.448 141.539,73.704 C141.539,71.8 142.687,70.344 144.367,69.644 C146.243,68.832 148.679,69.112 150.723,69 L150.723,67.712 L150.723,67.712 Z" id="Fill-26" fill="#1A1919"></path>
            <path d="M161.167,63.148 C163.827,63.148 166.067,64.072 166.291,67.04 L164.471,67.04 C164.303,65.276 162.735,64.688 160.999,64.688 C159.431,64.688 157.835,65.304 157.835,66.956 C157.835,69.028 160.551,68.832 164.359,70.176 C165.815,70.68 166.739,71.94 166.739,73.452 C166.739,76.616 163.799,78.044 160.831,78.044 C158.395,78.044 155.595,76.896 155.539,73.788 L157.359,73.788 C157.499,75.888 159.347,76.504 161.251,76.504 C163.043,76.504 164.919,75.664 164.919,73.704 C164.919,71.688 162.707,71.352 160.467,70.848 C158.255,70.316 156.015,69.672 156.015,67.068 C156.015,64.156 158.703,63.148 161.167,63.148" id="Fill-27" fill="#1A1919"></path>
            <path d="M179.368,65.64 L179.423,65.696 C180.403,63.96 182,63.148 183.819,63.148 C186.032,63.148 187.768,64.38 188.383,66.228 C189.419,64.576 191.043,63.148 193.228,63.148 C197.819,63.148 198.184,67.208 198.184,68.832 L198.184,77.624 L196.503,77.624 L196.503,68.552 C196.503,66.116 195.104,64.688 192.808,64.688 C190.036,64.688 188.775,67.012 188.775,69.532 L188.775,77.624 L187.096,77.624 L187.096,68.552 C187.096,66.116 185.695,64.688 183.399,64.688 C180.627,64.688 179.368,67.012 179.368,69.532 L179.368,77.624 L177.688,77.624 L177.688,66.732 C177.688,65.64 177.604,64.521 177.547,63.568 L179.284,63.568 L179.368,65.64" id="Fill-28" fill="#1A1919"></path>
            <g id="Group-32" transform="translate(201.000000, 63.000000)">
                <mask id="mask-6" fill="white">
                    <use xlink:href="#path-5"></use>
                </mask>
                <g id="Clip-30"></g>
                <path d="M5.079,13.504 C8.747,13.504 9.447,10.48 9.279,7.54 C6.899,7.624 1.915,7.176 1.915,10.704 C1.915,12.608 3.371,13.504 5.079,13.504 Z M9.279,4.712 C9.111,2.416 7.935,1.688 5.947,1.688 C4.183,1.688 2.727,2.22 2.503,4.124 L0.711,4.124 C1.131,1.24 3.287,0.148 5.975,0.148 C9.083,0.148 11.015,1.576 10.959,4.796 L10.959,11.46 C10.931,12.552 11.043,13.672 11.099,14.624 L9.363,14.624 L9.307,12.552 L9.251,12.552 L9.167,12.748 C8.551,13.924 6.675,15.044 4.771,15.044 C2.167,15.044 0.095,13.448 0.095,10.704 C0.095,8.8 1.243,7.344 2.923,6.644 C4.799,5.832 7.235,6.112 9.279,6 L9.279,4.712 L9.279,4.712 Z" id="Fill-29" fill="#1A1919" mask="url(#mask-6)"></path>
                <polyline id="Fill-31" fill="#1A1919" mask="url(#mask-6)" points="14.516 0.568 19.248 12.328 23.952 0.568 25.771 0.568 18.016 20 16.167 20 18.295 14.624 12.472 0.568 14.516 0.568"></polyline>
            </g>
            <path d="M234.192,64.688 C230.804,64.688 229.459,67.992 229.459,70.596 C229.459,73.2 230.804,76.504 234.192,76.504 C237.58,76.504 238.924,73.2 238.924,70.596 C238.924,67.992 237.58,64.688 234.192,64.688 Z M240.744,70.596 C240.744,74.292 238.672,78.044 234.192,78.044 C229.712,78.044 227.64,74.292 227.64,70.596 C227.64,66.9 229.712,63.148 234.192,63.148 C238.672,63.148 240.744,66.9 240.744,70.596 L240.744,70.596 Z" id="Fill-33" fill="#1A1919"></path>
            <path d="M245.477,77.624 L243.797,77.624 L243.797,66.732 C243.824,65.64 243.713,64.521 243.656,63.568 L245.393,63.568 L245.477,65.64 L245.532,65.64 C246.037,64.212 247.297,63.204 248.696,63.148 C249.257,63.12 249.816,63.148 250.377,63.176 L250.377,64.8 C250.041,64.772 249.677,64.688 249.341,64.688 C246.849,64.688 245.532,66.48 245.477,69.168 L245.477,77.624" id="Fill-34" fill="#1A1919"></path>
            <path d="M262.724,69.448 C262.528,66.732 261.072,64.688 258.16,64.688 C255.416,64.688 253.96,66.984 253.736,69.448 L262.724,69.448 Z M253.68,70.988 C253.736,73.984 255.108,76.504 258.552,76.504 C260.54,76.504 262.192,75.076 262.612,73.143 L264.376,73.143 C263.508,76.504 261.408,78.044 258.02,78.044 C253.82,78.044 251.86,74.432 251.86,70.596 C251.86,66.788 253.96,63.148 258.132,63.148 C262.836,63.148 264.544,66.592 264.544,70.988 L253.68,70.988 L253.68,70.988 Z" id="Fill-35" fill="#1A1919"></path>
            <path d="M272.524,63.148 C275.185,63.148 277.425,64.072 277.648,67.04 L275.828,67.04 C275.66,65.276 274.093,64.688 272.356,64.688 C270.788,64.688 269.192,65.304 269.192,66.956 C269.192,69.028 271.908,68.832 275.717,70.176 C277.172,70.68 278.097,71.94 278.097,73.452 C278.097,76.616 275.156,78.044 272.188,78.044 C269.752,78.044 266.952,76.896 266.896,73.788 L268.717,73.788 C268.856,75.888 270.704,76.504 272.608,76.504 C274.4,76.504 276.276,75.664 276.276,73.704 C276.276,71.688 274.064,71.352 271.824,70.848 C269.612,70.316 267.372,69.672 267.372,67.068 C267.372,64.156 270.061,63.148 272.524,63.148" id="Fill-36" fill="#1A1919"></path>
            <path d="M294.169,64.688 C290.977,64.688 289.941,67.656 289.941,70.344 C289.941,72.948 290.697,76.504 293.917,76.504 C297.585,76.504 298.705,73.452 298.705,70.26 C298.705,67.404 297.445,64.688 294.169,64.688 Z M298.761,75.552 L298.705,75.44 C297.557,77.12 295.849,78.044 293.889,78.044 C289.717,78.044 288.121,74.068 288.121,70.54 C288.121,66.9 289.717,63.148 293.889,63.148 C295.765,63.148 297.725,64.044 298.705,65.696 L298.761,65.64 L298.761,57.408 L300.441,57.408 L300.441,74.46 C300.441,75.552 300.525,76.672 300.581,77.624 L298.845,77.624 L298.761,75.552 L298.761,75.552 Z" id="Fill-37" fill="#1A1919"></path>
            <path d="M314.385,69.448 C314.189,66.732 312.733,64.688 309.821,64.688 C307.077,64.688 305.621,66.984 305.397,69.448 L314.385,69.448 Z M305.341,70.988 C305.397,73.984 306.77,76.504 310.213,76.504 C312.201,76.504 313.854,75.076 314.273,73.143 L316.037,73.143 C315.169,76.504 313.069,78.044 309.681,78.044 C305.481,78.044 303.521,74.432 303.521,70.596 C303.521,66.788 305.621,63.148 309.793,63.148 C314.497,63.148 316.205,66.592 316.205,70.988 L305.341,70.988 L305.341,70.988 Z" id="Fill-38" fill="#1A1919"></path>
            <path d="M328.47,71.716 C328.47,74.152 330.318,76.364 332.838,76.364 C335.694,76.364 337.262,74.32 337.262,71.576 C337.262,69.028 336.086,66.592 333.202,66.592 C330.122,66.592 328.47,68.832 328.47,71.716 Z M338.97,62.784 L337.01,62.784 C336.926,60.768 335.302,59.508 333.314,59.508 C328.666,59.508 328.134,64.576 328.134,68.216 L328.19,68.216 C329.058,66.088 331.018,65.052 333.286,65.052 C337.122,65.052 339.222,67.768 339.222,71.464 C339.222,75.16 336.926,78.044 333.118,78.044 C327.714,78.044 326.174,73.564 326.174,68.916 C326.174,63.96 326.958,57.828 333.23,57.828 C336.394,57.828 338.914,59.424 338.97,62.784 L338.97,62.784 Z" id="Fill-39" fill="#1A1919"></path>
            <path d="M342.778,58.248 L353.446,58.248 L353.446,59.928 L344.514,59.928 L344.206,66.844 L344.262,66.9 C345.354,65.64 346.782,64.856 348.519,64.856 C352.158,64.856 354.426,67.852 354.426,71.324 C354.426,75.048 352.046,78.044 348.21,78.044 C344.935,78.044 342.05,76.532 341.938,72.864 L343.898,72.864 C344.01,75.188 345.802,76.364 348.014,76.364 C351.038,76.364 352.466,74.04 352.466,71.24 C352.466,68.44 351.038,66.536 348.126,66.536 C346.278,66.536 344.598,67.656 344.206,69.476 L342.33,69.476 L342.778,58.248" id="Fill-40" fill="#1A1919"></path>
            <path d="M368.987,76.504 C372.655,76.504 373.355,73.48 373.188,70.54 C370.807,70.624 365.823,70.176 365.823,73.704 C365.823,75.608 367.279,76.504 368.987,76.504 Z M373.188,67.712 C373.02,65.416 371.843,64.688 369.855,64.688 C368.091,64.688 366.635,65.22 366.411,67.124 L364.619,67.124 C365.039,64.24 367.195,63.148 369.883,63.148 C372.991,63.148 374.923,64.576 374.867,67.796 L374.867,74.46 C374.839,75.552 374.951,76.672 375.007,77.624 L373.271,77.624 L373.215,75.552 L373.159,75.552 L373.075,75.748 C372.459,76.924 370.583,78.044 368.679,78.044 C366.075,78.044 364.003,76.448 364.003,73.704 C364.003,71.8 365.151,70.344 366.831,69.644 C368.707,68.832 371.144,69.112 373.188,69 L373.188,67.712 L373.188,67.712 Z" id="Fill-41" fill="#1A1919"></path>
            <path d="M388.223,58.164 C387.915,59.424 387.104,60.544 385.675,60.544 C385.283,60.544 384.863,60.404 384.415,60.236 C383.995,60.096 383.491,59.956 382.903,59.956 C382.343,59.956 381.728,60.208 381.587,60.768 L380.523,60.768 C380.859,59.256 381.923,58.276 383.547,58.528 C383.799,58.556 384.247,58.696 384.667,58.836 C385.087,58.948 385.535,59.088 385.759,59.088 C386.375,59.088 386.936,58.752 387.159,58.164 L388.223,58.164 Z M380.495,77.624 L378.815,77.624 L378.815,66.732 C378.815,65.64 378.731,64.521 378.675,63.568 L380.411,63.568 L380.495,65.64 L380.551,65.696 C381.531,63.96 383.127,63.148 384.947,63.148 C389.539,63.148 389.903,67.208 389.903,68.832 L389.903,77.624 L388.223,77.624 L388.223,68.552 C388.223,66.116 386.823,64.688 384.527,64.688 C381.755,64.688 380.495,67.012 380.495,69.532 L380.495,77.624 L380.495,77.624 Z" id="Fill-42" fill="#1A1919"></path>
            <path d="M399.507,64.688 C396.118,64.688 394.774,67.992 394.774,70.596 C394.774,73.2 396.118,76.504 399.507,76.504 C402.895,76.504 404.238,73.2 404.238,70.596 C404.238,67.992 402.895,64.688 399.507,64.688 Z M406.059,70.596 C406.059,74.292 403.986,78.044 399.507,78.044 C395.026,78.044 392.955,74.292 392.955,70.596 C392.955,66.9 395.026,63.148 399.507,63.148 C403.986,63.148 406.059,66.9 406.059,70.596 L406.059,70.596 Z" id="Fill-43" fill="#1A1919"></path>
            <path d="M413.928,63.148 C416.588,63.148 418.828,64.072 419.052,67.04 L417.231,67.04 C417.063,65.276 415.496,64.688 413.76,64.688 C412.191,64.688 410.596,65.304 410.596,66.956 C410.596,69.028 413.312,68.832 417.12,70.176 C418.575,70.68 419.5,71.94 419.5,73.452 C419.5,76.616 416.56,78.044 413.592,78.044 C411.155,78.044 408.355,76.896 408.3,73.788 L410.12,73.788 C410.26,75.888 412.107,76.504 414.012,76.504 C415.804,76.504 417.68,75.664 417.68,73.704 C417.68,71.688 415.468,71.352 413.228,70.848 C411.016,70.316 408.775,69.672 408.775,67.068 C408.775,64.156 411.464,63.148 413.928,63.148" id="Fill-44" fill="#1A1919"></path>
        </g>
    </g>
</svg>