<?xml version="1.0" encoding="UTF-8"?>
<svg width="259px" height="45px" viewBox="0 0 259 45" version="1.1" xmlns="http://www.w3.org/2000/svg" xmlns:xlink="http://www.w3.org/1999/xlink">
    <!-- Generator: Sketch 54.1 (76490) - https://sketchapp.com -->
    <title>Blue Cross NC / Products / Blue Local / CW</title>
    <desc>Created with Sketch.</desc>
    <g id="Blue-Cross-NC-/-Products-/-Blue-Local-/-CW" stroke="none" stroke-width="1" fill="none" fill-rule="evenodd">
        <g id="BlueLocal-RGB-CW-EPS">
            <path d="M15.24,20.683 L15.24,36.642 L15.36,41.383 L19.921,41.383 C22.021,41.383 24.24,41.142 26.16,39.223 C28.681,36.703 28.62,32.383 28.62,30.883 C28.62,26.263 27.601,23.803 25.74,22.363 C24.36,21.283 21.96,20.683 18.301,20.683 L15.24,20.683 Z M15.36,2.563 L15.301,6.703 L15.24,18.943 L19.2,18.943 C21.841,18.943 23.94,18.103 24.78,17.023 C25.801,15.823 26.341,13.843 26.341,10.723 C26.341,3.943 24.24,2.563 19.62,2.563 L15.36,2.563 Z M0,0.763 L23.761,0.763 C26.16,0.763 28.801,0.883 31.261,2.023 C35.82,4.183 35.94,8.743 35.94,9.703 C35.94,12.103 35.101,14.323 33.36,16.063 C30.54,19.003 26.82,19.423 24.12,19.723 C27.061,19.843 31.74,20.083 35.461,23.803 C36.9,25.243 38.641,27.642 38.641,31.543 C38.641,34.303 37.74,37.183 35.461,39.463 C32.04,42.883 27.721,43.123 24,43.123 L0,43.123 L0,41.562 L5.82,41.562 L5.94,35.623 L5.94,7.303 L5.82,2.323 L0,2.323 L0,0.763 L0,0.763 Z" id="Fill-1" fill="#38A1CE"></path>
            <path d="M46.14,0.763 C48.96,0.763 49.8,0.703 52.44,0.523 L52.32,7.183 L52.32,36.764 L52.44,41.562 L56.58,41.562 L56.58,43.123 L39.06,43.123 L39.06,41.562 L43.56,41.562 L43.68,36.764 L43.68,7.183 L43.56,2.323 L39.06,2.323 L39.06,0.763 L46.14,0.763" id="Fill-2" fill="#38A1CE"></path>
            <path d="M61.44,14.083 C64.56,14.083 65.52,14.023 68.459,13.843 L68.34,19.423 L68.34,32.863 C68.34,35.142 68.459,36.883 68.939,38.083 C69.72,39.943 71.34,40.783 73.319,40.783 C75.06,40.783 76.56,40.123 77.699,39.043 C80.039,36.703 79.98,33.583 79.98,30.943 L79.98,20.263 L79.859,15.643 L75.42,15.643 L75.42,14.083 L80.579,14.083 C84.06,14.083 85.079,14.023 88.56,13.843 L88.439,19.423 L88.439,36.043 L88.56,41.503 L92.88,41.503 L92.88,43.123 L88.319,43.123 C84.48,43.123 83.1,43.183 80.22,43.363 L80.039,38.743 C78.779,40.303 75.84,43.783 69.06,43.783 C64.619,43.783 61.8,42.104 60.659,39.823 C59.76,38.142 59.819,35.982 59.819,34.183 L59.819,20.023 L59.699,15.643 L55.319,15.643 L55.319,14.083 L61.44,14.083" id="Fill-3" fill="#38A1CE"></path>
            <path d="M113.339,25.123 C113.4,20.443 113.459,14.923 108.059,14.923 C102.959,14.923 102.719,20.023 102.54,25.123 L113.339,25.123 Z M122.099,34.723 C120.54,37.663 117.299,43.783 108.24,43.783 C98.939,43.783 93.239,36.642 93.239,28.303 C93.239,20.323 98.639,13.243 108.299,13.243 C114.299,13.243 117.599,15.823 119.04,17.323 C122.339,20.743 122.459,24.343 122.52,26.923 L102.48,26.923 C102.54,32.023 102.66,36.642 105.179,39.283 C106.559,40.723 108.54,41.323 110.519,41.323 C117,41.323 119.459,35.863 120.299,33.943 L122.099,34.723 L122.099,34.723 Z" id="Fill-4" fill="#38A1CE"></path>
            <path d="M252.307,4.304 C251.743,4.304 251.266,3.891 251.25,3.306 L251.594,3.306 C251.604,3.852 252.008,4.009 252.485,4.009 C252.881,4.009 253.338,3.778 253.338,3.326 C253.338,2.972 253.083,2.805 252.784,2.707 C252.209,2.515 251.334,2.333 251.334,1.567 C251.334,0.948 251.905,0.609 252.465,0.609 C252.93,0.609 253.54,0.771 253.62,1.454 L253.276,1.454 C253.266,1.017 252.868,0.904 252.504,0.904 C252.135,0.904 251.678,1.09 251.678,1.523 C251.678,2.53 253.682,2.073 253.682,3.296 C253.682,4.068 253.02,4.304 252.307,4.304" id="Fill-5" fill="#FFFFFE"></path>
            <polyline id="Fill-6" fill="#FFFFFE" points="254.444 4.23 254.444 0.683 254.956 0.683 256.288 3.773 257.647 0.683 258.133 0.683 258.133 4.23 257.815 4.23 257.815 0.953 257.805 0.953 256.45 4.23 256.129 4.23 254.774 0.967 254.764 0.967 254.764 4.23 254.444 4.23"></polyline>
            <polyline id="Fill-7" fill="#FFFFFE" points="127.813 43.121 127.813 0.747 131.628 0.747 131.628 39.599 152.932 39.599 152.932 43.121 127.813 43.121"></polyline>
            <path d="M167.718,16.006 C160.617,16.006 157.798,22.932 157.798,28.389 C157.798,33.848 160.617,40.772 167.718,40.772 C174.818,40.772 177.636,33.848 177.636,28.389 C177.636,22.932 174.818,16.006 167.718,16.006 Z M181.451,28.389 C181.451,36.137 177.107,44 167.718,44 C158.328,44 153.985,36.137 153.985,28.389 C153.985,20.642 158.328,12.778 167.718,12.778 C177.107,12.778 181.451,20.642 181.451,28.389 L181.451,28.389 Z" id="Fill-8" fill="#FFFFFE"></path>
            <path d="M206.334,22.696 C206.041,18.178 203.166,16.006 198.294,16.006 C192.894,16.006 189.55,21.641 189.55,28.331 C189.55,35.08 192.894,40.772 198.294,40.772 C202.872,40.772 206.041,37.956 206.334,33.906 L210.15,33.906 C209.209,40.656 205.337,44 198.647,44 C189.842,44 185.735,36.43 185.735,28.389 C185.735,20.408 190.136,12.778 198.88,12.778 C204.927,12.778 209.856,16.417 210.15,22.696 L206.334,22.696" id="Fill-9" fill="#FFFFFE"></path>
            <path d="M224.941,40.772 C232.628,40.772 234.096,34.434 233.744,28.272 C228.756,28.448 218.308,27.509 218.308,34.903 C218.308,38.896 221.361,40.772 224.941,40.772 Z M233.744,22.345 C233.391,17.532 230.927,16.006 226.761,16.006 C223.062,16.006 220.012,17.121 219.541,21.112 L215.786,21.112 C216.666,15.067 221.186,12.778 226.819,12.778 C233.333,12.778 237.382,15.771 237.265,22.521 L237.265,36.488 C237.207,38.777 237.443,41.125 237.559,43.121 L233.92,43.121 L233.802,38.777 L233.685,38.777 L233.51,39.188 C232.217,41.653 228.286,44 224.294,44 C218.838,44 214.495,40.656 214.495,34.903 C214.495,30.913 216.901,27.861 220.422,26.393 C224.355,24.692 229.459,25.279 233.744,25.044 L233.744,22.345 L233.744,22.345 Z" id="Fill-10" fill="#FFFFFE"></path>
            <polygon id="Fill-11" fill="#FFFFFE" points="243.685 43.121 247.207 43.121 247.207 0.747 243.685 0.747"></polygon>
        </g>
    </g>
</svg>