<?xml version="1.0" encoding="UTF-8"?>
<svg width="278px" height="77px" viewBox="0 0 278 77" version="1.1" xmlns="http://www.w3.org/2000/svg" xmlns:xlink="http://www.w3.org/1999/xlink">
    <!-- Generator: Sketch 54.1 (76490) - https://sketchapp.com -->
    <title>Blue Cross NC / Products / Dental Blue for Seniors / W</title>
    <desc>Created with Sketch.</desc>
    <defs>
        <polygon id="path-1" points="0.06 0.158 78.7243584 0.158 78.7243584 21.94 0.06 21.94"></polygon>
        <polygon id="path-3" points="0.167 0.622 20.948 0.622 20.948 21.94 0.167 21.94"></polygon>
        <polygon id="path-5" points="0.06 0.617 154.121 0.617 154.121 65.976 0.06 65.976"></polygon>
    </defs>
    <g id="Blue-Cross-NC-/-Products-/-Dental-Blue-for-Seniors-/-W" stroke="none" stroke-width="1" fill="none" fill-rule="evenodd">
        <g id="DentalBlue-Seniors-RGB-W-EPS">
            <g id="Group-7" transform="translate(0.000000, 55.000000)">
                <mask id="mask-2" fill="white">
                    <use xlink:href="#path-1"></use>
                </mask>
                <g id="Clip-2"></g>
                <path d="M9.386,2.595 C8.922,2.565 8.342,2.536 7.792,2.536 C5.586,2.536 5.586,3.639 5.586,4.653 L5.586,6.945 L8.981,6.945 L8.981,8.918 L5.586,8.918 L5.586,21.507 L2.889,21.507 L2.889,8.918 L0.017,8.918 L0.017,6.945 L2.889,6.945 L2.889,5.292 C2.889,3.29 3.005,2.565 3.499,1.811 C4.107,0.883 5.268,0.216 7.153,0.216 C7.936,0.216 8.806,0.332 9.386,0.419 L9.386,2.595" id="Fill-1" fill="#FFFFFE" mask="url(#mask-2)"></path>
                <path d="M17.913,19.97 C19.972,19.97 22.322,18.49 22.322,14.11 C22.322,10.484 20.639,8.569 18.086,8.569 C16.346,8.569 13.533,9.672 13.533,14.227 C13.533,17.214 14.809,19.97 17.913,19.97 Z M18.086,6.568 C23.916,6.568 25.222,11.151 25.222,14.197 C25.222,18.461 22.815,22 17.855,22 C13.04,22 10.69,18.664 10.69,14.4 C10.69,10.804 12.373,6.568 18.086,6.568 L18.086,6.568 Z" id="Fill-3" fill="#FFFFFE" mask="url(#mask-2)"></path>
                <path d="M28.626,9.904 C28.626,8.918 28.568,7.902 28.481,6.945 L31.237,6.945 L31.294,9.759 C31.817,7.728 33.557,7.062 34.775,6.888 C35.587,6.771 36.197,6.801 36.661,6.829 L36.661,9.498 C36.516,9.439 36.341,9.411 36.138,9.382 C35.936,9.352 35.674,9.352 35.356,9.352 C32.135,9.352 31.381,11.268 31.381,13.762 L31.381,21.507 L28.626,21.507 L28.626,9.904" id="Fill-4" fill="#FFFFFE" mask="url(#mask-2)"></path>
                <path d="M49.912,15.387 C49.97,16.837 50.144,19.534 54.96,19.534 C59.31,19.534 59.862,16.837 59.862,15.792 C59.862,13.443 57.976,12.978 55.046,12.254 C51.856,11.471 50.434,11.122 49.361,10.397 C47.65,9.237 47.185,7.671 47.185,6.278 C47.185,2.014 51.217,0.158 55.163,0.158 C56.555,0.158 59.369,0.39 61.05,2.217 C62.211,3.493 62.269,4.915 62.327,5.785 L59.31,5.785 C59.165,3.175 56.96,2.595 54.901,2.595 C52.001,2.595 50.26,3.899 50.26,5.988 C50.26,7.845 51.478,8.482 54.031,9.092 C59.02,10.368 59.572,10.484 60.79,11.297 C62.733,12.572 62.878,14.603 62.878,15.474 C62.878,19.186 59.977,22 54.611,22 C53.016,22 49.767,21.739 48.114,19.621 C46.924,18.084 46.895,16.401 46.895,15.387 L49.912,15.387" id="Fill-5" fill="#FFFFFE" mask="url(#mask-2)"></path>
                <path d="M75.926,12.805 C75.956,11.412 75.695,8.512 72.33,8.512 C70.56,8.512 68.414,9.585 68.356,12.805 L75.926,12.805 Z M68.24,14.719 C68.182,17.736 69.429,19.97 72.416,19.97 C74.186,19.97 75.608,19.041 75.839,16.953 L78.566,16.953 C78.479,17.678 78.363,18.867 77.319,19.998 C76.681,20.724 75.23,21.942 72.3,21.942 C67.717,21.942 65.543,19.1 65.543,14.487 C65.543,11.615 66.123,9.237 68.414,7.642 C69.806,6.655 71.546,6.568 72.388,6.568 C78.915,6.568 78.769,12.341 78.711,14.719 L68.24,14.719 L68.24,14.719 Z" id="Fill-6" fill="#FFFFFE" mask="url(#mask-2)"></path>
            </g>
            <path d="M82.797,63.628 L82.768,61.945 L85.495,61.945 L85.524,64.295 C85.843,63.685 86.887,61.655 90.194,61.655 C91.499,61.655 95.473,62.148 95.473,66.615 L95.473,76.507 L92.689,76.507 L92.689,67.254 C92.689,66.297 92.573,65.426 91.906,64.759 C91.21,64.092 90.252,63.772 89.324,63.772 C87.351,63.772 85.524,65.194 85.524,68.124 L85.524,76.507 L82.797,76.507 L82.797,63.628" id="Fill-8" fill="#FFFFFE"></path>
            <g id="Group-12" transform="translate(99.000000, 55.000000)">
                <mask id="mask-4" fill="white">
                    <use xlink:href="#path-3"></use>
                </mask>
                <g id="Clip-10"></g>
                <path d="M0.457,21.506 L3.183,21.506 L3.183,6.945 L0.457,6.945 L0.457,21.506 Z M0.167,3.609 L3.445,3.609 L3.445,0.622 L0.167,0.622 L0.167,3.609 Z" id="Fill-9" fill="#FFFFFE" mask="url(#mask-4)"></path>
                <path d="M13.638,19.97 C15.698,19.97 18.047,18.49 18.047,14.11 C18.047,10.484 16.365,8.569 13.812,8.569 C12.072,8.569 9.258,9.672 9.258,14.227 C9.258,17.214 10.535,19.97 13.638,19.97 Z M13.812,6.568 C19.642,6.568 20.948,11.151 20.948,14.197 C20.948,18.461 18.541,22 13.581,22 C8.765,22 6.416,18.664 6.416,14.4 C6.416,10.804 8.098,6.568 13.812,6.568 L13.812,6.568 Z" id="Fill-11" fill="#FFFFFE" mask="url(#mask-4)"></path>
            </g>
            <path d="M123.351,64.904 C123.351,63.918 123.293,62.902 123.207,61.945 L125.962,61.945 L126.02,64.759 C126.542,62.728 128.283,62.062 129.5,61.888 C130.313,61.771 130.922,61.801 131.386,61.829 L131.386,64.498 C131.242,64.439 131.067,64.411 130.864,64.382 C130.662,64.352 130.4,64.352 130.082,64.352 C126.861,64.352 126.107,66.268 126.107,68.762 L126.107,76.507 L123.351,76.507 L123.351,64.904" id="Fill-13" fill="#FFFFFE"></path>
            <path d="M136.634,72.185 C136.605,73.287 137.185,74.824 139.825,74.824 C140.957,74.824 141.797,74.621 142.377,73.896 C142.667,73.519 142.841,73.026 142.841,72.533 C142.841,71.111 141.827,70.851 139.651,70.357 C136.605,69.661 134.052,69.052 134.052,66.006 C134.052,63.338 136.374,61.598 139.738,61.598 C141.565,61.598 144.118,62.119 144.988,63.859 C145.365,64.672 145.365,65.368 145.365,65.977 L142.581,65.977 C142.667,63.772 140.753,63.599 139.767,63.599 C139.361,63.599 136.808,63.599 136.808,65.687 C136.808,67.021 138.114,67.341 138.868,67.544 C142.9,68.501 143.77,68.733 144.64,69.545 C145.453,70.3 145.743,71.314 145.743,72.243 C145.743,73.867 144.843,75.26 143.77,75.927 C142.494,76.71 140.957,76.913 139.448,76.913 C136.489,76.913 133.734,75.694 133.762,72.185 L136.634,72.185" id="Fill-14" fill="#FFFFFE"></path>
            <path d="M148.188,66.051 C147.613,66.051 147.128,65.63 147.112,65.034 L147.463,65.034 C147.473,65.59 147.884,65.75 148.369,65.75 C148.774,65.75 149.239,65.515 149.239,65.055 C149.239,64.694 148.979,64.524 148.674,64.424 C148.089,64.228 147.197,64.044 147.197,63.263 C147.197,62.632 147.778,62.287 148.349,62.287 C148.824,62.287 149.444,62.452 149.524,63.147 L149.175,63.147 C149.165,62.702 148.759,62.587 148.389,62.587 C148.014,62.587 147.548,62.777 147.548,63.218 C147.548,64.244 149.59,63.778 149.59,65.024 C149.59,65.81 148.914,66.051 148.188,66.051" id="Fill-15" fill="#FFFFFE"></path>
            <g id="Group-19">
                <mask id="mask-6" fill="white">
                    <use xlink:href="#path-5"></use>
                </mask>
                <g id="Clip-17"></g>
                <polyline id="Fill-16" fill="#FFFFFE" mask="url(#mask-6)" points="150.362 65.976 150.362 62.362 150.883 62.362 152.239 65.51 153.626 62.362 154.121 62.362 154.121 65.976 153.796 65.976 153.796 62.638 153.786 62.638 152.404 65.976 152.079 65.976 150.698 62.652 150.688 62.652 150.688 65.976 150.362 65.976"></polyline>
                <path d="M12.335,39.319 C24.203,39.319 29.055,32.362 29.055,21.722 C29.055,9.27 21.748,3.774 9.763,4.126 L3.8,4.126 L3.8,39.319 L12.335,39.319 Z M11.4,0.617 C25.255,0.617 33.147,7.749 33.147,21.722 C33.147,35.694 25.255,42.826 11.4,42.826 L0,42.826 L0,0.617 L11.4,0.617 L11.4,0.617 Z" id="Fill-18" fill="#FFFFFE" mask="url(#mask-6)"></path>
            </g>
            <path d="M59.45,25.756 C59.04,20.085 56,15.817 49.92,15.817 C44.19,15.817 41.151,20.611 40.683,25.756 L59.45,25.756 Z M40.566,28.971 C40.683,35.227 43.548,40.488 50.738,40.488 C54.889,40.488 58.338,37.506 59.216,33.473 L62.898,33.473 C61.086,40.488 56.702,43.703 49.628,43.703 C40.859,43.703 36.767,36.162 36.767,28.152 C36.767,20.201 41.151,12.603 49.862,12.603 C59.683,12.603 63.25,19.792 63.25,28.971 L40.566,28.971 L40.566,28.971 Z" id="Fill-20" fill="#FFFFFE"></path>
            <path d="M70.485,42.826 L66.978,42.826 L66.978,20.085 C66.978,17.806 66.803,15.466 66.685,13.479 L70.31,13.479 L70.485,17.806 L70.602,17.921 C72.648,14.298 75.98,12.603 79.781,12.603 C89.369,12.603 90.128,21.078 90.128,24.47 L90.128,42.826 L86.621,42.826 L86.621,23.885 C86.621,18.799 83.698,15.817 78.904,15.817 C73.116,15.817 70.485,20.669 70.485,25.932 L70.485,42.826" id="Fill-21" fill="#FFFFFE"></path>
            <path d="M98.951,16.693 L93.105,16.693 L93.105,13.479 L98.951,13.479 L98.951,7.224 L102.458,5.703 L102.458,13.479 L109.124,13.479 L109.124,16.693 L102.458,16.693 L102.458,36.338 C102.4,39.027 103.803,40.488 106.492,40.488 C107.545,40.488 108.597,40.43 109.533,40.138 L109.533,43.178 C108.422,43.47 107.136,43.703 105.966,43.703 C98.542,43.703 98.951,38.968 98.951,34.992 L98.951,16.693" id="Fill-22" fill="#FFFFFE"></path>
            <path d="M121.692,40.488 C129.351,40.488 130.813,34.174 130.461,28.036 C125.492,28.212 115.086,27.275 115.086,34.643 C115.086,38.618 118.126,40.488 121.692,40.488 Z M130.461,22.131 C130.111,17.337 127.655,15.817 123.504,15.817 C119.822,15.817 116.781,16.928 116.313,20.903 L112.572,20.903 C113.449,14.882 117.951,12.603 123.563,12.603 C130.052,12.603 134.085,15.583 133.97,22.306 L133.97,36.22 C133.911,38.5 134.145,40.839 134.262,42.826 L130.637,42.826 L130.52,38.5 L130.403,38.5 L130.228,38.909 C128.941,41.365 125.025,43.703 121.049,43.703 C115.612,43.703 111.286,40.37 111.286,34.643 C111.286,30.667 113.683,27.626 117.19,26.166 C121.107,24.47 126.193,25.054 130.461,24.82 L130.461,22.131 L130.461,22.131 Z" id="Fill-23" fill="#FFFFFE"></path>
            <polygon id="Fill-24" fill="#FFFFFE" points="141.103 42.826 144.611 42.826 144.611 0.617 141.103 0.617"></polygon>
            <path d="M166.261,20.46 L166.261,36.497 L166.38,41.26 L170.962,41.26 C173.073,41.26 175.304,41.02 177.233,39.09 C179.765,36.557 179.706,32.217 179.706,30.709 C179.706,26.066 178.679,23.595 176.812,22.148 C175.425,21.061 173.013,20.46 169.335,20.46 L166.261,20.46 Z M166.38,2.253 L166.319,6.413 L166.261,18.711 L170.239,18.711 C172.892,18.711 175.001,17.867 175.847,16.782 C176.87,15.577 177.413,13.586 177.413,10.452 C177.413,3.64 175.304,2.253 170.661,2.253 L166.38,2.253 Z M150.947,0.442 L174.821,0.442 C177.233,0.442 179.886,0.563 182.356,1.71 C186.938,3.88 187.06,8.462 187.06,9.429 C187.06,11.837 186.216,14.069 184.468,15.817 C181.634,18.772 177.896,19.194 175.183,19.496 C178.138,19.616 182.839,19.857 186.577,23.595 C188.024,25.043 189.774,27.453 189.774,31.371 C189.774,34.146 188.868,37.041 186.577,39.33 C183.142,42.768 178.8,43.008 175.062,43.008 L150.947,43.008 L150.947,41.439 L156.794,41.439 L156.915,35.473 L156.915,7.016 L156.794,2.011 L150.947,2.011 L150.947,0.442 L150.947,0.442 Z" id="Fill-25" fill="#FFFFFE"></path>
            <path d="M197.298,0.442 C200.13,0.442 200.976,0.385 203.628,0.204 L203.507,6.895 L203.507,36.618 L203.628,41.439 L207.788,41.439 L207.788,43.008 L190.183,43.008 L190.183,41.439 L194.706,41.439 L194.825,36.618 L194.825,6.895 L194.706,2.011 L190.183,2.011 L190.183,0.442 L197.298,0.442" id="Fill-26" fill="#FFFFFE"></path>
            <path d="M212.657,13.829 C215.792,13.829 216.757,13.767 219.712,13.586 L219.591,19.194 L219.591,32.699 C219.591,34.988 219.712,36.738 220.194,37.945 C220.978,39.812 222.604,40.658 224.595,40.658 C226.343,40.658 227.851,39.993 228.997,38.908 C231.347,36.557 231.286,33.422 231.286,30.769 L231.286,20.038 L231.167,15.396 L226.704,15.396 L226.704,13.829 L231.89,13.829 C235.386,13.829 236.411,13.767 239.907,13.586 L239.786,19.194 L239.786,35.894 L239.907,41.381 L244.249,41.381 L244.249,43.008 L239.667,43.008 C235.808,43.008 234.421,43.069 231.528,43.25 L231.347,38.607 C230.081,40.176 227.126,43.672 220.313,43.672 C215.854,43.672 213.021,41.984 211.874,39.691 C210.97,38.004 211.03,35.833 211.03,34.027 L211.03,19.796 L210.909,15.396 L206.509,15.396 L206.509,13.829 L212.657,13.829" id="Fill-27" fill="#FFFFFE"></path>
            <path d="M264.206,24.92 C264.267,20.22 264.327,14.673 258.899,14.673 C253.776,14.673 253.534,19.796 253.354,24.92 L264.206,24.92 Z M273.009,34.566 C271.44,37.523 268.185,43.672 259.083,43.672 C249.735,43.672 244.009,36.497 244.009,28.116 C244.009,20.098 249.437,12.983 259.142,12.983 C265.171,12.983 268.487,15.577 269.935,17.084 C273.251,20.52 273.37,24.137 273.431,26.73 L253.294,26.73 C253.354,31.854 253.474,36.497 256.007,39.15 C257.394,40.596 259.382,41.199 261.372,41.199 C267.884,41.199 270.354,35.714 271.198,33.784 L273.009,34.566 L273.009,34.566 Z" id="Fill-28" fill="#FFFFFE"></path>
            <path d="M275.602,15.441 C275.941,15.441 276.419,15.498 276.419,15.039 C276.419,14.698 276.135,14.652 275.84,14.652 L275.17,14.652 L275.17,15.441 L275.602,15.441 Z M275.17,16.81 L274.857,16.81 L274.857,14.369 L275.908,14.369 C276.544,14.369 276.759,14.607 276.759,15.044 C276.759,15.515 276.43,15.691 276.004,15.726 L276.73,16.81 L276.379,16.81 L275.692,15.726 L275.17,15.726 L275.17,16.81 Z M277.446,15.601 C277.446,14.561 276.696,13.813 275.658,13.813 C274.613,13.813 273.858,14.561 273.858,15.601 C273.858,16.65 274.613,17.4 275.658,17.4 C276.696,17.4 277.446,16.65 277.446,15.601 Z M273.519,15.601 C273.519,14.431 274.478,13.472 275.658,13.472 C276.833,13.472 277.786,14.431 277.786,15.601 C277.786,16.781 276.833,17.74 275.658,17.74 C274.478,17.74 273.519,16.781 273.519,15.601 L273.519,15.601 Z" id="Fill-29" fill="#FFFFFE"></path>
        </g>
    </g>
</svg>