<?xml version="1.0" encoding="UTF-8"?>
<svg width="650px" height="168px" viewBox="0 0 650 168" version="1.1" xmlns="http://www.w3.org/2000/svg" xmlns:xlink="http://www.w3.org/1999/xlink">
    <!-- Generator: Sketch 61.2 (89653) - https://sketch.com -->
    <title>arial</title>
    <desc>Created with Sketch.</desc>
    <g id="Logos" stroke="none" stroke-width="1" fill="none" fill-rule="evenodd">
        <g id="Artboard" transform="translate(-29.000000, -421.000000)" fill="#000000" fill-rule="nonzero">
            <path d="M37.359375,456 L40.1953125,448.195312 L53.9296875,448.195312 L56.9296875,456 L64.4765625,456 L50.71875,421.640625 L43.3828125,421.640625 L30,456 L37.359375,456 Z M51.703125,442.40625 L42.328125,442.40625 L46.96875,429.65625 L51.703125,442.40625 Z M75.2310838,456 L75.2317387,447.879645 C75.2439637,443.888043 75.4273392,441.251078 75.781865,439.96875 C76.1490525,438.640625 76.6529588,437.722656 77.2935838,437.214844 C77.9342088,436.707031 78.7154588,436.453125 79.6373338,436.453125 C80.5904588,436.453125 81.6217088,436.8125 82.7310838,437.53125 L82.7310838,437.53125 L84.7701463,431.789062 C83.3795213,430.960938 81.9342088,430.546875 80.4342088,430.546875 C79.3717088,430.546875 78.42249,430.8125 77.5865525,431.34375 C76.750615,431.875 75.8092088,432.976562 74.7623338,434.648438 L74.7623338,434.648438 L74.7623338,431.109375 L68.6451463,431.109375 L68.6451463,456 L75.2310838,456 Z M95.0090426,427.734375 L95.0090426,421.640625 L88.4231051,421.640625 L88.4231051,427.734375 L95.0090426,427.734375 Z M95.0090426,456 L95.0090426,431.109375 L88.4231051,431.109375 L88.4231051,456 L95.0090426,456 Z M109.115126,456.5625 C110.568251,456.5625 111.935439,456.289062 113.216689,455.742188 C114.497939,455.195312 115.701064,454.375 116.826064,453.28125 C116.872939,453.40625 116.951064,453.664062 117.060439,454.054688 C117.310439,454.914062 117.521376,455.5625 117.693251,456 L117.693251,456 L124.208876,456 C123.630751,454.8125 123.23622,453.699219 123.025283,452.660156 C122.814345,451.621094 122.708876,450.007812 122.708876,447.820312 L122.708876,447.820312 L122.779189,440.132812 C122.779189,437.273438 122.48622,435.308594 121.900283,434.238281 C121.314345,433.167969 120.302626,432.285156 118.865126,431.589844 C117.427626,430.894531 115.240126,430.546875 112.302626,430.546875 C109.068251,430.546875 106.630751,431.125 104.990126,432.28125 C103.349501,433.4375 102.193251,435.21875 101.521376,437.625 L101.521376,437.625 L107.497939,438.703125 C107.904189,437.546875 108.435439,436.738281 109.091689,436.277344 C109.747939,435.816406 110.662001,435.585938 111.833876,435.585938 C113.568251,435.585938 114.747939,435.855469 115.372939,436.394531 C115.997939,436.933594 116.310439,437.835938 116.310439,439.101562 L116.310439,439.101562 L116.310439,439.757812 C115.122939,440.257812 112.990126,440.796875 109.912001,441.375 C107.630751,441.8125 105.884658,442.324219 104.67372,442.910156 C103.462783,443.496094 102.521376,444.339844 101.849501,445.441406 C101.177626,446.542969 100.841689,447.796875 100.841689,449.203125 C100.841689,451.328125 101.57997,453.085938 103.056533,454.476562 C104.533095,455.867188 106.552626,456.5625 109.115126,456.5625 Z M111.083876,451.921875 C110.021376,451.921875 109.146376,451.585938 108.458876,450.914062 C107.771376,450.242188 107.427626,449.445312 107.427626,448.523438 C107.427626,447.585938 107.857314,446.8125 108.716689,446.203125 C109.279189,445.828125 110.474501,445.445312 112.302626,445.054688 C114.130751,444.664062 115.466689,444.328125 116.310439,444.046875 L116.310439,444.046875 L116.310439,445.359375 C116.310439,446.9375 116.224501,448.007812 116.052626,448.570312 C115.802626,449.429688 115.279189,450.15625 114.482314,450.75 C113.404189,451.53125 112.271376,451.921875 111.083876,451.921875 Z M136.674335,456 L136.674335,421.640625 L130.088398,421.640625 L130.088398,456 L136.674335,456 Z M37.6816406,499.421875 C38.9238281,499.421875 40.0869141,499.216797 41.1708984,498.806641 C42.2548828,498.396484 43.3828125,497.693359 44.5546875,496.697266 C44.6484375,497.576172 44.859375,498.34375 45.1875,499 L45.1875,499 L48.4921875,499 C48.09375,498.285156 47.8271484,497.538086 47.6923828,496.758789 C47.5576172,495.979492 47.4902344,494.119141 47.4902344,491.177734 L47.4902344,486.958984 C47.4902344,485.552734 47.4375,484.580078 47.3320312,484.041016 C47.1445312,483.173828 46.8164062,482.456055 46.3476562,481.887695 C45.8789062,481.319336 45.1464844,480.847656 44.1503906,480.472656 C43.1542969,480.097656 41.859375,479.910156 40.265625,479.910156 C38.6601562,479.910156 37.2480469,480.129883 36.0292969,480.569336 C34.8105469,481.008789 33.8789062,481.635742 33.234375,482.450195 C32.5898438,483.264648 32.1269531,484.333984 31.8457031,485.658203 L31.8457031,485.658203 L34.9394531,486.080078 C35.2792969,484.755859 35.8037109,483.833008 36.5126953,483.311523 C37.2216797,482.790039 38.3203125,482.529297 39.8085938,482.529297 C41.4023438,482.529297 42.6035156,482.886719 43.4121094,483.601562 C44.0097656,484.128906 44.3085938,485.037109 44.3085938,486.326172 C44.3085938,486.443359 44.3027344,486.71875 44.2910156,487.152344 C43.0839844,487.574219 41.203125,487.9375 38.6484375,488.242188 C37.3945312,488.394531 36.4570312,488.552734 35.8359375,488.716797 C34.9921875,488.951172 34.2333984,489.296875 33.5595703,489.753906 C32.8857422,490.210938 32.3408203,490.817383 31.9248047,491.573242 C31.5087891,492.329102 31.3007812,493.164062 31.3007812,494.078125 C31.3007812,495.636719 31.8515625,496.916992 32.953125,497.918945 C34.0546875,498.920898 35.6308594,499.421875 37.6816406,499.421875 Z M38.4375,496.943359 C37.2070312,496.943359 36.2724609,496.662109 35.6337891,496.099609 C34.9951172,495.537109 34.6757812,494.833984 34.6757812,493.990234 C34.6757812,493.439453 34.8222656,492.938477 35.1152344,492.487305 C35.4082031,492.036133 35.8242188,491.693359 36.3632812,491.458984 C36.9023438,491.224609 37.8222656,491.013672 39.1230469,490.826172 C41.4199219,490.498047 43.1425781,490.099609 44.2910156,489.630859 L44.2910156,489.630859 L44.2910156,490.791016 C44.2910156,492.185547 44.1210938,493.240234 43.78125,493.955078 C43.3359375,494.880859 42.6386719,495.610352 41.6894531,496.143555 C40.7402344,496.676758 39.65625,496.943359 38.4375,496.943359 Z M61.1108128,499.421875 C63.3256566,499.421875 65.2240941,498.548828 66.8061253,496.802734 C68.3881566,495.056641 69.1791722,492.583984 69.1791722,489.384766 C69.1791722,488.037109 68.9916722,486.771484 68.6166722,485.587891 C68.2416722,484.404297 67.7231175,483.393555 67.0610081,482.555664 C66.3988988,481.717773 65.5551488,481.067383 64.5297581,480.604492 C63.5043675,480.141602 62.4174535,479.910156 61.269016,479.910156 C59.1947972,479.910156 57.4897191,480.748047 56.1537816,482.423828 L56.1537816,482.423828 L56.1537816,473.230469 L52.9897191,473.230469 L52.9897191,499 L55.925266,499 L55.925266,496.662109 C57.1791722,498.501953 58.9076878,499.421875 61.1108128,499.421875 Z M60.847141,496.820312 C59.1479222,496.820312 57.800266,496.005859 56.8041722,494.376953 C56.1947972,493.380859 55.8901097,491.763672 55.8901097,489.525391 C55.8901097,487.251953 56.394016,485.514648 57.4018285,484.313477 C58.409641,483.112305 59.6049535,482.511719 60.987766,482.511719 C62.3588597,482.511719 63.527805,483.091797 64.4946019,484.251953 C65.4613988,485.412109 65.9447972,487.210938 65.9447972,489.648438 C65.9447972,492.027344 65.440891,493.817383 64.4330785,495.018555 C63.425266,496.219727 62.2299535,496.820312 60.847141,496.820312 Z M81.164985,499.421875 C83.2040475,499.421875 84.9237741,498.81543 86.3241647,497.602539 C87.7245554,496.389648 88.5946725,494.710938 88.9345163,492.566406 L88.9345163,492.566406 L85.8231882,492.162109 C85.6005319,493.744141 85.0731882,494.916016 84.2411569,495.677734 C83.4091257,496.439453 82.3720163,496.820312 81.1298288,496.820312 C79.5829538,496.820312 78.3290475,496.251953 77.36811,495.115234 C76.4071725,493.978516 75.9267038,492.15625 75.9267038,489.648438 C75.9267038,487.175781 76.4247507,485.368164 77.4208444,484.225586 C78.4169382,483.083008 79.71186,482.511719 81.30561,482.511719 C82.3602975,482.511719 83.2597116,482.828125 84.0038522,483.460938 C84.7479929,484.09375 85.2665475,485.037109 85.5595163,486.291016 L85.5595163,486.291016 L88.6356882,485.816406 C88.2724069,483.929688 87.446235,482.473633 86.1571725,481.448242 C84.86811,480.422852 83.2099069,479.910156 81.1825632,479.910156 C79.5770944,479.910156 78.0917429,480.288086 76.7265085,481.043945 C75.3612741,481.799805 74.3446725,482.933594 73.6767038,484.445312 C73.008735,485.957031 72.6747507,487.720703 72.6747507,489.736328 C72.6747507,492.853516 73.4511179,495.24707 75.0038522,496.916992 C76.5565866,498.586914 78.6102975,499.421875 81.164985,499.421875 Z M99.1449385,499.421875 C101.441813,499.421875 103.182048,498.496094 104.365642,496.644531 L104.365642,496.644531 L104.365642,499 L107.301188,499 L107.301188,473.230469 L104.154704,473.230469 L104.154704,482.476562 C103.603923,481.714844 102.889079,481.09668 102.010173,480.62207 C101.131267,480.147461 100.129313,479.910156 99.0043135,479.910156 C97.4691572,479.910156 96.0804854,480.314453 94.8382979,481.123047 C93.5961104,481.931641 92.6644697,483.094727 92.043376,484.612305 C91.4222822,486.129883 91.1117354,487.820312 91.1117354,489.683594 C91.1117354,491.59375 91.4545088,493.28418 92.1400557,494.754883 C92.8256026,496.225586 93.7923994,497.371094 95.0404463,498.191406 C96.2884932,499.011719 97.6566572,499.421875 99.1449385,499.421875 Z M99.4437666,496.820312 C98.0726729,496.820312 96.8832197,496.228516 95.8754072,495.044922 C94.8675947,493.861328 94.3636885,492.074219 94.3636885,489.683594 C94.3636885,487.210938 94.8353682,485.400391 95.7787276,484.251953 C96.7220869,483.103516 97.8968916,482.529297 99.3031416,482.529297 C100.744548,482.529297 101.957438,483.126953 102.941813,484.322266 C103.926188,485.517578 104.418376,487.392578 104.418376,489.947266 C104.418376,492.267578 103.934978,493.993164 102.968181,495.124023 C102.001384,496.254883 100.826579,496.820312 99.4437666,496.820312 Z M120.728408,499.421875 C122.896376,499.421875 124.677626,498.894531 126.072158,497.839844 C127.466689,496.785156 128.421767,495.302734 128.937392,493.392578 L128.937392,493.392578 L125.667861,492.988281 C125.187392,494.324219 124.537001,495.296875 123.716689,495.90625 C122.896376,496.515625 121.906142,496.820312 120.745986,496.820312 C119.187392,496.820312 117.886611,496.275391 116.843642,495.185547 C115.800673,494.095703 115.220595,492.525391 115.103408,490.474609 L115.103408,490.474609 L129.025283,490.474609 C129.037001,490.099609 129.042861,489.818359 129.042861,489.630859 C129.042861,486.548828 128.251845,484.158203 126.669814,482.458984 C125.087783,480.759766 123.04872,479.910156 120.552626,479.910156 C117.974501,479.910156 115.876845,480.777344 114.259658,482.511719 C112.64247,484.246094 111.833876,486.683594 111.833876,489.824219 C111.833876,492.859375 112.633681,495.217773 114.23329,496.899414 C115.8329,498.581055 117.997939,499.421875 120.728408,499.421875 Z M125.703017,487.873047 L115.279189,487.873047 C115.384658,486.244141 115.932509,484.943359 116.922744,483.970703 C117.912978,482.998047 119.134658,482.511719 120.587783,482.511719 C122.193251,482.511719 123.499892,483.121094 124.507704,484.339844 C125.163954,485.125 125.562392,486.302734 125.703017,487.873047 L125.703017,487.873047 Z M137.425158,499 L137.425158,482.792969 L141.06383,482.792969 L141.06383,480.332031 L137.425158,480.332031 L137.425158,478.609375 C137.425158,477.484375 137.624377,476.716797 138.022814,476.306641 C138.421252,475.896484 139.100939,475.691406 140.061877,475.691406 C140.647814,475.691406 141.268908,475.75 141.925158,475.867188 L141.925158,475.867188 L142.399767,473.107422 C141.321642,472.896484 140.337267,472.791016 139.446642,472.791016 C138.06383,472.791016 136.988634,473.045898 136.221056,473.555664 C135.453478,474.06543 134.917345,474.730469 134.612658,475.550781 C134.390002,476.160156 134.278674,477.091797 134.278674,478.345703 L134.278674,478.345703 L134.278674,480.332031 L131.483752,480.332031 L131.483752,482.792969 L134.278674,482.792969 L134.278674,499 L137.425158,499 Z M150.940268,506.576172 C152.815268,506.576172 154.394369,506.224609 155.677572,505.521484 C156.960775,504.818359 157.898275,503.860352 158.490072,502.647461 C159.081869,501.43457 159.377768,499.375 159.377768,496.46875 L159.377768,496.46875 L159.377768,480.332031 L156.459799,480.332031 L156.459799,482.582031 C155.030111,480.800781 153.213705,479.910156 151.01058,479.910156 C149.358236,479.910156 147.91976,480.320312 146.69515,481.140625 C145.470541,481.960938 144.535971,483.124023 143.891439,484.629883 C143.246908,486.135742 142.924643,487.779297 142.924643,489.560547 C142.924643,492.150391 143.627768,494.371094 145.034018,496.222656 C146.440268,498.074219 148.426596,499 150.993002,499 C153.055502,499 154.778158,498.185547 156.160971,496.556641 C156.172689,498.619141 156.096518,499.972656 155.932455,500.617188 C155.651205,501.671875 155.112143,502.492188 154.315268,503.078125 C153.518393,503.664062 152.387533,503.957031 150.922689,503.957031 C149.563314,503.957031 148.491049,503.664062 147.705893,503.078125 C147.119955,502.644531 146.762533,501.953125 146.633627,501.003906 L146.633627,501.003906 L143.557455,500.546875 C143.51058,502.5625 144.172689,504.071289 145.543783,505.073242 C146.914877,506.075195 148.713705,506.576172 150.940268,506.576172 Z M151.29183,496.380859 C149.826986,496.380859 148.608236,495.818359 147.63558,494.693359 C146.662924,493.568359 146.176596,491.78125 146.176596,489.332031 C146.176596,487.082031 146.668783,485.385742 147.653158,484.243164 C148.637533,483.100586 149.832846,482.529297 151.239096,482.529297 C152.668783,482.529297 153.890463,483.109375 154.904135,484.269531 C155.917807,485.429688 156.424643,487.152344 156.424643,489.4375 C156.424643,491.828125 155.932455,493.583008 154.94808,494.702148 C153.963705,495.821289 152.744955,496.380859 151.29183,496.380859 Z M167.935846,499 L167.935846,488.787109 C167.935846,487.322266 168.111627,486.173828 168.46319,485.341797 C168.814752,484.509766 169.40362,483.850586 170.229791,483.364258 C171.055963,482.87793 171.937799,482.634766 172.875299,482.634766 C174.129205,482.634766 175.098932,482.995117 175.784479,483.71582 C176.470026,484.436523 176.812799,485.587891 176.812799,487.169922 L176.812799,487.169922 L176.812799,499 L179.976862,499 L179.976862,487.169922 C179.976862,485.341797 179.757135,483.947266 179.317682,482.986328 C178.878229,482.025391 178.148737,481.272461 177.129205,480.727539 C176.109674,480.182617 174.908502,479.910156 173.52569,479.910156 C171.27569,479.910156 169.412409,480.765625 167.935846,482.476562 L167.935846,482.476562 L167.935846,473.230469 L164.771784,473.230469 L164.771784,499 L167.935846,499 Z M188.587675,476.869141 L188.587675,473.230469 L185.423612,473.230469 L185.423612,476.869141 L188.587675,476.869141 Z M188.587675,499 L188.587675,480.332031 L185.423612,480.332031 L185.423612,499 L188.587675,499 Z M197.163331,476.904297 L197.163331,473.230469 L193.999269,473.230469 L193.999269,476.904297 L197.163331,476.904297 Z M192.469972,506.576172 C194.239503,506.576172 195.505128,505.990234 196.266847,504.818359 C196.864503,503.916016 197.163331,502.316406 197.163331,500.019531 L197.163331,500.019531 L197.163331,480.332031 L193.999269,480.332031 L193.999269,499.949219 C193.999269,501.660156 193.841065,502.729492 193.524659,503.157227 C193.208253,503.584961 192.727784,503.798828 192.083253,503.798828 C191.719972,503.798828 191.221925,503.716797 190.589112,503.552734 L190.589112,503.552734 L189.991456,506.242188 C190.788331,506.464844 191.614503,506.576172 192.469972,506.576172 Z M205.8093,499 L205.8093,491.599609 L208.041722,489.455078 L214.211644,499 L218.113988,499 L210.256566,487.257812 L217.393285,480.332031 L213.297581,480.332031 L205.8093,487.925781 L205.8093,473.230469 L202.645238,473.230469 L202.645238,499 L205.8093,499 Z M224.334176,499 L224.334176,473.230469 L221.170113,473.230469 L221.170113,499 L224.334176,499 Z M233.015301,499 L233.015301,489.314453 C233.015301,487.615234 233.185223,486.314453 233.525066,485.412109 C233.86491,484.509766 234.412762,483.824219 235.168621,483.355469 C235.924481,482.886719 236.747723,482.652344 237.638348,482.652344 C238.810223,482.652344 239.653973,483.003906 240.169598,483.707031 C240.685223,484.410156 240.943035,485.464844 240.943035,486.871094 L240.943035,486.871094 L240.943035,499 L244.107098,499 L244.107098,488.154297 C244.107098,486.232422 244.540691,484.834961 245.407879,483.961914 C246.275066,483.088867 247.36491,482.652344 248.67741,482.652344 C249.403973,482.652344 250.036785,482.822266 250.575848,483.162109 C251.11491,483.501953 251.486981,483.950195 251.692059,484.506836 C251.897137,485.063477 251.999676,485.974609 251.999676,487.240234 L251.999676,487.240234 L251.999676,499 L255.14616,499 L255.14616,486.185547 C255.14616,484.052734 254.648113,482.473633 253.65202,481.448242 C252.655926,480.422852 251.232098,479.910156 249.380535,479.910156 C247.013348,479.910156 245.091473,481 243.61491,483.179688 C243.251629,482.148438 242.627606,481.345703 241.74284,480.771484 C240.858074,480.197266 239.724285,479.910156 238.341473,479.910156 C237.099285,479.910156 235.991863,480.188477 235.019207,480.745117 C234.046551,481.301758 233.267254,482.037109 232.681316,482.951172 L232.681316,482.951172 L232.681316,480.332031 L229.851238,480.332031 L229.851238,499 L233.015301,499 Z M263.616348,499 L263.616348,488.804688 C263.616348,486.414062 264.105606,484.791016 265.084122,483.935547 C266.062637,483.080078 267.225723,482.652344 268.573379,482.652344 C269.417129,482.652344 270.152481,482.842773 270.779434,483.223633 C271.406387,483.604492 271.842911,484.114258 272.089004,484.75293 C272.335098,485.391602 272.458145,486.355469 272.458145,487.644531 L272.458145,487.644531 L272.458145,499 L275.622207,499 L275.622207,487.521484 C275.622207,486.056641 275.563614,485.03125 275.446426,484.445312 C275.258926,483.542969 274.930801,482.763672 274.462051,482.107422 C273.993301,481.451172 273.287247,480.920898 272.343887,480.516602 C271.400528,480.112305 270.366348,479.910156 269.241348,479.910156 C266.651504,479.910156 264.671036,480.935547 263.299942,482.986328 L263.299942,482.986328 L263.299942,480.332031 L260.452286,480.332031 L260.452286,499 L263.616348,499 Z M288.662708,499.421875 C290.291614,499.421875 291.794544,499.041016 293.171497,498.279297 C294.54845,497.517578 295.597278,496.448242 296.317981,495.071289 C297.038684,493.694336 297.399036,491.804688 297.399036,489.402344 C297.399036,486.4375 296.584583,484.114258 294.955677,482.432617 C293.32677,480.750977 291.229114,479.910156 288.662708,479.910156 C286.354114,479.910156 284.397083,480.601562 282.791614,481.984375 C280.869739,483.648438 279.908802,486.208984 279.908802,489.666016 C279.908802,492.818359 280.714466,495.232422 282.325794,496.908203 C283.937122,498.583984 286.049427,499.421875 288.662708,499.421875 Z M288.662708,496.820312 C287.080677,496.820312 285.768177,496.225586 284.725208,495.036133 C283.682239,493.84668 283.160755,492.056641 283.160755,489.666016 C283.160755,487.275391 283.682239,485.488281 284.725208,484.304688 C285.768177,483.121094 287.080677,482.529297 288.662708,482.529297 C290.221302,482.529297 291.525012,483.124023 292.573841,484.313477 C293.622669,485.50293 294.147083,487.251953 294.147083,489.560547 C294.147083,492.009766 293.625598,493.832031 292.58263,495.027344 C291.539661,496.222656 290.23302,496.820312 288.662708,496.820312 Z M304.884849,506.154297 L304.884849,497.066406 C305.423911,497.746094 306.112388,498.308594 306.950278,498.753906 C307.788169,499.199219 308.734458,499.421875 309.789146,499.421875 C311.230552,499.421875 312.604575,499.014648 313.911216,498.200195 C315.217857,497.385742 316.21395,496.213867 316.899497,494.68457 C317.585044,493.155273 317.927817,491.435547 317.927817,489.525391 C317.927817,487.744141 317.617271,486.106445 316.996177,484.612305 C316.375083,483.118164 315.455161,481.960938 314.236411,481.140625 C313.017661,480.320312 311.611411,479.910156 310.017661,479.910156 C308.798911,479.910156 307.761802,480.147461 306.906333,480.62207 C306.050864,481.09668 305.283286,481.808594 304.603599,482.757812 L304.603599,482.757812 L304.603599,480.332031 L301.720786,480.332031 L301.720786,506.154297 L304.884849,506.154297 Z M309.578208,496.820312 C308.195396,496.820312 307.017661,496.246094 306.045005,495.097656 C305.072349,493.949219 304.586021,492.173828 304.586021,489.771484 C304.586021,487.369141 305.104575,485.538086 306.141685,484.27832 C307.178794,483.018555 308.371177,482.388672 309.718833,482.388672 C311.078208,482.388672 312.247153,482.980469 313.225669,484.164062 C314.204185,485.347656 314.693442,487.128906 314.693442,489.507812 C314.693442,492.003906 314.192466,493.84668 313.190513,495.036133 C312.18856,496.225586 310.984458,496.820312 309.578208,496.820312 Z M337.41949,506.154297 L337.41949,480.332031 L334.571833,480.332031 L334.571833,482.828125 C333.247615,480.882812 331.431208,479.910156 329.122615,479.910156 C327.646052,479.910156 326.289607,480.293945 325.053279,481.061523 C323.816951,481.829102 322.873591,482.957031 322.223201,484.445312 C321.57281,485.933594 321.247615,487.615234 321.247615,489.490234 C321.247615,492.572266 322.047419,494.998047 323.647029,496.767578 C325.246638,498.537109 327.153865,499.421875 329.368708,499.421875 C330.364802,499.421875 331.305232,499.193359 332.189998,498.736328 C333.074763,498.279297 333.76324,497.705078 334.255427,497.013672 L334.255427,497.013672 L334.255427,506.154297 L337.41949,506.154297 Z M329.63238,496.820312 C328.22613,496.820312 327.019099,496.219727 326.011287,495.018555 C325.003474,493.817383 324.499568,492.015625 324.499568,489.613281 C324.499568,487.140625 324.977107,485.321289 325.932185,484.155273 C326.887263,482.989258 328.050349,482.40625 329.421443,482.40625 C330.804255,482.40625 332.008357,483.033203 333.033748,484.287109 C334.059138,485.541016 334.571833,487.410156 334.571833,489.894531 C334.571833,492.226562 334.085505,493.963867 333.112849,495.106445 C332.140193,496.249023 330.980037,496.820312 329.63238,496.820312 Z M346.118193,499 L346.118193,489.226562 C346.118193,487.890625 346.293974,486.660156 346.645537,485.535156 C346.879912,484.796875 347.27249,484.219727 347.823271,483.803711 C348.374053,483.387695 348.995146,483.179688 349.686553,483.179688 C350.45999,483.179688 351.233428,483.408203 352.006865,483.865234 L352.006865,483.865234 L353.096709,480.929688 C351.995146,480.25 350.911162,479.910156 349.844756,479.910156 C349.106474,479.910156 348.429717,480.121094 347.814482,480.542969 C347.199248,480.964844 346.528349,481.837891 345.801787,483.162109 L345.801787,483.162109 L345.801787,480.332031 L342.954131,480.332031 L342.954131,499 L346.118193,499 Z M362.305178,499.421875 C363.770022,499.421875 365.082522,499.166992 366.242678,498.657227 C367.402834,498.147461 368.290529,497.426758 368.905764,496.495117 C369.520998,495.563477 369.828615,494.570312 369.828615,493.515625 C369.828615,492.4375 369.576662,491.535156 369.072756,490.808594 C368.56885,490.082031 367.874514,489.52832 366.989748,489.147461 C366.104983,488.766602 364.543459,488.277344 362.305178,487.679688 C360.758303,487.257812 359.826662,486.988281 359.510256,486.871094 C358.959475,486.648438 358.555178,486.367188 358.297365,486.027344 C358.039553,485.699219 357.910647,485.330078 357.910647,484.919922 C357.910647,484.275391 358.221193,483.712891 358.842287,483.232422 C359.463381,482.751953 360.50049,482.511719 361.953615,482.511719 C363.184084,482.511719 364.136233,482.78125 364.810061,483.320312 C365.483889,483.859375 365.891115,484.609375 366.03174,485.570312 L366.03174,485.570312 L369.12549,485.148438 C368.926272,483.941406 368.56299,482.977539 368.035647,482.256836 C367.508303,481.536133 366.69092,480.964844 365.583498,480.542969 C364.476076,480.121094 363.189943,479.910156 361.7251,479.910156 C360.752443,479.910156 359.841311,480.036133 358.991701,480.288086 C358.142092,480.540039 357.471193,480.847656 356.979006,481.210938 C356.322756,481.679688 355.804201,482.268555 355.423342,482.977539 C355.042483,483.686523 354.852053,484.457031 354.852053,485.289062 C354.852053,486.203125 355.083498,487.038086 355.546389,487.793945 C356.009279,488.549805 356.688967,489.141602 357.585451,489.569336 C358.481936,489.99707 360.090334,490.503906 362.410647,491.089844 C364.133303,491.523438 365.211428,491.880859 365.645022,492.162109 C366.266115,492.572266 366.576662,493.134766 366.576662,493.849609 C366.576662,494.646484 366.2251,495.34082 365.521975,495.932617 C364.81885,496.524414 363.740725,496.820312 362.2876,496.820312 C360.846193,496.820312 359.724123,496.486328 358.921389,495.818359 C358.118654,495.150391 357.629397,494.189453 357.453615,492.935547 L357.453615,492.935547 L354.324709,493.427734 C354.676272,495.408203 355.487795,496.902344 356.759279,497.910156 C358.030764,498.917969 359.879397,499.421875 362.305178,499.421875 Z M379.177709,499.246094 C379.880834,499.246094 380.677709,499.152344 381.568334,498.964844 L381.568334,498.964844 L381.111303,496.169922 C380.537084,496.251953 380.074194,496.292969 379.722631,496.292969 C379.253881,496.292969 378.89353,496.216797 378.641577,496.064453 C378.389624,495.912109 378.207983,495.707031 378.096655,495.449219 C377.985327,495.191406 377.929663,494.611328 377.929663,493.708984 L377.929663,493.708984 L377.929663,482.792969 L381.111303,482.792969 L381.111303,480.332031 L377.929663,480.332031 L377.929663,473.810547 L374.783178,475.708984 L374.783178,480.332031 L372.462866,480.332031 L372.462866,482.792969 L374.783178,482.792969 L374.783178,493.533203 C374.783178,495.431641 374.912084,496.676758 375.169897,497.268555 C375.427709,497.860352 375.873022,498.337891 376.505834,498.701172 C377.138647,499.064453 378.029272,499.246094 379.177709,499.246094 Z M391.128366,499.421875 C393.62446,499.421875 395.599069,498.367188 397.052194,496.257812 L397.052194,496.257812 L397.052194,499 L399.882272,499 L399.882272,480.332031 L396.71821,480.332031 L396.71821,490.333984 C396.71821,491.927734 396.545358,493.143555 396.199655,493.981445 C395.853952,494.819336 395.265085,495.481445 394.433054,495.967773 C393.601022,496.454102 392.710397,496.697266 391.761179,496.697266 C390.81196,496.697266 390.015085,496.459961 389.370554,495.985352 C388.726022,495.510742 388.304147,494.857422 388.104929,494.025391 C387.976022,493.451172 387.911569,492.337891 387.911569,490.685547 L387.911569,490.685547 L387.911569,480.332031 L384.747507,480.332031 L384.747507,491.898438 C384.747507,493.246094 384.81196,494.230469 384.940866,494.851562 C385.128366,495.777344 385.453561,496.55957 385.916452,497.198242 C386.379343,497.836914 387.088327,498.367188 388.043405,498.789062 C388.998483,499.210938 390.026804,499.421875 391.128366,499.421875 Z M413.590741,499 L420.657148,480.332031 L417.405194,480.332031 L413.256757,491.722656 C412.752851,493.105469 412.360273,494.289062 412.079023,495.273438 C411.715741,493.972656 411.317304,492.71875 410.88371,491.511719 L410.88371,491.511719 L406.875898,480.332031 L403.536054,480.332031 L410.637616,499 L413.590741,499 Z M430.814835,499 L434.594132,484.638672 L435.314835,487.820312 L438.285539,499 L441.572648,499 L447.408585,480.332031 L444.332414,480.332031 L441.133195,491.125 L440.060929,494.728516 L439.129289,491.160156 L436.334367,480.332031 L433.082414,480.332031 L430.11171,491.265625 C429.514054,493.632812 429.191789,494.916016 429.144914,495.115234 L429.144914,495.115234 L428.037492,491.107422 L425.066789,480.332031 L421.797257,480.332031 L427.510148,499 L430.814835,499 Z M452.398305,499 L457.302601,491.634766 L458.322133,493.199219 L462.154164,499 L466.03893,499 L459.09557,489.121094 L465.546742,480.332031 L461.767445,480.332031 L458.620961,484.744141 C458.187367,485.341797 457.712758,486.027344 457.197133,486.800781 C456.869008,486.238281 456.435414,485.541016 455.896351,484.708984 L455.896351,484.708984 L453.031117,480.332031 L449.076039,480.332031 L455.386586,489.296875 L448.566273,499 L452.398305,499 Z M471.186852,506.576172 C472.194664,506.576172 473.061852,506.333008 473.788414,505.84668 C474.514977,505.360352 475.159508,504.595703 475.722008,503.552734 C476.143883,502.779297 476.73568,501.367188 477.497399,499.316406 L477.497399,499.316406 L484.598961,480.332031 L481.434899,480.332031 L477.444664,491.212891 C476.940758,492.595703 476.507164,494.013672 476.143883,495.466797 C475.745445,493.955078 475.294274,492.513672 474.790367,491.142578 L474.790367,491.142578 L470.905602,480.332031 L467.495445,480.332031 L474.57943,499.035156 C474.450524,499.375 474.356774,499.632812 474.29818,499.808594 C473.852867,501.0625 473.530602,501.847656 473.331383,502.164062 C473.061852,502.585938 472.716149,502.914062 472.294274,503.148438 C471.872399,503.382812 471.309899,503.5 470.606774,503.5 C470.091149,503.5 469.487633,503.40625 468.796227,503.21875 L468.796227,503.21875 L469.147789,506.189453 C469.897789,506.447266 470.577477,506.576172 471.186852,506.576172 Z M502.754696,499 L502.754696,496.275391 L494.123836,496.275391 C492.881649,496.275391 491.551571,496.328125 490.133602,496.433594 L490.133602,496.433594 L492.084774,494.271484 L502.192196,482.423828 L502.192196,480.332031 L486.934383,480.332031 L486.934383,482.898438 L494.545711,482.898438 C495.576961,482.898438 496.766415,482.863281 498.114071,482.792969 L498.114071,482.792969 L486.231258,496.433594 L486.231258,499 L502.754696,499 Z M33.5683594,540 L36.3984375,532.195312 L47.1738281,532.195312 L50.1796875,540 L54.0644531,540 L43.5175781,514.230469 L39.84375,514.230469 L29.9472656,540 L33.5683594,540 Z M46.1191406,529.417969 L37.3828125,529.417969 L40.2128906,521.859375 C40.8105469,520.230469 41.2734375,518.589844 41.6015625,516.9375 C42,518.332031 42.609375,520.113281 43.4296875,522.28125 L43.4296875,522.28125 L46.1191406,529.417969 Z M67.0873753,540 C68.7280003,540 70.1137425,539.856445 71.2446019,539.569336 C72.3754613,539.282227 73.315891,538.857422 74.065891,538.294922 C74.815891,537.732422 75.4457738,536.932617 75.9555394,535.895508 C76.465305,534.858398 76.7201878,533.736328 76.7201878,532.529297 C76.7201878,531.029297 76.3012425,529.728516 75.4633519,528.626953 C74.6254613,527.525391 73.4272191,526.746094 71.8686253,526.289062 C73.0756566,525.691406 73.9780003,524.90625 74.5756566,523.933594 C75.1733128,522.960938 75.472141,521.923828 75.472141,520.822266 C75.472141,519.638672 75.1352269,518.504883 74.4613988,517.420898 C73.7875706,516.336914 72.85593,515.53418 71.6664769,515.012695 C70.4770238,514.491211 68.8979222,514.230469 66.9291722,514.230469 L66.9291722,514.230469 L57.2612035,514.230469 L57.2612035,540 L67.0873753,540 Z M66.2436253,525.058594 L60.6713597,525.058594 L60.6713597,517.271484 L65.8217503,517.271484 C67.6733128,517.271484 68.9799535,517.391602 69.7416722,517.631836 C70.503391,517.87207 71.0893285,518.317383 71.4994847,518.967773 C71.909641,519.618164 72.1147191,520.371094 72.1147191,521.226562 C72.1147191,522.128906 71.8949925,522.878906 71.4555394,523.476562 C71.0160863,524.074219 70.362766,524.501953 69.4955785,524.759766 C68.8393285,524.958984 67.7553441,525.058594 66.2436253,525.058594 L66.2436253,525.058594 Z M67.35593,536.95813 L60.6713597,536.958984 L60.6713597,528.099609 L66.6303441,528.099609 C68.2709691,528.099609 69.527805,528.243164 70.4008519,528.530273 C71.2738988,528.817383 71.956516,529.31543 72.4487035,530.024414 C72.940891,530.733398 73.1869847,531.568359 73.1869847,532.529297 C73.1869847,533.349609 73.0170628,534.073242 72.6772191,534.700195 C72.3373753,535.327148 71.9037816,535.804688 71.3764378,536.132812 C70.8490941,536.460938 70.1928441,536.695312 69.4076878,536.835938 C68.9623753,536.917969 68.1889378,536.958984 67.0873753,536.958984 L67.35593,536.95813 Z M93.1532663,540.439453 C95.83686,540.439453 98.1073679,539.704102 99.9647897,538.233398 C101.822212,536.762695 103.108344,534.626953 103.823188,531.826172 L103.823188,531.826172 L100.413032,530.964844 C99.9442819,533.132812 99.0477975,534.767578 97.7235788,535.869141 C96.39936,536.970703 94.7821725,537.521484 92.8720163,537.521484 C91.3017038,537.521484 89.8427194,537.117188 88.4950632,536.308594 C87.1474069,535.5 86.1542429,534.27832 85.515571,532.643555 C84.8768991,531.008789 84.5575632,529.095703 84.5575632,526.904297 C84.5575632,525.205078 84.8270944,523.555664 85.3661569,521.956055 C85.9052194,520.356445 86.8397897,519.082031 88.1698679,518.132812 C89.499946,517.183594 91.1552194,516.708984 93.1356882,516.708984 C94.8583444,516.708984 96.2880319,517.136719 97.4247507,517.992188 C98.5614694,518.847656 99.4286569,520.212891 100.026313,522.087891 L100.026313,522.087891 L103.383735,521.296875 C102.692329,518.917969 101.467719,517.072266 99.7099069,515.759766 C97.9520944,514.447266 95.7841257,513.791016 93.2060007,513.791016 C90.9325632,513.791016 88.8495554,514.30957 86.9569772,515.34668 C85.0643991,516.383789 83.6054147,517.901367 82.5800241,519.899414 C81.5546335,521.897461 81.0419382,524.238281 81.0419382,526.921875 C81.0419382,529.382812 81.4960397,531.685547 82.4042429,533.830078 C83.312446,535.974609 84.6366647,537.612305 86.3768991,538.743164 C88.1171335,539.874023 90.3759225,540.439453 93.1532663,540.439453 Z M117.935954,540 C119.494548,540 120.874431,539.853516 122.075603,539.560547 C123.276774,539.267578 124.302165,538.836914 125.151774,538.268555 C126.001384,537.700195 126.78361,536.920898 127.498454,535.930664 C128.213298,534.94043 128.799235,533.689453 129.256267,532.177734 C129.713298,530.666016 129.941813,528.931641 129.941813,526.974609 C129.941813,524.677734 129.604899,522.635742 128.931071,520.848633 C128.257243,519.061523 127.240642,517.59375 125.881267,516.445312 C124.838298,515.554688 123.578532,514.939453 122.10197,514.599609 C121.047282,514.353516 119.517985,514.230469 117.514079,514.230469 L117.514079,514.230469 L108.637126,514.230469 L108.637126,540 L117.935954,540 Z M117.549235,536.958984 L112.047282,536.958984 L112.047282,517.271484 L117.461345,517.271484 C119.488688,517.271484 120.959392,517.447266 121.873454,517.798828 C123.139079,518.291016 124.214274,519.260742 125.09904,520.708008 C125.983806,522.155273 126.426188,524.226562 126.426188,526.921875 C126.426188,528.867188 126.200603,530.522461 125.749431,531.887695 C125.298259,533.25293 124.668376,534.339844 123.859782,535.148438 C123.285563,535.722656 122.515056,536.167969 121.548259,536.484375 C120.581462,536.800781 119.248454,536.958984 117.549235,536.958984 L117.549235,536.958984 Z M154.54872,540 L154.54872,536.958984 L138.728408,536.958984 L138.728408,528.1875 L152.984267,528.1875 L152.984267,525.164062 L138.728408,525.164062 L138.728408,517.271484 L153.951064,517.271484 L153.951064,514.230469 L135.318251,514.230469 L135.318251,540 L154.54872,540 Z M163.458361,540 L163.458361,528.292969 L175.552111,528.292969 L175.552111,525.251953 L163.458361,525.251953 L163.458361,517.271484 L177.43297,517.271484 L177.43297,514.230469 L160.048205,514.230469 L160.048205,540 L163.458361,540 Z M194.780111,540.439453 C196.655111,540.439453 198.483236,540.102539 200.264486,539.428711 C202.045736,538.754883 203.774252,537.75 205.450033,536.414062 L205.450033,536.414062 L205.450033,526.851562 L194.534018,526.869141 L194.534018,529.892578 L202.110189,529.892578 L202.110189,534.691406 C201.383627,535.335938 200.317221,535.942383 198.910971,536.510742 C197.504721,537.079102 196.063314,537.363281 194.586752,537.363281 C192.887533,537.363281 191.282064,536.988281 189.770346,536.238281 C188.258627,535.488281 187.10726,534.339844 186.316244,532.792969 C185.525229,531.246094 185.129721,529.324219 185.129721,527.027344 C185.129721,525.164062 185.457846,523.435547 186.114096,521.841797 C186.500814,520.916016 187.042807,520.066406 187.740072,519.292969 C188.437338,518.519531 189.35433,517.895508 190.491049,517.420898 C191.627768,516.946289 192.975424,516.708984 194.534018,516.708984 C195.834799,516.708984 197.018393,516.93457 198.084799,517.385742 C199.151205,517.836914 199.971518,518.4375 200.545736,519.1875 C201.119955,519.9375 201.600424,520.96875 201.987143,522.28125 L201.987143,522.28125 L205.063314,521.4375 C204.618002,519.703125 203.967611,518.296875 203.112143,517.21875 C202.256674,516.140625 201.07601,515.299805 199.57015,514.696289 C198.064291,514.092773 196.379721,513.791016 194.516439,513.791016 C191.950033,513.791016 189.682455,514.318359 187.713705,515.373047 C185.744955,516.427734 184.236166,518.041992 183.187338,520.21582 C182.13851,522.389648 181.614096,524.730469 181.614096,527.238281 C181.614096,529.769531 182.141439,532.060547 183.196127,534.111328 C184.250814,536.162109 185.812338,537.729492 187.880697,538.813477 C189.949057,539.897461 192.248861,540.439453 194.780111,540.439453 Z M214.605768,540 L214.605768,527.853516 L228.000299,527.853516 L228.000299,540 L231.410455,540 L231.410455,514.230469 L228.000299,514.230469 L228.000299,524.8125 L214.605768,524.8125 L214.605768,514.230469 L211.195612,514.230469 L211.195612,540 L214.605768,540 Z M241.69119,540 L241.69119,514.230469 L238.281034,514.230469 L238.281034,540 L241.69119,540 Z M253.501222,540.439453 C255.024659,540.439453 256.351808,540.128906 257.482667,539.507812 C258.613526,538.886719 259.439698,537.984375 259.961183,536.800781 C260.482667,535.617188 260.743409,533.947266 260.743409,531.791016 L260.743409,531.791016 L260.743409,514.230469 L257.333253,514.230469 L257.333253,531.984375 C257.333253,533.460938 257.216065,534.536133 256.98169,535.209961 C256.747315,535.883789 256.319581,536.416992 255.698487,536.80957 C255.077394,537.202148 254.339112,537.398438 253.483644,537.398438 C252.323487,537.398438 251.415284,537.035156 250.759034,536.308594 C250.102784,535.582031 249.733644,534.234375 249.651612,532.265625 L249.651612,532.265625 L246.57544,532.6875 C246.528565,535.253906 247.105714,537.1875 248.306886,538.488281 C249.508058,539.789062 251.239503,540.439453 253.501222,540.439453 Z M270.197972,540 L270.197972,531.070312 L274.416722,526.957031 L283.592503,540 L288.092503,540 L276.807347,524.671875 L287.617894,514.230469 L282.994847,514.230469 L270.197972,527.009766 L270.197972,514.230469 L266.787816,514.230469 L266.787816,540 L270.197972,540 Z M307.513863,540 L307.513863,536.958984 L294.822457,536.958984 L294.822457,514.230469 L291.412301,514.230469 L291.412301,540 L307.513863,540 Z M315.368816,540 L315.368816,518.0625 L322.821941,540 L325.898113,540 L333.386395,518.431641 L333.386395,540 L336.673504,540 L336.673504,514.230469 L332.085613,514.230469 L325.915691,532.160156 C325.294598,533.976562 324.837566,535.353516 324.544598,536.291016 C324.286785,535.447266 323.876629,534.175781 323.314129,532.476562 L323.314129,532.476562 L317.21452,514.230469 L312.081707,514.230469 L312.081707,540 L315.368816,540 Z M346.022598,540 L346.022598,519.75 L359.557754,540 L363.055801,540 L363.055801,514.230469 L359.78627,514.230469 L359.78627,534.462891 L346.251114,514.230469 L342.753067,514.230469 L342.753067,540 L346.022598,540 Z M380.684192,540.439453 C382.922473,540.439453 385.008411,539.90918 386.942005,538.848633 C388.875598,537.788086 390.369739,536.226562 391.424427,534.164062 C392.479114,532.101562 393.006458,529.763672 393.006458,527.150391 C393.006458,524.572266 392.505481,522.266602 391.503528,520.233398 C390.501575,518.200195 389.04552,516.615234 387.135364,515.478516 C385.225208,514.341797 383.080677,513.773438 380.70177,513.773438 C377.068958,513.773438 374.104114,514.983398 371.807239,517.40332 C369.510364,519.823242 368.361927,523.171875 368.361927,527.449219 C368.361927,529.710938 368.854114,531.855469 369.838489,533.882812 C370.822864,535.910156 372.27013,537.509766 374.180286,538.681641 C376.090442,539.853516 378.258411,540.439453 380.684192,540.439453 Z M380.666614,537.521484 C378.147083,537.521484 376.052356,536.62793 374.382434,534.84082 C372.712512,533.053711 371.877552,530.607422 371.877552,527.501953 C371.877552,523.623047 372.747669,520.854492 374.487903,519.196289 C376.228137,517.538086 378.305286,516.708984 380.719348,516.708984 C382.418567,516.708984 383.950794,517.139648 385.316028,518.000977 C386.681262,518.862305 387.718372,520.075195 388.427356,521.639648 C389.136341,523.204102 389.490833,525.035156 389.490833,527.132812 C389.490833,530.449219 388.661731,533.009766 387.003528,534.814453 C385.345325,536.619141 383.23302,537.521484 380.666614,537.521484 Z M401.423911,540 L401.423911,529.523438 L408.033286,529.523438 C411.677817,529.523438 414.197349,528.764648 415.59188,527.24707 C416.986411,525.729492 417.683677,523.875 417.683677,521.683594 C417.683677,520.40625 417.422935,519.234375 416.90145,518.167969 C416.379966,517.101562 415.691489,516.272461 414.836021,515.680664 C413.980552,515.088867 412.920005,514.6875 411.65438,514.476562 C410.752036,514.3125 409.445396,514.230469 407.734458,514.230469 L407.734458,514.230469 L398.013755,514.230469 L398.013755,540 L401.423911,540 Z M408.086021,526.482422 L401.423911,526.482422 L401.423911,517.271484 L408.015708,517.271484 C409.562583,517.271484 410.62313,517.347656 411.197349,517.5 C412.087974,517.746094 412.805747,518.25293 413.350669,519.020508 C413.895591,519.788086 414.168052,520.710938 414.168052,521.789062 C414.168052,523.277344 413.705161,524.431641 412.77938,525.251953 C411.853599,526.072266 410.289146,526.482422 408.086021,526.482422 L408.086021,526.482422 Z M445.542537,542.003906 L446.54449,539.630859 C445.208552,539.126953 443.749568,538.330078 442.167537,537.240234 C443.468318,535.986328 444.440974,534.512695 445.085505,532.819336 C445.730037,531.125977 446.052302,529.21875 446.052302,527.097656 C446.052302,524.542969 445.551326,522.249023 444.549373,520.21582 C443.547419,518.182617 442.091365,516.600586 440.181208,515.469727 C438.271052,514.338867 436.126521,513.773438 433.747615,513.773438 C431.392146,513.773438 429.262263,514.318359 427.357966,515.408203 C425.453669,516.498047 423.985896,518.085938 422.954646,520.171875 C421.923396,522.257812 421.407771,524.572266 421.407771,527.115234 C421.407771,529.669922 421.920466,531.966797 422.945857,534.005859 C423.971248,536.044922 425.433162,537.626953 427.331599,538.751953 C429.230037,539.876953 431.345271,540.439453 433.677302,540.439453 C435.985896,540.439453 438.095271,539.90625 440.005427,538.839844 C441.845271,540.28125 443.690974,541.335938 445.542537,542.003906 L445.542537,542.003906 Z M433.765193,537.521484 C431.187068,537.521484 429.068904,536.625 427.410701,534.832031 C425.752498,533.039062 424.923396,530.466797 424.923396,527.115234 C424.923396,523.658203 425.761287,521.05957 427.437068,519.319336 C429.112849,517.579102 431.222224,516.708984 433.765193,516.708984 C435.464412,516.708984 436.996638,517.139648 438.361873,518.000977 C439.727107,518.862305 440.764216,520.072266 441.473201,521.630859 C442.182185,523.189453 442.536677,525.011719 442.536677,527.097656 C442.536677,530.765625 441.534724,533.513672 439.530818,535.341797 C438.253474,534.251953 436.630427,533.431641 434.661677,532.880859 L434.661677,532.880859 L433.835505,535.359375 C435.019099,535.652344 436.144099,536.144531 437.210505,536.835938 C436.13238,537.292969 434.983943,537.521484 433.765193,537.521484 Z M454.715849,540 L454.715849,528.556641 L458.670928,528.556641 C459.549834,528.556641 460.182646,528.597656 460.569365,528.679688 C461.096709,528.808594 461.615263,529.037109 462.125029,529.365234 C462.634795,529.693359 463.211943,530.267578 463.856474,531.087891 C464.501006,531.908203 465.321318,533.091797 466.317412,534.638672 L466.317412,534.638672 L469.727568,540 L474.016631,540 L469.534209,532.986328 C468.643584,531.615234 467.700224,530.472656 466.704131,529.558594 C466.235381,529.136719 465.549834,528.708984 464.64749,528.275391 C467.120146,527.935547 468.948271,527.138672 470.131865,525.884766 C471.315459,524.630859 471.907256,523.089844 471.907256,521.261719 C471.907256,519.84375 471.549834,518.548828 470.83499,517.376953 C470.120146,516.205078 469.165068,515.387695 467.969756,514.924805 C466.774443,514.461914 465.028349,514.230469 462.731474,514.230469 L462.731474,514.230469 L451.305693,514.230469 L451.305693,540 L454.715849,540 Z M462.045928,525.603516 L454.715849,525.603516 L454.715849,517.078125 L462.872099,517.078125 C464.782256,517.078125 466.179717,517.470703 467.064482,518.255859 C467.949248,519.041016 468.391631,520.042969 468.391631,521.261719 C468.391631,522.09375 468.163115,522.864258 467.706084,523.573242 C467.249053,524.282227 466.581084,524.797852 465.702178,525.120117 C464.823271,525.442383 463.604521,525.603516 462.045928,525.603516 L462.045928,525.603516 Z M487.689943,540.439453 C489.529787,540.439453 491.185061,540.102539 492.655764,539.428711 C494.126467,538.754883 495.254397,537.811523 496.039553,536.598633 C496.824709,535.385742 497.217287,534.09375 497.217287,532.722656 C497.217287,531.339844 496.859865,530.118164 496.145022,529.057617 C495.430178,527.99707 494.322756,527.121094 492.822756,526.429688 C491.791506,525.960938 489.890139,525.413086 487.118654,524.786133 C484.34717,524.15918 482.633303,523.546875 481.977053,522.949219 C481.309084,522.351562 480.9751,521.589844 480.9751,520.664062 C480.9751,519.597656 481.446779,518.686523 482.390139,517.930664 C483.333498,517.174805 484.836428,516.796875 486.898928,516.796875 C488.879397,516.796875 490.376467,517.212891 491.390139,518.044922 C492.403811,518.876953 492.998537,520.107422 493.174318,521.736328 L493.174318,521.736328 L496.44385,521.490234 C496.385256,519.978516 495.963381,518.625 495.178225,517.429688 C494.393068,516.234375 493.270998,515.329102 491.812014,514.713867 C490.353029,514.098633 488.668459,513.791016 486.758303,513.791016 C485.023928,513.791016 483.447756,514.083984 482.029787,514.669922 C480.611818,515.255859 479.533693,516.114258 478.795412,517.245117 C478.057131,518.375977 477.68799,519.591797 477.68799,520.892578 C477.68799,522.076172 477.989748,523.145508 478.593264,524.100586 C479.196779,525.055664 480.113772,525.855469 481.34424,526.5 C482.293459,527.003906 483.951662,527.540039 486.31885,528.108398 C488.686037,528.676758 490.215334,529.095703 490.90674,529.365234 C491.984865,529.775391 492.758303,530.282227 493.227053,530.885742 C493.695803,531.489258 493.930178,532.195312 493.930178,533.003906 C493.930178,533.800781 493.687014,534.536133 493.200686,535.209961 C492.714358,535.883789 491.973147,536.414062 490.977053,536.800781 C489.980959,537.1875 488.832522,537.380859 487.53174,537.380859 C486.066897,537.380859 484.748537,537.125977 483.576662,536.616211 C482.404787,536.106445 481.540529,535.438477 480.983889,534.612305 C480.427248,533.786133 480.072756,532.728516 479.920412,531.439453 L479.920412,531.439453 L476.703615,531.720703 C476.75049,533.443359 477.22217,534.987305 478.118654,536.352539 C479.015139,537.717773 480.251467,538.740234 481.827639,539.419922 C483.403811,540.099609 485.357912,540.439453 487.689943,540.439453 Z M512.455053,540 L512.455053,517.271484 L520.980444,517.271484 L520.980444,514.230469 L500.554663,514.230469 L500.554663,517.271484 L509.044897,517.271484 L509.044897,540 L512.455053,540 Z M535.339304,540.439453 C537.823679,540.439453 539.830514,539.961914 541.359811,539.006836 C542.889108,538.051758 543.946725,536.8125 544.532663,535.289062 C545.1186,533.765625 545.411569,531.708984 545.411569,529.119141 L545.411569,529.119141 L545.411569,514.230469 L542.001413,514.230469 L542.001413,529.101562 C542.001413,532.335938 541.46821,534.521484 540.401804,535.658203 C539.335397,536.794922 537.548288,537.363281 535.040475,537.363281 C533.575632,537.363281 532.336374,537.076172 531.322702,536.501953 C530.30903,535.927734 529.594186,535.110352 529.178171,534.049805 C528.762155,532.989258 528.554147,531.339844 528.554147,529.101562 L528.554147,529.101562 L528.554147,514.230469 L525.143991,514.230469 L525.143991,529.119141 C525.143991,531.849609 525.472116,534.00293 526.128366,535.579102 C526.784616,537.155273 527.880319,538.359375 529.415475,539.191406 C530.950632,540.023438 532.925241,540.439453 535.339304,540.439453 Z M562.565351,540 L572.655194,514.230469 L569.174726,514.230469 L562.213788,532.951172 C561.686444,534.357422 561.223554,535.763672 560.825116,537.169922 C560.461835,535.857422 560.010663,534.451172 559.471601,532.951172 L559.471601,532.951172 L552.774335,514.230469 L549.082929,514.230469 L559.067304,540 L562.565351,540 Z M584.307023,540 L589.77382,520.365234 C590.008195,519.533203 590.260148,518.525391 590.529679,517.341797 C590.61171,517.716797 590.881242,518.724609 591.338273,520.365234 L591.338273,520.365234 L596.769914,540 L600.057023,540 L607.123429,514.230469 L603.695695,514.230469 L599.652726,530.789062 C599.125382,532.898438 598.697648,534.767578 598.369523,536.396484 C597.959367,533.548828 597.291398,530.507812 596.365617,527.273438 L596.365617,527.273438 L592.67421,514.230469 L588.560929,514.230469 L583.656632,531.632812 C583.539445,532.054688 583.152726,533.642578 582.496476,536.396484 C582.191789,534.650391 581.828507,532.892578 581.406632,531.123047 L581.406632,531.123047 L577.48671,514.230469 L573.988664,514.230469 L580.826554,540 L584.307023,540 Z M612.394398,540 L618.863148,531.017578 C619.109242,530.666016 619.519398,530.021484 620.093617,529.083984 C620.480336,529.705078 620.855336,530.279297 621.218617,530.806641 L621.218617,530.806641 L627.704945,540 L631.923695,540 L622.167836,526.376953 L631.22057,514.230469 L627.511586,514.230469 L622.326039,521.068359 C621.540883,522.087891 620.861195,523.066406 620.286976,524.003906 C619.87682,523.265625 619.185414,522.210938 618.212758,520.839844 L618.212758,520.839844 L613.536976,514.230469 L609.47643,514.230469 L618.265492,526.570312 L608.298695,540 L612.394398,540 Z M646.212242,540 L646.212242,529.083984 L656.495445,514.230469 L652.522789,514.230469 L647.530602,521.806641 C646.429039,523.494141 645.491539,525.011719 644.718102,526.359375 C643.909508,524.90625 643.036461,523.453125 642.098961,522 L642.098961,522 L637.018883,514.230469 L632.870445,514.230469 L642.802086,529.083984 L642.802086,540 L646.212242,540 Z M678.483211,540 L678.483211,536.958984 L662.030086,536.958984 L663.59454,535.148438 L678.061336,517.271484 L678.061336,514.230469 L659.604305,514.230469 L659.604305,517.271484 L673.983211,517.271484 C673.139461,518.138672 672.248836,519.158203 671.311336,520.330078 L671.311336,520.330078 L658.110165,536.835938 L658.110165,540 L678.483211,540 Z M39.8964844,581.439453 C41.7832031,581.439453 43.3447266,580.932617 44.5810547,579.918945 C45.8173828,578.905273 46.7460938,577.469727 47.3671875,575.612305 C47.9882812,573.754883 48.2988281,571.314453 48.2988281,568.291016 C48.2988281,565.736328 48.1054688,563.706055 47.71875,562.200195 C47.3320312,560.694336 46.7988281,559.416992 46.1191406,558.368164 C45.4394531,557.319336 44.578125,556.516602 43.5351562,555.959961 C42.4921875,555.40332 41.2792969,555.125 39.8964844,555.125 C38.0214844,555.125 36.4658203,555.628906 35.2294922,556.636719 C33.9931641,557.644531 33.0615234,559.077148 32.4345703,560.93457 C31.8076172,562.791992 31.4941406,565.244141 31.4941406,568.291016 C31.4941406,573.130859 32.34375,576.623047 34.0429688,578.767578 C35.4609375,580.548828 37.4121094,581.439453 39.8964844,581.439453 Z M39.8964844,578.837891 C38.4433594,578.837891 37.2216797,578.137695 36.2314453,576.737305 C35.2412109,575.336914 34.7460938,572.521484 34.7460938,568.291016 C34.7460938,564.060547 35.2910156,561.160156 36.3808594,559.589844 C37.2480469,558.359375 38.4082031,557.744141 39.8613281,557.744141 C41.3378906,557.744141 42.5712891,558.441406 43.5615234,559.835938 C44.5517578,561.230469 45.046875,564.048828 45.046875,568.291016 C45.046875,572.509766 44.5517578,575.322266 43.5615234,576.728516 C42.5712891,578.134766 41.3496094,578.837891 39.8964844,578.837891 Z M64.0463597,581 L64.0463597,555.125 L62.0072972,555.125 C61.456516,556.238281 60.519016,557.386719 59.1947972,558.570312 C57.8705785,559.753906 56.3237035,560.761719 54.5541722,561.59375 L54.5541722,561.59375 L54.5541722,564.652344 C55.5385472,564.289062 56.6488988,563.744141 57.8852269,563.017578 C59.121555,562.291016 60.1205785,561.564453 60.8822972,560.837891 L60.8822972,560.837891 L60.8822972,581 L64.0463597,581 Z M89.3915475,581 L89.3915475,577.958984 L76.7528757,577.958984 C77.1044382,577.384766 77.5497507,576.813477 78.0888132,576.245117 C78.6278757,575.676758 79.8466257,574.595703 81.7450632,573.001953 C84.0185007,571.080078 85.6444772,569.568359 86.6229929,568.466797 C87.6015085,567.365234 88.3017038,566.316406 88.7235788,565.320312 C89.1454538,564.324219 89.3563913,563.310547 89.3563913,562.279297 C89.3563913,560.251953 88.6356882,558.552734 87.1942819,557.181641 C85.7528757,555.810547 83.7958444,555.125 81.3231882,555.125 C78.8739694,555.125 76.9227975,555.760742 75.4696725,557.032227 C74.0165475,558.303711 73.1786569,560.152344 72.9560007,562.578125 L72.9560007,562.578125 L76.2079538,562.912109 C76.2196725,561.294922 76.6825632,560.029297 77.5966257,559.115234 C78.5106882,558.201172 79.7294382,557.744141 81.2528757,557.744141 C82.6942819,557.744141 83.8632272,558.174805 84.7597116,559.036133 C85.656196,559.897461 86.1044382,560.955078 86.1044382,562.208984 C86.1044382,563.404297 85.6122507,564.672852 84.6278757,566.014648 C83.6435007,567.356445 81.7509225,569.175781 78.9501413,571.472656 C77.1454538,572.949219 75.765571,574.25 74.8104929,575.375 C73.8554147,576.5 73.1610788,577.642578 72.727485,578.802734 C72.4579538,579.505859 72.3349069,580.238281 72.3583444,581 L72.3583444,581 L89.3915475,581 Z M101.605876,581.457031 C104.113688,581.457031 106.187907,580.674805 107.828532,579.110352 C109.469157,577.545898 110.28947,575.638672 110.28947,573.388672 C110.28947,571.724609 109.867595,570.338867 109.023845,569.231445 C108.180095,568.124023 106.996501,567.394531 105.473063,567.042969 C106.644938,566.503906 107.529704,565.777344 108.12736,564.863281 C108.725017,563.949219 109.023845,562.935547 109.023845,561.822266 C109.023845,560.650391 108.710368,559.542969 108.083415,558.5 C107.456462,557.457031 106.551188,556.633789 105.367595,556.030273 C104.184001,555.426758 102.889079,555.125 101.482829,555.125 C99.4437666,555.125 97.7386885,555.708008 96.3675947,556.874023 C94.996501,558.040039 94.1175947,559.683594 93.730876,561.804688 L93.730876,561.804688 L96.8949385,562.367188 C97.1293135,560.820312 97.6566572,559.660156 98.4769697,558.886719 C99.2972822,558.113281 100.322673,557.726562 101.553142,557.726562 C102.795329,557.726562 103.809001,558.107422 104.594157,558.869141 C105.379313,559.630859 105.771892,560.591797 105.771892,561.751953 C105.771892,563.216797 105.232829,564.300781 104.154704,565.003906 C103.076579,565.707031 101.863688,566.058594 100.516032,566.058594 C100.387126,566.058594 100.217204,566.046875 100.006267,566.023438 L100.006267,566.023438 L99.6547041,568.800781 C100.545329,568.566406 101.28947,568.449219 101.887126,568.449219 C103.35197,568.449219 104.559001,568.920898 105.50822,569.864258 C106.457438,570.807617 106.932048,572.005859 106.932048,573.458984 C106.932048,574.982422 106.419353,576.259766 105.393962,577.291016 C104.368571,578.322266 103.111735,578.837891 101.623454,578.837891 C100.369548,578.837891 99.3060713,578.442383 98.4330244,577.651367 C97.5599776,576.860352 96.9418135,575.568359 96.5785322,573.775391 L96.5785322,573.775391 L93.4144697,574.197266 C93.6254072,576.341797 94.4779463,578.087891 95.9720869,579.435547 C97.4662276,580.783203 99.3441572,581.457031 101.605876,581.457031 Z M127.337783,581 L127.337783,574.830078 L130.818251,574.830078 L130.818251,571.929688 L127.337783,571.929688 L127.337783,555.230469 L124.753798,555.230469 L112.994033,571.929688 L112.994033,574.830078 L124.17372,574.830078 L124.17372,581 L127.337783,581 Z M124.17372,571.929688 L116.105361,571.929688 L124.17372,560.310547 L124.17372,571.929688 Z M142.944689,581.439453 C145.804064,581.439453 148.059924,580.396484 149.712267,578.310547 C151.071642,576.611328 151.75133,574.595703 151.75133,572.263672 C151.75133,569.814453 150.977892,567.810547 149.431017,566.251953 C147.884142,564.693359 145.985705,563.914062 143.735705,563.914062 C142.036486,563.914062 140.413439,564.453125 138.866564,565.53125 L138.866564,565.53125 L140.255236,558.605469 L150.538439,558.605469 L150.538439,555.582031 L137.723986,555.582031 L135.227892,568.818359 L138.198595,569.205078 C138.667345,568.466797 139.311877,567.866211 140.132189,567.40332 C140.952502,566.94043 141.872424,566.708984 142.891955,566.708984 C144.53258,566.708984 145.859728,567.230469 146.8734,568.273438 C147.887072,569.316406 148.393908,570.740234 148.393908,572.544922 C148.393908,574.443359 147.866564,575.966797 146.811877,577.115234 C145.757189,578.263672 144.468127,578.837891 142.944689,578.837891 C141.679064,578.837891 140.598009,578.430664 139.701525,577.616211 C138.805041,576.801758 138.233752,575.585938 137.987658,573.96875 L137.987658,573.96875 L134.665392,574.25 C134.87633,576.417969 135.723009,578.158203 137.205431,579.470703 C138.687853,580.783203 140.600939,581.439453 142.944689,581.439453 Z M164.106283,581.439453 C165.653158,581.439453 167.035971,581.070312 168.254721,580.332031 C169.473471,579.59375 170.431479,578.530273 171.128744,577.141602 C171.82601,575.75293 172.174643,574.25 172.174643,572.632812 C172.174643,570.171875 171.433432,568.165039 169.95101,566.612305 C168.468588,565.05957 166.672689,564.283203 164.563314,564.283203 C163.356283,564.283203 162.201986,564.564453 161.100424,565.126953 C159.998861,565.689453 159.067221,566.550781 158.305502,567.710938 C158.328939,565.132812 158.627768,563.146484 159.201986,561.751953 C159.776205,560.357422 160.561361,559.296875 161.557455,558.570312 C162.319174,558.007812 163.203939,557.726562 164.211752,557.726562 C165.465658,557.726562 166.520346,558.177734 167.375814,559.080078 C167.891439,559.642578 168.289877,560.544922 168.571127,561.787109 L168.571127,561.787109 L171.717611,561.541016 C171.459799,559.537109 170.683432,557.966797 169.38851,556.830078 C168.093588,555.693359 166.432455,555.125 164.405111,555.125 C161.686361,555.125 159.524252,556.109375 157.918783,558.078125 C156.078939,560.339844 155.159018,563.960938 155.159018,568.941406 C155.159018,573.394531 155.991049,576.59082 157.655111,578.530273 C159.319174,580.469727 161.469564,581.439453 164.106283,581.439453 Z M164.053549,578.837891 C163.139486,578.837891 162.266439,578.577148 161.434408,578.055664 C160.602377,577.53418 159.954916,576.775391 159.492025,575.779297 C159.029135,574.783203 158.797689,573.740234 158.797689,572.650391 C158.797689,570.986328 159.295736,569.641602 160.29183,568.616211 C161.287924,567.59082 162.500814,567.078125 163.930502,567.078125 C165.371908,567.078125 166.567221,567.59082 167.516439,568.616211 C168.465658,569.641602 168.940268,571.044922 168.940268,572.826172 C168.940268,574.677734 168.459799,576.142578 167.498861,577.220703 C166.537924,578.298828 165.389486,578.837891 164.053549,578.837891 Z M183.000299,581 C183.17608,578.433594 183.580377,576.072266 184.21319,573.916016 C185.092096,570.857422 186.337213,567.880859 187.948541,564.986328 C189.55987,562.091797 191.185846,559.771484 192.826471,558.025391 L192.826471,558.025391 L192.826471,555.564453 L176.14483,555.564453 L176.14483,558.605469 L188.765924,558.605469 C187.160455,560.433594 185.645807,562.680664 184.221979,565.34668 C182.798151,568.012695 181.705377,570.78125 180.943659,573.652344 C180.18194,576.523438 179.783502,578.972656 179.748346,581 L179.748346,581 L183.000299,581 Z M205.023221,581.439453 C207.56619,581.439453 209.616971,580.689453 211.175565,579.189453 C212.734159,577.689453 213.513456,575.837891 213.513456,573.634766 C213.513456,572.041016 213.10037,570.669922 212.274198,569.521484 C211.448026,568.373047 210.243925,567.541016 208.661893,567.025391 C209.939237,566.544922 210.891385,565.862305 211.518339,564.977539 C212.145292,564.092773 212.458768,563.052734 212.458768,561.857422 C212.458768,559.982422 211.773221,558.391602 210.402128,557.084961 C209.031034,555.77832 207.220487,555.125 204.970487,555.125 C202.732206,555.125 200.939237,555.763672 199.591581,557.041016 C198.243925,558.318359 197.570096,559.894531 197.570096,561.769531 C197.570096,563.011719 197.886503,564.078125 198.519315,564.96875 C199.152128,565.859375 200.124784,566.544922 201.437284,567.025391 C199.866971,567.435547 198.65701,568.206055 197.807401,569.336914 C196.957792,570.467773 196.532987,571.871094 196.532987,573.546875 C196.532987,575.796875 197.312284,577.674805 198.870878,579.180664 C200.429471,580.686523 202.480253,581.439453 205.023221,581.439453 Z M205.0408,565.8125 C203.786893,565.8125 202.767362,565.425781 201.982206,564.652344 C201.19705,563.878906 200.804471,562.882812 200.804471,561.664062 C200.804471,560.585938 201.202909,559.660156 201.999784,558.886719 C202.796659,558.113281 203.798612,557.726562 205.005643,557.726562 C206.200956,557.726562 207.199979,558.12207 208.002714,558.913086 C208.805448,559.704102 209.206815,560.679688 209.206815,561.839844 C209.206815,562.953125 208.817167,563.893555 208.03787,564.661133 C207.258573,565.428711 206.25955,565.8125 205.0408,565.8125 Z M205.058378,578.837891 C204.085721,578.837891 203.177518,578.606445 202.333768,578.143555 C201.490018,577.680664 200.854276,577.027344 200.426542,576.183594 C199.998807,575.339844 199.78494,574.466797 199.78494,573.564453 C199.78494,572.087891 200.274198,570.857422 201.252714,569.873047 C202.231229,568.888672 203.464628,568.396484 204.952909,568.396484 C206.476346,568.396484 207.744901,568.894531 208.758573,569.890625 C209.772245,570.886719 210.279081,572.146484 210.279081,573.669922 C210.279081,575.169922 209.786893,576.40625 208.802518,577.378906 C207.818143,578.351562 206.570096,578.837891 205.058378,578.837891 Z M224.91919,581.439453 C226.817628,581.439453 228.472901,580.929688 229.885011,579.910156 C231.29712,578.890625 232.360597,577.405273 233.07544,575.454102 C233.790284,573.50293 234.147706,570.880859 234.147706,567.587891 C234.147706,564.423828 233.787355,562.006836 233.066651,560.336914 C232.345948,558.666992 231.291261,557.380859 229.902589,556.478516 C228.513917,555.576172 226.98169,555.125 225.305909,555.125 C222.985597,555.125 221.054933,555.921875 219.513917,557.515625 C217.972901,559.109375 217.202394,561.212891 217.202394,563.826172 C217.202394,566.357422 217.940675,568.396484 219.417237,569.943359 C220.8938,571.490234 222.698487,572.263672 224.8313,572.263672 C226.108644,572.263672 227.295167,571.950195 228.39087,571.323242 C229.486573,570.696289 230.350831,569.878906 230.983644,568.871094 C230.995362,569.152344 231.001222,569.363281 231.001222,569.503906 C231.001222,570.816406 230.843019,572.105469 230.526612,573.371094 C230.210206,574.636719 229.817628,575.641602 229.348878,576.385742 C228.880128,577.129883 228.279542,577.724609 227.54712,578.169922 C226.814698,578.615234 225.962159,578.837891 224.989503,578.837891 C223.852784,578.837891 222.921144,578.515625 222.194581,577.871094 C221.468019,577.226562 220.975831,576.189453 220.718019,574.759766 L220.718019,574.759766 L217.677003,575.041016 C217.934815,577.068359 218.702394,578.641602 219.979737,579.760742 C221.257081,580.879883 222.903565,581.439453 224.91919,581.439453 Z M225.604737,569.46875 C224.151612,569.46875 222.929933,568.956055 221.939698,567.930664 C220.949464,566.905273 220.454347,565.572266 220.454347,563.931641 C220.454347,562.103516 220.975831,560.615234 222.0188,559.466797 C223.061769,558.318359 224.286378,557.744141 225.692628,557.744141 C227.052003,557.744141 228.215089,558.277344 229.181886,559.34375 C230.148683,560.410156 230.632081,561.851562 230.632081,563.667969 C230.632081,565.484375 230.160401,566.905273 229.217042,567.930664 C228.273683,568.956055 227.069581,569.46875 225.604737,569.46875 Z M268.015816,581.597656 L270.142769,579.083984 C268.642769,578.017578 267.300972,576.699219 266.117379,575.128906 C267.078316,573.675781 267.840035,571.824219 268.402535,569.574219 L268.402535,569.574219 L265.115426,568.871094 C264.822457,570.230469 264.412301,571.425781 263.884957,572.457031 L263.884957,572.457031 L259.26191,566.568359 C262.508004,564.833984 264.131051,562.742188 264.131051,560.292969 C264.131051,558.78125 263.57148,557.486328 262.45234,556.408203 C261.333199,555.330078 259.894722,554.791016 258.13691,554.791016 C256.297066,554.791016 254.770699,555.362305 253.557808,556.504883 C252.344918,557.647461 251.738472,558.992188 251.738472,560.539062 C251.738472,561.3125 251.931832,562.115234 252.318551,562.947266 C252.705269,563.779297 253.478707,564.863281 254.638863,566.199219 C252.599801,567.171875 251.067574,568.299805 250.042183,569.583008 C249.016793,570.866211 248.504097,572.304688 248.504097,573.898438 C248.504097,575.691406 249.131051,577.314453 250.384957,578.767578 C251.931832,580.548828 254.023629,581.439453 256.660347,581.439453 C258.090035,581.439453 259.420113,581.149414 260.650582,580.569336 C261.881051,579.989258 263.017769,579.119141 264.060738,577.958984 C265.420113,579.564453 266.738472,580.777344 268.015816,581.597656 L268.015816,581.597656 Z M257.627144,564.529297 L256.220894,562.894531 C255.810738,562.402344 255.503121,561.936523 255.298043,561.49707 C255.092965,561.057617 254.990426,560.638672 254.990426,560.240234 C254.990426,559.443359 255.274605,558.769531 255.842965,558.21875 C256.411324,557.667969 257.123238,557.392578 257.978707,557.392578 C258.810738,557.392578 259.505074,557.670898 260.061715,558.227539 C260.618355,558.78418 260.896676,559.501953 260.896676,560.380859 C260.896676,561.119141 260.694527,561.792969 260.29023,562.402344 C259.885933,563.011719 258.998238,563.720703 257.627144,564.529297 L257.627144,564.529297 Z M256.695504,578.644531 C255.172066,578.644531 253.994332,578.082031 253.162301,576.957031 C252.330269,575.832031 251.914254,574.748047 251.914254,573.705078 C251.914254,572.849609 252.213082,571.985352 252.810738,571.112305 C253.408394,570.239258 254.562691,569.292969 256.273629,568.273438 L256.273629,568.273438 L262.07441,575.462891 C261.465035,576.400391 260.653511,577.165039 259.63984,577.756836 C258.626168,578.348633 257.644722,578.644531 256.695504,578.644531 Z M292.007488,588.154297 L292.007488,585.869141 L271.036785,585.869141 L271.036785,588.154297 L292.007488,588.154297 Z M301.497207,565.759766 L303.606582,564.265625 C302.305801,562.671875 301.297989,561.564453 300.583145,560.943359 C302.012832,560.779297 303.471817,560.451172 304.960098,559.958984 L304.960098,559.958984 L304.151504,557.462891 C302.592911,557.978516 301.210098,558.541016 300.003067,559.150391 C300.237442,557.404297 300.372207,555.951172 300.407364,554.791016 L300.407364,554.791016 L297.858536,554.791016 C297.870254,555.587891 297.987442,557.046875 298.210098,559.167969 C297.366348,558.6875 296.012832,558.119141 294.149551,557.462891 L294.149551,557.462891 L293.340957,559.958984 C294.700332,560.322266 296.135879,560.650391 297.647598,560.943359 C297.061661,561.482422 296.089004,562.589844 294.729629,564.265625 L294.729629,564.265625 L296.803848,565.759766 C297.460098,564.892578 298.221817,563.632812 299.089004,561.980469 C300.014786,563.574219 300.81752,564.833984 301.497207,565.759766 L301.497207,565.759766 Z M326.578723,588.576172 C329.402942,588.576172 331.817005,588.204102 333.820911,587.459961 C335.824817,586.71582 337.553333,585.705078 339.006458,584.427734 C340.459583,583.150391 341.484973,581.896484 342.08263,580.666016 L342.08263,580.666016 L338.900989,580.666016 C337.869739,582.142578 336.317005,583.396484 334.242786,584.427734 C332.168567,585.458984 329.596302,585.974609 326.525989,585.974609 C323.654895,585.974609 321.038684,585.479492 318.677356,584.489258 C316.316028,583.499023 314.511341,581.966797 313.263294,579.892578 C312.015247,577.818359 311.391223,575.345703 311.391223,572.474609 C311.391223,569.732422 312.015247,567.163086 313.263294,564.766602 C314.511341,562.370117 316.269153,560.530273 318.536731,559.24707 C320.804309,557.963867 323.309192,557.322266 326.05138,557.322266 C328.453723,557.322266 330.648059,557.832031 332.634387,558.851562 C334.620716,559.871094 336.114856,561.230469 337.116809,562.929688 C338.118762,564.628906 338.619739,566.457031 338.619739,568.414062 C338.619739,570.089844 338.230091,571.71582 337.450794,573.291992 C336.671497,574.868164 335.61388,576.125 334.277942,577.0625 C333.27013,577.777344 332.455677,578.134766 331.834583,578.134766 C331.494739,578.134766 331.2047,578.020508 330.964466,577.791992 C330.724231,577.563477 330.604114,577.291016 330.604114,576.974609 C330.604114,576.798828 330.779895,575.890625 331.131458,574.25 L331.131458,574.25 L333.662708,562.455078 L330.516223,562.455078 L329.918567,565.179688 C329.250598,564.089844 328.453723,563.27832 327.527942,562.745117 C326.602161,562.211914 325.629505,561.945312 324.609973,561.945312 C323.274036,561.945312 321.897083,562.414062 320.479114,563.351562 C319.061145,564.289062 317.874622,565.692383 316.919544,567.561523 C315.964466,569.430664 315.486927,571.296875 315.486927,573.160156 C315.486927,574.671875 315.794544,576.060547 316.409778,577.326172 C317.025012,578.591797 317.824817,579.529297 318.809192,580.138672 C319.793567,580.748047 320.807239,581.052734 321.850208,581.052734 C322.799427,581.052734 323.745716,580.786133 324.689075,580.25293 C325.632434,579.719727 326.484973,579.013672 327.246692,578.134766 C327.317005,578.849609 327.428333,579.353516 327.580677,579.646484 C327.815052,580.103516 328.181262,580.455078 328.679309,580.701172 C329.177356,580.947266 329.830677,581.070312 330.63927,581.070312 C333.17052,581.070312 335.502552,579.886719 337.635364,577.519531 C340.025989,574.882812 341.221302,571.865234 341.221302,568.466797 C341.221302,566.087891 340.652942,563.884766 339.516223,561.857422 C338.180286,559.501953 336.355091,557.729492 334.040637,556.540039 C331.726184,555.350586 329.115833,554.755859 326.209583,554.755859 C322.459583,554.755859 319.269153,555.599609 316.638294,557.287109 C314.007434,558.974609 311.977161,561.40625 310.547473,564.582031 C309.375598,567.171875 308.789661,569.896484 308.789661,572.755859 C308.789661,575.322266 309.281848,577.712891 310.266223,579.927734 C311.05138,581.673828 312.217395,583.217773 313.76427,584.55957 C315.311145,585.901367 317.183216,586.90625 319.380481,587.574219 C321.577747,588.242188 323.977161,588.576172 326.578723,588.576172 Z M322.500598,578.451172 C321.516223,578.451172 320.643177,578.005859 319.881458,577.115234 C319.119739,576.224609 318.73888,574.976562 318.73888,573.371094 C318.73888,572.363281 318.92638,571.255859 319.30138,570.048828 C319.67638,568.841797 320.174427,567.816406 320.79552,566.972656 C321.416614,566.128906 322.058216,565.516602 322.720325,565.135742 C323.382434,564.754883 324.088489,564.564453 324.838489,564.564453 C325.975208,564.564453 326.939075,565.003906 327.730091,565.882812 C328.521106,566.761719 328.916614,567.998047 328.916614,569.591797 C328.916614,570.787109 328.705677,571.979492 328.283802,573.168945 C327.861927,574.358398 327.319934,575.339844 326.657825,576.113281 C325.995716,576.886719 325.30138,577.469727 324.574817,577.862305 C323.848255,578.254883 323.156848,578.451172 322.500598,578.451172 Z M355.334067,574.654297 C355.357505,573.388672 355.445396,572.474609 355.597739,571.912109 C355.750083,571.349609 355.984458,570.851562 356.300864,570.417969 C356.617271,569.984375 357.291099,569.310547 358.322349,568.396484 C359.857505,567.037109 360.888755,565.882812 361.416099,564.933594 C361.943442,563.984375 362.207114,562.947266 362.207114,561.822266 C362.207114,559.876953 361.457114,558.21875 359.957114,556.847656 C358.457114,555.476562 356.447349,554.791016 353.927817,554.791016 C351.548911,554.791016 349.635825,555.429688 348.18856,556.707031 C346.741294,557.984375 345.871177,559.824219 345.578208,562.226562 L345.578208,562.226562 L348.830161,562.613281 C349.111411,560.820312 349.703208,559.501953 350.605552,558.658203 C351.507896,557.814453 352.632896,557.392578 353.980552,557.392578 C355.375083,557.392578 356.552817,557.858398 357.513755,558.790039 C358.474692,559.72168 358.955161,560.802734 358.955161,562.033203 C358.955161,562.712891 358.791099,563.339844 358.462974,563.914062 C358.134849,564.488281 357.422935,565.258789 356.327232,566.225586 C355.231528,567.192383 354.472739,567.927734 354.050864,568.431641 C353.476646,569.123047 353.06063,569.808594 352.802817,570.488281 C352.451255,571.390625 352.275474,572.462891 352.275474,573.705078 C352.275474,573.916016 352.281333,574.232422 352.293052,574.654297 L352.293052,574.654297 L355.334067,574.654297 Z M355.703208,581 L355.703208,577.396484 L352.099692,577.396484 L352.099692,581 L355.703208,581 Z M367.179255,581.439453 L374.63238,554.791016 L372.10113,554.791016 L364.630427,581.439453 L367.179255,581.439453 Z M387.251006,576.833984 L387.251006,569.767578 L394.264678,569.767578 L394.264678,566.814453 L387.251006,566.814453 L387.251006,559.800781 L384.262724,559.800781 L384.262724,566.814453 L377.249053,566.814453 L377.249053,569.767578 L384.262724,569.767578 L384.262724,576.833984 L387.251006,576.833984 Z M407.56885,588.576172 C404.064943,582.951172 402.31299,577.320312 402.31299,571.683594 C402.31299,569.46875 402.564943,567.265625 403.06885,565.074219 C403.479006,563.316406 404.041506,561.628906 404.75635,560.011719 C405.213381,558.96875 406.150881,557.228516 407.56885,554.791016 L407.56885,554.791016 L405.301272,554.791016 C403.098147,557.732422 401.46924,560.685547 400.414553,563.650391 C399.512209,566.205078 399.061037,568.876953 399.061037,571.666016 C399.061037,574.830078 399.664553,577.888672 400.871584,580.841797 C402.078615,583.794922 403.555178,586.373047 405.301272,588.576172 L405.301272,588.576172 L407.56885,588.576172 Z M413.349584,586.097656 C414.369116,585.652344 415.113256,585.022461 415.582006,584.208008 C416.050756,583.393555 416.285131,582.324219 416.285131,581 L416.285131,581 L416.285131,577.396484 L412.681616,577.396484 L412.681616,581 L414.474584,581 C414.439428,582.066406 414.263647,582.883789 413.947241,583.452148 C413.630834,584.020508 413.138647,584.451172 412.470678,584.744141 L412.470678,584.744141 L413.349584,586.097656 Z M426.952585,565.935547 L426.952585,562.332031 L423.349069,562.332031 L423.349069,565.935547 L426.952585,565.935547 Z M426.952585,581 L426.952585,577.396484 L423.349069,577.396484 L423.349069,581 L426.952585,581 Z M437.514569,565.935547 L437.514569,562.332031 L433.911054,562.332031 L433.911054,565.935547 L437.514569,565.935547 Z M434.579023,586.097656 C435.598554,585.652344 436.342694,585.022461 436.811444,584.208008 C437.280194,583.393555 437.514569,582.324219 437.514569,581 L437.514569,581 L437.514569,577.396484 L433.911054,577.396484 L433.911054,581 L435.704023,581 C435.668866,582.066406 435.493085,582.883789 435.176679,583.452148 C434.860273,584.020508 434.368085,584.451172 433.700116,584.744141 L433.700116,584.744141 L434.579023,586.097656 Z M445.77382,588.576172 C447.508195,586.373047 448.981828,583.794922 450.194718,580.841797 C451.407609,577.888672 452.014054,574.830078 452.014054,571.666016 C452.014054,568.876953 451.562882,566.205078 450.660539,563.650391 C449.605851,560.685547 447.976945,557.732422 445.77382,554.791016 L445.77382,554.791016 L443.506242,554.791016 C444.935929,557.251953 445.879289,559.009766 446.33632,560.064453 C447.051164,561.681641 447.607804,563.369141 448.006242,565.126953 C448.510148,567.294922 448.762101,569.480469 448.762101,571.683594 C448.762101,577.320312 447.010148,582.951172 443.506242,588.576172 L443.506242,588.576172 L445.77382,588.576172 Z" id="arial"></path>
        </g>
    </g>
</svg>