<?xml version="1.0" encoding="UTF-8"?>
<svg width="712px" height="183px" viewBox="0 0 712 183" version="1.1" xmlns="http://www.w3.org/2000/svg" xmlns:xlink="http://www.w3.org/1999/xlink">
    <!-- Generator: Sketch 61.2 (89653) - https://sketch.com -->
    <title>walbaum</title>
    <desc>Created with Sketch.</desc>
    <g id="Logos" stroke="none" stroke-width="1" fill="none" fill-rule="evenodd">
        <g id="Artboard" transform="translate(-30.000000, -657.000000)" fill="#000000" fill-rule="nonzero">
            <path d="M48.576,692.576 L58.656,659.936 L58.752,659.936 L69.456,692.576 L71.184,692.576 L82.032,658.784 L85.344,658.784 L85.344,657.344 L75.936,657.344 L75.936,658.784 L80.544,658.784 L73.488,681.008 L73.392,681.008 L66.288,658.784 L70.896,658.784 L70.896,657.344 L53.184,657.344 L53.184,658.784 L57.792,658.784 L50.736,681.008 L50.64,681.008 L43.536,658.784 L48.144,658.784 L48.144,657.344 L31.968,657.344 L31.968,658.784 L35.424,658.784 L46.8,692.576 L48.576,692.576 Z M88.6090213,692.576 C92.9290213,692.576 95.5210213,691.312 96.3850213,688.784 L96.3850213,688.784 L96.4810213,688.784 C96.7050213,690.16 97.2170213,691.104 98.0170213,691.616 C98.7210213,692.064 99.8090213,692.288 101.281021,692.288 C102.497021,692.288 104.289021,692.192 106.657021,692 L106.657021,692 L106.657021,690.56 C105.217021,690.56 104.257021,690.224 103.777021,689.552 C103.425021,689.008 103.249021,687.984 103.249021,686.48 L103.249021,686.48 L103.249021,674.96 C103.249021,671.824 102.065021,669.728 99.6970213,668.672 C98.1610213,668 95.6010213,667.664 92.0170213,667.664 C89.7770213,667.664 87.8410213,668 86.2090213,668.672 C84.0010213,669.6 82.8970213,671.024 82.8970213,672.944 C82.8970213,674.704 83.7770213,675.584 85.5370213,675.584 C86.9770213,675.584 87.8410213,675.024 88.1290213,673.904 C88.3210213,672.848 88.5130213,671.808 88.7050213,670.784 C89.1530213,669.664 90.2890213,669.104 92.1130213,669.104 C94.9290213,669.104 96.3370213,670.384 96.3370213,672.944 L96.3370213,672.944 L96.3370213,675.968 C95.4410213,676.352 93.3450213,676.88 90.0490213,677.552 C87.2330213,678.128 85.2170213,678.816 84.0010213,679.616 C82.1770213,680.8 81.2650213,682.56 81.2650213,684.896 C81.2650213,687.264 81.8970213,689.136 83.1610213,690.512 C84.4250213,691.888 86.2410213,692.576 88.6090213,692.576 Z M91.7290213,690.272 C89.3610213,690.272 88.1770213,688.72 88.1770213,685.616 C88.1770213,683.664 88.4970213,682.176 89.1370213,681.152 C89.6810213,680.256 90.6090213,679.536 91.9210213,678.992 C93.3930213,678.448 94.8650213,677.92 96.3370213,677.408 L96.3370213,677.408 L96.3370213,682.016 C96.3370213,687.52 94.8010213,690.272 91.7290213,690.272 Z M124.706043,692 L124.706043,690.56 L121.250043,690.56 L121.250043,657.056 C118.786043,657.248 115.330043,657.344 110.882043,657.344 L110.882043,657.344 L110.882043,658.784 L114.338043,658.784 L114.338043,690.56 L110.882043,690.56 L110.882043,692 L124.706043,692 Z M143.379064,692.576 C146.675064,692.576 149.411064,691.312 151.587064,688.784 C153.699064,686.352 154.755064,683.472 154.755064,680.144 C154.755064,676.688 153.843064,673.792 152.019064,671.456 C150.035064,668.928 147.363064,667.664 144.003064,667.664 C140.739064,667.664 138.451064,668.88 137.139064,671.312 L137.139064,671.312 L137.043064,671.312 L137.043064,657.056 C134.579064,657.248 131.123064,657.344 126.675064,657.344 L126.675064,657.344 L126.675064,658.784 L130.131064,658.784 L130.131064,692 L137.043064,692 L137.043064,688.88 L137.139064,688.88 C138.227064,691.344 140.307064,692.576 143.379064,692.576 Z M142.275064,690.56 C139.971064,690.56 138.419064,689.296 137.619064,686.768 C137.139064,685.328 136.899064,683.12 136.899064,680.144 C136.899064,673.168 138.691064,669.68 142.275064,669.68 C144.611064,669.68 146.115064,670.944 146.787064,673.472 C147.107064,674.656 147.267064,676.88 147.267064,680.144 C147.267064,683.056 147.059064,685.232 146.643064,686.672 C145.907064,689.264 144.451064,690.56 142.275064,690.56 Z M164.068085,692.576 C168.388085,692.576 170.980085,691.312 171.844085,688.784 L171.844085,688.784 L171.940085,688.784 C172.164085,690.16 172.676085,691.104 173.476085,691.616 C174.180085,692.064 175.268085,692.288 176.740085,692.288 C177.956085,692.288 179.748085,692.192 182.116085,692 L182.116085,692 L182.116085,690.56 C180.676085,690.56 179.716085,690.224 179.236085,689.552 C178.884085,689.008 178.708085,687.984 178.708085,686.48 L178.708085,686.48 L178.708085,674.96 C178.708085,671.824 177.524085,669.728 175.156085,668.672 C173.620085,668 171.060085,667.664 167.476085,667.664 C165.236085,667.664 163.300085,668 161.668085,668.672 C159.460085,669.6 158.356085,671.024 158.356085,672.944 C158.356085,674.704 159.236085,675.584 160.996085,675.584 C162.436085,675.584 163.300085,675.024 163.588085,673.904 C163.780085,672.848 163.972085,671.808 164.164085,670.784 C164.612085,669.664 165.748085,669.104 167.572085,669.104 C170.388085,669.104 171.796085,670.384 171.796085,672.944 L171.796085,672.944 L171.796085,675.968 C170.900085,676.352 168.804085,676.88 165.508085,677.552 C162.692085,678.128 160.676085,678.816 159.460085,679.616 C157.636085,680.8 156.724085,682.56 156.724085,684.896 C156.724085,687.264 157.356085,689.136 158.620085,690.512 C159.884085,691.888 161.700085,692.576 164.068085,692.576 Z M167.188085,690.272 C164.820085,690.272 163.636085,688.72 163.636085,685.616 C163.636085,683.664 163.956085,682.176 164.596085,681.152 C165.140085,680.256 166.068085,679.536 167.380085,678.992 C168.852085,678.448 170.324085,677.92 171.796085,677.408 L171.796085,677.408 L171.796085,682.016 C171.796085,687.52 170.260085,690.272 167.188085,690.272 Z M197.861106,692.576 C201.317106,692.576 203.861106,691.248 205.493106,688.592 L205.493106,688.592 L205.589106,688.592 L205.589106,692.288 C210.197106,692.128 213.653106,692.032 215.957106,692 L215.957106,692 L215.957106,690.56 L212.501106,690.56 L212.501106,667.952 C210.037106,668.144 206.581106,668.24 202.133106,668.24 L202.133106,668.24 L202.133106,669.68 L205.589106,669.68 L205.589106,682.496 C205.589106,684.544 205.221106,686.256 204.485106,687.632 C203.557106,689.392 202.149106,690.272 200.261106,690.272 C197.765106,690.272 196.517106,688.864 196.517106,686.048 L196.517106,686.048 L196.517106,667.952 C194.053106,668.144 190.597106,668.24 186.149106,668.24 L186.149106,668.24 L186.149106,669.68 L189.605106,669.68 L189.605106,684.56 C189.605106,689.904 192.357106,692.576 197.861106,692.576 Z M233.526128,692 L233.526128,690.56 L230.070128,690.56 L230.070128,677.744 C230.070128,675.696 230.438128,673.984 231.174128,672.608 C232.134128,670.848 233.542128,669.968 235.398128,669.968 C237.894128,669.968 239.142128,671.44 239.142128,674.384 L239.142128,674.384 L239.142128,690.56 L235.686128,690.56 L235.686128,692 L249.510128,692 L249.510128,690.56 L246.054128,690.56 L246.054128,677.744 C246.054128,675.696 246.422128,673.984 247.158128,672.608 C248.118128,670.848 249.526128,669.968 251.382128,669.968 C253.878128,669.968 255.126128,671.44 255.126128,674.384 L255.126128,674.384 L255.126128,690.56 L251.670128,690.56 L251.670128,692 L265.494128,692 L265.494128,690.56 L262.038128,690.56 C262.038128,689.408 262.134128,687.52 262.326128,684.896 C262.518128,682.272 262.614128,680.304 262.614128,678.992 C262.614128,675.44 262.070128,672.784 260.982128,671.024 C259.574128,668.784 257.174128,667.664 253.782128,667.664 C252.054128,667.664 250.486128,668.032 249.078128,668.768 C247.574128,669.6 246.486128,670.768 245.814128,672.272 L245.814128,672.272 L245.718128,672.272 C244.758128,669.2 242.118128,667.664 237.798128,667.664 C234.182128,667.664 231.638128,668.992 230.166128,671.648 L230.166128,671.648 L230.070128,671.648 L230.070128,667.952 C227.638128,668.144 224.182128,668.24 219.702128,668.24 L219.702128,668.24 L219.702128,669.68 L223.158128,669.68 L223.158128,690.56 L219.702128,690.56 L219.702128,692 L233.526128,692 Z M36.66,740.432 C39.9,740.432 41.844,739.484 42.492,737.588 L42.492,737.588 L42.564,737.588 C42.732,738.62 43.116,739.328 43.716,739.712 C44.244,740.048 45.06,740.216 46.164,740.216 C47.076,740.216 48.42,740.144 50.196,740 L50.196,740 L50.196,738.92 C49.116,738.92 48.396,738.668 48.036,738.164 C47.772,737.756 47.64,736.988 47.64,735.86 L47.64,735.86 L47.64,727.22 C47.64,724.868 46.752,723.296 44.976,722.504 C43.824,722 41.904,721.748 39.216,721.748 C37.536,721.748 36.084,722 34.86,722.504 C33.204,723.2 32.376,724.268 32.376,725.708 C32.376,727.028 33.036,727.688 34.356,727.688 C35.436,727.688 36.084,727.268 36.3,726.428 C36.444,725.636 36.588,724.856 36.732,724.088 C37.068,723.248 37.92,722.828 39.288,722.828 C41.4,722.828 42.456,723.788 42.456,725.708 L42.456,725.708 L42.456,727.976 C41.784,728.264 40.212,728.66 37.74,729.164 C35.628,729.596 34.116,730.112 33.204,730.712 C31.836,731.6 31.152,732.92 31.152,734.672 C31.152,736.448 31.626,737.852 32.574,738.884 C33.522,739.916 34.884,740.432 36.66,740.432 Z M39,738.704 C37.224,738.704 36.336,737.54 36.336,735.212 C36.336,733.748 36.576,732.632 37.056,731.864 C37.464,731.192 38.16,730.652 39.144,730.244 C40.248,729.836 41.352,729.44 42.456,729.056 L42.456,729.056 L42.456,732.512 C42.456,736.64 41.304,738.704 39,738.704 Z M64.200766,740.432 C66.672766,740.432 68.724766,739.484 70.356766,737.588 C71.940766,735.764 72.732766,733.604 72.732766,731.108 C72.732766,728.516 72.048766,726.344 70.680766,724.592 C69.192766,722.696 67.188766,721.748 64.668766,721.748 C62.220766,721.748 60.504766,722.66 59.520766,724.484 L59.520766,724.484 L59.448766,724.484 L59.448766,713.792 C57.600766,713.936 55.008766,714.008 51.672766,714.008 L51.672766,714.008 L51.672766,715.088 L54.264766,715.088 L54.264766,740 L59.448766,740 L59.448766,737.66 L59.520766,737.66 C60.336766,739.508 61.896766,740.432 64.200766,740.432 Z M63.372766,738.92 C61.644766,738.92 60.480766,737.972 59.880766,736.076 C59.520766,734.996 59.340766,733.34 59.340766,731.108 C59.340766,725.876 60.684766,723.26 63.372766,723.26 C65.124766,723.26 66.252766,724.208 66.756766,726.104 C66.996766,726.992 67.116766,728.66 67.116766,731.108 C67.116766,733.292 66.960766,734.924 66.648766,736.004 C66.096766,737.948 65.004766,738.92 63.372766,738.92 Z M82.8855319,740.432 C86.6775319,740.432 89.1975319,738.5 90.4455319,734.636 L90.4455319,734.636 L89.4735319,734.168 C88.2975319,737.336 86.4495319,738.92 83.9295319,738.92 C81.9855319,738.92 80.6415319,738.044 79.8975319,736.292 C79.3935319,735.116 79.1415319,733.388 79.1415319,731.108 C79.1415319,728.492 79.2495319,726.752 79.4655319,725.888 C79.9695319,723.848 81.1095319,722.828 82.8855319,722.828 C84.0135319,722.828 84.6855319,723.32 84.9015319,724.304 C85.0455319,725.216 85.1775319,726.116 85.2975319,727.004 C85.6095319,727.988 86.4135319,728.48 87.7095319,728.48 C89.1255319,728.48 89.8335319,727.796 89.8335319,726.428 C89.8335319,723.308 87.5175319,721.748 82.8855319,721.748 C80.1735319,721.748 77.9355319,722.63 76.1715319,724.394 C74.4075319,726.158 73.5255319,728.396 73.5255319,731.108 C73.5255319,733.916 74.3835319,736.172 76.0995319,737.876 C77.8155319,739.58 80.0775319,740.432 82.8855319,740.432 Z M100.598298,740.432 C103.094298,740.432 104.858298,739.58 105.890298,737.876 L105.890298,737.876 L105.962298,737.876 L105.962298,740.216 C109.418298,740.096 112.010298,740.024 113.738298,740 L113.738298,740 L113.738298,738.92 L111.146298,738.92 L111.146298,713.792 C109.298298,713.936 106.706298,714.008 103.370298,714.008 L103.370298,714.008 L103.370298,715.088 L105.962298,715.088 L105.962298,724.376 L105.890298,724.376 C105.098298,722.624 103.430298,721.748 100.886298,721.748 C98.3662979,721.748 96.3622979,722.696 94.8742979,724.592 C93.5062979,726.344 92.8222979,728.516 92.8222979,731.108 C92.8222979,733.796 93.4342979,735.968 94.6582979,737.624 C96.0262979,739.496 98.0062979,740.432 100.598298,740.432 Z M102.038298,738.92 C100.406298,738.92 99.3142979,737.948 98.7622979,736.004 C98.4502979,734.924 98.2942979,733.292 98.2942979,731.108 C98.2942979,728.66 98.4142979,726.992 98.6542979,726.104 C99.1582979,724.208 100.286298,723.26 102.038298,723.26 C104.726298,723.26 106.070298,725.876 106.070298,731.108 C106.070298,733.34 105.890298,734.996 105.530298,736.076 C104.930298,737.972 103.766298,738.92 102.038298,738.92 Z M126.375064,740.432 C130.287064,740.432 132.963064,738.62 134.403064,734.996 L134.403064,734.996 L133.431064,734.528 C132.111064,737.456 130.071064,738.92 127.311064,738.92 C124.191064,738.92 122.631064,736.532 122.631064,731.756 L122.631064,731.756 L122.631064,730.172 L134.727064,730.172 C134.727064,727.676 133.959064,725.648 132.423064,724.088 C130.887064,722.528 128.871064,721.748 126.375064,721.748 C123.663064,721.748 121.425064,722.63 119.661064,724.394 C117.897064,726.158 117.015064,728.396 117.015064,731.108 C117.015064,733.916 117.873064,736.172 119.589064,737.876 C121.305064,739.58 123.567064,740.432 126.375064,740.432 Z M129.111064,729.092 L122.631064,729.092 C122.703064,727.22 122.883064,725.876 123.171064,725.06 C123.723064,723.572 124.719064,722.828 126.159064,722.828 C128.127064,722.828 129.111064,724.364 129.111064,727.436 L129.111064,727.436 L129.111064,729.092 Z M148.11983,740 L148.11983,738.92 L145.13183,738.92 L145.13183,723.26 L148.11983,723.26 L148.11983,722.18 L145.13183,722.18 L145.13183,717.392 C145.13183,715.568 145.71983,714.656 146.89583,714.656 C147.73583,714.656 148.20383,715.106 148.29983,716.006 C148.39583,716.906 148.49183,717.788 148.58783,718.652 C148.85183,719.588 149.57183,720.056 150.74783,720.056 C152.23583,720.056 152.97983,719.204 152.97983,717.5 C152.97983,716.156 152.30783,715.136 150.96383,714.44 C149.88383,713.864 148.61183,713.576 147.14783,713.576 C144.17183,713.576 142.16783,714.32 141.13583,715.808 C140.34383,716.96 139.94783,719.084 139.94783,722.18 L139.94783,722.18 L137.35583,722.18 L137.35583,723.26 L139.94783,723.26 L139.94783,738.92 L137.35583,738.92 L137.35583,740 L148.11983,740 Z M158.992596,747.992 C161.728596,747.992 163.948596,747.5 165.652596,746.516 C167.740596,745.292 168.784596,743.408 168.784596,740.864 C168.784596,738.536 167.728596,737 165.616596,736.256 C164.368596,735.8 162.220596,735.572 159.172596,735.572 L159.172596,735.572 L158.611668,735.571128 C156.807267,735.561827 155.566243,735.478118 154.888596,735.32 C153.736596,735.056 153.160596,734.492 153.160596,733.628 C153.160596,732.98 153.784596,732.38 155.032596,731.828 C156.232596,732.668 157.696596,733.088 159.424596,733.088 C161.320596,733.088 162.928596,732.632 164.248596,731.72 C165.736596,730.688 166.480596,729.272 166.480596,727.472 C166.480596,726.392 166.216596,725.348 165.688596,724.34 L165.688596,724.34 L166.804596,723.476 L167.272596,724.088 C167.248596,725.432 167.836596,726.104 169.036596,726.104 C169.516596,726.104 169.918596,725.96 170.242596,725.672 C170.566596,725.384 170.728596,725 170.728596,724.52 C170.728596,723.776 170.464596,723.128 169.936596,722.576 C169.408596,722.024 168.772596,721.748 168.028596,721.748 C167.068596,721.748 166.060596,722.372 165.004596,723.62 C163.732596,722.372 161.980596,721.748 159.748596,721.748 C157.708596,721.748 156.040596,722.228 154.744596,723.188 C153.304596,724.268 152.584596,725.792 152.584596,727.76 C152.584596,729.08 153.112596,730.22 154.168596,731.18 C153.256596,731.54 152.500596,732.104 151.900596,732.872 C151.300596,733.64 151.000596,734.504 151.000596,735.464 C151.000596,736.592 151.336596,737.552 152.008596,738.344 C152.680596,739.136 153.580596,739.58 154.708596,739.676 L154.708596,739.676 L154.708596,739.748 C153.580596,739.892 152.632596,740.252 151.864596,740.828 C150.976596,741.524 150.532596,742.4 150.532596,743.456 C150.532596,745.136 151.588596,746.372 153.700596,747.164 C155.164596,747.716 156.928596,747.992 158.992596,747.992 Z M159.532596,732.008 C157.924596,732.008 157.120596,730.484 157.120596,727.436 C157.120596,724.364 157.924596,722.828 159.532596,722.828 C161.140596,722.828 161.944596,724.364 161.944596,727.436 C161.944596,730.484 161.140596,732.008 159.532596,732.008 Z M159.100596,746.912 C157.708596,746.912 156.544596,746.684 155.608596,746.228 C154.384596,745.652 153.772596,744.74 153.772596,743.492 C153.772596,741.956 154.384596,740.96 155.608596,740.504 C156.280596,740.24 157.540596,740.108 159.388596,740.108 C161.164596,740.108 162.496596,740.24 163.384596,740.504 C164.968596,740.96 165.760596,741.836 165.760596,743.132 C165.760596,745.652 163.540596,746.912 159.100596,746.912 Z M182.213362,740 L182.213362,738.92 L179.621362,738.92 L179.621362,728.516 C179.621362,727.244 179.969362,726.116 180.665362,725.132 C181.433362,724.028 182.417362,723.476 183.617362,723.476 C185.489362,723.476 186.425362,724.652 186.425362,727.004 L186.425362,727.004 L186.425362,738.92 L183.833362,738.92 L183.833362,740 L194.201362,740 L194.201362,738.92 L191.609362,738.92 L191.609362,727.76 C191.609362,725.864 191.057362,724.388 189.953362,723.332 C188.849362,722.276 187.337362,721.748 185.417362,721.748 C182.825362,721.748 180.917362,722.72 179.693362,724.664 L179.693362,724.664 L179.621362,724.664 L179.621362,713.792 C177.797362,713.936 175.205362,714.008 171.845362,714.008 L171.845362,714.008 L171.845362,715.088 L174.437362,715.088 L174.437362,738.92 L171.845362,738.92 L171.845362,740 L182.213362,740 Z M199.134128,719.228 C199.902128,719.228 200.562128,718.952 201.114128,718.4 C201.666128,717.848 201.942128,717.188 201.942128,716.42 C201.942128,715.628 201.666128,714.956 201.114128,714.404 C200.562128,713.852 199.902128,713.576 199.134128,713.576 C198.366128,713.576 197.706128,713.852 197.154128,714.404 C196.602128,714.956 196.326128,715.628 196.326128,716.42 C196.326128,717.188 196.602128,717.848 197.154128,718.4 C197.706128,718.952 198.366128,719.228 199.134128,719.228 Z M204.318128,740 L204.318128,738.92 L201.726128,738.92 L201.726128,721.964 C199.878128,722.108 197.286128,722.18 193.950128,722.18 L193.950128,722.18 L193.950128,723.26 L196.542128,723.26 L196.542128,738.92 L193.950128,738.92 L193.950128,740 L204.318128,740 Z M212.022894,719.228 C212.790894,719.228 213.450894,718.952 214.002894,718.4 C214.554894,717.848 214.830894,717.188 214.830894,716.42 C214.830894,715.628 214.554894,714.956 214.002894,714.404 C213.450894,713.852 212.790894,713.576 212.022894,713.576 C211.254894,713.576 210.594894,713.852 210.042894,714.404 C209.490894,714.956 209.214894,715.628 209.214894,716.42 C209.214894,717.188 209.490894,717.848 210.042894,718.4 C210.594894,718.952 211.254894,719.228 212.022894,719.228 Z M206.010894,747.992 C209.250894,747.824 211.494894,747.098 212.742894,745.814 C213.990894,744.53 214.614894,742.316 214.614894,739.172 L214.614894,739.172 L214.614894,721.964 C212.766894,722.108 210.174894,722.18 206.838894,722.18 L206.838894,722.18 L206.838894,723.26 L209.430894,723.26 L209.430894,743.024 C209.430894,745.616 208.290894,746.912 206.010894,746.912 L206.010894,746.912 L206.010894,747.992 Z M229.12366,740 L229.12366,738.92 L226.53166,738.92 L226.53166,731.432 L228.18766,731.432 L233.19166,738.92 L230.81566,738.92 L230.81566,740 L241.00366,740 L241.00366,738.92 L239.27566,738.92 L231.71566,727.616 L234.34366,723.26 L237.36766,723.26 L237.36766,722.18 L230.02366,722.18 L230.02366,723.26 L232.83166,723.26 L228.65566,730.316 L226.53166,730.316 L226.53166,713.792 C224.68366,713.936 222.09166,714.008 218.75566,714.008 L218.75566,714.008 L218.75566,715.088 L221.34766,715.088 L221.34766,738.92 L218.75566,738.92 L218.75566,740 L229.12366,740 Z M254.144426,740 L254.144426,738.92 L251.552426,738.92 L251.552426,713.792 C249.704426,713.936 247.112426,714.008 243.776426,714.008 L243.776426,714.008 L243.776426,715.088 L246.368426,715.088 L246.368426,738.92 L243.776426,738.92 L243.776426,740 L254.144426,740 Z M267.213191,740 L267.213191,738.92 L264.621191,738.92 L264.621191,729.308 C264.621191,727.772 264.897191,726.488 265.449191,725.456 C266.169191,724.136 267.225191,723.476 268.617191,723.476 C270.489191,723.476 271.425191,724.58 271.425191,726.788 L271.425191,726.788 L271.425191,738.92 L268.833191,738.92 L268.833191,740 L279.201191,740 L279.201191,738.92 L276.609191,738.92 L276.609191,729.308 C276.609191,727.772 276.885191,726.488 277.437191,725.456 C278.157191,724.136 279.213191,723.476 280.605191,723.476 C282.477191,723.476 283.413191,724.58 283.413191,726.788 L283.413191,726.788 L283.413191,738.92 L280.821191,738.92 L280.821191,740 L291.189191,740 L291.189191,738.92 L288.597191,738.92 C288.597191,738.056 288.669191,736.64 288.813191,734.672 C288.957191,732.704 289.029191,731.228 289.029191,730.244 C289.029191,727.58 288.621191,725.588 287.805191,724.268 C286.749191,722.588 284.949191,721.748 282.405191,721.748 C281.109191,721.748 279.933191,722.024 278.877191,722.576 C277.749191,723.2 276.933191,724.076 276.429191,725.204 L276.429191,725.204 L276.357191,725.204 C275.637191,722.9 273.657191,721.748 270.417191,721.748 C267.705191,721.748 265.797191,722.744 264.693191,724.736 L264.693191,724.736 L264.621191,724.736 L264.621191,721.964 C262.797191,722.108 260.205191,722.18 256.845191,722.18 L256.845191,722.18 L256.845191,723.26 L259.437191,723.26 L259.437191,738.92 L256.845191,738.92 L256.845191,740 L267.213191,740 Z M302.565957,740 L302.565957,738.92 L299.973957,738.92 L299.973957,728.516 C299.973957,727.244 300.321957,726.116 301.017957,725.132 C301.761957,724.028 302.745957,723.476 303.969957,723.476 C305.841957,723.476 306.777957,724.652 306.777957,727.004 L306.777957,727.004 L306.777957,738.92 L304.185957,738.92 L304.185957,740 L314.553957,740 L314.553957,738.92 L311.961957,738.92 L311.961957,727.76 C311.961957,725.864 311.409957,724.388 310.305957,723.332 C309.201957,722.276 307.689957,721.748 305.769957,721.748 C303.177957,721.748 301.269957,722.72 300.045957,724.664 L300.045957,724.664 L299.973957,724.664 L299.973957,721.964 C298.149957,722.108 295.557957,722.18 292.197957,722.18 L292.197957,722.18 L292.197957,723.26 L294.789957,723.26 L294.789957,738.92 L292.197957,738.92 L292.197957,740 L302.565957,740 Z M325.534723,740.432 C328.246723,740.432 330.484723,739.556 332.248723,737.804 C334.012723,736.052 334.894723,733.82 334.894723,731.108 C334.894723,728.396 334.012723,726.158 332.248723,724.394 C330.484723,722.63 328.246723,721.748 325.534723,721.748 C322.798723,721.748 320.554723,722.63 318.802723,724.394 C317.050723,726.158 316.174723,728.396 316.174723,731.108 C316.174723,733.916 317.032723,736.172 318.748723,737.876 C320.464723,739.58 322.726723,740.432 325.534723,740.432 Z M325.534723,739.352 C323.734723,739.352 322.582723,738.332 322.078723,736.292 C321.886723,735.428 321.790723,733.7 321.790723,731.108 C321.790723,728.492 321.886723,726.752 322.078723,725.888 C322.582723,723.848 323.734723,722.828 325.534723,722.828 C327.310723,722.828 328.450723,723.848 328.954723,725.888 C329.170723,726.752 329.278723,728.492 329.278723,731.108 C329.278723,733.7 329.170723,735.428 328.954723,736.292 C328.450723,738.332 327.310723,739.352 325.534723,739.352 Z M348.791489,747.992 L348.791489,746.912 L346.199489,746.912 L346.199489,738.056 L346.271489,738.056 C347.327489,739.64 349.043489,740.432 351.419489,740.432 C353.939489,740.432 355.943489,739.484 357.431489,737.588 C358.799489,735.86 359.483489,733.7 359.483489,731.108 C359.483489,728.516 358.799489,726.344 357.431489,724.592 C355.943489,722.696 353.939489,721.748 351.419489,721.748 C348.923489,721.748 347.207489,722.732 346.271489,724.7 L346.271489,724.7 L346.199489,724.7 L346.199489,721.964 C344.351489,722.108 341.759489,722.18 338.423489,722.18 L338.423489,722.18 L338.423489,723.26 L341.015489,723.26 L341.015489,746.912 L338.423489,746.912 L338.423489,747.992 L348.791489,747.992 Z M350.267489,739.136 C348.467489,739.136 347.255489,738.176 346.631489,736.256 C346.271489,735.176 346.091489,733.46 346.091489,731.108 C346.091489,729.116 346.319489,727.448 346.775489,726.104 C347.495489,724.064 348.659489,723.044 350.267489,723.044 C351.995489,723.044 353.099489,724.04 353.579489,726.032 C353.771489,726.848 353.867489,728.54 353.867489,731.108 C353.867489,733.676 353.771489,735.356 353.579489,736.148 C353.099489,738.14 351.995489,739.136 350.267489,739.136 Z M383.496255,747.992 L383.496255,746.912 L380.904255,746.912 L380.904255,722.18 L375.720255,722.18 L375.720255,724.7 L375.648255,724.7 C374.712255,722.732 372.996255,721.748 370.500255,721.748 C367.980255,721.748 365.976255,722.696 364.488255,724.592 C363.120255,726.344 362.436255,728.516 362.436255,731.108 C362.436255,733.7 363.120255,735.86 364.488255,737.588 C365.976255,739.484 367.980255,740.432 370.500255,740.432 C372.876255,740.432 374.592255,739.64 375.648255,738.056 L375.648255,738.056 L375.720255,738.056 L375.720255,746.912 L373.128255,746.912 L373.128255,747.992 L383.496255,747.992 Z M371.652255,739.136 C369.924255,739.136 368.820255,738.14 368.340255,736.148 C368.148255,735.356 368.052255,733.676 368.052255,731.108 L368.052908,730.747102 C368.061616,728.380844 368.157398,726.809143 368.340255,726.032 C368.820255,724.04 369.924255,723.044 371.652255,723.044 C373.260255,723.044 374.424255,724.064 375.144255,726.104 C375.600255,727.448 375.828255,729.116 375.828255,731.108 C375.828255,733.46 375.648255,735.176 375.288255,736.256 C374.664255,738.176 373.452255,739.136 371.652255,739.136 Z M396.313021,740 L396.313021,738.92 L393.721021,738.92 L393.721021,731.252 C393.721021,729.74 393.913021,728.24 394.297021,726.752 C394.825021,724.568 395.605021,723.476 396.637021,723.476 C397.093021,723.476 397.321021,723.728 397.321021,724.232 C397.321021,725.672 397.357021,726.5 397.429021,726.716 C397.645021,727.484 398.317021,727.868 399.445021,727.868 C401.005021,727.868 401.785021,727.052 401.785021,725.42 C401.785021,724.34 401.479021,723.458 400.867021,722.774 C400.255021,722.09 399.409021,721.748 398.329021,721.748 C397.345021,721.748 396.433021,722.042 395.593021,722.63 C394.753021,723.218 394.153021,723.98 393.793021,724.916 L393.793021,724.916 L393.721021,724.916 L393.721021,721.964 C391.897021,722.108 389.305021,722.18 385.945021,722.18 L385.945021,722.18 L385.945021,723.26 L388.537021,723.26 L388.537021,738.92 L385.945021,738.92 L385.945021,740 L396.313021,740 Z M410.281787,740.432 C412.225787,740.432 413.893787,739.892 415.285787,738.812 C416.773787,737.636 417.517787,736.1 417.517787,734.204 C417.517787,732.164 416.665787,730.604 414.961787,729.524 C414.529787,729.236 412.945787,728.564 410.209787,727.508 C408.505787,726.86 407.653787,726.056 407.653787,725.096 C407.653787,724.376 407.905787,723.818 408.409787,723.422 C408.913787,723.026 409.537787,722.828 410.281787,722.828 C411.553787,722.828 412.633787,723.302 413.521787,724.25 C414.409787,725.198 414.913787,726.32 415.033787,727.616 L415.033787,727.616 L416.113787,727.616 L416.113787,722.9 C414.145787,722.132 412.285787,721.748 410.533787,721.748 C408.685787,721.748 407.197787,722.216 406.069787,723.152 C404.821787,724.16 404.197787,725.564 404.197787,727.364 C404.197787,729.356 405.049787,730.892 406.753787,731.972 C406.897787,732.068 408.481787,732.74 411.505787,733.988 C413.209787,734.708 414.061787,735.62 414.061787,736.724 C414.061787,737.636 413.665787,738.32 412.873787,738.776 C412.225787,739.16 411.409787,739.352 410.425787,739.352 C408.865787,739.352 407.569787,738.716 406.537787,737.444 C405.601787,736.292 405.097787,734.9 405.025787,733.268 L405.025787,733.268 L403.945787,733.268 L403.945787,739.172 C406.321787,740.012 408.433787,740.432 410.281787,740.432 Z M426.986553,740.432 C429.410553,740.432 431.258553,739.772 432.530553,738.452 L432.530553,738.452 L431.882553,737.732 C431.114553,738.524 430.286553,738.92 429.398553,738.92 C428.174553,738.92 427.562553,737.948 427.562553,736.004 L427.562553,736.004 L427.562553,723.26 L431.198553,723.26 L431.198553,722.18 L427.562553,722.18 L427.562553,717.176 L422.378553,717.176 L422.378553,722.18 L419.786553,722.18 L419.786553,723.26 L422.378553,723.26 L422.378553,735.68 C422.378553,737.408 422.732553,738.632 423.440553,739.352 C424.148553,740.072 425.330553,740.432 426.986553,740.432 Z M443.187319,740.432 C445.779319,740.432 447.687319,739.436 448.911319,737.444 L448.911319,737.444 L448.983319,737.444 L448.983319,740.216 C452.439319,740.096 455.031319,740.024 456.759319,740 L456.759319,740 L456.759319,738.92 L454.167319,738.92 L454.167319,721.964 C452.319319,722.108 449.727319,722.18 446.391319,722.18 L446.391319,722.18 L446.391319,723.26 L448.983319,723.26 L448.983319,732.872 C448.983319,734.408 448.707319,735.692 448.155319,736.724 C447.459319,738.044 446.403319,738.704 444.987319,738.704 C443.115319,738.704 442.179319,737.648 442.179319,735.536 L442.179319,735.536 L442.179319,721.964 C440.331319,722.108 437.739319,722.18 434.403319,722.18 L434.403319,722.18 L434.403319,723.26 L436.995319,723.26 L436.995319,734.42 C436.995319,738.428 439.059319,740.432 443.187319,740.432 Z M470.008085,740.432 L477.640085,723.26 L479.800085,723.26 L479.800085,722.18 L473.824085,722.18 L473.824085,723.26 L476.272085,723.26 L471.700085,733.916 L467.308085,723.26 L469.756085,723.26 L469.756085,722.18 L459.280085,722.18 L459.280085,723.26 L461.440085,723.26 L469.072085,740.432 L470.008085,740.432 Z M492.112851,740.432 L498.052851,724.808 L503.812851,740.432 L504.964851,740.432 L511.444851,723.26 L514.036851,723.26 L514.036851,722.18 L507.484851,722.18 L507.484851,723.26 L510.076851,723.26 L506.404851,733.484 L506.332851,733.484 L502.912851,723.26 L505.720851,723.26 L505.720851,722.18 L494.632851,722.18 L494.632851,723.26 L497.440851,723.26 L493.624851,733.484 L493.552851,733.484 L490.060851,723.26 L492.868851,723.26 L492.868851,722.18 L482.104851,722.18 L482.104851,723.26 L484.696851,723.26 L491.032851,740.432 L492.112851,740.432 Z M524.045617,740 L524.045617,738.92 L521.237617,738.92 L525.665617,733.268 L529.157617,738.92 L526.565617,738.92 L526.565617,740 L537.545617,740 L537.545617,738.92 L535.205617,738.92 L529.013617,729.02 L533.549617,723.26 L535.925617,723.26 L535.925617,722.18 L529.553617,722.18 L529.553617,723.26 L531.929617,723.26 L528.329617,727.868 L525.449617,723.26 L527.825617,723.26 L527.825617,722.18 L516.665617,722.18 L516.665617,723.26 L519.473617,723.26 L524.945617,732.152 L519.617617,738.92 L517.025617,738.92 L517.025617,740 L524.045617,740 Z M544.422383,747.992 C546.174383,747.992 547.602383,747.272 548.706383,745.832 C549.402383,744.944 550.158383,743.444 550.974383,741.332 L550.974383,741.332 L557.922383,723.26 L560.298383,723.26 L560.298383,722.18 L553.962383,722.18 L553.962383,723.26 L556.554383,723.26 L552.558383,734.096 L548.238383,723.26 L550.830383,723.26 L550.830383,722.18 L539.922383,722.18 L539.922383,723.26 L542.514383,723.26 L549.858383,740.792 C549.450383,742.064 548.958383,743.192 548.382383,744.176 C547.518383,745.712 546.666383,746.48 545.826383,746.48 C545.154383,746.48 544.818383,746.108 544.818383,745.364 C544.818383,745.148 544.842383,744.806 544.890383,744.338 L544.909485,744.144408 C544.94475,743.771184 544.962383,743.481714 544.962383,743.276 C544.962383,741.98 544.266383,741.332 542.874383,741.332 C542.106383,741.332 541.524383,741.626 541.128383,742.214 C540.732383,742.802 540.534383,743.492 540.534383,744.284 C540.534383,745.364 540.906383,746.252 541.650383,746.948 C542.394383,747.644 543.318383,747.992 544.422383,747.992 Z M577.903149,740 L577.903149,733.088 L576.823149,733.088 C576.775149,734.984 576.181149,736.43 575.041149,737.426 C573.901149,738.422 572.359149,738.92 570.415149,738.92 L570.415149,738.92 L568.363149,738.92 L578.155149,722.18 L563.359149,722.18 L563.359149,728.336 L564.439149,728.336 C564.439149,726.824 564.883149,725.6 565.771149,724.664 C566.659149,723.728 567.847149,723.26 569.335149,723.26 L569.335149,723.26 L571.855149,723.26 L562.027149,740 L577.903149,740 Z M38.208,785 L38.208,783.92 L34.644,783.92 L37.2,776.432 L43.788,776.432 L46.344,783.92 L42.708,783.92 L42.708,785 L55.596,785 L55.596,783.92 L52.608,783.92 L43.5,759.008 L42.204,759.008 L33.276,783.92 L30.504,783.92 L30.504,785 L38.208,785 Z M43.392,775.316 L37.56,775.316 L40.44,766.928 L40.512,766.928 L43.392,775.316 Z M71.040766,785 C73.584766,785 75.648766,784.46 77.232766,783.38 C79.056766,782.132 79.968766,780.296 79.968766,777.872 C79.968766,775.568 79.092766,773.768 77.340766,772.472 C75.780766,771.296 73.812766,770.684 71.436766,770.636 L71.436766,770.636 L71.436766,770.564 C73.404766,770.42 75.012766,769.856 76.260766,768.872 C77.652766,767.744 78.348766,766.232 78.348766,764.336 C78.348766,762.224 77.472766,760.748 75.720766,759.908 C74.472766,759.308 72.660766,759.008 70.284766,759.008 L70.284766,759.008 L56.676766,759.008 L56.676766,760.088 L60.132766,760.088 L60.132766,783.92 L56.676766,783.92 L56.676766,785 L71.040766,785 Z M68.052766,770.276 L65.748766,770.276 L65.748766,760.088 L67.836766,760.088 C69.612766,760.088 70.836766,760.49 71.508766,761.294 C72.180766,762.098 72.516766,763.412 72.516766,765.236 C72.516766,766.964 72.204766,768.212 71.580766,768.98 C70.884766,769.844 69.708766,770.276 68.052766,770.276 L68.052766,770.276 Z M67.800766,783.92 L65.748766,783.92 L65.748766,771.356 L68.412766,771.356 C70.452766,771.356 71.880766,771.83 72.696766,772.778 C73.512766,773.726 73.920766,775.244 73.920766,777.332 C73.920766,779.588 73.464766,781.232 72.552766,782.264 C71.592766,783.368 70.008766,783.92 67.800766,783.92 L67.800766,783.92 Z M94.8735319,785.432 C97.9935319,785.432 101.245532,784.736 104.629532,783.344 L104.629532,783.344 L104.629532,776 L103.549532,776 C103.309532,778.184 102.385532,780.104 100.777532,781.76 C99.0735319,783.488 97.1535319,784.352 95.0175319,784.352 C91.9695319,784.352 89.8455319,782.948 88.6455319,780.14 C87.8295319,778.22 87.4215319,775.496 87.4215319,771.968 C87.4215319,763.76 90.0375319,759.656 95.2695319,759.656 C97.4055319,759.656 99.2655319,760.532 100.849532,762.284 C102.361532,763.94 103.201532,765.86 103.369532,768.044 L103.369532,768.044 L104.449532,768.044 L104.449532,760.664 C100.825532,759.272 97.6335319,758.576 94.8735319,758.576 C90.8655319,758.576 87.6135319,759.812 85.1175319,762.284 C82.6215319,764.756 81.3735319,767.984 81.3735319,771.968 C81.3735319,775.976 82.6155319,779.222 85.0995319,781.706 C87.5835319,784.19 90.8415319,785.432 94.8735319,785.432 Z M120.398298,785 C125.030298,785 128.498298,784.016 130.802298,782.048 C133.298298,779.912 134.546298,776.564 134.546298,772.004 C134.546298,767.444 133.298298,764.096 130.802298,761.96 C128.498298,759.992 125.030298,759.008 120.398298,759.008 L120.398298,759.008 L106.466298,759.008 L106.466298,760.088 L109.922298,760.088 L109.922298,783.92 L106.466298,783.92 L106.466298,785 L120.398298,785 Z M117.590298,783.92 L115.538298,783.92 L115.538298,760.088 L118.958298,760.088 C122.558298,760.088 125.066298,761.18 126.482298,763.364 C127.634298,765.164 128.210298,768.044 128.210298,772.004 C128.210298,776.348 127.490298,779.384 126.050298,781.112 C124.490298,782.984 121.670298,783.92 117.590298,783.92 L117.590298,783.92 Z M159.819064,785 L159.819064,776.252 L158.739064,776.252 C158.451064,778.796 157.443064,780.728 155.715064,782.048 C154.107064,783.296 152.007064,783.92 149.415064,783.92 L149.415064,783.92 L145.635064,783.92 L145.635064,772.256 C147.651064,772.256 149.127064,772.664 150.063064,773.48 C151.071064,774.368 151.575064,775.796 151.575064,777.764 L151.575064,777.764 L152.655064,777.764 L152.655064,765.92 L151.575064,765.92 C151.575064,769.424 149.595064,771.176 145.635064,771.176 L145.635064,771.176 L145.635064,760.088 L148.227064,760.088 C150.963064,760.088 153.087064,760.592 154.599064,761.6 C156.327064,762.752 157.371064,764.624 157.731064,767.216 L157.731064,767.216 L158.811064,767.216 L158.811064,759.008 L136.563064,759.008 L136.563064,760.088 L140.019064,760.088 L140.019064,783.92 L136.563064,783.92 L136.563064,785 L159.819064,785 Z M175.44383,785 L175.44383,783.92 L171.77183,783.92 L171.77183,772.724 C174.14783,772.724 175.81583,773.024 176.77583,773.624 C177.97583,774.416 178.57583,775.94 178.57583,778.196 L178.57583,778.196 L179.65583,778.196 L179.65583,766.136 L178.57583,766.136 C178.57583,768.392 177.97583,769.916 176.77583,770.708 C175.81583,771.308 174.14783,771.608 171.77183,771.608 L171.77183,771.608 L171.77183,760.088 L174.83183,760.088 C177.56783,760.088 179.69183,760.592 181.20383,761.6 C182.93183,762.752 183.97583,764.624 184.33583,767.216 L184.33583,767.216 L185.41583,767.216 L185.41583,759.008 L162.69983,759.008 L162.69983,760.088 L166.15583,760.088 L166.15583,783.92 L162.69983,783.92 L162.69983,785 L175.44383,785 Z M201.292596,785.432 C204.700596,785.432 208.600596,784.412 212.992596,782.372 L212.992596,782.372 L212.992596,773.264 L216.160596,773.264 L216.160596,772.148 L204.208596,772.148 L204.208596,773.264 L207.376596,773.264 L207.376596,779.924 C207.376596,781.484 206.740596,782.648 205.468596,783.416 C204.412596,784.04 203.044596,784.352 201.364596,784.352 C198.316596,784.352 196.204596,782.948 195.028596,780.14 C194.212596,778.22 193.804596,775.496 193.804596,771.968 C193.804596,763.76 196.768596,759.656 202.696596,759.656 C204.832596,759.656 206.632596,760.352 208.096596,761.744 C209.488596,763.088 210.340596,764.84 210.652596,767 L210.652596,767 L211.732596,767 L211.732596,760.376 C208.228596,759.176 205.060596,758.576 202.228596,758.576 C198.172596,758.576 194.776596,759.764 192.040596,762.14 C189.184596,764.612 187.756596,767.852 187.756596,771.86 C187.756596,775.94 188.992596,779.222 191.464596,781.706 C193.936596,784.19 197.212596,785.432 201.292596,785.432 Z M230.669362,785 L230.669362,783.92 L227.213362,783.92 L227.213362,772.256 L237.581362,772.256 L237.581362,783.92 L234.125362,783.92 L234.125362,785 L246.653362,785 L246.653362,783.92 L243.197362,783.92 L243.197362,760.088 L246.653362,760.088 L246.653362,759.008 L234.125362,759.008 L234.125362,760.088 L237.581362,760.088 L237.581362,771.176 L227.213362,771.176 L227.213362,760.088 L230.669362,760.088 L230.669362,759.008 L218.141362,759.008 L218.141362,760.088 L221.597362,760.088 L221.597362,783.92 L218.141362,783.92 L218.141362,785 L230.669362,785 Z M261.630128,785 L261.630128,783.92 L258.174128,783.92 L258.174128,760.088 L261.630128,760.088 L261.630128,759.008 L249.102128,759.008 L249.102128,760.088 L252.558128,760.088 L252.558128,783.92 L249.102128,783.92 L249.102128,785 L261.630128,785 Z M270.702894,785.432 C273.222894,785.432 275.094894,784.94 276.318894,783.956 C277.638894,782.9 278.298894,781.16 278.298894,778.736 L278.298894,778.736 L278.298894,760.088 L281.754894,760.088 L281.754894,759.008 L269.226894,759.008 L269.226894,760.088 L272.682894,760.088 L272.682894,780.788 C272.682894,782.012 272.436894,782.912 271.944894,783.488 C271.452894,784.064 270.594894,784.352 269.370894,784.352 C268.962894,784.352 268.578894,784.28 268.218894,784.136 C267.738894,783.944 267.498894,783.668 267.498894,783.308 C267.498894,783.068 267.744894,782.714 268.236894,782.246 C268.728894,781.778 268.974894,781.208 268.974894,780.536 C268.974894,778.88 268.194894,778.052 266.634894,778.052 C265.842894,778.052 265.206894,778.31 264.726894,778.826 C264.246894,779.342 264.006894,779.996 264.006894,780.788 C264.006894,783.884 266.238894,785.432 270.702894,785.432 Z M297.12766,785 L297.12766,783.92 L293.67166,783.92 L293.67166,771.824 L295.68766,771.824 L302.77966,783.92 L299.53966,783.92 L299.53966,785 L312.17566,785 L312.17566,783.92 L309.58366,783.92 L299.50366,767.612 L305.44366,760.088 L309.18766,760.088 L309.18766,759.008 L300.11566,759.008 L300.11566,760.088 L303.85966,760.088 L295.65166,770.744 L293.67166,770.744 L293.67166,760.088 L297.12766,760.088 L297.12766,759.008 L284.59966,759.008 L284.59966,760.088 L288.05566,760.088 L288.05566,783.92 L284.59966,783.92 L284.59966,785 L297.12766,785 Z M338.240426,785 L338.240426,775.892 L337.160426,775.892 C336.872426,778.532 335.912426,780.53 334.280426,781.886 C332.648426,783.242 330.500426,783.92 327.836426,783.92 L327.836426,783.92 L323.624426,783.92 L323.624426,760.088 L327.080426,760.088 L327.080426,759.008 L314.552426,759.008 L314.552426,760.088 L318.008426,760.088 L318.008426,783.92 L314.552426,783.92 L314.552426,785 L338.240426,785 Z M355.269191,785.648 L364.845191,762.068 L364.917191,762.068 L364.917191,783.92 L361.065191,783.92 L361.065191,785 L374.133191,785 L374.133191,783.92 L370.533191,783.92 L370.533191,760.088 L374.133191,760.088 L374.133191,759.008 L364.737191,759.008 L356.997191,777.836 L349.941191,759.008 L340.113191,759.008 L340.113191,760.088 L343.713191,760.088 L343.713191,783.92 L340.113191,783.92 L340.113191,785 L348.789191,785 L348.789191,783.92 L344.793191,783.92 L344.793191,762.068 L344.865191,762.068 L354.045191,785.648 L355.269191,785.648 Z M400.161957,785.648 L401.025957,785.432 L401.025957,760.088 L404.625957,760.088 L404.625957,759.008 L395.949957,759.008 L395.949957,760.088 L399.945957,760.088 L399.945957,776.18 L399.873957,776.18 L386.769957,759.008 L376.437957,759.008 L376.437957,760.088 L380.037957,760.088 L380.037957,783.92 L376.437957,783.92 L376.437957,785 L385.077957,785 L385.077957,783.92 L381.117957,783.92 L381.117957,761.42 L381.189957,761.42 L400.161957,785.648 Z M420.430723,785.432 C424.462723,785.432 427.720723,784.19 430.204723,781.706 C432.688723,779.222 433.930723,775.976 433.930723,771.968 C433.930723,767.984 432.682723,764.756 430.186723,762.284 C427.690723,759.812 424.438723,758.576 420.430723,758.576 C416.446723,758.576 413.200723,759.812 410.692723,762.284 C408.184723,764.756 406.930723,767.984 406.930723,771.968 C406.930723,775.976 408.178723,779.222 410.674723,781.706 C413.170723,784.19 416.422723,785.432 420.430723,785.432 Z M420.430723,784.352 C415.654723,784.352 413.266723,780.224 413.266723,771.968 C413.266723,763.76 415.654723,759.656 420.430723,759.656 C425.206723,759.656 427.594723,763.76 427.594723,771.968 C427.594723,780.224 425.206723,784.352 420.430723,784.352 Z M447.935489,785 L447.935489,783.92 L443.867489,783.92 L443.867489,773.264 C444.203489,773.264 444.779489,773.276 445.595489,773.3 L445.595489,773.3 L447.431489,773.3 C450.815489,773.3 453.335489,772.928 454.991489,772.184 C457.415489,771.08 458.627489,769.064 458.627489,766.136 C458.627489,763.328 457.643489,761.372 455.675489,760.268 C454.187489,759.428 451.943489,759.008 448.943489,759.008 L448.943489,759.008 L434.795489,759.008 L434.795489,760.088 L438.251489,760.088 L438.251489,783.92 L434.795489,783.92 L434.795489,785 L447.935489,785 Z M446.999489,772.148 L443.867489,772.148 L443.867489,760.088 L446.999489,760.088 C449.087489,760.088 450.515489,760.592 451.283489,761.6 C451.955489,762.464 452.291489,763.976 452.291489,766.136 C452.291489,768.296 451.955489,769.808 451.283489,770.672 C450.515489,771.656 449.087489,772.148 446.999489,772.148 L446.999489,772.148 Z M483.288255,792.992 L483.288255,791.696 C481.512255,791.696 480.372255,791.396 479.868255,790.796 C479.388255,790.028 478.896255,789.272 478.392255,788.528 C477.408255,787.376 475.644255,786.356 473.100255,785.468 L473.100255,785.468 L473.172255,785.396 C473.580255,785.42 473.988255,785.432 474.396255,785.432 C478.284255,785.432 481.470255,784.184 483.954255,781.688 C486.438255,779.192 487.680255,775.952 487.680255,771.968 C487.680255,767.984 486.432255,764.756 483.936255,762.284 C481.440255,759.812 478.188255,758.576 474.180255,758.576 C470.172255,758.576 466.920255,759.812 464.424255,762.284 C461.928255,764.756 460.680255,767.984 460.680255,771.968 C460.680255,775.04 461.388255,777.656 462.804255,779.816 C464.268255,782.048 466.404255,783.668 469.212255,784.676 C470.724255,785.204 471.876255,786.224 472.668255,787.736 C473.844255,789.968 474.504255,791.156 474.648255,791.3 C475.656255,792.428 477.312255,792.992 479.616255,792.992 L479.616255,792.992 L483.288255,792.992 Z M474.180255,784.352 C469.404255,784.352 467.016255,780.224 467.016255,771.968 C467.016255,763.76 469.404255,759.656 474.180255,759.656 C478.956255,759.656 481.344255,763.76 481.344255,771.968 C481.344255,780.224 478.956255,784.352 474.180255,784.352 Z M502.801021,785 L502.801021,783.92 L498.733021,783.92 L498.733021,772.256 L500.965021,772.256 C503.869021,772.256 505.573021,773.36 506.077021,775.568 C506.269021,777.608 506.449021,779.648 506.617021,781.688 C507.097021,783.896 508.741021,785 511.549021,785 L511.549021,785 L515.365021,785 L515.365021,783.992 C513.421021,784.016 512.377021,783.032 512.233021,781.04 C511.969021,777.56 511.753021,775.64 511.585021,775.28 C510.673021,773.096 508.321021,771.86 504.529021,771.572 L504.529021,771.572 L504.529021,771.5 C508.993021,770.492 511.225021,768.248 511.225021,764.768 C511.225021,762.32 510.145021,760.676 507.985021,759.836 C506.617021,759.284 504.493021,759.008 501.613021,759.008 L501.613021,759.008 L489.661021,759.008 L489.661021,760.088 L493.117021,760.088 L493.117021,783.92 L489.661021,783.92 L489.661021,785 L502.801021,785 Z M501.001021,771.176 L498.733021,771.176 L498.733021,760.124 L500.173021,760.124 C502.261021,760.124 503.653021,760.508 504.349021,761.276 C505.045021,762.044 505.393021,763.508 505.393021,765.668 C505.393021,767.636 505.141021,768.992 504.637021,769.736 C504.013021,770.696 502.801021,771.176 501.001021,771.176 L501.001021,771.176 Z M526.957787,785.432 C529.453787,785.432 531.589787,784.748 533.365787,783.38 C535.309787,781.892 536.281787,779.936 536.281787,777.512 C536.281787,774.632 535.081787,772.376 532.681787,770.744 C532.297787,770.504 530.065787,769.484 525.985787,767.684 C523.585787,766.604 522.385787,765.32 522.385787,763.832 C522.385787,762.68 522.775787,761.732 523.555787,760.988 C524.335787,760.244 525.301787,759.872 526.453787,759.872 C528.229787,759.872 529.765787,760.532 531.061787,761.852 C532.261787,763.052 533.041787,764.564 533.401787,766.388 L533.401787,766.388 L534.625787,766.388 L534.337787,760.16 C531.529787,759.104 529.105787,758.576 527.065787,758.576 C524.665787,758.576 522.661787,759.284 521.053787,760.7 C519.445787,762.116 518.641787,764.012 518.641787,766.388 C518.641787,768.956 519.865787,770.984 522.313787,772.472 C524.593787,773.48 526.873787,774.5 529.153787,775.532 C531.601787,776.66 532.825787,778.1 532.825787,779.852 C532.825787,781.292 532.237787,782.396 531.061787,783.164 C530.077787,783.812 528.817787,784.136 527.281787,784.136 C525.193787,784.136 523.393787,783.332 521.881787,781.724 C520.393787,780.188 519.601787,778.364 519.505787,776.252 L519.505787,776.252 L518.245787,776.252 L518.569787,783.74 C521.185787,784.868 523.981787,785.432 526.957787,785.432 Z M556.802553,785 L556.802553,783.92 L553.346553,783.92 L553.346553,760.088 C559.034553,760.088 561.926553,762.656 562.022553,767.792 L562.022553,767.792 L563.102553,767.792 L563.102553,759.008 L537.974553,759.008 L537.974553,767.792 L539.054553,767.792 C539.102553,765.512 539.750553,763.676 540.998553,762.284 C542.342553,760.82 544.142553,760.088 546.398553,760.088 L546.398553,760.088 L547.730553,760.088 L547.730553,783.92 L544.274553,783.92 L544.274553,785 L556.802553,785 Z M579.555319,785.432 C586.107319,785.432 589.383319,782.816 589.383319,777.584 L589.383319,777.584 L589.383319,760.088 L592.911319,760.088 L592.911319,759.008 L584.307319,759.008 L584.307319,760.088 L588.087319,760.088 L588.087319,777.8 C588.087319,779.96 587.403319,781.58 586.035319,782.66 C584.787319,783.644 583.059319,784.136 580.851319,784.136 C576.555319,784.136 574.407319,782.264 574.407319,778.52 L574.407319,778.52 L574.407319,760.088 L578.331319,760.088 L578.331319,759.008 L565.335319,759.008 L565.335319,760.088 L568.791319,760.088 L568.791319,778.304 C568.791319,781.304 569.907319,783.332 572.139319,784.388 C573.651319,785.084 576.123319,785.432 579.555319,785.432 Z M607.672085,785.432 L616.960085,760.088 L619.696085,760.088 L619.696085,759.008 L611.956085,759.008 L611.956085,760.088 L615.520085,760.088 L609.616085,777.116 L609.544085,777.116 L603.892085,760.088 L607.600085,760.088 L607.600085,759.008 L594.712085,759.008 L594.712085,760.088 L597.556085,760.088 L606.520085,785.432 L607.672085,785.432 Z M634.564851,785.432 L642.124851,760.952 L642.196851,760.952 L650.224851,785.432 L651.520851,785.432 L659.656851,760.088 L662.140851,760.088 L662.140851,759.008 L655.084851,759.008 L655.084851,760.088 L658.540851,760.088 L653.248851,776.756 L653.176851,776.756 L647.848851,760.088 L651.304851,760.088 L651.304851,759.008 L638.020851,759.008 L638.020851,760.088 L641.476851,760.088 L636.184851,776.756 L636.112851,776.756 L630.784851,760.088 L634.240851,760.088 L634.240851,759.008 L622.108851,759.008 L622.108851,760.088 L624.700851,760.088 L633.232851,785.432 L634.564851,785.432 Z M672.905617,785 L672.905617,783.92 L669.449617,783.92 L675.677617,774.56 L681.113617,783.92 L677.441617,783.92 L677.441617,785 L690.509617,785 L690.509617,783.92 L687.701617,783.92 L679.205617,769.232 L685.289617,760.088 L688.529617,760.088 L688.529617,759.008 L680.393617,759.008 L680.393617,760.088 L683.849617,760.088 L678.557617,768.08 L673.949617,760.088 L677.693617,760.088 L677.693617,759.008 L664.625617,759.008 L664.625617,760.088 L667.217617,760.088 L675.029617,773.444 L668.081617,783.92 L665.057617,783.92 L665.057617,785 L672.905617,785 Z M711.210383,785 L711.210383,783.92 L707.358383,783.92 L707.358383,771.968 L714.630383,760.088 L717.438383,760.088 L717.438383,759.008 L709.374383,759.008 L709.374383,760.088 L713.118383,760.088 L707.214383,770.24 L701.130383,760.088 L705.234383,760.088 L705.234383,759.008 L691.662383,759.008 L691.662383,760.088 L694.470383,760.088 L701.742383,771.968 L701.742383,783.92 L697.890383,783.92 L697.890383,785 L711.210383,785 Z M740.947149,785 L740.947149,776.144 L739.867149,776.144 C739.555149,778.712 738.511149,780.668 736.735149,782.012 C735.055149,783.284 732.907149,783.92 730.291149,783.92 L730.291149,783.92 L725.395149,783.92 L741.739149,759.008 L720.427149,759.008 L720.427149,767.396 L721.507149,767.396 C721.699149,764.972 722.743149,763.112 724.639149,761.816 C726.319149,760.664 728.431149,760.088 730.975149,760.088 L730.975149,760.088 L734.503149,760.088 L718.159149,785 L740.947149,785 Z M39.72,830.432 C42.696,830.432 44.952,828.92 46.488,825.896 C47.688,823.52 48.288,820.688 48.288,817.4 C48.288,814.112 47.688,811.268 46.488,808.868 C44.952,805.844 42.696,804.332 39.72,804.332 C36.744,804.332 34.488,805.844 32.952,808.868 C31.752,811.268 31.152,814.112 31.152,817.4 C31.152,820.688 31.764,823.52 32.988,825.896 C34.5,828.92 36.744,830.432 39.72,830.432 Z M39.72,829.352 C37.704,829.352 36.696,826.664 36.696,821.288 C36.696,820.64 36.708,819.872 36.732,818.984 C36.756,818.096 36.768,817.568 36.768,817.4 C36.768,817.232 36.756,816.698 36.732,815.798 C36.708,814.898 36.696,814.136 36.696,813.512 C36.696,808.112 37.704,805.412 39.72,805.412 C41.76,805.412 42.78,808.112 42.78,813.512 C42.78,814.136 42.762,814.898 42.726,815.798 C42.69,816.698 42.672,817.232 42.672,817.4 C42.672,817.568 42.69,818.096 42.726,818.984 C42.762,819.872 42.78,820.64 42.78,821.288 C42.78,826.664 41.76,829.352 39.72,829.352 Z M66.036766,830 L66.036766,828.92 L62.688766,828.92 L62.688766,804.332 L60.996766,804.332 C59.220766,806.636 56.724766,808.988 53.508766,811.388 L53.508766,811.388 L54.084766,812.324 C55.476766,811.34 56.544766,810.476 57.288766,809.732 L57.288766,809.732 L57.288766,828.92 L53.724766,828.92 L53.724766,830 L66.036766,830 Z M85.6215319,830 L88.3215319,822.188 L87.2415319,821.828 C86.8095319,823.244 86.2515319,824.162 85.5675319,824.582 C84.8835319,825.002 83.7735319,825.212 82.2375319,825.212 L82.2375319,825.212 L76.6575319,825.212 L76.6575319,825.14 C78.1935319,823.94 79.7295319,822.752 81.2655319,821.576 C83.1375319,820.064 84.5295319,818.648 85.4415319,817.328 C86.6415319,815.6 87.2415319,813.8 87.2415319,811.928 C87.2415319,809.648 86.5635319,807.812 85.2075319,806.42 C83.8515319,805.028 82.0335319,804.332 79.7535319,804.332 C77.6655319,804.332 75.8955319,805.058 74.4435319,806.51 C72.9915319,807.962 72.2655319,809.732 72.2655319,811.82 C72.2655319,814.772 73.5615319,817.016 76.1535319,818.552 L76.1535319,818.552 L76.6215319,817.58 C74.4375319,816.236 73.3455319,814.34 73.3455319,811.892 C73.3455319,810.548 73.7295319,809.348 74.4975319,808.292 C75.3375319,807.116 76.3935319,806.528 77.6655319,806.528 C80.4495319,806.528 81.8415319,808.544 81.8415319,812.576 C81.8415319,815.528 80.6415319,818.6 78.2415319,821.792 C77.4255319,822.848 75.1215319,825.332 71.3295319,829.244 L71.3295319,829.244 L71.5815319,830 L85.6215319,830 Z M99.5182979,830.432 C102.182298,830.432 104.276298,829.628 105.800298,828.02 C107.324298,826.412 108.086298,824.264 108.086298,821.576 C108.086298,819.416 107.462298,817.568 106.214298,816.032 C104.894298,814.4 103.178298,813.584 101.066298,813.584 C100.322298,813.584 99.5662979,813.704 98.7982979,813.944 L98.7982979,813.944 L98.7262979,813.872 L107.762298,805.628 L107.474298,804.764 L95.1982979,804.764 L91.8502979,812.036 L92.8582979,812.504 L94.4422979,809.336 L102.110298,809.336 L93.3622979,817.364 L94.1542979,818.192 C95.4982979,816.92 96.2182979,816.248 96.3142979,816.176 C97.2262979,815.48 98.1382979,815.132 99.0502979,815.132 C100.538298,815.132 101.534298,815.96 102.038298,817.616 C102.326298,818.528 102.470298,819.98 102.470298,821.972 C102.470298,824.228 102.278298,825.8 101.894298,826.688 C101.294298,828.176 100.046298,828.92 98.1502979,828.92 C96.9022979,828.92 95.7742979,828.428 94.7662979,827.444 C93.9022979,826.604 93.2302979,825.536 92.7502979,824.24 L92.7502979,824.24 L91.7062979,824.6 C93.1222979,828.488 95.7262979,830.432 99.5182979,830.432 Z M125.223064,830 L125.223064,822.296 L127.671064,822.296 L127.671064,825.644 L128.751064,825.644 L128.751064,817.868 L127.671064,817.868 L127.671064,821 L125.223064,821 L125.223064,804.332 L122.487064,804.332 L111.147064,821.252 L111.147064,822.296 L119.823064,822.296 L119.823064,830 L125.223064,830 Z M119.823064,821 L112.875064,821 L119.751064,810.812 L119.823064,810.812 L119.823064,821 Z M139.62383,830.432 C142.21583,830.432 144.31583,829.592 145.92383,827.912 C147.53183,826.232 148.33583,824.084 148.33583,821.468 C148.33583,819.164 147.68783,817.244 146.39183,815.708 C145.02383,814.076 143.21183,813.26 140.95583,813.26 C138.43583,813.26 136.44383,814.184 134.97983,816.032 L134.97983,816.032 L134.90783,815.96 L135.59183,809.552 C139.16783,809.552 141.08783,809.54 141.35183,809.516 C142.76783,809.372 143.87183,808.868 144.66383,808.004 C145.45583,807.14 146.31983,805.46 147.25583,802.964 L147.25583,802.964 L146.28383,802.532 C145.63583,804.212 143.66783,805.052 140.37983,805.052 C139.63583,805.052 138.62783,805.004 137.35583,804.908 C136.08383,804.812 135.26783,804.764 134.90783,804.764 L134.90783,804.764 L133.50383,819.236 L134.58383,819.344 C134.75183,818.264 135.22583,817.31 136.00583,816.482 C136.78583,815.654 137.70383,815.24 138.75983,815.24 C140.36783,815.24 141.47183,815.96 142.07183,817.4 C142.50383,818.384 142.71983,819.812 142.71983,821.684 C142.71983,823.748 142.52783,825.284 142.14383,826.292 C141.51983,827.9 140.35583,828.704 138.65183,828.704 C135.91583,828.704 133.95983,826.82 132.78383,823.052 L132.78383,823.052 L131.66783,823.34 C132.09983,825.428 132.99983,827.108 134.36783,828.38 C135.80783,829.748 137.55983,830.432 139.62383,830.432 Z M160.324596,830.432 C162.772596,830.432 164.764596,829.556 166.300596,827.804 C167.764596,826.148 168.496596,824.072 168.496596,821.576 C168.496596,819.224 167.872596,817.304 166.624596,815.816 C165.304596,814.208 163.504596,813.404 161.224596,813.404 C159.448596,813.404 158.068596,814.04 157.084596,815.312 L157.084596,815.312 L157.012596,815.312 C156.988596,808.712 158.512596,805.412 161.584596,805.412 C163.048596,805.412 163.780596,805.916 163.780596,806.924 C163.780596,807.188 163.702596,807.572 163.546596,808.076 C163.390596,808.58 163.312596,808.964 163.312596,809.228 C163.312596,810.5 163.996596,811.136 165.364596,811.136 C166.732596,811.136 167.416596,810.38 167.416596,808.868 C167.416596,807.356 166.780596,806.192 165.508596,805.376 C164.452596,804.68 163.132596,804.332 161.548596,804.332 C158.236596,804.332 155.680596,805.808 153.880596,808.76 C152.368596,811.256 151.612596,814.268 151.612596,817.796 C151.612596,821.228 152.200596,824.036 153.376596,826.22 C154.864596,829.028 157.180596,830.432 160.324596,830.432 Z M160.036596,829.352 C158.020596,829.352 157.012596,826.952 157.012596,822.152 C157.012596,820.064 157.108596,818.588 157.300596,817.724 C157.708596,815.876 158.620596,814.952 160.036596,814.952 C161.428596,814.952 162.340596,815.876 162.772596,817.724 C162.988596,818.588 163.096596,820.064 163.096596,822.152 C163.096596,826.952 162.076596,829.352 160.036596,829.352 Z M181.601362,830 C181.889362,825.224 182.585362,820.88 183.689362,816.968 C184.673362,813.512 186.293362,809.444 188.549362,804.764 L188.549362,804.764 L173.645362,804.764 L171.665362,812.396 L172.709362,812.72 L173.645362,809.336 L185.309362,809.336 C182.477362,813.776 180.509362,817.064 179.405362,819.2 C177.437362,823.016 176.177362,826.616 175.625362,830 L175.625362,830 L181.601362,830 Z M200.178128,830.432 C202.506128,830.432 204.492128,829.664 206.136128,828.128 C207.780128,826.592 208.602128,824.672 208.602128,822.368 C208.602128,818.984 207.114128,816.548 204.138128,815.06 C205.194128,814.58 206.046128,813.92 206.694128,813.08 C207.438128,812.168 207.810128,811.172 207.810128,810.092 C207.810128,808.22 207.006128,806.756 205.398128,805.7 C203.982128,804.788 202.290128,804.332 200.322128,804.332 C198.306128,804.332 196.530128,804.956 194.994128,806.204 C193.362128,807.524 192.546128,809.168 192.546128,811.136 C192.546128,813.896 193.770128,815.924 196.218128,817.22 C193.194128,818.78 191.682128,820.832 191.682128,823.376 C191.682128,825.584 192.570128,827.348 194.346128,828.668 C195.954128,829.844 197.898128,830.432 200.178128,830.432 Z M203.166128,814.52 C201.726128,813.896 200.286128,813.272 198.846128,812.648 C197.142128,811.736 196.290128,810.548 196.290128,809.084 C196.290128,807.98 196.644128,807.092 197.352128,806.42 C198.060128,805.748 198.966128,805.412 200.070128,805.412 C202.926128,805.412 204.354128,807.188 204.354128,810.74 C204.354128,812.228 203.958128,813.488 203.166128,814.52 Z M200.034128,829.352 C198.570128,829.352 197.406128,828.74 196.542128,827.516 C195.798128,826.436 195.426128,825.128 195.426128,823.592 C195.426128,821.432 196.134128,819.548 197.550128,817.94 C198.630128,818.42 199.698128,818.9 200.754128,819.38 C202.050128,820.004 203.010128,820.652 203.634128,821.324 C204.450128,822.188 204.858128,823.244 204.858128,824.492 C204.858128,825.956 204.414128,827.132 203.526128,828.02 C202.638128,828.908 201.474128,829.352 200.034128,829.352 Z M218.718894,830.432 C222.006894,830.432 224.550894,828.956 226.350894,826.004 C227.886894,823.508 228.654894,820.496 228.654894,816.968 C228.654894,813.536 228.066894,810.728 226.890894,808.544 C225.378894,805.736 223.062894,804.332 219.942894,804.332 C217.470894,804.332 215.466894,805.208 213.930894,806.96 C212.490894,808.616 211.770894,810.692 211.770894,813.188 C211.770894,815.54 212.382894,817.46 213.606894,818.948 C214.926894,820.556 216.738894,821.36 219.042894,821.36 C220.818894,821.36 222.198894,820.724 223.182894,819.452 L223.182894,819.452 L223.254894,819.452 C223.254894,826.052 221.730894,829.352 218.682894,829.352 C217.218894,829.352 216.486894,828.848 216.486894,827.84 C216.486894,827.576 216.564894,827.192 216.720894,826.688 C216.876894,826.184 216.954894,825.8 216.954894,825.536 C216.954894,824.264 216.270894,823.628 214.902894,823.628 C213.534894,823.628 212.850894,824.384 212.850894,825.896 C212.850894,827.408 213.474894,828.572 214.722894,829.388 C215.778894,830.084 217.110894,830.432 218.718894,830.432 Z M220.230894,819.812 C218.814894,819.812 217.890894,818.888 217.458894,817.04 C217.266894,816.176 217.170894,814.7 217.170894,812.612 C217.170894,807.812 218.190894,805.412 220.230894,805.412 C222.246894,805.412 223.254894,807.812 223.254894,812.612 C223.254894,814.7 223.146894,816.176 222.930894,817.04 C222.522894,818.888 221.622894,819.812 220.230894,819.812 Z M262.244426,830.432 C264.116426,830.432 265.658426,829.868 266.870426,828.74 C268.082426,827.612 268.688426,826.112 268.688426,824.24 C268.688426,823.304 268.484426,822.272 268.076426,821.144 L268.076426,821.144 L267.140426,821.468 C267.452426,822.404 267.608426,823.316 267.608426,824.204 C267.608426,826.316 266.756426,827.372 265.052426,827.372 C263.732426,827.372 262.436426,826.196 261.164426,823.844 C261.836426,822.932 262.520426,821.504 263.216426,819.56 C263.888426,817.736 264.500426,816.5 265.052426,815.852 C265.964426,814.796 267.320426,814.268 269.120426,814.268 L269.120426,814.268 L269.120426,813.152 L259.112426,813.152 L259.112426,814.268 C260.456426,814.268 261.320426,814.352 261.704426,814.52 C262.424426,814.808 262.784426,815.528 262.784426,816.68 C262.784426,818.768 262.016426,820.784 260.480426,822.728 L260.480426,822.728 L255.296426,812.9 C257.168426,811.724 258.356426,810.92 258.860426,810.488 C260.204426,809.312 260.876426,808.112 260.876426,806.888 C260.876426,805.64 260.300426,804.692 259.148426,804.044 C258.212426,803.516 257.060426,803.252 255.692426,803.252 C253.652426,803.252 251.936426,803.756 250.544426,804.764 C249.008426,805.892 248.240426,807.44 248.240426,809.408 C248.240426,810.536 248.780426,812.276 249.860426,814.628 C247.220426,816.284 245.480426,817.484 244.640426,818.228 C242.840426,819.884 241.940426,821.696 241.940426,823.664 C241.940426,825.632 242.732426,827.276 244.316426,828.596 C245.828426,829.82 247.592426,830.432 249.608426,830.432 C252.344426,830.432 254.876426,829.568 257.204426,827.84 C258.428426,829.568 260.108426,830.432 262.244426,830.432 Z M254.720426,811.856 C253.568426,809.552 252.992426,807.896 252.992426,806.888 C252.992426,806.12 253.220426,805.502 253.676426,805.034 C254.132426,804.566 254.744426,804.332 255.512426,804.332 C257.216426,804.332 258.068426,805.244 258.068426,807.068 C258.068426,808.004 257.720426,808.94 257.024426,809.876 C256.400426,810.692 255.632426,811.352 254.720426,811.856 Z M252.632426,828.488 C251.216426,828.488 249.884426,827.564 248.636426,825.716 C247.484426,824.036 246.908426,822.452 246.908426,820.964 C246.908426,818.636 248.060426,816.884 250.364426,815.708 C253.052426,820.988 255.128426,824.732 256.592426,826.94 C255.464426,827.972 254.144426,828.488 252.632426,828.488 Z M287.013191,834.536 L287.013191,832.736 L269.013191,832.736 L269.013191,834.536 L287.013191,834.536 Z M295.581957,815.6 C296.133957,815.6 296.637957,815.384 297.093957,814.952 C297.549957,814.52 297.777957,814.04 297.777957,813.512 C297.777957,812.744 297.273957,812.096 296.265957,811.568 C294.891642,810.837895 294.093725,810.405596 293.872207,810.271102 L293.817957,810.236 C294.225957,810.236 294.825957,810.302 295.617957,810.434 C296.409957,810.566 296.997957,810.632 297.381957,810.632 C298.605957,810.632 299.217957,810.068 299.217957,808.94 C299.217957,808.292 299.061957,807.74 298.749957,807.284 C298.365957,806.756 297.861957,806.492 297.237957,806.492 C296.709957,806.492 296.097957,806.9 295.401957,807.716 C294.609957,808.628 294.021957,809.144 293.637957,809.264 C293.685957,808.832 293.973957,808.148 294.501957,807.212 C295.029957,806.276 295.293957,805.64 295.293957,805.304 C295.293957,804.152 294.573957,803.576 293.133957,803.576 C291.693957,803.576 290.973957,804.152 290.973957,805.304 C290.973957,805.64 291.237957,806.276 291.765957,807.212 C292.293957,808.148 292.581957,808.832 292.629957,809.264 C292.245957,809.144 291.669957,808.628 290.901957,807.716 C290.181957,806.9 289.557957,806.492 289.029957,806.492 C288.405957,806.492 287.919957,806.738 287.571957,807.23 C287.223957,807.722 287.049957,808.292 287.049957,808.94 C287.049957,810.068 287.661957,810.632 288.885957,810.632 C289.293957,810.632 289.893957,810.566 290.685957,810.434 C291.477957,810.302 292.065957,810.236 292.449957,810.236 C292.377957,810.308 291.573957,810.752 290.037957,811.568 C289.005957,812.096 288.489957,812.744 288.489957,813.512 C288.489957,814.04 288.723957,814.52 289.191957,814.952 C289.659957,815.384 290.157957,815.6 290.685957,815.6 C291.645957,815.6 292.281957,814.988 292.593957,813.764 L292.593957,813.764 L293.097957,810.74 L293.133957,810.74 C293.325957,811.748 293.517957,812.756 293.709957,813.764 C293.997957,814.988 294.621957,815.6 295.581957,815.6 Z M315.562723,830.432 C318.058723,830.432 320.734723,829.64 323.590723,828.056 L323.590723,828.056 L323.158723,825.968 C320.782723,827.192 318.238723,827.804 315.526723,827.804 C312.670723,827.804 310.240723,826.82 308.236723,824.852 C306.232723,822.884 305.230723,820.472 305.230723,817.616 C305.230723,814.4 306.070723,811.736 307.750723,809.624 C309.574723,807.32 312.046723,806.168 315.166723,806.168 C317.806723,806.168 320.110723,806.984 322.078723,808.616 C324.142723,810.368 325.174723,812.528 325.174723,815.096 C325.174723,816.416 324.838723,817.904 324.166723,819.56 C323.350723,821.552 322.378723,822.548 321.250723,822.548 C320.410723,822.548 319.990723,822.092 319.990723,821.18 C319.990723,819.86 320.302723,818.084 320.926723,815.852 C321.430723,814.076 321.934723,812.312 322.438723,810.56 L322.438723,810.56 L319.594723,810.56 L319.234723,811.856 L319.162723,811.856 C318.850723,810.584 317.938723,809.948 316.426723,809.948 C314.194723,809.948 312.358723,811.016 310.918723,813.152 C309.622723,815.048 308.974723,817.172 308.974723,819.524 C308.974723,822.692 310.210723,824.276 312.682723,824.276 C313.498723,824.276 314.362723,823.994 315.274723,823.43 C316.186723,822.866 316.798723,822.224 317.110723,821.504 L317.110723,821.504 L317.182723,821.504 C317.422723,822.512 317.800723,823.226 318.316723,823.646 C318.832723,824.066 319.618723,824.276 320.674723,824.276 C322.786723,824.276 324.538723,823.232 325.930723,821.144 C327.154723,819.296 327.766723,817.268 327.766723,815.06 C327.766723,811.676 326.494723,808.892 323.950723,806.708 C321.550723,804.62 318.622723,803.576 315.166723,803.576 C311.182723,803.576 307.846723,804.914 305.158723,807.59 C302.470723,810.266 301.126723,813.608 301.126723,817.616 C301.126723,821.36 302.626723,824.468 305.626723,826.94 C308.434723,829.268 311.746723,830.432 315.562723,830.432 Z M314.158723,822.116 C313.510723,822.116 313.006723,821.72 312.646723,820.928 C312.358723,820.304 312.214723,819.62 312.214723,818.876 C312.214723,817.484 312.646723,816.068 313.510723,814.628 C314.470723,812.972 315.598723,812.144 316.894723,812.144 C317.902723,812.144 318.406723,812.972 318.406723,814.628 C318.406723,816.044 318.058723,817.556 317.362723,819.164 C316.474723,821.132 315.406723,822.116 314.158723,822.116 Z M335.615489,822.44 L335.615489,820.856 C335.615489,819.752 336.299489,818.828 337.667489,818.084 C339.947489,816.884 341.219489,816.164 341.483489,815.924 C342.851489,814.748 343.535489,813.068 343.535489,810.884 C343.535489,806.012 340.955489,803.576 335.795489,803.576 C334.307489,803.576 332.963489,803.948 331.763489,804.692 C330.371489,805.58 329.675489,806.72 329.675489,808.112 C329.675489,808.832 329.861489,809.444 330.233489,809.948 C330.605489,810.452 331.139489,810.704 331.835489,810.704 C333.275489,810.704 333.995489,809.972 333.995489,808.508 C333.995489,808.244 333.935489,807.842 333.815489,807.302 C333.695489,806.762 333.635489,806.36 333.635489,806.096 C333.635489,805.136 334.247489,804.656 335.471489,804.656 C336.863489,804.656 337.775489,805.376 338.207489,806.816 C338.447489,807.608 338.567489,808.904 338.567489,810.704 C338.567489,812.792 338.195489,814.412 337.451489,815.564 L337.451489,815.564 L335.435489,817.796 C334.691489,818.66 334.319489,819.8 334.319489,821.216 L334.319489,821.216 L334.319489,822.44 L335.615489,822.44 Z M335.111489,830.432 C335.927489,830.432 336.617489,830.144 337.181489,829.568 C337.745489,828.992 338.027489,828.296 338.027489,827.48 C338.027489,826.664 337.745489,825.968 337.181489,825.392 C336.617489,824.816 335.927489,824.528 335.111489,824.528 C334.319489,824.528 333.635489,824.816 333.059489,825.392 C332.483489,825.968 332.195489,826.664 332.195489,827.48 C332.195489,828.296 332.477489,828.992 333.041489,829.568 C333.605489,830.144 334.295489,830.432 335.111489,830.432 Z M347.640255,830.432 L357.468255,803.576 L353.652255,803.576 L343.824255,830.432 L347.640255,830.432 Z M368.557021,830 L368.557021,822.692 L375.793021,822.692 L375.793021,818.912 L368.557021,818.912 L368.557021,811.604 L364.813021,811.604 L364.813021,818.912 L357.577021,818.912 L357.577021,822.692 L364.813021,822.692 L364.813021,830 L368.557021,830 Z M389.401787,839.504 L390.049787,838.496 C385.369787,834.92 383.029787,829.268 383.029787,821.54 C383.029787,813.788 385.369787,808.124 390.049787,804.548 L390.049787,804.548 L389.401787,803.576 C381.697787,808.448 377.845787,814.436 377.845787,821.54 C377.845787,828.62 381.697787,834.608 389.401787,839.504 L389.401787,839.504 Z M394.010553,836.588 C397.466553,834.932 399.194553,832.4 399.194553,828.992 C399.194553,827.72 398.930553,826.688 398.402553,825.896 C397.778553,824.984 396.866553,824.528 395.666553,824.528 C394.802553,824.528 394.082553,824.804 393.506553,825.356 C392.930553,825.908 392.642553,826.616 392.642553,827.48 C392.642553,828.248 392.912553,828.896 393.452553,829.424 C393.992553,829.952 394.646553,830.216 395.414553,830.216 C396.038553,830.216 396.650553,830.096 397.250553,829.856 C397.250553,831.104 396.914553,832.238 396.242553,833.258 C395.570553,834.278 394.670553,835.052 393.542553,835.58 L393.542553,835.58 L394.010553,836.588 Z M404.415319,817.868 C405.231319,817.868 405.921319,817.58 406.485319,817.004 C407.049319,816.428 407.331319,815.732 407.331319,814.916 C407.331319,814.1 407.049319,813.404 406.485319,812.828 C405.921319,812.252 405.231319,811.964 404.415319,811.964 C403.599319,811.964 402.909319,812.252 402.345319,812.828 C401.781319,813.404 401.499319,814.1 401.499319,814.916 C401.499319,815.732 401.781319,816.428 402.345319,817.004 C402.909319,817.58 403.599319,817.868 404.415319,817.868 Z M404.415319,830.432 C405.231319,830.432 405.921319,830.144 406.485319,829.568 C407.049319,828.992 407.331319,828.296 407.331319,827.48 C407.331319,826.664 407.049319,825.968 406.485319,825.392 C405.921319,824.816 405.231319,824.528 404.415319,824.528 C403.599319,824.528 402.909319,824.816 402.345319,825.392 C401.781319,825.968 401.499319,826.664 401.499319,827.48 C401.499319,828.296 401.781319,828.992 402.345319,829.568 C402.909319,830.144 403.599319,830.432 404.415319,830.432 Z M413.596085,817.868 C414.412085,817.868 415.102085,817.58 415.666085,817.004 C416.230085,816.428 416.512085,815.732 416.512085,814.916 C416.512085,814.1 416.230085,813.404 415.666085,812.828 C415.102085,812.252 414.412085,811.964 413.596085,811.964 C412.780085,811.964 412.090085,812.252 411.526085,812.828 C410.962085,813.404 410.680085,814.1 410.680085,814.916 C410.680085,815.732 410.962085,816.428 411.526085,817.004 C412.090085,817.58 412.780085,817.868 413.596085,817.868 Z M411.688085,836.588 C415.144085,834.932 416.872085,832.4 416.872085,828.992 C416.872085,827.72 416.608085,826.688 416.080085,825.896 C415.456085,824.984 414.544085,824.528 413.344085,824.528 C412.480085,824.528 411.760085,824.804 411.184085,825.356 C410.608085,825.908 410.320085,826.616 410.320085,827.48 C410.320085,828.248 410.590085,828.896 411.130085,829.424 C411.670085,829.952 412.324085,830.216 413.092085,830.216 C413.716085,830.216 414.328085,830.096 414.928085,829.856 C414.928085,831.104 414.592085,832.238 413.920085,833.258 C413.248085,834.278 412.348085,835.052 411.220085,835.58 L411.220085,835.58 L411.688085,836.588 Z M415.828851,839.504 C423.532851,834.608 427.384851,828.62 427.384851,821.54 C427.384851,814.436 423.532851,808.448 415.828851,803.576 L415.828851,803.576 L415.180851,804.548 C419.860851,808.124 422.200851,813.788 422.200851,821.54 C422.200851,829.268 419.860851,834.92 415.180851,838.496 L415.180851,838.496 L415.828851,839.504 Z" id="walbaum"></path>
        </g>
    </g>
</svg>