<?xml version="1.0" encoding="UTF-8"?>
<svg width="380px" height="44px" viewBox="0 0 380 44" version="1.1" xmlns="http://www.w3.org/2000/svg" xmlns:xlink="http://www.w3.org/1999/xlink">
    <!-- Generator: Sketch 54.1 (76490) - https://sketchapp.com -->
    <title>Blue Cross NC / Products / Blue Assurance / CW</title>
    <desc>Created with Sketch.</desc>
    <defs>
        <polygon id="path-1" points="0.06 0.98 38.638 0.98 38.638 43.34 0.06 43.34"></polygon>
    </defs>
    <g id="Blue-Cross-NC-/-Products-/-Blue-Assurance-/-CW" stroke="none" stroke-width="1" fill="none" fill-rule="evenodd">
        <g id="BlueAssurance-RGB-CW-EPS">
            <g id="Group-3">
                <mask id="mask-2" fill="white">
                    <use xlink:href="#path-1"></use>
                </mask>
                <g id="Clip-2"></g>
                <path d="M15.239,20.9 L15.239,36.859 L15.359,41.6 L19.919,41.6 C22.019,41.6 24.239,41.359 26.159,39.439 C28.678,36.92 28.619,32.6 28.619,31.1 C28.619,26.48 27.599,24.019 25.739,22.58 C24.359,21.5 21.959,20.9 18.299,20.9 L15.239,20.9 Z M15.359,2.781 L15.299,6.921 L15.239,19.16 L19.199,19.16 C21.839,19.16 23.939,18.32 24.778,17.24 C25.798,16.041 26.338,14.06 26.338,10.94 C26.338,4.161 24.239,2.781 19.619,2.781 L15.359,2.781 Z M0,0.98 L23.759,0.98 C26.159,0.98 28.798,1.102 31.258,2.241 C35.818,4.4 35.938,8.961 35.938,9.921 C35.938,12.32 35.098,14.541 33.358,16.28 C30.539,19.221 26.818,19.641 24.119,19.94 C27.059,20.06 31.738,20.301 35.458,24.019 C36.898,25.46 38.638,27.859 38.638,31.76 C38.638,34.52 37.738,37.4 35.458,39.68 C32.039,43.1 27.718,43.34 23.999,43.34 L0,43.34 L0,41.779 L5.819,41.779 L5.939,35.84 L5.939,7.521 L5.819,2.541 L0,2.541 L0,0.98 L0,0.98 Z" id="Fill-1" fill="#38A1CE" mask="url(#mask-2)"></path>
            </g>
            <path d="M46.126,0.98 C48.945,0.98 49.785,0.921 52.425,0.741 L52.305,7.4 L52.305,36.98 L52.425,41.779 L56.565,41.779 L56.565,43.34 L39.045,43.34 L39.045,41.779 L43.545,41.779 L43.665,36.98 L43.665,7.4 L43.545,2.541 L39.045,2.541 L39.045,0.98 L46.126,0.98" id="Fill-4" fill="#38A1CE"></path>
            <path d="M61.411,14.301 C64.531,14.301 65.491,14.24 68.431,14.06 L68.311,19.641 L68.311,33.08 C68.311,35.359 68.431,37.1 68.911,38.301 C69.691,40.16 71.311,41 73.291,41 C75.031,41 76.531,40.34 77.671,39.26 C80.011,36.92 79.951,33.8 79.951,31.16 L79.951,20.48 L79.831,15.86 L75.391,15.86 L75.391,14.301 L80.551,14.301 C84.03,14.301 85.05,14.24 88.53,14.06 L88.41,19.641 L88.41,36.26 L88.53,41.721 L92.85,41.721 L92.85,43.34 L88.29,43.34 C84.45,43.34 83.07,43.4 80.19,43.58 L80.011,38.959 C78.75,40.52 75.811,44 69.031,44 C64.591,44 61.771,42.32 60.631,40.039 C59.731,38.359 59.791,36.199 59.791,34.4 L59.791,20.24 L59.671,15.86 L55.291,15.86 L55.291,14.301 L61.411,14.301" id="Fill-5" fill="#38A1CE"></path>
            <path d="M112.711,25.34 C112.771,20.66 112.83,15.141 107.431,15.141 C102.331,15.141 102.091,20.24 101.911,25.34 L112.711,25.34 Z M121.471,34.939 C119.91,37.881 116.67,44 107.611,44 C98.311,44 92.611,36.859 92.611,28.519 C92.611,20.54 98.012,13.461 107.671,13.461 C113.671,13.461 116.971,16.041 118.41,17.541 C121.711,20.96 121.83,24.56 121.891,27.141 L101.852,27.141 C101.911,32.24 102.031,36.859 104.551,39.5 C105.932,40.939 107.91,41.539 109.891,41.539 C116.371,41.539 118.83,36.08 119.67,34.16 L121.471,34.939 L121.471,34.939 Z" id="Fill-6" fill="#38A1CE"></path>
            <path d="M136.731,29.199 L153.875,29.199 L145.331,8.426 L136.731,29.199 Z M130.868,43.271 L126.177,43.271 L143.376,3.734 L147.286,3.734 L164.485,43.271 L159.794,43.271 L155.438,32.885 L135.223,32.885 L130.868,43.271 L130.868,43.271 Z" id="Fill-7" fill="#FFFFFE"></path>
            <path d="M182.355,23.336 C181.238,21.213 179.395,19.818 176.714,19.818 C174.146,19.818 171.298,20.935 171.298,23.727 C171.298,26.184 173.029,27.078 176.436,27.859 L180.177,28.752 C183.807,29.59 186.543,32.215 186.543,35.9 C186.543,41.596 181.461,43.941 176.379,43.941 C172.415,43.941 168.785,42.547 166.328,38.859 L169.511,36.682 C171.019,39.027 173.308,40.592 176.379,40.592 C179.395,40.592 182.522,39.252 182.522,36.236 C182.522,33.611 180.289,32.717 177.552,32.047 L173.978,31.209 C172.191,30.764 167.277,29.31 167.277,24.342 C167.277,18.924 172.024,16.467 176.938,16.467 C180.568,16.467 183.974,17.752 185.649,21.158 L182.355,23.336" id="Fill-8" fill="#FFFFFE"></path>
            <path d="M206.145,23.336 C205.027,21.213 203.184,19.818 200.504,19.818 C197.936,19.818 195.087,20.935 195.087,23.727 C195.087,26.184 196.818,27.078 200.225,27.859 L203.966,28.752 C207.596,29.59 210.332,32.215 210.332,35.9 C210.332,41.596 205.25,43.941 200.168,43.941 C196.203,43.941 192.574,42.547 190.117,38.859 L193.3,36.682 C194.808,39.027 197.098,40.592 200.168,40.592 C203.184,40.592 206.312,39.252 206.312,36.236 C206.312,33.611 204.078,32.717 201.342,32.047 L197.768,31.209 C195.98,30.764 191.066,29.31 191.066,24.342 C191.066,18.924 195.813,16.467 200.727,16.467 C204.357,16.467 207.764,17.752 209.438,21.158 L206.145,23.336" id="Fill-9" fill="#FFFFFE"></path>
            <path d="M233.953,43.271 C233.785,41.875 233.785,40.48 233.785,39.084 L233.674,39.084 C232.055,41.932 228.369,43.941 224.906,43.941 C218.262,43.941 215.078,40.201 215.078,33.723 L215.078,17.137 L218.764,17.137 L218.764,31.602 C218.764,37.408 220.383,40.592 225.855,40.592 C226.638,40.592 233.785,40.09 233.785,30.539 L233.785,17.137 L237.472,17.137 L237.472,37.52 C237.472,38.916 237.639,41.373 237.75,43.271 L233.953,43.271" id="Fill-10" fill="#FFFFFE"></path>
            <path d="M246.071,25.291 C246.071,22.945 245.959,20.935 245.848,17.137 L249.477,17.137 L249.477,21.996 L249.588,21.996 C250.651,19.203 253.387,16.467 257.965,16.467 C259.026,16.467 259.92,16.578 260.702,16.803 L259.975,20.432 C259.53,20.264 258.86,20.152 257.854,20.152 C252.27,20.152 249.756,25.012 249.756,28.529 L249.756,43.271 L246.071,43.271 L246.071,25.291" id="Fill-11" fill="#FFFFFE"></path>
            <path d="M278.124,30.26 C274.383,30.26 265.95,30.539 265.95,35.789 C265.95,39.252 269.133,40.592 272.092,40.592 C277.454,40.592 280.024,36.795 280.024,32.158 L280.024,30.26 L278.124,30.26 Z M280.024,27.244 L280.024,26.574 C280.024,22.051 277.844,19.818 273.323,19.818 C270.25,19.818 267.571,20.879 265.336,22.889 L263.102,20.264 C265.504,17.807 269.245,16.467 274.159,16.467 C279.297,16.467 283.709,19.371 283.709,25.736 L283.709,37.408 C283.709,39.418 283.932,41.875 284.155,43.271 L280.581,43.271 C280.358,41.988 280.247,40.424 280.247,39.027 L280.135,39.027 C278.012,42.49 275.108,43.941 270.92,43.941 C266.286,43.941 261.93,41.373 261.93,36.291 C261.93,27.803 271.926,27.244 278.18,27.244 L280.024,27.244 L280.024,27.244 Z" id="Fill-12" fill="#FFFFFE"></path>
            <g id="Group-16" transform="translate(290.000000, 16.000000)" fill="#FFFFFE">
                <path d="M4.151,1.137 C4.319,2.533 4.319,3.93 4.319,5.326 L4.43,5.326 C6.049,2.477 9.735,0.467 13.198,0.467 C19.842,0.467 23.026,4.209 23.026,10.685 L23.026,27.271 L19.34,27.271 L19.34,12.809 C19.34,7 17.721,3.818 12.249,3.818 C11.467,3.818 4.319,4.32 4.319,13.869 L4.319,27.271 L0.633,27.271 L0.633,6.889 C0.633,5.492 0.465,3.035 0.354,1.137 L4.151,1.137" id="Fill-13"></path>
                <path d="M48.881,7.279 C47.653,5.381 45.252,3.818 42.348,3.818 C36.26,3.707 32.52,8.228 32.52,14.205 C32.52,20.18 36.26,24.703 42.348,24.592 C45.252,24.592 47.653,23.027 48.881,21.129 L51.897,23.418 C49.329,26.434 45.866,27.887 42.348,27.941 C33.803,28.055 28.499,22.078 28.499,14.205 C28.499,6.33 33.803,0.355 42.348,0.467 C45.866,0.523 49.329,1.975 51.897,4.99 L48.881,7.279" id="Fill-15"></path>
            </g>
            <path d="M366.524,28.193 C366.524,23.225 363.34,19.818 358.036,19.818 C353.233,19.818 348.877,23.894 348.877,28.193 L366.524,28.193 Z M348.766,31.209 C349.211,36.459 353.176,40.592 358.37,40.592 C362.28,40.592 365.295,38.414 366.747,36.068 L369.594,38.414 C366.524,42.322 362.67,43.941 358.37,43.941 C350.608,43.941 344.856,38.078 344.856,30.205 C344.856,22.33 350.608,16.467 358.036,16.467 C365.965,16.523 370.543,22.387 370.543,29.535 L370.543,31.209 L348.766,31.209 L348.766,31.209 Z" id="Fill-17" fill="#FFFFFE"></path>
            <path d="M374.809,18.434 C374.653,18.203 374.424,18.088 374.124,18.088 C373.754,18.088 373.368,18.283 373.368,18.728 C373.368,19.684 375.184,19.178 375.184,20.453 C375.184,21.098 374.579,21.479 374.018,21.479 C373.588,21.479 373.174,21.322 372.903,20.953 L373.229,20.719 C373.379,20.978 373.663,21.148 374.034,21.148 C374.389,21.148 374.793,20.918 374.793,20.504 C374.793,19.504 372.979,20.059 372.979,18.764 C372.979,18.078 373.549,17.758 374.124,17.758 C374.524,17.758 374.844,17.869 375.124,18.188 L374.809,18.434" id="Fill-18" fill="#FFFFFE"></path>
            <polyline id="Fill-19" fill="#FFFFFE" points="377.659 20.729 378.854 17.848 379.403 17.848 379.403 21.389 379.043 21.389 379.043 18.328 379.034 18.328 377.752 21.389 377.563 21.389 376.284 18.328 376.274 18.328 376.274 21.389 375.913 21.389 375.913 17.848 376.463 17.848 377.659 20.729"></polyline>
        </g>
    </g>
</svg>